<?xml version="1.0" encoding="UTF-8"?>
<svg width="16px" height="16px" viewBox="0 0 16 16" version="1.1" xmlns="http://www.w3.org/2000/svg" xmlns:xlink="http://www.w3.org/1999/xlink">
    <title>Icon / 00_Action / bar-chart</title>
    <g id="Icon-/-00_Action-/-bar-chart" stroke="none" stroke-width="1" fill="none" fill-rule="evenodd">
        <g id="编组">
            <rect id="Rectangle" x="0" y="0" width="16" height="16"></rect>
            <path d="M5.2,10.3362702 C5.2,10.7577706 5.43634085,11.0186994 5.79949875,11.0186994 L6.90626566,11.0186994 C7.26942356,11.0186994 7.5,10.7577706 7.5,10.3362702 L7.5,2.70242925 C7.5,2.28761931 7.26942356,2.02 6.90626566,2.02 L5.79949875,2.02 C5.43634085,2.02 5.2,2.28761931 5.2,2.70242925 L5.2,10.3362702 Z M8.5,10.3579586 C8.5,10.7668665 8.72481203,11.02 9.08796992,11.02 L10.2062657,11.02 C10.5636591,11.02 10.8,10.7668665 10.8,10.3579586 L10.8,4.39958553 C10.8,3.99067758 10.5636591,3.73105348 10.2062657,3.73105348 L9.08796992,3.73105348 C8.72481203,3.73105348 8.5,3.99067758 8.5,4.39958553 L8.5,10.3579586 Z M1.9,10.3329927 C1.9,10.7565174 2.13634085,11.0186994 2.49373434,11.0186994 L3.60626566,11.0186994 C3.96365915,11.0186994 4.2,10.7565174 4.2,10.3329927 L4.2,5.40531648 C4.2,4.98851439 3.96365915,4.71960982 3.60626566,4.71960982 L2.49373434,4.71960982 C2.13634085,4.71960982 1.9,4.98851439 1.9,5.40531648 L1.9,10.3329927 Z M11.8,10.3598649 C11.8,10.7675954 12.0305764,11.02 12.3937343,11.02 L13.5062657,11.02 C13.8636591,11.02 14.1,10.7675954 14.1,10.3598649 L14.1,6.79384128 C14.1,6.39258271 13.8636591,6.13370622 13.5062657,6.13370622 L12.3937343,6.13370622 C12.0305764,6.13370622 11.8,6.39258271 11.8,6.79384128 L11.8,10.3598649 Z M0.9,13.0034632 C0.9,13.4675325 1.24392175,13.8 1.67382394,13.8 L14.3195622,13.8 C14.7560782,13.8 15.1,13.4675325 15.1,13.0034632 C15.1,12.5324675 14.7560782,12.2 14.3195622,12.2 L1.67382394,12.2 C1.24392175,12.2 0.9,12.5324675 0.9,13.0034632 Z" id="Shape" fill="#203548" fill-rule="nonzero"></path>
        </g>
    </g>
</svg>