<?xml version="1.0" encoding="UTF-8"?>
<svg width="20px" height="20px" viewBox="0 0 20 20" version="1.1" xmlns="http://www.w3.org/2000/svg" xmlns:xlink="http://www.w3.org/1999/xlink">
    <title>MCamel_Elasticserach</title>
    <g id="MCamel_Elasticserach" stroke="none" stroke-width="1" fill="none" fill-rule="evenodd">
        <g id="Elasticserach">
            <polygon id="Frame" points="0 0 20 0 20 20 0 20"></polygon>
            <g id="elasticsearch" transform="translate(2.5, 1.5)">
                <path d="M15,15.5408083 C13.6520758,13.6883792 11.1936915,12.2051282 8.44691961,12.2051282 C4.63288289,12.2051282 1.95611261,14.6140906 0.857142857,16.998952 C1.76106229,17.00131 9.81724753,16.998952 11.8603249,16.998952 C13.405717,16.998952 14.3792496,16.3119769 15,15.5408083 Z" id="down" fill="#3EBEB0" transform="translate(7.9286, 14.6026) scale(1, -1) translate(-7.9286, -14.6026)"></path>
                <path d="M15,3.33568006 C13.6520758,1.48325102 11.1936915,0 8.44691961,0 C4.63288289,0 1.95611261,2.40896242 0.857142857,4.7938238 C1.76106229,4.79618179 9.81724753,4.7938238 11.8603249,4.7938238 C13.405717,4.7938238 14.3792496,4.10684868 15,3.33568006 Z" id="up" fill="#F0C01A"></path>
                <path d="M0.34619132,6.1025641 C6.4532847,6.1025641 9.97854589,6.1025641 10.9219749,6.1025641 C12.3371184,6.1025641 13.2857143,7.29171301 13.2857143,8.5 C13.2857143,9.70828699 12.378936,10.8974359 10.9219749,10.8974359 C9.95066748,10.8974359 6.42540629,10.8974359 0.34619132,10.8974359 C0.115397107,10.1744515 0,9.35677885 0,8.44441792 C0,7.532057 0.115397107,6.75143906 0.34619132,6.1025641 Z" id="mid" fill="#06A6DF"></path>
                <path d="M4.64493713,12.2049873 L7.46874196,12.2053302 L7.07100018,12.2065002 C6.71372111,13.2526732 6.17552562,14.1175257 5.46278035,14.8956061 C5.24398341,15.1344595 4.88557089,15.4726762 4.38754281,15.9102564 L4.40532615,15.8955625 C3.7772316,15.558543 3.21433227,15.1521925 2.7214987,14.70286 C2.33241611,14.3396931 1.98700845,13.9602092 1.68369937,13.5655815 C1.34924789,13.1234751 1.07274294,12.664269 0.857142857,12.2059742 L2.91955074,12.2049776 C3.0062487,12.2049707 3.094781,12.2049651 3.18499354,12.204961 L4.33833313,12.2049691 C4.43952199,12.2049742 4.54177469,12.2049803 4.64493713,12.2049873 Z" id="left-down" fill="#009B8F"></path>
                <path d="M7.46647472,6.10080639 C7.62777824,6.83653884 7.71428571,7.63419751 7.71428571,8.50000555 C7.71428571,9.3881748 7.64945816,10.1811238 7.52109103,10.898099 L0.352608854,10.8973426 C0.120049736,10.1821416 0.00252309682,9.3742763 2.89346871e-05,8.47374669 C0.00171339845,7.86684437 0.0599281656,7.28070891 0.174861218,6.7156624 C0.223526291,6.49906201 0.282899817,6.2950733 0.352608854,6.10266849 Z" id="left-mid" fill="#000000"></path>
                <path d="M4.23863543,1.09006255 C4.64542235,1.44846772 4.94116151,1.7222343 5.12585288,1.91136229 C5.9085621,2.71287352 6.48037004,3.48182781 6.76874572,4.08483652 C6.87815827,4.31362391 6.97918637,4.54992534 7.07126248,4.79404681 L6.83650657,4.79460166 C4.46163596,4.79494918 2.04387633,4.79510817 1.14195838,4.79424104 L0.857142857,4.79381573 C1.06905719,4.33391232 1.33874383,3.87312638 1.66313984,3.42837567 C2.09317949,2.85203396 2.6066654,2.31047002 3.20371245,1.80602795 L3.11264496,1.88326668 C3.27540101,1.74765885 3.44467,1.61677926 3.62031182,1.49140179 C3.7914597,1.3739218 3.99648052,1.23872481 4.23551212,1.08731097 L4.1447657,1.14553727 Z" id="left-up" fill="#D7A229"></path>
            </g>
        </g>
    </g>
</svg>