<?xml version="1.0" encoding="UTF-8"?>
<svg width="20px" height="20px" viewBox="0 0 20 20" version="1.1" xmlns="http://www.w3.org/2000/svg" xmlns:xlink="http://www.w3.org/1999/xlink">
    <title>MCamel_Kafka</title>
    <g id="MCamel_Kafka" stroke="none" stroke-width="1" fill="none" fill-rule="evenodd">
        <g id="Kafka">
            <polygon id="Frame" points="0 0 20 0 20 20 0 20"></polygon>
            <path d="M14.2473278,11.0775 C13.425044,11.0775 12.688946,11.4225 12.1841429,11.9658333 L10.8913543,11.0983333 C11.0285482,10.74 11.1076985,10.3558333 11.1076985,9.95333334 C11.1076985,9.5575 11.032066,9.18 10.8992694,8.82666666 L12.1894196,7.96833334 C12.7096988,8.52961001 13.4598211,8.85145378 14.2482073,8.85166666 C15.765255,8.85166666 17,7.6825 17,6.24416666 C17,4.80583332 15.765255,3.63666666 14.2482073,3.63666666 C13.3805568,3.63799685 12.5642849,4.02663428 12.0453012,4.68549825 C11.5263175,5.34436223 11.3652949,6.19642699 11.6107428,6.985 L10.3197132,7.84333334 C9.76893899,7.19640485 8.98528239,6.76517114 8.11933433,6.6325 L8.11933433,5.15833334 C9.3917055,4.90313204 10.3026603,3.839865 10.3047626,2.6075 C10.3047626,1.16916666 9.0700176,0 7.55296984,0 C6.03592208,0 4.80205655,1.16916666 4.80205655,2.6075 C4.80413681,3.82168026 5.68955913,4.87413639 6.9382357,5.14666666 L6.9382357,6.64 C5.24111693,6.92421698 4.00309631,8.32028435 4,9.95333334 C4.00312101,11.5956377 5.25485287,12.9967798 6.96373969,13.2708333 L6.96373969,14.8475 C5.70322009,15.1114331 4.80507959,16.1692653 4.80293601,17.3925 C4.80205655,18.8308333 6.03592208,20 7.55296984,20 C9.0700176,20 10.3047626,18.8308333 10.3047626,17.3925 C10.3029493,16.1691547 9.40466319,15.1111511 8.14395888,14.8475 L8.14395888,13.2708333 C8.99382544,13.1349968 9.76266518,12.7112085 10.3074009,12.0783333 L11.6089839,12.9516667 C11.534642,13.1897519 11.4967326,13.4367122 11.4964146,13.685 C11.4964146,15.1225 12.7311595,16.2925 14.2482073,16.2925 C15.765255,16.2925 17,15.1233333 17,13.685 C17,12.2466667 15.7643756,11.0775 14.2473278,11.0775 L14.2473278,11.0775 Z M14.2473278,4.98083334 C14.9834258,4.98083334 15.5814504,5.54833334 15.5814504,6.245 C15.5814504,6.94166666 14.9834258,7.50916666 14.2473278,7.50916666 C13.5121093,7.50916666 12.9132053,6.94166666 12.9132053,6.245 C12.9132053,5.54833334 13.5121093,4.98083334 14.2473278,4.98083334 Z M6.21884725,2.6075 C6.21884725,1.91083334 6.81687186,1.34333334 7.55296984,1.34333334 C8.28906782,1.34333334 8.88709241,1.91083334 8.88709241,2.6075 C8.88709241,3.30416666 8.2890678,3.87166666 7.55296984,3.87166666 C6.81687188,3.87166666 6.21884725,3.30416666 6.21884725,2.6075 L6.21884725,2.6075 Z M8.88709241,17.3925 C8.88709241,18.0891667 8.2890678,18.6566667 7.55296984,18.6566667 C6.81687188,18.6566667 6.21884725,18.0891667 6.21884725,17.3925 C6.21884725,16.6958333 6.81687186,16.1283333 7.55296984,16.1283333 C8.28906782,16.1283333 8.88709241,16.6958333 8.88709241,17.3925 Z M7.55296984,11.7166667 C6.52561848,11.7157479 5.69302758,10.9268146 5.69205791,9.95333334 C5.69205791,8.98083334 6.52665405,8.19 7.55296984,8.19 C8.57928563,8.19 9.41388175,8.98083334 9.41388175,9.95333334 C9.41291208,10.9268146 8.58032119,11.7157478 7.55296984,11.7166667 L7.55296984,11.7166667 Z M14.2473278,14.9491667 C13.510914,14.9482485 12.9141742,14.3827993 12.9132053,13.685 C12.9132053,12.9883333 13.5112299,12.4208333 14.2473278,12.4208333 C14.9834258,12.4208333 15.5814504,12.9883333 15.5814504,13.685 C15.5814504,14.3816667 14.9834258,14.9491667 14.2473278,14.9491667 Z" id="Shape" fill="#000000" fill-rule="nonzero"></path>
        </g>
    </g>
</svg>