<?xml version="1.0" encoding="UTF-8"?>
<svg width="20px" height="20px" viewBox="0 0 20 20" version="1.1" xmlns="http://www.w3.org/2000/svg" xmlns:xlink="http://www.w3.org/1999/xlink">
    <title>MCamel_MySQL</title>
    <g id="MCamel_MySQL" stroke="none" stroke-width="1" fill="none" fill-rule="evenodd">
        <g id="mysql-copy">
            <polygon id="Frame" points="0 0 20 0 20 20 0 20"></polygon>
            <path d="M1.99765935,2.00955703 C2.79931066,1.93218509 4.19442324,2.33591536 4.76395462,2.81120013 C5.02756196,3.03043138 5.28278725,3.25901735 5.52911285,3.49649444 C7.78689796,3.07414837 9.80717891,4.1399032 11.5468819,6.66990742 C13.1627477,9.01957104 14.2701034,10.9707401 14.8420277,12.4757116 C15.6517725,12.8741419 16.4334079,13.3244332 17.1817727,13.8236122 C18.4362972,14.6537607 18.7761016,15.0842512 18.9226722,15.3361463 C19.0272239,15.5162839 19.0256597,15.7368336 18.9185628,15.9155517 C18.8114659,16.0942698 18.6149121,16.2043298 18.4021971,16.20469 L16.3442266,16.20469 C16.6505405,16.5450061 16.9626696,16.8803311 17.2804835,17.2105252 C17.4343991,17.3604467 17.492339,17.5798768 17.4317386,17.7833587 C17.3711382,17.9868406 17.2015784,18.1422039 16.989094,18.1889427 C16.7766096,18.2356814 16.5547943,18.1664061 16.4100338,18.0080961 C15.7839129,17.3529199 15.1739266,16.6833367 14.5805937,15.9999161 C14.4300357,15.8270832 14.3962013,15.5850367 14.4938545,15.3793955 C14.5915077,15.1737543 14.8029277,15.0418352 15.0358599,15.0412022 L16.8838456,15.0412022 C16.7713751,14.9626667 16.6469397,14.8777321 16.5087446,14.7863983 C15.7420796,14.2729075 14.9372125,13.8155595 14.1007994,13.4181367 C13.956761,13.3507215 13.8464591,13.230055 13.7944968,13.0830522 C13.2847902,11.6438178 12.1941854,9.70370187 10.552595,7.3162249 C9.0168943,5.08291006 7.35795468,4.22716478 5.48484255,4.69837734 C5.27425952,4.75189778 5.05051505,4.68965118 4.90095324,4.53607079 C4.61038048,4.24049098 4.30447734,3.95953076 3.98443846,3.69428737 C3.67275164,3.4336661 2.76221933,3.18235274 2.28302329,3.16024647 C2.41822716,3.46333504 2.78794396,4.1015081 3.79419583,5.37610899 C3.83276531,5.42493855 3.86287458,5.47956588 3.88333467,5.53783379 C4.23929178,6.53319761 4.41218524,7.27724806 4.41218524,7.81303419 C4.41218524,7.96079714 4.4965381,8.40466774 5.27545602,9.33487624 C5.40046379,9.48366613 5.44167702,9.68295869 5.38553351,9.86717191 C5.31733332,10.0911433 5.08880287,10.8491556 4.70054041,12.1441175 C4.30988496,13.4448969 5.08820463,15.1814024 5.58355335,15.7352226 C5.69841682,15.4332976 5.87011378,14.7177526 5.9425017,13.0626912 C5.95386157,12.7993117 6.14575592,12.5762022 6.41033104,12.5187606 C6.67468692,12.4631287 6.94476676,12.5856415 7.070796,12.8183587 C7.36094592,13.3599623 7.78510322,14.3221667 8.36779604,15.7608194 C9.05877161,17.4659107 9.54335188,17.8225198 9.71923657,17.896983 C10.0033136,18.035478 10.1266761,18.3656279 10.0002886,18.6491504 C9.8739011,18.9326729 9.54177992,19.0708269 9.24363001,18.9639013 C8.53351052,18.6648849 7.90176143,17.7823794 7.2556544,16.1872377 C7.13600495,15.89113 7.02233798,15.6148017 6.91525172,15.3582526 C6.70586518,16.4496042 6.38161518,16.8318099 5.97959303,16.9853903 C5.7791802,17.0615987 5.37356856,17.1255906 4.89197953,16.6974271 C3.98922443,15.895784 3.01946565,13.5961503 3.55310219,11.818341 L4.15134944,9.82761332 C3.51541261,9.02073453 3.21688724,8.37616229 3.21688724,7.81419768 C3.21688724,7.54834072 3.14090984,7.02011725 2.78555097,6.00904635 C0.91722482,3.63029554 0.782020943,2.90020694 1.18703433,2.39292626 C1.36172253,2.17419055 1.63452327,2.04504341 1.99765935,2.00955703 Z M6.47826087,5.88786081 C6.73330659,5.84145934 7.52844911,5.83302271 7.77371047,6.13252312 C8.24596903,6.56068216 8.0137535,7.21241194 7.71761346,7.37639896 L7.67651913,7.40909091 C7.5082281,7.14070057 7.24535489,6.92662105 7.07641157,6.658758 C6.93616904,6.50320761 6.73656804,6.24641764 6.47826087,5.88786081 Z" id="Combined-Shape" fill="#095F73" fill-rule="nonzero"></path>
        </g>
    </g>
</svg>