<?xml version="1.0" encoding="UTF-8"?>
<svg width="20px" height="20px" viewBox="0 0 20 20" version="1.1" xmlns="http://www.w3.org/2000/svg" xmlns:xlink="http://www.w3.org/1999/xlink">
    <title>MCamel_RabbitMQ</title>
    <g id="MCamel_RabbitMQ" stroke="none" stroke-width="1" fill="none" fill-rule="evenodd">
        <g id="rabbitmq">
            <polygon id="Frame" points="0 0 20 0 20 20 0 20"></polygon>
            <path d="M16.7407155,8.49266667 L12.055487,8.49266667 C11.6808009,8.44733334 11.3953258,8.11466667 11.3953258,7.72266667 L11.3953258,2.76266667 C11.3955011,2.56045622 11.3160005,2.36646723 11.1743316,2.22342029 C11.0326626,2.08037334 10.8404439,2 10.6400062,2 L9.00050663,2 C8.58088462,2 8.24386537,2.34333333 8.24386537,2.76333333 L8.24386537,7.77533333 C8.22337988,8.15333333 7.91411516,8.458 7.54273317,8.49266667 L6.3155866,8.49266667 C5.95279045,8.44399874 5.67482195,8.14318215 5.65212124,7.77466667 L5.65212124,2.76333333 C5.65212124,2.34 5.31179788,2 4.89614081,2 L3.25598044,2 C2.83701925,2 2.5,2.34333333 2.5,2.76333333 L2.5,17.2366667 C2.5,17.66 2.84032337,18 3.25598044,18 L16.7440196,18 C17.1636416,18 17.5,17.6566667 17.5,17.2366667 L17.5,9.256 C17.4989066,8.83383899 17.1591767,8.49229749 16.7407155,8.49266667 Z M14.5824706,13.966 C14.5824706,14.3893333 14.2421472,14.7293333 13.8264902,14.7293333 L12.1869906,14.7293333 C11.9863776,14.7293333 11.7939908,14.6488897 11.652198,14.5057178 C11.5104051,14.3625458 11.4308348,14.1683873 11.4310099,13.966 L11.4310099,12.4053333 C11.4310099,11.982 11.7713335,11.642 12.1869906,11.642 L13.8264902,11.642 C14.2461122,11.642 14.5824706,11.9853333 14.5824706,12.4053333 L14.5824706,13.966 L14.5824706,13.966 Z" id="Shape" fill="#FF6600" fill-rule="nonzero"></path>
        </g>
    </g>
</svg>