<?xml version="1.0" encoding="UTF-8"?>
<svg width="20px" height="20px" viewBox="0 0 20 20" version="1.1" xmlns="http://www.w3.org/2000/svg" xmlns:xlink="http://www.w3.org/1999/xlink">
    <title>MCamel_Redis</title>
    <g id="MCamel_Redis" stroke="none" stroke-width="1" fill="none" fill-rule="evenodd">
        <g id="Redis">
            <polygon id="Frame" points="0 0 20 0 20 20 0 20"></polygon>
            <g id="redis" transform="translate(1, 2.5)">
                <path d="M17.283,9.2534354 C17.0857132,9.17851274 16.710264,9.02867339 16.231652,8.83545501 C15.3271748,8.47031239 12.1752953,11.8935331 8.999625,11.9454437 C5.88314526,11.9963867 2.74253921,8.66902646 1.80728419,9.04846676 C1.29172775,9.25763205 0.891657544,9.42014951 0.69075,9.50155753 C0.221999994,9.69289935 -0.00675,9.86946273 0.000749988281,10.0576933 L0.000749988281,11.9454437 C0.000749988281,12.1336742 0.251249994,12.3327942 0.728249994,12.5692491 C1.68224999,13.042159 6.97725,15.2612574 7.81425,15.6758314 C8.65125,16.0904053 9.23925001,16.09585 10.299,15.5233802 C11.358,14.9509103 16.33425,12.8282606 17.295,12.3094598 C17.78325,12.0450036 18,11.8396612 18,11.6537641 L18,9.79323713 L17.994,9.79323713 C18.00375,9.60345093 17.7645,9.43699911 17.283,9.2534354 Z" id="body-3" fill="#E01F06" fill-rule="nonzero"></path>
                <path d="M17.9955,9.82007063 C17.988,9.99818964 17.76075,10.1973096 17.29425,10.4500986 C16.33425,10.9688994 11.35725,13.0915491 10.29825,13.6640189 C9.2385,14.2364887 8.65049999,14.231044 7.81349999,13.8156923 C6.97649999,13.4011184 1.68149999,11.1820199 0.727499988,10.7098879 C0.251249994,10.4734329 0.00824999414,10.274313 0,10.0860824 L0,11.973055 C0,12.1612856 0.250500006,12.3611833 0.727499988,12.5976383 C1.68149999,13.0705481 6.97724998,15.2888687 7.81349999,15.7034427 C8.65049999,16.1187944 9.2385,16.1242391 10.29825,15.5509915 C11.35725,14.9785216 16.3335,12.8566498 17.29425,12.3370711 C17.7825,12.0733928 17.99925,11.8680503 17.99925,11.6821532 L17.99925,9.82162624 L17.9955,9.82007063 L17.9955,9.82007063 Z" id="front-3" fill="#B10002" fill-rule="nonzero"></path>
                <path d="M17.283,6.2134354 C17.1474388,6.16195399 16.9277593,6.0751011 16.6482932,5.9631083 C15.805098,5.6252077 12.2184547,8.56199868 8.76624514,8.61376408 C5.46243185,8.6633043 2.28942096,5.81275387 1.4271708,6.16271493 C1.09567286,6.29725984 0.838993945,6.40148887 0.69075,6.46155753 C0.221999994,6.65289935 -0.00675,6.82946273 0.000749988281,7.01769329 L0.000749988281,8.90544368 C0.000749988281,9.09367425 0.251249994,9.2927942 0.728249994,9.52924913 C1.68224999,10.002159 6.97725,12.2212574 7.81425,12.6358314 C8.65125,13.0504053 9.23925001,13.05585 10.299,12.4833802 C11.358,11.9109103 16.33425,9.78826062 17.295,9.26945983 C17.78325,9.00500365 18,8.79966121 18,8.61376408 L18,6.75323713 L17.994,6.75323713 C18.00375,6.56345093 17.7645,6.39699911 17.283,6.2134354 Z" id="body-2" fill="#E01F06" fill-rule="nonzero"></path>
                <path d="M17.29425,7.37307321 C16.33425,7.89187401 11.35725,10.0145237 10.29825,10.5869935 C9.2385,11.1594634 8.65049999,11.1540187 7.81349999,10.7394447 C6.97649999,10.3248708 1.68149999,8.10577238 0.727499988,7.6328625 C0.251249994,7.39718538 0.00824999414,7.19728763 0,7.00983487 L0,8.89680746 C0,9.08503803 0.250500006,9.28415797 0.727499988,9.52061289 C1.68149999,9.99352275 6.97649999,12.2118434 7.81349999,12.6264173 C8.65049999,13.0417691 9.2385,13.0472138 10.29825,12.4747439 C11.35725,11.9022741 16.3335,9.77962438 17.29425,9.26082361 C17.7825,8.99636743 17.99925,8.79102499 17.99925,8.60512786 L17.99925,6.74460089 L17.99475,6.74382307 C17.98725,6.92194209 17.76,7.12028422 17.29425,7.37307321 Z" id="front-2" fill="#B10002" fill-rule="nonzero"></path>
                <path d="M17.99475,3.55323713 C18.00375,3.36345093 17.7645,3.19699911 17.283,3.0134354 C16.347,2.65797519 11.40075,0.616217965 10.4535,0.256090894 C9.50625,-0.103258378 9.12074999,-0.0884799383 8.00849999,0.326093998 C6.894,0.739112317 1.62749999,2.88198512 0.69075,3.26155753 C0.221999994,3.45289935 -0.00675,3.62946273 0.000571432392,3.81769329 L0.000571432392,5.70544368 C0.000571432392,5.89367425 0.251249994,6.0927942 0.728249994,6.32924913 C1.68224999,6.80215899 6.97725,9.02125741 7.81425,9.43583137 C8.65125,9.8504053 9.23925001,9.85585 10.299,9.28338016 C11.358,8.71091031 16.33425,6.58826062 17.295,6.06945983 C17.78325,5.80500365 18,5.59966121 18,5.41376408 L18,3.55323713 L17.994,3.55323713 L17.99475,3.55323713 Z M6.44549999,5.33987192 L10.61625,4.67562024 L9.35624999,6.59137188 L6.44625,5.33987192 L6.44549999,5.33987192 Z M15.6705,3.61468429 L13.20375,4.62584025 L12.936,4.73473396 L10.47075,3.72357802 L13.20225,2.60352834 L15.66975,3.61468429 L15.6705,3.61468429 Z M8.4285,1.76115765 L8.02499999,0.989567857 L9.2835,1.49981272 L10.47,1.09690595 L10.149,1.89416355 L11.358,2.36396215 L9.79875,2.5319696 L9.44924999,3.40311935 L8.88525,2.43163182 L7.08525,2.26362436 L8.4285,1.76115765 L8.4285,1.76115765 Z M5.32125,2.85009483 C6.55275001,2.85009483 7.55024999,3.25066814 7.55024999,3.74535675 C7.55024999,4.24004536 6.55274999,4.64139649 5.32125,4.64139649 C4.08975001,4.64139649 3.0915,4.23926754 3.0915,3.74535675 C3.0915,3.25066814 4.08974999,2.84931701 5.32125,2.84931701 L5.32125,2.85009483 Z" id="body-1" fill="#E01F06" fill-rule="nonzero"></path>
                <path d="M17.29425,4.17307321 C16.33425,4.69187401 11.35725,6.8145237 10.29825,7.38699352 C9.2385,7.95946336 8.65049999,7.95401867 7.81349999,7.53944474 C6.97649999,7.1248708 1.68149999,4.90577238 0.727499988,4.4328625 C0.251249994,4.19718538 0.00824999414,3.99728763 0,3.80983487 L0,5.69680746 C0,5.88503803 0.250500006,6.08415797 0.727499988,6.32061289 C1.68149999,6.79352275 6.97649999,9.01184337 7.81349999,9.42641731 C8.65049999,9.84176906 9.2385,9.84721376 10.29825,9.27474392 C11.35725,8.70227407 16.3335,6.57962438 17.29425,6.06082361 C17.7825,5.79636743 17.99925,5.59102499 17.99925,5.40512786 L17.99925,3.54460089 L17.99475,3.54382307 C17.98725,3.72194209 17.76,3.92028422 17.29425,4.17307321 Z" id="front-1" fill="#B10002" fill-rule="nonzero"></path>
                <polygon id="shadow-bright" fill="#BC0200" points="13.20225 2.60352834 13.20225 4.64139649 12.936 4.73473396 10.47075 3.72357802"></polygon>
                <polygon id="shadow-dark" fill="#840000" points="13.20225 2.60352834 15.6705 3.61468429 13.20225 4.64139649"></polygon>
            </g>
        </g>
    </g>
</svg>