<svg viewBox="0 0 16 16" xmlns="http://www.w3.org/2000/svg">
  <path d="M5.44508671,11.0433526 L5.44508671,12.583815 L8.48843931,10.2355491 L5.44508671,7.88728324 L5.44508671,9.42774566 L1.5,9.42774566 L1.5,2.5 C1.5,1.94771525 1.94771525,1.5 2.5,1.5 L13.5,1.5 C14.0522847,1.5 14.5,1.94771525 14.5,2.5 L14.5,13.5 C14.5,14.0522847 14.0522847,14.5 13.5,14.5 L2.5,14.5 C1.94771525,14.5 1.5,14.0522847 1.5,13.5 L1.5,11.0433526 L5.44508671,11.0433526 Z M10.5549133,3.41618497 L7.51156069,5.76445087 L10.5549133,8.11271676 L10.5549133,6.57225434 L14.5,6.57225434 L14.5,4.9566474 L10.5549133,4.9566474 L10.5549133,3.41618497 Z" fill="currentColor"/>
</svg>
