<?xml version="1.0" encoding="utf-8" standalone="no"?>
<!DOCTYPE svg PUBLIC "-//W3C//DTD SVG 1.1//EN"
  "http://www.w3.org/Graphics/SVG/1.1/DTD/svg11.dtd">
<!-- Created with matplotlib (https://matplotlib.org/) -->
<svg height="360pt" version="1.1" viewBox="0 0 864 360" width="864pt" xmlns="http://www.w3.org/2000/svg" xmlns:xlink="http://www.w3.org/1999/xlink">
 <metadata>
  <rdf:RDF xmlns:cc="http://creativecommons.org/ns#" xmlns:dc="http://purl.org/dc/elements/1.1/" xmlns:rdf="http://www.w3.org/1999/02/22-rdf-syntax-ns#">
   <cc:Work>
    <dc:type rdf:resource="http://purl.org/dc/dcmitype/StillImage"/>
    <dc:date>2020-12-04T23:10:31.132115</dc:date>
    <dc:format>image/svg+xml</dc:format>
    <dc:creator>
     <cc:Agent>
      <dc:title>Matplotlib v3.3.2, https://matplotlib.org/</dc:title>
     </cc:Agent>
    </dc:creator>
   </cc:Work>
  </rdf:RDF>
 </metadata>
 <defs>
  <style type="text/css">*{stroke-linecap:butt;stroke-linejoin:round;}</style>
 </defs>
 <g id="figure_1">
  <g id="patch_1">
   <path d="M 0 360 
L 864 360 
L 864 0 
L 0 0 
z
" style="fill:#ffffff;"/>
  </g>
  <g id="axes_1">
   <g id="patch_2">
    <path d="M 108 320.4 
L 710.64 320.4 
L 710.64 43.2 
L 108 43.2 
z
" style="fill:#ffffff;"/>
   </g>
   <g id="matplotlib.axis_1">
    <g id="xtick_1">
     <g id="line2d_1">
      <defs>
       <path d="M 0 0 
L 0 3.5 
" id="m8f3a66a3e7" style="stroke:#777777;stroke-width:0.8;"/>
      </defs>
      <g>
       <use style="fill:#777777;stroke:#777777;stroke-width:0.8;" x="170.177143" xlink:href="#m8f3a66a3e7" y="320.4"/>
      </g>
     </g>
     <g id="text_1">
      <!-- 10 -->
      <g style="fill:#777777;" transform="translate(163.814643 334.998438)scale(0.1 -0.1)">
       <defs>
        <path d="M 12.40625 8.296875 
L 28.515625 8.296875 
L 28.515625 63.921875 
L 10.984375 60.40625 
L 10.984375 69.390625 
L 28.421875 72.90625 
L 38.28125 72.90625 
L 38.28125 8.296875 
L 54.390625 8.296875 
L 54.390625 0 
L 12.40625 0 
z
" id="DejaVuSans-49"/>
        <path d="M 31.78125 66.40625 
Q 24.171875 66.40625 20.328125 58.90625 
Q 16.5 51.421875 16.5 36.375 
Q 16.5 21.390625 20.328125 13.890625 
Q 24.171875 6.390625 31.78125 6.390625 
Q 39.453125 6.390625 43.28125 13.890625 
Q 47.125 21.390625 47.125 36.375 
Q 47.125 51.421875 43.28125 58.90625 
Q 39.453125 66.40625 31.78125 66.40625 
z
M 31.78125 74.21875 
Q 44.046875 74.21875 50.515625 64.515625 
Q 56.984375 54.828125 56.984375 36.375 
Q 56.984375 17.96875 50.515625 8.265625 
Q 44.046875 -1.421875 31.78125 -1.421875 
Q 19.53125 -1.421875 13.0625 8.265625 
Q 6.59375 17.96875 6.59375 36.375 
Q 6.59375 54.828125 13.0625 64.515625 
Q 19.53125 74.21875 31.78125 74.21875 
z
" id="DejaVuSans-48"/>
       </defs>
       <use xlink:href="#DejaVuSans-49"/>
       <use x="63.623047" xlink:href="#DejaVuSans-48"/>
      </g>
     </g>
    </g>
    <g id="xtick_2">
     <g id="line2d_2">
      <g>
       <use style="fill:#777777;stroke:#777777;stroke-width:0.8;" x="265.834286" xlink:href="#m8f3a66a3e7" y="320.4"/>
      </g>
     </g>
     <g id="text_2">
      <!-- 100 -->
      <g style="fill:#777777;" transform="translate(256.290536 334.998438)scale(0.1 -0.1)">
       <use xlink:href="#DejaVuSans-49"/>
       <use x="63.623047" xlink:href="#DejaVuSans-48"/>
       <use x="127.246094" xlink:href="#DejaVuSans-48"/>
      </g>
     </g>
    </g>
    <g id="xtick_3">
     <g id="line2d_3">
      <g>
       <use style="fill:#777777;stroke:#777777;stroke-width:0.8;" x="361.491429" xlink:href="#m8f3a66a3e7" y="320.4"/>
      </g>
     </g>
     <g id="text_3">
      <!-- 1000 -->
      <g style="fill:#777777;" transform="translate(348.766429 334.998438)scale(0.1 -0.1)">
       <use xlink:href="#DejaVuSans-49"/>
       <use x="63.623047" xlink:href="#DejaVuSans-48"/>
       <use x="127.246094" xlink:href="#DejaVuSans-48"/>
       <use x="190.869141" xlink:href="#DejaVuSans-48"/>
      </g>
     </g>
    </g>
    <g id="xtick_4">
     <g id="line2d_4">
      <g>
       <use style="fill:#777777;stroke:#777777;stroke-width:0.8;" x="457.148571" xlink:href="#m8f3a66a3e7" y="320.4"/>
      </g>
     </g>
     <g id="text_4">
      <!-- 10000 -->
      <g style="fill:#777777;" transform="translate(441.242321 334.998438)scale(0.1 -0.1)">
       <use xlink:href="#DejaVuSans-49"/>
       <use x="63.623047" xlink:href="#DejaVuSans-48"/>
       <use x="127.246094" xlink:href="#DejaVuSans-48"/>
       <use x="190.869141" xlink:href="#DejaVuSans-48"/>
       <use x="254.492188" xlink:href="#DejaVuSans-48"/>
      </g>
     </g>
    </g>
    <g id="xtick_5">
     <g id="line2d_5">
      <g>
       <use style="fill:#777777;stroke:#777777;stroke-width:0.8;" x="552.805714" xlink:href="#m8f3a66a3e7" y="320.4"/>
      </g>
     </g>
     <g id="text_5">
      <!-- 100000 -->
      <g style="fill:#777777;" transform="translate(533.718214 334.998438)scale(0.1 -0.1)">
       <use xlink:href="#DejaVuSans-49"/>
       <use x="63.623047" xlink:href="#DejaVuSans-48"/>
       <use x="127.246094" xlink:href="#DejaVuSans-48"/>
       <use x="190.869141" xlink:href="#DejaVuSans-48"/>
       <use x="254.492188" xlink:href="#DejaVuSans-48"/>
       <use x="318.115234" xlink:href="#DejaVuSans-48"/>
      </g>
     </g>
    </g>
    <g id="xtick_6">
     <g id="line2d_6">
      <g>
       <use style="fill:#777777;stroke:#777777;stroke-width:0.8;" x="648.462857" xlink:href="#m8f3a66a3e7" y="320.4"/>
      </g>
     </g>
     <g id="text_6">
      <!-- 1000000 -->
      <g style="fill:#777777;" transform="translate(626.194107 334.998438)scale(0.1 -0.1)">
       <use xlink:href="#DejaVuSans-49"/>
       <use x="63.623047" xlink:href="#DejaVuSans-48"/>
       <use x="127.246094" xlink:href="#DejaVuSans-48"/>
       <use x="190.869141" xlink:href="#DejaVuSans-48"/>
       <use x="254.492188" xlink:href="#DejaVuSans-48"/>
       <use x="318.115234" xlink:href="#DejaVuSans-48"/>
       <use x="381.738281" xlink:href="#DejaVuSans-48"/>
      </g>
     </g>
    </g>
    <g id="text_7">
     <!-- Number of rules -->
     <g style="fill:#585858;" transform="translate(368.941875 348.676562)scale(0.1 -0.1)">
      <defs>
       <path d="M 9.8125 72.90625 
L 23.09375 72.90625 
L 55.421875 11.921875 
L 55.421875 72.90625 
L 64.984375 72.90625 
L 64.984375 0 
L 51.703125 0 
L 19.390625 60.984375 
L 19.390625 0 
L 9.8125 0 
z
" id="DejaVuSans-78"/>
       <path d="M 8.5 21.578125 
L 8.5 54.6875 
L 17.484375 54.6875 
L 17.484375 21.921875 
Q 17.484375 14.15625 20.5 10.265625 
Q 23.53125 6.390625 29.59375 6.390625 
Q 36.859375 6.390625 41.078125 11.03125 
Q 45.3125 15.671875 45.3125 23.6875 
L 45.3125 54.6875 
L 54.296875 54.6875 
L 54.296875 0 
L 45.3125 0 
L 45.3125 8.40625 
Q 42.046875 3.421875 37.71875 1 
Q 33.40625 -1.421875 27.6875 -1.421875 
Q 18.265625 -1.421875 13.375 4.4375 
Q 8.5 10.296875 8.5 21.578125 
z
M 31.109375 56 
z
" id="DejaVuSans-117"/>
       <path d="M 52 44.1875 
Q 55.375 50.25 60.0625 53.125 
Q 64.75 56 71.09375 56 
Q 79.640625 56 84.28125 50.015625 
Q 88.921875 44.046875 88.921875 33.015625 
L 88.921875 0 
L 79.890625 0 
L 79.890625 32.71875 
Q 79.890625 40.578125 77.09375 44.375 
Q 74.3125 48.1875 68.609375 48.1875 
Q 61.625 48.1875 57.5625 43.546875 
Q 53.515625 38.921875 53.515625 30.90625 
L 53.515625 0 
L 44.484375 0 
L 44.484375 32.71875 
Q 44.484375 40.625 41.703125 44.40625 
Q 38.921875 48.1875 33.109375 48.1875 
Q 26.21875 48.1875 22.15625 43.53125 
Q 18.109375 38.875 18.109375 30.90625 
L 18.109375 0 
L 9.078125 0 
L 9.078125 54.6875 
L 18.109375 54.6875 
L 18.109375 46.1875 
Q 21.1875 51.21875 25.484375 53.609375 
Q 29.78125 56 35.6875 56 
Q 41.65625 56 45.828125 52.96875 
Q 50 49.953125 52 44.1875 
z
" id="DejaVuSans-109"/>
       <path d="M 48.6875 27.296875 
Q 48.6875 37.203125 44.609375 42.84375 
Q 40.53125 48.484375 33.40625 48.484375 
Q 26.265625 48.484375 22.1875 42.84375 
Q 18.109375 37.203125 18.109375 27.296875 
Q 18.109375 17.390625 22.1875 11.75 
Q 26.265625 6.109375 33.40625 6.109375 
Q 40.53125 6.109375 44.609375 11.75 
Q 48.6875 17.390625 48.6875 27.296875 
z
M 18.109375 46.390625 
Q 20.953125 51.265625 25.265625 53.625 
Q 29.59375 56 35.59375 56 
Q 45.5625 56 51.78125 48.09375 
Q 58.015625 40.1875 58.015625 27.296875 
Q 58.015625 14.40625 51.78125 6.484375 
Q 45.5625 -1.421875 35.59375 -1.421875 
Q 29.59375 -1.421875 25.265625 0.953125 
Q 20.953125 3.328125 18.109375 8.203125 
L 18.109375 0 
L 9.078125 0 
L 9.078125 75.984375 
L 18.109375 75.984375 
z
" id="DejaVuSans-98"/>
       <path d="M 56.203125 29.59375 
L 56.203125 25.203125 
L 14.890625 25.203125 
Q 15.484375 15.921875 20.484375 11.0625 
Q 25.484375 6.203125 34.421875 6.203125 
Q 39.59375 6.203125 44.453125 7.46875 
Q 49.3125 8.734375 54.109375 11.28125 
L 54.109375 2.78125 
Q 49.265625 0.734375 44.1875 -0.34375 
Q 39.109375 -1.421875 33.890625 -1.421875 
Q 20.796875 -1.421875 13.15625 6.1875 
Q 5.515625 13.8125 5.515625 26.8125 
Q 5.515625 40.234375 12.765625 48.109375 
Q 20.015625 56 32.328125 56 
Q 43.359375 56 49.78125 48.890625 
Q 56.203125 41.796875 56.203125 29.59375 
z
M 47.21875 32.234375 
Q 47.125 39.59375 43.09375 43.984375 
Q 39.0625 48.390625 32.421875 48.390625 
Q 24.90625 48.390625 20.390625 44.140625 
Q 15.875 39.890625 15.1875 32.171875 
z
" id="DejaVuSans-101"/>
       <path d="M 41.109375 46.296875 
Q 39.59375 47.171875 37.8125 47.578125 
Q 36.03125 48 33.890625 48 
Q 26.265625 48 22.1875 43.046875 
Q 18.109375 38.09375 18.109375 28.8125 
L 18.109375 0 
L 9.078125 0 
L 9.078125 54.6875 
L 18.109375 54.6875 
L 18.109375 46.1875 
Q 20.953125 51.171875 25.484375 53.578125 
Q 30.03125 56 36.53125 56 
Q 37.453125 56 38.578125 55.875 
Q 39.703125 55.765625 41.0625 55.515625 
z
" id="DejaVuSans-114"/>
       <path id="DejaVuSans-32"/>
       <path d="M 30.609375 48.390625 
Q 23.390625 48.390625 19.1875 42.75 
Q 14.984375 37.109375 14.984375 27.296875 
Q 14.984375 17.484375 19.15625 11.84375 
Q 23.34375 6.203125 30.609375 6.203125 
Q 37.796875 6.203125 41.984375 11.859375 
Q 46.1875 17.53125 46.1875 27.296875 
Q 46.1875 37.015625 41.984375 42.703125 
Q 37.796875 48.390625 30.609375 48.390625 
z
M 30.609375 56 
Q 42.328125 56 49.015625 48.375 
Q 55.71875 40.765625 55.71875 27.296875 
Q 55.71875 13.875 49.015625 6.21875 
Q 42.328125 -1.421875 30.609375 -1.421875 
Q 18.84375 -1.421875 12.171875 6.21875 
Q 5.515625 13.875 5.515625 27.296875 
Q 5.515625 40.765625 12.171875 48.375 
Q 18.84375 56 30.609375 56 
z
" id="DejaVuSans-111"/>
       <path d="M 37.109375 75.984375 
L 37.109375 68.5 
L 28.515625 68.5 
Q 23.6875 68.5 21.796875 66.546875 
Q 19.921875 64.59375 19.921875 59.515625 
L 19.921875 54.6875 
L 34.71875 54.6875 
L 34.71875 47.703125 
L 19.921875 47.703125 
L 19.921875 0 
L 10.890625 0 
L 10.890625 47.703125 
L 2.296875 47.703125 
L 2.296875 54.6875 
L 10.890625 54.6875 
L 10.890625 58.5 
Q 10.890625 67.625 15.140625 71.796875 
Q 19.390625 75.984375 28.609375 75.984375 
z
" id="DejaVuSans-102"/>
       <path d="M 9.421875 75.984375 
L 18.40625 75.984375 
L 18.40625 0 
L 9.421875 0 
z
" id="DejaVuSans-108"/>
       <path d="M 44.28125 53.078125 
L 44.28125 44.578125 
Q 40.484375 46.53125 36.375 47.5 
Q 32.28125 48.484375 27.875 48.484375 
Q 21.1875 48.484375 17.84375 46.4375 
Q 14.5 44.390625 14.5 40.28125 
Q 14.5 37.15625 16.890625 35.375 
Q 19.28125 33.59375 26.515625 31.984375 
L 29.59375 31.296875 
Q 39.15625 29.25 43.1875 25.515625 
Q 47.21875 21.78125 47.21875 15.09375 
Q 47.21875 7.46875 41.1875 3.015625 
Q 35.15625 -1.421875 24.609375 -1.421875 
Q 20.21875 -1.421875 15.453125 -0.5625 
Q 10.6875 0.296875 5.421875 2 
L 5.421875 11.28125 
Q 10.40625 8.6875 15.234375 7.390625 
Q 20.0625 6.109375 24.8125 6.109375 
Q 31.15625 6.109375 34.5625 8.28125 
Q 37.984375 10.453125 37.984375 14.40625 
Q 37.984375 18.0625 35.515625 20.015625 
Q 33.0625 21.96875 24.703125 23.78125 
L 21.578125 24.515625 
Q 13.234375 26.265625 9.515625 29.90625 
Q 5.8125 33.546875 5.8125 39.890625 
Q 5.8125 47.609375 11.28125 51.796875 
Q 16.75 56 26.8125 56 
Q 31.78125 56 36.171875 55.265625 
Q 40.578125 54.546875 44.28125 53.078125 
z
" id="DejaVuSans-115"/>
      </defs>
      <use xlink:href="#DejaVuSans-78"/>
      <use x="74.804688" xlink:href="#DejaVuSans-117"/>
      <use x="138.183594" xlink:href="#DejaVuSans-109"/>
      <use x="235.595703" xlink:href="#DejaVuSans-98"/>
      <use x="299.072266" xlink:href="#DejaVuSans-101"/>
      <use x="360.595703" xlink:href="#DejaVuSans-114"/>
      <use x="401.708984" xlink:href="#DejaVuSans-32"/>
      <use x="433.496094" xlink:href="#DejaVuSans-111"/>
      <use x="494.677734" xlink:href="#DejaVuSans-102"/>
      <use x="529.882812" xlink:href="#DejaVuSans-32"/>
      <use x="561.669922" xlink:href="#DejaVuSans-114"/>
      <use x="602.783203" xlink:href="#DejaVuSans-117"/>
      <use x="666.162109" xlink:href="#DejaVuSans-108"/>
      <use x="693.945312" xlink:href="#DejaVuSans-101"/>
      <use x="755.46875" xlink:href="#DejaVuSans-115"/>
     </g>
    </g>
   </g>
   <g id="matplotlib.axis_2">
    <g id="ytick_1">
     <g id="line2d_7">
      <path clip-path="url(#p6af0c8a658)" d="M 108 320.4 
L 710.64 320.4 
" style="fill:none;stroke:#b0b0b0;stroke-dasharray:2.96,1.28;stroke-dashoffset:0;stroke-width:0.8;"/>
     </g>
     <g id="line2d_8">
      <defs>
       <path d="M 0 0 
L -3.5 0 
" id="m209d7a98d4" style="stroke:#777777;stroke-width:0.8;"/>
      </defs>
      <g>
       <use style="fill:#777777;stroke:#777777;stroke-width:0.8;" x="108" xlink:href="#m209d7a98d4" y="320.4"/>
      </g>
     </g>
     <g id="text_8">
      <!-- 0 -->
      <g style="fill:#777777;" transform="translate(94.6375 324.199219)scale(0.1 -0.1)">
       <use xlink:href="#DejaVuSans-48"/>
      </g>
     </g>
    </g>
    <g id="ytick_2">
     <g id="line2d_9">
      <path clip-path="url(#p6af0c8a658)" d="M 108 266.986973 
L 710.64 266.986973 
" style="fill:none;stroke:#b0b0b0;stroke-dasharray:2.96,1.28;stroke-dashoffset:0;stroke-width:0.8;"/>
     </g>
     <g id="line2d_10">
      <g>
       <use style="fill:#777777;stroke:#777777;stroke-width:0.8;" x="108" xlink:href="#m209d7a98d4" y="266.986973"/>
      </g>
     </g>
     <g id="text_9">
      <!-- 20 -->
      <g style="fill:#777777;" transform="translate(88.275 270.786192)scale(0.1 -0.1)">
       <defs>
        <path d="M 19.1875 8.296875 
L 53.609375 8.296875 
L 53.609375 0 
L 7.328125 0 
L 7.328125 8.296875 
Q 12.9375 14.109375 22.625 23.890625 
Q 32.328125 33.6875 34.8125 36.53125 
Q 39.546875 41.84375 41.421875 45.53125 
Q 43.3125 49.21875 43.3125 52.78125 
Q 43.3125 58.59375 39.234375 62.25 
Q 35.15625 65.921875 28.609375 65.921875 
Q 23.96875 65.921875 18.8125 64.3125 
Q 13.671875 62.703125 7.8125 59.421875 
L 7.8125 69.390625 
Q 13.765625 71.78125 18.9375 73 
Q 24.125 74.21875 28.421875 74.21875 
Q 39.75 74.21875 46.484375 68.546875 
Q 53.21875 62.890625 53.21875 53.421875 
Q 53.21875 48.921875 51.53125 44.890625 
Q 49.859375 40.875 45.40625 35.40625 
Q 44.1875 33.984375 37.640625 27.21875 
Q 31.109375 20.453125 19.1875 8.296875 
z
" id="DejaVuSans-50"/>
       </defs>
       <use xlink:href="#DejaVuSans-50"/>
       <use x="63.623047" xlink:href="#DejaVuSans-48"/>
      </g>
     </g>
    </g>
    <g id="ytick_3">
     <g id="line2d_11">
      <path clip-path="url(#p6af0c8a658)" d="M 108 213.573946 
L 710.64 213.573946 
" style="fill:none;stroke:#b0b0b0;stroke-dasharray:2.96,1.28;stroke-dashoffset:0;stroke-width:0.8;"/>
     </g>
     <g id="line2d_12">
      <g>
       <use style="fill:#777777;stroke:#777777;stroke-width:0.8;" x="108" xlink:href="#m209d7a98d4" y="213.573946"/>
      </g>
     </g>
     <g id="text_10">
      <!-- 40 -->
      <g style="fill:#777777;" transform="translate(88.275 217.373164)scale(0.1 -0.1)">
       <defs>
        <path d="M 37.796875 64.3125 
L 12.890625 25.390625 
L 37.796875 25.390625 
z
M 35.203125 72.90625 
L 47.609375 72.90625 
L 47.609375 25.390625 
L 58.015625 25.390625 
L 58.015625 17.1875 
L 47.609375 17.1875 
L 47.609375 0 
L 37.796875 0 
L 37.796875 17.1875 
L 4.890625 17.1875 
L 4.890625 26.703125 
z
" id="DejaVuSans-52"/>
       </defs>
       <use xlink:href="#DejaVuSans-52"/>
       <use x="63.623047" xlink:href="#DejaVuSans-48"/>
      </g>
     </g>
    </g>
    <g id="ytick_4">
     <g id="line2d_13">
      <path clip-path="url(#p6af0c8a658)" d="M 108 160.160918 
L 710.64 160.160918 
" style="fill:none;stroke:#b0b0b0;stroke-dasharray:2.96,1.28;stroke-dashoffset:0;stroke-width:0.8;"/>
     </g>
     <g id="line2d_14">
      <g>
       <use style="fill:#777777;stroke:#777777;stroke-width:0.8;" x="108" xlink:href="#m209d7a98d4" y="160.160918"/>
      </g>
     </g>
     <g id="text_11">
      <!-- 60 -->
      <g style="fill:#777777;" transform="translate(88.275 163.960137)scale(0.1 -0.1)">
       <defs>
        <path d="M 33.015625 40.375 
Q 26.375 40.375 22.484375 35.828125 
Q 18.609375 31.296875 18.609375 23.390625 
Q 18.609375 15.53125 22.484375 10.953125 
Q 26.375 6.390625 33.015625 6.390625 
Q 39.65625 6.390625 43.53125 10.953125 
Q 47.40625 15.53125 47.40625 23.390625 
Q 47.40625 31.296875 43.53125 35.828125 
Q 39.65625 40.375 33.015625 40.375 
z
M 52.59375 71.296875 
L 52.59375 62.3125 
Q 48.875 64.0625 45.09375 64.984375 
Q 41.3125 65.921875 37.59375 65.921875 
Q 27.828125 65.921875 22.671875 59.328125 
Q 17.53125 52.734375 16.796875 39.40625 
Q 19.671875 43.65625 24.015625 45.921875 
Q 28.375 48.1875 33.59375 48.1875 
Q 44.578125 48.1875 50.953125 41.515625 
Q 57.328125 34.859375 57.328125 23.390625 
Q 57.328125 12.15625 50.6875 5.359375 
Q 44.046875 -1.421875 33.015625 -1.421875 
Q 20.359375 -1.421875 13.671875 8.265625 
Q 6.984375 17.96875 6.984375 36.375 
Q 6.984375 53.65625 15.1875 63.9375 
Q 23.390625 74.21875 37.203125 74.21875 
Q 40.921875 74.21875 44.703125 73.484375 
Q 48.484375 72.75 52.59375 71.296875 
z
" id="DejaVuSans-54"/>
       </defs>
       <use xlink:href="#DejaVuSans-54"/>
       <use x="63.623047" xlink:href="#DejaVuSans-48"/>
      </g>
     </g>
    </g>
    <g id="ytick_5">
     <g id="line2d_15">
      <path clip-path="url(#p6af0c8a658)" d="M 108 106.747891 
L 710.64 106.747891 
" style="fill:none;stroke:#b0b0b0;stroke-dasharray:2.96,1.28;stroke-dashoffset:0;stroke-width:0.8;"/>
     </g>
     <g id="line2d_16">
      <g>
       <use style="fill:#777777;stroke:#777777;stroke-width:0.8;" x="108" xlink:href="#m209d7a98d4" y="106.747891"/>
      </g>
     </g>
     <g id="text_12">
      <!-- 80 -->
      <g style="fill:#777777;" transform="translate(88.275 110.54711)scale(0.1 -0.1)">
       <defs>
        <path d="M 31.78125 34.625 
Q 24.75 34.625 20.71875 30.859375 
Q 16.703125 27.09375 16.703125 20.515625 
Q 16.703125 13.921875 20.71875 10.15625 
Q 24.75 6.390625 31.78125 6.390625 
Q 38.8125 6.390625 42.859375 10.171875 
Q 46.921875 13.96875 46.921875 20.515625 
Q 46.921875 27.09375 42.890625 30.859375 
Q 38.875 34.625 31.78125 34.625 
z
M 21.921875 38.8125 
Q 15.578125 40.375 12.03125 44.71875 
Q 8.5 49.078125 8.5 55.328125 
Q 8.5 64.0625 14.71875 69.140625 
Q 20.953125 74.21875 31.78125 74.21875 
Q 42.671875 74.21875 48.875 69.140625 
Q 55.078125 64.0625 55.078125 55.328125 
Q 55.078125 49.078125 51.53125 44.71875 
Q 48 40.375 41.703125 38.8125 
Q 48.828125 37.15625 52.796875 32.3125 
Q 56.78125 27.484375 56.78125 20.515625 
Q 56.78125 9.90625 50.3125 4.234375 
Q 43.84375 -1.421875 31.78125 -1.421875 
Q 19.734375 -1.421875 13.25 4.234375 
Q 6.78125 9.90625 6.78125 20.515625 
Q 6.78125 27.484375 10.78125 32.3125 
Q 14.796875 37.15625 21.921875 38.8125 
z
M 18.3125 54.390625 
Q 18.3125 48.734375 21.84375 45.5625 
Q 25.390625 42.390625 31.78125 42.390625 
Q 38.140625 42.390625 41.71875 45.5625 
Q 45.3125 48.734375 45.3125 54.390625 
Q 45.3125 60.0625 41.71875 63.234375 
Q 38.140625 66.40625 31.78125 66.40625 
Q 25.390625 66.40625 21.84375 63.234375 
Q 18.3125 60.0625 18.3125 54.390625 
z
" id="DejaVuSans-56"/>
       </defs>
       <use xlink:href="#DejaVuSans-56"/>
       <use x="63.623047" xlink:href="#DejaVuSans-48"/>
      </g>
     </g>
    </g>
    <g id="ytick_6">
     <g id="line2d_17">
      <path clip-path="url(#p6af0c8a658)" d="M 108 53.334864 
L 710.64 53.334864 
" style="fill:none;stroke:#b0b0b0;stroke-dasharray:2.96,1.28;stroke-dashoffset:0;stroke-width:0.8;"/>
     </g>
     <g id="line2d_18">
      <g>
       <use style="fill:#777777;stroke:#777777;stroke-width:0.8;" x="108" xlink:href="#m209d7a98d4" y="53.334864"/>
      </g>
     </g>
     <g id="text_13">
      <!-- 100 -->
      <g style="fill:#777777;" transform="translate(81.9125 57.134083)scale(0.1 -0.1)">
       <use xlink:href="#DejaVuSans-49"/>
       <use x="63.623047" xlink:href="#DejaVuSans-48"/>
       <use x="127.246094" xlink:href="#DejaVuSans-48"/>
      </g>
     </g>
    </g>
    <g id="text_14">
     <!-- CPU Usage [Percent] -->
     <g style="fill:#585858;" transform="translate(75.832812 233.432031)rotate(-90)scale(0.1 -0.1)">
      <defs>
       <path d="M 64.40625 67.28125 
L 64.40625 56.890625 
Q 59.421875 61.53125 53.78125 63.8125 
Q 48.140625 66.109375 41.796875 66.109375 
Q 29.296875 66.109375 22.65625 58.46875 
Q 16.015625 50.828125 16.015625 36.375 
Q 16.015625 21.96875 22.65625 14.328125 
Q 29.296875 6.6875 41.796875 6.6875 
Q 48.140625 6.6875 53.78125 8.984375 
Q 59.421875 11.28125 64.40625 15.921875 
L 64.40625 5.609375 
Q 59.234375 2.09375 53.4375 0.328125 
Q 47.65625 -1.421875 41.21875 -1.421875 
Q 24.65625 -1.421875 15.125 8.703125 
Q 5.609375 18.84375 5.609375 36.375 
Q 5.609375 53.953125 15.125 64.078125 
Q 24.65625 74.21875 41.21875 74.21875 
Q 47.75 74.21875 53.53125 72.484375 
Q 59.328125 70.75 64.40625 67.28125 
z
" id="DejaVuSans-67"/>
       <path d="M 19.671875 64.796875 
L 19.671875 37.40625 
L 32.078125 37.40625 
Q 38.96875 37.40625 42.71875 40.96875 
Q 46.484375 44.53125 46.484375 51.125 
Q 46.484375 57.671875 42.71875 61.234375 
Q 38.96875 64.796875 32.078125 64.796875 
z
M 9.8125 72.90625 
L 32.078125 72.90625 
Q 44.34375 72.90625 50.609375 67.359375 
Q 56.890625 61.8125 56.890625 51.125 
Q 56.890625 40.328125 50.609375 34.8125 
Q 44.34375 29.296875 32.078125 29.296875 
L 19.671875 29.296875 
L 19.671875 0 
L 9.8125 0 
z
" id="DejaVuSans-80"/>
       <path d="M 8.6875 72.90625 
L 18.609375 72.90625 
L 18.609375 28.609375 
Q 18.609375 16.890625 22.84375 11.734375 
Q 27.09375 6.59375 36.625 6.59375 
Q 46.09375 6.59375 50.34375 11.734375 
Q 54.59375 16.890625 54.59375 28.609375 
L 54.59375 72.90625 
L 64.5 72.90625 
L 64.5 27.390625 
Q 64.5 13.140625 57.4375 5.859375 
Q 50.390625 -1.421875 36.625 -1.421875 
Q 22.796875 -1.421875 15.734375 5.859375 
Q 8.6875 13.140625 8.6875 27.390625 
z
" id="DejaVuSans-85"/>
       <path d="M 34.28125 27.484375 
Q 23.390625 27.484375 19.1875 25 
Q 14.984375 22.515625 14.984375 16.5 
Q 14.984375 11.71875 18.140625 8.90625 
Q 21.296875 6.109375 26.703125 6.109375 
Q 34.1875 6.109375 38.703125 11.40625 
Q 43.21875 16.703125 43.21875 25.484375 
L 43.21875 27.484375 
z
M 52.203125 31.203125 
L 52.203125 0 
L 43.21875 0 
L 43.21875 8.296875 
Q 40.140625 3.328125 35.546875 0.953125 
Q 30.953125 -1.421875 24.3125 -1.421875 
Q 15.921875 -1.421875 10.953125 3.296875 
Q 6 8.015625 6 15.921875 
Q 6 25.140625 12.171875 29.828125 
Q 18.359375 34.515625 30.609375 34.515625 
L 43.21875 34.515625 
L 43.21875 35.40625 
Q 43.21875 41.609375 39.140625 45 
Q 35.0625 48.390625 27.6875 48.390625 
Q 23 48.390625 18.546875 47.265625 
Q 14.109375 46.140625 10.015625 43.890625 
L 10.015625 52.203125 
Q 14.9375 54.109375 19.578125 55.046875 
Q 24.21875 56 28.609375 56 
Q 40.484375 56 46.34375 49.84375 
Q 52.203125 43.703125 52.203125 31.203125 
z
" id="DejaVuSans-97"/>
       <path d="M 45.40625 27.984375 
Q 45.40625 37.75 41.375 43.109375 
Q 37.359375 48.484375 30.078125 48.484375 
Q 22.859375 48.484375 18.828125 43.109375 
Q 14.796875 37.75 14.796875 27.984375 
Q 14.796875 18.265625 18.828125 12.890625 
Q 22.859375 7.515625 30.078125 7.515625 
Q 37.359375 7.515625 41.375 12.890625 
Q 45.40625 18.265625 45.40625 27.984375 
z
M 54.390625 6.78125 
Q 54.390625 -7.171875 48.1875 -13.984375 
Q 42 -20.796875 29.203125 -20.796875 
Q 24.46875 -20.796875 20.265625 -20.09375 
Q 16.0625 -19.390625 12.109375 -17.921875 
L 12.109375 -9.1875 
Q 16.0625 -11.328125 19.921875 -12.34375 
Q 23.78125 -13.375 27.78125 -13.375 
Q 36.625 -13.375 41.015625 -8.765625 
Q 45.40625 -4.15625 45.40625 5.171875 
L 45.40625 9.625 
Q 42.625 4.78125 38.28125 2.390625 
Q 33.9375 0 27.875 0 
Q 17.828125 0 11.671875 7.65625 
Q 5.515625 15.328125 5.515625 27.984375 
Q 5.515625 40.671875 11.671875 48.328125 
Q 17.828125 56 27.875 56 
Q 33.9375 56 38.28125 53.609375 
Q 42.625 51.21875 45.40625 46.390625 
L 45.40625 54.6875 
L 54.390625 54.6875 
z
" id="DejaVuSans-103"/>
       <path d="M 8.59375 75.984375 
L 29.296875 75.984375 
L 29.296875 69 
L 17.578125 69 
L 17.578125 -6.203125 
L 29.296875 -6.203125 
L 29.296875 -13.1875 
L 8.59375 -13.1875 
z
" id="DejaVuSans-91"/>
       <path d="M 48.78125 52.59375 
L 48.78125 44.1875 
Q 44.96875 46.296875 41.140625 47.34375 
Q 37.3125 48.390625 33.40625 48.390625 
Q 24.65625 48.390625 19.8125 42.84375 
Q 14.984375 37.3125 14.984375 27.296875 
Q 14.984375 17.28125 19.8125 11.734375 
Q 24.65625 6.203125 33.40625 6.203125 
Q 37.3125 6.203125 41.140625 7.25 
Q 44.96875 8.296875 48.78125 10.40625 
L 48.78125 2.09375 
Q 45.015625 0.34375 40.984375 -0.53125 
Q 36.96875 -1.421875 32.421875 -1.421875 
Q 20.0625 -1.421875 12.78125 6.34375 
Q 5.515625 14.109375 5.515625 27.296875 
Q 5.515625 40.671875 12.859375 48.328125 
Q 20.21875 56 33.015625 56 
Q 37.15625 56 41.109375 55.140625 
Q 45.0625 54.296875 48.78125 52.59375 
z
" id="DejaVuSans-99"/>
       <path d="M 54.890625 33.015625 
L 54.890625 0 
L 45.90625 0 
L 45.90625 32.71875 
Q 45.90625 40.484375 42.875 44.328125 
Q 39.84375 48.1875 33.796875 48.1875 
Q 26.515625 48.1875 22.3125 43.546875 
Q 18.109375 38.921875 18.109375 30.90625 
L 18.109375 0 
L 9.078125 0 
L 9.078125 54.6875 
L 18.109375 54.6875 
L 18.109375 46.1875 
Q 21.34375 51.125 25.703125 53.5625 
Q 30.078125 56 35.796875 56 
Q 45.21875 56 50.046875 50.171875 
Q 54.890625 44.34375 54.890625 33.015625 
z
" id="DejaVuSans-110"/>
       <path d="M 18.3125 70.21875 
L 18.3125 54.6875 
L 36.8125 54.6875 
L 36.8125 47.703125 
L 18.3125 47.703125 
L 18.3125 18.015625 
Q 18.3125 11.328125 20.140625 9.421875 
Q 21.96875 7.515625 27.59375 7.515625 
L 36.8125 7.515625 
L 36.8125 0 
L 27.59375 0 
Q 17.1875 0 13.234375 3.875 
Q 9.28125 7.765625 9.28125 18.015625 
L 9.28125 47.703125 
L 2.6875 47.703125 
L 2.6875 54.6875 
L 9.28125 54.6875 
L 9.28125 70.21875 
z
" id="DejaVuSans-116"/>
       <path d="M 30.421875 75.984375 
L 30.421875 -13.1875 
L 9.71875 -13.1875 
L 9.71875 -6.203125 
L 21.390625 -6.203125 
L 21.390625 69 
L 9.71875 69 
L 9.71875 75.984375 
z
" id="DejaVuSans-93"/>
      </defs>
      <use xlink:href="#DejaVuSans-67"/>
      <use x="69.824219" xlink:href="#DejaVuSans-80"/>
      <use x="130.126953" xlink:href="#DejaVuSans-85"/>
      <use x="203.320312" xlink:href="#DejaVuSans-32"/>
      <use x="235.107422" xlink:href="#DejaVuSans-85"/>
      <use x="308.300781" xlink:href="#DejaVuSans-115"/>
      <use x="360.400391" xlink:href="#DejaVuSans-97"/>
      <use x="421.679688" xlink:href="#DejaVuSans-103"/>
      <use x="485.15625" xlink:href="#DejaVuSans-101"/>
      <use x="546.679688" xlink:href="#DejaVuSans-32"/>
      <use x="578.466797" xlink:href="#DejaVuSans-91"/>
      <use x="617.480469" xlink:href="#DejaVuSans-80"/>
      <use x="674.158203" xlink:href="#DejaVuSans-101"/>
      <use x="735.681641" xlink:href="#DejaVuSans-114"/>
      <use x="774.544922" xlink:href="#DejaVuSans-99"/>
      <use x="829.525391" xlink:href="#DejaVuSans-101"/>
      <use x="891.048828" xlink:href="#DejaVuSans-110"/>
      <use x="954.427734" xlink:href="#DejaVuSans-116"/>
      <use x="993.636719" xlink:href="#DejaVuSans-93"/>
     </g>
    </g>
   </g>
   <g id="patch_3">
    <path clip-path="url(#p6af0c8a658)" d="M 131.914286 320.4 
L 144.668571 320.4 
L 144.668571 90.479537 
L 131.914286 90.479537 
z
" style="fill:#09bac8;"/>
   </g>
   <g id="patch_4">
    <path clip-path="url(#p6af0c8a658)" d="M 227.571429 320.4 
L 240.325714 320.4 
L 240.325714 91.582411 
L 227.571429 91.582411 
z
" style="fill:#09bac8;"/>
   </g>
   <g id="patch_5">
    <path clip-path="url(#p6af0c8a658)" d="M 323.228571 320.4 
L 335.982857 320.4 
L 335.982857 103.226854 
L 323.228571 103.226854 
z
" style="fill:#09bac8;"/>
   </g>
   <g id="patch_6">
    <path clip-path="url(#p6af0c8a658)" d="M 418.885714 320.4 
L 431.64 320.4 
L 431.64 90.024233 
L 418.885714 90.024233 
z
" style="fill:#09bac8;"/>
   </g>
   <g id="patch_7">
    <path clip-path="url(#p6af0c8a658)" d="M 514.542857 320.4 
L 527.297143 320.4 
L 527.297143 102.754452 
L 514.542857 102.754452 
z
" style="fill:#09bac8;"/>
   </g>
   <g id="patch_8">
    <path clip-path="url(#p6af0c8a658)" d="M 610.2 320.4 
L 622.954286 320.4 
L 622.954286 92.843782 
L 610.2 92.843782 
z
" style="fill:#09bac8;"/>
   </g>
   <g id="patch_9">
    <path clip-path="url(#p6af0c8a658)" d="M 144.668571 320.4 
L 157.422857 320.4 
L 157.422857 77.648342 
L 144.668571 77.648342 
z
" style="fill:#fff200;"/>
   </g>
   <g id="patch_10">
    <path clip-path="url(#p6af0c8a658)" d="M 240.325714 320.4 
L 253.08 320.4 
L 253.08 77.318312 
L 240.325714 77.318312 
z
" style="fill:#fff200;"/>
   </g>
   <g id="patch_11">
    <path clip-path="url(#p6af0c8a658)" d="M 335.982857 320.4 
L 348.737143 320.4 
L 348.737143 88.229984 
L 335.982857 88.229984 
z
" style="fill:#fff200;"/>
   </g>
   <g id="patch_12">
    <path clip-path="url(#p6af0c8a658)" d="M 431.64 320.4 
L 444.394286 320.4 
L 444.394286 116.028513 
L 431.64 116.028513 
z
" style="fill:#fff200;"/>
   </g>
   <g id="patch_13">
    <path clip-path="url(#p6af0c8a658)" d="M 527.297143 320.4 
L 540.051429 320.4 
L 540.051429 88.00956 
L 527.297143 88.00956 
z
" style="fill:#fff200;"/>
   </g>
   <g id="patch_14">
    <path clip-path="url(#p6af0c8a658)" d="M 622.954286 320.4 
L 635.708571 320.4 
L 635.708571 86.621233 
L 622.954286 86.621233 
z
" style="fill:#fff200;"/>
   </g>
   <g id="patch_15">
    <path clip-path="url(#p6af0c8a658)" d="M 157.422857 320.4 
L 170.177143 320.4 
L 170.177143 102.277938 
L 157.422857 102.277938 
z
" style="fill:#f72e5c;"/>
   </g>
   <g id="patch_16">
    <path clip-path="url(#p6af0c8a658)" d="M 253.08 320.4 
L 265.834286 320.4 
L 265.834286 87.543092 
L 253.08 87.543092 
z
" style="fill:#f72e5c;"/>
   </g>
   <g id="patch_17">
    <path clip-path="url(#p6af0c8a658)" d="M 348.737143 320.4 
L 361.491429 320.4 
L 361.491429 93.166938 
L 348.737143 93.166938 
z
" style="fill:#f72e5c;"/>
   </g>
   <g id="patch_18">
    <path clip-path="url(#p6af0c8a658)" d="M 444.394286 320.4 
L 457.148571 320.4 
L 457.148571 81.038338 
L 444.394286 81.038338 
z
" style="fill:#f72e5c;"/>
   </g>
   <g id="patch_19">
    <path clip-path="url(#p6af0c8a658)" d="M 540.051429 320.4 
L 552.805714 320.4 
L 552.805714 78.217 
L 540.051429 78.217 
z
" style="fill:#f72e5c;"/>
   </g>
   <g id="patch_20">
    <path clip-path="url(#p6af0c8a658)" d="M 635.708571 320.4 
L 648.462857 320.4 
L 648.462857 89.7957 
L 635.708571 89.7957 
z
" style="fill:#f72e5c;"/>
   </g>
   <g id="patch_21">
    <path clip-path="url(#p6af0c8a658)" d="M 170.177143 320.4 
L 182.931429 320.4 
L 182.931429 81.296017 
L 170.177143 81.296017 
z
" style="fill:#17b838;"/>
   </g>
   <g id="patch_22">
    <path clip-path="url(#p6af0c8a658)" d="M 265.834286 320.4 
L 278.588571 320.4 
L 278.588571 79.422135 
L 265.834286 79.422135 
z
" style="fill:#17b838;"/>
   </g>
   <g id="patch_23">
    <path clip-path="url(#p6af0c8a658)" d="M 361.491429 320.4 
L 374.245714 320.4 
L 374.245714 81.021653 
L 361.491429 81.021653 
z
" style="fill:#17b838;"/>
   </g>
   <g id="patch_24">
    <path clip-path="url(#p6af0c8a658)" d="M 457.148571 320.4 
L 469.902857 320.4 
L 469.902857 78.421074 
L 457.148571 78.421074 
z
" style="fill:#17b838;"/>
   </g>
   <g id="patch_25">
    <path clip-path="url(#p6af0c8a658)" d="M 552.805714 320.4 
L 565.56 320.4 
L 565.56 78.599346 
L 552.805714 78.599346 
z
" style="fill:#17b838;"/>
   </g>
   <g id="patch_26">
    <path clip-path="url(#p6af0c8a658)" d="M 648.462857 320.4 
L 661.217143 320.4 
L 661.217143 78.095993 
L 648.462857 78.095993 
z
" style="fill:#17b838;"/>
   </g>
   <g id="patch_27">
    <path clip-path="url(#p6af0c8a658)" d="M 182.931429 320.4 
L 195.685714 320.4 
L 195.685714 81.968255 
L 182.931429 81.968255 
z
" style="fill:#f6830f;"/>
   </g>
   <g id="patch_28">
    <path clip-path="url(#p6af0c8a658)" d="M 278.588571 320.4 
L 291.342857 320.4 
L 291.342857 75.207076 
L 278.588571 75.207076 
z
" style="fill:#f6830f;"/>
   </g>
   <g id="patch_29">
    <path clip-path="url(#p6af0c8a658)" d="M 374.245714 320.4 
L 387 320.4 
L 387 74.591315 
L 374.245714 74.591315 
z
" style="fill:#f6830f;"/>
   </g>
   <g id="patch_30">
    <path clip-path="url(#p6af0c8a658)" d="M 469.902857 320.4 
L 482.657143 320.4 
L 482.657143 74.12275 
L 469.902857 74.12275 
z
" style="fill:#f6830f;"/>
   </g>
   <g id="patch_31">
    <path clip-path="url(#p6af0c8a658)" d="M 565.56 320.4 
L 578.314286 320.4 
L 578.314286 320.4 
L 565.56 320.4 
z
" style="fill:#f6830f;"/>
   </g>
   <g id="patch_32">
    <path clip-path="url(#p6af0c8a658)" d="M 661.217143 320.4 
L 673.971429 320.4 
L 673.971429 320.4 
L 661.217143 320.4 
z
" style="fill:#f6830f;"/>
   </g>
   <g id="patch_33">
    <path clip-path="url(#p6af0c8a658)" d="M 195.685714 320.4 
L 208.44 320.4 
L 208.44 107.874532 
L 195.685714 107.874532 
z
" style="fill:#892cdc;"/>
   </g>
   <g id="patch_34">
    <path clip-path="url(#p6af0c8a658)" d="M 291.342857 320.4 
L 304.097143 320.4 
L 304.097143 89.337521 
L 291.342857 89.337521 
z
" style="fill:#892cdc;"/>
   </g>
   <g id="patch_35">
    <path clip-path="url(#p6af0c8a658)" d="M 387 320.4 
L 399.754286 320.4 
L 399.754286 107.5335 
L 387 107.5335 
z
" style="fill:#892cdc;"/>
   </g>
   <g id="patch_36">
    <path clip-path="url(#p6af0c8a658)" d="M 482.657143 320.4 
L 495.411429 320.4 
L 495.411429 68.069044 
L 482.657143 68.069044 
z
" style="fill:#892cdc;"/>
   </g>
   <g id="patch_37">
    <path clip-path="url(#p6af0c8a658)" d="M 578.314286 320.4 
L 591.068571 320.4 
L 591.068571 57.259395 
L 578.314286 57.259395 
z
" style="fill:#892cdc;"/>
   </g>
   <g id="patch_38">
    <path clip-path="url(#p6af0c8a658)" d="M 673.971429 320.4 
L 686.725714 320.4 
L 686.725714 56.736556 
L 673.971429 56.736556 
z
" style="fill:#892cdc;"/>
   </g>
   <g id="LineCollection_1">
    <path clip-path="url(#p6af0c8a658)" d="M 138.291429 100.177503 
L 138.291429 80.781571 
" style="fill:none;stroke:#000000;stroke-width:1.5;"/>
    <path clip-path="url(#p6af0c8a658)" d="M 233.948571 101.047586 
L 233.948571 82.117236 
" style="fill:none;stroke:#000000;stroke-width:1.5;"/>
    <path clip-path="url(#p6af0c8a658)" d="M 329.605714 113.81042 
L 329.605714 92.643287 
" style="fill:none;stroke:#000000;stroke-width:1.5;"/>
    <path clip-path="url(#p6af0c8a658)" d="M 425.262857 99.844541 
L 425.262857 80.203924 
" style="fill:none;stroke:#000000;stroke-width:1.5;"/>
    <path clip-path="url(#p6af0c8a658)" d="M 520.92 119.774818 
L 520.92 85.734087 
" style="fill:none;stroke:#000000;stroke-width:1.5;"/>
    <path clip-path="url(#p6af0c8a658)" d="M 616.577143 101.883133 
L 616.577143 83.804431 
" style="fill:none;stroke:#000000;stroke-width:1.5;"/>
   </g>
   <g id="LineCollection_2">
    <path clip-path="url(#p6af0c8a658)" d="M 151.045714 80.283602 
L 151.045714 75.013082 
" style="fill:none;stroke:#000000;stroke-width:1.5;"/>
    <path clip-path="url(#p6af0c8a658)" d="M 246.702857 78.985149 
L 246.702857 75.651475 
" style="fill:none;stroke:#000000;stroke-width:1.5;"/>
    <path clip-path="url(#p6af0c8a658)" d="M 342.36 97.609285 
L 342.36 78.850684 
" style="fill:none;stroke:#000000;stroke-width:1.5;"/>
    <path clip-path="url(#p6af0c8a658)" d="M 438.017143 133.288816 
L 438.017143 98.768211 
" style="fill:none;stroke:#000000;stroke-width:1.5;"/>
    <path clip-path="url(#p6af0c8a658)" d="M 533.674286 97.108334 
L 533.674286 78.910785 
" style="fill:none;stroke:#000000;stroke-width:1.5;"/>
    <path clip-path="url(#p6af0c8a658)" d="M 629.331429 95.875732 
L 629.331429 77.366733 
" style="fill:none;stroke:#000000;stroke-width:1.5;"/>
   </g>
   <g id="LineCollection_3">
    <path clip-path="url(#p6af0c8a658)" d="M 163.8 118.3937 
L 163.8 86.162175 
" style="fill:none;stroke:#000000;stroke-width:1.5;"/>
    <path clip-path="url(#p6af0c8a658)" d="M 259.457143 97.077631 
L 259.457143 78.008552 
" style="fill:none;stroke:#000000;stroke-width:1.5;"/>
    <path clip-path="url(#p6af0c8a658)" d="M 355.114286 108.520824 
L 355.114286 77.813052 
" style="fill:none;stroke:#000000;stroke-width:1.5;"/>
    <path clip-path="url(#p6af0c8a658)" d="M 450.771429 83.913349 
L 450.771429 78.163327 
" style="fill:none;stroke:#000000;stroke-width:1.5;"/>
    <path clip-path="url(#p6af0c8a658)" d="M 546.428571 80.881707 
L 546.428571 75.552293 
" style="fill:none;stroke:#000000;stroke-width:1.5;"/>
    <path clip-path="url(#p6af0c8a658)" d="M 642.085714 98.564056 
L 642.085714 81.027345 
" style="fill:none;stroke:#000000;stroke-width:1.5;"/>
   </g>
   <g id="LineCollection_4">
    <path clip-path="url(#p6af0c8a658)" d="M 176.554286 85.753852 
L 176.554286 76.838182 
" style="fill:none;stroke:#000000;stroke-width:1.5;"/>
    <path clip-path="url(#p6af0c8a658)" d="M 272.211429 82.798273 
L 272.211429 76.045997 
" style="fill:none;stroke:#000000;stroke-width:1.5;"/>
    <path clip-path="url(#p6af0c8a658)" d="M 367.868571 84.722062 
L 367.868571 77.321243 
" style="fill:none;stroke:#000000;stroke-width:1.5;"/>
    <path clip-path="url(#p6af0c8a658)" d="M 463.525714 79.506236 
L 463.525714 77.335912 
" style="fill:none;stroke:#000000;stroke-width:1.5;"/>
    <path clip-path="url(#p6af0c8a658)" d="M 559.182857 79.496927 
L 559.182857 77.701765 
" style="fill:none;stroke:#000000;stroke-width:1.5;"/>
    <path clip-path="url(#p6af0c8a658)" d="M 654.84 79.397265 
L 654.84 76.794722 
" style="fill:none;stroke:#000000;stroke-width:1.5;"/>
   </g>
   <g id="LineCollection_5">
    <path clip-path="url(#p6af0c8a658)" d="M 189.308571 89.441332 
L 189.308571 74.495177 
" style="fill:none;stroke:#000000;stroke-width:1.5;"/>
    <path clip-path="url(#p6af0c8a658)" d="M 284.965714 76.345219 
L 284.965714 74.068934 
" style="fill:none;stroke:#000000;stroke-width:1.5;"/>
    <path clip-path="url(#p6af0c8a658)" d="M 380.622857 76.901912 
L 380.622857 72.280719 
" style="fill:none;stroke:#000000;stroke-width:1.5;"/>
    <path clip-path="url(#p6af0c8a658)" d="M 476.28 75.720178 
L 476.28 72.525321 
" style="fill:none;stroke:#000000;stroke-width:1.5;"/>
    <path clip-path="url(#p6af0c8a658)" d="M 0 0 
" style="fill:none;stroke:#000000;stroke-width:1.5;"/>
    <path clip-path="url(#p6af0c8a658)" d="M 0 0 
" style="fill:none;stroke:#000000;stroke-width:1.5;"/>
   </g>
   <g id="LineCollection_6">
    <path clip-path="url(#p6af0c8a658)" d="M 202.062857 127.625771 
L 202.062857 88.123293 
" style="fill:none;stroke:#000000;stroke-width:1.5;"/>
    <path clip-path="url(#p6af0c8a658)" d="M 297.72 100.610352 
L 297.72 78.06469 
" style="fill:none;stroke:#000000;stroke-width:1.5;"/>
    <path clip-path="url(#p6af0c8a658)" d="M 393.377143 118.115323 
L 393.377143 96.951677 
" style="fill:none;stroke:#000000;stroke-width:1.5;"/>
    <path clip-path="url(#p6af0c8a658)" d="M 489.034286 70.015785 
L 489.034286 66.122303 
" style="fill:none;stroke:#000000;stroke-width:1.5;"/>
    <path clip-path="url(#p6af0c8a658)" d="M 584.691429 57.74383 
L 584.691429 56.774959 
" style="fill:none;stroke:#000000;stroke-width:1.5;"/>
    <path clip-path="url(#p6af0c8a658)" d="M 680.348571 57.073111 
L 680.348571 56.4 
" style="fill:none;stroke:#000000;stroke-width:1.5;"/>
   </g>
   <g id="patch_39">
    <path d="M 108 320.4 
L 108 43.2 
" style="fill:none;stroke:#777777;stroke-linecap:square;stroke-linejoin:miter;stroke-width:0.8;"/>
   </g>
   <g id="patch_40">
    <path d="M 710.64 320.4 
L 710.64 43.2 
" style="fill:none;"/>
   </g>
   <g id="patch_41">
    <path d="M 108 320.4 
L 710.64 320.4 
" style="fill:none;stroke:#777777;stroke-linecap:square;stroke-linejoin:miter;stroke-width:0.8;"/>
   </g>
   <g id="patch_42">
    <path d="M 108 43.2 
L 710.64 43.2 
" style="fill:none;"/>
   </g>
   <g id="text_15">
    <!-- CPU Usage -->
    <g style="fill:#585858;" transform="translate(376.519687 37.2)scale(0.12 -0.12)">
     <use xlink:href="#DejaVuSans-67"/>
     <use x="69.824219" xlink:href="#DejaVuSans-80"/>
     <use x="130.126953" xlink:href="#DejaVuSans-85"/>
     <use x="203.320312" xlink:href="#DejaVuSans-32"/>
     <use x="235.107422" xlink:href="#DejaVuSans-85"/>
     <use x="308.300781" xlink:href="#DejaVuSans-115"/>
     <use x="360.400391" xlink:href="#DejaVuSans-97"/>
     <use x="421.679688" xlink:href="#DejaVuSans-103"/>
     <use x="485.15625" xlink:href="#DejaVuSans-101"/>
    </g>
   </g>
   <g id="legend_1">
    <g id="patch_43">
     <path d="M 717.64 227.334375 
L 789.304062 227.334375 
Q 791.304062 227.334375 791.304062 225.334375 
L 791.304062 138.265625 
Q 791.304062 136.265625 789.304062 136.265625 
L 717.64 136.265625 
Q 715.64 136.265625 715.64 138.265625 
L 715.64 225.334375 
Q 715.64 227.334375 717.64 227.334375 
z
" style="fill:#ffffff;opacity:0.8;stroke:#cccccc;stroke-linejoin:miter;"/>
    </g>
    <g id="patch_44">
     <path d="M 719.64 147.864062 
L 739.64 147.864062 
L 739.64 140.864062 
L 719.64 140.864062 
z
" style="fill:#09bac8;"/>
    </g>
    <g id="text_16">
     <!-- none -->
     <g style="fill:#777777;" transform="translate(747.64 147.864062)scale(0.1 -0.1)">
      <use xlink:href="#DejaVuSans-110"/>
      <use x="63.378906" xlink:href="#DejaVuSans-111"/>
      <use x="124.560547" xlink:href="#DejaVuSans-110"/>
      <use x="187.939453" xlink:href="#DejaVuSans-101"/>
     </g>
    </g>
    <g id="patch_45">
     <path d="M 719.64 162.542187 
L 739.64 162.542187 
L 739.64 155.542187 
L 719.64 155.542187 
z
" style="fill:#fff200;"/>
    </g>
    <g id="text_17">
     <!-- tc-bpf -->
     <g style="fill:#777777;" transform="translate(747.64 162.542187)scale(0.1 -0.1)">
      <defs>
       <path d="M 4.890625 31.390625 
L 31.203125 31.390625 
L 31.203125 23.390625 
L 4.890625 23.390625 
z
" id="DejaVuSans-45"/>
       <path d="M 18.109375 8.203125 
L 18.109375 -20.796875 
L 9.078125 -20.796875 
L 9.078125 54.6875 
L 18.109375 54.6875 
L 18.109375 46.390625 
Q 20.953125 51.265625 25.265625 53.625 
Q 29.59375 56 35.59375 56 
Q 45.5625 56 51.78125 48.09375 
Q 58.015625 40.1875 58.015625 27.296875 
Q 58.015625 14.40625 51.78125 6.484375 
Q 45.5625 -1.421875 35.59375 -1.421875 
Q 29.59375 -1.421875 25.265625 0.953125 
Q 20.953125 3.328125 18.109375 8.203125 
z
M 48.6875 27.296875 
Q 48.6875 37.203125 44.609375 42.84375 
Q 40.53125 48.484375 33.40625 48.484375 
Q 26.265625 48.484375 22.1875 42.84375 
Q 18.109375 37.203125 18.109375 27.296875 
Q 18.109375 17.390625 22.1875 11.75 
Q 26.265625 6.109375 33.40625 6.109375 
Q 40.53125 6.109375 44.609375 11.75 
Q 48.6875 17.390625 48.6875 27.296875 
z
" id="DejaVuSans-112"/>
      </defs>
      <use xlink:href="#DejaVuSans-116"/>
      <use x="39.208984" xlink:href="#DejaVuSans-99"/>
      <use x="94.189453" xlink:href="#DejaVuSans-45"/>
      <use x="130.273438" xlink:href="#DejaVuSans-98"/>
      <use x="193.75" xlink:href="#DejaVuSans-112"/>
      <use x="257.226562" xlink:href="#DejaVuSans-102"/>
     </g>
    </g>
    <g id="patch_46">
     <path d="M 719.64 177.220312 
L 739.64 177.220312 
L 739.64 170.220312 
L 719.64 170.220312 
z
" style="fill:#f72e5c;"/>
    </g>
    <g id="text_18">
     <!-- ipset -->
     <g style="fill:#777777;" transform="translate(747.64 177.220312)scale(0.1 -0.1)">
      <defs>
       <path d="M 9.421875 54.6875 
L 18.40625 54.6875 
L 18.40625 0 
L 9.421875 0 
z
M 9.421875 75.984375 
L 18.40625 75.984375 
L 18.40625 64.59375 
L 9.421875 64.59375 
z
" id="DejaVuSans-105"/>
      </defs>
      <use xlink:href="#DejaVuSans-105"/>
      <use x="27.783203" xlink:href="#DejaVuSans-112"/>
      <use x="91.259766" xlink:href="#DejaVuSans-115"/>
      <use x="143.359375" xlink:href="#DejaVuSans-101"/>
      <use x="204.882812" xlink:href="#DejaVuSans-116"/>
     </g>
    </g>
    <g id="patch_47">
     <path d="M 719.64 191.898438 
L 739.64 191.898438 
L 739.64 184.898438 
L 719.64 184.898438 
z
" style="fill:#17b838;"/>
    </g>
    <g id="text_19">
     <!-- calico -->
     <g style="fill:#777777;" transform="translate(747.64 191.898438)scale(0.1 -0.1)">
      <use xlink:href="#DejaVuSans-99"/>
      <use x="54.980469" xlink:href="#DejaVuSans-97"/>
      <use x="116.259766" xlink:href="#DejaVuSans-108"/>
      <use x="144.042969" xlink:href="#DejaVuSans-105"/>
      <use x="171.826172" xlink:href="#DejaVuSans-99"/>
      <use x="226.806641" xlink:href="#DejaVuSans-111"/>
     </g>
    </g>
    <g id="patch_48">
     <path d="M 719.64 206.576562 
L 739.64 206.576562 
L 739.64 199.576562 
L 719.64 199.576562 
z
" style="fill:#f6830f;"/>
    </g>
    <g id="text_20">
     <!-- cilium -->
     <g style="fill:#777777;" transform="translate(747.64 206.576562)scale(0.1 -0.1)">
      <use xlink:href="#DejaVuSans-99"/>
      <use x="54.980469" xlink:href="#DejaVuSans-105"/>
      <use x="82.763672" xlink:href="#DejaVuSans-108"/>
      <use x="110.546875" xlink:href="#DejaVuSans-105"/>
      <use x="138.330078" xlink:href="#DejaVuSans-117"/>
      <use x="201.708984" xlink:href="#DejaVuSans-109"/>
     </g>
    </g>
    <g id="patch_49">
     <path d="M 719.64 221.254687 
L 739.64 221.254687 
L 739.64 214.254687 
L 719.64 214.254687 
z
" style="fill:#892cdc;"/>
    </g>
    <g id="text_21">
     <!-- iptables -->
     <g style="fill:#777777;" transform="translate(747.64 221.254687)scale(0.1 -0.1)">
      <use xlink:href="#DejaVuSans-105"/>
      <use x="27.783203" xlink:href="#DejaVuSans-112"/>
      <use x="91.259766" xlink:href="#DejaVuSans-116"/>
      <use x="130.46875" xlink:href="#DejaVuSans-97"/>
      <use x="191.748047" xlink:href="#DejaVuSans-98"/>
      <use x="255.224609" xlink:href="#DejaVuSans-108"/>
      <use x="283.007812" xlink:href="#DejaVuSans-101"/>
      <use x="344.53125" xlink:href="#DejaVuSans-115"/>
     </g>
    </g>
   </g>
  </g>
 </g>
 <defs>
  <clipPath id="p6af0c8a658">
   <rect height="277.2" width="602.64" x="108" y="43.2"/>
  </clipPath>
 </defs>
</svg>
