<?xml version="1.0" encoding="utf-8"?>
<!-- Generator: Adobe Illustrator 24.1.0, SVG Export Plug-In . SVG Version: 6.00 Build 0)  -->
<svg version="1.1" id="Layer_9" xmlns="http://www.w3.org/2000/svg" xmlns:xlink="http://www.w3.org/1999/xlink" x="0px" y="0px"
	 viewBox="974 1336.7 200 200" enable-background="new 974 1336.7 200 200" xml:space="preserve">
<g>
	<g>
		<polygon fill="#0FD15D" points="1075.5,1397.6 1107.7,1381.7 1075.4,1367.6 1043,1381.6 		"/>
		<polygon fill="#0FD15D" points="1042.4,1441.1 1040.8,1415 1064.4,1403.2 1031.1,1386.7 1009.6,1396.1 1012.4,1421.3 		"/>
		<polygon fill="#0FD15D" points="1138.3,1421.1 1141.4,1396.1 1119.7,1386.7 1086.7,1403.2 1110.5,1415 1108.6,1441.1 		"/>
		<polygon fill="#0FD15D" points="1107.7,1453.6 1105.4,1487.8 1132.7,1467.2 1136.9,1434.1 		"/>
		<polygon fill="#0FD15D" points="1043.2,1453.6 1014.1,1434.1 1017.9,1467.3 1045.4,1487.8 		"/>
		<polygon fill="#0FD15D" points="1097.4,1460.5 1075.7,1475.3 1053.6,1460.5 1055.8,1495.5 1075.5,1510.3 1094.9,1495.5 		"/>
	</g>
</g>
</svg>
