<?xml version="1.0" encoding="UTF-8"?>
<svg width="20px" height="20px" viewBox="0 0 20 20" version="1.1" xmlns="http://www.w3.org/2000/svg" xmlns:xlink="http://www.w3.org/1999/xlink">
    <title>MCamel_MonIO</title>
    <g id="MCamel_MonIO" stroke="none" stroke-width="1" fill="none" fill-rule="evenodd">
        <g id="MiniO-logo">
            <polygon id="Frame" points="0 0 20 0 20 20 0 20"></polygon>
            <path d="M11.4219403,20 C11.3211711,19.8943906 11.2227205,19.7857889 11.1196328,19.6819397 C10.8521039,19.4122837 10.5827916,19.1429798 10.3109823,18.8768441 C10.2609418,18.8319524 10.2335843,18.7675157 10.2362526,18.7008284 C10.2383928,17.3054936 10.2388684,15.9102175 10.2376794,14.5150001 L10.2376794,11.4616564 L5,14.0883381 C5.2480884,12.8090563 5.73017535,11.6417205 6.36778572,10.5328218 C7.70542986,8.20395865 9.76522349,6.58144632 11.4426292,5.77089421 L11.4426292,9.44750928 C11.4426292,9.56297555 11.4488716,9.56667188 11.5560615,9.51791554 C12.4656595,9.10691898 13.0321072,8.20642287 12.9841303,7.22865589 C12.9555939,6.64780422 12.7372904,6.13964702 12.3342136,5.71650537 C11.7752567,5.12984519 11.2068472,4.5521618 10.6443232,3.96884591 C10.3008162,3.61259021 9.95730918,3.25615851 9.62040121,2.89374227 C9.38016033,2.63499925 9.20109436,2.33911693 9.14402155,1.98602952 C9.01453759,1.1865664 9.44722089,0.428114932 10.2093213,0.129064329 C10.8535308,-0.123694156 11.4412024,0.00814157169 11.9825024,0.408049147 C12.2480694,0.604306605 12.4508562,0.858473215 12.6220747,1.13305764 C13.3963625,2.37455475 14.1662511,3.61839873 14.9317402,4.86458959 C14.9588304,4.91302479 14.9804228,4.96426199 14.9961255,5.01737118 C15.0048268,5.03552903 14.9984469,5.05723983 14.9812518,5.06798585 C14.9640567,5.07873187 14.941442,5.07514123 14.9285299,5.05961494 C14.8477362,4.98656844 14.7665857,4.91352194 14.6909643,4.83519497 C13.6766139,3.7833254 12.6625607,2.73104513 11.6488048,1.67835415 C11.5280601,1.55320702 11.4057103,1.42911598 11.2771181,1.31206557 C11.1103584,1.15998804 10.9139923,1.08570943 10.6885546,1.15699577 C10.4693594,1.22616992 10.3257856,1.37719136 10.2754901,1.60090726 C10.2296535,1.80402933 10.3056317,1.97722874 10.4452818,2.12226564 C10.9089984,2.60419651 11.3744391,3.08466058 11.8416039,3.56365786 C12.2947977,4.03133147 12.7585144,4.48950022 13.1988668,4.96879086 C14.7433999,6.65044446 14.3071496,9.27518995 12.3015751,10.3969377 C12.046531,10.5395104 11.7843527,10.6690579 11.5219961,10.7994855 C11.4595727,10.8304643 11.4410241,10.8663715 11.4410241,10.9339615 C11.4429265,13.9088608 11.4434021,16.8835254 11.4424509,19.8579554 C11.4424509,19.9047755 11.4406674,19.9515957 11.4395972,19.9987679 L11.4219403,20 Z M10.0867903,7.88461538 C8.64594966,8.9854474 7.54784644,10.3284553 6.76470588,11.9230769 C7.05824744,11.7856065 7.34561682,11.6422597 7.63153393,11.4974884 C8.39785228,11.1098882 9.16356551,10.7215163 9.92867363,10.3323729 C9.98059254,10.3060184 10.0424959,10.2696921 10.06428,10.2223253 C10.0933256,10.158576 10.0960486,10.0798689 10.0962301,10.0073942 C10.0982875,9.33749283 10.0985901,8.66771022 10.0971378,7.99804631 C10.0976824,7.96741818 10.0916918,7.93643391 10.0866088,7.88461538 L10.0867903,7.88461538 Z" id="Shape-Copy" fill="#C72C48" fill-rule="nonzero"></path>
        </g>
    </g>
</svg>