<?xml version="1.0" encoding="UTF-8"?>
<svg width="20px" height="20px" viewBox="0 0 20 20" version="1.1" xmlns="http://www.w3.org/2000/svg" xmlns:xlink="http://www.w3.org/1999/xlink">
    <title>MCamel_MongoDB</title>
    <g id="MCamel_MongoDB" stroke="none" stroke-width="1" fill="none" fill-rule="evenodd">
        <g id="MongoDB">
            <polygon id="Frame" points="0 0 20 0 20 20 0 20"></polygon>
            <path d="M11.6911213,2.22913619 C10.873986,1.23322179 10.1703355,0.22174708 10.0265857,0.011670893 C10.0114493,-0.00389029767 9.98874481,-0.00389029767 9.97361604,0.011670893 C9.82985866,0.22174708 9.12621567,1.23322179 8.30907283,2.22913619 C1.29531716,11.4179767 9.41373043,17.619144 9.41373043,17.619144 L9.48182125,17.6658366 C9.54234389,18.6228016 9.69366945,20 9.69366945,20 L9.99631298,20 L10.2989565,20 C10.2989565,20 10.4502821,18.6305837 10.5108123,17.6658366 L10.5789031,17.6113619 C10.5864637,17.619144 18.7049073,11.4179767 11.6911213,2.22913619 Z M9.99631298,17.4790661 C9.99631298,17.4790661 9.6331468,17.1600778 9.5347833,16.9967315 L9.5347833,16.9810895 L9.97361604,6.97529961 C9.97361604,6.9441712 10.0190175,6.9441712 10.0190175,6.97529961 L10.4578427,16.9810895 L10.4578427,16.9967315 C10.3594867,17.1600778 9.99631298,17.4790661 9.99631298,17.4790661 Z" id="形状" fill="#00684A"></path>
        </g>
    </g>
</svg>