<?xml version="1.0" encoding="UTF-8"?>
<svg width="20px" height="20px" viewBox="0 0 20 20" version="1.1" xmlns="http://www.w3.org/2000/svg" xmlns:xlink="http://www.w3.org/1999/xlink">
    <title>MCamel_Postgresql</title>
    <g id="MCamel_Postgresql" stroke="none" stroke-width="1" fill="none" fill-rule="evenodd">
        <g id="Postgresql_elephant">
            <polygon id="Frame" points="0 0 20 0 20 20 0 20"></polygon>
            <path d="M11.1092244,17.2573247 C11.1363192,17.3415667 11.2468971,17.6678951 11.2848686,17.7492346 C11.4094967,18.0162028 11.5243999,18.0799071 11.9964814,17.9765962 C13.2354486,17.7054819 13.5616425,17.2312312 13.62744,14.4646657 L14.446028,14.4843476 L13.6327784,14.3890014 C13.6339281,14.3792211 13.6627718,14.1268693 13.6777572,14.0012673 L13.6839027,13.9507386 C13.7933382,13.0823909 14.1553087,12.651944 14.8478864,12.6371175 L14.975028,12.6383476 C14.8502448,12.5008399 14.7707471,12.3582105 14.7260863,12.2177817 L14.6990469,12.1130725 L14.6337998,11.7849386 L14.8180952,11.5057178 C15.8081085,10.005776 16.5859049,8.21635859 17.0000031,6.57922137 C17.3546292,5.17720748 17.371299,4.07162444 17.1834733,3.8265704 C15.8429345,2.07750163 13.2086563,2.04538184 12.2321047,2.58546203 L12.1175429,2.64882021 L11.988895,2.67307631 L11.9688757,2.67685086 L11.8086964,2.70705208 L11.6492345,2.67326725 C11.2777351,2.59455852 10.8662004,2.55008672 10.4107242,2.54256717 C9.70324578,2.53069668 9.15328419,2.70813299 8.71617706,3.04667597 L8.34018723,3.33788311 L7.90182469,3.1534699 C7.74690243,3.08829619 7.45344848,2.98306114 7.06857907,2.8764945 C6.37075243,2.68327302 5.67344438,2.57619657 5.04383007,2.59749443 C3.37554391,2.65392725 2.52249828,3.53389461 2.638879,5.90980429 C2.68030053,6.75562212 3.23728354,9.29397126 3.84079805,10.9702846 C4.21053464,11.9972597 4.59759521,12.7403028 4.93601257,13.0761795 C5.11397934,13.2528102 5.07481159,13.2545077 5.28398122,12.9977443 C5.64189479,12.5581882 6.01909165,12.1176529 6.3927858,11.6965467 C6.61728047,11.4435695 6.79148248,11.2524537 6.89225683,11.1441719 L7.36780549,10.6331958 L7.94545626,11.0250666 C8.10613184,11.1340668 8.28044961,11.2027618 8.46039697,11.2283711 L8.50602803,11.2323476 L9.85606085,10.0569794 L9.66157506,12.0895495 C9.65675718,12.1399011 9.65886079,12.1925212 9.67097106,12.272325 L9.66402803,12.2163476 L11.7142185,9.28687186 L10.734028,13.2963476 L10.7580526,13.3648295 C10.8391222,13.6354079 10.8650258,14.0179259 10.8858683,14.647939 L10.8926971,14.8672959 C10.8961637,14.9878851 10.8961637,14.9878851 10.899378,15.1059752 C10.9047319,15.3018903 10.9078033,15.402737 10.9119886,15.5093408 C10.9479542,16.4242611 11.0073346,16.9724665 11.1069953,17.247145 L11.1092244,17.2573247 Z M9.57302803,17.7933476 L9.53365043,17.6761497 C9.38591415,17.1995979 9.32410928,16.5757862 9.28470023,15.5732691 C9.28017973,15.458127 9.27696888,15.3527019 9.27144217,15.1504627 C9.26823498,15.0326522 9.26823498,15.0326522 9.26486726,14.9155046 L9.26302803,14.8703476 L9.13961486,14.9207859 C8.55981239,15.1330991 7.92751284,15.1368265 7.28235256,14.9971082 L7.10611068,14.9554957 C6.75285951,14.8652924 6.41288796,14.6991229 6.18170493,14.4450044 L6.15802803,14.4153476 L6.07577468,14.4813628 C5.38052082,14.9921898 4.58332885,14.9357879 3.90688006,14.3423562 L3.78880546,14.2320644 C3.23467918,13.6820983 2.75408998,12.7595075 2.30853407,11.5219378 C1.65335687,9.70212685 1.06215698,7.00784049 1.01228524,5.98947145 C0.850476519,2.68615013 2.43034142,1.05642544 4.9887731,0.96988181 C5.80581603,0.94224384 6.65891636,1.07324326 7.50315562,1.30700499 C7.69942237,1.36134936 7.87720356,1.41593832 8.03321145,1.46769713 L8.10802803,1.49434762 L8.30267862,1.38472539 C8.85071237,1.09867905 9.47591569,0.938761105 10.1730422,0.916234437 L10.4378258,0.91424915 C10.9949471,0.923446755 11.5102931,0.979136747 11.9867776,1.08008843 L11.751028,1.03634762 C12.2346021,0.8797945 13.0542721,0.729551406 13.8400927,0.713544791 L14.0532881,0.712604699 C15.8022068,0.73392929 17.3578372,1.37692544 18.4760321,2.83589092 C19.5033178,4.17617861 18.6435751,8.10216252 16.8062776,11.3701149 L16.693028,11.5673476 L16.7828803,11.5615829 C16.9474619,11.5475145 17.1454555,11.5205622 17.3797744,11.4762808 L17.5623701,11.4397511 C18.5776473,11.2257316 19.4781809,11.9245006 18.8231516,12.9333758 C18.5812018,13.3060264 18.0826737,13.6852603 17.5156308,13.9539247 C16.9639255,14.2156451 16.1018259,14.361038 15.3666315,14.3261273 L15.280028,14.3183476 L15.2770046,14.3464055 C15.2738637,14.3735183 15.2707012,14.4009042 15.2677032,14.4269111 L15.254028,14.5463476 L15.2463926,14.8032589 C15.1290501,17.9387241 14.3686676,19.0665911 12.521035,19.526311 L12.3446206,19.5674932 C11.0956293,19.840824 10.2434696,19.3683722 9.80920084,18.4381168 C9.71466323,18.235606 9.51403029,17.6315454 9.57612041,17.8026411 L9.57302803,17.7933476 Z" id="path-black" fill="#000000" fill-rule="nonzero"></path>
            <path d="M17.7305344,12.2364279 C15.6413068,12.6764815 15.4976833,11.9541846 15.4976833,11.9541846 C17.703579,8.61188099 18.62571,4.36932517 17.8299245,3.33098365 C15.6589586,0.498584085 11.9009073,1.8381265 11.8381914,1.87290329 L11.8180061,1.87659302 C11.4052443,1.78909972 10.9433066,1.73697695 10.4241354,1.72832516 C9.47878715,1.71250596 8.761708,1.98138989 8.21757514,2.40274034 C8.21757514,2.40274034 1.51358082,-0.417360115 1.82537422,5.94954839 C1.89170352,7.30406179 3.72662038,16.1983944 5.91523814,13.5118877 C6.715177,12.5295283 7.48807742,11.6989145 7.48807742,11.6989145 C7.87197331,11.9593163 8.33154358,12.0921466 8.81333438,12.0444346 L8.85075623,12.0119904 C8.8391268,12.1339636 8.84444311,12.2532649 8.86574989,12.3944926 C8.30193006,13.0377359 8.46760795,13.1506757 7.34050822,13.3875819 C6.20003465,13.6275841 6.87001459,14.0548721 7.3074474,14.1665395 C7.83774955,14.3019569 9.0646132,14.4937806 9.8935841,13.3088252 L9.86052329,13.4440306 C10.081441,13.6247002 10.2365693,14.6192739 10.2105692,15.5208408 C10.1845691,16.4224502 10.167208,17.0414346 10.3412757,17.5249167 C10.5153434,18.0083989 10.6888297,19.0962337 12.1705025,18.7720462 C13.4085802,18.5011266 14.0501511,17.7990596 14.139407,16.6279725 C14.2027459,15.7954078 14.3460787,15.9184837 14.355133,15.1741332 L14.4700983,14.8217426 C14.6026738,13.6931511 14.4911558,13.3290551 15.253922,13.4984011 L15.4392869,13.5150261 C16.0006978,13.5411087 16.7354703,13.4228252 17.1667146,13.2181511 C18.0953248,12.7780975 18.6460615,12.0433743 17.7304513,12.2364279 L17.7305344,12.2364279 Z" id="path-blue" fill="#336791" fill-rule="nonzero"></path>
            <path d="M13.8886376,1.22887634 C15.5390832,1.21322131 16.9914653,1.78335995 18.0307435,3.13937987 C18.9541458,4.34434794 17.9077386,8.60573108 15.8723274,11.8253682 L15.8090369,11.9217071 C16.0589628,12.1063484 16.6385866,12.1596686 17.6600293,11.9443815 C18.2817822,11.8132571 18.6736502,12.1177287 18.3531568,12.6112962 C18.174351,12.8866616 17.7526494,13.2076062 17.2683733,13.4372588 C16.5849232,13.761149 15.5033975,13.8728058 14.8765017,13.6635808 C14.7795336,14.5851163 14.5699635,16.2696768 14.4645253,16.8934857 C14.2459566,18.1879626 13.6903116,18.7777018 12.3710489,19.066506 C11.0199473,19.3620612 10.3762188,18.8083665 9.94624086,17.7109042 C9.78786009,17.3064077 9.70032628,16.0648678 9.69267029,14.5124647 L9.69308912,13.9842054 L9.69485934,13.9090072 C9.00112747,14.5521132 8.13714005,14.6359999 7.22553158,14.4030667 C6.90643556,14.3216159 6.5947381,14.147472 6.47753579,13.9255511 C6.26290384,13.5191486 6.60297857,13.2359619 7.26991767,13.0955859 C7.48083962,13.0512394 7.63938707,13.0126067 7.76303367,12.9754095 C8.01369907,12.9000007 8.11359191,12.8388702 8.22582528,12.7097906 C8.23688085,12.6970756 8.32169438,12.5882647 8.41824277,12.4672287 L8.53576408,12.3214854 L8.53276957,12.2971449 L8.51502864,12.297531 C8.1603262,12.283736 7.82452703,12.1859532 7.5234733,12.022275 C7.43517304,12.1197109 7.31240227,12.255033 7.16468709,12.420977 C6.816184,12.8124872 6.45817039,13.2303237 6.11093144,13.6568919 C5.49335686,14.4150089 4.78628191,14.4456622 4.1562607,13.8203739 C3.67402424,13.3417601 3.22459715,12.4789927 2.80430031,11.3115839 C2.16631852,9.53953749 1.58650193,6.89713025 1.53944782,5.93623637 C1.39279786,2.94240085 2.73079577,1.55880974 4.99359967,1.4752436 C5.75097749,1.44727337 6.55516054,1.56861436 7.35317415,1.7875536 C7.60431622,1.85645574 7.83661503,1.9303096 8.04471883,2.00430551 C8.09494518,2.0221646 8.13958245,2.03851055 8.1782876,2.05303994 C8.77621843,1.6359665 9.51798312,1.41534634 10.4138513,1.43034775 C10.871776,1.43801401 11.3053447,1.49517793 11.714443,1.5973593 C11.7280965,1.5896247 11.7307381,1.5892235 11.7361766,1.5883975 C11.7779862,1.57268285 11.7996072,1.56506204 11.8445001,1.55037125 C11.9667243,1.51037452 12.1181699,1.46748241 12.2881399,1.42691314 C12.7832769,1.30873136 13.3262153,1.2342111 13.8886376,1.22887634 Z M10.4047635,1.97311952 C8.75425347,1.94548156 7.73359583,2.82112502 7.18231395,4.33392988 C6.94792659,4.97712595 6.82980642,5.63324234 6.78709567,6.1956676 C7.08262354,6.02322986 7.4565094,5.87306167 7.81231482,5.78925514 C8.81773715,5.55243764 9.60126338,5.86137905 9.81281164,6.86011248 C10.1635686,8.51647878 10.0623127,9.49165492 9.62646723,10.5173557 L9.61219584,10.5483155 C9.55575149,10.6777479 9.41446902,11.0061382 9.38218492,11.0948438 C9.24908854,11.4611373 9.16670107,11.6988823 9.12063364,11.8735759 C9.28148635,11.8369085 9.4490056,11.8694906 9.63634178,11.9487293 C9.96423987,12.0875266 10.1974827,12.4434409 10.2427888,12.8102457 L10.2491573,12.8283851 C10.2532968,12.8484907 10.2552054,12.8693863 10.254619,12.8907931 C10.1950301,15.0661782 10.2793822,17.0728363 10.451701,17.5129298 C10.7961395,18.3920638 11.2255363,18.761404 12.2550023,18.536207 C13.3566333,18.2950453 13.7473668,17.8803366 13.9292617,16.8030609 C13.9815135,16.4939212 14.0606233,15.9125671 14.1385323,15.2958476 L14.204363,14.7640943 C14.2806824,14.1350695 14.3474399,13.5395577 14.3749898,13.2278048 L14.3815151,13.140563 L14.3788835,13.0020762 C14.3820556,12.4371827 14.5869444,12.0975265 14.9552467,11.928484 C15.007784,11.9043706 15.0608765,11.8847735 15.1213002,11.8659127 L15.1427466,11.859071 L15.0987994,11.7957556 C14.9917609,11.644452 14.8408566,11.4443363 14.7706926,11.3468444 L14.7392799,11.3018756 C14.6251063,11.1269366 14.5283107,10.9449484 14.4466663,10.7428267 C14.4415284,10.73011 14.412611,10.6745825 14.3689926,10.5922679 L14.2648442,10.3966703 C14.1070173,10.1009128 13.887687,9.69063401 13.779005,9.46969288 C13.591225,9.08795246 13.43678,8.73139241 13.3178181,8.39182064 C13.0183601,7.53703034 12.9603378,6.84547959 13.2380841,6.34047516 C13.5400633,5.79140976 14.1860579,5.55680408 15.1123733,5.64504185 L15.2547466,5.661071 L15.249349,5.64254296 C15.2368137,5.60524174 15.2229185,5.56607542 15.2077525,5.52542665 L15.1585315,5.39941563 C14.9752626,4.94971818 14.7018887,4.46320339 14.3569258,4.0128784 C13.4021885,2.76653517 12.0897342,2.00132817 10.4047635,1.97311952 Z M9.05526616,12.5468122 C8.93507326,12.6839072 8.66941299,13.0269479 8.63547669,13.065978 C8.45270736,13.2761812 8.26426003,13.3915034 7.91941786,13.4952439 C7.77880881,13.537544 7.6063244,13.5795726 7.38166766,13.6268068 C7.24286855,13.656021 7.13566671,13.6877385 7.06020487,13.7183545 L7.02720881,13.7328187 C7.09170854,13.775292 7.17718612,13.8172987 7.26802409,13.8491577 L7.35985646,13.8771004 C8.26487362,14.1083494 9.06783341,13.9680783 9.65638999,13.1265674 C9.78957981,12.9361688 9.64674734,12.5426121 9.42480193,12.448664 C9.24841181,12.3740552 9.20288709,12.3781151 9.05526616,12.5468122 Z M5.01363358,2.01772165 C3.04678484,2.09035805 1.95011015,3.2244027 2.08164577,5.9096814 C2.12588332,6.81305816 2.69429416,9.4034858 3.31505488,11.1276993 C3.71007845,12.2249095 4.12832925,13.0278276 4.53866216,13.435078 C4.94266094,13.8360419 5.2766183,13.821564 5.68999539,13.3141141 C6.04261811,12.8809322 6.4057176,12.4571599 6.75921173,12.0600428 C6.88413775,11.9197003 6.99172158,11.8006766 7.07785455,11.7065145 C6.46543255,11.1720487 6.09293274,10.3228654 6.16561673,9.39759831 L6.18397808,9.22715898 C6.27615166,8.55413969 6.28507669,7.93232436 6.24706268,7.21895542 C6.24361054,7.15417272 6.23913133,7.07678363 6.23245446,6.96108091 C6.22922586,6.90278301 6.22722052,6.86004337 6.2263221,6.82556898 L6.22559825,6.77020249 C6.21609293,6.05570449 6.3266441,5.09653556 6.67227603,4.14806674 C6.91916224,3.47057184 7.25764333,2.8987455 7.69479386,2.45700651 C7.55554304,2.41109014 7.392018,2.36111813 7.20954834,2.31105662 C6.46048816,2.10554802 5.70837976,1.99206443 5.01363358,2.01772165 Z M15.4537466,12.331071 L15.401122,12.3494532 C15.1070523,12.4376536 15.2327078,12.3984312 15.1816895,12.4218475 C14.993442,12.5082488 14.9000252,12.6828423 14.9250512,13.1314876 C14.9337666,13.2872926 16.3507773,13.271391 17.0358364,12.9467383 C17.2866452,12.8278002 17.5154836,12.6806174 17.6800876,12.5434578 L17.7517466,12.479071 L17.5460414,12.5202576 C16.5913812,12.6962152 15.9544268,12.6426374 15.5705857,12.4141359 L15.4864707,12.3583245 L15.4537466,12.331071 Z M7.9367716,6.31764354 C7.6359968,6.38848813 7.31769591,6.51814163 7.05301776,6.66863132 C6.90582704,6.75232045 6.768075,6.86672224 6.76862656,6.78266263 C6.76845297,6.80978697 6.77024542,6.85474983 6.77447174,6.93106342 C6.78103648,7.04477826 6.7856089,7.12377797 6.78914143,7.19006913 C6.82882251,7.9347222 6.81944781,8.58786664 6.72180559,9.30081602 C6.54715194,10.5761211 7.4181663,11.6901344 8.50691442,11.7533951 L8.58876957,11.7541449 C8.63435154,11.5824523 8.70438494,11.3752521 8.80670373,11.0900823 L8.87202282,10.9093219 C8.91607396,10.7882843 9.11760605,10.3227708 9.13662443,10.2811214 L9.19692284,10.1322805 C9.50706468,9.32770238 9.57955046,8.53523107 9.33827559,7.25465067 L9.28174364,6.97258723 C9.25711423,6.85631013 9.22188658,6.7550145 9.17634844,6.66808943 C9.21440323,6.73139509 9.23088729,6.80484841 9.21938184,6.88919692 C9.18422503,7.1466851 8.84005037,7.38483954 8.52050317,7.33933025 C8.20380296,7.29448897 7.89866099,6.96729678 7.93444422,6.70860694 C7.97273518,6.42178969 8.28909509,6.34523555 8.63335048,6.3943027 C8.87259038,6.42830326 9.08181212,6.51659601 9.17356325,6.66353959 C8.96514234,6.27075854 8.54381314,6.17466078 7.9367716,6.31764354 Z M13.8937865,1.77169977 C13.4491367,1.77591742 13.0159601,1.82725645 12.613028,1.91063767 C13.4694975,2.29922694 14.194478,2.90813899 14.7878656,3.68276525 C15.1632059,4.17274591 15.4602673,4.7014164 15.6612358,5.19454443 C15.8263169,5.5996136 15.9171453,5.86913688 15.8567012,6.03552755 L15.8534993,5.95388653 C15.8688222,6.24386303 15.8510571,6.49634237 15.8018939,6.84130698 C15.793625,6.89932756 15.785776,6.95183234 15.7692423,7.06119832 C15.7172645,7.40649264 15.6956867,7.59648199 15.6881038,7.83926438 C15.6804364,8.08025869 15.6964696,8.27249002 15.7553917,8.77347899 C15.895301,9.96306485 15.8559081,10.5928903 15.421981,11.3112421 C15.4427434,11.3427553 15.4665511,11.3766932 15.4901695,11.4109803 C17.3634183,8.38042531 18.3274097,4.41896218 17.5998751,3.46958611 C16.675551,2.26355509 15.3865203,1.75754069 13.8937865,1.77169977 Z M13.9978152,6.32473108 L14.0686088,6.29240249 C14.1534193,6.25732502 14.2507261,6.23264054 14.3535751,6.21800699 C14.6976971,6.16904466 15.0135184,6.24545263 15.052784,6.53275107 C15.0880524,6.79126749 14.7832588,7.1182119 14.4668449,7.16300404 C14.1470835,7.20850897 13.8030539,6.97056995 13.7673852,6.71204224 C13.7486969,6.5715725 13.8076448,6.46135186 13.9133256,6.3798603 C13.8272223,6.44065177 13.7613352,6.51553777 13.7137385,6.60207925 C13.53067,6.93493841 13.5772912,7.49060262 13.830137,8.21234037 C13.9410914,8.52905518 14.0872217,8.86641939 14.2661099,9.23008362 C14.430504,9.56428262 14.9137299,10.4497359 14.9499936,10.539491 C14.9878154,10.6331241 15.029494,10.7214631 15.0755262,10.8066801 C15.3164474,10.2971796 15.3265352,9.77450887 15.2162599,8.83688723 C15.1540226,8.30771152 15.1366893,8.09989146 15.1455255,7.82216 C15.1539359,7.55288034 15.1775102,7.34531335 15.2324423,6.98039283 C15.2489696,6.87105301 15.2565135,6.82058901 15.2644763,6.764716 C15.295589,6.54640725 15.3125318,6.37338748 15.3154759,6.20417744 C14.6983282,6.12565419 14.2701316,6.17433362 13.9978152,6.32473108 Z" id="shape-white" fill="#FFFFFF" fill-rule="nonzero"></path>
        </g>
    </g>
</svg>