<?xml version="1.0" encoding="UTF-8"?>
<svg width="20px" height="20px" viewBox="0 0 20 20" version="1.1" xmlns="http://www.w3.org/2000/svg" xmlns:xlink="http://www.w3.org/1999/xlink">
    <title>MCamel_RocketMQ</title>
    <g id="MCamel_RocketMQ" stroke="none" stroke-width="1" fill="none" fill-rule="evenodd">
        <g id="RocketMQ" transform="translate(0, -0)">
            <polygon id="Frame" points="0 0 20 0 20 20 0 20"></polygon>
            <path d="M11.3034196,16.7629748 C11.6164976,16.7629748 11.6709924,16.8326921 11.6111549,17.1587542 C11.4439307,18.1133442 11.0662069,18.9644308 10.4170776,19.691099 C10.330527,19.7887031 10.2605386,19.897033 10.1793306,20 L9.84434784,20 L9.04509069,18.8995401 C8.72613579,18.3632537 8.5321984,17.7663668 8.40771516,17.1533914 C8.35428888,16.8552161 8.42908567,16.7629748 8.74269794,16.7629748 L11.3034196,16.7629748 Z M10.2503876,0.168662364 C11.2227459,1.36726264 12.0925257,2.63558016 12.8436992,3.98702208 C13.6702038,5.47789849 14.3396351,7.04010099 14.713619,8.71009708 C14.9460233,9.75692829 15.1410293,10.8085861 15.0972197,11.5524154 L15.0908086,11.5406171 C15.0747807,13.487337 14.8097863,15.0382775 14.1184503,16.4969767 C13.9293212,16.898119 13.8807033,16.9152802 13.4971026,16.6975479 C13.4650469,16.6814593 13.4276485,16.6653707 13.3998668,16.6439192 C12.865604,16.21489 12.2490647,16.17735 11.5956613,16.1934386 L7.81308066,16.1934386 C7.50000266,16.1880757 7.22966568,16.2470672 6.98123348,16.4374489 C6.85140762,16.5296902 6.7108965,16.5945809 6.57626227,16.6760964 C6.13282415,16.9415582 6.12213889,16.9415582 5.90095409,16.4647995 C5.55528606,15.7220428 5.32288174,14.9471088 5.15565748,14.1383888 C4.86394999,12.7333182 4.8853205,11.3293202 5.07444953,9.92478596 C5.19305588,9.02382467 5.43080282,8.14592371 5.71716769,7.28411134 C6.21403209,5.78250921 6.91124505,4.38816437 7.73774961,3.04315788 C8.36443988,2.02421357 9.04509069,1.05889792 9.80160682,0.147210905 C9.99073585,-0.0807108477 10.0986569,-0.0206467623 10.2503876,0.168662364 Z M4.34357802,13.8890156 C4.43012859,13.9211928 4.43547122,13.9973455 4.44081385,14.0734981 C4.49424013,14.9572983 4.75389185,15.7869334 5.18076783,16.5618674 C5.29403155,16.7624385 5.20748097,16.8332284 5.00766668,16.8332284 L3.97653947,16.8278655 L2.97746803,16.8230389 C2.8155864,16.8230389 2.70178842,16.7694103 2.72903583,16.5790286 L2.91816486,15.4238675 C2.9822764,14.9733869 3.3455751,14.7460014 3.61484355,14.4478261 C3.77672518,14.2687064 3.96585422,14.1223002 4.14910636,13.9651683 C4.20253264,13.9115396 4.26237007,13.8568384 4.34357802,13.8890156 Z M16.0076035,14.0681353 L16.693597,14.7186508 C16.963934,14.9353105 17.0771977,15.2227601 17.110322,15.5321974 C17.1477204,15.8738118 17.2508331,16.1993377 17.2775462,16.5404159 C17.2935741,16.7409871 17.2348052,16.8171398 17.0397993,16.8171398 L16.0246999,16.8225026 L15.0464648,16.8230389 C14.7926899,16.817676 14.7494146,16.7361605 14.868021,16.5141379 C15.2083464,15.8743481 15.4621212,15.2018449 15.5273013,14.4698138 C15.5397551,14.37688 15.5632519,14.2857776 15.5972897,14.1984529 C15.6400307,14.090123 15.5652339,13.9163662 15.6998682,13.872927 C15.8350367,13.8353869 15.9157103,13.9866197 16.0076035,14.0681353 Z M9.81816896,2.04459246 C9.53714673,2.42428329 9.23475398,2.7927121 8.98097915,3.19439067 C7.98190771,4.76678262 7.15486889,6.42658927 6.67403237,8.24299156 C6.3876675,9.32199995 6.19319584,10.428359 6.19319584,11.5400808 C6.18785322,12.5804766 6.3604201,13.6063926 6.64731923,14.6092483 C6.71143076,14.8425329 6.82042037,14.9181493 7.05229043,14.9181493 L10.0345454,14.9235122 L13.0055808,14.9192219 C13.1893673,14.9192219 13.302631,14.8816819 13.3672768,14.6698487 C13.6376137,13.8128629 13.7562201,12.9290628 13.794687,12.034537 C13.8705523,10.2181347 13.5409122,8.46608674 12.8864402,6.77892948 C12.2271599,5.06549419 11.3253243,3.49256595 10.2124549,2.0392296 C10.0612585,1.84402132 9.94211793,1.88209766 9.81816896,2.04459246 Z M13.0077179,8.2097418 C13.1535716,8.80609236 12.4189603,9.49522049 11.7976126,9.34291513 C11.7003768,9.32146367 11.6084836,9.25067385 11.521933,9.36436659 C11.4353825,9.47805932 11.5005625,9.57566346 11.5539888,9.6732676 C11.8889716,10.274981 11.9049995,10.8933193 11.5753593,11.484307 C11.3702024,11.847373 11.521933,12.0699319 11.9210274,12.064569 C12.6449535,12.0484804 13.1904358,12.6008555 13.2016553,13.2953465 C13.2123406,14.0220146 12.6396108,14.6183652 11.9375895,14.6130382 C11.2462534,14.6076395 10.684209,14.0273775 10.684209,13.2899836 L10.676195,13.3082173 C10.6708524,13.1778997 10.7082508,13.0368564 10.7296213,12.8791882 C10.7670197,12.6244521 10.562397,12.4072561 10.3353354,12.4834087 C9.76260563,12.678617 9.2603986,12.4887716 8.76299993,12.2501241 C8.49853984,12.1198065 8.49853984,12.1144436 8.45526455,12.4238809 C8.41252353,12.7601326 8.25545026,13.0368564 7.92100175,13.1505491 C7.58655323,13.2642418 7.26172145,13.2041778 7.01275498,12.9119016 C6.8096302,12.672717 6.77117853,12.333824 6.91551915,12.0549158 C7.0613729,11.7674663 7.42841144,11.5454437 7.70409105,11.572258 C8.04441646,11.6151609 8.08769174,11.5293551 8.0064838,11.1872043 C7.89856271,10.7206351 7.88200056,10.248703 8.10906226,9.79285948 C8.26560126,9.48395847 8.20629809,9.29947592 7.89322008,9.13644483 C7.81735477,9.09890478 7.74202371,9.07209046 7.66615839,9.03884069 C7.36910827,8.91388595 7.18532187,8.57763432 7.24943341,8.29608392 C7.31888757,7.99790864 7.64906198,7.73727342 7.94076947,7.74907172 C8.26506699,7.75979745 8.54021234,8.01453352 8.578145,8.33469655 C8.58348762,8.39905093 8.578145,8.46501416 8.58883025,8.52990483 C8.63157128,8.81199152 8.85916723,8.92568425 9.12309306,8.82808011 C9.60392958,8.64896043 10.0847661,8.58943263 10.5816305,8.79590292 C10.8519675,8.90959565 10.9930129,8.80126579 10.9759165,8.51381623 C10.9438607,7.9281914 11.3269271,7.44553357 11.8841632,7.36938089 C12.375685,7.30502651 12.877892,7.6782819 13.0077179,8.2097418 Z M9.913802,9.17023088 C9.07126956,9.18095661 8.48732032,9.78856919 8.47129244,10.5806643 C8.45526455,11.328784 9.14125799,12.0071863 9.88708886,12.0071863 C10.6649755,12.0018235 11.2922,11.3727594 11.2975427,10.59139 C11.2922,9.83200839 10.6494819,9.15950515 9.913802,9.17023088 Z M9.1625,10.3125 C9.33508898,10.3125 9.475,10.5363576 9.475,10.8125 C9.475,11.0886424 9.33508898,11.3125 9.1625,11.3125 C8.98991102,11.3125 8.85,11.0886424 8.85,10.8125 C8.85,10.5363576 8.98991102,10.3125 9.1625,10.3125 Z M10.6625,10.3125 C10.835089,10.3125 10.975,10.5363576 10.975,10.8125 C10.975,11.0886424 10.835089,11.3125 10.6625,11.3125 C10.489911,11.3125 10.35,11.0886424 10.35,10.8125 C10.35,10.5363576 10.489911,10.3125 10.6625,10.3125 Z M9.9125,10.3125 C10.085089,10.3125 10.225,10.5363576 10.225,10.8125 C10.225,11.0886424 10.085089,11.3125 9.9125,11.3125 C9.73991102,11.3125 9.6,11.0886424 9.6,10.8125 C9.6,10.5363576 9.73991102,10.3125 9.9125,10.3125 Z" id="形状结合" fill="#FD6500" fill-rule="nonzero"></path>
        </g>
    </g>
</svg>