<?xml version="1.0" encoding="UTF-8"?>
<svg width="368px" height="368px" viewBox="0 0 368 368" version="1.1" xmlns="http://www.w3.org/2000/svg" xmlns:xlink="http://www.w3.org/1999/xlink">
    <title>DaoCloud logo / vertical / @Light</title>
    <g id="DaoCloud_logo" stroke="none" stroke-width="1" fill="none" fill-rule="evenodd">
        <g id="Artboard" transform="translate(-1919, -2364)">
            <g id="DaoCloud-logo-/-vertical-/-@Light" transform="translate(1919, 2364)">
                <rect id="矩形" x="0" y="0" width="368" height="368"></rect>
                <g id="-DaoCloud-logo-/-element-/-cube@Color" transform="translate(55, 0)">
                    <rect id="矩形" x="0" y="0" width="258" height="258"></rect>
                    <path d="M166.027778,165.669444 L161.966667,225.152778 L129,249.997222 L95.5555556,225.152778 L91.7333333,165.669444 L129.238889,190.513889 L166.027778,165.669444 Z M232.916667,120.758333 L225.988889,176.897222 L179.644444,211.775 L183.705556,153.963889 L232.916667,120.758333 Z M24.6055556,120.758333 L74.0555556,153.963889 L77.8777778,211.775 L31.2944444,177.136111 L24.6055556,120.758333 Z M53.75,40.4916667 L110.127778,68.4416667 L69.9944444,88.2694444 L72.8611111,132.702778 L21.9777778,99.0194444 L17.2,56.4972222 L53.75,40.4916667 Z M203.772222,40.4916667 L240.8,56.4972222 L235.544444,98.7805556 L185.138889,132.702778 L188.244444,88.2694444 L147.872222,68.4416667 L203.772222,40.4916667 Z M128.761111,8.00277778 L183.705556,31.8916667 L129,58.8861111 L73.8166667,31.6527778 L128.761111,8.00277778 Z" id="形状结合" fill="#FFFFFF" fill-rule="nonzero"></path>
                </g>
                <g id="DaoCloud-logo-/-element-/-text@Dark" transform="translate(0, 288)">
                    <rect id="矩形" x="0" y="0" width="368" height="73.1125828"></rect>
                    <path d="M2.43708609,70.3708609 L2.43708609,5.05695364 L26.4423841,5.05695364 C39.8463576,5.05695364 48.1324503,13.2211921 48.1324503,26.381457 L48.1324503,49.1682119 C48.1324503,62.0847682 39.8463576,70.4927152 26.4423841,70.4927152 L2.43708609,70.4927152 L2.43708609,70.3708609 Z M14.9880795,59.2821192 L26.4423841,59.2821192 C32.2913907,59.2821192 35.4596026,55.5046358 35.4596026,47.9496689 L35.4596026,27.3562914 C35.4596026,19.9231788 32.2913907,16.0238411 26.4423841,16.0238411 L14.9880795,16.0238411 L14.9880795,59.2821192 Z M291.719205,71.3456954 C280.752318,71.3456954 277.218543,64.7655629 277.218543,52.5801325 L277.218543,22.6039735 L289.038411,22.6039735 L289.038411,51.4834437 C289.038411,58.3072848 290.378808,61.2317881 295.009272,61.2317881 C298.908609,61.2317881 302.32053,58.794702 303.904636,55.8701987 L303.904636,22.7258278 L315.724503,22.7258278 L315.724503,70.4927152 L305.488742,70.4927152 L304.513907,65.984106 C301.101987,69.0304636 296.227815,71.3456954 291.719205,71.3456954 Z M227.136424,41.0039735 C227.136424,28.9403974 234.813245,21.6291391 247.12053,21.6291391 C259.427815,21.6291391 267.104636,28.9403974 267.104636,41.0039735 L267.104636,51.8490066 C267.22649,63.9125828 259.427815,71.2238411 247.12053,71.2238411 C234.691391,71.2238411 227.136424,63.9125828 227.136424,51.8490066 L227.136424,41.0039735 Z M238.834437,50.8741722 C238.834437,57.5761589 241.75894,61.1099338 247.12053,61.1099338 C252.360265,61.1099338 255.284768,57.5761589 255.284768,50.8741722 L255.284768,42.1006623 C255.284768,35.3986755 252.360265,31.8649007 247.12053,31.8649007 C241.75894,31.8649007 238.956291,35.3986755 238.956291,42.1006623 L238.834437,50.8741722 Z M205.080795,70.3708609 L205.080795,1.4013245 L216.900662,1.4013245 L216.900662,70.3708609 L205.080795,70.3708609 Z M178.638411,71.7112583 C165.721854,71.7112583 156.217219,63.5470199 156.217219,50.6304636 L156.217219,25.7721854 C156.217219,12.8556291 165.721854,4.81324503 178.638411,4.81324503 C186.802649,4.81324503 191.676821,7.12847682 197.160265,11.0278146 L192.407947,19.6794702 C187.777483,17.1205298 184.731126,15.6582781 178.638411,15.6582781 C172.545695,15.6582781 168.646358,19.9231788 168.646358,26.9907285 L168.646358,49.6556291 C168.646358,56.9668874 172.66755,60.9880795 178.638411,60.9880795 C184.731126,60.9880795 187.777483,59.5258278 192.407947,56.9668874 L197.160265,65.7403974 C191.676821,69.3960265 186.802649,71.7112583 178.638411,71.7112583 Z M106.256954,40.6384106 C106.256954,28.4529801 114.055629,20.8980132 126.606623,20.8980132 C139.157616,20.8980132 146.834437,28.3311258 146.834437,40.6384106 L146.834437,51.605298 C146.956291,63.7907285 139.035762,71.3456954 126.606623,71.3456954 C114.055629,71.3456954 106.256954,63.9125828 106.256954,51.605298 L106.256954,40.6384106 Z M118.198675,50.6304636 C118.198675,57.4543046 121.245033,60.9880795 126.606623,60.9880795 C131.968212,60.9880795 134.892715,57.4543046 134.892715,50.6304636 L134.892715,41.613245 C134.892715,34.789404 131.846358,31.2556291 126.606623,31.2556291 C121.245033,31.2556291 118.32053,34.789404 118.32053,41.613245 L118.198675,50.6304636 Z M96.386755,70.3708609 L86.1509934,70.3708609 L85.5417219,65.7403974 C82.7390728,69.0304636 77.4993377,71.3456954 71.7721854,71.3456954 C62.5112583,71.3456954 55.5655629,64.7655629 55.5655629,56.7231788 C55.5655629,36.1298013 84.0794702,35.8860927 84.0794702,35.8860927 C84.0794702,34.3019868 81.7642384,29.4278146 71.5284768,29.4278146 C69.0913907,29.4278146 66.6543046,29.9152318 62.6331126,31.0119205 L60.3178808,24.5536424 C65.0701987,22.4821192 70.5536424,20.7761589 76.5245033,20.7761589 C89.197351,20.7761589 96.5086093,26.015894 96.5086093,38.0794702 L96.5086093,70.3708609 L96.386755,70.3708609 Z M74.2092715,61.9629139 C78.2304636,61.9629139 82.007947,59.6476821 84.2013245,56.3576159 L84.2013245,43.0754967 C82.2516556,43.0754967 67.5072848,44.2940397 67.5072848,55.5046358 C67.6291391,58.794702 69.8225166,61.9629139 74.2092715,61.9629139 Z M355.327152,66.3496689 C352.15894,69.2741722 347.650331,71.3456954 342.410596,71.3456954 C331.687417,71.3456954 326.082119,64.0344371 326.082119,51.9708609 L326.082119,40.2728477 C326.082119,28.0874172 331.443709,21.7509934 342.045033,21.7509934 C345.944371,21.7509934 349.843709,22.3602649 353.743046,23.9443709 L353.743046,1.52317881 L365.562914,1.52317881 L365.562914,70.4927152 L355.936424,70.4927152 L355.327152,66.3496689 Z M353.743046,33.9364238 C350.818543,32.5960265 347.772185,32.1086093 344.725828,32.1086093 C340.217219,32.1086093 337.780132,34.9112583 337.780132,41.1258278 L337.780132,50.8741722 C337.780132,57.5761589 339.607947,61.1099338 344.969536,61.1099338 C349.112583,61.1099338 352.15894,59.2821192 353.743046,56.2357616 L353.743046,33.9364238 Z" id="形状结合" fill="#FFFFFF" fill-rule="nonzero"></path>
                </g>
            </g>
        </g>
    </g>
</svg>