<?xml version="1.0" encoding="UTF-8"?>
<svg width="427px" height="108px" viewBox="0 0 427 108" version="1.1" xmlns="http://www.w3.org/2000/svg" xmlns:xlink="http://www.w3.org/1999/xlink">
    <title>DaoCloud logo / @Color_Light</title>
    <g id="DaoCloud_logo" stroke="none" stroke-width="1" fill="none" fill-rule="evenodd">
        <g id="Artboard" transform="translate(-1919, -336)">
            <g id="DaoCloud-logo-/-@Color_Light" transform="translate(1919, 336)">
                <rect id="矩形" x="0" y="0" width="427" height="108"></rect>
                <g id="-DaoCloud-logo-/-cube">
                    <rect id="矩形" x="0" y="0" width="108" height="108"></rect>
                    <path d="M69.5,69.35 L67.8,94.25 L54,104.65 L40,94.25 L38.4,69.35 L54.1,79.75 L69.5,69.35 Z M97.5,50.55 L94.6,74.05 L75.2,88.65 L76.9,64.45 L97.5,50.55 Z M10.3,50.55 L31,64.45 L32.6,88.65 L13.1,74.15 L10.3,50.55 Z M22.5,16.95 L46.1,28.65 L29.3,36.95 L30.5,55.55 L9.2,41.45 L7.2,23.65 L22.5,16.95 Z M85.3,16.95 L100.8,23.65 L98.6,41.35 L77.5,55.55 L78.8,36.95 L61.9,28.65 L85.3,16.95 Z M53.9,3.35 L76.9,13.35 L54,24.65 L30.9,13.25 L53.9,3.35 Z" id="形状结合" fill="#0FD15D" fill-rule="nonzero"></path>
                </g>
                <g id="DaoCloud-logo-/-text" transform="translate(125, 20)">
                    <rect id="矩形" x="0" y="0" width="302" height="60"></rect>
                    <path d="M2,57.75 L2,4.15 L21.7,4.15 C32.7,4.15 39.5,10.85 39.5,21.65 L39.5,40.35 C39.5,50.95 32.7,57.85 21.7,57.85 L2,57.85 L2,57.75 Z M12.3,48.65 L21.7,48.65 C26.5,48.65 29.1,45.55 29.1,39.35 L29.1,22.45 C29.1,16.35 26.5,13.15 21.7,13.15 L12.3,13.15 L12.3,48.65 Z M239.4,58.55 C230.4,58.55 227.5,53.15 227.5,43.15 L227.5,18.55 L237.2,18.55 L237.2,42.25 C237.2,47.85 238.3,50.25 242.1,50.25 C245.3,50.25 248.1,48.25 249.4,45.85 L249.4,18.65 L259.1,18.65 L259.1,57.85 L250.7,57.85 L249.9,54.15 C247.1,56.65 243.1,58.55 239.4,58.55 Z M186.4,33.65 C186.4,23.75 192.7,17.75 202.8,17.75 C212.9,17.75 219.2,23.75 219.2,33.65 L219.2,42.55 C219.3,52.45 212.9,58.45 202.8,58.45 C192.6,58.45 186.4,52.45 186.4,42.55 L186.4,33.65 Z M196,41.75 C196,47.25 198.4,50.15 202.8,50.15 C207.1,50.15 209.5,47.25 209.5,41.75 L209.5,34.55 C209.5,29.05 207.1,26.15 202.8,26.15 C198.4,26.15 196.1,29.05 196.1,34.55 L196,41.75 Z M168.3,57.75 L168.3,1.15 L178,1.15 L178,57.75 L168.3,57.75 Z M146.6,58.85 C136,58.85 128.2,52.15 128.2,41.55 L128.2,21.15 C128.2,10.55 136,3.95 146.6,3.95 C153.3,3.95 157.3,5.85 161.8,9.05 L157.9,16.15 C154.1,14.05 151.6,12.85 146.6,12.85 C141.6,12.85 138.4,16.35 138.4,22.15 L138.4,40.75 C138.4,46.75 141.7,50.05 146.6,50.05 C151.6,50.05 154.1,48.85 157.9,46.75 L161.8,53.95 C157.3,56.95 153.3,58.85 146.6,58.85 Z M87.2,33.35 C87.2,23.35 93.6,17.15 103.9,17.15 C114.2,17.15 120.5,23.25 120.5,33.35 L120.5,42.35 C120.6,52.35 114.1,58.55 103.9,58.55 C93.6,58.55 87.2,52.45 87.2,42.35 L87.2,33.35 Z M97,41.55 C97,47.15 99.5,50.05 103.9,50.05 C108.3,50.05 110.7,47.15 110.7,41.55 L110.7,34.15 C110.7,28.55 108.2,25.65 103.9,25.65 C99.5,25.65 97.1,28.55 97.1,34.15 L97,41.55 Z M79.1,57.75 L70.7,57.75 L70.2,53.95 C67.9,56.65 63.6,58.55 58.9,58.55 C51.3,58.55 45.6,53.15 45.6,46.55 C45.6,29.65 69,29.45 69,29.45 C69,28.15 67.1,24.15 58.7,24.15 C56.7,24.15 54.7,24.55 51.4,25.45 L49.5,20.15 C53.4,18.45 57.9,17.05 62.8,17.05 C73.2,17.05 79.2,21.35 79.2,31.25 L79.2,57.75 L79.1,57.75 Z M60.9,50.85 C64.2,50.85 67.3,48.95 69.1,46.25 L69.1,35.35 C67.5,35.35 55.4,36.35 55.4,45.55 C55.5,48.25 57.3,50.85 60.9,50.85 Z M291.6,54.45 C289,56.85 285.3,58.55 281,58.55 C272.2,58.55 267.6,52.55 267.6,42.65 L267.6,33.05 C267.6,23.05 272,17.85 280.7,17.85 C283.9,17.85 287.1,18.35 290.3,19.65 L290.3,1.25 L300,1.25 L300,57.85 L292.1,57.85 L291.6,54.45 Z M290.3,27.85 C287.9,26.75 285.4,26.35 282.9,26.35 C279.2,26.35 277.2,28.65 277.2,33.75 L277.2,41.75 C277.2,47.25 278.7,50.15 283.1,50.15 C286.5,50.15 289,48.65 290.3,46.15 L290.3,27.85 Z" id="形状结合" fill="#FFFFFF" fill-rule="nonzero"></path>
                </g>
            </g>
        </g>
    </g>
</svg>