<?xml version="1.0" encoding="UTF-8"?>
<svg width="108px" height="108px" viewBox="0 0 108 108" version="1.1" xmlns="http://www.w3.org/2000/svg" xmlns:xlink="http://www.w3.org/1999/xlink">
    <title> DaoCloud logo / element / cube@Color</title>
    <g id="DaoCloud_logo" stroke="none" stroke-width="1" fill="none" fill-rule="evenodd">
        <g id="Artboard" transform="translate(-2593, -128)">
            <g id="-DaoCloud-logo-/-element-/-cube@Color" transform="translate(2593, 128)">
                <rect id="矩形" x="0" y="0" width="108" height="108"></rect>
                <path d="M69.5,69.35 L67.8,94.25 L54,104.65 L40,94.25 L38.4,69.35 L54.1,79.75 L69.5,69.35 Z M97.5,50.55 L94.6,74.05 L75.2,88.65 L76.9,64.45 L97.5,50.55 Z M10.3,50.55 L31,64.45 L32.6,88.65 L13.1,74.15 L10.3,50.55 Z M22.5,16.95 L46.1,28.65 L29.3,36.95 L30.5,55.55 L9.2,41.45 L7.2,23.65 L22.5,16.95 Z M85.3,16.95 L100.8,23.65 L98.6,41.35 L77.5,55.55 L78.8,36.95 L61.9,28.65 L85.3,16.95 Z M53.9,3.35 L76.9,13.35 L54,24.65 L30.9,13.25 L53.9,3.35 Z" id="形状结合" fill="#0FD15D" fill-rule="nonzero"></path>
            </g>
        </g>
    </g>
</svg>