<?xml version="1.0" encoding="UTF-8"?>
<svg width="20px" height="20px" viewBox="0 0 20 20" version="1.1" xmlns="http://www.w3.org/2000/svg" xmlns:xlink="http://www.w3.org/1999/xlink">
    <title>OpenSource / Cloudtty</title>
    <g id="OpenSource-/-Cloudtty" stroke="none" stroke-width="1" fill="none" fill-rule="evenodd">
        <g id="Cloudtty">
            <rect id="Frame" x="0" y="0" width="20" height="20"></rect>
            <path d="M9.73139244,2.61 C12.1467914,2.61 14.309054,4.05323424 15.2117656,6.16758816 L15.2956944,6.378 L15.489423,6.40013573 C17.9363738,6.79367986 19.7382015,8.74547654 19.9326055,11.3072248 L19.9460923,11.5491467 L19.95,11.7697198 C19.95,14.4388809 18.3057051,16.5112336 15.7800346,17.1771386 L15.5917567,17.2267789 L15.592085,15.4766559 L15.592085,15.3744202 L15.6913503,15.3355245 C17.2251916,14.7842415 18.16516,13.4930691 18.16516,11.7697198 C18.16516,9.49058988 16.4203639,7.9505362 14.2454574,8.12672419 L14.0197452,8.15101333 L13.850182,8.17120361 L13.850182,8.01318627 L13.8476854,7.98090832 C13.6875675,6.03400227 11.9040044,4.39484 9.73397767,4.39484 C7.32031484,4.39484 5.32585598,6.19323126 5.3299803,8.67546985 L5.3299803,8.84 L5.16966073,8.82536366 C3.43854287,8.70598244 1.84325622,10.12935 1.83490027,12.0083904 C1.82743663,13.7216325 2.69180401,14.946814 4.10780379,15.4143464 L4.21079126,15.4468536 L4.21077427,15.5567817 L4.21079126,17.2879428 L4.02691636,17.2453191 C1.60895889,16.6848169 0.0384691379,14.6619317 0.0496346163,12.0004902 C0.0598132198,9.80772293 1.48121857,7.92141648 3.48713048,7.26912515 L3.7178761,7.2 L3.74859166,7.08156209 C4.40989522,4.58460528 6.6155795,2.82172323 9.25203517,2.62771409 L9.50848342,2.61386466 L9.73139244,2.61 Z" id="Path" fill="#33DE72" fill-rule="nonzero"></path>
            <path d="M12.0288954,8.105424 L13.3509507,9.59142475 L10.3189997,9.59142475 L10.3189997,16.1884764 L8.82038928,16.1884764 L8.82038928,9.59142475 L7.58574687,9.59142475 L6.26369154,8.105424 L12.0288954,8.105424 Z M7.02908969,11.075104 L8.28632604,12.5611048 L7.02908969,12.5611048 L7.02908969,16.1884764 L5.53220972,16.1884764 L5.53220972,12.5611048 L4.59690593,12.5611048 L3.26878133,11.075104 L7.02908969,11.075104 Z M17.1061375,9.887232 L14.1757319,13.2378021 L14.1757319,16.1884764 L12.7605881,16.1884764 L12.7605881,13.2378021 L10.9899493,10.8958748 L12.7605881,10.8958748 L13.5149309,11.8564855 L15.1903334,9.887232 L17.1061375,9.887232 Z" id="TTY" fill="#000000"></path>
        </g>
    </g>
</svg>