<?xml version="1.0" encoding="UTF-8"?>
<svg width="20px" height="20px" viewBox="0 0 20 20" version="1.1" xmlns="http://www.w3.org/2000/svg" xmlns:xlink="http://www.w3.org/1999/xlink">
    <title>OpenSource / Huameistor @dark</title>
    <g id="OpenSource-/-Huameistor-@dark" stroke="none" stroke-width="1" fill="none" fill-rule="evenodd">
        <g id="Huameistor">
            <polygon id="Frame" points="0 0 20 0 20 20 0 20"></polygon>
            <g id="body" transform="translate(1, 4)" fill="#1B1C1D">
                <path d="M0,6.68904851 C0.49680473,6.41823512 0.978554772,6.16246692 1.46030481,5.92174391 C1.50546888,5.89165353 1.65601577,5.99696985 1.71623452,6.07219579 C2.78511743,7.45635312 4.8325551,7.44130793 5.88638332,6.32796399 C6.38318805,5.8013824 6.7143912,5.12434892 7.09075842,4.49245101 C7.70800066,3.40919745 8.24996946,2.28080832 9.18336016,1.4081874 C10.3124618,0.324933837 11.6673838,-0.0662410598 13.2029621,0.00898488197 C14.5729388,0.0842108237 15.7472045,0.640882793 16.6354311,1.69404598 C17.3580562,2.55162171 17.7645328,3.55964933 17.945189,4.65794808 C17.9602437,4.71812884 17.9602437,4.77830959 17.9602437,4.83849034 C18.0505719,5.65093051 18.0505719,5.65093051 17.2526734,5.65093051 C16.2741186,5.65093051 16.3192827,5.63588533 16.1386264,4.67299327 C15.867642,3.33397151 15.1600716,2.23567276 13.7900949,1.87458824 C12.5104464,1.54359409 11.2458525,1.75422673 10.2371884,2.89766105 C9.4091805,3.83046272 8.89732108,4.92876147 8.34029759,6.01201504 C7.54239909,7.53157906 6.38318805,8.52456149 4.65189884,8.82546526 C2.98082838,9.12636902 0.843062572,8.32897404 0,6.68904851 Z M9.36401643,12 C6.80471933,12 4.24542224,12 1.68612514,12 C1.4753595,12 1.35492199,11.9699096 1.36997668,11.7141414 C1.38503137,11.3229665 1.38503137,10.9317916 1.36997668,10.5556619 C1.35492199,10.2998937 1.44525012,10.2096226 1.71623452,10.2096226 C4.1701488,10.2096226 6.62406307,10.1945774 9.07797734,10.1945774 C11.6974932,10.1945774 14.317009,10.1945774 16.9365249,10.1945774 C17.4182749,10.1945774 17.4182749,10.1945774 17.4182749,10.6910686 C17.4182749,10.9769272 17.4032202,11.2627858 17.4182749,11.5486443 C17.4483843,11.8645933 17.3430015,11.9849548 17.0117983,11.9849548 C14.4525012,11.9699096 11.8932041,11.9849548 9.33390705,11.9849548 C9.36401643,11.9849548 9.36401643,12 9.36401643,12 Z" id="Combined-Shape" fill-rule="nonzero"></path>
                <ellipse id="Oval" opacity="0.75" cx="12.7964855" cy="4.95132926" rx="1.12910166" ry="1.12838913"></ellipse>
            </g>
        </g>
    </g>
</svg>