<?xml version="1.0" encoding="UTF-8"?>
<svg width="20px" height="20px" viewBox="0 0 20 20" version="1.1" xmlns="http://www.w3.org/2000/svg" xmlns:xlink="http://www.w3.org/1999/xlink">
    <title>OpenSource / Huameistor @on-dark-bg</title>
    <g id="OpenSource-/-Huameistor-@on-dark-bg" stroke="none" stroke-width="1" fill="none" fill-rule="evenodd">
        <g id="Huameistor">
            <rect id="Frame" x="0" y="0" width="20" height="20"></rect>
            <ellipse id="Oval" fill="#FFFFFF" cx="13.7964855" cy="8.95132926" rx="1.12910166" ry="1.12838913"></ellipse>
            <path d="M1,10.6890485 C1.49680473,10.4182351 1.97855477,10.1624669 2.46030481,9.92174391 C2.50546888,9.89165353 2.65601577,9.99696985 2.71623452,10.0721958 C3.78511743,11.4563531 5.8325551,11.4413079 6.88638332,10.327964 C7.38318805,9.8013824 7.7143912,9.12434892 8.09075842,8.49245101 C8.70800066,7.40919745 9.24996946,6.28080832 10.1833602,5.4081874 C11.3124618,4.32493384 12.6673838,3.93375894 14.2029621,4.00898488 C15.5729388,4.08421082 16.7472045,4.64088279 17.6354311,5.69404598 C18.3580562,6.55162171 18.7645328,7.55964933 18.945189,8.65794808 C18.9602437,8.71812884 18.9602437,8.77830959 18.9602437,8.83849034 C19.0505719,9.65093051 19.0505719,9.65093051 18.2526734,9.65093051 C17.2741186,9.65093051 17.3192827,9.63588533 17.1386264,8.67299327 C16.867642,7.33397151 16.1600716,6.23567276 14.7900949,5.87458824 C13.5104464,5.54359409 12.2458525,5.75422673 11.2371884,6.89766105 C10.4091805,7.83046272 9.89732108,8.92876147 9.34029759,10.012015 C8.54239909,11.5315791 7.38318805,12.5245615 5.65189884,12.8254653 C3.98082838,13.126369 1.84306257,12.328974 1,10.6890485 Z M10.3640164,16 C7.80471933,16 5.24542224,16 2.68612514,16 C2.4753595,16 2.35492199,15.9699096 2.36997668,15.7141414 C2.38503137,15.3229665 2.38503137,14.9317916 2.36997668,14.5556619 C2.35492199,14.2998937 2.44525012,14.2096226 2.71623452,14.2096226 C5.1701488,14.2096226 7.62406307,14.1945774 10.0779773,14.1945774 C12.6974932,14.1945774 15.317009,14.1945774 17.9365249,14.1945774 C18.4182749,14.1945774 18.4182749,14.1945774 18.4182749,14.6910686 C18.4182749,14.9769272 18.4032202,15.2627858 18.4182749,15.5486443 C18.4483843,15.8645933 18.3430015,15.9849548 18.0117983,15.9849548 C15.4525012,15.9699096 12.8932041,15.9849548 10.3339071,15.9849548 C10.3640164,15.9849548 10.3640164,16 10.3640164,16 Z" id="Combined-Shape" fill="#33DE72" fill-rule="nonzero"></path>
        </g>
    </g>
</svg>