<?xml version="1.0" encoding="UTF-8"?>
<svg width="20px" height="20px" viewBox="0 0 20 20" version="1.1" xmlns="http://www.w3.org/2000/svg" xmlns:xlink="http://www.w3.org/1999/xlink">
    <title>OpenSource / Merbridge @white</title>
    <g id="OpenSource-/-Merbridge-@white" stroke="none" stroke-width="1" fill="none" fill-rule="evenodd">
        <g id="merbridge">
            <rect id="Frame" x="0" y="0" width="20" height="20"></rect>
            <path d="M17.1875,3.76 L17.1875,18.1326953 L15.3125,16.2576953 L15.3125,8.28664062 L13.59375,10.0053906 L13.59375,7.35375 L17.1875,3.76 Z M10,10.9475 C8.6484375,9.5959375 4.08101562,5.02851562 2.8125,3.76 L2.8125,18.1326953 L4.6875,16.2576953 L4.6875,8.28664062 L10,13.5991406 L11.71875,11.8803906 L11.71875,9.22875 L10,10.9475 Z" id="Primary" fill="#FFFFFF" fill-rule="nonzero"></path>
            <path d="M8.28125,15.326875 L6.40625,17.201875 L6.40625,10.0120703 L8.28125,11.8870703 L8.28125,15.326875 Z M8.28125,9.23542969 L8.28125,2.28 L6.40625,4.155 L6.40625,7.36042969 L8.28125,9.23542969 Z M11.71875,2.28 L11.71875,15.326875 L13.59375,17.201875 L13.59375,4.155 L11.71875,2.28 Z" id="Secondary" fill="#FFFFFF" fill-rule="nonzero" opacity="0.66"></path>
        </g>
    </g>
</svg>