<?xml version="1.0" encoding="UTF-8"?>
<svg width="20px" height="20px" viewBox="0 0 20 20" version="1.1" xmlns="http://www.w3.org/2000/svg" xmlns:xlink="http://www.w3.org/1999/xlink">
    <title>OpenSource / Spidernet @dark</title>
    <g id="OpenSource-/-Spidernet-@dark" stroke="none" stroke-width="1" fill="none" fill-rule="evenodd">
        <g id="spidernet">
            <rect id="Frame" x="0" y="0" width="20" height="20"></rect>
            <path d="M10,2.79007812 L16.2439844,6.39503906 L16.2439844,13.6049609 L10,17.2099219 L3.75601562,13.6049609 L3.75601562,6.39503906 L10,2.79007812 M10,0.625 L1.88101562,5.3125 L1.88101562,14.6875 L10,19.375 L18.1189844,14.6875 L18.1189844,5.3125" id="Primary" fill="#1B1C1D" fill-rule="nonzero"></path>
            <path d="M9.99686994,10.6 L12.1787596,11.9291473 L12.1787596,14.4696899 L10.9114893,15.757856 L10.9114893,12.551282 L10,12.023642 L9.09638655,12.551282 L9.09638655,15.757856 L7.81498034,14.4696899 L7.81498034,11.9291473 L9.99686994,10.6 Z M11.212869,4.40849835 L12.4555527,5.73569249 L12.4555527,7.84955211 L11.1454826,8.58076572 L12.2872765,9.20180112 L13.6191038,8.48423239 L13.6191038,5.73569249 L14.9238915,7.31656458 L14.9238915,9.00364999 L13.3934374,9.87501019 L15,10.6581196 L15,12.6777814 L13.5550079,14.2540783 L13.5550079,11.3196946 L9.99785634,9.36122104 L6.46370277,11.3196946 L6.46370277,14.2540783 L5,12.6777814 L5,10.6581196 L6.62590344,9.87501019 L5.06645802,9.00364999 L5.06645802,7.31656458 L6.38631351,5.73569249 L6.38631351,8.48423239 L7.69901501,9.20180112 L8.87067703,8.58076572 L7.56093524,7.84955211 L7.56093524,5.73569249 L8.79188658,4.40849835 L8.79188658,7.31656458 L10,8.05179645 L11.212869,7.31656458 L11.212869,4.40849835 Z" id="Combined-Shape" fill="#1B1C1D" opacity="0.75"></path>
        </g>
    </g>
</svg>