<?xml version="1.0" encoding="UTF-8"?>
<svg width="50px" height="50px" viewBox="0 0 50 50" version="1.1" xmlns="http://www.w3.org/2000/svg" xmlns:xlink="http://www.w3.org/1999/xlink">
    <title>insight</title>
    <g id="insight" stroke="none" stroke-width="1" fill="none" fill-rule="evenodd">
        <path d="M41.9553571,8.04464286 C38.3392857,4.42857143 33.2767857,2.5 28.2142857,2.5 L28.2142857,14.5535714 C28.2142857,18.6517857 31.3482143,21.7857143 35.4464286,21.7857143 L47.5,21.7857143 C47.5,16.7232143 45.5714286,11.6607143 41.9553571,8.04464286 Z" id="Path" fill="#203548" fill-rule="nonzero"></path>
        <circle id="Oval" fill="#203548" fill-rule="nonzero" cx="23.3928571" cy="26.6071429" r="4.82142857"></circle>
        <path d="M23.6941662,47.5 C11.9196294,47.5 2.5,38.0803706 2.5,26.3058338 C2.5,16.6507137 8.85824985,8.40853797 18.2778793,5.81813989 C20.1618051,5.34715842 22.045731,6.52461209 22.5167125,8.40853797 C22.987694,10.2924639 21.8102403,12.1763897 19.9263144,12.6473712 C13.8035553,14.2958064 9.56472205,19.947584 9.56472205,26.3058338 C9.56472205,34.0770281 15.9229719,40.4352779 23.6941662,40.4352779 C30.052416,40.4352779 35.7041936,36.1964447 37.3526288,30.0736856 C37.8236103,28.1897597 39.7075361,27.012306 41.591462,27.4832875 C43.4753879,27.954269 44.6528416,29.8381949 44.1818601,31.7221207 C41.591462,41.1417502 33.3492863,47.5 23.6941662,47.5 Z" id="Path" fill="#203548" fill-rule="nonzero"></path>
    </g>
</svg>