<?xml version="1.0" encoding="UTF-8"?>
<svg width="20px" height="20px" viewBox="0 0 20 20" version="1.1" xmlns="http://www.w3.org/2000/svg" xmlns:xlink="http://www.w3.org/1999/xlink">
    <title>Arm</title>
    <g id="Arm" stroke="none" stroke-width="1" fill="none" fill-rule="evenodd">
        <g id="arm">
            <polygon id="Frame" points="0 0 20 0 20 20 0 20"></polygon>
            <g id="arm-member" transform="translate(0, 4)">
                <polygon id="Path" points="0 0 20 0 20 12.25 0 12.25"></polygon>
                <path d="M4.63655,3.2919 L5.9584,3.2919 L5.9584,8.95345 L4.63655,8.95345 L4.63655,8.3632 C4.0546,9.0366 3.34795,9.12805 2.94055,9.12805 C1.1947,9.12805 0.19705,7.67315 0.19705,6.11855 C0.19705,4.2729 1.46075,3.14225 2.9572,3.14225 C3.3729,3.14225 4.1045,3.2503 4.63655,3.94865 L4.63655,3.2919 Z M1.5439,6.14345 C1.5439,7.12445 2.1591,7.9475 3.11515,7.9475 C3.94655,7.9475 4.71965,7.3406 4.71965,6.1601 C4.71965,4.92135 3.95485,4.3311 3.11515,4.3311 C2.1591,4.3311 1.5439,5.1375 1.5439,6.14345 Z M7.5214,3.2919 L8.84325,3.2919 L8.84325,3.799 C8.9929,3.62445 9.20905,3.4332 9.39195,3.32515 C9.64965,3.1755 9.8991,3.13395 10.19835,3.13395 C10.5226,3.13395 10.87175,3.1838 11.23755,3.39995 L10.6972,4.59715 C10.3979,4.4059 10.1568,4.3976 10.0238,4.3976 C9.7411,4.3976 9.45845,4.43915 9.20075,4.7052 C8.83495,5.09595 8.83495,5.63635 8.83495,6.01045 L8.83495,8.94515 L7.513,8.94515 L7.513,3.2919 L7.5214,3.2919 Z M12.08555,3.2919 L13.4074,3.2919 L13.4074,3.81565 C13.84805,3.27525 14.3718,3.14225 14.8041,3.14225 C15.3944,3.14225 15.9514,3.4249 16.2673,3.9736 C16.7412,3.3002 17.4478,3.14225 17.94665,3.14225 C18.63665,3.14225 19.23525,3.4665 19.5595,4.0318 C19.66755,4.223 19.8588,4.6387 19.8588,5.46175 L19.8588,8.9618 L18.5369,8.9618 L18.5369,5.84415 C18.5369,5.21235 18.4704,4.95465 18.4122,4.8382 C18.3291,4.62205 18.12955,4.3394 17.6557,4.3394 C17.33145,4.3394 17.0488,4.514 16.8742,4.7551 C16.6414,5.0793 16.6165,5.5615 16.6165,6.0437 L16.6165,8.9618 L15.2946,8.9618 L15.2946,5.84415 C15.2946,5.21235 15.2281,4.95465 15.1699,4.8382 C15.08675,4.62205 14.88725,4.3394 14.4134,4.3394 C14.08915,4.3394 13.8065,4.514 13.6319,4.7551 C13.3991,5.0793 13.37415,5.5615 13.37415,6.0437 L13.37415,8.9618 L12.08555,8.9618 L12.08555,3.2919 L12.08555,3.2919 Z" id="Shape" fill="#0091BD" fill-rule="nonzero"></path>
            </g>
        </g>
    </g>
</svg>