<?xml version="1.0" encoding="UTF-8"?>
<svg width="20px" height="20px" viewBox="0 0 20 20" version="1.1" xmlns="http://www.w3.org/2000/svg" xmlns:xlink="http://www.w3.org/1999/xlink">
    <title>Cilumn</title>
    <g id="Cilumn" stroke="none" stroke-width="1" fill="none" fill-rule="evenodd">
        <g>
            <polygon id="Frame" points="0 0 20 0 20 20 0 20"></polygon>
            <g id="cilium" transform="translate(1.5, 1)" fill-rule="nonzero">
                <polygon id="Path" fill="#CBDD72" points="1.87260536 3.53988868 4.5756705 3.53988868 5.92720307 5.94434137 4.5756705 8.34879406 1.87260536 8.34879406 0.521072797 5.94434137"></polygon>
                <polygon id="Path" fill="#98CA3F" points="1.87260536 9.71799629 4.5756705 9.71799629 5.92720307 12.1057514 4.5756705 14.4935065 1.87260536 14.4935065 0.521072797 12.1057514"></polygon>
                <polygon id="Path" fill="#6389C6" points="7.14846743 12.7569573 9.85153257 12.7569573 11.2030651 15.1447124 9.85153257 17.5324675 7.14846743 17.5324675 5.79693487 15.1447124"></polygon>
                <polygon id="Path" fill="#E8282B" points="7.14846743 6.57884972 9.85153257 6.57884972 11.2030651 8.98330241 9.85153257 11.3877551 7.14846743 11.3877551 5.79693487 8.98330241"></polygon>
                <polygon id="Path" fill="#F8C519" points="7.14846743 0.434137291 9.85153257 0.434137291 11.2030651 2.82189239 9.85153257 5.2096475 7.14846743 5.2096475 5.79693487 2.82189239"></polygon>
                <polygon id="Path" fill="#F07525" points="12.3836207 3.53988868 15.1355364 3.53988868 16.5114943 5.94434137 15.1355364 8.34879406 12.3836207 8.34879406 11.0076628 5.94434137"></polygon>
                <polygon id="Path" fill="#8162AA" points="12.3836207 9.71799629 15.1355364 9.71799629 16.5114943 12.1057514 15.1355364 14.4935065 12.3836207 14.4935065 11.0076628 12.1057514"></polygon>
                <path d="M10.0922031,6.14471243 L6.86298467,6.14471243 L5.24329502,9.00991837 L6.86298467,11.8552876 L10.0922031,11.8552876 L11.7241379,9.00884972 L10.0922031,6.14471243 Z M9.6699387,11.0920742 L7.30361686,11.0920742 L6.10006897,9.01405937 L7.29749425,6.90792579 L9.6699387,6.90792579 L10.8663544,9.01405937 L9.6699387,11.0920742 Z M10.0922031,12.2894249 L6.86298467,12.2894249 L5.24329502,15.152026 L6.86298467,18 L10.0922031,18 L11.7241379,15.152026 L10.0922031,12.2894249 Z M9.6699387,17.2353173 L7.30361686,17.2353173 L6.10006897,15.1572356 L7.29749425,13.0499332 L9.6699387,13.0499332 L10.8663544,15.1572356 L9.6699387,17.2353173 Z M10.0922031,0 L6.86298467,0 L5.24329502,2.86624119 L6.86298467,5.71057514 L10.0922031,5.71057514 L11.7241379,2.86624119 L10.0922031,0 Z M9.6699387,4.95 L7.30361686,4.95 L6.10006897,2.86624119 L7.29749425,0.761617069 L9.6699387,0.761617069 L10.8622835,2.86624119 L9.6699387,4.95 Z M15.3680651,9.21706865 L12.1378372,9.21706865 L10.5191571,12.0822412 L12.1378372,14.9276438 L15.3680651,14.9276438 L17,12.0822412 L15.3680651,9.21706865 Z M14.9406877,14.1636623 L12.5743659,14.1636623 L11.3769406,12.0864156 L12.5743659,9.9768757 L14.9406877,9.9768757 L16.1381456,12.0822412 L14.9406877,14.1636623 Z M15.3680651,3.07235622 L12.1378372,3.07235622 L10.5191571,5.95325788 L12.1378372,8.81632653 L15.3680651,8.81632653 L17,5.95325788 L15.3680651,3.07235622 Z M14.9406877,8.04970686 L12.5743659,8.04970686 L11.3769406,5.95953618 L12.5743659,3.84107978 L14.9406877,3.84107978 L16.1381456,5.95953618 L14.9406877,8.04970686 Z M4.82454789,9.21706865 L1.61154789,9.21706865 L0,12.0822412 L1.61154789,14.9276438 L4.82454789,14.9276438 L6.44827586,12.0822412 L4.82454789,9.21706865 Z M4.4003295,14.1636623 L2.0459272,14.1636623 L0.854494253,12.0864156 L2.0459272,9.9768757 L4.4003295,9.9768757 L5.59176245,12.0864156 L4.4003295,14.1636623 Z M4.82454789,3.07235622 L1.61154789,3.07235622 L0,5.95325788 L1.61154789,8.81632653 L4.82454789,8.81632653 L6.44827586,5.95325788 L4.82454789,3.07235622 Z M4.4003295,8.04970686 L2.0459272,8.04970686 L0.854494253,5.95746568 L2.0459272,3.83897588 L4.4003295,3.83897588 L5.59176245,5.95746568 L4.4003295,8.04970686 Z" id="Shape" fill="#373737"></path>
            </g>
        </g>
    </g>
</svg>