<?xml version="1.0" encoding="UTF-8"?>
<svg width="20px" height="20px" viewBox="0 0 20 20" version="1.1" xmlns="http://www.w3.org/2000/svg" xmlns:xlink="http://www.w3.org/1999/xlink">
    <title>Consul</title>
    <g id="Consul" stroke="none" stroke-width="1" fill="none" fill-rule="evenodd">
        <g>
            <rect id="Frame" x="0" y="0" width="20" height="20"></rect>
            <path d="M16.3769863,3.1697976 L14.1812233,5.47374066 C11.7391078,3.2718624 7.99145399,3.40104439 5.7067527,5.76585648 C3.42205141,8.13066856 3.42205141,11.8805481 5.7067527,14.2453602 C7.99145399,16.6101723 11.7391078,16.7393543 14.1812233,14.537476 L16.3769863,16.8326477 C14.6648922,18.4121407 12.4202374,19.2880781 10.0908473,19.2857087 C5.93481412,19.287674 2.28360403,16.5278095 1.15176973,12.5288639 C0.0199354343,8.5299182 1.68315218,4.26589463 5.22374122,2.08946533 C8.76433027,-0.0869639787 13.319928,0.354303042 16.3769863,3.1697976 Z M17.5640433,13.11944 C17.9838814,13.11944 18.3242275,13.4597861 18.3242275,13.8796243 C18.3242275,14.2994625 17.9838814,14.6398085 17.5640433,14.6398085 C17.1442051,14.6398085 16.803859,14.2994625 16.803859,13.8796243 C16.803859,13.4597861 17.1442051,13.11944 17.5640433,13.11944 Z M18.4379628,10.5201946 C18.857801,10.5201946 19.198147,10.8605407 19.198147,11.2803789 C19.1965441,11.6995513 18.8571352,12.0389602 18.4379628,12.0405631 C18.0181246,12.0405631 17.6777785,11.7002171 17.6777785,11.2803789 C17.6777785,10.8605407 18.0181246,10.5201946 18.4379628,10.5201946 Z M10.0320792,7.98819628 C11.1430356,7.98819628 12.0436437,8.88880439 12.0436437,9.99976078 C12.0436437,11.1107172 11.1430356,12.0113253 10.0320792,12.0113253 C8.92112277,12.0113253 8.02051467,11.1107172 8.02051467,9.99976078 C8.02051467,8.88880439 8.92112277,7.98819628 10.0320792,7.98819628 Z M16.1752451,10.4324811 C16.5950833,10.4324811 16.9354294,10.7728271 16.9354294,11.1926653 C16.9354294,11.6125035 16.5950833,11.9528496 16.1752451,11.9528496 C15.7554069,11.9528496 15.4150608,11.6125035 15.4150608,11.1926653 C15.4150608,10.7728271 15.7554069,10.4324811 16.1752451,10.4324811 Z M16.1752451,8.04959578 C16.5950833,8.04959578 16.9354294,8.38994187 16.9354294,8.80978004 C16.9354294,9.22961821 16.5950833,9.5699643 16.1752451,9.5699643 C15.7554069,9.5699643 15.4150608,9.22961821 15.4150608,8.80978004 C15.4150608,8.38994187 15.7554069,8.04959578 16.1752451,8.04959578 Z M18.4379628,7.96188221 C18.857801,7.96188221 19.198147,8.3022283 19.198147,8.72206647 C19.1965441,9.14123888 18.8571352,9.48064776 18.4379628,9.48225073 C18.0181246,9.48225073 17.6777785,9.14190464 17.6777785,8.72206647 C17.6777785,8.3022283 18.0181246,7.96188221 18.4379628,7.96188221 Z M17.6076077,5.40356981 C18.0274458,5.40356981 18.3677919,5.74391589 18.3677919,6.16375407 C18.3677919,6.58359224 18.0274458,6.92393832 17.6076077,6.92393832 C17.1877695,6.92393832 16.8474234,6.58359224 16.8474234,6.16375407 C16.8474234,5.74391589 17.1877695,5.40356981 17.6076077,5.40356981 Z" id="形状结合" fill="#E03875" fill-rule="nonzero"></path>
        </g>
    </g>
</svg>