<?xml version="1.0" encoding="UTF-8"?>
<svg width="20px" height="20px" viewBox="0 0 20 20" version="1.1" xmlns="http://www.w3.org/2000/svg" xmlns:xlink="http://www.w3.org/1999/xlink">
    <title>dce</title>
    <g id="Logo-&amp;-Product-Icons" stroke="none" stroke-width="1" fill="none" fill-rule="evenodd">
        <g id="dce">
            <polygon id="Frame" points="0 0 20 0 20 20 0 20"></polygon>
            <path d="M16.4,2 C17.3333333,2 17.8666667,2.8 17.8666667,3.6 C17.8666667,4.4 17.2,5.06666667 16.4,5.06666667 L10,5.06666667 C7.2,5.06666667 5.06666667,7.33333333 5.06666667,10 C5.06666667,12.6666667 7.2,14.9333333 10,14.9333333 L16.4,14.9333333 C17.3333333,14.9333333 18,15.6 17.8666667,16.5333333 C17.8666667,17.3333333 17.2,18 16.4,18 L10,18 C5.6,18 2,14.4 2,10 C2,5.6 5.6,2 10,2 Z M16,8 C17.0666667,8 18,8.93333333 18,10 L17.99429,10.144553 C17.914876,11.1495868 17.0181818,12 16,12 L10,12 C8.93333333,12 8,11.0666667 8,10 L8.00570999,9.85544703 C8.08512397,8.85041322 8.98181818,8 10,8 Z" id="Combined-Shape" fill="#004BFF" fill-rule="nonzero"></path>
        </g>
    </g>
</svg>