<?xml version="1.0" encoding="UTF-8"?>
<svg width="20px" height="20px" viewBox="0 0 20 20" version="1.1" xmlns="http://www.w3.org/2000/svg" xmlns:xlink="http://www.w3.org/1999/xlink">
    <title>Debian</title>
    <defs>
        <linearGradient x1="-1380.60714%" y1="97.6428571%" x2="-1380.60714%" y2="1.21428571%" id="linearGradient-1">
            <stop stop-color="#EC396C" offset="0%"></stop>
            <stop stop-color="#FF709A" offset="100%"></stop>
        </linearGradient>
    </defs>
    <g id="Debian" stroke="none" stroke-width="1" fill="none" fill-rule="evenodd">
        <g>
            <rect id="Frame" x="0" y="0" width="20" height="20"></rect>
            <g id="Antu_distributor-logo-debian" transform="translate(1, 1)" fill-rule="nonzero">
                <circle id="Oval" fill="url(#linearGradient-1)" cx="9" cy="9" r="9"></circle>
                <path d="M9.4993042,15.3453128 C7.65784961,14.6828313 6.56407578,13.8697544 5.36483913,12.0552411 C5.0705564,11.5553289 4.5294262,10.4387586 4.54992006,8.9834637 C4.50202428,7.53162286 5.23565869,5.85872458 6.60483325,4.96597487 C7.92703311,4.0237175 9.63332028,4.00967114 10.6483424,4.38178451 C11.6953718,4.77047719 12.1199863,5.41799129 12.1319602,5.38713536 C12.099953,5.39519474 12.6928935,5.89395561 12.9572414,6.97967005 C13.2517544,8.02324542 12.952636,9.75209887 11.5132297,10.4613248 C10.8512087,10.8161681 9.99138729,10.8804129 9.31716208,10.6266574 C8.64293686,10.3547107 8.1543078,9.75762531 7.99058712,9.13382882 C7.63528333,7.75659487 8.68024031,6.99325587 9.14123719,6.91496469 C11.0167715,6.28955633 11.9666277,9.22455448 9.77309306,9.47324411 C10.7729175,9.80713296 11.8035978,8.78013691 11.6076396,7.73587074 C11.5680335,6.69045322 10.3024796,5.65194376 8.90659392,6.07817015 C8.5420794,6.17879734 7.99012659,6.43462528 7.55814349,7.01006545 C7.11510752,7.58205159 6.91408341,8.4784856 7.14435158,9.34982037 C7.36886305,10.2259908 8.05160819,11.0646275 9.00261575,11.4406554 C9.96329457,11.7950381 11.0328902,11.6937201 11.916199,11.2341048 C13.801865,10.3012885 14.1792746,8.02831132 13.8046283,6.77772486 C13.4739632,5.43364953 12.7437828,4.8181427 12.7815468,4.8087017 C12.7679609,4.84531434 12.2427192,4.04674431 10.9446975,3.56202981 C9.67545936,3.09919078 7.69561359,3.13188886 6.11205936,4.2429328 C4.49097141,5.28282387 3.61203779,7.32622365 3.67582207,8.97310164 C3.6539466,10.6455394 4.27728254,11.9256002 4.61738864,12.4945928 C5.98840535,14.5854278 7.55929483,15.2389289 9.49907393,15.3434707" id="Path" fill-opacity="0.85" fill="#FFFFFF"></path>
            </g>
        </g>
    </g>
</svg>