<?xml version="1.0" encoding="UTF-8"?>
<svg width="20px" height="20px" viewBox="0 0 20 20" version="1.1" xmlns="http://www.w3.org/2000/svg" xmlns:xlink="http://www.w3.org/1999/xlink">
    <title>Envoy</title>
    <g id="Envoy" stroke="none" stroke-width="1" fill="none" fill-rule="evenodd">
        <g>
            <polygon id="Frame" points="0 0 20 0 20 20 0 20"></polygon>
            <g id="envoy" transform="translate(0.8, 0.5)" fill-rule="nonzero">
                <path d="M0.718043787,15.6949372 C0.718043787,15.8495399 0.752399949,15.9869646 0.817676657,16.1140824 C0.882953365,16.2412002 0.972279386,16.3477043 1.0822191,16.4370303 C1.19215882,16.5263563 1.31584101,16.5950687 1.46013689,16.6466029 C1.60443277,16.6947015 1.75216427,16.7221865 1.90676699,16.7221865 C2.11633958,16.7221865 2.29499163,16.6740878 2.44959436,16.5778906 C2.60419708,16.4816933 2.74505735,16.3545755 2.87217515,16.1965372 L3.37721073,16.5813262 C3.00616418,17.0623125 2.48395052,17.3028056 1.81744097,17.3028056 C1.53915606,17.3028056 1.28835608,17.254707 1.06160541,17.1619453 C0.834854738,17.0691837 0.645895847,16.9386303 0.487857501,16.7702851 C0.333254772,16.6053755 0.213008205,16.4095454 0.1271178,16.1827947 C0.0412273945,15.956044 0,15.7121153 0,15.4510085 C0,15.1899016 0.0446630107,14.9459729 0.137424648,14.7192222 C0.230186286,14.4924715 0.353868469,14.2966414 0.515342431,14.1317318 C0.676816393,13.9668223 0.8692109,13.8362688 1.09252595,13.7400716 C1.31584101,13.64731 1.55633414,13.5992113 1.82087659,13.5992113 C2.13351766,13.5992113 2.39806011,13.6541812 2.61106832,13.7641209 C2.82751214,13.8740606 3.00272856,14.0149209 3.14358883,14.1901373 C3.28101348,14.3653537 3.38408196,14.5646195 3.44592305,14.7844989 C3.50776415,15.0043784 3.53868469,15.2276934 3.53868469,15.4578797 L3.53868469,15.6949372 L0.718043787,15.6949372 Z M2.82751214,15.1624167 C2.82407652,15.0146852 2.80002721,14.8772606 2.7553642,14.7535784 C2.7141368,14.6298962 2.64886009,14.5233921 2.56640531,14.4306304 C2.4805149,14.3378688 2.37744641,14.2657209 2.25032862,14.2141866 C2.12321082,14.1626524 1.97547932,14.1351675 1.80713412,14.1351675 C1.64222455,14.1351675 1.49449305,14.166088 1.3570684,14.2279291 C1.21964375,14.2897702 1.10626842,14.3687894 1.01007116,14.4684222 C0.917309527,14.5680551 0.841725971,14.6779948 0.790191727,14.7982414 C0.738657484,14.9184879 0.711172555,15.0387345 0.711172555,15.1589811 L2.82751214,15.1589811 L2.82751214,15.1624167 Z M4.11930383,13.691973 L4.78924899,13.691973 L4.78924899,14.2348003 L4.80299146,14.2348003 C4.88544625,14.0458414 5.03317774,13.8946743 5.24275033,13.7778634 C5.45232292,13.6610524 5.68938044,13.6026469 5.96422973,13.6026469 C6.13257493,13.6026469 6.29404889,13.6301319 6.45208724,13.6816661 C6.60668996,13.7332004 6.74411461,13.8156551 6.86092556,13.9221592 C6.97773651,14.032099 7.07049815,14.1695236 7.13921048,14.3413044 C7.2079228,14.5130852 7.24227896,14.7157866 7.24227896,14.9459729 L7.24227896,17.2134796 L6.5723338,17.2134796 L6.5723338,15.1314962 C6.5723338,14.9665866 6.55172011,14.8291619 6.50705709,14.712351 C6.46239408,14.59554 6.40398861,14.5027784 6.32840505,14.4306304 C6.2528215,14.3584825 6.17036671,14.3069483 6.07073384,14.2760277 C5.97453658,14.2451072 5.87490371,14.2279291 5.76839961,14.2279291 C5.63097496,14.2279291 5.50042155,14.2519784 5.3836106,14.2932058 C5.26336403,14.3378688 5.16029554,14.4100167 5.07096952,14.506214 C4.9816435,14.6024113 4.91293117,14.7260934 4.86139693,14.8738249 C4.8132983,15.0215564 4.78581338,15.1967729 4.78581338,15.4029098 L4.78581338,17.2169152 L4.11586822,17.2169152 L4.11586822,13.691973 L4.11930383,13.691973 Z M7.45528717,13.691973 L8.22830081,13.691973 L9.28303499,16.3889317 L10.2931062,13.691973 L11.0077143,13.691973 L9.62659661,17.2134796 L8.89137474,17.2134796 L7.45528717,13.691973 L7.45528717,13.691973 Z M11.0523773,15.4510085 C11.0523773,15.1933372 11.100476,14.9528441 11.1966732,14.7295291 C11.2928705,14.506214 11.4268595,14.3103839 11.5952047,14.1420387 C11.7635499,13.9736935 11.9628156,13.8397045 12.1895663,13.7435072 C12.416317,13.64731 12.6636813,13.5992113 12.9247882,13.5992113 C13.185895,13.5992113 13.4332594,13.64731 13.66001,13.7435072 C13.8867607,13.8397045 14.0860264,13.9736935 14.2543716,14.1420387 C14.4227168,14.3103839 14.5567059,14.506214 14.6529031,14.7295291 C14.7491004,14.9528441 14.797199,15.1933372 14.797199,15.4510085 C14.797199,15.7086797 14.7491004,15.9491728 14.6529031,16.1759235 C14.5567059,16.4026741 14.4227168,16.5985043 14.2543716,16.7634138 C14.0860264,16.9283234 13.8867607,17.0588768 13.66001,17.1585097 C13.4332594,17.254707 13.185895,17.3028056 12.9247882,17.3028056 C12.6636813,17.3028056 12.416317,17.254707 12.1895663,17.1585097 C11.9628156,17.0623125 11.7635499,16.931759 11.5952047,16.7634138 C11.4268595,16.5950687 11.2928705,16.4026741 11.1966732,16.1759235 C11.100476,15.9491728 11.0523773,15.7086797 11.0523773,15.4510085 Z M11.7669855,15.4510085 C11.7669855,15.6296605 11.7944704,15.7945701 11.8494403,15.9457372 C11.9044102,16.0969043 11.9799937,16.2240221 12.0796266,16.3305262 C12.1792595,16.4370303 12.299506,16.5229207 12.4438019,16.5847618 C12.5880978,16.6466029 12.7495717,16.6775234 12.9282238,16.6775234 C13.1068758,16.6775234 13.2683498,16.6466029 13.4126457,16.5847618 C13.5569415,16.5229207 13.6771881,16.4370303 13.776821,16.3305262 C13.8764539,16.2240221 13.9520374,16.0969043 14.0070073,15.9457372 C14.0619771,15.7945701 14.0894621,15.6296605 14.0894621,15.4510085 C14.0894621,15.2723564 14.0619771,15.1074468 14.0070073,14.9562797 C13.9520374,14.8051126 13.8764539,14.6779948 13.776821,14.5714907 C13.6771881,14.4649866 13.5569415,14.3825318 13.4126457,14.3172551 C13.2683498,14.255414 13.1068758,14.2244935 12.9282238,14.2244935 C12.7495717,14.2244935 12.5880978,14.255414 12.4438019,14.3172551 C12.299506,14.3790962 12.1792595,14.4649866 12.0796266,14.5714907 C11.9799937,14.6779948 11.9044102,14.8085482 11.8494403,14.9562797 C11.7910348,15.1074468 11.7669855,15.2723564 11.7669855,15.4510085 L11.7669855,15.4510085 Z M14.8487332,13.691973 L15.6217469,13.691973 L16.6661742,16.4404659 L16.6799167,16.4404659 L17.679681,13.691973 L18.3942892,13.691973 L16.7211441,17.9727508 C16.6627386,18.1273535 16.6008975,18.2647781 16.5356208,18.3918959 C16.4703441,18.5190137 16.3947605,18.6255178 16.3054345,18.7148439 C16.2161085,18.8041699 16.1096044,18.8728822 15.9824866,18.9244164 C15.8553688,18.9725151 15.7042017,19 15.5186784,19 C15.4190455,19 15.3194127,18.9931288 15.2197798,18.9828219 C15.1201469,18.9690795 15.0205141,18.9450301 14.9277524,18.9038027 L15.0102072,18.2956987 C15.1441962,18.3506685 15.2747497,18.3781535 15.4087387,18.3781535 C15.5118072,18.3781535 15.5976976,18.364411 15.6698455,18.3369261 C15.7419935,18.3094411 15.8038345,18.2716494 15.8553688,18.2166795 C15.906903,18.1651453 15.951566,18.1033042 15.9859222,18.0345918 C16.0202784,17.9658795 16.0546345,17.8868603 16.0889907,17.7975343 L16.3054345,17.2409645 L14.8487332,13.691973 L14.8487332,13.691973 Z" id="Shape" fill="#4A0D66"></path>
                <path d="M5.30802704,5.59102563 L5.32864074,6.52551324 L6.31122697,7.13361731 L6.29061327,6.1991297 L5.30802704,5.59102563 Z M7.70608715,9.46983633 L7.68547345,8.55596242 L6.82313379,8.02344191 C6.80939132,8.01657067 6.79908447,8.00626382 6.78534201,7.99939259 L6.8059557,8.91670212 L7.70608715,9.46983633 Z M4.63808188,10.7032225 L2.39118888,9.30836237 L2.33621902,6.96870773 L3.43905182,6.49459269 L3.41843813,5.56010509 L1.65940263,6.31937627 C1.5254136,6.37778174 1.44295881,6.50146393 1.44639442,6.64575981 L1.51167113,9.44922263 C1.51510675,9.59351851 1.60443277,9.73437878 1.74185742,9.8237048 L4.43881614,11.4934143 C4.56593394,11.5724334 4.71710105,11.5930471 4.84421885,11.5518197 C4.85796132,11.5483841 4.87170378,11.5415129 4.88201063,11.5380773 L6.53797764,10.8234691 L5.64128181,10.2668993 L4.63808188,10.7032225 Z" id="Shape" fill="#B31AAB"></path>
                <path d="M11.9009745,5.53605577 C11.8975389,5.36771058 11.7944704,5.202801 11.6329965,5.09973251 L8.35885423,3.06928334 L8.25922136,3.11394635 L8.28327067,4.09653258 L10.8737253,5.70096535 L10.9355664,8.32921175 L11.9284595,8.94418705 L11.9834293,8.92013774 L11.9009745,5.53605577 Z M7.98093645,10.1466527 L4.9404161,8.26393504 L4.86483255,5.09973251 L6.24938588,4.50193529 L6.22533657,3.41284496 L4.07464082,4.34046133 C3.91660248,4.40917366 3.82040522,4.55346954 3.82727645,4.72181473 L3.91660248,8.43228023 C3.92003809,8.60062543 4.02310658,8.76553501 4.18458054,8.86516788 L7.75075016,11.0742691 C7.89848166,11.1635951 8.07369808,11.19108 8.2248652,11.1429814 C8.23860766,11.1395458 8.25578574,11.1326746 8.26952821,11.1258033 L10.3755609,10.2188007 L9.32082677,9.5694692 L7.98093645,10.1466527 L7.98093645,10.1466527 Z" id="Shape" fill="#D163CE"></path>
                <path d="M16.5356208,2.93872992 L11.9662512,0.10434655 C11.7979061,0.00127806379 11.5952047,-0.0262068659 11.4234239,0.0253273772 C11.4062458,0.0321986096 11.3890677,0.0356342259 11.3753253,0.0425054583 L6.91589542,1.96645053 C6.73380776,2.04546971 6.62730366,2.21037928 6.63065862,2.40277379 L6.74411461,7.15766662 C6.74755023,7.35006113 6.86436118,7.53902002 7.04988446,7.65583097 L11.619254,10.4867787 C11.7875992,10.5898472 11.9868649,10.6207678 12.1586458,10.5657979 C12.1758238,10.5589267 12.1930019,10.555491 12.21018,10.5451842 L16.6696098,8.62467474 C16.8516975,8.54565557 16.9582016,8.38074599 16.9548466,8.18835148 L16.8413906,3.43345865 C16.837955,3.24449976 16.7211441,3.05554087 16.5356208,2.93872992 L16.5356208,2.93872992 Z M11.8906677,9.42860893 L7.91909536,6.96870773 L7.81946249,2.83566143 L11.6948376,1.16595196 L15.6664099,3.62585316 L15.7626072,7.75889946 L11.8906677,9.42860893 L11.8906677,9.42860893 Z" id="Shape" fill="#E13EAF"></path>
            </g>
        </g>
    </g>
</svg>