<?xml version="1.0" encoding="UTF-8"?>
<svg width="20px" height="20px" viewBox="0 0 20 20" version="1.1" xmlns="http://www.w3.org/2000/svg" xmlns:xlink="http://www.w3.org/1999/xlink">
    <title>Grafana</title>
    <defs>
        <path d="M8.01657458,2.1689759 C8.01657458,2.1689759 8.0097052,2.19663655 8.00087313,2.24337349 C7.91942182,2.26626506 7.83797052,2.28820281 7.75651922,2.31395582 C7.64366501,2.34733936 7.53277347,2.3873996 7.41991926,2.42650602 C7.30902773,2.4684739 7.19617351,2.51044177 7.08626332,2.55813253 C6.86448026,2.65065261 6.64465987,2.75461847 6.4297462,2.87193775 C6.2217019,2.98544177 6.01660164,3.11039157 5.81738941,3.24583333 C5.78893053,3.23247992 5.76635968,3.22294177 5.76635968,3.22294177 C3.7320398,2.46752008 1.92539103,3.37650602 1.92539103,3.37650602 C1.76052574,5.47966867 2.73794137,6.80547189 2.93126555,7.04583333 C2.88317984,7.17555221 2.83803816,7.30717871 2.79682183,7.43975904 C2.64667666,7.91666667 2.53382245,8.4059739 2.46414724,8.91149598 C2.45433383,8.98398594 2.44550176,9.05742972 2.43666969,9.13087349 C0.557401685,10.0331827 5.57827772e-16,11.8826305 5.57827772e-16,11.8826305 C1.56916425,13.6366968 3.39838386,13.7454317 3.39838386,13.7454317 C3.40034655,13.7444779 3.40132789,13.7425703 3.40329057,13.7416165 C3.63586838,14.1450803 3.90475582,14.5294679 4.20799018,14.8871486 C4.33458317,15.0368976 4.46804555,15.1818775 4.60641463,15.3220884 C4.03429283,16.9120984 4.68688459,18.2350402 4.68688459,18.2350402 C6.43367156,18.2989458 7.58085918,17.4920181 7.82226907,17.3060241 C7.99596642,17.363253 8.1726078,17.4138052 8.35023052,17.4586345 C8.88702404,17.5931225 9.436575,17.6722892 9.98612596,17.6951807 C10.1235137,17.7009036 10.2609014,17.7037651 10.3973078,17.7028112 L10.464039,17.7028112 L10.507218,17.7018574 L10.593576,17.698996 L10.6789527,17.6951807 L10.6809154,17.6980422 C11.5032791,18.8388052 12.9507571,19 12.9507571,19 C13.9801838,17.9450803 14.0390643,16.898745 14.0390643,16.6726908 L14.0390643,16.6574297 C14.0390643,16.6383534 14.0380829,16.6259538 14.0380829,16.6259538 C14.0371016,16.609739 14.0371016,16.5944779 14.0351389,16.5773092 C14.2510339,16.4304217 14.4571155,16.2720884 14.6524024,16.1023092 C15.0645656,15.7398594 15.4247177,15.3278112 15.7230454,14.8823795 C15.7515043,14.8404116 15.7789818,14.7984438 15.8054781,14.7555221 C16.9703298,14.8203815 17.7917122,14.0544679 17.7917122,14.0544679 C17.5983881,12.8745984 16.9065427,12.2994478 16.7622855,12.1907129 C16.7622855,12.1907129 16.7563975,12.1859438 16.7475654,12.1802209 C16.7397147,12.174498 16.7338266,12.1706827 16.7338266,12.1706827 C16.7269572,12.1659137 16.7181252,12.1601908 16.7083118,12.1544679 C16.7151812,12.0829317 16.7220505,12.0123494 16.7259759,11.9417671 C16.734808,11.8149096 16.737752,11.6870984 16.7387333,11.5611948 L16.737752,11.4667671 L16.7367707,11.4190763 L16.7367707,11.3952309 C16.7367707,11.3628012 16.7357893,11.3752008 16.7357893,11.3628012 L16.731864,11.2836345 L16.7259759,11.1768072 C16.7240132,11.1396084 16.7210692,11.1081325 16.7181252,11.074749 C16.7151812,11.0423193 16.7122371,11.0089357 16.7083118,10.976506 L16.6965357,10.8782631 L16.6827969,10.7809739 C16.6631701,10.651255 16.6376552,10.52249 16.6072336,10.3956325 C16.4855474,9.887249 16.2814284,9.40461847 16.0115597,8.97063253 C15.7416909,8.53664659 15.4060723,8.15225904 15.028256,7.82891566 C14.6504397,7.50461847 14.2265004,7.24422691 13.7819529,7.04964859 C13.3374055,6.85507028 12.8702871,6.73012048 12.4051315,6.67289157 C12.1725537,6.64332329 11.9409572,6.63187751 11.7113234,6.63473896 L11.6259468,6.63664659 L11.6043573,6.6376004 C11.5984692,6.6376004 11.571973,6.63855422 11.574917,6.63855422 L11.5395888,6.64046185 L11.4542121,6.64618474 C11.4218278,6.64809237 11.3884622,6.65095382 11.3600034,6.65381526 C11.2422424,6.66526104 11.1254629,6.68052209 11.0096646,6.70150602 C10.5484343,6.78544177 10.1127189,6.94759036 9.72901462,7.17078313 C9.34531029,7.3939759 9.01165435,7.67344378 8.7398229,7.99011044 C8.46897278,8.30582329 8.25798447,8.65587349 8.112746,9.01832329 C7.96750753,9.38077309 7.88605623,9.75466867 7.86348539,10.1180723 C7.85759734,10.2086847 7.85563466,10.2992972 7.85759734,10.3889558 C7.85759734,10.4108936 7.85857868,10.4337851 7.85956002,10.4557229 L7.86250405,10.5282129 C7.86544807,10.5720884 7.86937343,10.61501 7.8732988,10.6579317 C7.89194428,10.8420181 7.92629121,11.0184739 7.97732094,11.1892068 C8.07839907,11.5297189 8.24130167,11.8378012 8.44149523,12.0991466 C8.6416888,12.3614458 8.881136,12.5779618 9.13530332,12.7467871 C9.38947063,12.9156124 9.66130209,13.036747 9.93018952,13.114006 C10.2000583,13.1912651 10.4679644,13.2246486 10.720169,13.2236948 C10.7515719,13.2236948 10.7829748,13.222741 10.8143778,13.2217871 C10.8310606,13.2217871 10.8477434,13.2198795 10.8644261,13.2198795 L10.9144745,13.2170181 C10.9409707,13.2141566 10.9684483,13.212249 10.9949445,13.2093876 C11.0008325,13.2093876 11.0096646,13.2074799 11.0175153,13.2065261 L11.0420489,13.2036647 C11.0587317,13.201757 11.0744331,13.1988956 11.0911159,13.196988 C11.1244815,13.1931727 11.1529404,13.186496 11.1823806,13.1817269 C11.2118209,13.176004 11.2412611,13.1702811 11.2707013,13.1626506 C11.3286004,13.150251 11.3845369,13.1330823 11.4404733,13.1168675 C11.5503835,13.0815763 11.6534243,13.0386546 11.7495957,12.9909639 C11.8457671,12.9432731 11.9340878,12.8889056 12.0165205,12.8326305 C12.0400727,12.8164157 12.0626435,12.799247 12.0852143,12.7820783 C12.173535,12.7153112 12.1872738,12.5894076 12.1166173,12.5054719 C12.0547928,12.4320281 11.9488079,12.4129518 11.8644126,12.4587349 C11.8438045,12.4701807 11.822215,12.4806727 11.8006255,12.4911647 C11.7270249,12.525502 11.6504803,12.5579317 11.569029,12.5836847 C11.4875777,12.6084839 11.4031824,12.6294679 11.3148617,12.6447289 C11.2707013,12.6504518 11.226541,12.6571285 11.1813993,12.6609438 C11.1588284,12.6638052 11.1362576,12.664759 11.1127054,12.664759 C11.0901346,12.6657129 11.0656011,12.6676205 11.0449929,12.6666667 C11.0234034,12.6666667 11.0018139,12.6657129 10.979243,12.6657129 C10.9517655,12.664759 10.9242879,12.6628514 10.8968104,12.6618976 C10.8968104,12.6618976 10.8830716,12.6618976 10.8938664,12.6609438 L10.8850343,12.65999 L10.8663888,12.6580823 C10.8536314,12.6571285 10.8418553,12.6561747 10.8290979,12.6542671 C10.8045643,12.6514056 10.7800308,12.6485442 10.7554973,12.6447289 C10.5582478,12.6180221 10.3580542,12.561747 10.1657114,12.4768574 C9.97238718,12.3919679 9.78789508,12.2756024 9.62106711,12.1296687 C9.45423914,11.9846888 9.30900067,11.8091867 9.19516512,11.6107932 C9.08132956,11.4133534 9.00184094,11.1930221 8.96454998,10.9621988 C8.9459045,10.8467871 8.93805378,10.7275602 8.9409978,10.6111948 C8.94296048,10.5787651 8.94394182,10.5472892 8.9459045,10.5148594 C8.9459045,10.5234438 8.94688585,10.5100904 8.94688585,10.5091365 L8.94786719,10.4976908 L8.94982987,10.4738454 C8.95081121,10.4576305 8.95277389,10.4423695 8.95473657,10.4261546 C8.96160596,10.3632028 8.97141937,10.2992972 8.98319546,10.2372992 C9.07446017,9.73463855 9.3335342,9.24437751 9.73392132,8.87143574 C9.8340181,8.77891566 9.94196561,8.69211847 10.0567825,8.61581325 C10.1715994,8.53950803 10.294267,8.47083333 10.4218414,8.41360442 C10.5494157,8.3563755 10.6828781,8.30963855 10.8192845,8.27339357 C10.9556909,8.23810241 11.0960226,8.21425703 11.2383171,8.20185743 C11.309475,8.19612096 11.3808472,8.19325705 11.4522494,8.19327309 C11.4708949,8.19327309 11.485615,8.19422691 11.5003351,8.19422691 L11.5582342,8.19613454 L11.5945438,8.19708835 C11.609264,8.19708835 11.5945438,8.19708835 11.6014132,8.19804217 L11.6161334,8.19899598 L11.6740325,8.20281124 C11.828103,8.21521084 11.9821735,8.23619478 12.1333001,8.26957831 C12.4365344,8.33539157 12.7309367,8.44317269 13.0057122,8.59101406 C13.5552632,8.88669679 14.0233628,9.34929719 14.3108957,9.90727912 C14.4561342,10.1848394 14.556231,10.4843373 14.6072607,10.7933735 C14.6190368,10.8706325 14.6288502,10.9488454 14.6357196,11.0270582 L14.6406263,11.0861948 L14.6435703,11.1453313 C14.6445517,11.1653614 14.6445517,11.1844378 14.645533,11.2044679 C14.645533,11.2235442 14.6465143,11.2454819 14.6465143,11.2597892 L14.6465143,11.3103414 L14.645533,11.3675703 C14.6435703,11.4057229 14.6406263,11.4677209 14.6386636,11.5058735 C14.6317942,11.5907631 14.6249248,11.6766064 14.6131487,11.761496 C14.602354,11.8454317 14.5876339,11.9293675 14.5719324,12.0133032 C14.5542683,12.0962851 14.5366041,12.1792671 14.5140333,12.2612952 C14.4718356,12.4263052 14.4168805,12.5875 14.3530934,12.7458333 C14.2245377,13.0625 14.052803,13.3629518 13.8457401,13.640512 C13.4306328,14.1946787 12.8643991,14.647741 12.2206394,14.9319779 C11.8987596,15.0731426 11.5592156,15.1771084 11.2098582,15.2333835 C11.0351795,15.261998 10.8585381,15.2791667 10.6818967,15.2848896 L10.6495125,15.2858434 L10.6210536,15.2858434 L10.5641358,15.2867972 L10.4336175,15.2867972 C10.458151,15.2867972 10.4296921,15.2867972 10.4306734,15.2858434 L10.4130093,15.2848896 C10.3178192,15.2829819 10.2236105,15.2782129 10.1294017,15.2715361 C9.75158546,15.2438755 9.37769454,15.1790161 9.01557972,15.076004 C8.65346489,14.9739458 8.30214481,14.8375502 7.96947022,14.6658635 C7.30510236,14.3205823 6.71139106,13.84749 6.24623543,13.2771084 C6.01267627,12.9928715 5.80855735,12.6876506 5.63976669,12.3662149 C5.47097604,12.0447791 5.33849501,11.7080823 5.24036091,11.363755 C5.14320815,11.0194277 5.08236501,10.6665161 5.05881283,10.3116968 L5.05488746,10.2449297 L5.05390612,10.2287149 L5.05390612,10.2144076 L5.05292478,10.1848394 L5.0509621,10.1266566 L5.04998076,10.1123494 L5.04998076,10.0513052 L5.04899942,9.96832329 L5.04899942,9.91395582 C5.04899942,9.87103414 5.0509621,9.82715863 5.05194344,9.78423695 C5.05881283,9.60873494 5.07353294,9.42846386 5.09708512,9.24819277 C5.12063731,9.06792169 5.15105888,8.88669679 5.18933118,8.7064257 C5.22760348,8.52710843 5.27274516,8.34874498 5.32377489,8.17419679 C5.4268157,7.82414659 5.55537137,7.48458835 5.70747922,7.16410643 C6.01267627,6.52218876 6.4130634,5.95657631 6.89392049,5.50065261 C7.01364409,5.38619478 7.13827439,5.27841365 7.2678114,5.17730924 C7.39734842,5.07620482 7.53179213,4.98273092 7.67016121,4.89497992 C7.80754895,4.8062751 7.9498434,4.72615462 8.0960632,4.65175703 C8.16868244,4.61360442 8.24326435,4.58022088 8.31784627,4.54492972 C8.35513723,4.52871486 8.39340952,4.5125 8.43070048,4.49628514 C8.46799144,4.48007028 8.50626374,4.46385542 8.54453604,4.44954819 C8.69664389,4.38659639 8.85365845,4.33413655 9.01067301,4.28453815 C9.05090799,4.27309237 9.09016163,4.26069277 9.12941527,4.24924699 C9.16866891,4.23684739 9.20988523,4.22826305 9.24913887,4.21681727 C9.32862749,4.19487952 9.41007879,4.17675703 9.49054876,4.15672691 C9.53078374,4.14623494 9.57200006,4.13955823 9.61223504,4.1309739 C9.65345136,4.12238956 9.69368634,4.11380522 9.73490266,4.1061747 C9.77611899,4.09854418 9.81733531,4.09186747 9.85757029,4.08423695 L9.91939477,4.07374498 L9.98121925,4.06420683 C10.0224356,4.05848394 10.0636519,4.05180723 10.1048682,4.04608434 C10.1509912,4.03845382 10.1980956,4.03463855 10.2442186,4.02796185 C10.2824909,4.02319277 10.3443154,4.01651606 10.3825877,4.01174699 C10.412028,4.00888554 10.4404868,4.0060241 10.4699271,4.00316265 L10.5278262,3.99743976 L10.5572664,3.99457831 L10.5916134,3.99267068 C10.6387177,3.98980924 10.6848407,3.98694779 10.7319451,3.98408635 L10.8016203,3.97931727 C10.8016203,3.97931727 10.8271352,3.97836345 10.8045643,3.97836345 L10.8192845,3.97740964 L10.8487247,3.97645582 C10.8889597,3.97454819 10.9282133,3.97264056 10.9684483,3.97073293 C11.1274255,3.96596386 11.2854214,3.96596386 11.4414547,3.97073293 C11.7545024,3.98313253 12.0616622,4.01651606 12.3599898,4.06992972 C12.9576265,4.17771084 13.5199349,4.36465863 14.0282695,4.60883534 C14.5375855,4.85110442 14.9939091,5.14869478 15.3903708,5.47203815 C15.4149043,5.49206827 15.4394379,5.51305221 15.4639714,5.53308233 C15.4885049,5.55406627 15.5120571,5.57409639 15.5356093,5.59508032 C15.583695,5.63609438 15.629818,5.67901606 15.675941,5.72003012 C15.7220641,5.76199799 15.7662244,5.80491968 15.8113661,5.84688755 C15.8545451,5.88980924 15.8987054,5.93177711 15.9409031,5.97565261 C16.1087124,6.14829317 16.2647456,6.32379518 16.4050774,6.500251 C16.6867223,6.85220884 16.9114494,7.20702811 17.0910348,7.54277108 C17.1028108,7.56375502 17.1136056,7.58473896 17.1244004,7.60572289 C17.1351951,7.62670683 17.1459899,7.64769076 17.1558033,7.6686747 C17.1764114,7.70968876 17.1980009,7.75070281 17.2166464,7.79171687 C17.2362732,7.83273092 17.2559,7.87279116 17.2745455,7.91285141 C17.2922097,7.95291165 17.3098738,7.99297189 17.3275379,8.0311245 C17.3942691,8.18850402 17.4551123,8.3372992 17.5051607,8.47941767 C17.5875933,8.70737952 17.6474551,8.91340361 17.6945595,9.09176707 C17.7132049,9.16330321 17.7828802,9.21099398 17.8584434,9.20431727 C17.9369507,9.19764056 17.9968125,9.13468876 17.9987752,9.05838353 C18.0027005,8.86666667 17.9977938,8.64061245 17.975223,8.38308233 C17.9457828,8.06450803 17.8898463,7.69538153 17.7789548,7.29001004 C17.6700259,6.88463855 17.5081047,6.44111446 17.2725828,5.98042169 C17.0360797,5.52068273 16.7279386,5.04186747 16.3275515,4.57926707 C16.1715182,4.39804217 16.0007649,4.2187249 15.8162728,4.04417671 C16.0910483,2.98162651 15.4816355,2.06024096 15.4816355,2.06024096 C14.429638,1.99633534 13.7603634,2.37786145 13.5120842,2.55240964 C13.4708678,2.53524096 13.4286702,2.51807229 13.3864725,2.50090361 C13.2068871,2.43032129 13.0233763,2.36450803 12.8339775,2.3063253 C12.6445787,2.24814257 12.4512545,2.19472892 12.254005,2.1498996 C12.0557741,2.10507028 11.8545992,2.06691767 11.6494989,2.03639558 C11.6131893,2.03162651 11.5778611,2.02685743 11.5415514,2.02113454 C11.0842465,0.596134538 9.76630558,8.13271806e-16 9.76630558,8.13271806e-16 C8.29625677,0.901355422 8.01657458,2.1689759 8.01657458,2.1689759" id="path-1"></path>
        <linearGradient x1="228766.297%" y1="122.48743%" x2="228766.297%" y2="31.1312481%" id="linearGradient-3">
            <stop stop-color="#FFF200" offset="0%"></stop>
            <stop stop-color="#F15A29" offset="100%"></stop>
        </linearGradient>
    </defs>
    <g id="Grafana" stroke="none" stroke-width="1" fill="none" fill-rule="evenodd">
        <g>
            <polygon id="Frame" points="0 0 20 0 20 20 0 20"></polygon>
            <g id="Clipped" transform="translate(0.5, 0.5)">
                <mask id="mask-2" fill="white">
                    <use xlink:href="#path-1"></use>
                </mask>
                <g id="SVGID_5_"></g>
                <polygon id="Path" fill="url(#linearGradient-3)" fill-rule="nonzero" mask="url(#mask-2)" points="1.67348332e-15 -0.00381526104 18.0017192 -0.00381526104 18.0017192 18.9990462 1.67348332e-15 18.9990462"></polygon>
            </g>
        </g>
    </g>
</svg>