<?xml version="1.0" encoding="UTF-8"?>
<svg width="20px" height="20px" viewBox="0 0 20 20" version="1.1" xmlns="http://www.w3.org/2000/svg" xmlns:xlink="http://www.w3.org/1999/xlink">
    <title>Helm</title>
    <g id="Helm" stroke="none" stroke-width="1" fill="none" fill-rule="evenodd">
        <g id="helm">
            <polygon id="Frame" points="0 0 20 0 20 20 0 20"></polygon>
            <path d="M10.7036265,2.35062008 C10.7112698,2.67134511 10.6796676,2.98854246 10.5989719,3.29868444 C10.5772179,3.38246687 10.5969141,3.39628363 10.675111,3.40524982 C11.6954929,3.52239824 12.6439982,3.84812081 13.5112199,4.40064391 C13.6132286,4.46561204 13.6332188,4.42960029 13.6704065,4.3375866 C13.9220477,3.71730263 14.2973048,3.18329986 14.8101415,2.75057095 C14.982116,2.60549506 15.1668783,2.47717565 15.3957366,2.43528443 C15.6260648,2.39309924 15.7714347,2.50495614 15.7948056,2.73998791 C15.8177355,2.96899322 15.7661432,3.18682755 15.6851535,3.39745952 C15.4407146,4.03258915 15.0635466,4.57688099 14.5477702,5.02136884 C14.4698673,5.08854177 14.4560505,5.12102584 14.539392,5.19863483 C14.9500729,5.58094729 15.3004892,6.01441114 15.6032819,6.48712044 C15.6514935,6.56252463 15.6532574,6.60059419 15.5699159,6.64880584 C15.3285275,6.78869138 15.0899691,6.93340442 14.8543845,7.08285763 C14.7764816,7.13224517 14.7363542,7.13224517 14.682851,7.04655191 C14.3390017,6.49488557 13.8983134,6.00987938 13.3820185,5.61490123 C12.5408135,4.96786567 11.5949539,4.5689437 10.5363556,4.47428426 C8.45428863,4.28864002 6.76114856,5.02754228 5.45355467,6.65527325 C5.42856693,6.68643444 5.40431412,6.71818357 5.38109022,6.75066764 C5.19676886,7.00936427 5.19691585,7.00936427 4.93527948,6.84032954 C4.75948336,6.7267088 4.58545108,6.6104423 4.4070092,6.50108418 C4.3295472,6.45375446 4.30441247,6.41935956 4.36511798,6.33057958 C4.67085037,5.88403392 5.01862096,5.47452891 5.42048266,5.11250061 C5.50279522,5.0384193 5.51161443,5.00549427 5.42592117,4.92229979 C4.89823883,4.41078599 4.49402534,3.82092827 4.31367263,3.09643071 C4.2811698,2.96521484 4.27537149,2.82880468 4.29662217,2.69530394 C4.32660746,2.50304531 4.46859664,2.40147748 4.66070828,2.42984592 C4.90235446,2.46556369 5.09534803,2.59961559 5.27570073,2.75071794 C5.75811116,3.15493143 6.11646479,3.65380437 6.368841,4.22793451 C6.41587675,4.33494084 6.44968369,4.34258415 6.54728288,4.28525933 C7.41024193,3.77653828 8.34110885,3.47536248 9.34076555,3.39628363 C9.47231867,3.38599456 9.48775228,3.34248649 9.46276453,3.21989956 C9.32724277,2.55066901 9.33047648,1.88379024 9.53081939,1.22514274 C9.57903103,1.06683804 9.64561602,0.916470619 9.74924166,0.786093395 C9.93282807,0.554883279 10.1490455,0.555324239 10.3316031,0.79123793 C10.5135726,1.02656367 10.5845672,1.30716133 10.6410101,1.5920216 C10.6903976,1.84233999 10.708624,2.0957451 10.7037734,2.35062008 L10.7036265,2.35062008 Z M9.37089783,17.6557596 C9.38265677,17.4020605 9.37839415,17.1467446 9.4376298,16.8973081 C9.45938384,16.8050005 9.46217659,16.7509094 9.33003552,16.7392974 C8.31141753,16.6502234 7.3618833,16.3405224 6.48510749,15.814016 C6.39368175,15.7591899 6.36854702,15.7797681 6.32753773,15.8657553 C6.07295672,16.3985822 5.7322415,16.8680578 5.27658266,17.2480185 C5.10372627,17.3922124 4.91969889,17.5217077 4.69098755,17.5638929 C4.46021839,17.6065191 4.31470154,17.4949561 4.29088969,17.2602184 C4.26766579,17.031066 4.32058101,16.8138197 4.39995384,16.6024528 C4.60661717,16.0525754 4.92469644,15.5726638 5.34066887,15.160954 C5.44076683,15.0618849 5.42503925,15.0183768 5.33184966,14.9345944 C5.0192089,14.6538498 4.75081115,14.3323898 4.50049276,13.9949083 C4.44419684,13.9189162 4.4380234,13.8790828 4.52401063,13.8224929 C4.75317793,13.6718226 4.97853043,13.5154285 5.19985559,13.3534582 C5.28260911,13.2927527 5.32405937,13.2976033 5.38594078,13.3831496 C5.88158001,14.0692836 6.5027459,14.6163682 7.24870352,15.016172 C8.37080017,15.6173477 9.56403839,15.8288616 10.8223917,15.6232272 C12.346644,15.3740847 13.565164,14.6168091 14.4847129,13.378299 C14.5424787,13.300396 14.5824591,13.2768782 14.6706511,13.3421403 C14.8911312,13.5052955 15.1174908,13.6603665 15.3462021,13.8114689 C15.4263099,13.8643841 15.4388037,13.898632 15.3773633,13.9813855 C15.1421845,14.2988768 14.8905433,14.6016695 14.6024493,14.8719781 C14.5295439,14.9403269 14.5442425,14.9685483 14.6095046,15.0299888 C15.1645265,15.5522326 15.5863784,16.1588468 15.7736395,16.909361 C15.8052416,17.0366515 15.8087693,17.1665878 15.790249,17.2959361 C15.7612926,17.496426 15.6190095,17.5991697 15.4182256,17.5681555 C15.1820179,17.5318498 14.992846,17.4010316 14.816021,17.2536039 C14.3240564,16.843805 13.963204,16.334643 13.7064182,15.7513996 C13.6654089,15.6582101 13.6379224,15.6507137 13.5545809,15.7046579 C12.6867713,16.2661471 11.737678,16.6045106 10.7106818,16.7206301 C10.6130826,16.7316541 10.6186681,16.7651671 10.6326319,16.843364 C10.741696,17.4543878 10.7412551,18.0636478 10.5804516,18.6670283 C10.5263605,18.8701639 10.4525731,19.0662442 10.3141116,19.2299874 C10.1375806,19.4387086 9.93194615,19.4401784 9.76070662,19.2254308 C9.54140243,18.9505657 9.47467046,18.6170528 9.41499385,18.2819231 C9.37824717,18.0746718 9.38353869,17.8644808 9.37089783,17.6557596 L9.37089783,17.6557596 Z M15.2491909,9.46845215 C15.4311604,10.4700197 15.4329243,11.4645319 15.4277797,12.4602199 C15.4270448,12.5955947 15.3907391,12.6269029 15.2615378,12.6224933 C14.9675643,12.6124982 14.6727089,12.6154379 14.3784415,12.6216113 C14.28437,12.6235222 14.262616,12.5944188 14.2627605,12.503728 C14.2655557,10.9471386 14.2657027,9.39025521 14.2627605,7.83366582 C14.262469,7.73606663 14.2884856,7.70711025 14.3871137,7.70858011 C14.7611949,7.71416561 15.1355701,7.71592945 15.5096513,7.70755121 C15.6219492,7.70505243 15.6639874,7.74797256 15.6986763,7.84557174 C16.01117,8.72749208 16.3692297,9.59368484 16.6083771,10.5007399 C16.6157264,10.5283734 16.6298372,10.5542431 16.6457117,10.5924596 C16.7118558,10.5054435 16.7214099,10.4093142 16.7458097,10.3212691 C16.9834872,9.46654132 17.3077399,8.64121087 17.5921592,7.80235764 C17.6175879,7.72739441 17.6583033,7.70828614 17.7337075,7.70902107 C18.1179307,7.71284273 18.502154,7.71416561 18.8862303,7.70843313 C18.9836825,7.70696326 19.0001451,7.74268103 18.999999,7.8294032 C18.9977933,9.3859926 18.9979403,10.942729 18.999999,12.4994654 C18.999999,12.5836888 18.9885331,12.6239631 18.8882882,12.6217583 C18.5740646,12.6152121 18.2597388,12.6152121 17.9455153,12.6217583 C17.8464463,12.6236692 17.8327765,12.5845707 17.8323355,12.4991714 C17.8285139,11.5662467 17.8170489,10.6333219 17.9697681,9.7081875 C17.9793223,9.64939281 17.9775584,9.58883428 17.9794693,9.52915767 C17.9797632,9.51695777 17.9724139,9.50475787 17.9588911,9.46080884 C17.9095036,9.60823653 17.8690822,9.7280307 17.8293958,9.84811886 C17.5776076,10.6095101 17.2831931,11.3553207 17.0121496,12.1095096 C16.9793716,12.2006414 16.9323358,12.2315086 16.8376764,12.226658 C16.6831225,12.219935 16.5283527,12.2197879 16.3737863,12.2262171 C16.3020568,12.2287158 16.2670739,12.2026992 16.2431151,12.1368491 C15.934002,11.2852081 15.5940217,10.444591 15.3404696,9.57340067 C15.3301806,9.53812386 15.3281227,9.49388085 15.2491909,9.46845215 L15.2491909,9.46845215 Z M5.04125691,10.1654632 C5.04125691,10.9336158 5.0391991,11.7019154 5.04347659,12.470068 C5.04404966,12.5797201 5.02714619,12.6263149 4.90059062,12.6226402 C4.56163923,12.6126451 4.22224689,12.6152909 3.88314852,12.6216113 C3.78011083,12.6236692 3.74806772,12.5980935 3.74924361,12.4907932 C3.75482911,11.9372412 3.74894964,11.3835422 3.75409418,10.8298432 C3.75512308,10.7173983 3.73263411,10.6741842 3.60813636,10.676977 C3.21935648,10.6856492 2.82998865,10.6857962 2.44106178,10.676977 C2.31053757,10.6740373 2.28746065,10.7196031 2.28878353,10.8382214 C2.29480999,11.3867759 2.28775462,11.9356243 2.29436903,12.4841788 C2.29583889,12.6002983 2.26056208,12.6239631 2.15208588,12.6217583 C1.80796826,12.6158543 1.46377681,12.6156093 1.11965113,12.6210234 C1.03204705,12.6221993 0.999709968,12.6042669 1.00000196,12.5074027 C1.00309066,10.9461097 1.00309066,9.38481671 1.00000196,7.82352373 C0.999856955,7.72768839 1.03087115,7.70784518 1.11950415,7.70887409 C1.46374705,7.71357766 1.80798996,7.7153415 2.15208588,7.70828614 C2.26159099,7.70593435 2.29583889,7.73180402 2.29436903,7.84674763 C2.28760764,8.35546868 2.29510396,8.86433672 2.28878353,9.37305777 C2.28731366,9.49197003 2.31083154,9.53709495 2.44106178,9.53400823 C2.82998865,9.52518903 3.21935648,9.52518903 3.60813636,9.53400823 C3.73263411,9.53694796 3.75527007,9.49417483 3.75409418,9.38143601 C3.74880265,8.86771741 3.75482911,8.35399882 3.74924361,7.84028022 C3.74821471,7.73400882 3.77922891,7.7065223 3.88314852,7.70843313 C4.22224689,7.71490054 4.56163923,7.71739932 4.90059062,7.70740422 C5.02773413,7.70372955 5.04404966,7.7519412 5.04347659,7.86100535 C5.03934608,8.62915796 5.04125691,9.39731058 5.04125691,10.1654632 L5.04125691,10.1654632 Z M6.09162404,10.1717836 C6.09162404,9.39863346 6.09368185,8.62518932 6.08940595,7.85189217 C6.08883129,7.74562077 6.10735162,7.70711025 6.22567593,7.70783488 C7.1835884,7.71328369 8.14150088,7.71254876 9.09941335,7.70858011 C9.20656668,7.70813915 9.24757597,7.72842332 9.24360733,7.8460127 C9.23536667,8.1203232 9.2351706,8.39481636 9.24301938,8.66913835 C9.24551816,8.77026522 9.21053532,8.79290117 9.11572888,8.79216624 C8.58687065,8.78805061 8.05801242,8.79334213 7.52915419,8.78775664 C7.41523948,8.78643376 7.37540608,8.81039259 7.37819882,8.93400843 C7.38407829,9.19931946 7.38584213,9.14743315 7.37863978,9.4125972 C7.37540608,9.52798177 7.40333355,9.56605134 7.52533253,9.56384653 C7.95923734,9.55590925 8.39343612,9.56561038 8.82734093,9.55767309 C8.95007484,9.5553213 8.97623848,9.59544868 8.97315176,9.70906942 C8.96607186,9.98834711 8.96597384,10.2677581 8.97285779,10.5470407 C8.97506259,10.6459628 8.94463633,10.6735963 8.84689016,10.6725674 C8.40784082,10.6677168 7.96879148,10.6738903 7.52988912,10.6681578 C7.4183262,10.6666879 7.37555306,10.68756 7.37790485,10.8126457 C7.38143253,11.0147525 7.3751121,11.2153894 7.3784928,11.4111757 C7.38025664,11.5192109 7.41068289,11.5433167 7.51313264,11.5424348 C8.06697861,11.5375843 8.62082458,11.5433167 9.17452357,11.5374373 C9.29020212,11.5362614 9.32827168,11.5638949 9.32400907,11.684424 C9.31445493,11.9537037 9.31768864,12.2232773 9.32283317,12.492704 C9.32459701,12.5850116 9.30607669,12.6220523 9.20201009,12.6216113 C8.2041704,12.6174751 7.20631776,12.6175241 6.20847848,12.6217646 C6.10176612,12.6223463 6.08971321,12.581337 6.09000718,12.4918221 C6.09294692,11.7185249 6.09162404,10.9452278 6.09162404,10.1717836 L6.09162404,10.1717836 Z M10.2830974,10.1610536 C10.2830974,9.39275399 10.2855962,8.62445439 10.2801444,7.85630177 C10.2794228,7.73915335 10.3089671,7.70490545 10.4277324,7.70784518 C10.7618332,7.71637041 11.096522,7.71710534 11.4303288,7.70755121 C11.5549736,7.70402353 11.5748168,7.74811954 11.5745228,7.85938849 C11.5708481,9.0317546 11.5742288,10.2042677 11.5695252,11.3767808 C11.5689373,11.5024544 11.5906913,11.5466974 11.7297408,11.5440517 C12.2486039,11.5342036 12.767467,11.5439047 13.2863302,11.5371433 C13.4018617,11.5356734 13.4280254,11.5709502 13.4249386,11.6801614 C13.4179902,11.9544908 13.4178431,12.2289503 13.4244977,12.503287 C13.4264085,12.5950067 13.4005388,12.6216113 13.3076432,12.6211704 C12.3397874,12.6178142 11.3719227,12.6179122 10.4040675,12.6214692 C10.3044105,12.6219053 10.2805987,12.592067 10.2810396,12.4960847 C10.2847143,11.71779 10.2830974,10.9394953 10.2830974,10.1612006 L10.2830974,10.1610536 Z" id="Shape" fill="#27799F" fill-rule="nonzero"></path>
        </g>
    </g>
</svg>