<?xml version="1.0" encoding="UTF-8"?>
<svg width="20px" height="20px" viewBox="0 0 20 20" version="1.1" xmlns="http://www.w3.org/2000/svg" xmlns:xlink="http://www.w3.org/1999/xlink">
    <title>Huawei</title>
    <g id="Huawei" stroke="none" stroke-width="1" fill="none" fill-rule="evenodd">
        <g>
            <polygon id="Frame" points="0 0 20 0 20 20 0 20"></polygon>
            <path d="M7.99488417,15.4232522 C6.47305706,16.7765102 5.20394212,17.4536073 4.18753935,17.4545444 C3.17113657,17.4554795 2.39574265,16.8197732 1.86135759,15.5474245 L7.99488417,15.4222492 L7.99488417,15.4232522 Z M12.0049541,15.4232522 L18.1384807,15.5474245 C17.6035667,16.8188371 16.8281728,17.4545434 15.812299,17.4545434 C14.7964251,17.4545434 13.5273102,16.777112 12.0049541,15.4222492 L12.0049541,15.4232522 Z M0.136408617,10.1119252 C2.49029482,11.3824016 4.00107982,12.2205148 4.66876361,12.6262649 C5.3364474,13.0320149 6.47299094,13.7600648 8.07839423,14.8104145 C5.52482442,14.9708957 3.85363133,14.9730355 3.06481497,14.8168337 C2.16246989,14.6384989 1.46007289,14.249332 0.858641736,13.6401051 C0.0580559438,12.8304772 -0.182688429,11.6544173 0.136408617,10.1119252 Z M19.8634297,10.1119252 C20.1827912,11.6540161 19.9420468,12.8302098 19.1411966,13.6405063 C18.5399638,14.2497332 17.8375668,14.6389001 16.9350233,14.8172349 C16.1463392,14.9737041 14.4754767,14.9715644 11.9224359,14.8108157 C13.52612,13.7603323 14.6623991,13.0322824 15.3312731,12.6266661 C16.000147,12.2210498 17.5108659,11.3828028 19.8634297,10.1119252 L19.8634297,10.1119252 Z M3.02395257,4.87963513 C4.25484991,6.52938222 5.09728992,7.70584339 5.55127258,8.40901866 C6.00525524,9.11219393 7.03012143,11.0070761 8.62587114,14.0936652 C5.4784079,12.6621726 3.29055001,11.2406432 2.06229748,9.82907698 C1.17978851,8.81523679 1.17978851,7.1518488 2.1813142,5.73219169 C2.32677908,5.52624077 2.60759241,5.24225586 3.0237542,4.88023694 L3.02395257,4.87963513 Z M16.9748939,4.87963513 C17.3915847,5.24205525 17.672398,5.52604017 17.8173339,5.73158988 C18.8198514,7.151247 18.8198514,8.81383257 17.9375408,9.82907698 C16.7092883,11.2413118 14.5207031,12.6630418 11.3717852,14.094267 C12.9674027,11.0076779 13.9922688,9.1124614 14.4463837,8.40861746 C14.9004987,7.70477352 15.7433354,6.52844607 16.9748939,4.87963513 Z M8.5606103,2 C9.17566226,3.83911494 9.52319107,5.13700691 9.60319676,5.89367593 C9.68320244,6.65034495 9.61648696,9.19250142 9.40305031,13.5201454 C6.72834792,9.62620195 5.39099673,6.80032803 5.39099673,5.04252359 C5.39099673,3.28471914 6.44753459,2.27054461 8.5606103,2 Z M11.4410132,2 C13.5534278,2.27121328 14.609635,3.28538781 14.609635,5.04252359 C14.609635,6.79965936 13.2726144,9.62553328 10.5985732,13.5201454 C10.3847399,9.19317009 10.3180244,6.65114735 10.3984268,5.89407713 C10.4788292,5.13700691 10.826358,3.83911494 11.4410132,2.0004012 L11.4410132,2 Z" id="Shape" fill="#FE0000" fill-rule="nonzero"></path>
        </g>
    </g>
</svg>