<?xml version="1.0" encoding="UTF-8"?>
<svg width="20px" height="20px" viewBox="0 0 20 20" version="1.1" xmlns="http://www.w3.org/2000/svg" xmlns:xlink="http://www.w3.org/1999/xlink">
    <title>Jaeger</title>
    <g id="Jaeger" stroke="none" stroke-width="1" fill="none" fill-rule="evenodd">
        <g transform="translate(0, -0)">
            <polygon id="Frame" points="0 0 20 0 20 20 0 20"></polygon>
            <g id="jaeger" transform="translate(1.1152, 0)">
                <path d="M10.0970055,7.49749825 C9.14782995,7.49749825 8.37837117,8.24068751 8.37837117,9.15745792 C8.37837117,10.0742283 9.14782995,10.8174176 10.0970055,10.8174176 C11.046181,10.8174176 11.8156397,10.0742283 11.8156397,9.15745792 C11.8156397,8.24068751 11.046181,7.49749825 10.0970055,7.49749825 L10.0970055,7.49749825 Z M9.8648541,10.234086 C9.56562317,10.234086 9.32304858,9.99979292 9.32304858,9.71077781 C9.32304858,9.4217627 9.56562317,9.18746966 9.8648541,9.18746966 C10.164085,9.18746966 10.4066596,9.4217627 10.4066596,9.71077781 C10.4066596,9.99979292 10.164085,10.234086 9.8648541,10.234086 Z M9.78985136,11.4321408 C9.51269837,11.3227877 9.14768502,11.2655239 8.70588315,11.2617293 L8.51159033,11.2600045 C8.39730044,11.0554417 8.03192993,10.9429839 7.61512897,10.9930035 C8.03192993,10.9429839 8.39730044,11.0554417 8.51159033,11.2600045 C8.53619376,11.3038258 8.54885297,11.3529713 8.54837739,11.402819 C8.54480583,11.6487773 8.22086541,11.8943906 7.78049216,11.9816661 C7.76977749,11.9840808 7.75906281,11.9858057 7.74799098,11.9878754 L7.71798988,11.9930499 C7.24368682,12.0689416 6.8200999,11.9344062 6.73366817,11.6894829 L6.57437663,11.7415722 C6.47580159,11.7739987 5.60648409,12.0734261 5.52576685,12.6612423 C5.4961354,12.8481308 5.55396912,13.0380775 5.68362977,13.179721 C5.84006406,13.3525472 6.09614485,13.455691 6.36865482,13.455691 C6.51580306,13.455691 6.65259377,13.4246444 6.76402642,13.3649658 C6.83331467,13.3277099 6.9076031,13.2828648 6.9861774,13.2356049 C7.25511581,13.0727826 7.5897709,12.8699446 7.99514287,12.8185452 C8.03121562,12.8140607 8.09157497,12.8116459 8.1747923,12.8116459 C8.26479559,12.8116459 8.37337099,12.8144056 8.48837519,12.8171653 C8.62052288,12.820615 8.77088553,12.8240646 8.9169623,12.8240646 C9.3455494,12.8240646 9.60377313,12.7919831 9.77877953,12.7164363 C10.1495074,12.5567186 10.3334427,12.2448725 10.2709404,11.8830068 C10.2398678,11.7022465 10.0687901,11.5421839 9.78985136,11.4321408 L9.78985136,11.4321408 Z M9.67198991,12.4853114 C9.51055543,12.5546489 9.2191162,12.5712071 8.91660514,12.5712071 C8.65052398,12.5712071 8.37587108,12.5584435 8.1747923,12.5584435 C8.0872891,12.5584435 8.01407214,12.5608582 7.96049875,12.5674125 C7.37262011,12.6422693 6.93117539,12.986197 6.63687891,13.1434999 C6.5539084,13.184314 6.461741,13.2045837 6.36865482,13.2024885 C6.07364403,13.2024885 5.73934609,13.0300072 5.7854192,12.6947037 C5.84756433,12.2462524 6.65830827,11.9816661 6.65830827,11.9816661 C6.7625978,12.1058526 6.93974713,12.2490121 7.38976359,12.2490121 C7.50833935,12.2490121 7.64584438,12.2386632 7.80585023,12.2162406 C8.65230976,12.0955037 8.70338306,11.5149318 8.70338306,11.5149318 C9.6169879,11.522521 9.98664427,11.7753785 10.0123595,11.9244023 C10.0355746,12.0589377 10.0355746,12.3280085 9.67163275,12.4853114 L9.67198991,12.4853114 Z" id="Shape"></path>
                <path d="M7.7040608,13.0903757 C7.4836956,13.1721318 7.28833131,13.2887291 7.11939656,13.391183 L7.11189629,13.3956675 C7.15082628,13.5698736 7.28118819,13.9720999 7.64298714,13.8682662 C7.83049399,13.814107 7.83406555,13.5929861 7.79370693,13.391183 C7.77218127,13.2887645 7.74220352,13.1881743 7.7040608,13.0903757 L7.7040608,13.0903757 Z M8.64802389,12.9993056 C8.61433157,12.9986438 8.58063985,12.9979539 8.54694877,12.9972358 C8.43265887,12.9941311 8.32515494,12.9917164 8.23622312,12.9917164 C8.13907671,12.9917164 8.09264644,12.995166 8.07085993,12.9975807 C8.02719044,13.0032647 7.98381081,13.0108617 7.94085517,13.0203483 C7.95621288,13.1134882 7.98371388,13.2569926 8.02514397,13.391183 C8.07371717,13.5488309 8.1415768,13.6933702 8.23158009,13.7257966 C8.32586925,13.7602929 8.6876682,13.7909946 8.68266801,13.391183 L8.68052508,13.344613 C8.67209599,13.2294375 8.66137934,13.1144289 8.64838105,12.9996505 L8.64802389,12.9993056 Z M4.61644788,11.4604277 C4.4228794,11.4604277 4.24401475,11.3606858 4.14723051,11.1987737 C4.05044626,11.0368616 4.05044626,10.8373776 4.14723051,10.6754655 C4.24401475,10.5135534 4.4228794,10.4138114 4.61644788,10.4138114 C4.91567881,10.4138114 5.15825341,10.6481045 5.15825341,10.9371196 C5.15825341,11.2261347 4.91567881,11.4604277 4.61644788,11.4604277 L4.61644788,11.4604277 Z" id="Shape"></path>
                <path d="M4.69787943,17.5717838 C4.40394011,17.6366368 3.53819417,18.0912974 2.79030967,18.2292824 C2.04206802,18.3672674 1.3949015,18.4400545 1.16810749,18.5214657 C0.941313484,18.6028768 0.764521304,18.7650092 1.21025189,18.9271416 C1.65562532,19.0896189 3.81570431,19.1465378 4.00892567,18.9271416 C4.20214702,18.7080904 3.87570651,18.6132257 3.40354638,18.6187451 C3.06781982,18.6228846 3.10889275,18.5097369 3.10960706,18.4969733 C3.10960706,18.4969733 3.13067926,18.3548488 3.64748388,18.2858563 C4.16357418,18.2168637 6.44615765,18.0098862 6.40437041,17.7746218 C6.36222601,17.5390124 4.99217591,17.5065859 4.69787943,17.5717838 Z" id="Path" fill="#221F1F" fill-rule="nonzero"></path>
                <circle id="Oval" fill="#221F1F" fill-rule="nonzero" transform="translate(3.2167, 19.3086) rotate(-12.278) translate(-3.2167, -19.3086)" cx="3.21674567" cy="19.3085968" r="1"></circle>
                <circle id="Oval" fill="#221F1F" fill-rule="nonzero" transform="translate(2.181, 19.2521) rotate(-4.551) translate(-2.181, -19.2521)" cx="2.18100055" cy="19.2520689" r="1"></circle>
                <circle id="Oval" fill="#221F1F" fill-rule="nonzero" transform="translate(1.3531, 19.1524) rotate(-7.758) translate(-1.3531, -19.1524)" cx="1.35311426" cy="19.1524021" r="1"></circle>
                <circle id="Oval" fill="#221F1F" fill-rule="nonzero" transform="translate(0.7417, 19.0613) rotate(-8.26) translate(-0.7417, -19.0613)" cx="0.74165962" cy="19.0612825" r="1"></circle>
                <circle id="Oval" fill="#221F1F" fill-rule="nonzero" transform="translate(0.6027, 18.8947) rotate(-8.26) translate(-0.6027, -18.8947)" cx="0.602729673" cy="18.8947151" r="1"></circle>
                <circle id="Oval" fill="#221F1F" fill-rule="nonzero" transform="translate(0.5667, 18.7067) rotate(-8.261) translate(-0.5667, -18.7067)" cx="0.566653219" cy="18.706661" r="1"></circle>
                <path d="M9.18625786,17.7987692 C8.67338196,17.8232615 7.51369669,17.7663427 7.354048,18.0264444 C7.1943993,18.2858563 7.82442234,18.3834806 8.81624433,18.3024145 C9.80806631,18.2210033 11.2116891,18.1154448 11.2706198,17.8232615 C11.3295505,17.5310782 11.009896,17.5879971 10.9763233,17.4010274 C10.9427507,17.2147476 11.3295505,17.2147476 11.4049104,16.9384326 C11.4806275,16.6624626 10.8838199,16.6948891 10.3545149,16.6948891 C9.82485264,16.6948891 8.94232037,16.7435288 8.85838873,17.0115647 C8.77445709,17.2792556 9.26197491,17.2792556 9.60627322,17.3444535 C9.95092868,17.4093065 9.85021071,17.5307333 9.85021071,17.5307333 C9.83342438,17.7014897 9.6987766,17.7746218 9.1859007,17.7987692 L9.18625786,17.7987692 Z" id="Path" fill="#221F1F" fill-rule="nonzero"></path>
                <ellipse id="Oval" fill="#221F1F" fill-rule="nonzero" cx="7.81513629" cy="18.5111168" rx="1" ry="1"></ellipse>
                <ellipse id="Oval" fill="#221F1F" fill-rule="nonzero" cx="8.9591067" cy="18.4807601" rx="1" ry="1"></ellipse>
                <ellipse id="Oval" fill="#221F1F" fill-rule="nonzero" cx="9.8827119" cy="18.389345" rx="1" ry="1"></ellipse>
                <ellipse id="Oval" fill="#221F1F" fill-rule="nonzero" cx="10.5948808" cy="18.2737826" rx="1" ry="1"></ellipse>
                <ellipse id="Oval" fill="#221F1F" fill-rule="nonzero" cx="11.2095461" cy="18.1489061" rx="1" ry="1"></ellipse>
                <path d="M0.758092498,15.2579491 C0.758092498,15.433134 1.07060393,15.598296 1.62598138,15.7460266 C1.58669423,15.3947851 1.61098083,15.0409289 1.64776789,14.7655137 C1.07917567,14.9136801 0.758449653,15.081021 0.758449653,15.2579491 L0.758092498,15.2579491 Z M17.1408345,14.80517 C17.0746328,15.0313891 16.965601,15.2353463 16.8226086,15.4004503 C16.5718851,15.6902463 16.3522342,15.8641239 16.1557985,15.9277483 C17.2408381,15.741233 17.8847903,15.5093961 17.8847903,15.2583848 C17.8847903,15.0971449 17.6183519,14.9437491 17.1408345,14.80517 L17.1408345,14.80517 Z" id="Shape" fill="#221F1F" fill-rule="nonzero"></path>
                <path d="M15.2846952,14.5057569 C15.2161212,14.01729 15.0003991,13.7982388 14.8096778,13.6047148 C14.6328856,13.4246444 14.4653795,13.2545778 14.51931,12.9423867 C14.5693119,12.6536531 14.8068205,12.4759974 15.1954062,12.4301174 C14.9593261,10.8895148 14.613242,8.94599589 14.1689401,7.28845096 C13.9471463,6.4605409 13.596062,5.88514341 13.1253305,5.50292493 C12.4979567,5.80928719 11.8608377,6.09666584 11.2149035,6.36464132 C10.693378,6.58266213 10.1680445,6.79208477 9.63913156,6.99281808 C9.22625932,7.42126153 8.77481424,7.8431507 8.4980184,7.96319766 C8.30086834,8.04909333 8.12586194,8.08289966 7.97371352,8.08289966 C7.64441576,8.08289966 7.42190762,7.92352697 7.31440369,7.78140241 C7.21857162,7.80782172 7.12095095,7.8277628 7.02225015,7.84108093 C6.94117576,7.84936003 6.82152852,7.85901898 6.67223735,7.86936785 C6.7293823,8.01459708 6.70652432,8.1846636 6.5965203,8.3126447 C6.47544444,8.45373437 6.28043731,8.52445169 6.00364147,8.52445169 C5.60576978,8.52445169 5.03896334,8.37784261 4.28107848,8.08220973 C4.17888659,8.04229075 4.07625799,8.00342277 3.97321007,7.9656124 L3.79927514,7.96630232 L3.79891799,7.96630232 C3.07496294,7.96630232 2.50922797,7.94422472 2.06564031,7.90903854 C1.57990827,8.88045301 1.79098741,9.95742602 1.96885106,10.8474293 C2.13921443,11.7001767 2.73030748,13.2173219 3.27854181,14.5212802 C3.48212069,15.0045727 3.67962791,15.4588884 3.84749119,15.8390371 C5.33183119,15.9656383 7.23475792,16.041875 9.30983381,16.041875 C11.7792098,16.041875 14.0035769,15.9339018 15.5700627,15.7610755 C15.4557729,15.3074498 15.3114819,14.6761684 15.2864809,14.5157608 L15.2850523,14.5057569 L15.2846952,14.5057569 Z M3.05281927,10.353788 C3.05281927,9.76074148 3.38038911,9.21274393 3.91213641,8.91622069 C4.44388371,8.61969745 5.0990234,8.61969745 5.6307707,8.91622069 C6.162518,9.21274393 6.49008783,9.76074148 6.49008783,10.353788 C6.49008783,11.2705584 5.72062905,12.0137476 4.77145355,12.0137476 C3.82227806,12.0137476 3.05281927,11.2705584 3.05281927,10.353788 Z M7.64334429,13.8679212 C7.28154535,13.9720999 7.15118344,13.5698736 7.11225344,13.3953225 L7.11975372,13.391183 C7.28868847,13.2887291 7.48405275,13.1721318 7.70441795,13.0903757 C7.73049034,13.1579883 7.77013464,13.271136 7.79406409,13.391183 C7.83442271,13.5929861 7.83085115,13.814107 7.64334429,13.8679212 L7.64334429,13.8679212 Z M8.23193725,13.7261416 C8.14193395,13.6933702 8.07407433,13.5488309 8.02550112,13.391183 C7.98938863,13.2693991 7.96123686,13.1455434 7.94121233,13.0203483 C7.98407104,13.0110343 8.02692975,13.0031001 8.07121708,12.9975807 C8.09300359,12.994821 8.13907671,12.9917164 8.23658027,12.9917164 C8.3255121,12.9917164 8.43301603,12.9941311 8.54730592,12.9972358 L8.64838105,12.9996505 C8.6576671,13.0748524 8.66838178,13.1845504 8.68088223,13.344613 L8.68302517,13.391183 C8.68802535,13.7909946 8.32622641,13.7602929 8.23193725,13.7257966 L8.23193725,13.7261416 Z M9.77913668,12.7164363 C9.60413028,12.792328 9.34626371,12.8244096 8.9169623,12.8244096 C8.77124268,12.8244096 8.6212372,12.820615 8.48837519,12.8175103 C8.3740853,12.8144056 8.26515275,12.8116459 8.17514945,12.8116459 C8.09193213,12.8116459 8.03157278,12.8140607 7.99550003,12.8185452 C7.59012806,12.8702896 7.25547296,13.0727826 6.98653456,13.2356049 C6.90796026,13.2828648 6.83367183,13.3277099 6.76438358,13.3649658 C6.64257785,13.4268105 6.50660117,13.4580128 6.36901198,13.455691 C6.09650201,13.455691 5.84042122,13.3525472 5.68398692,13.179721 C5.55432627,13.0380775 5.49649256,12.8481308 5.52612401,12.6612423 C5.6071984,12.0734261 6.47615875,11.7739987 6.57473378,11.7415722 L6.73402532,11.6898278 C6.72868063,11.6748823 6.72461915,11.6595371 6.72188202,11.6439478 C6.67473744,11.3703925 7.04475097,11.0830387 7.54798366,11.0023175 C7.57084164,10.9988679 7.59298531,10.9954183 7.61548613,10.9930035 C8.03228709,10.9429839 8.39765759,11.0554417 8.51194749,11.2600045 L8.70624031,11.2617293 C9.14804218,11.2651789 9.51305552,11.3227877 9.79020852,11.4321408 C10.0691473,11.5425288 10.240225,11.7022465 10.2712975,11.8830068 C10.3337998,12.2452175 10.1498645,12.5567186 9.77913668,12.7164363 L9.77913668,12.7164363 Z M10.0973626,10.8174176 C9.1481871,10.8174176 8.37872833,10.0742283 8.37872833,9.15745792 C8.37872833,8.24068751 9.1481871,7.49749825 10.0973626,7.49749825 C11.0465381,7.49749825 11.8159969,8.24068751 11.8159969,9.15745792 C11.8159969,10.0742283 11.0465381,10.8174176 10.0973626,10.8174176 Z" id="Shape" fill="#67CFE3" fill-rule="nonzero"></path>
                <path d="M12.2981574,3.56458051 L12.2852998,3.54319283 L12.2685134,3.52249508 C12.244936,3.49640922 12.216457,3.47487204 12.1845818,3.45902197 L12.178153,3.45557235 L12.1749386,3.4541925 L12.1627953,3.44901806 L12.1617238,3.4486731 L12.1592237,3.44798317 L12.1420802,3.44177385 L12.1067218,3.43039008 C12.0838638,3.42211098 12.0574343,3.41900632 12.0324334,3.41417684 C12.0070753,3.40969233 11.9802886,3.41003729 11.9538591,3.40831248 C11.9273349,3.40903513 11.9008687,3.41110778 11.8745705,3.41452181 C11.7746801,3.43275345 11.6816117,3.47632976 11.6049177,3.54077809 C11.5327722,3.59942172 11.4788417,3.66634445 11.4349115,3.73292222 C11.3477655,3.86676768 11.2991923,4.00026817 11.2666911,4.11548566 C11.2345471,4.2310481 11.2213323,4.32936242 11.2156178,4.39835493 C11.2120462,4.43216126 11.2124034,4.45975826 11.2116891,4.47838623 L11.2116891,4.50667316 L11.2656196,4.41249839 C11.2999066,4.35316484 11.3477655,4.26864902 11.4070534,4.17171455 C11.4663412,4.07512504 11.5374153,3.96473703 11.623847,3.8646979 C11.6667057,3.8150233 11.7142074,3.76879832 11.7642093,3.73292222 C11.8149254,3.69773604 11.8663559,3.6732437 11.9177863,3.66530956 C11.9306439,3.66392971 11.9435015,3.66254986 11.9567163,3.66185994 C11.9699311,3.66289482 11.9827887,3.66151497 11.9963606,3.66392971 C12.0099326,3.66737934 12.0235045,3.66703437 12.0374336,3.67117393 L12.0706491,3.67979799 L12.0810066,3.68462746 L12.079578,3.68324761 L12.0813637,3.68324761 C12.0813637,3.6842825 12.082078,3.68462746 12.0824352,3.68531739 L12.0838638,3.68566235 L12.0867211,3.6870422 L12.0852924,3.6870422 C12.0846756,3.68686818 12.0840776,3.68663713 12.0835067,3.68635228 C12.0849353,3.68738716 12.0863639,3.6898019 12.0877925,3.69290656 C12.0949357,3.70498025 12.100293,3.72947259 12.1027931,3.75603471 C12.1060075,3.81157367 12.0992215,3.87539174 12.0885069,3.93610514 C12.0777922,3.99681855 12.0645774,4.05580714 12.0513626,4.11065618 C12.0245759,4.22035426 11.9988607,4.31349415 11.9820744,4.37972695 C11.9642166,4.44526983 11.9549305,4.4842506 11.9549305,4.4842506 C11.9549305,4.4842506 11.9845745,4.45665359 12.0288618,4.40214952 C12.0735063,4.34833536 12.1335085,4.26864902 12.1935107,4.16412537 C12.2231546,4.11169107 12.2531557,4.0533924 12.2792281,3.9871596 C12.3053005,3.92127176 12.3288728,3.8481397 12.3363731,3.75948433 C12.3408067,3.70831186 12.3344896,3.65680172 12.317801,3.60804578 C12.3129253,3.59301457 12.306337,3.57855257 12.2981574,3.56492547 L12.2981574,3.56458051 Z" id="Path" fill="#000000" fill-rule="nonzero"></path>
                <polygon id="Path" fill="#000000" fill-rule="nonzero" points="12.0824352 3.68531739 12.0810066 3.68462746 12.0827924 3.68600731 12.0835067 3.68635228 12.0831495 3.68600731"></polygon>
                <path d="M1.63919615,6.73685588 L1.6640223,6.73685588 C1.65567265,6.72321026 1.64739716,6.70952657 1.63919615,6.69580534 L1.63919615,6.73720085 L1.63919615,6.73685588 Z M1.86112692,6.09384574 C1.91454076,6.19216006 1.97096384,6.26598204 2.01346922,6.31565664 C2.03378153,6.34083891 2.05258922,6.35912192 2.06462615,6.37188553 L2.08418615,6.39120343 L2.06312153,6.29461393 C2.0503323,6.23390052 2.0307723,6.14800485 2.01309307,6.04796572 C2.00342078,5.99574293 1.99639171,5.94313725 1.99202845,5.89031785 C1.98695764,5.83956003 1.99025465,5.78839125 2.00180845,5.73853434 C2.00582206,5.72219526 2.01350893,5.70680392 2.02437768,5.69334425 C2.03144195,5.68677325 2.0402613,5.68201558 2.04995615,5.67954575 L2.05860768,5.6781659 L2.07252538,5.67575116 C2.07628691,5.67506123 2.07139691,5.67782093 2.07102076,5.67782093 C2.06953017,5.6785828 2.06783465,5.67894163 2.06613076,5.67885582 L2.06387384,5.67885582 L2.06575461,5.67954575 C2.06838768,5.68058063 2.07064461,5.68058063 2.07327768,5.6809256 C2.08681922,5.68541011 2.10713153,5.69541402 2.1285723,5.71024741 C2.17295845,5.73991419 2.21922537,5.78613917 2.26361153,5.83270911 C2.30724537,5.8806589 2.35012691,5.93067846 2.39075153,5.98104299 C2.4716246,6.08211701 2.54610306,6.18043133 2.61192999,6.26529211 C2.6862115,6.36132723 2.76309623,6.45564638 2.84251229,6.54816138 L2.83912691,6.52228919 C2.83649383,6.50538603 2.8334846,6.48054873 2.82633768,6.44984706 C2.78295859,6.2441359 2.7062512,6.04553734 2.5987646,5.86065107 C2.56222414,5.79771575 2.52073764,5.73730272 2.47463383,5.67989071 C2.42374973,5.61447461 2.36295306,5.55604771 2.29407999,5.50637456 C2.25018014,5.47649713 2.20109059,5.45363776 2.14888461,5.4387619 C2.13309105,5.43531042 2.11715473,5.43243348 2.10111307,5.43013784 L2.08907615,5.42875799 L2.07252538,5.42875799 C2.05161857,5.42881963 2.03074623,5.43031867 2.01008384,5.4332425 L1.9965423,5.43669213 L1.98300076,5.44014175 L1.96494538,5.44497123 L1.95967922,5.447041 L1.94914692,5.45152552 C1.89038343,5.47425059 1.84090361,5.51335194 1.80771307,5.56329337 C1.78007772,5.60621363 1.76348216,5.6543495 1.75918922,5.70403808 C1.75332099,5.77896805 1.76302207,5.85423841 1.78777692,5.92584899 C1.80846538,5.98897713 1.83441999,6.0445161 1.86112692,6.09384574 L1.86112692,6.09384574 Z" id="Shape" fill="#221F1F" fill-rule="nonzero"></path>
                <path d="M2.64244712,16.290248 C3.045319,16.290248 3.3289008,16.078786 3.5281938,15.8038509 C3.19188942,15.052085 2.87228075,14.2934537 2.56958732,13.5284781 C2.47315522,13.6078195 2.36243688,13.7271765 2.24207534,13.9072469 C1.94242152,14.3556982 1.69562678,15.3985199 2.00635243,15.9494251 C2.13600003,16.1788252 2.34386478,16.290593 2.64208997,16.290593 L2.64244712,16.290248 Z M16.8661816,13.7057888 C16.6304587,13.1155579 16.1279403,12.6964285 15.6447083,12.6867695 L15.6275648,12.6853897 C15.6268505,12.6853897 15.53399,12.6715912 15.4096997,12.6715912 C15.1464758,12.6715912 14.8236069,12.7260952 14.7789624,12.9841272 C14.7478898,13.1635077 14.8289642,13.2552678 15.0007562,13.4294738 C15.197192,13.6288622 15.4654161,13.9017275 15.5457761,14.4712607 C15.6379224,15.1239298 15.8029284,15.4550938 16.0361512,15.4550938 C16.1450838,15.4550938 16.3433053,15.3919656 16.6718888,15.0918482 C17.0761893,14.7217034 17.0372593,14.1331974 16.8661816,13.7057888 Z" id="Shape" fill="#DFCAA3" fill-rule="nonzero"></path>
                <ellipse id="Oval" fill="#221F1F" fill-rule="nonzero" cx="4.61644788" cy="10.9371196" rx="1" ry="1"></ellipse>
                <ellipse id="Oval" fill="#221F1F" fill-rule="nonzero" cx="9.8648541" cy="9.71077781" rx="1" ry="1"></ellipse>
                <path d="M3.14639412,5.09000479 C3.56926673,5.2003928 4.04714135,5.25627673 4.56751752,5.25627673 C5.40326237,5.25627673 7.17725582,5.09931878 9.6712756,4.04890789 L9.72734908,4.02545044 C9.71975185,3.89231995 9.73129056,3.75881477 9.76163604,3.62874353 C9.81699521,3.38554495 9.92664208,3.17994729 10.0609327,3.04334213 C10.0438491,2.97711905 10.0231043,2.91182755 9.99878757,2.84774838 C9.71127706,2.69941449 7.33869029,1.84597721 6.10150219,1.84597721 C5.97792624,1.84597721 5.869708,1.85494623 5.78041902,1.87253932 C4.68395035,2.08848586 3.01781799,3.92989582 2.9578158,4.19068749 C2.939958,4.3038352 2.94531534,4.65811171 2.95853011,5.04102011 L3.14639412,5.09000479 Z M3.12496477,7.70482073 C3.08962556,7.69707001 3.05384957,7.69131091 3.01781799,7.6875726 C2.89340203,7.69452119 2.77137226,7.65253076 2.67953046,7.57116791 C2.58768865,7.48980506 2.53385712,7.37599959 2.53030016,7.25567952 C2.4060099,7.32363714 2.28171965,7.39711416 2.16528682,7.47542065 L1.95813638,7.61375062 L1.80563081,7.41988168 C1.75955769,7.36158302 1.54740708,7.08526803 1.35204279,6.72167753 C0.985243662,6.88898436 0.698447459,7.0718145 0.628444899,7.24498568 C0.61523013,7.27775712 0.620587469,7.29569517 0.634159394,7.31501308 C0.694161588,7.39987386 1.04953173,7.65859575 3.12496477,7.70482073 L3.12496477,7.70482073 Z M7.43440808,7.13701241 C7.61293719,7.02714537 7.84600682,7.04891669 7.99942874,7.18979168 C8.0410915,7.18226926 8.08155568,7.16951228 8.11979029,7.1518458 C8.34694145,7.04732216 9.16625713,6.20216397 9.78913705,5.47877756 C9.8110147,5.45326916 9.83581695,5.43023949 9.86306832,5.41013001 C8.4405163,6.00381052 6.4522293,6.65302999 4.55930294,6.65302999 C4.25500609,6.65302999 3.96642411,6.63578186 3.69784286,6.6023205 L3.7396301,6.72029768 L3.50283573,6.80791816 C3.50104995,6.80860809 3.46033418,6.82378644 3.3921174,6.85103848 C3.69712855,6.92003098 4.10892932,7.05525629 4.62644825,7.25705937 C5.57291143,7.62616927 5.93542469,7.64031274 6.02614229,7.6351383 C6.15641335,7.56899628 6.3115611,7.56694528 6.44365756,7.6296189 C6.62760062,7.6190657 6.81132852,7.6052649 6.99474914,7.5882234 C7.07140801,7.57781643 7.14728513,7.56260599 7.22190031,7.54268834 C7.21047543,7.38007918 7.29200112,7.22444718 7.43440808,7.13701241 L7.43440808,7.13701241 Z M12.9463954,4.42077749 C12.8774643,4.81782936 12.7449594,5.25351703 12.6570991,5.3725291 L12.5745961,5.48395199 C12.9091708,5.32793224 13.2390784,5.16274325 13.563918,4.98858581 C14.5471682,4.45596367 14.6693155,4.222769 14.6832446,4.16412537 C14.6925307,4.12583453 14.6828874,4.11376084 14.6786016,4.10893137 C14.6678869,4.09582279 14.5989558,4.03096984 14.2882302,4.03096984 C13.948932,4.03096984 13.4739147,4.10582671 12.9781822,4.21000539 C12.969237,4.28048573 12.9586387,4.35076115 12.9463954,4.42077749 L12.9463954,4.42077749 Z M12.5631671,5.48947139 L12.4213762,5.47808763 C12.4188761,5.47808763 12.1585094,5.45773484 11.8052822,5.45773484 C11.4388402,5.45773484 10.9552511,5.47912252 10.5584509,5.56984766 C10.634168,5.72197614 10.6170245,5.90929079 10.4977344,6.0472758 C10.4009451,6.1604235 10.2366534,6.34877304 10.0398605,6.56471958 C10.3983873,6.42431065 10.7552103,6.27987656 11.1102568,6.13144665 C11.6402762,5.90929079 12.1288655,5.69334425 12.5631671,5.48912643 L12.5631671,5.48947139 Z" id="Shape" fill="#648C1A" fill-rule="nonzero"></path>
                <path d="M9.77627944,4.28210256 C8.77981442,4.70192195 6.5965203,5.51016915 4.56751752,5.51016915 C4.05357016,5.51016915 3.54962316,5.45842477 3.07782019,5.33561811 C3.1271077,5.40771528 3.17568091,5.48429696 3.22425411,5.56639804 C3.39926051,5.8641007 3.52783664,6.15835373 3.5978392,6.33186988 C3.91606856,6.37798939 4.23751655,6.40024847 4.55930294,6.39844765 C5.7247027,6.39844765 7.54655504,6.14076064 10.0462893,5.05412869 C10.0855765,4.93511662 10.1377212,4.78609281 10.2023664,4.62051079 L10.1873659,4.62154568 C10.1608232,4.62154439 10.1343586,4.61876852 10.1084344,4.61326658 C9.95307162,4.58015018 9.83842457,4.45803344 9.77627944,4.28210256 L9.77627944,4.28210256 Z" id="Path" fill="#DFCAA3" fill-rule="nonzero"></path>
                <path d="M1.66276844,6.73685588 C1.84277502,7.04663223 2.01528133,7.2660284 2.01528133,7.2660284 C2.61887483,6.86242224 3.40854657,6.57058395 3.40854657,6.57058395 C3.40854657,6.57058395 3.38854584,6.51297521 3.35033015,6.41880044 C3.29086135,6.27100776 3.22508844,6.12565429 3.15318009,5.98311277 C3.12070945,5.91841296 3.08689182,5.8543519 3.05174781,5.79096864 C2.9910313,5.68161552 2.92317167,5.57019262 2.84959756,5.46325424 C2.60708869,5.11242735 2.2999346,4.81368981 1.95599345,4.81368981 C1.84741805,4.81368981 1.73527109,4.84370155 1.62026688,4.91027931 C0.988100909,5.27973418 1.31454142,6.12489236 1.63919615,6.69580534 L1.66276844,6.73720085 L1.66276844,6.73685588 Z M1.75312889,5.70403808 C1.75731417,5.65432168 1.7731943,5.60618403 1.79955916,5.56329337 C1.83098028,5.51340693 1.87782905,5.47431149 1.93349262,5.45152552 L1.94349299,5.447041 L1.94849317,5.44497123 L1.96563666,5.44014175 L1.97849427,5.43669213 L1.99135188,5.4332425 C2.01096153,5.43020186 2.03077985,5.42858749 2.05063977,5.42841303 L2.06635463,5.42875799 L2.07778362,5.43013784 C2.09278416,5.43255258 2.10849902,5.43531228 2.12314242,5.4387619 C2.1792159,5.45497514 2.22314607,5.48015741 2.26064745,5.50637456 C2.33350725,5.56053367 2.38600917,5.61952227 2.43208229,5.67989071 C2.47851256,5.73956922 2.51637108,5.80062759 2.54994374,5.86065107 C2.65212556,6.04551777 2.72507947,6.24411715 2.76638023,6.44984706 C2.77316619,6.48054873 2.77602344,6.50538603 2.77852353,6.52228919 L2.78173793,6.54816138 C2.78173793,6.54816138 2.75745133,6.52021942 2.71852133,6.47054481 C2.67923418,6.42121517 2.62530364,6.34980793 2.56280135,6.26529211 C2.50029907,6.18043133 2.4295822,6.08211701 2.35279367,5.98104299 C2.31410367,5.93044002 2.27384589,5.88097301 2.23207497,5.83270911 C2.19385173,5.78758433 2.15074864,5.746531 2.10349884,5.71024741 C2.08756639,5.69824614 2.07002562,5.68838269 2.05135408,5.6809256 C2.04889819,5.6809652 2.04646216,5.68049463 2.04421096,5.67954575 L2.04242518,5.67851086 L2.04456812,5.67885582 C2.04599674,5.67885582 2.04778252,5.67885582 2.04921114,5.67782093 C2.04921114,5.67782093 2.05421133,5.67506123 2.05063977,5.67575116 L2.037425,5.6781659 L2.02921041,5.67989071 C2.02004263,5.68226205 2.01167236,5.68689875 2.00492381,5.69334425 C1.99464865,5.70670155 1.987352,5.72197121 1.98349445,5.73818937 C1.9724882,5.78815827 1.96935756,5.83944598 1.9742084,5.89031785 C1.97813711,5.94482193 1.98563739,5.99829112 1.99420913,6.04796572 C2.01099546,6.14800485 2.02992472,6.23390052 2.04171087,6.29461393 C2.05492564,6.35532733 2.0617116,6.39120343 2.0617116,6.39120343 C2.0617116,6.39120343 2.05456848,6.38464915 2.04313949,6.37188553 C2.0317105,6.35912192 2.01385271,6.34083891 1.99456629,6.31565664 C1.93877031,6.24659232 1.89031021,6.17228112 1.84991814,6.09384574 C1.82185518,6.03983719 1.7985575,5.98363917 1.78027274,5.92584899 C1.75676815,5.85423841 1.74755703,5.77896805 1.75312889,5.70403808 L1.75312889,5.70403808 Z M1.95599345,4.6867436 L1.95599345,4.81368981 L1.95599345,4.6867436 Z" id="Shape" fill="#67CFE3" fill-rule="nonzero"></path>
                <path d="M10.4252317,2.86672132 C10.4516613,2.86672132 10.4780908,2.86948102 10.503806,2.87500042 C10.6970274,2.91639592 10.8277465,3.09577643 10.8716766,3.34483938 C11.2399044,2.84533364 11.6417048,2.59282107 12.0713634,2.59282107 C12.2520843,2.59282107 12.4110186,2.63387161 12.5442378,2.71355796 C12.7706747,2.44724689 12.9149656,2.26372682 12.9149656,2.26372682 C12.7446023,2.29373856 12.3885178,2.33858369 12.3885178,2.33858369 C13.7357099,1.86012067 13.6274917,0.558922026 13.6274917,0.558922026 C13.6274917,0.783147667 12.9310377,1.32163417 12.9310377,1.32163417 C12.9617531,1.1270753 12.8535348,0.873182886 12.8535348,0.873182886 C12.8842502,1.1270753 12.0485054,1.7852638 12.0485054,1.7852638 C12.1102934,1.66556181 12.0638631,1.45616955 12.0638631,1.45616955 C12.0174328,1.69557355 11.6459907,1.7852638 11.6459907,1.7852638 C11.878142,1.51619303 12.3113721,0.0952923924 11.9863603,0.00560213591 C11.6613484,-0.0840881206 11.2124034,0.932861403 11.2124034,0.932861403 C11.1966885,0.693457411 11.0573977,0.693457411 11.0573977,0.693457411 C11.1195428,1.44133616 10.5002345,2.03950118 10.5002345,2.03950118 C10.4538042,1.88978745 10.205938,1.81527554 10.205938,1.81527554 C10.2855838,1.98154748 10.1948662,2.73908518 10.167008,2.95399684 C10.2491539,2.89811291 10.3370142,2.86672132 10.4255889,2.86672132 L10.4252317,2.86672132 Z" id="Path" fill="#DFCAA3" fill-rule="nonzero"></path>
                <path d="M10.0941482,4.32142828 L10.0952197,4.32246317 C10.1016485,4.32936242 10.1087916,4.33591671 10.1155776,4.34109115 L10.123435,4.34626559 L10.1391498,4.35592454 C10.1522608,4.36236858 10.1666089,4.36612673 10.1812942,4.36696334 C10.189866,4.3673083 10.199152,4.36696334 10.2080809,4.36558349 C10.2575968,4.35488063 10.3027884,4.33041817 10.3380857,4.29521113 C10.4166105,4.11507451 10.5043406,3.93881194 10.6009525,3.76707351 C10.6670263,3.42901023 10.5780945,3.1513154 10.4473754,3.12337344 C10.4400951,3.12190141 10.4326692,3.12120731 10.4252317,3.12129485 C10.290584,3.12129485 10.0955768,3.34690915 10.0187883,3.68324761 C9.96342914,3.92713612 9.98914436,4.14411755 10.0545039,4.26519939 L10.0545039,4.26554436 C10.0651494,4.28567391 10.0783465,4.30444606 10.093791,4.32142828 L10.0941482,4.32142828 Z" id="Path" fill="#000000" fill-rule="nonzero"></path>
                <circle id="Oval" fill="#67CFE3" fill-rule="nonzero" transform="translate(12.0985, 3.6995) rotate(-68.467) translate(-12.0985, -3.6995)" cx="12.0985072" cy="3.69946085" r="1"></circle>
                <polygon id="Path" fill="#67CFE3" fill-rule="nonzero" points="12.0867211 3.6870422 12.0838638 3.68566235 12.0824352 3.68531739 12.0831495 3.68600731 12.0831495 3.68635228 12.0852924 3.6870422"></polygon>
                <path d="M12.0713634,2.84705845 C11.3045496,2.84705845 10.7402433,3.96163237 10.4455896,4.71917008 C10.3677121,4.91915999 10.2976599,5.12191165 10.2355819,5.32699404 C10.2727262,5.3338933 10.3087989,5.34631195 10.3438002,5.36252518 C10.7906022,5.2335092 11.3688377,5.20349746 11.8052822,5.20349746 C12.1749386,5.20349746 12.4428055,5.22454017 12.4428055,5.22454017 C12.5588812,5.06758223 13.2321201,2.84705845 12.0713634,2.84705845 L12.0713634,2.84705845 Z M12.3363731,3.75982929 C12.3288485,3.83799475 12.3095989,3.91468851 12.2792281,3.98750456 C12.2547663,4.04815889 12.2261299,4.10716429 12.1935107,4.16412537 C12.1456816,4.24781299 12.0906019,4.32743879 12.0288618,4.40214952 C11.9845745,4.45630863 11.9549305,4.4842506 11.9549305,4.4842506 C11.9549305,4.4842506 11.9642166,4.44561479 11.9820744,4.37972695 C11.9988607,4.31349415 12.0245759,4.22035426 12.0513626,4.11065618 C12.0645774,4.05580714 12.0777922,3.99681855 12.0881497,3.93610514 C12.0988644,3.87539174 12.1060075,3.81157367 12.1024359,3.75603471 C12.1015621,3.73434334 12.0967256,3.71297188 12.0881497,3.69290656 C12.0870981,3.69042991 12.0855157,3.68819622 12.0835067,3.68635228 L12.0827924,3.68635228 L12.0810066,3.68462746 L12.0702919,3.67979799 L12.0374336,3.67117393 C12.0235045,3.66703437 12.0099326,3.66703437 11.9963606,3.66392971 C11.9827887,3.66151497 11.9699311,3.66289482 11.9567163,3.66151497 C11.9435977,3.66254813 11.9304998,3.66381321 11.9174292,3.66530956 C11.8616046,3.67602472 11.8091397,3.69917634 11.7642093,3.73292222 C11.7142074,3.76879832 11.6670629,3.8150233 11.623847,3.8646979 C11.5374153,3.96473703 11.4666984,4.07512504 11.4070534,4.17171455 C11.3477655,4.26864902 11.2999066,4.35316484 11.2656196,4.41249839 L11.2120462,4.50667316 C11.2120462,4.50667316 11.2113319,4.49701421 11.2116891,4.47838623 C11.2124034,4.45975826 11.2120462,4.43216126 11.2156178,4.39800997 C11.2213323,4.32901746 11.2349042,4.2310481 11.2666911,4.11548566 C11.2988351,4.00026817 11.3477655,3.86711264 11.4349115,3.73292222 C11.4788417,3.66634445 11.5327722,3.59907676 11.6049177,3.54077809 C11.6759918,3.48213446 11.7692095,3.43245986 11.8745705,3.41452181 C11.9006428,3.41107218 11.9277867,3.40934737 11.9538591,3.40831248 C11.9802886,3.41003729 12.0070753,3.40969233 12.0324334,3.41417684 C12.0574343,3.41900632 12.0838638,3.42211098 12.1067218,3.43039008 L12.1420802,3.44177385 L12.1592237,3.44798317 L12.1617238,3.4486731 L12.1627953,3.4486731 L12.1749386,3.4541925 L12.178153,3.45591731 L12.1845818,3.45936694 C12.189582,3.45936694 12.2524414,3.49765778 12.2685134,3.52249508 L12.2852998,3.54319283 L12.2981574,3.56492547 C12.306337,3.57855257 12.3129253,3.59301457 12.317801,3.60804578 C12.3378017,3.66530956 12.3392303,3.71498417 12.3363731,3.75982929 L12.3363731,3.75982929 Z" id="Shape" fill="#67CFE3" fill-rule="nonzero"></path>
                <path d="M7.97371352,7.81382889 C8.09907524,7.81382889 8.23693743,7.78174737 8.38372851,7.7179293 C8.68909682,7.58511873 9.43483838,6.86173232 10.283798,5.87548446 C10.3149924,5.83972136 10.330025,5.79336431 10.3255267,5.74680358 C10.3210283,5.70024285 10.2973751,5.65737253 10.2598686,5.62780137 C10.1825359,5.56572353 10.0677503,5.57591463 10.0034306,5.65056889 C9.63413138,6.08004724 8.59659344,7.23049726 8.23943752,7.39469942 L8.23408018,7.39711416 C8.17321212,7.42469843 8.10884629,7.444416 8.04264461,7.45575779 L7.90692536,7.47645554 L7.8069217,7.38469551 C7.74603653,7.32989192 7.65463778,7.32140362 7.58405641,7.36399775 C7.5429288,7.38882277 7.51385772,7.42857215 7.50337961,7.47430853 C7.49290149,7.52004491 7.50189575,7.56792969 7.52834009,7.60719633 C7.54226917,7.62789409 7.67298823,7.81417385 7.97371352,7.81417385 L7.97371352,7.81382889 Z M6.24222162,7.85246469 C6.21233064,7.85252084 6.18290596,7.85962587 6.1565042,7.87316244 L6.10293082,7.90041448 L6.04257147,7.90386411 C6.02806075,7.90462102 6.01353014,7.90496613 5.99899844,7.90489899 C5.82899223,7.90489899 5.4111198,7.85315461 4.52180157,7.50646728 C3.54140857,7.12390384 3.15318009,7.06698502 3.0088891,7.06698502 C2.99191234,7.06671969 2.97494366,7.06787388 2.95817295,7.07043465 C2.91061594,7.0785719 2.86839526,7.10472193 2.84089687,7.14307138 C2.81339848,7.18142084 2.80290133,7.22879148 2.81173903,7.27465246 C2.82871041,7.36152594 2.90923394,7.423128 3.00067451,7.41919176 L3.02067524,7.41781191 L3.04067597,7.41953672 C3.14889422,7.42816078 3.49640692,7.48576953 4.38572516,7.83280183 C5.10432287,8.11325636 5.64898564,8.25538092 6.00364147,8.25538092 C6.18936255,8.25538092 6.31686721,8.21674512 6.38222674,8.14085336 C6.41342111,8.10509026 6.42845378,8.05873321 6.4239554,8.01217248 C6.41945702,7.96561175 6.39580381,7.92274143 6.3582973,7.89317027 C6.3257853,7.86680642 6.28467254,7.85238894 6.24222162,7.85246469 L6.24222162,7.85246469 Z" id="Shape" fill="#000000" fill-rule="nonzero"></path>
                <path d="M8.70338306,11.5149318 C8.70338306,11.5149318 8.65230976,12.0955037 7.80585023,12.2162406 C7.6681625,12.2369078 7.529099,12.2478606 7.38976359,12.2490121 C6.93974713,12.2490121 6.7625978,12.1058526 6.65830827,11.9816661 C6.65830827,11.9816661 5.84756433,12.2459074 5.7854192,12.6947037 C5.73898894,13.0300072 6.07364403,13.2024885 6.36865482,13.2024885 C6.46794416,13.2024885 6.56294764,13.1828256 6.63687891,13.1431549 C6.93117539,12.986197 7.37262011,12.6422693 7.9608559,12.5674125 C8.01407214,12.5605132 8.0872891,12.5584435 8.1747923,12.5584435 C8.37587108,12.5584435 8.65052398,12.5712071 8.91660514,12.5712071 C9.2191162,12.5712071 9.51055543,12.5546489 9.67163275,12.4853114 C10.0355746,12.3283534 10.0355746,12.0592827 10.0123595,11.9244023 C9.98664427,11.7753785 9.6169879,11.522521 8.70338306,11.5149318 L8.70338306,11.5149318 Z" id="Path" fill="#DFCAA3" fill-rule="nonzero"></path>
                <path d="M7.71798988,11.9930499 L7.74799098,11.9878754 L7.78084932,11.9816661 C8.22086541,11.8943906 8.54480583,11.6487773 8.54837739,11.402819 C8.54907645,11.3529461 8.53640341,11.3037469 8.51159033,11.2600045 C8.39730044,11.0554417 8.03192993,10.9429839 7.61512897,10.9930035 C7.59256445,10.9956611 7.57005887,10.9987664 7.54762651,11.0023175 C7.04403666,11.0830387 6.67438029,11.3703925 6.72152487,11.6439478 C6.72402496,11.6594711 6.72866799,11.6749944 6.73366817,11.6898278 C6.8200999,11.9347512 7.24368682,12.0692866 7.71798988,11.9933948 L7.71798988,11.9930499 Z" id="Shape" fill="#221F1F" fill-rule="nonzero"></path>
            </g>
        </g>
    </g>
</svg>