<?xml version="1.0" encoding="UTF-8"?>
<svg width="20px" height="20px" viewBox="0 0 20 20" version="1.1" xmlns="http://www.w3.org/2000/svg" xmlns:xlink="http://www.w3.org/1999/xlink">
    <title>Jfrog</title>
    <g id="Jfrog" stroke="none" stroke-width="1" fill="none" fill-rule="evenodd">
        <g id="jfrog-ar21">
            <polygon id="Frame" points="0 0 20 0 20 20 0 20"></polygon>
            <path d="M8.43573538,13.0614204 L7.43182944,13.3408163 C7.51930212,13.5940073 7.58905882,14.0483485 7.58905882,14.6595501 L7.58905882,17.6638862 L8.71586943,17.6638862 L8.71586943,14.4853429 C8.92550861,14.2321519 9.15249469,14.1096163 9.39719677,14.1096163 C9.51899418,14.1096163 9.61569394,14.1354521 9.72051353,14.197089 L10.0261143,13.1577511 C9.85153802,13.0791364 9.77292333,13.0617895 9.60683595,13.0617895 C9.48503854,13.0617895 9.33592898,13.0876253 9.23996738,13.1319153 C9.0303282,13.2367348 8.76827922,13.4725789 8.60256092,13.699565 C8.60256092,13.446374 8.54129314,13.2455928 8.43647354,13.0621586 L8.43573538,13.0614204 Z M4.55408876,11.5769683 L4.43229135,11.5769683 L4.43229135,17.6557664 L5.60228467,17.6557664 L5.60228467,14.9651508 L7.07861694,14.9651508 L7.07861694,13.9612449 L5.60228467,13.9612449 L5.60228467,12.5638964 L7.44511643,12.5638964 L7.51524221,12.0309405 C6.51769803,11.959395 5.52755542,11.8074547 4.55445785,11.5765992 L4.55408876,11.5769683 Z M1.82029049,18.4677491 L2.36173535,19.0966667 C2.8858333,18.8870275 3.54095575,18.4153394 3.71553204,17.6646244 C3.77679983,17.4199223 3.79414673,17.2623239 3.79414673,16.4680571 L3.79414673,11.5854572 L2.61492633,11.5854572 L2.61492633,16.5987125 C2.61492633,17.2538349 2.58909052,17.4981679 2.50124875,17.7255231 C2.38757116,17.9787141 2.11740236,18.2754569 1.81992141,18.4673801 L1.82029049,18.4677491 Z M12.4498828,15.3847983 C12.4498828,16.4503411 12.2402436,16.9046824 11.7596975,16.9046824 C11.5412003,16.9046824 11.2968673,16.7828849 11.1920477,16.5378138 C11.104575,16.3108277 11.0517962,15.9266122 11.0517962,15.4025143 C11.0517962,14.957031 11.095348,14.6422032 11.1654737,14.3986083 C11.2529464,14.1192125 11.4710745,13.9446362 11.7419815,13.9446362 C11.9427627,13.9446362 12.1177081,14.0321089 12.2225276,14.1808493 C12.379757,14.3904885 12.4495137,14.783562 12.4495137,15.3862746 L12.4498828,15.3847983 Z M13.1400681,17.1316684 C13.5069367,16.6950432 13.6730241,16.1620872 13.6730241,15.3932872 C13.6730241,14.6684081 13.5246527,14.170515 13.183989,13.7508676 C12.8171205,13.2968954 12.3454323,13.0783982 11.7342307,13.0783982 C10.5812152,13.0783982 9.8127843,14.0129165 9.8127843,15.427981 C9.8127843,16.8430455 10.5730954,17.7513589 11.7342307,17.7513589 C12.3893532,17.7602169 12.8171205,17.5151458 13.1367464,17.1312994 L13.1400681,17.1316684 Z M16.3363275,14.6163673 C16.3363275,15.0267877 16.0916254,15.2537738 15.6550002,15.2537738 C15.2619267,15.2537738 14.9998777,15.0703395 14.9998777,14.6163673 C14.9998777,14.197089 15.2445798,13.952756 15.6634891,13.952756 C16.0823984,13.952756 16.3359584,14.1974581 16.3359584,14.6163673 L16.3363275,14.6163673 Z M18.3190417,13.6556441 L17.8595333,12.9167398 C17.6011752,13.1614419 17.2830256,13.3005862 16.973734,13.3005862 C16.8334824,13.3005862 16.7552368,13.2832393 16.449636,13.2046246 C16.2006355,13.1284419 15.9415978,13.0901212 15.6812051,13.090947 C14.5894574,13.090947 13.8819251,13.6851708 13.8819251,14.6108311 C13.8819251,15.2744425 14.179037,15.6937208 14.7990965,15.8598082 C14.5459055,15.921076 14.2749986,16.0517314 14.1532012,16.2004719 C14.0657285,16.3052915 14.0221767,16.4451739 14.0221767,16.6108922 C14.0221357,16.7383522 14.0521016,16.8640317 14.1096494,16.9777608 C14.1709172,17.0737224 14.2499009,17.1523371 14.3543514,17.196258 C14.5551326,17.2748727 14.8784494,17.3272825 15.3767115,17.3365095 L15.8483997,17.3453675 C16.1540005,17.3627144 16.3112299,17.4154933 16.4333964,17.476392 C16.5470739,17.5465178 16.6341775,17.7033781 16.6341775,17.8786926 C16.6341775,18.054007 16.529358,18.2282142 16.3632706,18.3326647 C16.2148992,18.4374843 15.9701971,18.4810361 15.6557383,18.4810361 C15.1404984,18.4810361 14.8522445,18.2891129 14.8522445,17.9311024 C14.8522445,17.773873 14.8695914,17.7391792 14.9046543,17.6432176 L13.877127,17.6432176 C13.8335752,17.7306903 13.7811654,17.8528568 13.7811654,18.0971897 C13.7811654,18.4027905 13.894843,18.6648395 14.1306871,18.8918256 C14.5145335,19.2675522 15.1438201,19.3723717 15.7465328,19.3723717 C16.4101441,19.3723717 17.0567777,19.2151424 17.4321351,18.795864 C17.6683483,18.5375058 17.7727988,18.2459302 17.7727988,17.8702037 C17.7727988,17.4679031 17.6591212,17.1626714 17.4059302,16.9094804 C17.1088184,16.6215956 16.7685238,16.516407 16.1134013,16.5071799 L15.5106887,16.4983219 C15.3970111,16.4983219 15.3272544,16.4547701 15.3272544,16.3935023 C15.3272544,16.2717049 15.4844838,16.1665162 15.7727377,16.0266337 L15.938825,16.0354917 C16.8467694,16.0354917 17.5111189,15.4767 17.5111189,14.699411 C17.5111189,14.4022992 17.4236462,14.1753131 17.2579279,13.9656739 C17.3981795,13.9830208 17.4413622,13.9915097 17.5458127,13.9915097 C17.8429246,13.9915097 18.0787687,13.8955481 18.3231017,13.659335 L18.3190417,13.6556441 Z M4.2569769,6.29243694 C2.8596284,6.63310061 1.90739409,7.30556996 1.90739409,8.0740009 C1.90739409,8.55454706 2.27426266,8.99117233 2.87697531,9.331836 C2.69354102,9.0439512 2.59757943,8.72912335 2.59757943,8.41466457 C2.60643742,7.62002873 3.22649697,6.8774336 4.2569769,6.29243694 L4.2569769,6.29243694 Z M19,9.3056311 C19,8.79888005 18.6855412,8.33604988 18.1614433,7.95183441 C18.2049951,8.1090638 18.240058,8.26629318 18.240058,8.42352257 C18.240058,9.86479194 16.2226499,11.104911 13.3578272,11.6197819 C13.691396,11.6553427 14.0266438,11.6728382 14.3621022,11.672209 C16.9213242,11.6633337 19,10.6066489 19,9.30526201 L19,9.3056311 Z M17.3494605,8.51948417 C17.3494605,7.98652822 16.8954884,7.49712407 16.1178303,7.09593078 C16.3012646,7.31442795 16.3972262,7.54990295 16.3972262,7.79460502 C16.3972262,9.0790141 13.6722859,10.1179829 10.3010812,10.1179829 C6.93873446,10.1179829 4.20493618,9.07864501 4.20493618,7.79460502 C4.20497528,7.6283958 4.25027021,7.46533404 4.33596067,7.32291686 C3.79451581,7.68092744 3.48891503,8.09134781 3.48891503,8.52834216 C3.48891503,9.91720174 6.5892128,11.0436433 10.4151279,11.0436433 C14.2410429,11.0436433 17.3501987,9.89948575 17.3501987,8.51911508 L17.3494605,8.51948417 Z M14.3274084,8.44935838 C12.9123439,9.35730273 8.56306904,9.70719347 6.69403239,8.53683107 C5.22655811,7.61965965 5.73330916,6.16104337 1.5324057,2.96441493 C0.982471927,2.54513656 1.63722529,2.0996533 2.04764566,2.38790718 C2.45806603,2.67616105 2.08270855,2.74591775 2.91240728,3.57561649 C4.58915166,5.25236086 4.57180475,3.74170387 4.83385373,4.31747345 C5.39264549,5.51404075 6.61541769,6.71946605 6.61541769,6.71946605 C7.84704789,7.52295989 8.82511801,7.69753618 10.642114,6.46627507 C11.7951295,5.68898613 11.3234413,7.70639417 14.1447123,6.24777789 C15.1751922,5.71482194 15.1316404,6.0732016 16.1798363,4.61458532 C16.6164616,4.01187267 17.4457912,5.07741548 16.5031531,5.22578688 C16.1274265,5.28705467 15.49002,5.69747504 15.218744,6.34410857 C14.8256705,7.31368979 14.9917579,8.02971094 14.3277775,8.4489893 L14.3274084,8.44935838 Z M6.4843932,5.98646708 C6.13487154,5.82923769 5.76837205,5.23538304 5.62812049,4.99953896 C6.02119396,4.61569257 5.86433365,3.97717886 5.63697848,3.62839536 C5.41848131,3.2788737 5.14794342,3.37520438 4.85968954,3.05188761 C4.56257768,2.72857085 4.97336713,1.8903832 5.34872461,2.53664765 C6.75124026,4.95598716 7.68059142,3.95171213 8.82474893,3.80260257 C9.92535464,3.66235101 10.9034248,4.26543274 11.2005366,2.56248347 C11.2529464,2.28308759 11.5238534,2.2218198 11.5500583,2.67616105 C11.5758941,3.13899122 11.7508395,4.25694383 12.3535521,4.39682631 C12.9562648,4.5451977 13.4452998,4.25657474 13.5851823,4.09971444 C13.7250648,3.94285414 13.8036795,3.95946288 13.8645782,4.35807259 C13.925846,4.75114605 14.0830754,5.30144891 14.930121,4.69024735 C16.6685023,3.45012824 16.1702401,2.96958209 16.8515675,2.64663441 C17.2354139,2.46320012 17.8473536,3.05705478 16.9652451,3.50290712 C15.70741,4.14031358 15.5763855,4.92646051 14.7817496,5.42435357 C13.4456689,6.2629103 13.8560893,5.45941646 11.7072877,5.1534466 C10.8775889,5.03976901 10.61554,5.95694043 9.96890644,5.69489146 C8.49257417,5.0836899 7.45360534,5.20585639 6.48402412,5.98277625 L6.4843932,5.98646708 Z M11.1396379,1.50579865 C11.1920477,1.87266722 11.2533155,1.86380922 11.38434,1.88964504 C11.5153645,1.92470793 11.6814519,1.71506875 11.6814519,1.52277647 C11.6903099,1.32199528 11.5939792,1.1994597 11.402056,1.2083177 C11.2012748,1.21717569 11.131149,1.31313729 11.1436978,1.50542956 L11.1396379,1.50579865 Z M17.6022824,2.16092109 C17.7595118,2.30929248 18.1787902,2.21333089 18.2747518,2.0996533 C18.5279428,1.82025742 18.5331099,1.65417004 18.4057763,1.46224685 C18.2747518,1.27881256 18.0034757,1.30501746 17.7333069,1.50579865 C17.4631381,1.70657984 17.5148097,2.0823064 17.6022824,2.16092109 Z M17.4886048,4.01261084 C17.3575804,4.18718713 17.3483533,4.31821162 17.445053,4.41491138 C17.5498726,4.51973097 17.7595118,4.60683457 17.9078832,4.49352607 C18.0562546,4.37172866 18.0562546,4.1964142 17.933719,4.04804281 C17.8026945,3.89081342 17.6281182,3.89081342 17.4882358,4.01297992 L17.4886048,4.01261084 Z M4.23446283,1.8294845 C4.43524402,1.89075229 4.5315747,2.08267548 4.69729299,1.86454739 C4.78476568,1.7597278 4.79325459,1.6113564 4.67994609,1.45412702 C4.60982031,1.35816542 4.27764555,1.28803964 4.13850123,1.4282912 C3.99935692,1.56854277 4.12964324,1.79515977 4.23446283,1.83059175 L4.23446283,1.8294845 Z M0.138378953,1.70768708 C0.505247522,1.93467317 0.741091601,2.27533684 1.02417831,1.96604523 C1.12013991,1.86122564 1.2338175,1.67816044 1.03303631,1.31092279 C0.884664914,1.04001582 0.404118761,0.935196226 0.238400464,1.04001582 C0.0638241738,1.13597741 -0.145445925,1.52905088 0.142438867,1.70362717 L0.138378953,1.70768708 Z M3.51844168,3.44606833 C3.63211926,3.56786574 3.83290045,3.55974591 3.95506695,3.48962013 C4.06874453,3.41949435 4.05102854,3.23642915 3.93772004,3.07919976 C3.86759426,2.98323816 3.65832416,2.93082837 3.51844168,3.07919976 C3.3785592,3.22757115 3.43982699,3.35859564 3.51844168,3.44606833 Z" id="Shape" fill="#41BF47" fill-rule="nonzero"></path>
        </g>
    </g>
</svg>