<?xml version="1.0" encoding="UTF-8"?>
<svg width="20px" height="20px" viewBox="0 0 20 20" version="1.1" xmlns="http://www.w3.org/2000/svg" xmlns:xlink="http://www.w3.org/1999/xlink">
    <title>Kiali</title>
    <g id="Kiali" stroke="none" stroke-width="1" fill="none" fill-rule="evenodd">
        <g>
            <polygon id="Frame" points="0 0 20 0 20 20 0 20"></polygon>
            <g id="kiali" transform="translate(1, 3.4414)" fill-rule="nonzero">
                <path d="M11.4413762,0 C7.81915732,0 4.88275241,2.93640491 4.88275241,6.55862379 C4.88275241,10.1808427 7.82050801,13.1172476 11.4413762,13.1172476 C15.0622444,13.1172476 18,10.179492 18,6.55862379 C18,2.9377556 15.0635951,0 11.4413762,0 Z M11.4413762,12.119086 C9.19234844,12.1192226 7.1646985,10.7645461 6.3039382,8.68675456 C5.4431779,6.60896304 5.9188241,4.21725371 7.50907859,2.62690264 C9.09933309,1.03655157 11.4910135,0.560760128 13.5688573,1.42139425 C15.6467011,2.28202836 17.0015008,4.30959603 17.0015008,6.55862379 C17.0013143,9.6293732 14.5121256,12.1187131 11.4413762,12.119086 L11.4413762,12.119086 Z" id="Shape" fill="#013144"></path>
                <path d="M9.18943459,1.47360522 C10.6467051,2.761916 11.4812147,4.61353204 11.4812147,6.55862379 C11.4812147,8.50371555 10.6467051,10.3553316 9.18943459,11.6436424 C7.17779212,10.7523217 5.88069715,8.75888696 5.88069715,6.55862379 C5.88069715,4.35836063 7.17779212,2.36492593 9.18943459,1.47360522 Z M4.49442839,2.01725712 C5.13548645,2.01669334 5.76906732,2.15492916 6.35163021,2.42246651 C5.39952033,3.59045443 4.88057312,5.05173818 4.88275241,6.55862379 C4.88082433,8.06531898 5.39988341,9.52634324 6.35196788,10.6941057 C5.76940499,10.9616431 5.13582413,11.0998789 4.49476607,11.0993151 C2.01253142,11.0993151 0,9.06652159 0,6.55862379 C0,4.050726 2.01253142,2.01793419 4.49442839,2.01725712 Z" id="Combined-Shape" fill="#0093DD"></path>
            </g>
        </g>
    </g>
</svg>