<?xml version="1.0" encoding="UTF-8"?>
<svg width="20px" height="20px" viewBox="0 0 20 20" version="1.1" xmlns="http://www.w3.org/2000/svg" xmlns:xlink="http://www.w3.org/1999/xlink">
    <title>Kubernetes 2</title>
    <g id="Kubernetes" stroke="none" stroke-width="1" fill="none" fill-rule="evenodd">
        <g>
            <polygon id="Frame" points="0 0 20 0 20 20 0 20"></polygon>
            <g id="kubernetes" fill-rule="nonzero">
                <path d="M6.38553524,19.6812749 C5.919987,19.6812749 5.48030256,19.4687915 5.18286897,19.0836653 L0.656705585,13.3067729 C0.359271991,12.9216467 0.242884933,12.4302789 0.359271991,11.9521912 L1.97575891,4.74103584 C2.07921407,4.2629482 2.38957957,3.87782204 2.81633211,3.66533864 L9.35987117,0.451527223 C9.56678152,0.345285524 9.79955562,0.292164674 10.0323297,0.292164674 C10.2651038,0.292164674 10.497878,0.345285524 10.7047883,0.451527223 L17.2483273,3.65205842 C17.6750799,3.86454183 17.9854454,4.24966799 18.0889005,4.72775563 L19.7053874,11.938911 C19.8088427,12.4169987 19.7053874,12.9083665 19.4079539,13.2934927 L14.8817905,19.0703851 C14.5843569,19.442231 14.1446724,19.6679946 13.6791242,19.6679946 L6.38553524,19.6812749 L6.38553524,19.6812749 Z" id="Path" fill="#326DE6"></path>
                <path d="M10.0193978,0.624169986 C10.2004444,0.624169986 10.3814909,0.664010623 10.5496056,0.743691898 L17.0931446,3.9442231 C17.4293739,4.11686586 17.6880118,4.43559096 17.7656032,4.80743691 L19.3820901,12.0185923 C19.4726133,12.4037184 19.3820901,12.8021248 19.1363841,13.1075697 L14.6102207,18.8844621 C14.3774466,19.189907 14.0153535,19.3625498 13.6403285,19.3625498 L6.38553524,19.3625498 C6.01051027,19.3625498 5.6484172,19.189907 5.41564308,18.8844621 L0.889479701,13.1075697 C0.656705585,12.8021248 0.566182317,12.4037184 0.643773689,12.0185923 L2.26026061,4.80743691 C2.35078388,4.42231075 2.59648989,4.10358565 2.93271917,3.9442231 L9.47625825,0.730411685 C9.64437283,0.664010623 9.83835132,0.624169986 10.0193978,0.624169986 L10.0193978,0.624169986 Z M10.0193978,0 L10.0193978,0 C9.74782805,0 9.47625825,0.0664010623 9.21762033,0.185922974 L2.67408127,3.39973439 C2.15680545,3.65205842 1.79471238,4.11686586 1.66539342,4.687915 L0.0489065017,11.8990703 C-0.0804124518,12.4701195 0.0489065017,13.0544489 0.410999572,13.5192563 L4.93716296,19.2961487 C5.28632413,19.7476759 5.81653184,20 6.37260334,20 L13.6273967,20 C14.1834681,20 14.7136758,19.7476759 15.062837,19.2961487 L19.5890004,13.5192563 C19.9510935,13.0677291 20.0804125,12.4701195 19.9510935,11.8990703 L18.3346066,4.687915 C18.2052876,4.11686586 17.8431946,3.65205842 17.3259187,3.39973439 L10.8082435,0.185922974 C10.5625374,0.0664010623 10.2909676,0 10.0193978,0 L10.0193978,0 L10.0193978,0 Z" id="Shape" fill="#FFFFFF"></path>
                <path d="M16.5758688,11.4475432 L16.5758688,11.4475432 L16.5758688,11.4475432 C16.5629369,11.4475432 16.5629369,11.4475432 16.5758688,11.4475432 L16.5629369,11.4475432 C16.550005,11.4475432 16.5370731,11.4475432 16.5370731,11.4342629 C16.5112093,11.4342629 16.4853455,11.4209827 16.4594817,11.4209827 C16.3689584,11.4077025 16.2913671,11.3944223 16.2137757,11.3944223 C16.17498,11.3944223 16.1361843,11.3944223 16.0844568,11.3811421 L16.0715249,11.3811421 C15.7999551,11.3545817 15.5801129,11.3280212 15.3732025,11.2616201 C15.2826792,11.2217796 15.2568154,11.1686586 15.2309517,11.1155378 C15.2309517,11.1022576 15.2180198,11.1022576 15.2180198,11.0889774 L15.2180198,11.0889774 L15.0499052,11.0358566 C15.1274965,10.4249668 15.1016327,9.78751656 14.9593819,9.16334663 C14.8171311,8.53917661 14.571425,7.95484726 14.2351958,7.42363877 L14.3645146,7.30411685 L14.3645146,7.27755643 C14.3645146,7.21115536 14.3774466,7.1447543 14.4291742,7.07835324 C14.5843569,6.9322709 14.7783354,6.81274899 15.0111095,6.66666665 L15.0111095,6.66666665 C15.0499052,6.64010623 15.0887008,6.62682602 15.1274965,6.60026559 C15.2050879,6.56042495 15.2697474,6.52058431 15.3473387,6.46746347 C15.3602706,6.45418326 15.3861344,6.44090304 15.4119982,6.41434262 C15.4249301,6.4010624 15.437862,6.4010624 15.437862,6.38778219 L15.437862,6.38778219 C15.6189086,6.22841965 15.6577042,5.96281539 15.5283853,5.79017263 C15.4637258,5.69721114 15.3473387,5.6440903 15.2309517,5.6440903 C15.1274965,5.6440903 15.0369733,5.68393093 14.9464499,5.75033199 L14.9464499,5.75033199 L14.9464499,5.75033199 C14.9335181,5.76361221 14.9335181,5.76361221 14.9205862,5.77689242 C14.8947224,5.79017263 14.8817905,5.81673306 14.8559267,5.83001327 C14.7912672,5.89641433 14.7395397,5.94953518 14.6878121,6.01593624 C14.6619483,6.04249667 14.6360845,6.08233731 14.5972888,6.10889773 L14.5972888,6.10889773 C14.4162423,6.30810092 14.2481276,6.46746347 14.080013,6.58698538 C14.0412173,6.61354581 14.0024216,6.62682602 13.9636259,6.62682602 C13.9377621,6.62682602 13.9118983,6.62682602 13.8860346,6.61354581 L13.8601708,6.61354581 L13.8601708,6.61354581 L13.704988,6.7197875 C13.5368734,6.53386453 13.3558269,6.37450198 13.1747803,6.21513943 C12.3988666,5.59096944 11.4548382,5.20584328 10.4720142,5.1128818 L10.4590823,4.94023904 C10.4461503,4.92695882 10.4461503,4.92695882 10.4332185,4.91367861 C10.3944228,4.87383797 10.3426952,4.83399734 10.3297633,4.74103584 C10.3168315,4.52855245 10.3426952,4.28950863 10.368559,4.02390438 L10.368559,4.01062416 C10.368559,3.97078353 10.3814909,3.91766267 10.3944228,3.87782204 C10.4073547,3.79814076 10.4202866,3.71845949 10.4332185,3.625498 L10.4332185,3.54581673 L10.4332185,3.50597609 L10.4332185,3.50597609 L10.4332185,3.50597609 C10.4332185,3.26693226 10.2521719,3.06772908 10.0323297,3.06772908 C9.92887458,3.06772908 9.82541944,3.12084993 9.74782805,3.20053121 C9.67023666,3.28021248 9.63144096,3.38645417 9.63144096,3.50597609 L9.63144096,3.50597609 L9.63144096,3.50597609 L9.63144096,3.53253651 L9.63144096,3.61221779 C9.63144096,3.70517928 9.64437283,3.78486055 9.67023666,3.86454183 C9.68316853,3.90438246 9.68316853,3.9442231 9.69610048,3.99734395 L9.69610048,4.01062416 C9.72196423,4.27622841 9.76075992,4.51527224 9.7348961,4.72775563 C9.72196423,4.82071712 9.67023666,4.86055776 9.63144096,4.9003984 C9.61850909,4.91367861 9.61850909,4.91367861 9.60557722,4.92695882 L9.60557722,4.92695882 L9.59264527,5.09960159 C9.35987117,5.12616201 9.12709707,5.15272243 8.89432297,5.20584328 C7.89856697,5.43160689 7.01919811,5.94953518 6.33380765,6.69322708 L6.2044887,6.60026559 L6.17862491,6.60026559 C6.15276112,6.60026559 6.12689733,6.61354581 6.10103354,6.61354581 C6.06223785,6.61354581 6.02344217,6.60026559 5.98464648,6.57370517 C5.81653184,6.45418326 5.6484172,6.28154049 5.46737067,6.08233731 L5.46737067,6.08233731 C5.44150687,6.05577688 5.41564308,6.01593624 5.37684739,5.98937582 C5.32511982,5.92297476 5.27339223,5.86985391 5.20873276,5.80345285 C5.19580086,5.79017263 5.16993707,5.77689242 5.14407328,5.75033199 C5.13114138,5.73705178 5.11820949,5.73705178 5.11820949,5.72377157 L5.11820949,5.72377157 C5.04061812,5.65737051 4.93716296,5.61752987 4.83370779,5.61752987 C4.71732073,5.61752987 4.60093367,5.67065072 4.5362742,5.76361221 C4.40695525,5.93625497 4.44575093,6.20185922 4.62679746,6.36122177 L4.62679746,6.36122177 L4.62679746,6.36122177 C4.63972936,6.36122177 4.63972936,6.37450198 4.65266126,6.37450198 C4.67852505,6.38778219 4.69145694,6.41434262 4.71732073,6.42762283 C4.79491211,6.48074368 4.85957158,6.52058431 4.93716296,6.56042495 C4.97595864,6.57370517 5.01475432,6.60026559 5.05355001,6.62682602 L5.05355001,6.62682602 C5.28632413,6.77290836 5.48030256,6.89243027 5.63548531,7.03851261 C5.70014478,7.10491366 5.70014478,7.17131473 5.70014478,7.23771579 L5.70014478,7.26427621 L5.70014478,7.26427621 L5.82946373,7.38379813 C5.80359994,7.42363877 5.77773615,7.45019919 5.76480426,7.49003982 C5.11820949,8.53917661 4.87250347,9.77423637 5.04061812,10.9960159 L4.87250347,11.0491368 C4.87250347,11.062417 4.85957158,11.062417 4.85957158,11.0756972 C4.83370779,11.1288181 4.79491211,11.1819389 4.71732073,11.2217796 C4.5233423,11.2881806 4.29056819,11.314741 4.01899838,11.3413014 L4.00606649,11.3413014 C3.9672708,11.3413014 3.91554322,11.3413014 3.87674754,11.3545817 C3.79915616,11.3545817 3.72156479,11.3678619 3.63104152,11.3811421 C3.60517773,11.3811421 3.57931394,11.3944223 3.55345015,11.3944223 C3.54051825,11.3944223 3.52758636,11.3944223 3.51465446,11.4077025 L3.51465446,11.4077025 L3.51465446,11.4077025 C3.28188034,11.4608234 3.13962949,11.686587 3.17842518,11.8990703 C3.21722087,12.0849933 3.38533551,12.2045152 3.59224584,12.2045152 C3.63104152,12.2045152 3.65690531,12.2045152 3.695701,12.1912351 L3.695701,12.1912351 L3.695701,12.1912351 C3.70863289,12.1912351 3.72156479,12.1912351 3.72156479,12.1779549 C3.74742858,12.1779549 3.77329237,12.1646746 3.79915616,12.1646746 C3.88967943,12.1381142 3.9543389,12.1115538 4.03193028,12.0717131 C4.07072596,12.0584329 4.10952165,12.0318725 4.14831734,12.0185923 L4.16124923,12.0185923 C4.40695525,11.9256308 4.62679746,11.8459495 4.83370779,11.8193891 L4.85957158,11.8193891 C4.93716296,11.8193891 4.98889053,11.8592298 5.02768622,11.8857901 C5.04061812,11.8857901 5.04061812,11.8990703 5.05355001,11.8990703 L5.05355001,11.8990703 L5.23459655,11.87251 C5.54496203,12.8552456 6.13982922,13.7317396 6.92867484,14.3691898 C7.10972137,14.5152722 7.29076791,14.6347941 7.48474634,14.7543161 L7.40715497,14.9269588 C7.40715497,14.940239 7.42008686,14.940239 7.42008686,14.9535192 C7.44595066,15.00664 7.47181445,15.0730412 7.44595066,15.1660026 C7.36835929,15.3652058 7.25197222,15.564409 7.10972137,15.7901726 L7.10972137,15.8034528 C7.08385759,15.8432935 7.0579938,15.8698539 7.03213,15.9096945 C6.98040242,15.9760956 6.94160674,16.0424966 6.88987915,16.1221779 C6.87694726,16.1354581 6.86401536,16.1620186 6.85108347,16.188579 C6.85108347,16.2018592 6.83815158,16.2151394 6.83815158,16.2151394 L6.83815158,16.2151394 L6.83815158,16.2151394 C6.73469641,16.440903 6.81228778,16.693227 7.00626621,16.7861885 C7.0579938,16.812749 7.10972137,16.8260292 7.16144896,16.8260292 C7.3166317,16.8260292 7.47181445,16.7197875 7.54940582,16.5737052 L7.54940582,16.5737052 L7.54940582,16.5737052 C7.54940582,16.5604249 7.56233771,16.5471447 7.56233771,16.5471447 C7.57526961,16.5205843 7.58820151,16.4940239 7.6011334,16.4807437 C7.63992909,16.3877822 7.65286098,16.3213811 7.67872477,16.2416998 C7.69165667,16.2018592 7.70458856,16.1620186 7.71752046,16.1221779 L7.71752046,16.1221779 C7.80804371,15.8565737 7.87270323,15.6440903 7.98909024,15.4581673 C8.04081781,15.378486 8.10547733,15.3652058 8.1572049,15.3386454 C8.17013677,15.3386454 8.17013677,15.3386454 8.18306872,15.3253652 L8.18306872,15.3253652 L8.27359198,15.1527225 C8.84259532,15.378486 9.4633263,15.4980079 10.0840573,15.4980079 C10.4590823,15.4980079 10.8470391,15.4581673 11.2091322,15.3652058 C11.4419063,15.312085 11.6617486,15.2456839 11.8815908,15.1660026 L11.9591821,15.312085 C11.9721141,15.312085 11.9721141,15.312085 11.9850459,15.3253652 C12.0497054,15.3386454 12.101433,15.3652058 12.1531606,15.4448871 C12.2566157,15.6308101 12.3342071,15.8565737 12.4247304,16.1088977 L12.4247304,16.1221779 C12.4376623,16.1620186 12.4505941,16.2018592 12.4635261,16.2416998 C12.4893898,16.3213811 12.5023218,16.4010624 12.5411174,16.4807437 C12.5540493,16.5073041 12.5669812,16.5205843 12.5799131,16.5471447 C12.5799131,16.5604249 12.592845,16.5737052 12.592845,16.5737052 L12.592845,16.5737052 L12.592845,16.5737052 C12.6704364,16.7330677 12.8256191,16.8260292 12.9808018,16.8260292 C13.0325295,16.8260292 13.0842571,16.812749 13.1359846,16.7861885 C13.2265079,16.7330677 13.3040993,16.6533864 13.329963,16.5471447 C13.3558269,16.440903 13.3558269,16.3213811 13.3040993,16.2151394 L13.3040993,16.2151394 L13.3040993,16.2151394 C13.3040993,16.2018592 13.2911673,16.2018592 13.2911673,16.188579 C13.2782355,16.1620186 13.2653036,16.1354581 13.2523716,16.1221779 C13.213576,16.0424966 13.1618484,15.9760956 13.1101208,15.9096945 C13.0842571,15.8698539 13.0583932,15.8432935 13.0325295,15.8034528 L13.0325295,15.7901726 C12.8902786,15.564409 12.7609596,15.3652058 12.6963002,15.1660026 C12.6704364,15.0730412 12.6963002,15.0199203 12.7092321,14.9535192 C12.7092321,14.940239 12.722164,14.940239 12.722164,14.9269588 L12.722164,14.9269588 L12.6575045,14.7675962 C13.3428949,14.3559097 13.9248303,13.7715803 14.3645146,13.0544489 C14.5972888,12.6826029 14.7783354,12.2709163 14.9076543,11.8592298 L15.062837,11.8857901 C15.0757689,11.8857901 15.0757689,11.87251 15.0887008,11.87251 C15.1404284,11.8459495 15.1792241,11.8061088 15.2568154,11.8061088 L15.2826792,11.8061088 C15.4895896,11.8326693 15.7094318,11.9123506 15.9551378,12.0053121 L15.9680697,12.0053121 C16.0068654,12.0185923 16.0456611,12.0451527 16.0844568,12.0584329 C16.1620482,12.0982736 16.2267076,12.1248339 16.3172309,12.1513944 C16.3430947,12.1513944 16.3689584,12.1646746 16.3948223,12.1646746 C16.4077541,12.1646746 16.4206861,12.1646746 16.433618,12.1779549 L16.433618,12.1779549 C16.4724136,12.1912351 16.4982774,12.1912351 16.5370731,12.1912351 C16.7310516,12.1912351 16.8991661,12.0584329 16.9508937,11.8857901 C16.9508937,11.7264276 16.8086429,11.5139442 16.5758688,11.4475432 L16.5758688,11.4475432 Z M10.5884013,10.7968127 L10.0193978,11.0756972 L9.45039443,10.7968127 L9.3081436,10.1726428 L9.69610048,9.6679947 L10.3297633,9.6679947 L10.7177202,10.1726428 L10.5884013,10.7968127 L10.5884013,10.7968127 Z M13.9636259,9.41567062 C14.0670811,9.86719786 14.0929449,10.3187251 14.0541492,10.7569721 L12.0755692,10.1726428 C11.8945227,10.1195219 11.7910675,9.93359888 11.8298632,9.74767591 C11.8427951,9.69455508 11.8686588,9.64143424 11.9074545,9.60159359 L13.4722139,8.15405049 C13.6920561,8.52589642 13.8601708,8.9508632 13.9636259,9.41567062 L13.9636259,9.41567062 Z M12.8514829,7.3572377 L11.1574046,8.59229745 C11.0151538,8.68525893 10.8211754,8.65869856 10.7047883,8.51261615 C10.6659926,8.47277559 10.6530607,8.41965467 10.6401288,8.36653383 L10.5237417,6.20185922 C11.4160425,6.30810092 12.230752,6.7197875 12.8514829,7.3572377 L12.8514829,7.3572377 Z M9.10123324,6.26826028 C9.24348408,6.24169985 9.37280304,6.21513943 9.51505395,6.18857901 L9.39866686,8.313413 C9.38573499,8.49933597 9.24348408,8.65869856 9.04950567,8.65869856 C8.99777811,8.65869856 8.93311859,8.64541829 8.89432297,8.61885791 L7.17438085,7.3572377 C7.70458856,6.81274899 8.36411525,6.44090304 9.10123324,6.26826028 L9.10123324,6.26826028 Z M6.55364988,8.15405049 L8.09254545,9.56175294 C8.23479629,9.68127489 8.24772816,9.9070385 8.13134107,10.0531208 C8.09254545,10.1062417 8.04081781,10.1460823 7.97615837,10.1593625 L5.97171458,10.7569721 C5.89412321,9.85391767 6.08810164,8.93758301 6.55364988,8.15405049 L6.55364988,8.15405049 Z M6.2044887,11.752988 L8.26066003,11.3944223 C8.42877469,11.3811421 8.58395748,11.500664 8.62275317,11.6733067 C8.63568505,11.752988 8.63568505,11.8193891 8.60982122,11.8857901 L8.60982122,11.8857901 L7.82097566,13.8379814 C7.09678948,13.3598937 6.51485419,12.629482 6.2044887,11.752988 L6.2044887,11.752988 Z M10.9246305,14.3957503 C10.627197,14.4621513 10.3297633,14.501992 10.0193978,14.501992 C9.56678152,14.501992 9.12709707,14.4223108 8.71327644,14.2895086 L9.7348961,12.3904382 C9.83835132,12.2709163 10.006466,12.2177954 10.1487168,12.2974767 C10.2133762,12.3373174 10.2651038,12.3904382 10.3038995,12.443559 L10.3038995,12.443559 L11.2996555,14.2895086 C11.1832684,14.3293493 11.0539495,14.3559097 10.9246305,14.3957503 L10.9246305,14.3957503 Z M13.4463501,12.5498008 C13.1230528,13.0810092 12.6963002,13.5059761 12.2048882,13.8379814 L11.3901788,11.8326693 C11.3513831,11.6733067 11.4160425,11.500664 11.5712253,11.4209827 C11.6229529,11.3944223 11.6876123,11.3811421 11.7522718,11.3811421 L13.8213751,11.7397078 C13.7437837,12.0318725 13.6144648,12.2974767 13.4463501,12.5498008 L13.4463501,12.5498008 Z" id="Shape" fill="#FFFFFF"></path>
            </g>
        </g>
    </g>
</svg>