<?xml version="1.0" encoding="UTF-8"?>
<svg width="20px" height="20px" viewBox="0 0 20 20" version="1.1" xmlns="http://www.w3.org/2000/svg" xmlns:xlink="http://www.w3.org/1999/xlink">
    <title>KubeEdge</title>
    <g id="KubeEdge" stroke="none" stroke-width="1" fill="none" fill-rule="evenodd">
        <g id="kube-edge">
            <polygon id="Frame" points="0 0 20 0 20 20 0 20"></polygon>
            <path d="M14.4782126,18.2808831 L18.6936569,12.9948809 C18.960073,12.6608146 19.0598659,12.2236097 18.9647859,11.8070312 L17.4603314,5.2155875 C17.3652551,4.79900656 17.0856526,4.44839165 16.7006749,4.26299646 L10.6091651,1.32958038 C10.2241713,1.14416204 9.77569197,1.14416204 9.39069809,1.32958038 L3.29933841,4.26299646 C2.91433198,4.44837389 2.63469956,4.79899162 2.53960691,5.2155875 L1.03522747,11.8070312 C0.940123345,12.2236334 1.03991748,12.6608715 1.30635646,12.9949559 L5.52180069,18.2808831 C5.78821575,18.6149334 6.19224611,18.8094834 6.61952416,18.8094834 L13.3804892,18.8094834 C13.8077672,18.8094834 14.2117976,18.6149334 14.4782126,18.2808831 L14.4782126,18.2808831 Z" id="Shape" fill="#1C77C8" fill-rule="nonzero"></path>
            <path d="M11.4943679,14.1945873 L11.4849125,12.5994813 L10.0123512,12.5991061 L10.0123512,14.113166 C10.3504599,14.2326987 10.5532791,14.5784321 10.4926396,14.9318842 C10.432,15.2853364 10.1255405,15.5436961 9.76692428,15.5436961 C9.40830808,15.5436961 9.10184852,15.2853364 9.041209,14.9318842 C8.98056947,14.5784321 9.18338863,14.2326987 9.52149738,14.113166 L9.52149738,12.598956 L8.04893602,12.5987309 L8.04893602,14.0706169 L8.03948065,14.1945873 L6.53247472,14.1945873 C6.41312835,14.5282399 6.07098044,14.7277074 5.72176745,14.6671435 C5.37255446,14.6065795 5.11755477,14.3035487 5.11755477,13.9491229 C5.11755477,13.594697 5.37255446,13.2916662 5.72176745,13.2311022 C6.07098044,13.1705383 6.41312835,13.3700058 6.53247472,13.7037335 L7.55808223,13.7037335 L7.55815727,12.5985808 L6.78371742,12.5985808 C5.50228961,12.5259395 4.48861388,11.5589403 4.48861388,10.3373215 C4.49110745,9.62365769 4.83430502,8.95410455 5.41223846,8.53539804 C5.40344034,8.46555389 5.39905415,8.39522454 5.399106,8.32482844 C5.399106,7.40330505 6.168518,6.66413523 7.11630632,6.66413523 C7.35257667,6.66434581 7.58639197,6.71206842 7.80384682,6.80446493 C8.42288891,5.88349681 9.46228448,5.33405732 10.571944,5.34094073 C12.3634365,5.34094073 13.8241411,6.72034215 13.8603867,8.44174485 C14.5829672,8.82140319 15.0382572,9.56762898 15.0453097,10.3838479 C15.0453097,11.6114701 14.0089711,12.6039088 12.7439776,12.6039088 L12.6644325,12.600682 L11.9757663,12.5997815 L11.9757663,13.7037335 L12.8786791,13.7037335 C12.9741688,13.4367622 13.2122411,13.255721 13.4824429,13.2249963 L13.5850589,13.2206464 L13.6893926,13.2311432 C14.0385966,13.2917154 14.2935857,13.594742 14.2935857,13.9491604 C14.2935857,14.3035787 14.0385966,14.6066054 13.6893926,14.6671776 C13.3401887,14.7277498 12.9980412,14.5283013 12.8786791,14.1945873 L11.4943679,14.1945873 Z M9.77691306,14.5640803 C9.64796274,14.5626978 9.54193396,14.6653835 9.53918583,14.794312 C9.5364377,14.9232404 9.63799465,15.0303508 9.76688676,15.0344643 C9.89878812,15.0364285 10.0073884,14.9312524 10.0096496,14.7993558 C10.0096663,14.670398 9.90586339,14.5654628 9.77691306,14.5640803 Z M5.85013281,13.7138479 C5.72117304,13.7124379 5.61511813,13.8151161 5.61235608,13.944054 C5.60959402,14.0729919 5.7111546,14.1801176 5.84005645,14.1842314 C5.97192902,14.1861959 6.08051725,14.081065 6.08281935,13.9491979 C6.08287712,13.8202304 5.97909258,13.7152579 5.85013281,13.7138479 Z M13.5710974,13.7140143 C13.4392293,13.7121752 13.3307119,13.817337 13.3284096,13.9492025 C13.3284328,14.0781559 13.4322686,14.1830593 13.5612196,14.1844015 C13.6901707,14.1857437 13.7961675,14.0830244 13.798875,13.9540948 C13.8015824,13.8251652 13.6999912,13.7180867 13.5710974,13.7140143 Z M10.571944,5.71101889 C9.46382477,5.70090859 8.44518389,6.31800872 7.94102473,7.30484913 C7.70176852,7.12945911 7.4129625,7.03464454 7.11630632,7.03409535 C6.36775616,7.03409535 5.76891604,7.61267396 5.76891604,8.32482844 C5.76847943,8.45425626 5.78794268,8.58298198 5.82662382,8.70649522 C5.23310338,9.03541075 4.8630227,9.65877096 4.85842392,10.3373215 C4.85842392,11.3715589 5.73086943,12.1685115 6.80457927,12.229296 L12.6384677,12.2294461 L12.7439776,12.2342489 C13.8079319,12.2342489 14.6754997,11.4039023 14.6754997,10.3838479 C14.6652564,9.62470722 14.1945513,8.94802781 13.4863743,8.67437698 L13.4913271,8.50740714 C13.4913271,6.96483101 12.1868612,5.71101889 10.571944,5.71101889 Z M10.571944,6.08075388 C11.9844713,6.08075388 13.1215171,7.17104814 13.1215171,8.50725706 L13.1166393,8.67430193 L13.1166393,8.92419386 L13.348521,9.0173968 C13.9165936,9.23475245 14.2954825,9.77562336 14.3056896,10.3837729 C14.3056896,11.1505542 13.6829156,11.7896213 12.8862748,11.8582622 L12.7342221,11.8640636 L12.6384677,11.8595611 L6.80465431,11.8595611 C5.91997684,11.8089073 5.22815891,11.1489074 5.22815891,10.3373215 C5.2327137,9.79168551 5.53147167,9.29101053 6.00950269,9.02790277 L6.26839973,8.88051906 L6.17954927,8.59618256 C6.15203499,8.5083506 6.13826463,8.41679294 6.13872608,8.3247534 C6.13872608,7.81851587 6.57052133,7.4037553 7.11630632,7.4037553 C7.33432281,7.40431249 7.54653245,7.4740768 7.72235053,7.60299347 L8.07595136,7.86219068 L8.2718126,7.4699429 C8.71342269,6.60851253 9.60396681,6.07065886 10.571944,6.08075388 Z" id="Shape" fill="#FFFFFF" fill-rule="nonzero"></path>
        </g>
    </g>
</svg>