<?xml version="1.0" encoding="UTF-8"?>
<svg width="20px" height="20px" viewBox="0 0 20 20" version="1.1" xmlns="http://www.w3.org/2000/svg" xmlns:xlink="http://www.w3.org/1999/xlink">
    <title>LingQue</title>
    <g id="LingQue" stroke="none" stroke-width="1" fill="none" fill-rule="evenodd">
        <g id="LingQue-bird">
            <polygon id="Frame" points="0 0 20 0 20 20 0 20"></polygon>
            <path d="M10.8138741,0.5 C10.9435178,0.528700906 11.0731615,0.557401813 11.21721,0.571752266 C12.0094769,0.657854985 12.7585292,0.858761329 13.4931766,1.14577039 C15.1065201,1.77719033 16.4317665,2.78172205 17.4977255,4.13066465 C18.4052312,5.26435045 18.9958302,6.55589124 19.3127369,7.9765861 C19.399166,8.33534743 19.4279757,8.72280967 19.5,9.081571 L19.5,19.4856495 L15.3514026,19.4856495 C15.3514026,19.3995468 15.3369977,19.3277946 15.3369977,19.2416918 L15.3369977,10.0574018 C15.3369977,9.66993958 15.308188,9.28247734 15.2361638,8.90936556 C15.0056861,7.74697885 14.4438969,6.74244713 13.5363912,5.96752266 C12.2111448,4.8194864 10.6698256,4.40332326 8.95564822,4.77643505 C7.05420773,5.19259819 5.75777104,6.36933535 5.06633813,8.1918429 C5.03752843,8.26359517 4.97990902,8.32099698 4.92228961,8.36404834 C4.67740713,8.49320242 4.41811979,8.60800604 4.1732373,8.73716012 C3.94275967,8.85196375 3.72668688,8.96676737 3.49620925,9.081571 L3.56823351,9.15332326 C3.95716452,9.46903323 4.33169067,9.79909366 4.72062168,10.1148036 C4.76383624,10.1435045 4.79264594,10.2009063 4.8070508,10.2583082 C4.82145565,10.4018127 4.8358605,10.5453172 4.85026535,10.6888218 C4.90788476,11.4350453 5.05193328,12.152568 5.29681577,12.8557402 C5.88741471,14.6064955 6.99658832,15.9697885 8.46588324,17.060423 C9.67589083,17.9645015 11.0155421,18.6102719 12.4272176,19.1268882 C12.772934,19.2560423 13.1330553,19.3851964 13.4787718,19.5 L9.40219864,19.5 C9.34457923,19.4856495 9.27255497,19.4712991 9.21493556,19.4712991 C8.73957544,19.3995468 8.24981046,19.342145 7.78885519,19.2273414 C5.57050796,18.6820242 3.78430629,17.4765861 2.41584534,15.6540785 C1.50833965,14.4486405 0.932145565,13.1140483 0.687263078,11.6359517 C0.586429113,11.3202417 0.543214556,11.0188822 0.5,10.7031722 L0.5,9.25377644 C0.514404852,9.19637462 0.528809704,9.13897281 0.528809704,9.081571 C0.572024261,8.46450151 0.687263078,7.87613293 0.874526156,7.28776435 C1.62357847,4.80513595 3.16489765,2.92522659 5.44086429,1.64803625 C6.40598939,1.10271903 7.45754359,0.758308157 8.55231236,0.600453172 L9.18612585,0.5 L10.8138741,0.5 Z M7.78885519,9.29682779 C8.40826384,9.29682779 8.91243366,9.77039275 8.91243366,10.3874622 C8.89802881,11.0906344 8.36504928,11.5067976 7.78885519,11.5067976 C7.1838514,11.5067976 6.69408643,11.0188822 6.69408643,10.4018127 C6.66527672,9.72734139 7.25587566,9.23942598 7.78885519,9.29682779 Z" id="Combined-Shape" fill="#33AFE3" fill-rule="nonzero"></path>
        </g>
    </g>
</svg>