<?xml version="1.0" encoding="UTF-8"?>
<svg width="20px" height="20px" viewBox="0 0 20 20" version="1.1" xmlns="http://www.w3.org/2000/svg" xmlns:xlink="http://www.w3.org/1999/xlink">
    <title>Multus</title>
    <g id="Multus" stroke="none" stroke-width="1" fill="none" fill-rule="evenodd">
        <g>
            <polygon id="Frame" points="0 0 20 0 20 20 0 20"></polygon>
            <g id="multus" transform="translate(0, 2.0585)" fill-rule="nonzero">
                <path d="M17.6608446,1.44661531 C17.6047018,-0.314080373 15.0920908,-0.199690629 14.565642,0.390229156 C14.0391932,0.98014894 14.1870972,1.89667332 15.3097141,1.98637238 C16.4324109,2.07599331 16.6917221,1.20736573 16.200652,0.832942467 C15.7095022,0.458519208 14.8565784,0.788405476 15.1723519,1.35605677 C15.3911731,1.61827806 15.8947815,1.56764654 15.9803933,1.34480532 C16.0965123,0.982258587 15.6559149,0.803485545 15.3985204,1.01405956 C16.0588175,0.79739101 16.0182478,1.58819606 15.4898024,1.42676901 C14.961437,1.26534195 15.224262,0.71527105 15.7951938,0.772231517 C16.8495289,1.01171551 16.0826962,2.08005633 15.1371328,1.78243985 C14.1915695,1.48482336 14.3172719,-0.165233063 16.3368962,0.210205953 C16.8778798,0.309124952 17.4302837,0.947410346 17.3403594,1.47294683 C15.2477414,1.95347752 14.642469,2.81788581 13.8975185,3.64627383 C13.3987817,4.31237531 12.5127154,6.75604964 16.4932656,6.59149719 C15.9592299,7.68679461 13.9147686,8.95859916 12.1451116,10.1982121 C10.5888453,11.1763069 6.32063303,13.6317796 7.38247512,15.4341213 C7.45411113,15.6377413 9.59416698,16.7966406 9.62930616,14.7298118 C9.58043076,13.8226636 9.8748811,13.1268708 10.8799415,11.8273283 C12.4271035,10.2023532 14.7680117,8.99727602 17.5330658,7.97159694 C18.4037188,7.54052576 20.4523329,6.6309554 19.4453559,5.47455635 C18.089303,4.24002223 16.2895382,6.40209777 14.7554734,4.64937187 C13.3374479,2.78717872 17.0885552,2.66911663 19.2272534,2.60770247 C18.0560007,2.2314821 18.5941891,1.66304946 17.6608446,1.44661531 L17.6608446,1.44661531 Z M9.33158148,6.21535495 C8.64261399,5.44963126 7.77603393,4.74188379 6.88421754,4.04226237 C6.63928149,3.800825 7.14991765,3.29755701 7.66574482,3.83098513 C8.58096071,4.85307 8.94297411,5.46314863 9.33158148,6.21535495 Z M9.34755384,6.4885933 C8.56602655,6.00454653 6.50663109,4.92456358 5.42969513,4.34566085 C5.18475908,4.10422348 5.79825719,3.70151532 6.54033276,4.20486145 C7.62006389,5.01559094 8.85616436,5.9476642 9.34755384,6.4885933 L9.34755384,6.4885933 Z M9.67346972,6.87817476 C8.40510509,6.35920162 5.72023224,5.47471262 4.34708897,5.03074915 C3.60724954,4.68304808 4.30524141,4.20869007 5.34344441,4.6750783 C7.0040102,5.39798398 8.84354621,6.36685886 9.67346972,6.87817476 Z M9.92032245,7.21501505 C8.6446904,6.77433325 4.82578042,6.12174914 3.27781974,5.68778696 C2.5379803,5.34008589 3.06155406,4.82298799 4.35419667,5.21819518 C6.05525237,5.6880995 9.23159455,6.87215836 9.92032245,7.21509319 L9.92032245,7.21501505 Z M10.29727,7.51614761 C5.7182357,6.91192911 3.78757741,7.03303847 2.66807512,6.77448952 C1.54865269,6.51601871 1.96529155,6.01532917 3.53665173,6.08127517 C4.85165564,6.07713401 8.24769754,6.91536705 10.29727,7.51614761 L10.29727,7.51614761 Z M10.5079454,7.65616566 C9.15955923,7.54833926 5.20424535,7.80462229 2.28849213,7.73094092 C0.811368833,7.64632064 1.05175276,6.94896513 3.18621829,7.05366613 C4.96761493,7.0914835 9.90898208,7.58381258 10.5079454,7.65616566 L10.5079454,7.65616566 Z" id="Shape" fill="#000000"></path>
                <path d="M10.7393049,7.86197344 C9.38644652,7.86533324 4.72683169,8.37547712 1.8149917,8.54190482 C0.335871855,8.57901898 -0.224917494,7.93479532 2.39438884,7.92401268 C4.17267087,7.81517053 10.1361888,7.83907986 10.7393049,7.8618953 L10.7393049,7.86197344 Z M10.4556359,8.15810536 C9.10277751,8.1615433 4.94701059,8.99360367 1.6752336,9.64290611 C-0.575111355,10.082494 -0.518888669,9.24707384 1.60679206,8.91437471 C4.16668123,8.35281795 9.85251981,8.13528991 10.4556359,8.15810536 Z M10.2562211,8.40501218 C9.02890537,8.68715792 5.59333189,9.60704211 2.41842723,10.6167816 C0.233888375,11.304214 0.192519978,10.4680125 2.26565166,9.90059557 C4.74344294,9.05736189 9.58170854,8.44947103 10.2562211,8.40493404 L10.2562211,8.40501218 Z M10.3395169,8.78920232 C9.15037513,9.22949345 5.88474749,10.3834703 2.77556906,11.5450263 C0.643579254,12.3756021 0.277093592,11.352814 2.58382095,10.7803183 C5.45109808,10.0264712 9.7775296,8.8782763 10.3395169,8.78920232 Z M10.4800736,9.28496935 C9.34004683,9.8358216 4.68202924,12.1790142 3.27566347,12.8348019 C1.16387869,13.6218565 1.17090652,12.437485 3.46158167,11.7295813 C6.24077126,10.7077309 9.92950655,9.42686264 10.4800736,9.28496935 L10.4800736,9.28496935 Z M10.8826568,9.77448557 C9.8036444,10.4314452 5.39958724,13.2028181 4.01406539,13.9127533 C2.1329214,14.6519111 2.4993272,13.3605728 4.73018588,12.5042905 C7.41018716,11.2541294 10.3464649,9.96177533 10.8826568,9.77448557 Z M11.6621875,9.96693224 C10.6541723,10.7240611 7.17595259,13.531923 5.8682161,14.3712499 C3.3501745,15.8605044 4.08953476,14.0171418 6.22392043,12.9512231 C8.76592056,11.4503266 11.1473985,10.2047754 11.6621875,9.96693224 Z M12.4580899,10.6342057 C11.7887684,11.6523839 11.125197,12.6302443 10.9724214,14.5393966 C10.7726073,16.5588756 9.41751275,15.3137151 10.189217,13.6820205 C10.7396243,12.4410011 11.8619218,11.2426435 12.4580899,10.6342057 Z" id="Shape" fill="#000000"></path>
                <path d="M12.6383379,10.6045144 C12.4960243,11.6151134 12.4710275,13.3383043 12.5416253,14.519941 C12.6014418,15.1858862 11.4503941,16.1617932 11.460297,14.0934016 C11.6530034,12.7477594 12.3101859,11.3838336 12.6382581,10.6045144 L12.6383379,10.6045144 Z M13.0593692,10.5532578 C13.1537658,11.5692481 13.4191465,13.124683 13.7171906,14.2044315 C13.936491,15.3731759 12.9153784,15.3209817 12.8716142,14.0873852 C12.7491062,12.7338514 12.9193715,11.3849275 13.0593692,10.553336 L13.0593692,10.5532578 Z M14.3306887,2.74139157 C13.2919267,2.82960607 11.2132046,3.23645538 10.1497653,3.4231982 C8.74132314,3.49641076 9.40657168,2.88734788 10.1515223,2.79764882 C11.5354469,2.68325908 13.4554037,2.70662146 14.3306887,2.74139157 Z M14.188375,2.93321317 C12.7004704,3.15839844 10.5770258,3.93623307 10.1481681,4.349802 C8.83444196,5.5234689 8.72982304,4.02929194 9.77465458,3.77738448 C11.8529773,3.08940518 13.8429729,2.98275081 14.188375,2.93321317 Z" id="Shape" fill="#000000"></path>
                <path d="M14.1194543,3.09698428 C12.8236172,3.66518251 11.3258896,4.65671656 11.0208176,5.16451639 C10.0611986,6.63033032 9.28310539,5.22311769 10.3340064,4.65054389 C12.1603652,3.46109371 13.7988892,3.23215795 14.1194543,3.09698428 L14.1194543,3.09698428 Z" id="Path" fill="#000000"></path>
                <path d="M13.6635235,3.57954648 C13.0949875,4.05062282 11.9996834,4.63702652 11.79364,5.81436577 C11.668257,6.76394129 10.2674017,6.52812964 11.1678432,5.41322032 C12.0154161,4.43340653 12.967608,3.92084047 13.6635235,3.57954648 L13.6635235,3.57954648 Z" id="Path" fill="#000000"></path>
                <path d="M13.5482829,3.96772151 C13.1660645,4.53123164 12.5968098,5.35266564 12.5410663,5.97696485 C12.5357954,6.67189817 11.4066298,7.08327932 12.0511942,5.80397381 C12.4806109,4.87565103 13.0065007,4.51458887 13.5482829,3.96772151 Z" id="Path" fill="#000000"></path>
                <path d="M9.81099169,12.3253612 C8.31821548,13.5320793 7.87650003,14.3998474 8.08781428,15.0571196 C8.13213756,15.2139367 8.3722819,15.5225702 8.37859098,15.3416875 C8.30400009,14.3251502 8.94137687,13.3229117 9.81107155,12.3253612 L9.81099169,12.3253612 Z" id="Path" fill="#FFFFFF"></path>
                <circle id="Oval" fill="#FFFFFF" transform="translate(17.762, 2.1311) rotate(-29.483) translate(-17.762, -2.1311)" cx="17.7619778" cy="2.13108863" r="1"></circle>
            </g>
        </g>
    </g>
</svg>