<?xml version="1.0" encoding="UTF-8"?>
<svg width="20px" height="20px" viewBox="0 0 20 20" version="1.1" xmlns="http://www.w3.org/2000/svg" xmlns:xlink="http://www.w3.org/1999/xlink">
    <title>Nacos</title>
    <defs>
        <linearGradient x1="15.5863569%" y1="84.2460782%" x2="83.2419227%" y2="16.5977868%" id="linearGradient-1">
            <stop stop-color="#4190FF" offset="0%"></stop>
            <stop stop-color="#1BE1F6" offset="100%"></stop>
        </linearGradient>
    </defs>
    <g id="Nacos" stroke="none" stroke-width="1" fill="none" fill-rule="evenodd">
        <g>
            <polygon id="Frame" points="0 0 20 0 20 20 0 20"></polygon>
            <path d="M5.99167445,8.98554697 L7.88419243,9.00080203 L7.89999231,10.9609099 L6.0103505,10.9456781 C4.35633206,10.9433752 3.03418093,12.280554 3.05487959,13.9347411 C3.07557825,15.5889283 4.43131422,16.9357695 6.08542439,16.9454032 C7.73953457,16.9550368 9.06769387,15.6238268 9.05432568,13.9696824 L9.03870258,12.0315052 L10.9988105,12.0473051 L11.0144336,13.9854822 C11.0286809,15.30179 10.515711,16.5605918 9.58989584,17.4812706 C7.67162129,19.3995451 4.52508112,19.3741685 2.57562991,17.4247173 C0.626178706,15.4752661 0.600623148,12.328547 2.5188977,10.4102724 C3.43281878,9.49170152 4.6798423,8.97932421 5.98610333,8.98568181 Z M17.4246911,2.57529371 C19.3741423,4.52474491 19.3990049,7.67219759 17.4807304,9.59047214 C16.6291216,10.4462689 15.4884175,10.9496515 14.2799033,11.0094605 L14.0063169,11.015344 L9.03835445,10.9402477 L8.98517129,6.01488252 C8.97102113,4.69870004 9.48398486,3.44004545 10.4096857,2.51942749 C12.3279603,0.601152941 15.4752399,0.625842496 17.4246911,2.57529371 Z M13.9120658,3.05501317 C12.2590989,3.04655164 10.9323454,4.37695331 10.9452734,6.02996336 L10.9775581,9.00937965 L13.9971638,9.05475045 C15.6499816,9.05269294 16.9681052,7.71373806 16.9446588,6.06067417 C16.9212124,4.40761028 15.5650328,3.06347469 13.9120658,3.05501317 Z" id="形状结合" fill="url(#linearGradient-1)" fill-rule="nonzero"></path>
        </g>
    </g>
</svg>