<?xml version="1.0" encoding="UTF-8"?>
<svg width="20px" height="20px" viewBox="0 0 20 20" version="1.1" xmlns="http://www.w3.org/2000/svg" xmlns:xlink="http://www.w3.org/1999/xlink">
    <title>Nginx</title>
    <g id="Nginx" stroke="none" stroke-width="1" fill="none" fill-rule="evenodd">
        <g>
            <polygon id="Frame" points="0 0 20 0 20 20 0 20"></polygon>
            <g id="nginx" transform="translate(2, 1)" fill-rule="nonzero">
                <path d="M0.124103882,13.500238 C0.206350331,13.6418421 0.325589653,13.7589303 0.469311839,13.8392181 L7.53062766,17.8738859 L7.53083408,17.8736816 C7.67300894,17.9566053 7.83507341,18.0002297 8.00010222,18 C8.17136445,18 8.33182388,17.9539664 8.46937037,17.8736816 L15.5309614,13.8390139 C15.674549,13.7587577 15.7936683,13.6417412 15.8758253,13.500238 C15.9587196,13.3589792 16.0016005,13.1982166 16,13.0348722 L16,4.96553665 L15.9997479,4.96540046 C16.0010834,4.80209458 15.9582238,4.64141179 15.8756189,4.50003472 C15.7932039,4.35859981 15.6740324,4.24157845 15.5304798,4.16112263 L8.46888871,0.126454842 L8.46888871,0.12631865 C8.32682735,0.0433645002 8.16484246,-0.000264128642 7.9998958,0 C7.82877119,0 7.66858699,0.0460338684 7.5309717,0.12631865 L7.5309717,0.126591033 L0.469724685,4.16112263 C0.32604233,4.24150233 0.20676344,4.35853584 0.124310305,4.50003472 C0.041691978,4.64140318 -0.00114650966,4.80209586 0.000250119698,4.96540046 L0,4.96553665 L0,13.0348722 C-0.00156390244,13.1981763 0.0412130993,13.3589057 0.123897459,13.500238" id="Path" fill="#17AD49"></path>
                <path d="M5.73908299,12.0719315 C5.73908299,12.5682127 5.33263623,12.9707261 4.83095968,12.9707261 C4.32948956,12.9707261 3.92283638,12.5682127 3.92283638,12.0719315 L3.92311161,12.0722039 L3.92400611,5.9028053 C3.92400611,5.42490996 4.35068232,5.02968276 4.95508868,5.02968276 C5.38775115,5.02968276 5.88722585,5.20237335 6.19293822,5.57744424 L6.46734311,5.90239672 L10.2611903,10.3956207 L10.2611903,5.92800069 L10.2607086,5.92800069 C10.2607086,5.43158334 10.6674306,5.02920609 11.1691071,5.02920609 C11.6705773,5.02920609 12.0769552,5.43165143 12.0769552,5.92800069 L12.0768176,5.92800069 L12.0758543,12.0967864 C12.0758543,12.5748179 11.6489717,12.9700452 11.0447717,12.9700452 C10.6119716,12.9700452 10.1126346,12.7975588 9.80692219,12.4222837 L5.73867014,7.60403914 L5.73867014,12.0722039 L5.73908299,12.0719315" id="Path" fill="#FFFFFF"></path>
            </g>
        </g>
    </g>
</svg>