<?xml version="1.0" encoding="UTF-8"?>
<svg width="20px" height="20px" viewBox="0 0 20 20" version="1.1" xmlns="http://www.w3.org/2000/svg" xmlns:xlink="http://www.w3.org/1999/xlink">
    <title>Icon / Logo 20*20 / Nvidia</title>
    <g id="Icon-/-Logo-20*20-/-Nvidia" stroke="none" stroke-width="1" fill="none" fill-rule="evenodd">
        <g id="Group">
            <polygon id="Frame" points="0 0 20 0 20 20 0 20"></polygon>
            <g id="nvidia" transform="translate(0, 2.8)" fill-rule="nonzero">
                <path d="M19.8604109,14.2600669 C19.8604109,14.4746534 19.7028396,14.6186783 19.5163034,14.6186783 L19.5163034,14.6173695 C19.324475,14.6186783 19.169806,14.4746534 19.169806,14.2601238 C19.169806,14.0456512 19.324475,13.9020246 19.5163034,13.9020246 C19.7028965,13.9019677 19.8604109,14.0455943 19.8604109,14.2600669 L19.8604109,14.2600669 Z M20,14.2600669 C20,13.9655299 19.77124,13.7945891 19.5163034,13.7945891 C19.2596028,13.7945891 19.0308428,13.9655299 19.0308428,14.2600669 C19.0308428,14.5543764 19.2596597,14.726 19.5163034,14.726 C19.77124,14.726 20,14.5543764 20,14.2600669 M19.4360667,14.2994448 L19.4878507,14.2994448 L19.6078643,14.5101617 L19.7396005,14.5101617 L19.6066693,14.2905677 C19.6753542,14.2856739 19.7318614,14.2530108 19.7318614,14.1605412 C19.7318614,14.0455943 19.652592,14.0087203 19.5184658,14.0087203 L19.3243612,14.0087203 L19.3243612,14.5101617 L19.4359529,14.5101617 L19.4360667,14.2994448 M19.4360667,14.2145434 L19.4360667,14.0938492 L19.5136858,14.0938492 C19.5559096,14.0938492 19.6134411,14.0972635 19.6134411,14.148762 C19.6134411,14.2047559 19.5836795,14.2145434 19.5338872,14.2145434 L19.4360667,14.2145434 M16.7426165,11.6947037 L17.3457008,13.3444755 L16.1208672,13.3444755 L16.7426165,11.6947037 L16.7426165,11.6947037 Z M16.0967393,11.0523101 L14.7069368,14.5735532 L15.6882718,14.5735532 L15.9080976,13.9513038 L17.5528367,13.9513038 L17.7608832,14.5735532 L18.8262676,14.5735532 L17.4261082,11.0518549 L16.0967393,11.0523101 Z M13.3064929,14.574862 L14.3021681,14.574862 L14.3021681,11.0512289 L13.3063222,11.0510013 L13.3064929,14.574862 Z M6.39435498,11.0510013 L5.56364878,13.8437545 L4.76788255,11.0512289 L3.69356399,11.0510013 L4.83008024,14.574862 L6.26449667,14.574862 L7.4101747,11.0510013 L6.39435498,11.0510013 Z M10.418995,11.8183 L10.8469812,11.8183 C11.467763,11.8183 11.869345,12.0970176 11.869345,12.8203292 C11.869345,13.5437546 11.467763,13.8225292 10.8469812,13.8225292 L10.418995,13.8225292 L10.418995,11.8183 L10.418995,11.8183 Z M9.43168497,11.0510013 L9.43168497,14.574862 L11.0458089,14.574862 C11.9058214,14.574862 12.1867069,14.4319182 12.4903545,14.111262 C12.7048313,13.8860913 12.8435668,13.3918768 12.8435668,12.8517404 C12.8435668,12.356274 12.7261708,11.9145822 12.5214818,11.6393926 C12.1527343,11.1472835 11.6214647,11.0510013 10.8285438,11.0510013 L9.43168497,11.0510013 L9.43168497,11.0510013 Z M0,11.0461075 L0,14.574862 L1.00409719,14.574862 L1.00409719,11.8954623 L1.78210892,11.8956899 C2.03972003,11.8956899 2.22335401,11.959935 2.34740796,12.0924084 C2.50475161,12.2599918 2.56899789,12.5305152 2.56899789,13.0254126 L2.56899789,14.574862 L3.54196779,14.574862 L3.54196779,12.6252041 C3.54196779,11.2337213 2.65503898,11.0461075 1.78723041,11.0461075 L0,11.0461075 L0,11.0461075 Z M7.82922665,11.0510013 L7.82962499,14.574862 L8.82484493,14.574862 L8.82484493,11.0510013 L7.82922665,11.0510013 Z" id="Shape" fill="#000000"></path>
                <path d="M2.67586639,4.03463436 C2.67586639,4.03463436 3.95646731,2.14523822 6.51340124,1.94977168 L6.51340124,1.26430152 C3.68127241,1.49174832 1.22876003,3.89038175 1.22876003,3.89038175 C1.22876003,3.89038175 2.6178228,7.90578243 6.51340124,8.27349853 L6.51340124,7.54489485 C3.65464064,7.18525917 2.67586639,4.03463436 2.67586639,4.03463436 L2.67586639,4.03463436 Z M6.51340124,6.09588172 L6.51340124,6.76319938 C4.35281398,6.37795673 3.75308712,4.13211156 3.75308712,4.13211156 C3.75308712,4.13211156 4.79047402,2.9829276 6.51340124,2.79656576 L6.51340124,3.52875442 C6.51209241,3.52875442 6.51118193,3.52835609 6.51010072,3.52835609 C5.60581574,3.41983943 4.89939111,4.26458496 4.89939111,4.26458496 C4.89939111,4.26458496 5.29533944,5.68662541 6.51340124,6.09588172 M6.51340124,0 L6.51340124,1.26430152 C6.59654015,1.25792823 6.67967905,1.25252231 6.7632732,1.24967709 C9.98309907,1.14116044 12.0810334,3.89038175 12.0810334,3.89038175 C12.0810334,3.89038175 9.67148466,6.82027447 7.16115632,6.82027447 C6.93108746,6.82027447 6.71570022,6.79893533 6.51340124,6.76308557 L6.51340124,7.54489485 C6.69232537,7.56788759 6.87252673,7.57951939 7.0529221,7.57972033 C9.38894896,7.57972033 11.0783019,6.38672 12.7141069,4.97475162 C12.9853184,5.19195564 14.0956581,5.72036971 14.323906,5.95162911 C12.7685654,7.25382895 9.14374324,8.30348714 7.08871564,8.30348714 C6.89062767,8.30348714 6.70039265,8.29148032 6.51340124,8.27344163 L6.51340124,9.37203759 L15.3924771,9.37203759 L15.3924771,0 L6.51340124,0 Z M6.51340124,2.79650885 L6.51340124,1.94982858 C6.59568656,1.94408124 6.67859785,1.9396427 6.7632732,1.93696819 C9.07864337,1.8642444 10.5976783,3.92662984 10.5976783,3.92662984 C10.5976783,3.92662984 8.95697946,6.20519503 7.19780345,6.20519503 C6.94463097,6.20519503 6.71763501,6.1645084 6.51334434,6.09582481 L6.51334434,3.52869751 C7.41472714,3.6376125 7.59614181,4.03577244 8.13805269,4.93912948 L9.34336767,3.92287415 C9.34336767,3.92287415 8.46355204,2.76902404 6.98042451,2.76902404 C6.81915438,2.76896713 6.66488363,2.78029111 6.51340124,2.79650885" id="Shape" fill="#77B900"></path>
            </g>
        </g>
    </g>
</svg>