<?xml version="1.0" encoding="UTF-8"?>
<svg width="20px" height="20px" viewBox="0 0 20 20" version="1.1" xmlns="http://www.w3.org/2000/svg" xmlns:xlink="http://www.w3.org/1999/xlink">
    <title>Open-telemetry</title>
    <g id="Open-telemetry" stroke="none" stroke-width="1" fill="none" fill-rule="evenodd">
        <g id="open-telemetry">
            <polygon id="Frame" points="0 0 20 0 20 20 0 20"></polygon>
            <g transform="translate(1, 0.5)" fill-rule="nonzero" id="Shape">
                <path d="M9.52285462,10.3813278 C8.75317016,11.1933535 8.75317016,12.5037949 9.52285462,13.3102203 C10.2925391,14.122246 11.5346505,14.122246 12.2990268,13.3102203 C13.0687113,12.4981947 13.0687113,11.1877533 12.2990268,10.3813278 C11.5293424,9.57490237 10.2925391,9.57490237 9.52285462,10.3813278 Z M11.5983486,12.5765972 C11.2161604,12.9798099 10.6004129,12.9798099 10.2235329,12.5765972 C9.84134474,12.1733844 9.84134474,11.5237639 10.2235329,11.1261514 C10.605721,10.7229386 11.2214686,10.7229386 11.5983486,11.1261514 C11.9805367,11.5237639 11.9805367,12.1733844 11.5983486,12.5765972 Z M12.2671778,0.189005969 L11.0622235,1.46024611 C10.8286641,1.70665389 10.8286641,2.1154668 11.0622235,2.36747476 L15.7599528,7.32363127 C15.9935122,7.57003905 16.3810086,7.57003905 16.6198761,7.32363127 L17.8248304,6.05239113 C18.0583899,5.80598335 18.0583899,5.39717044 17.8248304,5.14516248 L13.1271012,0.189005969 C12.8882336,-0.0630019895 12.5007372,-0.0630019895 12.2671778,0.189005969 Z M3.83780596,16.4127183 C4.0501327,16.1887112 4.0501327,15.8190996 3.83780596,15.5950925 L3.22736656,14.9510721 C3.01503981,14.7270651 2.66470068,14.7270651 2.45237393,14.9510721 L1.18372162,16.2783141 L0.838690652,15.9143026 C0.647596579,15.7126962 0.334414627,15.7126962 0.143320554,15.9143026 C-0.0477735181,16.1159089 -0.0477735181,16.4463194 0.143320554,16.6479257 L2.22943085,18.8487952 C2.42052492,19.0504016 2.73370687,19.0504016 2.92480094,18.8487952 C3.11589502,18.6471889 3.11589502,18.3167784 2.92480094,18.1151721 L2.57976998,17.7511606 L3.83780596,16.4127183 L3.83780596,16.4127183 Z" fill="#F5A800"></path>
                <path d="M10.2023002,3.82912092 L7.52698319,6.65161005 C7.2881156,6.90361801 7.2881156,7.31243092 7.52698319,7.56443888 L9.17782365,9.30609388 C10.3456208,8.42126593 11.9805367,8.52766929 13.0315541,9.63650431 L14.3692126,8.22525975 C14.6080802,7.97325179 14.6080802,7.56443888 14.3692126,7.31243092 L11.0675317,3.82912092 C10.8286641,3.58271314 10.4411678,3.58271314 10.2023002,3.82912092 L10.2023002,3.82912092 Z M8.48776172,10.0453172 L7.51105868,9.01488468 C7.28280743,8.77407708 6.91123562,8.77407708 6.68298437,9.01488468 L3.24329106,12.6437993 C3.01503981,12.8846069 3.01503981,13.2766193 3.24329106,13.5174269 L5.19138897,15.5726918 C5.41964022,15.8134994 5.79121203,15.8134994 6.01946329,15.5726918 L8.23296963,13.237418 C7.76585078,12.2181858 7.85078148,10.9861469 8.48776172,10.0453172 Z" fill="#425CC7"></path>
            </g>
        </g>
    </g>
</svg>