<?xml version="1.0" encoding="UTF-8"?>
<svg width="20px" height="20px" viewBox="0 0 20 20" version="1.1" xmlns="http://www.w3.org/2000/svg" xmlns:xlink="http://www.w3.org/1999/xlink">
    <title>Prometheus</title>
    <g id="Prometheus" stroke="none" stroke-width="1" fill="none" fill-rule="evenodd">
        <g>
            <polygon id="Frame" points="0 0 20 0 20 20 0 20"></polygon>
            <path d="M10,1 C5.02775897,1 1,5.02775897 1,10 C1,14.972241 5.02775897,19 10,19 C14.972241,19 19,14.972241 19,10 C19,5.02775897 14.972241,1 10,1 Z M10,17.8483412 C8.58632363,17.8483412 7.44075829,16.9038592 7.44075829,15.7400135 L12.5592417,15.7400135 C12.5592417,16.9038592 11.4136764,17.8483412 10,17.8483412 Z M14.2349357,15.0331754 L5.76506431,15.0331754 L5.76506431,13.4976303 L14.2288422,13.4976303 L14.2288422,15.0331754 L14.2349357,15.0331754 Z M14.2044685,12.7115775 L5.79553148,12.7115775 L5.71022342,12.6140826 C4.84495599,11.5599187 4.63777927,11.0115098 4.44276314,10.4570074 C4.43669601,10.4387271 5.49085984,10.6702776 6.24035206,10.8408937 C6.24035206,10.8408937 6.62423831,10.9322952 7.18483412,11.0297901 C6.64251861,10.3960731 6.32566012,9.59174 6.32566012,8.76912661 C6.32566012,6.96547055 7.70886933,5.3872715 7.20920785,4.11374407 C7.69668246,4.15030467 8.21462423,5.13744076 8.25118483,6.67907921 C8.7691266,5.96614759 8.98239674,4.66215301 8.98239674,3.86391333 C8.98239674,3.0352065 9.53080568,2.07244413 10.0731212,2.04197698 C9.58564657,2.84631009 10.2010833,3.53486798 10.7433988,5.23493567 C10.9505755,5.8747461 10.9201083,6.95328368 11.0785376,7.63574814 C11.1333785,6.21597833 11.3771158,4.14421124 12.2728504,3.43127962 C11.8767772,4.33310765 12.3276913,5.46039269 12.6445498,5.99661476 C13.1503047,6.86797563 13.4549763,7.53215978 13.4549763,8.78131347 C13.4549763,9.62220717 13.1442112,10.40826 12.620176,11.0297901 C13.2173324,10.9201083 13.6255924,10.81652 13.6255924,10.81652 L15.5573072,10.4387271 C15.563304,10.450914 15.2830061,11.6025728 14.2044685,12.7115775 L14.2044685,12.7115775 Z" id="Shape" fill="#DA4E31" fill-rule="nonzero"></path>
        </g>
    </g>
</svg>