<?xml version="1.0" encoding="UTF-8"?>
<svg width="20px" height="20px" viewBox="0 0 20 20" version="1.1" xmlns="http://www.w3.org/2000/svg" xmlns:xlink="http://www.w3.org/1999/xlink">
    <title>Pulsar</title>
    <g id="Pulsar" stroke="none" stroke-width="1" fill="none" fill-rule="evenodd">
        <g id="pulsar">
            <polygon id="Frame" points="0 0 20 0 20 20 0 20"></polygon>
            <path d="M10.075,0.5 L18.15,5.26646667 L18.15,14.7335333 L10.075,19.5 L2,14.7335333 L2,5.26646667 L10.075,0.5 Z M10.075,1.7578 L3.04198557,5.86243333 L3.04198557,14.1375667 L10.075,18.2422 L17.1080144,14.1375667 L17.1080144,5.86243333 L10.075,1.7578 Z M13.0705144,8.77513333 L13.0705144,8.70895 L15.870676,8.70895 L15.870676,9.70201667 L13.5916625,9.70201667 L13.7217942,9.96675 C13.7870154,10.1656167 13.8522365,10.2979833 13.9171471,10.4965333 L14.0475894,10.7612667 L14.1125,10.9598167 L15.9358971,10.9598167 L15.9358971,11.9528833 L11.1822067,11.9528833 C10.8828106,11.9528833 9.94921635,12.3281333 8.38173461,13.0783167 L8.12147116,13.2106833 L7.86089711,13.34305 L7.60032308,13.4757333 L7.01426442,13.6742833 C6.62355865,13.80665 6.10272114,13.8728333 5.38622018,13.9390167 L4.40945577,13.9390167 L4.40945577,12.94595 L6.23285289,12.94595 C6.42851635,12.94595 6.55833751,12.8797667 6.62355865,12.8797667 L6.81922211,12.8135833 L7.01426442,12.7474 L7.4049702,12.6150333 L7.73076538,12.4826667 L8.70752981,12.0190667 C9.7495154,11.4896 10.5306163,11.2027 11.0517644,11.1586833 L13.0705144,11.1586833 L13.0052933,10.8936333 C12.1589711,8.64276665 11.2474279,7.51733333 10.4657058,7.45146667 L10.4004846,7.45146667 C9.94486828,7.45146667 9.40446443,7.67155 9.01375865,8.23711667 C8.75318462,8.61426667 8.47739231,9.08071667 8.18638173,9.63583333 L8.05625,9.83438333 C7.66554423,10.43035 7.34005963,10.82745 7.01426442,11.22455 C6.55833749,11.68815 5.97227884,11.8205167 4.99551443,11.8205167 L4.40945577,11.8205167 L4.40945577,10.82745 L4.60511923,10.82745 C5.32130961,10.89395 6.03750001,10.7612667 6.29776346,10.5627167 C6.49342692,10.3641667 6.6887798,10.0994333 6.8841327,9.83438333 L6.94935385,9.70201667 L4.40945577,9.70201667 L4.40945577,8.70895 L7.5354125,8.70895 L7.99102885,7.91475 C8.70752981,6.78931667 9.29358847,6.32571667 10.075,6.25953333 L10.2703529,6.25953333 C11.3123385,6.25953333 12.2238817,7.12023333 13.0705144,8.77513333 L13.0705144,8.77513333 Z" id="Shape" fill="#2196F3" fill-rule="nonzero"></path>
        </g>
    </g>
</svg>