<?xml version="1.0" encoding="UTF-8"?>
<svg width="20px" height="20px" viewBox="0 0 20 20" version="1.1" xmlns="http://www.w3.org/2000/svg" xmlns:xlink="http://www.w3.org/1999/xlink">
    <title>Icon / Logo 20*20 / Pytorch</title>
    <g id="Icon-/-Logo-20*20-/-Pytorch" stroke="none" stroke-width="1" fill="none" fill-rule="evenodd">
        <g id="PyTorch_logo_icon" transform="translate(1.75, 0)" fill="#EE4C2C" fill-rule="nonzero">
            <path d="M14.0956287,5.84918634 L12.6104308,7.33440293 C15.0490891,9.77309191 15.0490891,13.6969975 12.6104308,16.0990144 C10.1717724,18.5377034 6.24791609,18.5377034 3.84592927,16.0990144 C1.4072709,13.6603255 1.4072709,9.73641989 3.84592927,7.33440293 L3.84592927,7.33440293 L7.71477826,3.46550539 L8.26485158,2.91542517 L8.26485158,2.91542517 L8.26485158,0 L2.43407443,5.83085033 C-0.811358142,9.07632363 -0.811358142,14.3204217 2.43407443,17.565895 C5.67950699,20.8113683 10.9235393,20.8113683 14.1139645,17.565895 C17.3410613,14.3204217 17.3410613,9.11299565 14.0956287,5.84918634 Z" id="Path"></path>
            <ellipse id="Oval" cx="11.1802402" cy="4.41897777" rx="1.08181086" ry="1.08182443"></ellipse>
        </g>
    </g>
</svg>