<?xml version="1.0" encoding="UTF-8"?>
<svg width="20px" height="20px" viewBox="0 0 20 20" version="1.1" xmlns="http://www.w3.org/2000/svg" xmlns:xlink="http://www.w3.org/1999/xlink">
    <title>Red Hat</title>
    <g id="Red-Hat" stroke="none" stroke-width="1" fill="none" fill-rule="evenodd">
        <g>
            <polygon id="Frame" points="0 0 20 0 20 20 0 20"></polygon>
            <g id="red-hat" transform="translate(1, 3.1911)" fill-rule="nonzero">
                <path d="M14.8726489,5.87359462 C14.8956559,5.97979022 14.9055019,6.08841424 14.9019649,6.19701587 C14.9019649,7.60418199 13.1893454,7.84911212 12.0072502,7.84911212 C7.40653567,7.84911212 3.97467689,4.98938741 3.97467689,4.11747399 C3.97174952,4.05560096 3.97877385,3.99365917 3.99548177,3.93401282 L3.64841862,4.79079542 C3.55383793,5.00996648 3.50523657,5.24621413 3.50561925,5.48492172 C3.50561925,7.19754124 7.38289377,9.78585689 11.8029841,9.78585689 C13.7605338,9.78585689 15.2480824,9.05201219 15.2480824,7.72711989 C15.2480824,7.62498687 15.2480824,7.54365872 15.0854261,6.76914994 L14.8726489,5.87359462 Z" id="Path" fill="#000000"></path>
                <path d="M12.0072502,7.84911212 C13.1893454,7.84911212 14.9019649,7.60512767 14.9019649,6.19796154 C14.9055019,6.08935992 14.8956559,5.98073589 14.8726489,5.8745403 L14.1681202,2.81433225 C14.0045182,2.14101082 13.8626668,1.83555742 12.6796259,1.24450982 C11.7623201,0.774508774 9.76410634,0 9.17305874,0 C8.62172954,0 8.46001891,0.713039823 7.80750236,0.713039823 C7.17579069,0.713039823 6.70673532,0.183461175 6.11568772,0.183461175 C5.54828202,0.183461175 5.17757697,0.570242724 4.89198277,1.36555637 C4.89198277,1.36555637 4.09761479,3.60870022 3.99548177,3.93401282 C3.97877385,3.99365917 3.97174952,4.05560096 3.97467689,4.11747399 C3.97467689,4.98938741 7.40653567,7.84911212 12.0072502,7.84911212 M15.0854261,6.76914994 C15.2480824,7.54365872 15.2480824,7.62498687 15.2480824,7.72711989 C15.2480824,9.05106651 13.7605338,9.78585689 11.8029841,9.78585689 C7.37911106,9.78491121 3.50562152,7.19659557 3.50562152,5.48492172 C3.50536589,5.24653258 3.55396457,5.01061978 3.64841862,4.79174109 C2.058737,4.87212357 0,5.15771777 0,6.97152464 C0,9.94851319 7.05285279,13.6177367 12.6389619,13.6177367 C16.9200378,13.6177367 18,11.6809919 18,10.1518336 C18,8.94893349 16.9597562,7.58337711 15.0854261,6.76820427" id="Shape" fill="#EE0000"></path>
            </g>
        </g>
    </g>
</svg>