<?xml version="1.0" encoding="UTF-8"?>
<svg width="20px" height="20px" viewBox="0 0 20 20" version="1.1" xmlns="http://www.w3.org/2000/svg" xmlns:xlink="http://www.w3.org/1999/xlink">
    <title>Submariner</title>
    <g id="Submariner" stroke="none" stroke-width="1" fill="none" fill-rule="evenodd">
        <g id="submariner">
            <polygon id="Frame" points="0 0 20 0 20 20 0 20"></polygon>
            <path d="M18.5,7.27257046 L18.5,15.190642 C18.4970936,16.1887122 17.6932016,16.9970809 16.7006621,17 L3.29933669,17 C2.30679764,16.9970802 1.50290638,16.1887117 1.5,15.190642 L1.5,14.4874429 L14.4514646,14.4874429 C15.3070289,14.486473 16.0003602,13.7892783 16.0013247,12.9289466 L16.0013247,10.6785192 C16.0003808,9.81817276 15.3070435,9.1209551 14.4514646,9.11998513 L5.74898203,9.11998513 L5.74898203,7.27257046 L18.5,7.27257046 Z M16.7006621,3 C17.6932021,3.0029205 18.4970932,3.81129109 18.5,4.80936181 L18.5,5.51255203 L5.54857288,5.51255203 C4.69301349,5.51353372 3.99968903,6.21072156 3.99871278,7.07104835 L3.99871278,9.32146701 C3.9996718,10.1818075 4.69299988,10.879017 5.54857288,10.8800036 L14.2510592,10.8800036 L14.2510592,12.7274207 L1.5,12.7274207 L1.5,4.80935804 C1.50290638,3.8112883 2.30679764,3.0029198 3.29933669,3 Z" id="Combined-Shape" fill="#2BDFC4" fill-rule="nonzero"></path>
        </g>
    </g>
</svg>