<?xml version="1.0" encoding="UTF-8"?>
<svg width="20px" height="20px" viewBox="0 0 20 20" version="1.1" xmlns="http://www.w3.org/2000/svg" xmlns:xlink="http://www.w3.org/1999/xlink">
    <title>Tanzu</title>
    <g id="Tanzu" stroke="none" stroke-width="1" fill="none" fill-rule="evenodd">
        <g>
            <polygon id="Frame" points="0 0 20 0 20 20 0 20"></polygon>
            <g transform="translate(1, 1)" fill-rule="nonzero">
                <path d="M14.6205689,4.82543702 L8.99606127,2.05 L3.36367615,4.82543702 L1.97724289,11.0701703 L5.86870897,16.0724115 L12.1155361,16.0724115 L16.0070022,11.0701703 L14.6205689,4.82543702 Z M11.7689278,15.3301434 L6.21531729,15.3301434 L2.74923414,10.8846033 L3.98599562,5.3417974 L8.98818381,2.87294935 L13.990372,5.3417974 L15.2271335,10.8846033 L11.7689278,15.3301434 Z" id="Shape" fill="#2491CF"></path>
                <g id="colorful-edge">
                    <polygon id="Path" fill="#1A448B" points="1.59124726 3.8404303 0 10.9968624 0.850765864 10.7951591 2.27658643 4.39713133"></polygon>
                    <polygon id="Path" fill="#20BFD3" points="2.05601751 3.23532048 2.74135667 3.79202152 8.61794311 0.895562528 8.61794311 0"></polygon>
                    <polygon id="Path" fill="#20BFD3" points="9.36630197 0 9.36630197 0.895562528 15.2113786 3.77588525 15.8967177 3.21111609"></polygon>
                    <polygon id="Path" fill="#78BF42" points="17.0153173 11.6100403 12.9111597 16.8785298 13.2971554 17.6853429 17.8739606 11.8036755"></polygon>
                    <polygon id="Path" fill="#78BF42" points="0.937417943 11.5696997 0.0787746171 11.7633348 4.67921225 17.6692066 5.05733042 16.8623935"></polygon>
                    <polygon id="Path" fill="#1A448B" points="16.3851204 3.80008965 15.6997812 4.35679068 17.1492341 10.851636 18 11.0533393"></polygon>
                    <polygon id="Path" fill="#20BFD3" points="12.233698 17.1931869 5.73479212 17.1931869 5.35667396 18 12.6118162 18"></polygon>
                </g>
            </g>
        </g>
    </g>
</svg>