<?xml version="1.0" encoding="UTF-8"?>
<svg width="20px" height="20px" viewBox="0 0 20 20" version="1.1" xmlns="http://www.w3.org/2000/svg" xmlns:xlink="http://www.w3.org/1999/xlink">
    <title>Tekton</title>
    <defs>
        <linearGradient x1="-122.878375%" y1="-176.06483%" x2="132.338495%" y2="157.689357%" id="linearGradient-1">
            <stop stop-color="#A677B4" offset="0%"></stop>
            <stop stop-color="#F0515A" offset="36.3%"></stop>
            <stop stop-color="#2B338C" offset="100%"></stop>
        </linearGradient>
        <linearGradient x1="-178.599106%" y1="-201.115073%" x2="125.199239%" y2="132.639114%" id="linearGradient-2">
            <stop stop-color="#A677B4" offset="0%"></stop>
            <stop stop-color="#F0515A" offset="36.3%"></stop>
            <stop stop-color="#2B338C" offset="100%"></stop>
        </linearGradient>
        <linearGradient x1="7.97900988%" y1="6.06948226%" x2="74.9917603%" y2="84.6757731%" id="linearGradient-3">
            <stop stop-color="#A677B4" offset="0%"></stop>
            <stop stop-color="#F0515A" offset="36.3%"></stop>
            <stop stop-color="#2B338C" offset="100%"></stop>
        </linearGradient>
        <linearGradient x1="-175.952468%" y1="-160.008429%" x2="83.1096892%" y2="80.7626939%" id="linearGradient-4">
            <stop stop-color="#A677B4" offset="0%"></stop>
            <stop stop-color="#F0515A" offset="36.3%"></stop>
            <stop stop-color="#2B338C" offset="100%"></stop>
        </linearGradient>
        <linearGradient x1="-211.323969%" y1="-191.024002%" x2="45.5079293%" y2="45.6193821%" id="linearGradient-5">
            <stop stop-color="#A677B4" offset="0%"></stop>
            <stop stop-color="#F0515A" offset="36.3%"></stop>
            <stop stop-color="#2B338C" offset="100%"></stop>
        </linearGradient>
        <linearGradient x1="-270.542977%" y1="-296.164638%" x2="25.9469801%" y2="23.9730317%" id="linearGradient-6">
            <stop stop-color="#A677B4" offset="0%"></stop>
            <stop stop-color="#F0515A" offset="36.3%"></stop>
            <stop stop-color="#2B338C" offset="100%"></stop>
        </linearGradient>
        <linearGradient x1="-259.458484%" y1="-234.082763%" x2="-3.66922383%" y2="0.769140396%" id="linearGradient-7">
            <stop stop-color="#A677B4" offset="0%"></stop>
            <stop stop-color="#F0515A" offset="36.3%"></stop>
            <stop stop-color="#2B338C" offset="100%"></stop>
        </linearGradient>
    </defs>
    <g id="Tekton" stroke="none" stroke-width="1" fill="none" fill-rule="evenodd">
        <g>
            <polygon id="Frame" points="0 0 20 0 20 20 0 20"></polygon>
            <g id="tekton-pipelines" transform="translate(2, 1)">
                <polygon id="Path" fill="url(#linearGradient-1)" fill-rule="nonzero" points="1.85447926 15.3805902 0.979965023 17.9488896 0 17.9488896 0.876332358 15.3805902 0.178175459 15.3805902 0.454529231 14.5701247 2.82717182 14.5701247 2.55081805 15.3805902"></polygon>
                <polygon id="Path" fill="url(#linearGradient-2)" fill-rule="nonzero" points="4.2325762 17.1439002 3.95804055 17.9488896 1.42358555 17.9488896 2.57445357 14.5701247 4.78891998 14.5701247 4.52165679 15.3495589 3.32351774 15.3495589 3.15625098 15.8424095 4.38166179 15.8424095 4.12712542 16.5926377 2.90171461 16.5926377 2.71263045 17.1439002"></polygon>
                <path d="M8.09334928,6.3742014 L8.09334928,6.5147551 M11.7486716,10.9339824 L11.8704854,10.9011256 L11.8850303,10.996045 C11.9541188,11.4323091 11.9232108,11.8101612 11.7468535,12.1953149 C12.019571,12.2336477 12.2577443,12.3650745 12.3831944,12.6443566 C12.4722821,12.8414968 12.5577336,13.0714938 12.5595517,13.2905385 C12.5595517,13.4529967 12.5086444,13.6154548 12.3813763,13.7213264 C12.3050153,13.7833891 12.2122914,13.8180712 12.1141131,13.8180712 L10.6905275,13.8180712 C10.6087123,14.042592 10.4468999,14.2488591 10.2105447,14.3109218 C10.1432743,14.3291755 10.076004,14.3328263 10.0087337,14.3383024 C9.936009,14.3419531 9.86510244,14.3437785 9.79419588,14.3437785 C9.61056607,14.3456039 9.42693626,14.3437785 9.24330645,14.3437785 C8.95604397,14.3401278 8.6687815,14.3346517 8.38151903,14.3273502 C8.20516168,14.3236994 8.05062174,14.2196532 7.97607895,14.0626711 C7.90335427,14.2196532 7.74881434,14.321874 7.57245699,14.3273502 C7.2833764,14.3346517 6.99611393,14.3401278 6.70885145,14.3437785 C6.52522164,14.3456039 6.34159184,14.3474293 6.15796203,14.3437785 C6.08705547,14.3437785 6.01614891,14.3419531 5.94342423,14.3383024 C5.87433579,14.3346517 5.80706546,14.3291755 5.73979513,14.3109218 C5.50343993,14.2488591 5.34344564,14.0407667 5.25981226,13.8180712 L3.84895353,13.8180712 C3.75077522,13.8180712 3.65805125,13.7833891 3.58169034,13.7213264 C3.45442216,13.6154548 3.40351488,13.4529967 3.40351488,13.2905385 C3.40351488,13.0714938 3.4907845,12.8414968 3.57805411,12.6443566 C3.62532515,12.5384849 3.69623171,12.4453909 3.78895567,12.3705507 C3.91076951,12.2719805 4.05258263,12.2190447 4.20166821,12.1953149 C4.02531087,11.8101612 3.99440288,11.4323091 4.06349133,10.996045 L4.07803626,10.9011256 L4.21439503,10.9376331 C4.23075809,10.8554913 4.25257549,10.7733496 4.27984724,10.6930332 C4.37620744,10.4064497 4.54711043,10.1472467 4.78346563,9.95740797 C4.87073524,9.88804381 4.96164109,9.83145726 5.05800129,9.78764831 C5.07254622,9.52662002 5.10527233,9.2674171 5.16163395,9.01003955 C5.21435934,8.66321874 5.31253766,8.32552479 5.46344136,8.00973532 C5.39071668,7.92211743 5.32890071,7.82354731 5.27799343,7.71585032 C5.27072097,7.69942197 5.2634485,7.68299361 5.25799415,7.66656526 C4.81437362,7.41283845 4.40711543,7.07879525 4.05258263,6.64070581 C3.85258976,6.3942805 3.55987294,6.01095224 3.5344193,5.68786127 C3.52169248,5.57468817 3.51805625,5.46151506 3.51623813,5.35016733 C3.5126019,5.0781868 3.52714683,4.80803164 3.55987294,4.53787648 C3.57805411,4.38089443 3.60350775,4.22391238 3.63441573,4.0687557 C3.4271504,3.82963188 3.24533871,3.56677822 3.09443501,3.2874962 C2.85807981,2.84758138 2.70172175,2.36933374 2.64354201,1.87283237 C2.58536227,1.37998175 2.62536084,0.883480377 2.75444714,0.405232735 C2.82171747,0.166108914 3.03625527,0 3.28533728,0 C4.21621315,0 5.01982083,0.38150289 5.76706689,0.874353514 C7.1651988,0.0127776088 8.93968092,0.0091268634 10.3414491,0.874353514 C11.086877,0.38150289 11.8904847,0 12.8213606,0 C13.0704426,0 13.2867985,0.166108914 13.3504326,0.407058108 C13.4777008,0.887131123 13.5176993,1.38363249 13.4595196,1.87465774 C13.4013399,2.37115911 13.2449818,2.84940675 13.0086266,3.28932157 C12.8577229,3.56860359 12.6777293,3.83145726 12.470464,4.07058108 C12.4995539,4.21843626 12.5231894,4.36629145 12.5431887,4.51779738 C12.5777329,4.79160329 12.5922778,5.06905993 12.5886416,5.34469121 C12.5868235,5.45968969 12.5831872,5.57468817 12.5704604,5.6860359 C12.5413706,6.01825373 12.2577443,6.39062975 12.0522971,6.64253118 C11.6977643,7.07879525 11.2905061,7.41466383 10.8468856,7.66839063 L10.8250682,7.71767569 C10.7868877,7.79981746 10.7432529,7.87830849 10.6959819,7.95679951 C10.6523471,8.02798905 10.6032579,8.09370246 10.5468963,8.15211439 C10.5850767,8.24155765 10.619621,8.33100091 10.6487108,8.42409492 C10.7123449,8.6194098 10.7577978,8.82020079 10.7887058,9.02464253 C10.8105232,9.12868877 10.8305225,9.23456039 10.8450675,9.33860663 C11.25778,8.64496501 11.8068513,8.01886218 12.4977357,7.63370855 C12.9031758,7.40736234 13.3631594,7.26315789 13.8304155,7.2759355 C14.3267614,7.28871311 14.8140167,7.52053544 15.1903669,7.83815029 C15.6030795,8.18679647 15.9394311,8.68512321 15.9957927,9.23456039 C16.0048833,9.32400365 15.9994289,9.41527228 15.9776115,9.50471555 C15.906705,9.79860055 15.6812585,10.0285975 15.4139953,10.1545482 C15.0721893,10.315181 14.6449318,10.3097049 14.3576694,10.0377244 C14.195857,9.88256769 14.1449497,9.71280803 14.0631344,9.51384241 C14.0140453,9.39701856 13.963138,9.3075753 13.8595053,9.22908427 C13.7213284,9.12503803 13.5522436,9.07210222 13.3795225,9.08487983 C13.1340767,9.10130818 12.9159026,9.24186188 12.7431815,9.40979617 C12.6468213,9.50471555 12.5540974,9.60693642 12.470464,9.71280803 C12.3068335,9.9154244 12.159566,10.1308184 12.0286616,10.3553392 C11.9286651,10.5269242 11.8341231,10.70216 11.7595803,10.8865227 C11.755944,10.8974749 11.7504897,10.9066018 11.7450353,10.917554 C11.7450353,10.9212047 11.7468535,10.9285062 11.7486716,10.9339824 Z M12.1250218,9.37876483 C12.1486573,9.37876483 12.1704747,9.38241558 12.190474,9.39154244 C12.2741074,9.29297232 12.361377,9.19622756 12.4522828,9.1067843 C12.4813727,9.07940371 12.5104626,9.05202312 12.5377343,9.02829328 C12.4250111,8.953453 12.330469,8.84393064 12.2650168,8.72710678 C12.2086552,8.63036203 12.1650203,8.51353818 12.1468392,8.39488896 C11.9704818,8.54822026 11.7995788,8.72710678 11.6341302,8.93154852 C11.6250396,9.05749924 11.7486716,9.20352905 11.8341231,9.27106784 C11.9141202,9.33495589 12.019571,9.38424095 12.1250218,9.37876483 Z M11.9959355,9.63979312 C11.8777579,9.61788865 11.7650346,9.5613021 11.6686744,9.48646182 C11.5777686,9.41527228 11.4886809,9.31487679 11.4305011,9.20170368 C11.2759612,9.4207484 11.1305118,9.66534834 10.994153,9.93367813 C11.039606,9.96105872 11.0832408,9.99209005 11.1268756,10.0267721 C11.2777793,10.1454214 11.3995931,10.2969273 11.490499,10.4648616 C11.6104947,10.222087 11.7850339,9.92637664 11.9959355,9.63979312 L11.9959355,9.63979312 Z M14.2176744,8.93154852 C14.2176744,8.94797688 14.2140381,8.96440523 14.2067657,8.97900821 C14.4831194,9.25098874 14.4703926,9.56860359 14.6431137,9.73288713 C14.9467392,10.0231214 15.6212606,9.69637968 15.5794439,9.27836933 C15.5412635,8.91512017 15.33218,8.55369638 15.0412813,8.26893824 C15.0394632,8.26711287 15.0376451,8.2652875 15.035827,8.2652875 C14.9958284,8.2251293 14.9376487,8.20687557 14.881287,8.20687557 C14.5140274,8.19044722 14.2304012,8.57742622 14.2176744,8.93154852 L14.2176744,8.93154852 Z M13.9595018,8.79829632 C13.9740467,8.70520231 14.0013184,8.61575905 14.0376808,8.53179191 C14.1558584,8.26163675 14.3776686,8.04076666 14.6485681,7.96227563 C14.3867592,7.80164284 14.0976786,7.70307271 13.8195067,7.69577122 C13.7395096,7.69394585 13.6595125,7.69577122 13.5776972,7.70672346 C13.5522436,7.72497718 13.528608,7.74323091 13.5158812,7.75418315 C13.5013363,7.76696075 13.4867914,7.77973836 13.4740645,7.79434134 C13.2904347,8.00243383 13.3122521,8.40401582 13.4704283,8.6194098 C13.4795189,8.63401278 13.4886095,8.64861576 13.4922457,8.66504411 C13.6595125,8.67417098 13.8195067,8.72345604 13.9595018,8.79829632 L13.9595018,8.79829632 Z M13.1904383,8.68694859 C13.1140774,8.54639489 13.0758969,8.3784606 13.0722607,8.21965318 C13.0686245,8.07727411 13.0940781,7.92941892 13.1522578,7.79799209 C13.0031722,7.84727715 12.8522685,7.91481594 12.7013648,7.99878308 C12.6159133,8.04624277 12.5304618,8.10100395 12.4450104,8.15941588 C12.4450104,8.16124125 12.4431922,8.16124125 12.4431922,8.16306663 C12.3650132,8.2780651 12.439556,8.48250685 12.501372,8.59020383 C12.5577336,8.68694859 12.6450032,8.78734408 12.7468178,8.83115303 C12.7595446,8.83662915 12.7704533,8.84210526 12.7795439,8.85123213 C12.9159026,8.76909036 13.0540795,8.71615455 13.1904383,8.68694859 L13.1904383,8.68694859 Z M7.65427226,1.18466687 C7.72517882,1.18466687 7.78335856,1.2430788 7.78335856,1.31426833 C7.78335856,1.38545786 7.72517882,1.44386979 7.65427226,1.44386979 C7.5833657,1.44386979 7.52518595,1.38545786 7.52518595,1.31426833 C7.52518595,1.24125342 7.58154758,1.18466687 7.65427226,1.18466687 Z M7.65427226,1.75600852 C7.72517882,1.75600852 7.78335856,1.81442044 7.78335856,1.88560998 C7.78335856,1.95679951 7.72517882,2.01521144 7.65427226,2.01521144 C7.5833657,2.01521144 7.52518595,1.95679951 7.52518595,1.88560998 C7.52518595,1.81442044 7.58154758,1.75600852 7.65427226,1.75600852 Z M8.45242559,1.18466687 C8.52333215,1.18466687 8.58151189,1.2430788 8.58151189,1.31426833 C8.58151189,1.38545786 8.52333215,1.44386979 8.45242559,1.44386979 C8.38151903,1.44386979 8.32333928,1.38545786 8.32333928,1.31426833 C8.3251574,1.24125342 8.38151903,1.18466687 8.45242559,1.18466687 Z M8.45242559,1.75600852 C8.52333215,1.75600852 8.58151189,1.81442044 8.58151189,1.88560998 C8.58151189,1.95679951 8.52333215,2.01521144 8.45242559,2.01521144 C8.38151903,2.01521144 8.32333928,1.95679951 8.32333928,1.88560998 C8.32333928,1.81442044 8.38151903,1.75600852 8.45242559,1.75600852 Z M8.16152688,0.759355035 L8.16152688,2.30909644 C8.98695196,2.32735017 9.79783211,2.55734713 10.2959961,2.99726194 C10.8705211,3.50654092 11.2541438,4.38819592 11.2123271,4.85184058 C11.1759647,5.26802556 10.5141702,5.54913295 9.63238347,5.69516276 C9.67601828,5.77365379 9.70692626,5.85762093 9.72328932,5.95071494 C9.7432886,6.07849103 9.7432886,6.20809249 9.7214712,6.33221783 C10.0541866,6.293885 10.3541759,6.24277457 10.6214391,6.18618801 C11.2723249,6.04745969 11.7323085,5.87404929 12.0122985,5.7663523 C12.0286616,5.72254335 12.0395703,5.67873441 12.0432065,5.63857621 C12.0432065,5.63857621 12.2341088,3.89351993 11.2486894,2.46425312 C10.4868984,1.35990265 9.32875794,0.792211743 8.16152688,0.759355035 L8.16152688,0.759355035 Z M7.94517096,2.30909644 L7.94517096,0.759355035 C6.75794061,0.794037116 5.58161896,1.37998175 4.82528232,2.51536355 C3.87986152,3.9355035 4.06530944,5.64040158 4.06530944,5.64040158 C4.06530944,5.64040158 4.06894568,5.68421053 4.10167178,5.77182841 C4.38529802,5.8795254 4.84164537,6.05111044 5.48525876,6.18801339 C5.75434007,6.24459994 6.05251124,6.29571037 6.38704476,6.3340432 C6.36522736,6.20991786 6.36522736,6.0803164 6.38522664,5.95254031 C6.40158969,5.8594463 6.43249768,5.77547916 6.47613249,5.69698814 C5.59434578,5.55095832 4.93255122,5.26802556 4.89618888,4.85366596 C4.85437219,4.3900213 5.23799486,3.50836629 5.81251981,2.99908731 C6.30886573,2.55734713 7.11974588,2.32735017 7.94517096,2.30909644 L7.94517096,2.30909644 Z M6.45795132,6.56038941 C6.07796488,6.52023121 5.73979513,6.46364466 5.44162396,6.39975662 C4.93255122,6.29023426 4.53801985,6.16245817 4.25257549,6.05841193 C4.30348276,6.13690295 4.36711685,6.22634621 4.447114,6.32491634 C4.92527875,6.91268634 5.52707545,7.31244296 6.24886787,7.56251901 C6.47613249,7.64101004 6.71248769,7.70307271 6.95247912,7.75235777 C6.95247912,7.7505324 6.95066101,7.74688166 6.95066101,7.74505628 C6.92702549,7.68116824 6.91975302,7.61180408 6.93066172,7.54609066 C6.95975159,7.37815637 7.08520166,7.27228476 7.24701406,7.20474597 C6.94157042,7.10069973 6.66703476,6.92728932 6.50704048,6.65165805 C6.48522307,6.62062671 6.47067814,6.58959538 6.45795132,6.56038941 L6.45795132,6.56038941 Z M7.23246913,7.63735929 C7.26701335,7.72680256 7.38155472,7.79616672 7.52518595,7.84362641 C7.69972518,7.86370551 7.87608252,7.88013386 8.05243986,7.8910861 C8.23061532,7.88013386 8.40879078,7.86553088 8.58333,7.84362641 C8.71787066,7.79981746 8.82695767,7.73775479 8.86877436,7.65561302 C9.05058605,7.30149072 7.10883718,7.31061758 7.23246913,7.63735929 Z M11.8523042,6.0602373 C11.5668599,6.16245817 11.1723285,6.29205963 10.666892,6.39975662 C10.3687208,6.46364466 10.028733,6.52023121 9.65056464,6.56038941 C9.6360197,6.59142075 9.62147477,6.62062671 9.60511172,6.64983267 C9.44511743,6.92363858 9.17239989,7.09887435 8.86695624,7.2029206 C9.02513242,7.27045939 9.14694625,7.37450563 9.17785424,7.5369638 C9.19239917,7.6099787 9.18330859,7.68299361 9.15785495,7.7505324 C9.74510672,7.63188318 10.2978143,7.43291755 10.7887058,7.11165196 C11.1432386,6.87982963 11.4323192,6.57681777 11.7032186,6.25007606 C11.755944,6.18983876 11.8050332,6.12412534 11.8523042,6.0602373 L11.8523042,6.0602373 Z M7.97426083,6.6279282 C7.89244557,6.77213264 7.7233607,6.98752662 7.36700978,6.91451171 C6.9288436,6.77213264 6.61430937,6.47642227 6.6924884,6.00365075 C6.76339496,5.57651354 7.47064245,5.31000913 8.05062174,5.31548524 L8.0560761,5.31548524 C8.63605539,5.31000913 9.34330288,5.57651354 9.41239132,6.00365075 C9.47966165,6.41253423 9.25421515,6.68999087 8.90695482,6.8487983 C8.39242773,7.04046243 8.21243415,6.79038637 8.13243701,6.63157895 C8.09425655,6.55491329 8.0778935,6.5147551 8.05789421,6.51292972 L8.05243986,6.51292972 C8.03607681,6.52023121 8.01607752,6.55673867 7.97426083,6.6279282 L7.97426083,6.6279282 Z M8.05243986,5.51445087 C7.7015433,5.51445087 7.27610393,5.61667174 7.23428725,5.83571646 C7.1651988,6.19896562 7.7015433,6.3742014 8.05243986,6.3742014 L8.05971233,6.3742014 C8.4106089,6.37237603 8.94149904,6.19714025 8.8724106,5.83571646 C8.83059391,5.61667174 8.40515455,5.51445087 8.05425798,5.51445087 L8.05243986,5.51445087 L8.05243986,5.51445087 Z M7.07429296,4.80255552 C7.07429296,4.87557043 7.01611321,4.93398235 6.94338854,4.93398235 C6.87066386,4.93398235 6.81248412,4.87557043 6.81248412,4.80255552 C6.81248412,4.65104959 6.75975873,4.51414664 6.67430723,4.41557651 C6.59249197,4.32248251 6.48158684,4.26407058 6.359773,4.26407058 C6.27795774,4.26407058 6.19977872,4.2896258 6.13432651,4.33526012 C6.06160183,4.38454518 6.00342209,4.45573471 5.96342351,4.54152723 C5.93251553,4.60541527 5.85615462,4.63462124 5.79070241,4.6035899 C5.72706831,4.57255856 5.69797844,4.49589291 5.72888643,4.43017949 C5.78888429,4.30240341 5.87979014,4.19470642 5.98887715,4.11804077 C6.09796417,4.04320049 6.22523235,4.00121692 6.36159112,4.00121692 C6.56158398,4.00121692 6.74157756,4.09248555 6.87066386,4.24216611 C6.99611393,4.38819592 7.07429296,4.58716155 7.07429296,4.80255552 L7.07429296,4.80255552 Z M9.03240488,4.80255552 C9.03240488,4.87557043 9.09058463,4.93398235 9.1633093,4.93398235 C9.23421586,4.93398235 9.29421372,4.87557043 9.29421372,4.80255552 C9.29421372,4.65104959 9.34693911,4.51414664 9.43239061,4.41557651 C9.51238775,4.32248251 9.625111,4.26407058 9.74692484,4.26407058 C9.8287401,4.26407058 9.90691913,4.2896258 9.97237133,4.33526012 C10.045096,4.38454518 10.1032758,4.45573471 10.1432743,4.54152723 C10.1741823,4.60541527 10.2505432,4.63462124 10.3159954,4.6035899 C10.3814476,4.57255856 10.4087194,4.49589291 10.3796295,4.43017949 C10.3196317,4.30240341 10.2287258,4.19470642 10.1196388,4.11804077 C10.0105518,4.04320049 9.88328361,4.00121692 9.74692484,4.00121692 C9.54693197,4.00121692 9.3669384,4.09248555 9.2378521,4.24216611 C9.11058391,4.38819592 9.03240488,4.58716155 9.03240488,4.80255552 L9.03240488,4.80255552 Z M9.13785567,8.29631883 C8.85786566,8.38576209 8.57060319,8.44052327 8.27970448,8.458777 C7.91789921,8.48250685 7.56518453,8.44965014 7.20883361,8.36203225 C6.90884432,8.28901734 6.61430937,8.17766961 6.34704619,8.02981442 C6.23250482,7.99695771 6.12159969,7.95862489 6.01069455,7.91846669 C6.25614034,8.2452084 6.60703691,8.54274414 7.09611036,8.70702768 C6.65430795,8.6321874 6.20705118,8.49528445 5.86160897,8.25433526 C5.63798059,8.73988439 5.50162182,9.41527228 5.61070883,10.3370855 C5.63616247,10.5470033 5.66888857,10.745969 5.70888715,10.9339824 C6.29068456,10.6693033 6.69794275,10.7751749 7.20337926,11.1128689 C7.261559,10.3115303 7.42882576,9.70915729 7.5088229,9.46273197 C7.54336712,9.35868573 7.58882005,9.3075753 7.65063602,9.30209918 C7.71608823,9.29662306 7.82699336,9.30027381 7.82335713,9.49376331 C7.80335784,9.57225434 7.78699479,9.66534834 7.77426797,9.73288713 C7.73972375,9.91177365 7.712452,10.0943109 7.68518024,10.2750228 C7.65972661,10.4539093 7.63427297,10.6327959 7.61245557,10.8135078 C7.59791063,10.9285062 7.5833657,11.0471555 7.57427511,11.1639793 C7.57063888,11.2296927 7.56700264,11.2954061 7.56518453,11.3611196 C7.83790206,11.3939763 8.11425584,11.3921509 8.38879149,11.3556434 C8.38697338,11.2917554 8.38333714,11.226042 8.37970091,11.1621539 C8.35970162,10.8737451 8.31606682,10.5707332 8.27425013,10.2841497 C8.24879649,10.1125646 8.22152474,9.93915424 8.18879863,9.76939458 C8.16879935,9.67264983 8.14698194,9.55034986 8.11243772,9.45725586 C8.11789207,9.26559172 8.36697409,9.22360815 8.43606253,9.43535138 C8.51242344,9.66534834 8.69423514,10.2878004 8.75241488,11.132948 C9.20876223,10.8700943 9.81237705,10.6747794 10.2487251,10.9193794 C10.2869056,10.7350167 10.3178136,10.5415272 10.3432672,10.3370855 C10.4450817,9.48463645 10.3359947,8.84210526 10.1414562,8.36750837 C9.79237776,8.57377548 9.34875723,8.68329784 8.92149975,8.73805902 C9.45966236,8.58107697 9.84146692,8.26711287 10.1014576,7.91846669 C9.9905525,7.95862489 9.87782925,7.99695771 9.76510601,8.02981442 C9.58693055,8.12838455 9.37602898,8.22147855 9.13785567,8.29631883 L9.13785567,8.29631883 Z M4.06167321,0.657134165 C4.52165679,0.781259507 4.95436862,1.00578035 5.36526305,1.26680864 C5.19981441,1.40006085 5.04345635,1.54609066 4.89437076,1.70854883 C4.81619173,1.57894737 4.73074024,1.45299665 4.64165251,1.32887131 C4.47438575,1.09522361 4.27984724,0.859750532 4.06167321,0.657134165 L4.06167321,0.657134165 Z M3.29624599,0.549437177 L3.33988079,0.549437177 C3.856226,0.834195315 4.3180277,1.41283845 4.65801556,1.98783085 C4.58892712,2.07727411 4.52165679,2.17036812 4.45620458,2.2652875 C4.20348633,2.64313964 4.01258405,3.05749924 3.87622528,3.48828719 C3.45987651,2.92607241 2.93080448,1.89291147 3.28170105,0.560389413 C3.2871554,0.55856404 3.29079163,0.553087922 3.29624599,0.549437177 L3.29624599,0.549437177 Z M12.8104519,0.549437177 L12.766817,0.549437177 C12.2504718,0.834195315 11.7886701,1.41283845 11.4486823,1.98783085 C11.5050439,2.05902038 11.5595874,2.13386066 11.6104947,2.21052632 C11.8813941,2.60298144 12.0850232,3.03559477 12.2286544,3.49011256 C12.6450032,2.92789778 13.1740752,1.89473684 12.8231787,0.562214786 L12.8104519,0.549437177 Z M12.0450246,0.657134165 C11.585041,0.781259507 11.1505111,1.00578035 10.7414348,1.26680864 C10.9068834,1.40006085 11.0632415,1.54791603 11.2123271,1.7103742 C11.2923242,1.58077274 11.3759576,1.45299665 11.4650453,1.32887131 C11.6323121,1.09522361 11.8268506,0.859750532 12.0450246,0.657134165 L12.0450246,0.657134165 Z M5.79979299,11.3319136 C5.96342351,11.9488896 6.17432508,12.4125342 6.32522878,12.6972924 C6.35613677,12.7557043 6.37795417,12.7721326 6.43613392,12.8068147 C6.61612749,12.9163371 6.86884574,13.0349863 6.91248055,13.4858534 C6.70703334,13.2229997 6.51067671,13.0349863 6.2088693,12.9692729 C6.06160183,12.9674475 5.89433507,12.9966535 5.77797559,13.1171281 C5.52889357,13.376331 5.70888715,13.8235473 5.85979085,13.8637055 C6.01069455,13.9038637 7.55973018,13.8637055 7.55973018,13.8637055 C7.55973018,13.8637055 7.62336427,13.5734713 7.50336855,13.4128385 C7.38519095,13.2503803 7.20156114,12.4234865 7.18883432,11.5436568 C6.82521094,11.2242166 6.26341281,11.0088226 5.79979299,11.3319136 Z M10.1505468,11.3319136 C9.98691627,11.9488896 9.77601471,12.4125342 9.62692912,12.6972924 C9.59420301,12.7557043 9.57238561,12.7721326 9.51602399,12.8068147 C9.33603041,12.9163371 9.08331216,13.0349863 9.03967735,13.4858534 C9.24512456,13.2229997 9.44148119,13.0349863 9.7432886,12.9692729 C9.89055607,12.9674475 10.0596409,12.9966535 10.1741823,13.1171281 C10.4232643,13.376331 10.2432708,13.8235473 10.0923671,13.8637055 C9.94146335,13.9038637 8.39242773,13.8637055 8.39242773,13.8637055 C8.39242773,13.8637055 8.32879363,13.5734713 8.44878935,13.4128385 C8.56696695,13.2503803 8.75241488,12.4234865 8.7651417,11.5436568 C9.12512885,11.2242166 9.68692698,11.0088226 10.1505468,11.3319136 L10.1505468,11.3319136 Z M8.11607395,13.2868877 C8.07062103,13.2868877 8.02334999,13.2887131 7.97607895,13.2887131 L7.86517382,13.2887131 C7.84881077,13.2558564 7.82881148,13.2248251 7.80881219,13.1937937 C7.78699479,13.1536355 7.76335927,13.0714938 7.75063245,13.0295102 C7.70517953,12.8725281 7.67245342,12.7137207 7.64518167,12.5549133 C7.59609251,12.2610283 7.56700264,11.9598418 7.56154829,11.6586553 C7.84517453,11.6969881 8.13061889,11.6969881 8.41424513,11.6513538 C8.40879078,11.9981746 8.37424656,12.3504716 8.30697623,12.6899909 C8.28334071,12.8104655 8.22334285,13.1025251 8.16152688,13.2102221 C8.14516383,13.2357773 8.12880077,13.2613325 8.11607395,13.2868877 L8.11607395,13.2868877 Z M11.5014077,11.4049285 C11.5141345,12.2464253 10.9850625,12.5786431 10.6759826,12.8268938 C12.0832051,12.1843626 12.2450175,13.2777609 12.0995681,13.3982355 L10.6432565,13.3982355 C10.6341659,13.204746 10.5632593,13.0203833 10.4232643,12.8743535 C10.3159954,12.7611804 10.1814548,12.6899909 10.0378235,12.6534834 C10.1505468,12.4180103 10.2432708,12.1734104 10.3214498,11.9269851 C10.7323442,11.706115 11.2159633,11.4797688 11.5014077,11.4049285 L11.5014077,11.4049285 Z M10.7323442,10.1691512 C11.0850589,10.3334347 11.3068692,10.7076361 11.3559583,11.1274719 C11.070514,11.211439 10.7577978,11.3611196 10.4941709,11.4925464 C10.5923492,11.1274719 10.6650739,10.7550958 10.7105268,10.3808944 C10.7196174,10.3133556 10.7268899,10.2421661 10.7323442,10.1691512 Z M5.21799558,10.1764527 C4.87073524,10.344387 4.65437933,10.716763 4.60710829,11.132948 C4.88891641,11.2187405 5.19436006,11.3647703 5.45435078,11.4943718 C5.35617246,11.1292972 5.28344778,10.7569212 5.23799486,10.3827198 C5.23072239,10.315181 5.22344993,10.2458169 5.21799558,10.1764527 Z M4.447114,11.4049285 C4.43438718,12.2464253 4.96345921,12.5786431 5.2743572,12.8268938 C3.86531658,12.1843626 3.70532229,13.2777609 3.84895353,13.3982355 L5.27981155,13.3982355 C5.28890214,13.1992699 5.36162681,13.0057803 5.50525805,12.8560998 C5.61070883,12.7465774 5.7361589,12.6772133 5.87433579,12.6352297 C5.84524591,12.5749924 5.81797416,12.5147551 5.79070241,12.4526924 C5.71252338,12.2719805 5.64161682,12.0876179 5.57798273,11.8996045 C5.17981512,11.6896866 4.72346777,11.4779434 4.447114,11.4049285 L4.447114,11.4049285 Z" id="Shape" fill="url(#linearGradient-3)"></path>
                <polygon id="Path" fill="url(#linearGradient-4)" fill-rule="nonzero" points="6.85248269 17.9488896 5.72161396 17.9488896 5.57434649 16.6784302 5.05800129 17.1694554 4.79255621 17.9488896 3.81804554 17.9488896 4.96891356 14.5701247 5.94342423 14.5701247 5.46889571 15.9647095 6.86884574 14.5701247 7.79608538 14.5701247 6.52703976 15.8040767"></polygon>
                <polygon id="Path" fill="url(#linearGradient-5)" points="8.89059176 15.3805902 8.01607752 17.9488896 7.11065529 17.9488896 7.08883789 17.7973836 7.91244486 15.3805902 7.22337854 15.3805902 8.0560761 14.5701247 11.1014219 14.5701247 9.58693055 15.3805902"></polygon>
                <path d="M9.89782854,18 C9.42511814,18 9.09240274,17.8448433 8.90150047,17.53453 C8.71059819,17.2242166 8.70514384,16.8080316 8.8833193,16.2878004 C9.0560404,15.7912991 9.33966664,15.3805902 9.73783425,15.0556739 C10.1341837,14.7325829 10.5868949,14.5701247 11.0941495,14.5701247 C11.5614055,14.5701247 11.8923028,14.723456 12.0832051,15.0282933 C12.2722892,15.3331305 12.2777436,15.742014 12.1032044,16.251293 C11.9213927,16.7788257 11.6250396,17.2041375 11.2177814,17.5217524 C10.806887,17.8411926 10.3687208,18 9.89782854,18 L9.89782854,18 Z M10.154183,17.2461211 C10.3305404,17.2461211 10.4814441,17.1712808 10.6105304,17.0197749 C10.7396167,16.8682689 10.8741573,16.5926377 11.0123342,16.192881 C11.2123271,15.6124125 11.1541473,15.3240037 10.8396131,15.3240037 C10.4978071,15.3240037 10.2141809,15.6543961 9.98509815,16.315181 C9.77056036,16.9358077 9.82692198,17.2461211 10.154183,17.2461211 Z" id="Shape" fill="url(#linearGradient-6)" fill-rule="nonzero"></path>
                <path d="M14.2794903,17.9488896 L13.4377022,17.9488896 L13.0195353,16.4593855 C12.9649918,16.2677213 12.9286295,16.0340736 12.9068121,15.756617 C12.8868128,15.9738363 12.8504504,16.1600243 12.7995432,16.3115303 L12.2413813,17.9488896 L11.4032294,17.9488896 L12.5540974,14.5682994 L13.528608,14.5682994 L13.8922314,15.805902 C13.9649561,16.0523274 14.0085909,16.2695467 14.024954,16.4557347 C14.0704069,16.1655005 14.1449497,15.8697901 14.2485823,15.5686036 L14.5885702,14.5682994 L15.4321765,14.5682994 L14.2794903,17.9488896 L14.2794903,17.9488896 Z" id="Path" fill="url(#linearGradient-7)" fill-rule="nonzero"></path>
            </g>
        </g>
    </g>
</svg>