<?xml version="1.0" encoding="UTF-8"?>
<svg width="20px" height="20px" viewBox="0 0 20 20" version="1.1" xmlns="http://www.w3.org/2000/svg" xmlns:xlink="http://www.w3.org/1999/xlink">
    <title>Tidb</title>
    <g id="Tidb" stroke="none" stroke-width="1" fill="none" fill-rule="evenodd">
        <g id="tidb">
            <polygon id="Frame" points="0 0 20 0 20 20 0 20"></polygon>
            <path d="M9.69352224,1.10941319 C9.9367557,0.970797796 10.2356814,0.963440124 10.4857508,1.0899135 L17.7831588,5.20509721 C18.0119225,5.32734524 18.1792731,5.59209098 18.2,5.87708638 L18.2,14.1067038 C18.2,14.3916992 18.0334171,14.6361953 17.8038857,14.778693 L10.5064778,18.8931267 C10.2562195,19.0356244 9.94378051,19.0356244 9.71424916,18.8931267 L2.39534663,14.778693 C2.16581528,14.6159456 2,14.3714496 2,14.1067038 L2,5.87633639 C2,5.60484077 2.15276501,5.35509478 2.3961143,5.22384691 L9.69352224,1.11016316 L9.69352224,1.10941319 Z M10.0689096,2.63788856 L3.56373028,6.32482918 L3.56373028,13.6784607 L10.0896365,17.3646513 L16.6147752,13.6784607 L16.5940482,13.6784607 L16.5940482,6.32482918 L10.0689096,2.63788856 Z M10.1940388,4.20536331 L12.3619201,5.36709461 L9.75647065,6.75232229 L9.71424916,15.4911815 L7.62927545,14.3909492 L7.7751315,7.66880753 L5.02305834,9.23703227 L5.02305834,6.99681835 L10.1940388,4.2061133 L10.1940388,4.20536331 Z M13.0497465,5.87633639 L13.0497465,14.4936976 L10.9025921,15.4911815 L10.9025921,6.99681835 L13.0497465,5.87633639 Z" id="Shape" fill="#0E73FF" fill-rule="nonzero"></path>
        </g>
    </g>
</svg>