<?xml version="1.0" encoding="UTF-8"?>
<svg width="20px" height="20px" viewBox="0 0 20 20" version="1.1" xmlns="http://www.w3.org/2000/svg" xmlns:xlink="http://www.w3.org/1999/xlink">
    <title>Ubuntu</title>
    <g id="Ubuntu" stroke="none" stroke-width="1" fill="none" fill-rule="evenodd">
        <g>
            <rect id="Frame" x="0" y="0" width="20" height="20"></rect>
            <g id="UbuntuCoF" transform="translate(1, 1)" fill-rule="nonzero">
                <circle id="Oval-orange" fill="#F47421" cx="9" cy="9" r="9"></circle>
                <path d="M11.459255,13.2595546 C12.0339188,12.9277723 12.7687386,13.1246667 13.1005209,13.6993305 C13.4323032,14.2739943 13.2354088,15.008814 12.660745,15.3405963 C12.0860812,15.6723786 11.3512614,15.4754843 11.0194791,14.9008205 C10.6876968,14.3261567 10.8845912,13.5913369 11.459255,13.2595546 Z M14.2101071,9.32402684 C14.1287235,10.6528979 13.5501678,11.847377 12.6581043,12.7238 C12.2004068,12.5490867 11.672399,12.5752768 11.21624,12.8386403 C10.759369,13.1024149 10.4725013,13.547564 10.3940779,14.0306248 C9.9507254,14.1543941 9.48302424,14.22 9,14.22 C8.16449077,14.22 7.37482854,14.0237057 6.67461489,13.6747185 L7.53216568,12.1892816 C7.97876029,12.3951629 8.47596933,12.51 9,12.51 C10.8293502,12.51 12.3318376,11.1105339 12.4952634,9.32380049 L14.2101071,9.32402684 Z M6.11382527,4.64979588 L6.97145396,6.1351977 C6.07500702,6.77111803 5.49,7.81724116 5.49,9 C5.49,10.1827588 6.07500702,11.228882 6.97145396,11.8648023 L6.11382527,13.3502041 C5.05670821,12.6474471 4.27042078,11.5696488 3.94490344,10.3067495 C4.32533419,9.99877086 4.56752,9.52766819 4.56752,9 C4.56752,8.47233181 4.32533419,8.00122914 3.94605572,7.69178514 C4.27042078,6.43035123 5.05670821,5.35255289 6.11382527,4.64979588 Z M2.88,7.79851 C3.5435646,7.79851 4.08149,8.3364354 4.08149,9 C4.08149,9.6635646 3.5435646,10.20149 2.88,10.20149 C2.2164354,10.20149 1.67851,9.6635646 1.67851,9 C1.67851,8.3364354 2.2164354,7.79851 2.88,7.79851 Z M9,3.78 C9.48302424,3.78 9.9507254,3.84560594 10.3946788,3.96839309 C10.4725013,4.45243601 10.759369,4.89758511 11.21624,5.16135972 C11.672399,5.42472325 12.2004068,5.45091325 12.6574701,5.27819103 C13.5501205,6.15277155 14.12872,7.34711322 14.2101068,8.67597399 L12.4952634,8.67619951 C12.3318376,6.8894661 10.8293502,5.49 9,5.49 C8.47596933,5.49 7.97876029,5.60483706 7.53216568,5.8107184 L6.67461489,4.32528145 C7.37482854,3.97629434 8.16449077,3.78 9,3.78 Z M11.0194791,3.09917953 C11.3512614,2.52451572 12.0860812,2.32762136 12.660745,2.65940367 C13.2354088,2.99118597 13.4323032,3.72600572 13.1005209,4.30066953 C12.7687386,4.87533333 12.0339188,5.07222769 11.459255,4.74044539 C10.8845912,4.40866309 10.6876968,3.67384333 11.0194791,3.09917953 Z" id="Shape" fill="#FFFFFF"></path>
            </g>
        </g>
    </g>
</svg>