<?xml version="1.0" encoding="UTF-8"?>
<svg width="20px" height="20px" viewBox="0 0 20 20" version="1.1" xmlns="http://www.w3.org/2000/svg" xmlns:xlink="http://www.w3.org/1999/xlink">
    <title>Velero</title>
    <g id="Velero" stroke="none" stroke-width="1" fill="none" fill-rule="evenodd">
        <g>
            <polygon id="Frame" points="0 0 20 0 20 20 0 20"></polygon>
            <g id="path14" transform="translate(4.0678, 15.822)" fill="#239DE0" fill-rule="nonzero">
                <path d="M12.3347993,5.02321569e-05 C11.7758382,5.02321569e-05 11.5077631,0.212604223 11.1974957,0.458759023 C10.8606434,0.726203938 10.4785115,1.02908309 9.74028614,1.02908309 C9.00197326,1.02908309 8.6200125,0.726203938 8.28309326,0.458759023 C7.97289405,0.212604223 7.70490511,5.02321569e-05 7.14614854,5.02321569e-05 C6.58718745,5.02321569e-05 6.31919722,0.212604223 6.0089993,0.458759023 C5.67199258,0.726203938 5.29011801,1.02908309 4.55180513,1.02908309 C3.81349226,1.02908309 3.43160225,0.726203938 3.09468043,0.458759023 C2.78441305,0.212604223 2.51642282,5.02321569e-05 1.95766883,5.02321569e-05 C1.39891484,5.02321569e-05 1.13099149,0.212604223 0.820724112,0.458759023 C0.580820549,0.669777322 0.30204098,0.83199997 0,0.936340789 C1.44712341,2.21127313 3.26707196,2.98568309 5.18956025,3.14456101 C5.24334636,3.14898386 5.2973563,3.15326914 5.35148586,3.15688585 C5.54510711,3.16939969 5.73986035,3.17797153 5.93663702,3.17797153 C6.13348315,3.17797153 6.32823639,3.16939969 6.52185764,3.15688585 C6.57598721,3.15326914 6.6298595,3.14898386 6.68386815,3.14456101 C9.03425582,2.94870769 11.2134719,1.83739703 12.7515764,0.0502791624 C12.615366,0.0158198497 12.4753008,-0.00106003472 12.3347993,5.15178694e-05" id="Path"></path>
            </g>
            <g id="path16" transform="translate(1.2011, 5.8111)" fill="#239DE0" fill-rule="nonzero">
                <path d="M2.23034137,3.29798885 C2.83801264,3.29798885 3.13754287,3.06040589 3.45465362,2.80874953 C3.78917254,2.54330904 4.1350808,2.26881842 4.8244095,2.26881842 C5.51373821,2.26881842 5.85964646,2.54331032 6.19423355,2.80874953 C6.51132759,3.06040589 6.81080636,3.29798885 7.41854709,3.29798885 C8.02628783,3.29798885 8.32574859,3.06040589 8.64292881,2.80874953 C8.97744773,2.54330904 9.32340744,2.26881842 10.0128905,2.26881842 C10.7020829,2.26881842 11.0481275,2.54331032 11.3826464,2.80874953 C11.6996722,3.06040589 11.999151,3.29798885 12.6070281,3.29798885 C13.2149052,3.29798885 13.5143672,3.06040589 13.8314947,2.80874953 C14.1659455,2.54330904 14.5120595,2.26881842 15.2015426,2.26881842 C15.890852,2.26881842 16.2369674,2.54331032 16.5715892,2.80874953 C16.8825435,3.05552018 17.1785748,3.28754886 17.7632629,3.29632513 C17.6829746,2.48903223 17.4929609,1.6964459 17.1984695,0.940454979 C16.9250728,0.841629699 16.6728561,0.691986093 16.4551309,0.499422163 C16.1313144,0.242622949 15.8256791,0 15.2015426,0 C14.5774061,0 14.2715984,0.242622949 13.947953,0.499422163 C13.6195044,0.75992423 13.2800806,1.02918714 12.6070281,1.02918714 C11.9339756,1.02918714 11.5945003,0.759856087 11.2662061,0.499422163 C10.9426121,0.242622949 10.6368894,0 10.0128905,0 C9.38880542,0 9.08296437,0.242622949 8.75937041,0.499422163 C8.43100796,0.75992423 8.09159963,1.02918714 7.41854838,1.02918714 C6.74556531,1.02918714 6.40615698,0.759856087 6.07786271,0.499422163 C5.75420057,0.242622949 5.44849459,0 4.8244095,0 C4.20039388,0 3.89468789,0.242622949 3.57109394,0.499422163 C3.24273277,0.759856087 2.90332444,1.02918714 2.23034137,1.02918714 C1.55728884,1.02918714 1.21788179,0.759856087 0.889588806,0.499422163 C0.816832906,0.441634529 0.744540092,0.385045179 0.669777487,0.331353825 C0.370500956,0.959467607 0.145716153,1.6203975 0,2.30068609 C0.456911167,2.37824027 0.736769257,2.59513225 1.00595837,2.80874824 C1.3230524,3.06040589 1.62260064,3.29798885 2.23034008,3.29798885" id="Path"></path>
            </g>
            <g id="path18" transform="translate(1.9339, 1)" fill="#239DE0" fill-rule="nonzero">
                <path d="M1.49746461,5.6999498 C2.12148023,5.6999498 2.42725439,5.45734357 2.75084835,5.2005945 C3.07914134,4.94017857 3.41854967,4.67076138 4.09153274,4.67076138 C4.76451581,4.67076138 5.10392285,4.94017857 5.43221713,5.2005945 C5.75594872,5.45734228 6.06158525,5.6999498 6.68567033,5.6999498 C7.30975541,5.6999498 7.6154614,5.45734357 7.93919171,5.2005945 C8.26748599,4.94017857 8.60682485,4.67076138 9.28001374,4.67076138 C9.95299681,4.67076138 10.2922675,4.94017857 10.62063,5.2005945 C10.9443615,5.45734228 11.2500662,5.6999498 11.8741513,5.6999498 C12.4981502,5.6999498 12.8039578,5.45734357 13.1276032,5.2005945 C13.4560519,4.94017857 13.7954757,4.67076138 14.4686658,4.67076138 C15.1416836,4.67076138 15.4812798,4.94017857 15.809556,5.2005945 C15.9861143,5.35331293 16.1837165,5.4798751 16.3963023,5.57639926 C15.0515373,2.3061341 11.9149255,0.126406473 8.37954169,0.00530679093 C4.84415785,-0.115792891 1.56560546,1.84419217 0,5.01476661 C0.0848823119,5.07469753 0.16489322,5.13785301 0.243943226,5.20059578 C0.567673535,5.45734357 0.873379522,5.6999498 1.49746461,5.6999498" id="Path"></path>
            </g>
            <g id="path20" transform="translate(1.7539, 13.3192)" fill="#239DE0" fill-rule="nonzero">
                <path d="M14.6487534,0 C14.0734981,0 13.7994196,0.217442269 13.4824632,0.469012491 C13.1514419,0.731657841 12.7763425,1.02923986 12.0542389,1.02923986 C11.3321353,1.02923986 10.9571543,0.731657841 10.6261857,0.469012491 C10.3089553,0.217442269 10.0350646,0 9.46010131,0 C8.88493351,0 8.61104279,0.217442269 8.2938124,0.469012491 C7.96284381,0.731657841 7.58772772,1.02923986 6.86575919,1.02923986 C6.14379066,1.02923986 5.76867457,0.731657841 5.43770469,0.469012491 C5.12054248,0.217442269 4.84672123,0 4.2716216,0 C3.69652197,0 3.42269943,0.217442269 3.10553722,0.469012491 C2.77456862,0.731657841 2.39958888,1.02923986 1.67755347,1.02923986 C0.955584941,1.02923986 0.580468848,0.731657841 0.249500253,0.469012491 C0.165560835,0.40239587 0.0843497634,0.338641244 0,0.280321325 C0.445585634,1.29586072 1.07440994,2.22073532 1.8550349,3.00870611 C2.29626933,2.96812902 2.53933784,2.77693457 2.8144969,2.55856916 C3.1514856,2.29131325 3.5333769,1.98824381 4.2716216,1.98824381 C5.00993447,1.98824381 5.39180904,2.29131196 5.7287463,2.55856916 C6.03901368,2.80472396 6.30700263,3.01727667 6.8657579,3.01727667 C7.42458264,3.01727667 7.69250213,2.80472396 8.00290715,2.55856916 C8.33969133,2.29131325 8.72178844,1.98824381 9.46010131,1.98824381 C10.1984142,1.98824381 10.5802193,2.29131196 10.9170884,2.55856916 C11.2274934,2.80472396 11.4954823,3.01727667 12.0542376,3.01727667 C12.6130611,3.01727667 12.8811375,2.80472396 13.1912338,2.55856916 C13.5282572,2.29131325 13.9103904,1.98824381 14.6487534,1.98824381 C14.9101921,1.98450159 15.169887,2.0313389 15.413529,2.12617505 C15.7351249,1.70414603 16.0188229,1.25456805 16.2613205,0.782674913 C16.1045203,0.689959923 15.9552452,0.585083091 15.8148712,0.469011206 C15.4979148,0.217440984 15.2238376,0 14.6487534,0" id="Path"></path>
            </g>
            <g id="path22" transform="translate(1, 8.3139)" fill="#239DE0" fill-rule="nonzero">
                <path d="M17.9819924,1.02755814 C17.3040003,1.02292958 16.9589153,0.752397669 16.6270373,0.48923932 C16.3100809,0.237651098 16.0102766,0 15.4026054,0 C14.794763,0 14.4951273,0.237651098 14.1780011,0.48923932 C13.8435504,0.754678523 13.4974363,1.02916914 12.8080909,1.02916914 C12.1186078,1.02916914 11.772769,0.754678523 11.4381292,0.48923932 C11.1210184,0.237651098 10.8215397,0 10.2139546,0 C9.6060762,0 9.30659743,0.237651098 8.98957285,0.48923932 C8.65484683,0.754678523 8.30900804,1.02916914 7.61961116,1.02916914 C6.93028246,1.02916914 6.5843742,0.754678523 6.24978582,0.48923932 C5.93267507,0.237651098 5.6332143,0 5.02547357,0 C4.4178023,0 4.11832353,0.237651098 3.80116132,0.48923932 C3.46671057,0.754678523 3.12073415,1.02916914 2.43140544,1.02916914 C1.74200727,1.02916914 1.3961003,0.754678523 1.06158139,0.48923932 C0.80604301,0.286524888 0.559098732,0.0950745822 0.155973676,0.0275142475 C0.0748124996,0.460432249 0.0256610856,0.89873685 0.00891825767,1.33887157 C0.00442504058,1.45432855 0,1.56963125 0,1.68615151 C0,1.80267178 0.00442504058,1.91811076 0.00891825767,2.03356775 C0.0107886091,2.08384682 0.0117315029,2.13440232 0.0144752854,2.18449368 C0.604927489,2.22956176 0.940047132,2.4903904 1.23616467,2.72536721 C1.54663787,2.9716583 1.83994217,3.20435426 2.43140544,3.20435426 C3.02286871,3.20435426 3.31610483,2.9716583 3.62656131,2.72536721 C3.95157925,2.46741857 4.3197825,2.17525326 5.02547357,2.17525326 C5.73116463,2.17525326 6.09943864,2.46741857 6.4243704,2.72536721 C6.73491177,2.9716583 7.02821735,3.20435426 7.61961116,3.20435426 C8.21100497,3.20435426 8.50437873,2.9716583 8.81483521,2.72536721 C9.13978369,2.46741857 9.5080564,2.17525326 10.2139546,2.17525326 C10.9195595,2.17525326 11.2879184,2.46741857 11.6127806,2.72536721 C11.9233915,2.9716583 12.2166276,3.20435426 12.8080909,3.20435426 C13.3995027,3.20435426 13.6929614,2.9716583 14.0033998,2.72536721 C14.3284165,2.46741857 14.6968294,2.17525326 15.4026041,2.17525326 C16.1083788,2.17525326 16.4766193,2.46741857 16.8016373,2.72536721 C17.090294,2.9543269 17.3672874,3.16900745 17.8792543,3.19854413 C17.9257344,2.92472079 17.9595225,2.64701804 17.9806186,2.36543586 C17.9890236,2.25534415 17.9958837,2.14506473 18,2.03396246 L18,1.33847685 C17.9958837,1.22723701 17.9819911,1.02755686 17.9819911,1.02755686" id="Path"></path>
            </g>
            <g id="path24" transform="translate(1.0396, 10.8166)" fill="#239DE0" fill-rule="nonzero">
                <path d="M15.3630025,0 C14.771282,0 14.4779944,0.232697248 14.167556,0.479125906 C13.8425393,0.736936976 13.4741277,1.02910228 12.7684881,1.02910228 C12.062797,1.02910228 11.6945075,0.736936976 11.3695063,0.47912462 C11.0590499,0.232697248 10.7657288,0 10.1743505,0 C9.58288718,0 9.28944654,0.232697248 8.97890388,0.47912462 C8.65397212,0.73693569 8.28568139,1.02910228 7.58000834,1.02910228 C6.87433528,1.02910228 6.50604327,0.736936976 6.18109479,0.47912462 C5.87057014,0.232697248 5.57724912,0 4.98587074,0 C4.39449237,0 4.10117135,0.232697248 3.79069815,0.47912462 C3.46576639,0.73693569 3.09747696,1.02910228 2.39180261,1.02910228 C1.68618101,1.02910228 1.31776937,0.736936976 0.992820886,0.47912462 C0.719943812,0.262627349 0.460134758,0.056982778 0,0.010182843 C0.0677949846,0.753790435 0.228684899,1.48595542 0.478898731,2.18951696 C0.752472318,2.29527691 1.00525594,2.44840185 1.22565006,2.64186533 C1.54281227,2.89352169 1.81663352,3.11089325 2.39180261,3.11089325 C2.96690353,3.11089325 3.24079296,2.89352169 3.55788699,2.64186533 C3.88885559,2.37930612 4.2639035,2.08170611 4.98587203,2.08170611 C5.70784055,2.08170611 6.08295665,2.37930484 6.41392524,2.64186533 C6.73101799,2.89352169 7.00490742,3.11089325 7.58000834,3.11089325 C8.15510925,3.11089325 8.42906814,2.89352169 8.74609271,2.64186533 C9.07706131,2.37930612 9.45224687,2.08170611 10.1743505,2.08170611 C10.8962495,2.08170611 11.2714351,2.37930484 11.6023188,2.64186533 C11.9194295,2.89352169 12.193319,3.11089325 12.7684881,3.11089325 C13.3436057,3.11089325 13.6175118,2.89352169 13.9346393,2.64186533 C14.2656607,2.37930612 14.6409324,2.08170611 15.3630013,2.08170611 C16.0849003,2.08170611 16.4601695,2.37930484 16.7911908,2.64186533 C16.9076352,2.73859014 17.030616,2.82717168 17.1592577,2.90697925 C17.4359103,2.30302413 17.6441631,1.67005672 17.7801385,1.01986315 C17.1897892,0.97493136 16.8544818,0.713966437 16.5582793,0.479127191 C16.2478409,0.232698534 15.9545533,0 15.3630038,0" id="Path"></path>
            </g>
            <g id="path26" transform="translate(3.6089, 15.3073)" fill="#FFFFFF" fill-rule="nonzero">
                <path d="M11.3362002,1.10187688 C11.0261052,1.5772758 10.75803,1.98778359 10.1992053,1.98778359 C9.64045002,1.98778359 9.37245978,1.5772758 9.06205476,1.10187688 C8.72518697,0.585720194 8.34338058,0.000401435753 7.6050677,0.000401435753 C6.86675482,0.000401435753 6.48465772,0.585720194 6.14787482,1.10187688 C5.8374698,1.5772758 5.56955032,1.98778359 5.01072558,1.98778359 C4.45196901,1.98778359 4.18398007,1.5772758 3.87371269,1.10187688 C3.53677415,0.585720194 3.15490086,0.000401435753 2.4165867,0.000401435753 C1.67834329,0.000401435753 1.29645199,0.585720194 0.959461997,1.10187688 C0.684304227,1.52360833 0.441235718,1.89286173 0,1.9712287 C0.147656143,2.25897152 0.301349123,2.53509338 0.458917872,2.80254174 C0.760958851,2.6010272 1.03973842,2.28772487 1.27964198,1.88018297 C1.58990936,1.40478157 1.85783014,0.994273781 2.4165867,0.994273781 C2.97534326,0.994273781 3.24333221,1.40478157 3.5535983,1.88018297 C3.89051884,2.39670219 4.27241013,2.98165594 5.01072429,2.98165594 C5.74903845,2.98165594 6.13091174,2.39670219 6.46791717,1.88018297 C6.77811637,1.40478157 7.04610532,0.994273781 7.6050677,0.994273781 C8.16382298,0.994273781 8.43181193,1.40478157 8.74201113,1.88018297 C9.07893166,2.39670219 9.46089113,2.98165594 10.199204,2.98165594 C10.937432,2.98165594 11.3195625,2.39670219 11.6564149,1.88018297 C11.9666823,1.40478157 12.2347574,0.994273781 12.7937172,0.994273781 C12.9342187,0.992128139 13.0742839,1.02472927 13.2104943,1.09128145 C13.330382,0.823038495 13.4470114,0.548870838 13.5584941,0.266789508 C13.3148523,0.0836302443 13.0551573,-0.00682721071 12.7937185,0.000401435753 C12.0553542,0.000401435753 11.6732236,0.585720194 11.3361989,1.10187688" id="Path"></path>
            </g>
            <g id="path28" transform="translate(1.5185, 12.8983)" fill="#FFFFFF" fill-rule="nonzero">
                <path d="M14.8841038,0 C14.1620337,0 13.7867619,0.611882895 13.4557419,1.1517225 C13.1386144,1.66914258 12.8647082,2.11607111 12.2895893,2.11607111 C11.7144202,2.11607111 11.4405308,1.66914258 11.12342,1.1517225 C10.7925376,0.611885538 10.4173521,0 9.69545301,0 C8.97334813,0 8.59816258,0.611882895 8.26719398,1.1517225 C7.95016813,1.66914258 7.67621052,2.11607111 7.10111089,2.11607111 C6.52601126,2.11607111 6.25212055,1.66914258 5.93502651,1.1517225 C5.60405792,0.611885538 5.22894182,0 4.5069733,0 C3.78500477,0 3.40995686,0.611882895 3.07898697,1.1517225 C2.76189423,1.66914258 2.4880048,2.11607111 1.91290388,2.11607111 C1.3377335,2.11607111 1.06391354,1.66914258 0.746751326,1.1517225 C0.526356553,0.753952202 0.273573099,0.43911863 0,0.221668006 C0.0714858446,0.635428545 0.149935983,1.04215121 0.235350414,1.44183599 C0.319700178,1.56174513 0.400912536,1.69282569 0.484850668,1.82979598 C0.815819263,2.36981005 1.19093536,2.98165594 1.91290388,2.98165594 C2.6349393,2.98165594 3.00991904,2.36981005 3.34088763,1.82979598 C3.65804984,1.31255301 3.9318711,0.865481731 4.50697201,0.865481731 C5.08207293,0.865481731 5.35589289,1.31255301 5.6730551,1.82979598 C6.00402499,2.36981005 6.37914108,2.98165594 7.1011096,2.98165594 C7.82307813,2.98165594 8.19819422,2.36981005 8.52916282,1.82979598 C8.84639321,1.31255301 9.12028392,0.865481731 9.69545173,0.865481731 C10.2704163,0.865481731 10.5443057,1.31255301 10.8615361,1.82979598 C11.1925047,2.36981005 11.5674844,2.98165594 12.2895893,2.98165594 C13.0116942,2.98165594 13.3867949,2.36981005 13.7178136,1.82979598 C14.03477,1.31255301 14.3088473,0.865481731 14.8841038,0.865481731 C15.459188,0.865481731 15.7332652,1.31255301 16.0502216,1.82979598 C16.1905958,2.06844537 16.3398709,2.28407732 16.4966709,2.47470411 C16.5608169,2.21877988 16.6220471,1.95948166 16.6803616,1.69680945 C16.5517194,1.53272174 16.4287386,1.35059289 16.3122947,1.15171985 C15.9812733,0.611882895 15.6060029,0 14.8841051,0" id="Path"></path>
            </g>
            <g id="path30" transform="translate(1.0145, 10.4891)" fill="#FFFFFF" fill-rule="nonzero">
                <path d="M15.3881288,0 C14.6823515,0 14.3139412,0.64216821 13.9889245,1.20912733 C13.6784861,1.75046098 13.3850274,2.26191334 12.7936143,2.26191334 C12.202151,2.26191334 11.9089149,1.75046098 11.5983041,1.20912733 C11.2734418,0.642171036 10.9050829,0 10.1994767,0 C9.49358112,0 9.12530712,0.64216821 8.80035863,1.20912733 C8.48990216,1.75046098 8.19651168,2.26191334 7.60513459,2.26191334 C7.0137575,2.26191334 6.7204352,1.75046098 6.40989254,1.20912733 C6.08496078,0.642171036 5.71667005,0 5.010997,0 C4.30532394,0 3.93703322,0.64216821 3.61208473,1.20912733 C3.30156008,1.75046098 3.00837413,2.26191334 2.41692887,2.26191334 C1.82553506,2.26191334 1.5321613,1.75046098 1.2216881,1.20912733 C0.92557056,0.692661788 0.590450917,0.119375431 0,0.0203183805 C0.00602011335,0.262290794 0.0150760104,0.50264678 0.0251262552,0.742132382 C0.485262299,0.84499595 0.745070067,1.29699373 1.01794714,1.77283946 C1.34289562,2.33949338 1.71130598,2.98165594 2.41692887,2.98165594 C3.12260321,2.98165594 3.49089265,2.33949338 3.81582569,1.77283663 C4.1262976,1.23120343 4.41960319,0.719748252 5.01099828,0.719748252 C5.60239338,0.719748252 5.89569768,1.23120343 6.20622233,1.77283663 C6.53117081,2.33949055 6.89944353,2.98165594 7.60513459,2.98165594 C8.31082566,2.98165594 8.67909966,2.33949338 9.00403142,1.77283663 C9.31457279,1.23120343 9.60801473,0.719748252 10.199478,0.719748252 C10.7908551,0.719748252 11.0841774,1.23120343 11.3946339,1.77283663 C11.7196338,2.33949055 12.0879245,2.98165594 12.7936156,2.98165594 C13.4992552,2.98165594 13.8676656,2.33949338 14.1926822,1.77283663 C14.5031207,1.23120343 14.7964083,0.719748252 15.3881288,0.719748252 C15.979677,0.719748252 16.2729645,1.23120343 16.5834043,1.77283663 C16.879608,2.2889998 17.2149155,2.86258853 17.8052648,2.96134321 C17.8277334,2.72585063 17.8464279,2.48756887 17.864779,2.24898474 C17.3528121,2.18421461 17.0758187,1.7123619 16.787162,1.20911885 C16.4621453,0.642165384 16.0939061,0 15.3881288,0" id="Path"></path>
            </g>
            <g id="path32" transform="translate(1.156, 8.0799)" fill="#FFFFFF" fill-rule="nonzero">
                <path d="M2.27543048,2.98165594 C2.96475918,2.98165594 3.31073561,2.33368535 3.64518635,1.70708778 C3.96228039,1.11318405 4.26182734,0.552180539 4.86949861,0.552180539 C5.47723934,0.552180539 5.7767001,1.11318405 6.09381086,1.70708778 C6.42839924,2.33368839 6.77430749,2.98165594 7.4636362,2.98165594 C8.15296491,2.98165594 8.49887187,2.33368535 8.83359789,1.70708778 C9.15062246,1.11318405 9.45010124,0.552180539 10.0579783,0.552180539 C10.6655647,0.552180539 10.9650435,1.11318405 11.2821542,1.70708778 C11.6167941,2.33368839 11.9626328,2.98165594 12.6521159,2.98165594 C13.3414626,2.98165594 13.6875741,2.33368535 14.0220249,1.70708778 C14.3391523,1.11318405 14.6387855,0.552180539 15.2466291,0.552180539 C15.8543004,0.552180539 16.1541059,1.11318405 16.471061,1.70708778 C16.8029391,2.3283072 17.148024,2.96866581 17.8260162,2.97959512 L17.8246449,2.9290095 C17.8193259,2.76114854 17.8153832,2.59231938 17.808352,2.42555104 C17.2236639,2.40483058 16.9276313,1.8571025 16.6166783,1.27456816 C16.2820552,0.647967548 15.9359424,0 15.2466304,0 C14.5571473,0 14.2110346,0.647970583 13.8765838,1.27456816 C13.5594551,1.86863579 13.2599943,2.4294754 12.6521172,2.4294754 C12.0442401,2.4294754 11.7447601,1.86863579 11.4277355,1.27456816 C11.0932153,0.647967548 10.7471707,0 10.0579796,0 C9.36849654,0 9.02253812,0.647970583 8.68801792,1.27456816 C8.37083898,1.86863579 8.07137693,2.4294754 7.4636362,2.4294754 C6.85589547,2.4294754 6.55641669,1.86863579 6.23932395,1.27456816 C5.90473557,0.647967548 5.55882731,0 4.86949989,0 C4.18017247,0 3.83426293,0.647970583 3.49974402,1.27456816 C3.18263197,1.86863579 2.88310175,2.4294754 2.27543048,2.4294754 C1.66769103,2.4294754 1.36814408,1.86863579 1.05105005,1.27456816 C0.781859649,0.770302369 0.502001559,0.25830624 0.0450903917,0.0752274015 C0.0288142178,0.254821972 0.0142694695,0.435994783 0,0.617131172 C0.40312377,0.776612292 0.650069334,1.2285564 0.905606424,1.70708778 C1.24012534,2.33368839 1.58603359,2.98165594 2.27543048,2.98165594" id="Path"></path>
            </g>
            <g id="path34" transform="translate(1.8708, 5.6708)" fill="#FFFFFF" fill-rule="nonzero">
                <path d="M1.56056903,2.98165594 C2.2335521,2.98165594 2.57295914,2.29502422 2.90132159,1.63107482 C3.22491555,0.97639174 3.53062025,0.357849584 4.15463716,0.357849584 C4.77872224,0.357849584 5.08442694,0.97639174 5.40808908,1.63107482 C5.73638207,2.29502422 6.0757904,2.98165594 6.74877347,2.98165594 C7.42182471,2.98165594 7.76123304,2.29520122 8.08959549,1.63107482 C8.41318945,0.97639174 8.7190305,0.357849584 9.34311688,0.357849584 C9.96711577,0.357849584 10.2728372,0.97639174 10.5964312,1.63107482 C10.9247241,2.29502422 11.2641839,2.98165594 11.9372532,2.98165594 C12.6103224,2.98165594 12.9497308,2.29520122 13.2781768,1.63107482 C13.6018222,0.97639174 13.9076299,0.357849584 14.5317664,0.357849584 C15.1559029,0.357849584 15.4615395,0.97639174 15.7853559,1.63107482 C16.0030813,2.12199519 16.2552975,2.50349694 16.5286933,2.75544573 C16.5058825,2.60606367 16.4832414,2.45651116 16.4594015,2.30883356 C16.2468158,2.06275519 16.0492135,1.74009799 15.8726553,1.35075811 C15.544379,0.686854604 15.2047829,0 14.5317651,0 C13.8585762,0 13.5191512,0.686854604 13.1907025,1.35075811 C12.8670571,2.00531009 12.5612508,2.62380963 11.9372493,2.62380963 C11.3131642,2.62380963 11.0074595,2.00531336 10.6837279,1.35075811 C10.3553655,0.686854604 10.0160961,0 9.34311302,0 C8.66992284,0 8.33058526,0.686854604 8.00229099,1.35075811 C7.67855939,2.00531009 7.37285469,2.62380963 6.74876961,2.62380963 C6.12468452,2.62380963 5.819048,2.00531336 5.4953164,1.35075811 C5.16702213,0.686854604 4.82761508,0 4.15463201,0 C3.48164895,0 3.14224061,0.686851326 2.81394763,1.35075484 C2.49035367,2.00530681 2.18457951,2.62380635 1.56056388,2.62380635 C0.9364788,2.62380635 0.630772813,2.00531009 0.307042504,1.35075484 C0.227991212,1.19079862 0.14798159,1.02979352 0.0630992778,0.877002553 C0.0419336913,0.985605611 0.0204953987,1.09333678 0,1.20259867 C0.0747626043,1.33947923 0.147055418,1.48374466 0.219811318,1.63107155 C0.548104307,2.29502094 0.887511352,2.98165594 1.56056388,2.98165594" id="Path"></path>
            </g>
        </g>
    </g>
</svg>