<?xml version="1.0" encoding="UTF-8"?>
<svg width="20px" height="20px" viewBox="0 0 20 20" version="1.1" xmlns="http://www.w3.org/2000/svg" xmlns:xlink="http://www.w3.org/1999/xlink">
    <title>Icon / Logo 20*20 / Java</title>
    <g id="Icon-/-Logo-20*20-/-Java" stroke="none" stroke-width="1" fill="none" fill-rule="evenodd">
        <rect id="Frame" x="0" y="0" width="20" height="20"></rect>
        <g id="Java_logo" transform="translate(2, 0)" fill-rule="nonzero">
            <path d="M14.999,18.1064396 L14.9841115,18.211919 C14.6283399,19.8241967 9.1643844,20.1627812 5.57962272,19.9371289 C3.42140726,19.8010319 2.82184299,19.4806514 2.72089146,19.415861 L2.70596357,19.4056467 C4.9910924,19.7750862 8.84679926,19.8426309 11.9729829,19.2641072 C14.5707582,18.7830935 14.9581691,18.1851965 14.9964479,18.1123383 L14.999,18.1064396 Z M3.25915993,17.031411 C3.25915993,17.031411 3.0040351,17.0136758 2.55759407,17.1088745 C2.1295172,17.1992756 0.76865046,17.6300957 1.49433642,17.9405428 C3.51307875,18.8046089 10.7800797,18.5978777 13.0782314,17.9132661 C14.2868126,17.55274 13.711658,17.086719 13.711658,17.086719 C15.8172875,18.0207017 9.13717231,19.8982085 1.01944463,18.6036457 C-1.95719439,18.1291614 2.45212347,16.4723475 3.25915993,17.031411 Z M4.83091304,15.4671005 C4.83091304,15.4671005 4.05369779,15.9115589 5.38403068,16.0619579 C6.99569159,16.24276 7.81939284,16.216831 9.59545412,15.8862768 L9.62758384,15.9055317 C9.7435118,15.9739535 10.1627233,16.2125558 10.7145169,16.4235621 C6.73305664,18.1015613 1.70368788,16.3263689 4.83091304,15.4671005 Z M4.34439976,13.2774216 C4.34439976,13.2774216 3.47267759,13.9119541 4.80399721,14.047367 C6.52562382,14.2220238 7.88522973,14.236309 10.2378709,13.7908263 C10.2378709,13.7908263 10.5632729,14.1152352 11.0749479,14.2926412 C6.26112505,15.6768504 0.899392339,14.4018017 4.34439976,13.2774216 Z M11.7589718,14.7517623 C11.7589718,14.7518161 11.8180113,14.6999043 11.8356628,14.6534908 C15.6514618,12.7036416 13.8871865,10.8298543 12.655746,11.0822981 C12.3539159,11.1440749 12.2193368,11.1976039 12.2193368,11.1976039 C12.2193368,11.1976039 12.3313856,11.0249956 12.5453966,10.9502813 C14.981581,10.1080473 16.8551642,13.4343432 11.7589718,14.7517623 Z M5.20466488,11.0086619 C5.20466488,11.0086619 4.71587686,11.1228259 4.20858155,11.2832009 L4.0183968,11.3453749 C3.19846407,11.6230321 2.48488992,12.0002853 3.89565635,12.185547 C4.90371187,12.3182646 6.91324471,12.2882387 8.78507374,12.1340124 C10.314836,12.0071167 11.8509023,11.7373151 11.8509023,11.7373151 C11.8509023,11.7373151 11.3114893,11.9644767 10.9212371,12.2265158 C7.16754726,13.1973166 -0.0838852693,12.7456886 2.00370897,11.7526784 C3.7691903,10.9134632 5.20466488,11.0086619 5.20466488,11.0086619 Z" id="Combined-Shape" fill="#5382A1"></path>
            <path d="M12.0830034,4.08492094 C7.98203592,6.42376909 8.37288808,7.22743528 9.2995909,8.50238304 L9.41547385,8.66099096 C9.45481488,8.71473637 9.49477962,8.76940335 9.53509906,8.82512836 C10.6791042,10.4086295 8.18810138,11.6731664 8.18810138,11.6731664 C8.18810138,11.6731664 9.42688755,10.6736874 8.44585749,9.56299948 C5.829068,6.59796946 9.58258311,4.90725356 11.3012911,4.32128598 L11.5049236,4.25378167 C11.856591,4.14052759 12.0830034,4.08492094 12.0830034,4.08492094 Z M9.53509906,0 L9.54337164,0.008505882 C9.68308896,0.155518034 11.4958456,2.19718588 7.53077397,5.27539039 C4.22889739,7.83961113 6.77784327,9.30166114 7.52940351,10.9721134 C5.60204345,9.26209382 4.18761914,7.75675695 5.13652561,6.35572901 C5.56762141,5.71916732 6.23494134,5.18410878 6.92566601,4.65078552 L7.24534893,4.40439625 C8.68442604,3.29292942 10.0832282,2.12273868 9.53509906,0 Z" id="Combined-Shape" fill="#F8981D"></path>
        </g>
    </g>
</svg>