<?xml version="1.0" encoding="UTF-8"?>
<svg width="20px" height="20px" viewBox="0 0 20 20" version="1.1" xmlns="http://www.w3.org/2000/svg" xmlns:xlink="http://www.w3.org/1999/xlink">
    <title>Icon / Logo 20*20 / Kubevela</title>
    <g id="Icon-/-Logo-20*20-/-Kubevela" stroke="none" stroke-width="1" fill="none" fill-rule="evenodd">
        <rect id="bg-white" fill-opacity="0" fill="#FFFFFF" x="0" y="0" width="20" height="20"></rect>
        <g id="Kubevela" transform="translate(1.14, 0)" fill-rule="nonzero">
            <path d="M2.68477686,18.6664315 C3.16245665,19.4908943 4.04274394,19.9989074 4.99559005,20 C5.44930222,19.9962917 5.89426014,19.8747185 6.28682307,19.6472041 C6.70783694,19.4074473 7.22407345,19.4074473 7.64508732,19.6472041 C8.4207073,20.0818369 9.36247622,20.0990563 10.1534662,19.6930676 C10.5643207,19.4772706 11.0550125,19.4772706 11.465867,19.6930676 C12.7355986,20.3412195 14.2905558,19.8747324 14.9938261,18.6346798 L2.68477686,18.6664315 Z" id="路径" fill="#000000"></path>
            <path d="M16.3979538,14.0624449 L16.3662022,13.5438349 C16.0451579,8.42123831 14.136532,3.60910213 10.9931205,0 L10.9931205,0 L10.9931205,13.8154877 L16.3979538,14.0624449 Z" id="路径" fill="#006FFF"></path>
            <path d="M10.255777,13.7802081 L10.255777,2.89292644 C7.36444138,5.75726807 5.51091545,9.5040472 4.98853413,13.5403069 L10.255777,13.7802081 Z" id="路径" fill="#006FFF"></path>
            <path d="M5.41894514,14.5493032 L4.99559005,13.5438349 L0,13.3145176 L1.37237608,16.5708238 L1.37237608,16.5708238 C2.01062048,17.6716721 3.4109445,18.0616952 4.52637149,17.4492856 C5.03873163,17.1600483 5.66509621,17.1600483 6.17745634,17.4492856 C6.87933836,17.8353016 7.72994017,17.8353016 8.43182219,17.4492856 C8.94418232,17.1600483 9.5705469,17.1600483 10.082907,17.4492856 C10.7847891,17.8353016 11.6353909,17.8353016 12.3372729,17.4492856 C12.849633,17.1600483 13.4759976,17.1600483 13.9883577,17.4492856 C15.1051829,18.0684182 16.5121657,17.6774152 17.1494091,16.5708238 L17.7174105,15.4242371 L5.90227553,14.8844593 C5.68939517,14.877146 5.50042573,14.7461088 5.41894514,14.5493032 L5.41894514,14.5493032 Z" id="路径" fill="#000000"></path>
        </g>
    </g>
</svg>