<?xml version="1.0" encoding="UTF-8"?>
<svg width="20px" height="20px" viewBox="0 0 20 20" version="1.1" xmlns="http://www.w3.org/2000/svg" xmlns:xlink="http://www.w3.org/1999/xlink">
    <title>Icon / Logo 20*20 / testcase-report</title>
    <g id="Icon-/-Logo-20*20-/-testcase-report" stroke="none" stroke-width="1" fill="none" fill-rule="evenodd">
        <g id="编组">
            <rect id="Rectangle" x="0" y="0" width="20" height="20"></rect>
            <path d="M3.33333333,0 L16.6666667,0 C18.5076158,0 20,1.49238417 20,3.33333333 L20,16.6666667 C20,18.5076158 18.5076158,20 16.6666667,20 L3.33333333,20 C1.49238417,20 0,18.5076158 0,16.6666667 L0,3.33333333 C0,1.49238417 1.49238417,0 3.33333333,0 Z" id="Rectangle" fill="#E4E7ED"></path>
        </g>
        <g id="编组" transform="translate(3, 3)">
            <rect id="Rectangle" x="0" y="0" width="14" height="14"></rect>
            <path d="M10.71875,1.05 C11.3711364,1.05 11.9,1.57886364 11.9,2.23125 L11.9018488,6.81864977 C11.7218396,6.70571614 11.530989,6.60620528 11.3292969,6.52011719 C11.1736557,6.45286485 11.0142339,6.39663971 10.8510312,6.35144178 L10.85,2.23125 C10.85,2.15876263 10.7912374,2.1 10.71875,2.1 L2.58125,2.1 C2.50876263,2.1 2.45,2.15876263 2.45,2.23125 L2.45,11.68125 C2.45,11.7537374 2.50876263,11.8125 2.58125,11.8125 L6.232,11.812 L6.27900391,11.9144043 C6.45561311,12.2668744 6.67695214,12.5832165 6.943021,12.8634307 L2.58125,12.8625 C1.92886364,12.8625 1.4,12.3336364 1.4,11.68125 L1.4,2.23125 C1.4,1.57886364 1.92886364,1.05 2.58125,1.05 L10.71875,1.05 Z M7.245,5.52730314 C7.52045202,5.52730314 7.74375,5.75060113 7.74375,6.02605314 C7.74375,6.30150516 7.52045202,6.52480314 7.245,6.52480314 L3.8675,6.52480314 C3.59204798,6.52480314 3.36875,6.30150516 3.36875,6.02605314 C3.36875,5.75060113 3.59204798,5.52730314 3.8675,5.52730314 L7.245,5.52730314 Z M9.4325,3.4475 C9.70795202,3.4475 9.93125,3.67079798 9.93125,3.94625 C9.93125,4.22170202 9.70795202,4.445 9.4325,4.445 L3.8675,4.445 C3.59204798,4.445 3.36875,4.22170202 3.36875,3.94625 C3.36875,3.67079798 3.59204798,3.4475 3.8675,3.4475 L9.4325,3.4475 Z M9.8,7.35 C11.3463973,7.35 12.6,8.6036027 12.6,10.15 C12.6,10.8926062 12.3050008,11.6047971 11.779899,12.129899 C11.2547971,12.6550008 10.5426062,12.95 9.8,12.95 C8.2536027,12.95 7,11.6963973 7,10.15 C7,8.6036027 8.2536027,7.35 9.8,7.35 Z M11.2984356,9.16774488 C11.2143313,9.0836406 11.0779713,9.0836406 10.993867,9.16774488 L9.49111185,10.6705 L8.71459769,9.89398589 C8.63049341,9.80988161 8.49413343,9.80988161 8.41002915,9.89398589 L8.25774488,10.0462702 C8.1736406,10.1303744 8.1736406,10.2667344 8.25774488,10.3508387 L9.33882758,11.4319214 L9.36865437,11.4568412 C9.45258894,11.5149874 9.56863676,11.5066808 9.64339612,11.4319214 L11.4507198,9.62459769 C11.5348241,9.54049341 11.5348241,9.40413343 11.4507198,9.32002915 L11.2984356,9.16774488 Z" id="形状结合" fill="#203548" fill-rule="nonzero"></path>
        </g>
    </g>
</svg>