<?xml version="1.0" encoding="UTF-8"?>
<svg width="20px" height="20px" viewBox="0 0 20 20" version="1.1" xmlns="http://www.w3.org/2000/svg" xmlns:xlink="http://www.w3.org/1999/xlink">
    <title>OpenSource / Clusterpedia @white</title>
    <g id="OpenSource-/-Clusterpedia-@white" stroke="none" stroke-width="1" fill="none" fill-rule="evenodd">
        <g id="clusterpedia">
            <polygon id="Frame" points="0 0 20 0 20 20 0 20"></polygon>
            <path d="M18.5892857,8.63392857 C17.9196429,9.01785714 17.2946429,9.48214286 16.7232143,10 C16.2589286,9.58035714 15.8392857,9.11607143 15.4464286,8.625 C16.1160714,8.00892857 16.8571429,7.47321429 17.6428571,7.00892857 L18.5892857,8.63392857 L18.5892857,8.63392857 Z M14.1607143,10 C13.2767857,11.0803571 12.5803571,12.2946429 12.0803571,13.5982143 C11.8571429,14.1875 11.6785714,14.7946429 11.5357143,15.4107143 C11.3392857,16.3035714 11.2410714,17.2142857 11.2410714,18.125 L13.1160714,18.125 C13.1160714,17.3482143 13.1964286,16.5803571 13.3660714,15.8303571 C13.5,15.2232143 13.6875,14.6160714 13.9196429,14.0357143 C14.3035714,13.0803571 14.8214286,12.1875 15.4553571,11.375 C14.9910714,10.9464286 14.5535714,10.4910714 14.1607143,10 L14.1607143,10 Z M6.63392857,15.8303571 C6.80357143,16.5892857 6.88392857,17.3571429 6.88392857,18.125 L8.75892857,18.125 C8.75892857,17.2142857 8.66071429,16.3035714 8.46428571,15.4107143 C7.84821429,15.5 7.23214286,15.6339286 6.63392857,15.8303571 Z M7.02678571,11.7232143 C6.67857143,11.1160714 6.28571429,10.5446429 5.83928571,10 C5.4375,9.50892857 5.00892857,9.05357143 4.53571429,8.625 C3.86607143,8.00892857 3.125,7.47321429 2.33928571,7.00892857 L1.40178571,8.63392857 C2.07142857,9.01785714 2.69642857,9.48214286 3.26785714,10 C3.73214286,10.4196429 4.15178571,10.8839286 4.54464286,11.375 C5.17857143,12.1875 5.69642857,13.0803571 6.08035714,14.0357143 C6.67857143,13.8482143 7.29464286,13.6964286 7.91964286,13.5982143 C7.67857143,12.9464286 7.375,12.3214286 7.02678571,11.7232143 Z M6.63392857,4.16964286 C5.90178571,3.9375 5.1875,3.625 4.51785714,3.24107143 L3.58035714,4.86607143 C4.36607143,5.32142857 5.20535714,5.6875 6.08035714,5.96428571 C6.3125,5.38392857 6.5,4.78571429 6.63392857,4.16964286 Z M13.9196429,5.96428571 C14.7857143,5.6875 15.625,5.32142857 16.4196429,4.86607143 L15.4821429,3.24107143 C14.8125,3.625 14.1071429,3.9375 13.3660714,4.16964286 C12.7678571,4.35714286 12.1607143,4.5 11.5357143,4.58035714 C11.0267857,4.65178571 10.5178571,4.6875 10,4.6875 C9.49107143,4.6875 8.97321429,4.65178571 8.46428571,4.58035714 C8.33035714,5.19642857 8.14285714,5.80357143 7.91964286,6.39285714 C8.60714286,6.5 9.30357143,6.5625 9.99107143,6.5625 L10,6.5625 C10.6964286,6.5625 11.3928571,6.50892857 12.0803571,6.39285714 C12.7053571,6.30357143 13.3214286,6.15178571 13.9196429,5.96428571 L13.9196429,5.96428571 Z" id="Secondary" fill="#FFFFFF" fill-rule="nonzero" opacity="0.66"></path>
            <path d="M8.27678571,10 L9.13392857,8.50892857 L10.8571429,8.50892857 L11.7142857,10 L10.8571429,11.4910714 L9.14285714,11.4910714 L8.27678571,10 Z M13.3660714,4.16964286 C13.1964286,3.41071429 13.1160714,2.64285714 13.1160714,1.875 L11.2410714,1.875 C11.2410714,2.78571429 11.3392857,3.69642857 11.5357143,4.58928571 C12.1517857,4.5 12.7678571,4.36607143 13.3660714,4.16964286 Z M16.7321429,10 C16.2678571,9.58035714 15.8482143,9.11607143 15.4553571,8.625 C14.8214286,7.8125 14.3035714,6.91964286 13.9196429,5.96428571 C13.3214286,6.15178571 12.7053571,6.30357143 12.0803571,6.40178571 C12.5803571,7.70535714 13.2767857,8.91964286 14.1607143,10 C14.5625,10.4910714 14.9910714,10.9464286 15.4642857,11.375 C16.1339286,11.9910714 16.875,12.5267857 17.6607143,12.9910714 L18.5982143,11.3660714 C17.9285714,10.9821429 17.3035714,10.5178571 16.7321429,10 L16.7321429,10 Z M5.83928571,10 C6.72321429,8.91964286 7.41964286,7.70535714 7.91964286,6.40178571 C8.14285714,5.8125 8.32142857,5.20535714 8.46428571,4.58928571 C8.66071429,3.69642857 8.75892857,2.78571429 8.75892857,1.875 L6.88392857,1.875 C6.88392857,2.65178571 6.80357143,3.41964286 6.63392857,4.16964286 C6.5,4.77678571 6.3125,5.38392857 6.08035714,5.96428571 C5.69642857,6.91964286 5.17857143,7.8125 4.54464286,8.625 C5.00892857,9.05357143 5.44642857,9.50892857 5.83928571,10 L5.83928571,10 Z M3.26785714,10 C2.69642857,10.5178571 2.07142857,10.9821429 1.40178571,11.3660714 L2.33928571,12.9910714 C3.125,12.5357143 3.86607143,11.9910714 4.53571429,11.375 C4.16071429,10.8839286 3.73214286,10.4196429 3.26785714,10 Z M10,13.4285714 C9.30357143,13.4285714 8.60714286,13.4821429 7.92857143,13.5982143 C7.30357143,13.6964286 6.6875,13.8482143 6.08928571,14.0357143 C5.22321429,14.3125 4.38392857,14.6785714 3.58928571,15.1339286 L4.52678571,16.7589286 C5.19642857,16.375 5.90178571,16.0625 6.64285714,15.8303571 C7.24107143,15.6428571 7.84821429,15.5 8.47321429,15.4196429 C8.98214286,15.3482143 9.49107143,15.3125 10.0089286,15.3125 C10.5267857,15.3125 11.0357143,15.3482143 11.5446429,15.4196429 C11.6785714,14.8035714 11.8660714,14.1964286 12.0892857,13.6071429 C11.3928571,13.4910714 10.6964286,13.4285714 10,13.4285714 L10,13.4285714 Z M13.3660714,15.8303571 C14.0982143,16.0625 14.8125,16.375 15.4821429,16.7589286 L16.4196429,15.1339286 C15.6339286,14.6785714 14.7946429,14.3125 13.9196429,14.0357143 C13.6875,14.6160714 13.5,15.2142857 13.3660714,15.8303571 Z" id="Primary" fill="#FFFFFF" fill-rule="nonzero"></path>
        </g>
    </g>
</svg>