<?xml version="1.0" encoding="UTF-8"?>
<svg width="20px" height="20px" viewBox="0 0 20 20" version="1.1" xmlns="http://www.w3.org/2000/svg" xmlns:xlink="http://www.w3.org/1999/xlink">
    <title>OpenSource / KLTS-DC @white</title>
    <g id="OpenSource-/-KLTS-DC-@white" stroke="none" stroke-width="1" fill="none" fill-rule="evenodd">
        <g id="KLTS---Graph---Color">
            <rect id="Frame" x="0" y="0" width="20" height="20"></rect>
            <path d="M10,2.79007812 L16.2439844,6.39503906 L16.2439844,13.6049609 L10,17.2099219 L3.75601562,13.6049609 L3.75601562,6.39503906 L10,2.79007812 M10,0.625 L1.88101562,5.3125 L1.88101562,14.6875 L10,19.375 L18.1189844,14.6875 L18.1189844,5.3125 L10,0.625 Z M10,8.59374487 C10.6708854,8.59374487 11.2483414,9.06766974 11.3792193,9.7256653 C11.5100973,10.3836609 11.157946,11.0424774 10.5381268,11.2992096 C9.91830762,11.5559417 9.20344858,11.3390861 8.8307284,10.7812627 C8.45800822,10.2234394 8.53123448,9.48000971 9.005625,9.005625 C9.26877933,8.7410491 9.62683839,8.59273928 10,8.59374487 M10,6.71874693 C8.43460649,6.71886294 7.08728271,7.82473973 6.78199225,9.36007507 C6.47670179,10.8954104 7.29847151,12.4325959 8.74474343,13.031557 C10.1910153,13.6305181 11.8589863,13.1244373 12.728599,11.8228112 C13.5982118,10.5211851 13.4272693,8.7865314 12.3203125,7.6796875 C11.7055498,7.06339171 10.8704897,6.71755871 10,6.71874693 Z" id="Primary" fill="#FFFFFF" fill-rule="nonzero"></path>
            <path d="M6.81796875,10.8023047 C5.90960937,11.0071484 5.009375,11.3485547 4.06851562,11.8399219 L4.06851562,9.7565625 C4.69008134,9.47605576 5.33342471,9.24654968 5.9921875,9.0703125 C6.2990625,8.98929688 6.60821615,8.92167969 6.91964844,8.86746094 C6.69259932,9.48761774 6.65721409,10.1617065 6.81808594,10.8022266 L6.81796875,10.8023047 Z M8.95984375,6.88824219 C8.23222656,6.2090625 7.4378125,5.64574219 6.56921875,5.13179688 L4.67578125,6.22488281 C5.84046875,6.84050781 6.70964844,7.42484375 7.39355469,8.00765625 C7.79218506,7.48648001 8.33769317,7.09655538 8.95984375,6.88808594 L8.95984375,6.88824219 Z M9.76570312,6.72808594 C9.84316406,6.72261719 9.92113281,6.71882813 10.0000781,6.71882813 C10.5669254,6.71820168 11.1241712,6.86515635 11.6169922,7.14523438 C11.6480763,6.77568756 11.6582487,6.40467925 11.6474609,6.03398438 C11.6247412,5.33438788 11.5389243,4.63826968 11.3910547,3.95410156 L10,3.1509375 L9.35589844,3.5228125 C9.61566406,4.46476563 9.75023437,5.29507813 9.77316406,6.088125 C9.77941406,6.303125 9.77690104,6.51641927 9.765625,6.72800781 L9.76570312,6.72808594 Z M7.23601563,11.7674219 C7.11497396,11.9816667 7.0009375,12.1997917 6.89390625,12.4217969 C6.56143596,13.1198324 6.2935226,13.8468203 6.09351563,14.5936719 L7.78140625,15.5681641 C8.00890625,14.6111328 8.30753906,13.7740234 8.69761719,13.0120313 C8.09760579,12.7515134 7.58877757,12.3181996 7.23601563,11.7673438 L7.23601563,11.7674219 Z M14.6167969,5.81640625 C13.8746094,6.55324219 13.1424609,7.17699219 12.3241797,7.68394531 C12.7759107,8.13634387 13.0853271,8.71108492 13.2142578,9.33726562 C14.2051172,8.73644531 15.0752734,8.00183594 15.9314844,7.15367188 L15.9314844,6.57554687 L14.6167969,5.81640625 Z M11.6695703,12.8245313 C11.1642725,13.1242065 10.5874781,13.2819913 10,13.28125 C9.94403646,13.28125 9.88841146,13.2798438 9.833125,13.2770313 C9.90507812,13.4669922 9.98183594,13.6551563 10.0647656,13.8413281 C10.3911328,14.5737891 10.8115625,15.3010547 11.3538281,16.0675391 L12.9849609,15.1258203 C12.4651953,14.4077734 12.0728125,13.7406641 11.7776172,13.0782031 C11.7399219,12.9939063 11.7042969,12.9092969 11.6695703,12.8245313 Z M13.2662109,10.3105469 C13.2063852,10.9486504 12.9600694,11.5550321 12.5579687,12.0541016 C13.5832031,12.4031641 14.6883984,12.6064844 15.9314844,12.6801953 L15.9314844,10.8020703 C15.1768752,10.7581166 14.4287183,10.6372958 13.6986328,10.4414844 C13.5528516,10.4014063 13.4087109,10.3577604 13.2662109,10.3105469 Z" id="Secondary" fill="#FFFFFF" fill-rule="nonzero" opacity="0.66"></path>
        </g>
    </g>
</svg>