<?xml version="1.0" encoding="UTF-8"?>
<svg width="20px" height="20px" viewBox="0 0 20 20" version="1.1" xmlns="http://www.w3.org/2000/svg" xmlns:xlink="http://www.w3.org/1999/xlink">
    <title>Airship</title>
    <defs>
        <path d="M9.97314067,2 L18.3520269,10.584298 C15.8870565,9.6186875 13.3357878,9.48599408 10.6982208,10.1862177 C8.06065386,10.8864414 5.7991829,12.5483364 3.91380795,15.1719027 L0.496806881,11.6968049 L9.97314067,2 Z M9.98086656,6.03082653 C9.47732345,6.03082653 9.0691211,6.44852588 9.0691211,6.96378415 C9.0691211,7.47904241 9.47732345,7.89674177 9.98086656,7.89674177 C10.4844097,7.89674177 10.892612,7.47904241 10.892612,6.96378415 C10.892612,6.44852588 10.4844097,6.03082653 9.98086656,6.03082653 Z" id="path-1"></path>
        <filter x="-5.6%" y="-7.6%" width="122.4%" height="130.4%" filterUnits="objectBoundingBox" id="filter-2">
            <feOffset dx="1" dy="1" in="SourceAlpha" result="shadowOffsetOuter1"></feOffset>
            <feGaussianBlur stdDeviation="0.5" in="shadowOffsetOuter1" result="shadowBlurOuter1"></feGaussianBlur>
            <feColorMatrix values="0 0 0 0 0   0 0 0 0 0   0 0 0 0 0  0 0 0 0.26 0" type="matrix" in="shadowBlurOuter1"></feColorMatrix>
        </filter>
    </defs>
    <g id="Airship" stroke="none" stroke-width="1" fill="none" fill-rule="evenodd">
        <g id="Airship-Logo" transform="translate(-0, 0)">
            <polygon id="Frame" points="0 0 20 0 20 20 0 20"></polygon>
            <path d="M9.97314067,2 L19.4494745,11.6968049 L16.1111409,15.113192 C14.6219692,13.3714861 12.4480933,12.2737743 10.0270031,12.2737743 C7.57881284,12.2737743 5.3834022,13.3961977 3.89311687,15.1719198 L0.496806881,11.6968049 L9.97314067,2 Z M9.98086656,6.03082653 C9.47732345,6.03082653 9.0691211,6.44852588 9.0691211,6.96378415 C9.0691211,7.47904241 9.47732345,7.89674177 9.98086656,7.89674177 C10.4844097,7.89674177 10.892612,7.47904241 10.892612,6.96378415 C10.892612,6.44852588 10.4844097,6.03082653 9.98086656,6.03082653 Z" id="Combined-Shape" fill="#0034B3"></path>
            <g id="Combined-Shape">
                <use fill="black" fill-opacity="1" filter="url(#filter-2)" xlink:href="#path-1"></use>
                <use fill="#004BFF" fill-rule="evenodd" xlink:href="#path-1"></use>
            </g>
            <ellipse id="Oval" fill="#FFFFFF" cx="9.98086656" cy="6.96378415" rx="1" ry="1"></ellipse>
            <g id="AIRSHIP" transform="translate(0, 16.2022)" fill="#333333" fill-rule="nonzero">
                <path d="M0.637209153,2.74842254 L0.80906253,2.12997807 L1.62391787,2.12997807 L1.79384031,2.74842254 L2.47353007,2.74842254 L1.62971068,0.0513723839 L0.849612204,0.0513723839 L0,2.74842254 L0.637209153,2.74842254 Z M1.23579957,0.636227216 L1.5099926,1.65774731 L0.926849677,1.65774731 L1.20683552,0.636227216 L1.23579957,0.636227216 Z" id="Shape"></path>
                <polygon id="Path" points="4.265654 2.74842254 4.265654 0.0513723839 3.62651391 0.0513723839 3.62651391 2.74842254"></polygon>
                <path d="M6.77222455,0.0513723839 L5.65614306,0.0513723839 L5.65614306,2.74842254 L6.28369753,2.74842254 L6.28369753,1.78617827 L6.64478272,1.78617827 L7.09082912,2.74842254 L7.797552,2.74842254 L7.27233718,1.69528867 C7.45191431,1.62020595 7.74348577,1.37915092 7.74348577,0.934582215 C7.74348577,0.426785959 7.42295026,0.0513723839 6.77222455,0.0513723839 Z M6.28369753,1.32382682 L6.28369753,0.541385892 L6.67760864,0.541385892 C6.90545919,0.541385892 7.08503631,0.673768574 7.08503631,0.940509798 C7.08503631,1.19539586 6.91897575,1.32382682 6.67181583,1.32382682 L6.28369753,1.32382682 Z" id="Shape"></path>
                <path d="M8.88102211,1.95807817 C8.88681492,2.34929863 9.14169858,2.79781906 9.94689924,2.79781906 C10.6362437,2.79781906 11.0301548,2.45401926 11.0301548,1.9264644 C11.0301548,1.41471642 10.686448,1.22305791 10.3079844,1.14797519 L9.92565893,1.06894076 C9.69780839,1.02349596 9.57229749,0.934582215 9.57229749,0.790344368 C9.57229749,0.612516885 9.71518682,0.491989369 9.96427767,0.491989369 C10.2481254,0.491989369 10.3852219,0.655985825 10.3968075,0.823934004 L10.9857432,0.823934004 C10.9799504,0.363558409 10.6034178,0 9.96620861,0 C9.37727287,0 8.93701928,0.302306721 8.93701928,0.841716752 C8.93701928,1.31197165 9.24790011,1.52931635 9.63794935,1.60835079 L10.0106202,1.69133695 C10.2674348,1.74666105 10.4006694,1.82371963 10.4006694,1.99166781 C10.4006694,2.16949529 10.2616419,2.29990211 9.97007048,2.29990211 C9.66305152,2.29990211 9.50085283,2.13392979 9.48926721,1.95807817 L8.88102211,1.95807817 Z" id="Path"></path>
                <polygon id="Path" points="14.5427434 2.74842254 14.5427434 0.0513723839 13.9036033 0.0513723839 13.9036033 1.11636142 12.936204 1.11636142 12.936204 0.0513723839 12.2970639 0.0513723839 12.2970639 2.74842254 12.936204 2.74842254 12.936204 1.64589215 13.9036033 1.64589215 13.9036033 2.74842254"></polygon>
                <polygon id="Path" points="16.5723726 2.74842254 16.5723726 0.0513723839 15.9332325 0.0513723839 15.9332325 2.74842254"></polygon>
                <path d="M19.0770122,0.0513723839 L17.9628616,0.0513723839 L17.9628616,2.74842254 L18.6000708,2.74842254 L18.6000708,1.91460923 L19.0692884,1.91460923 C19.6775336,1.91460923 20,1.50560602 20,0.98793046 C20,0.478158343 19.6833264,0.0513723839 19.0770122,0.0513723839 Z M19.3531362,0.98793046 C19.3531362,1.30406821 19.1619734,1.42261986 18.8549545,1.42261986 L18.5981399,1.42261986 L18.5981399,0.553241058 L18.9283301,0.553241058 C19.1890065,0.553241058 19.3531362,0.707358209 19.3531362,0.98793046 Z" id="Shape"></path>
            </g>
        </g>
    </g>
</svg>