<?xml version="1.0" encoding="UTF-8"?>
<svg width="20px" height="20px" viewBox="0 0 20 20" version="1.1" xmlns="http://www.w3.org/2000/svg" xmlns:xlink="http://www.w3.org/1999/xlink">
    <title>Aliyun</title>
    <g id="Aliyun" stroke="none" stroke-width="1" fill="none" fill-rule="evenodd">
        <g id="alibaba-cloud-kcsp" transform="translate(-0, 0)">
            <polygon id="Frame" points="0 0 20 0 20 20 0 20"></polygon>
            <path d="M16.6701835,4 C18.509232,4.00013675 20,5.43475884 20,7.20440758 L20,12.79584 C19.9998579,14.5653921 18.5091315,15.9998633 16.6701835,16 L12.2608785,16 L13.32467,14.5514424 L16.5392038,13.6038133 C17.1201492,13.4267329 17.5135967,12.9063084 17.5098428,12.3199208 L17.5095854,7.68032685 C17.5133746,7.09400629 17.1200473,6.57360285 16.5392038,6.39643432 L13.32467,5.44855763 L12.2606212,4 L16.6701835,4 Z M7.73886416,4 L6.67481537,5.44855763 L3.46053884,6.39643432 C2.87959348,6.57351474 2.48614599,7.09393926 2.4898999,7.68032685 L2.4898999,12.3199208 C2.48614599,12.9063084 2.87959348,13.4267329 3.46053884,13.6038133 L6.67481537,14.5514424 L7.73886416,16 L3.33033118,16 C2.44714068,16 1.60009625,15.6625224 0.975538005,15.0616258 C0.350979756,14.4607293 0,13.6457018 0,12.79584 L0,7.20440758 C0,6.35450294 0.35088138,5.53941181 0.975447027,4.9384617 C1.60001267,4.33751159 2.4470961,4 3.33033118,4 L7.73886416,4 Z M13.3316178,9.24551195 L13.3316178,10.6910982 L6.66838218,10.6910982 L6.66838218,9.24551195 L13.3316178,9.24551195 Z" id="Shape" fill="#FF6A00" fill-rule="nonzero"></path>
        </g>
    </g>
</svg>