<?xml version="1.0" encoding="UTF-8"?>
<svg width="20px" height="20px" viewBox="0 0 20 20" version="1.1" xmlns="http://www.w3.org/2000/svg" xmlns:xlink="http://www.w3.org/1999/xlink">
    <title>Icon / Logo 20*20 / Android</title>
    <g id="Icon-/-Logo-20*20-/-Android" stroke="none" stroke-width="1" fill="none" fill-rule="evenodd">
        <rect id="Frame" x="0" y="0" width="20" height="20"></rect>
        <path d="M14.6103613,9.87205824 C14.1487215,9.87205824 13.7744885,9.49993005 13.7744885,9.04088667 C13.7744885,8.58184328 14.1487215,8.20971509 14.6103613,8.20971509 C15.0720012,8.20971509 15.4462342,8.58184328 15.4462342,9.04088667 C15.4462342,9.49993005 15.0720012,9.87205824 14.6103613,9.87205824 M5.40705268,9.87205824 C4.94541283,9.87205824 4.5711798,9.49993005 4.5711798,9.04088667 C4.5711798,8.58184328 4.94541283,8.20971509 5.40705268,8.20971509 C5.86869252,8.20971509 6.24292556,8.58184328 6.24292556,9.04088667 C6.24292556,9.49993005 5.86869252,9.87205824 5.40705268,9.87205824 M14.9063997,4.8850288 L16.5781454,2.01921849 C16.6395223,1.91245083 16.6387413,1.78118478 16.5760983,1.67514671 C16.5134554,1.56910864 16.3985316,1.5045171 16.2748627,1.50584074 C16.1511938,1.50716438 16.0376949,1.57420074 15.9773618,1.68155503 L14.288202,4.5819975 C12.9466243,3.97238356 11.4880693,3.65927307 10.0130605,3.66424556 C8.536318,3.66065034 7.07581956,3.97058899 5.72921202,4.57333946 L4.04005224,1.672897 C3.94580147,1.50894385 3.73603017,1.45154596 3.57069475,1.54447081 C3.40535933,1.63739566 3.34662066,1.84570645 3.43926861,2.01056045 L5.10230736,4.87637077 C2.18100513,6.46065096 0.261800302,9.40468339 0,12.7032364 L20,12.7032364 C19.7462003,9.40657467 17.8283617,6.46286891 14.9063997,4.8850288" id="Shape" fill="#3DDC84" fill-rule="nonzero"></path>
        <path d="M1.394255,15.7848485 C1.81085167,15.7848485 2.15689568,15.9787879 2.32151856,16.1878788 L2.32151856,15.8363636 L2.95649252,15.8363636 L2.95649252,18.4454545 L2.49958004,18.4454545 C2.4514039,18.4456327 2.40514389,18.4284497 2.37107793,18.3977232 C2.33701196,18.3669967 2.31796143,18.3252716 2.31815891,18.2818182 L2.31815891,18.0939394 C2.15689568,18.3060606 1.81085167,18.5 1.394255,18.5 C0.601377457,18.5 0,17.8878788 0,17.1424242 C0,16.3969697 0.601377457,15.7848485 1.394255,15.7848485 M1.50848312,16.3060606 C0.994456577,16.3060606 0.645052914,16.6727273 0.645052914,17.1424242 C0.645052914,17.6121212 0.991096926,17.9787879 1.50848312,17.9787879 C2.02250966,17.9787879 2.37191332,17.6121212 2.37191332,17.1424242 C2.37191332,16.6727273 2.02586931,16.3060606 1.50848312,16.3060606 M3.67881588,15.8363636 L4.31715102,15.8363636 L4.31715102,16.1909091 C4.49185285,15.930303 4.82109861,15.7848485 5.19737947,15.7848485 C5.86930959,15.7848485 6.30270452,16.2121212 6.30270452,16.8757576 L6.30270452,18.4454559 L5.84579204,18.4454559 C5.79761589,18.4456327 5.75135589,18.4284497 5.71728992,18.3977232 C5.68322396,18.3669967 5.66417342,18.3252716 5.66437091,18.2818182 L5.66437091,16.969697 C5.66437091,16.5575758 5.43255501,16.3060606 5.06299345,16.3060606 C4.63967747,16.3060606 4.31715102,16.6030303 4.31715102,17.1606061 L4.31715102,18.4454559 L3.86023854,18.4454559 C3.81206239,18.4456327 3.76580239,18.4284497 3.73173642,18.3977232 C3.69767046,18.3669967 3.67861992,18.3252716 3.67881588,18.2818182 L3.67881588,15.8363636 Z M8.20090711,15.7848485 C8.61750378,15.7848485 8.96354779,15.9787879 9.12817067,16.1878788 L9.12817067,14.5333333 L9.76314463,14.5333333 L9.76314463,18.4484848 L9.30623215,18.4484848 C9.25805601,18.448663 9.211796,18.43148 9.17773004,18.4007535 C9.14366407,18.370027 9.12461354,18.3283019 9.12481102,18.2848485 L9.12481102,18.0969697 C8.96354779,18.3060606 8.61414413,18.5 8.19754746,18.5 C7.40466991,18.5 6.80329246,17.8878788 6.80329246,17.1424242 C6.80665211,16.3969697 7.40802956,15.7848485 8.20090711,15.7848485 M8.31513523,16.3060606 C7.80110868,16.3060606 7.45170502,16.6727273 7.45170502,17.1424242 C7.45170502,17.6121212 7.79774903,17.9787879 8.31513523,17.9787879 C8.82916177,17.9787879 9.17856543,17.6121212 9.17856543,17.1424242 C9.17856543,16.6727273 8.82916177,16.3060606 8.31513523,16.3060606 M10.4854695,15.8363636 L11.1204435,15.8363636 L11.1204435,16.3 C11.2345618,16.0077551 11.539577,15.8114179 11.8830842,15.8090878 C11.9665199,15.8089162 12.0497788,15.81602 12.1316983,15.830303 L12.1316983,16.4212121 C12.0288232,16.3899223 11.9210943,16.3735571 11.8125315,16.3727273 C11.4463296,16.3727273 11.1170838,16.6484848 11.1170838,17.1727273 L11.1170838,18.4454559 L10.6601713,18.4454559 C10.6119952,18.4456327 10.5657352,18.4284497 10.5316692,18.3977232 C10.4976033,18.3669967 10.4785527,18.3252716 10.4787487,18.2818182 L10.4787487,15.8363636 L10.4854695,15.8363636 Z M13.8518394,18.5 C12.9951285,18.5 12.336637,17.9 12.336637,17.1424242 C12.336637,16.3848485 12.9951285,15.7848485 13.8518394,15.7848485 C14.7085503,15.7848485 15.3670418,16.3848485 15.3670418,17.1424242 C15.3670418,17.9 14.7085503,18.5 13.8518394,18.5 M13.8518394,17.9666667 C14.3625063,17.9666667 14.7186293,17.6060606 14.7186293,17.1424242 C14.7186293,16.6787879 14.3591466,16.3181818 13.8518394,16.3181818 C13.3378129,16.3181818 12.9783303,16.6787879 12.9783303,17.1424242 C12.9783303,17.6060606 13.3378129,17.9666667 13.8518394,17.9666667 M16.2002352,15.2666667 C15.9652217,15.2652947 15.7750806,15.0937933 15.7735595,14.8818182 C15.7777142,14.67134 15.9668557,14.5020834 16.2002352,14.5 C16.4349539,14.5 16.625231,14.6716242 16.625231,14.8833333 C16.625231,15.0950425 16.4349539,15.2666667 16.2002352,15.2666667 M15.8844265,15.8363636 L16.519402,15.8363636 L16.519402,18.4454559 L16.0658492,18.4454559 C16.017673,18.4456327 15.971413,18.4284497 15.937347,18.3977232 C15.9032811,18.3669967 15.8842305,18.3252716 15.8844265,18.2818182 L15.8844265,15.8363636 L15.8844265,15.8363636 Z M18.4377625,15.7848485 C18.8543591,15.7848485 19.2004032,15.9787879 19.365026,16.1878788 L19.365026,14.5333333 L20,14.5333333 L20,18.4484848 L19.5430875,18.4484848 C19.4949114,18.448663 19.4486514,18.43148 19.4145854,18.4007535 C19.3805194,18.370027 19.3614689,18.3283019 19.3616664,18.2848485 L19.3616664,18.0969697 C19.2004032,18.3060606 18.8509995,18.5 18.4344028,18.5 C17.6415253,18.5 17.0401478,17.8878788 17.0401478,17.1424242 C17.0435075,16.3969697 17.6448849,15.7848485 18.4377625,15.7848485 M18.5553502,16.3060606 C18.0413237,16.3060606 17.69192,16.6727273 17.69192,17.1424242 C17.69192,17.6121212 18.0379641,17.9787879 18.5553502,17.9787879 C19.0693768,17.9787879 19.4187804,17.6121212 19.4187804,17.1424242 C19.4187804,16.6727273 19.0693768,16.3060606 18.5553502,16.3060606" id="Shape" fill="#000000" fill-rule="nonzero"></path>
    </g>
</svg>