<?xml version="1.0" encoding="UTF-8"?>
<svg width="20px" height="20px" viewBox="0 0 20 20" version="1.1" xmlns="http://www.w3.org/2000/svg" xmlns:xlink="http://www.w3.org/1999/xlink">
    <title>Argo</title>
    <g id="Argo" stroke="none" stroke-width="1" fill="none" fill-rule="evenodd">
        <g transform="translate(0, -0)">
            <polygon id="Frame" points="0 0 20 0 20 20 0 20"></polygon>
            <g id="argo" transform="translate(3.42, 0)">
                <path d="M8.58880903,16.5189198 C8.5803719,15.987381 8.14284675,15.5594982 7.60528142,15.5570778 C7.05807366,15.554677 6.60849547,15.9970234 6.61089643,16.5369993 C6.61211138,17.0781806 7.06168957,17.516911 7.61010263,17.5132951 C8.15369449,17.5108845 8.59724615,17.060101 8.58880903,16.5189198 Z M1.77763927,15.5618991 C1.24248454,15.5594982 0.780853322,16.0042552 0.76638968,16.5345887 C0.751926039,17.0685381 1.1918618,17.5060633 1.7535332,17.5132951 C2.31158869,17.5205269 2.72862369,17.1215715 2.7346502,16.5719531 C2.74188202,16.0151029 2.31520461,15.5643194 1.77763927,15.5618991 Z M11.4164509,15.5570778 C10.8680378,15.5594982 10.4244862,16.0078711 10.4341286,16.5490524 C10.443771,17.0817965 10.8812962,17.5120898 11.4176562,17.513305 C11.9660693,17.5157057 12.4156475,17.0745647 12.4156475,16.5345887 C12.4144422,15.9946128 11.964864,15.554677 11.4164509,15.5570778 Z" id="Shape"></path>
                <path d="M5.83569242,11.3553998 C5.83869992,11.3553998 5.84170742,11.3590157 5.84170742,11.3662476 C5.84471492,11.4168703 5.84772241,11.4662877 5.85072991,11.5169105 C5.86877491,11.4783408 5.8868199,11.4397711 5.9078724,11.3999961 C5.8928349,11.3264725 5.74847495,11.3638369 5.83569242,11.3553998 Z M9.04330083,7.25524879 C9.03330083,7.26524879 9.01330083,7.26524879 9.00330083,7.27524879 C9.01330083,7.28524879 9.03330083,7.29524879 9.04330083,7.30524879 C9.03330083,7.29524879 9.04330083,7.27524879 9.04330083,7.25524879 L9.04330083,7.25524879 Z M7.0201528,2.21297433 C7.0201528,2.21297433 7.0201528,2.22297433 7.0201528,2.22297433 C7.0301528,2.22297433 7.0401528,2.22297433 7.0501528,2.22297433 C7.0401528,2.22297433 7.0301528,2.21297433 7.0201528,2.21297433 Z" id="Shape" fill="#FEFEFE" fill-rule="nonzero"></path>
                <path d="M8.04401187,14.843548 C7.27864419,14.6543153 6.50001816,14.9676942 6.09744681,15.6257899 C5.69969667,16.2754485 5.77683609,17.1263927 6.28306354,17.6892694 C6.81942357,18.2858946 7.63059279,18.4498159 8.35859607,18.1099203 C8.42850367,18.0773771 8.48756354,18.0050589 8.5791666,18.0363968 C8.59845146,18.4112462 8.54903401,18.6173531 8.38872866,18.8270759 C7.95120351,19.399595 7.1436502,19.3405351 6.73264173,18.7053402 C6.57113106,18.4558424 6.38671964,18.3883454 6.18061275,18.5028492 C5.96245283,18.6245849 5.92147251,18.8391289 6.07213544,19.1006798 C6.28788475,19.4767344 6.60487956,19.7334641 7.00865621,19.8865376 C7.07976912,19.9130543 7.07012669,19.9130543 7.178604,19.9540346 C7.30275025,20.0022467 7.68483145,20.0142998 7.86201105,19.9817566 C7.97048836,19.9624717 8.01508459,19.9383656 8.0874028,19.9178755 C8.8250485,19.697305 9.34212368,19.0476464 9.36020323,18.2774575 C9.37346157,17.6760111 9.37587218,17.0745647 9.35899793,16.4731182 C9.33609716,15.6993134 8.78286288,15.0255488 8.04401187,14.843548 Z M6.60969835,16.5369993 C6.60849547,15.9970234 7.05686835,15.554677 7.60407612,15.5570778 C8.14043615,15.5594982 8.5791666,15.9885863 8.58760373,16.5189198 C8.59604085,17.060101 8.15248918,17.5108845 7.60889733,17.5145103 C7.06048426,17.516911 6.61211138,17.0781806 6.60969835,16.5369993 Z M13.105081,16.0175135 C12.8399143,15.1979072 12.0239238,14.6772161 11.1886486,14.8001571 C10.3196248,14.9279192 9.67960864,15.6462801 9.6639397,16.5104827 C9.64947606,17.357811 10.2593596,18.0930461 11.1139197,18.2569673 C11.9419632,18.4160674 12.7892915,17.9279195 13.0833856,17.1263927 C13.1123129,17.0456374 13.1822205,16.8756896 13.1906576,16.7515433 C13.2027106,16.5586948 13.2003,16.3863364 13.1689621,16.2417 C13.144856,16.1368386 13.1279818,16.0898318 13.105081,16.0175135 Z M11.4164509,17.5145029 C10.8800909,17.5120898 10.4425657,17.0830018 10.4329233,16.5502577 C10.4232809,16.0090764 10.8668325,15.5607035 11.4152456,15.558283 C11.964864,15.5558823 12.4144422,15.9946128 12.4144422,16.535794 C12.4144422,17.07577 11.9660693,17.5157057 11.4164509,17.5145029 Z" id="Shape" fill="#000000" fill-rule="nonzero"></path>
                <path d="M8.6828227,12.3353115 C8.69849164,12.1605425 8.69005452,11.9833629 8.71174998,11.8097992 C8.75996212,11.427718 8.71416059,11.0371997 8.81420077,10.6599397 C8.86361821,10.4646806 8.70572346,10.2356729 8.90821444,10.0645198 C8.90821444,10.0645198 8.90821444,10.0645198 8.90821444,10.0645198 C8.89134019,10.0090759 8.87446594,9.95363192 8.8575917,9.89818796 C8.80094243,9.80417429 8.82986972,9.71257123 8.86361821,9.62096817 C8.86361821,9.62096817 8.86361821,9.62096817 8.86361821,9.62096817 C8.8600023,9.28589381 8.86361821,8.95081946 8.92388339,8.61936101 C8.94196294,8.15893509 8.96124779,7.69850918 8.97932734,7.23687796 C8.97812204,7.23567266 8.97571143,7.23446735 8.97450613,7.23326205 C7.98977322,7.68525084 7.06168957,7.05246653 6.90379481,6.29312536 C6.80013872,5.79412974 6.85558268,5.32285609 7.24489569,4.9419802 C7.30998208,4.87809912 7.36542603,4.80457561 7.42569121,4.73466801 C7.58479126,3.78127299 7.47390334,2.90622269 6.65911822,2.22402094 C6.78085386,2.15411334 6.89053648,2.19388835 6.98937136,2.1758088 C6.98937136,2.1758088 6.98937136,2.1746035 6.98937136,2.1746035 C5.9901748,1.92390038 4.77763954,2.60730743 4.37627349,3.65110021 C4.25574315,3.96447911 4.19065676,4.28750043 4.21114692,4.62378009 C5.20190635,4.16455948 6.09021499,4.71297255 6.33489159,5.54824783 C6.58921062,6.41727162 5.91183008,7.33691814 5.01146841,7.35017648 C4.74871226,7.35379239 4.49921444,7.31040147 4.25092194,7.23687796 C4.26900149,7.71658873 4.28828634,8.1962995 4.30636589,8.67601027 C4.30636589,8.67601027 4.30636589,8.67601027 4.30636589,8.67601027 C4.34131969,8.99059447 4.3786841,9.30397336 4.36301516,9.62096817 C4.36542576,9.69569698 4.36783637,9.7704258 4.37024698,9.84515461 C4.37024698,9.84515461 4.37024698,9.84515461 4.37024698,9.84515461 C4.37024698,9.84515461 4.37024698,9.84515461 4.37024698,9.84515461 C4.36783637,9.89457205 4.36542576,9.94398949 4.36301516,9.99461224 C4.43653867,10.2959381 4.45220761,10.6057011 4.47510838,10.9142588 C4.47269777,10.9058216 4.47149247,10.8985898 4.47028716,10.8901527 C4.47149247,10.8985898 4.47390307,10.9058216 4.47510838,10.9142588 C4.49921444,11.4385658 4.51367809,11.9640781 4.55104249,12.4883851 C4.56671144,12.7053397 4.48836671,12.813817 4.28828634,12.8692609 C4.05204687,12.9355526 3.8194233,13.0151027 3.58559443,13.0898315 C3.89897333,13.1332224 4.20753101,13.1380436 4.51608869,13.1308118 C4.84995775,13.12358 5.00182598,12.9753277 5.03436917,12.6438692 C5.05485933,12.4329411 5.07293888,12.222013 5.09222374,12.0110849 C5.1139192,11.6290037 5.13561466,11.2457172 5.15731012,10.863636 C5.17297907,10.863636 5.18864801,10.863636 5.20431696,10.863636 C5.20431696,11.2276377 5.20431696,11.5916393 5.20431696,11.9544356 C5.20431696,11.9544356 5.20431696,11.9544356 5.20431696,11.9544356 C5.21034348,12.1195622 5.21275408,12.2858941 5.22360181,12.4510207 C5.27181395,13.2212096 5.29471472,13.2163883 4.52693642,13.3718725 C4.50885687,13.3754884 4.49318793,13.3863361 4.47631368,13.3935679 C4.52211521,13.4237005 4.56791674,13.4538331 4.61371827,13.485171 C4.62818191,13.4887869 4.64023495,13.4948134 4.64746677,13.5080718 C4.83067289,13.5092771 5.01508432,13.524946 5.19587984,13.5080718 C5.52492768,13.4767339 5.68041182,13.3007596 5.70451789,12.9741223 C5.71898153,12.7643996 5.74067699,12.5546768 5.75875654,12.344954 C5.72982926,12.0665289 5.77201488,11.792925 5.82384293,11.5193211 C5.82263763,11.4686983 5.82143232,11.4192809 5.82022702,11.3686582 C5.82022702,11.3614263 5.81781641,11.3566051 5.81781641,11.3578104 C5.78286261,11.3662476 5.84071718,11.3288831 5.84674369,11.4024067 C5.85277021,11.3698635 5.86000203,11.3373203 5.86602855,11.3047771 C5.86602855,11.725428 5.86602855,12.1460789 5.86602855,12.5679351 L5.86602855,12.5679351 L5.86602855,12.5679351 C5.86964446,12.7161874 5.87446567,12.8632344 5.87687628,13.0114868 C5.8829028,13.5478468 5.8491543,13.5960589 5.33810564,13.7491325 C5.19708514,13.7913181 5.05003812,13.8166295 4.91022292,13.8636363 C4.80897743,13.8985901 4.68000996,13.8793052 4.58479099,13.9986303 C5.00062068,13.9829613 5.38993369,14.0299682 5.77683609,13.9672924 C6.17699684,13.902206 6.33609689,13.7406953 6.41805753,13.350177 C6.4783227,13.0633148 6.50363407,12.7680155 6.61331668,12.4775373 C6.62898563,12.5088752 6.64103866,12.5233389 6.64465457,12.5402131 C6.70009853,12.8114064 6.75554249,13.083805 6.80857584,13.3549982 C6.88330466,13.7346688 7.0375835,13.8961795 7.4232806,13.9636765 C7.82223604,14.0323788 8.22601269,13.9853719 8.63943177,13.9950144 C8.5803719,13.8937689 8.48756354,13.9106431 8.41283473,13.8889477 C8.15610509,13.8142188 7.89455425,13.7503378 7.64264583,13.6635559 C7.4594397,13.5996748 7.32806163,13.4827604 7.33047223,13.2573687 C7.33649875,12.6402533 7.33288284,12.0231379 7.33288284,11.4060226 C7.35819421,11.4060226 7.38350559,11.4060226 7.40761165,11.4060226 C7.43412833,11.792925 7.46546622,12.1786221 7.48595638,12.5655245 C7.53296321,13.4598596 7.63902992,13.5574892 8.53698098,13.5080718 C8.58760373,13.4237005 8.71174998,13.4899922 8.75875681,13.3995945 C8.5430075,13.3983892 8.35498016,13.2947331 8.1573104,13.2284414 C8.04642248,13.191077 7.9837467,13.0910368 7.98615731,12.9680958 C7.99579973,12.3341062 7.97169367,11.697706 8.05727021,11.066127 C8.10909826,11.5964605 8.15007858,12.1279993 8.19105889,12.6583328 C8.21034375,12.9066254 8.32243697,13.1006792 8.58278251,13.1175535 C8.93473112,13.1416595 9.28788503,13.12358 9.64103893,13.12358 C9.4542169,13.0295663 9.26257365,12.9741223 9.07213571,12.9138572 C8.64063708,12.7752473 8.64304768,12.774042 8.6828227,12.3353115 Z M5.96847934,3.29191979 C5.96486343,3.46909939 5.82745884,3.60891459 5.64786863,3.6125305 C5.45863599,3.61614641 5.31641018,3.5076691 5.31279427,3.2617872 C5.33328443,3.08340229 5.43332461,2.96166664 5.64545802,2.95684543 C5.87084976,2.95322952 5.97209525,3.10509775 5.96847934,3.29191979 Z M7.41725408,8.56391705 C7.41845938,9.05206494 7.04481532,9.47753706 6.6181379,9.47633431 C6.21556655,9.47512645 5.80455807,9.0002369 5.81902172,8.55186402 C5.81902172,8.55186402 5.81902172,8.55186402 5.81902172,8.55186402 C5.79732625,8.41928064 5.77442549,8.28549195 5.7442929,8.09987522 C6.03236042,8.29633969 6.27462642,8.49762536 6.59885304,8.50485718 C6.93031149,8.5108837 7.19065703,8.34093591 7.46185031,8.14206084 C7.51970487,8.3011609 7.37386316,8.42530715 7.41725408,8.56391705 Z" id="Shape" fill="#FE733E" fill-rule="nonzero"></path>
                <path d="M4.36422046,9.61976287 C4.34011439,9.61132574 4.31721362,9.60047801 4.29431286,9.59204089 C3.96405972,9.4570469 3.6784028,9.24973471 3.41323604,9.01952175 C2.45622511,8.19268359 1.8246461,7.15732793 1.67157257,5.90140174 C1.49800887,4.47432247 1.81741428,3.1569258 2.769604,2.02514587 C3.63862779,0.993406121 4.74630165,0.391959703 6.06851953,0.253349807 C7.53778443,0.10027627 8.8575917,0.511284744 9.96888147,1.52615024 C10.8957598,2.37227326 11.4369411,3.42088726 11.575551,4.65391268 C11.6936707,5.70373198 11.5044381,6.71859748 10.9644621,7.64065461 C10.4739036,8.47834051 9.82062915,9.15813165 8.93714172,9.58842498 C8.91303565,9.60047801 8.88892959,9.61253105 8.86482352,9.62337878 C8.86482352,9.62337878 8.86482352,9.62337878 8.86482352,9.62337878 C8.86482352,9.62337878 8.86482352,9.62337878 8.86482352,9.62337878 C8.83107502,9.71498184 8.80094243,9.8065849 8.858797,9.90059857 C8.858797,9.90059857 8.858797,9.90059857 8.858797,9.90059857 C8.87928716,9.88251902 8.89736671,9.85961825 8.92147278,9.84635991 C10.2557437,9.1400521 11.1814167,8.0902328 11.6141207,6.62940502 C11.6514851,6.50525877 11.7093396,6.44378829 11.8479495,6.45825193 C12.0359769,6.47753679 12.0865996,6.35218523 12.0865996,6.19549578 C12.0878049,5.59404937 12.0878049,4.99380825 12.0878049,4.39236183 C12.0878049,4.26339436 12.056467,4.12116856 11.9226784,4.10670492 C11.6767965,4.07777763 11.6466639,3.89818742 11.5972464,3.72341842 C11.3079736,2.70614231 10.7511234,1.8600193 9.92428524,1.21036074 C8.22480739,-0.123910171 6.35899766,-0.36497086 4.40158487,0.536596116 C2.94678361,1.20553953 2.01990526,2.36624674 1.60045966,3.91988288 C1.57394299,4.01630716 1.58599602,4.13081098 1.42207475,4.09706249 C1.18824589,4.04885035 1.10025873,4.18625494 1.09905343,4.39356714 C1.09543752,4.99501355 1.09784813,5.59525467 1.09784813,6.19670109 C1.09784813,6.39678146 1.19909362,6.50284816 1.39194217,6.45584133 C1.56912177,6.4124504 1.61130739,6.50043755 1.6474665,6.63543154 C1.80415595,7.21156659 2.06570679,7.73828419 2.420066,8.21920026 C2.93834649,8.92189217 3.56992549,9.48597418 4.37265758,9.84515461 C4.37265758,9.84515461 4.37265758,9.84515461 4.37265758,9.84515461 C4.37024698,9.7704258 4.36783637,9.69449168 4.36422046,9.61976287 Z" id="Path" fill="#B5D2F3" fill-rule="nonzero"></path>
                <path d="M3.45662697,16.16215 C3.22641401,15.1448739 2.23083336,14.5711494 1.24489515,14.8797071 C0.254135717,15.1906754 -0.25932355,16.2658061 0.131194766,17.2143799 C0.508454743,18.1328211 1.65108241,18.553472 2.55144408,18.1038938 C2.65751078,18.0508605 2.73706081,17.973721 2.8395116,18.1328211 C2.92990936,18.2726363 3.08780411,18.3184378 3.2589572,18.2497355 C3.42528908,18.1822385 3.49760728,18.0556817 3.49640198,17.8809127 C3.49519668,17.6314149 3.49640198,17.381917 3.49640198,17.0685381 C3.48073304,16.8081926 3.52894517,16.4815554 3.45662697,16.16215 Z M1.7535332,17.5145004 C1.1918618,17.5072686 0.750720736,17.0697435 0.76638968,16.535794 C0.780853322,16.0054605 1.24368984,15.5607035 1.77763927,15.5631044 C2.31520461,15.5655248 2.74188202,16.0163082 2.7346502,16.5731584 C2.72862369,17.1215715 2.31158869,17.5217322 1.7535332,17.5145004 Z" id="Shape" fill="#000000" fill-rule="nonzero"></path>
                <path d="M5.95642631,15.1436685 C5.93714145,14.8917601 5.72500805,14.7627927 5.39596021,14.7989518 C4.60648645,14.8869389 3.9917817,15.4510209 3.84111876,16.2332629 C3.7832642,16.5345887 3.82786043,16.8419411 3.81460209,17.0950548 C3.81460209,17.3674534 3.81339679,17.5892292 3.81460209,17.8110051 C3.8170127,18.1159468 3.95200668,18.2846893 4.19306737,18.2870999 C4.43412806,18.2907158 4.58117508,18.1195627 4.58479099,17.8194422 C4.5884069,17.3951754 4.58117508,16.9697033 4.5872016,16.5454365 C4.59443342,16.0151029 4.96205097,15.5932467 5.48635797,15.5715513 C5.79732625,15.5582929 5.97209525,15.352186 5.95642631,15.1436685 Z" id="Path" fill="#010101" fill-rule="nonzero"></path>
                <path d="M4.36542576,9.99340693 C4.18704085,10.4936079 3.7121513,10.4815548 3.30837464,10.6069064 C3.61211111,10.6852511 3.92066879,10.7756489 4.22440526,10.7238208 C4.40520078,10.6924829 4.44015458,10.7575693 4.46667125,10.8648413 C4.46908186,10.8732784 4.47028716,10.8817156 4.47269777,10.8901527 C4.47390307,10.8973845 4.47631368,10.9058216 4.47751898,10.9142588 C4.45461822,10.6044958 4.43894927,10.2959381 4.36542576,9.99340693 Z" id="Path" fill="#FE684B" fill-rule="nonzero"></path>
                <path d="M8.81420077,10.661145 C9.19989787,10.835914 9.56389951,10.6599397 9.93633828,10.609317 C9.57233664,10.4550382 9.10106299,10.5345882 8.90941974,10.0657251 C8.90941974,10.0657251 8.90941974,10.0657251 8.90941974,10.0657251 C8.70572346,10.2368782 8.86361821,10.4658859 8.81420077,10.661145 Z" id="Path" fill="#FE6446" fill-rule="nonzero"></path>
                <path d="M5.86723385,11.3023665 C5.86120734,11.3349097 5.85397552,11.3674529 5.847949,11.3999961 C5.84071718,11.4385658 5.83228005,11.4771355 5.82504823,11.5169105 C5.77322018,11.7905144 5.73103456,12.0641182 5.75996185,12.3425433 C5.8503596,12.3895502 5.78406792,12.5136964 5.86723385,12.5643192 L5.86723385,12.5643192 C5.86723385,12.1448736 5.86723385,11.7242227 5.86723385,11.3023665 Z" id="Path" fill="#FED6C8" fill-rule="nonzero"></path>
                <path d="M5.15972073,10.8612254 C5.13802527,11.2433066 5.11632981,11.6265931 5.09463435,12.0086743 C5.13199875,11.9893894 5.16936316,11.9713099 5.20672757,11.952025 C5.20672757,11.952025 5.20672757,11.952025 5.20672757,11.952025 C5.20672757,11.5880234 5.20672757,11.2240217 5.20672757,10.8612254 C5.19105862,10.8612254 5.17538968,10.8612254 5.15972073,10.8612254 Z" id="Path" fill="#FEEBE3" fill-rule="nonzero"></path>
                <path d="M4.02673549,13.5056612 C4.28587574,13.5056612 4.46787656,13.5056612 4.64867207,13.5056612 C4.63782434,13.4984293 4.62577131,13.4911975 4.61492358,13.4827604 C4.56912204,13.4526278 4.52332051,13.4224952 4.47751898,13.3911573 C4.34131969,13.3839255 4.21355753,13.4140581 4.02673549,13.5056612 Z" id="Path" fill="#FE9166" fill-rule="nonzero"></path>
                <path d="M8.53698098,13.5056612 C8.73826666,13.5056612 8.94075763,13.5056612 9.14204331,13.5056612 C9.01910236,13.4345483 8.89857201,13.3742831 8.75875681,13.3971839 C8.71174998,13.4887869 8.58639842,13.4212899 8.53698098,13.5056612 Z" id="Path" fill="#FE8F64" fill-rule="nonzero"></path>
                <path d="M8.93834703,9.58721967 C9.82183445,9.15813165 10.4739036,8.47834051 10.9656674,7.63944931 C11.5056434,6.71739217 11.694876,5.70252667 11.5767563,4.65270738 C11.4381464,3.41847665 10.8981704,2.36986265 9.97008677,1.52494494 C8.858797,0.511284744 7.53898973,0.0990709662 6.06972483,0.253349807 C4.74871226,0.390754399 3.63983309,0.993406121 2.77080931,2.02514587 C1.81741428,3.1569258 1.49921417,4.47432247 1.67277787,5.90140174 C1.82585141,7.15853323 2.45743041,8.19268359 3.41444135,9.01952175 C3.68081341,9.24973471 3.96647032,9.4582522 4.29551816,9.59204089 C4.31841893,9.60168331 4.34131969,9.61132574 4.36542576,9.61976287 C4.38109471,9.30276806 4.3437303,8.98938917 4.3087765,8.67480497 C4.28467043,8.65793072 4.26056436,8.64105647 4.23645829,8.62297692 C3.9917817,8.44579731 3.7820589,8.22763739 3.57113079,8.01309338 C3.50724971,7.94800699 3.42769968,7.89256303 3.42769968,7.78649633 C3.28547388,7.88894712 3.18302308,7.81783422 3.09985715,7.70453569 C2.63702062,7.07295669 2.35739023,6.37267539 2.32002582,5.58440694 C2.28627732,4.88774155 2.3489531,4.21036101 2.64184184,3.55829185 C3.0142806,2.73024838 3.58679974,2.09746408 4.35578334,1.62739573 C4.48595611,1.54784571 4.56068492,1.61895861 4.65108268,1.67801848 C4.73906983,1.66958135 4.81741455,1.63944877 4.87406382,1.56713056 C4.87044791,1.55869344 4.866832,1.55025631 4.86321608,1.54181919 C4.78607666,1.37910322 4.78246075,1.1946918 4.96807748,1.15130087 C5.15489952,1.10670464 5.26096622,1.25857288 5.26217152,1.45503734 C6.65670761,0.997022032 7.95361411,1.18263876 9.12396376,2.07576861 C9.99901406,2.74350672 10.5004203,3.63904718 10.6534938,4.7310521 C10.8511636,6.13523061 10.376274,7.29955374 9.39756764,8.28428665 C9.28185851,8.39999578 9.15168574,8.50485718 9.00463872,8.5832019 C8.97932734,8.59646024 8.95401597,8.60851328 8.9287046,8.62056631 C8.86843943,8.95202476 8.86482352,9.28709912 8.86843943,9.62217347 C8.86843943,9.62217347 8.86843943,9.62217347 8.86843943,9.62217347 C8.89013489,9.61132574 8.91303565,9.59927271 8.93834703,9.58721967 Z" id="Path" fill="#E2F5FC" fill-rule="nonzero"></path>
                <path d="M9.39515703,8.28549195 C10.3726581,7.30075904 10.8475477,6.13643591 10.6510832,4.7322574 C10.4980097,3.63904718 9.99660345,2.74350672 9.12155315,2.07697392 C7.95120351,1.18384407 6.6530917,0.999432638 5.25976092,1.45624264 C5.25735031,1.45744795 5.2549397,1.45985855 5.2525291,1.46106386 C5.14284648,1.53097146 5.05726994,1.68163439 4.89937519,1.58762072 C4.88973276,1.5815942 4.88129564,1.57677299 4.87165321,1.56954117 C4.81500395,1.64185937 4.73786453,1.67199196 4.64867207,1.68042908 C4.64505616,1.69489273 4.64023495,1.70815106 4.63541373,1.7226147 C4.53537355,2.00345041 4.23525299,2.07697392 4.03396732,2.2457164 C3.48796486,2.7025264 3.0829829,3.24973417 2.84433282,3.91265106 C2.46104632,4.98054991 2.53939105,6.0267533 3.05285031,7.03679759 C3.13601625,7.20071886 3.23846704,7.356203 3.34814966,7.50445532 C3.41323604,7.59364778 3.4337262,7.68284023 3.42528908,7.78529103 C3.42528908,7.78649633 3.42528908,7.78770163 3.42528908,7.78890694 C3.42528908,7.78890694 3.42528908,7.78890694 3.42528908,7.78890694 C3.42528908,7.89376834 3.5048391,7.9504176 3.56872019,8.01550398 C3.78085359,8.230048 3.98937109,8.44820792 4.23404769,8.62538753 C4.25815376,8.64226177 4.28225982,8.66034133 4.30636589,8.67721557 C4.30636589,8.67721557 4.30636589,8.67721557 4.30636589,8.67721557 C4.28828634,8.1975048 4.26900149,7.71779403 4.25092194,7.23808326 C4.24971663,7.23808326 4.24971663,7.23687796 4.24851133,7.23687796 C3.83147634,6.96327408 3.52532926,6.61373608 3.47229591,6.09304499 C3.40600422,5.45061826 3.67599219,4.9757287 4.20150449,4.62980661 C4.2039151,4.62860131 4.20632571,4.6261907 4.20873631,4.6249854 C4.20873631,4.6249854 4.20873631,4.6249854 4.20873631,4.6249854 C4.18824616,4.28750043 4.25333254,3.96447911 4.37386289,3.65230552 C4.77522893,2.60971804 5.9877642,1.92510568 6.98696075,2.1758088 C6.98816606,2.1758088 6.98937136,2.1758088 6.99057666,2.1770141 C7.65349356,2.28428611 8.19829071,2.58681727 8.58880903,3.14246216 C8.90098262,3.58721913 9.06249328,4.07777763 9.02874479,4.6249854 L9.02874479,4.6249854 C9.40479946,4.91064231 9.70853593,5.24571667 9.75795337,5.74109639 C9.82424506,6.40762919 9.53979345,6.89457178 8.97932734,7.23446735 L8.97932734,7.23446735 C8.97932734,7.23687796 8.97932734,7.23808326 8.97932734,7.24049387 C8.96124779,7.70091978 8.94196294,8.1613457 8.92388339,8.62297692 C8.95040006,8.61092388 8.97571143,8.59887085 8.9998175,8.58561251 C9.14927513,8.50726779 9.2794479,8.40240639 9.39515703,8.28549195 Z" id="Path" fill="#CDECF6" fill-rule="nonzero"></path>
                <path d="M7.77161329,4.57074674 C8.18503237,4.36705046 8.58639842,4.47673307 8.98535386,4.60811115 C8.9998175,4.61293236 9.01548645,4.61775358 9.02995009,4.62257479 C9.06369859,4.07416172 8.90218792,3.58360322 8.59001433,3.14005155 C8.19949602,2.58440667 7.65469886,2.2818755 6.99178197,2.1746035 C6.99057666,2.1746035 6.98937136,2.1746035 6.98816606,2.1746035 C6.88933117,2.19388835 6.77964856,2.15290803 6.65791291,2.22281563 C7.47269804,2.90501738 7.58479126,3.78006768 7.4244859,4.73346271 C7.44979727,4.72140967 7.47390334,4.71056194 7.49921472,4.69850891 C7.59202308,4.65632329 7.68242084,4.61534297 7.77161329,4.57074674 Z" id="Path" fill="#FE6B3C" fill-rule="nonzero"></path>
                <path d="M9.76036398,5.73989108 C9.71094653,5.24451137 9.40721007,4.90943701 9.03115539,4.62378009 L9.03115539,4.62378009 C9.01669175,4.61895888 9.00102281,4.61413767 8.98655916,4.60931645 C8.58639842,4.47793838 8.18623768,4.36825576 7.7728186,4.57195204 C7.68362614,4.61654827 7.59202308,4.65873389 7.50162532,4.70091951 C7.47631395,4.71297255 7.45220788,4.72382028 7.42689651,4.73587331 C7.36663134,4.80457561 7.31118738,4.87930442 7.24610099,4.94318551 C6.85558268,5.32406139 6.80134402,5.79533504 6.90500012,6.29433067 C7.06289487,7.05487714 7.99097852,7.68766145 8.97691674,7.23687796 C8.97812204,7.23567266 8.98053265,7.23567266 8.98173795,7.23446735 C9.54220405,6.89336648 9.82786097,6.40521858 9.76036398,5.73989108 Z M8.28627786,7.07175139 C7.64626174,7.06693017 7.14726611,6.55829212 7.15329263,5.91586538 C7.15931914,5.28308108 7.67639432,4.78167484 8.31399984,4.78649606 C8.95522128,4.79131727 9.44577978,5.29633941 9.44095856,5.94479267 C9.43613735,6.58842471 8.93473112,7.0777779 8.28627786,7.07175139 Z" id="Shape" fill="#FE6142" fill-rule="nonzero"></path>
                <path d="M4.2027098,4.627396 C3.6771975,4.97331809 3.40720952,5.44820765 3.47350121,6.09063438 C3.52653457,6.61132547 3.83268164,6.96086347 4.24971663,7.23446735 C4.25092194,7.23446735 4.25092194,7.23567266 4.25212724,7.23567266 C4.50041975,7.30919617 4.74871226,7.35258709 5.01267371,7.34897118 C5.91183008,7.33571284 6.59041592,6.41727162 6.33609689,5.54704253 C6.09142029,4.71176724 5.20190635,4.16335418 4.21235223,4.62257479 C4.21235223,4.62257479 4.21235223,4.62257479 4.21235223,4.62257479 C4.20753101,4.62378009 4.2051204,4.6261907 4.2027098,4.627396 Z M4.92107065,7.07176 C4.26418027,7.07416199 3.75554222,6.57034515 3.75794429,5.91707069 C3.75915813,5.27584926 4.25935906,4.77926424 4.9041964,4.77562935 C5.55626556,4.77203242 6.07695665,5.28549168 6.07455438,5.92671312 C6.07213544,6.55708682 5.55506026,7.06934078 4.92107065,7.07176 Z" id="Shape" fill="#FE6143" fill-rule="nonzero"></path>
                <path d="M5.97088995,8.65793072 C5.92629372,8.61333449 5.89375053,8.55306932 5.81902172,8.55186402 L5.81902172,8.55186402 C5.81902172,8.55186402 5.81902172,8.55186402 5.81902172,8.55186402 C5.80455807,9.0002369 6.21436124,9.47512645 6.6181379,9.47633431 C7.04602062,9.47753706 7.41845938,9.05206494 7.417257,8.56391705 C7.25574342,8.64708299 7.15329263,8.81823608 6.9676759,8.86885882 C6.59764774,8.97010431 6.25775217,8.94479294 5.97088995,8.65793072 Z" id="Path" fill="#070909" fill-rule="nonzero"></path>
                <path d="M7.46185031,8.14206084 C7.19065703,8.34093591 6.93151679,8.5108837 6.59885304,8.50485718 C6.27342111,8.49883066 6.03236042,8.29633969 5.7442929,8.09987522 C5.77563079,8.28549195 5.79732625,8.41807533 5.81902172,8.55186402 L5.81902172,8.55186402 C5.89375053,8.55427462 5.92629372,8.61333449 5.97088995,8.65793072 C6.25654687,8.94479294 6.59764774,8.97010431 6.9676759,8.86885882 C7.15329263,8.81823608 7.25574342,8.64828829 7.41725408,8.56391705 C7.37386316,8.42530715 7.51970487,8.3011609 7.46185031,8.14206084 Z" id="Path" fill="#FDFCFB" fill-rule="nonzero"></path>
                <path d="M5.64545802,2.95805073 C5.43211931,2.96166664 5.33207912,3.08340229 5.31279427,3.26299251 C5.31641018,3.50887441 5.45863599,3.61614641 5.64786863,3.61373581 C5.82745884,3.6101199 5.96486343,3.4703047 5.96847934,3.29312509 C5.97209525,3.10509775 5.87084976,2.95322952 5.64545802,2.95805073 Z" id="Path" fill="#FEA777" fill-rule="nonzero"></path>
                <path d="M3.42528908,7.78408572 C3.4337262,7.68163493 3.41323604,7.59244247 3.34814966,7.50325002 C3.23967235,7.3549977 3.13601625,7.19951355 3.05285031,7.03559228 C2.53939105,6.025548 2.45984102,4.97934461 2.84433282,3.91144576 C3.0829829,3.24852886 3.48796486,2.7013211 4.03396732,2.2445111 C4.23525299,2.07576861 4.53537355,2.00345041 4.63541373,1.7214094 C4.64023495,1.70815106 4.64505616,1.69368742 4.64867207,1.67922378 C4.55827431,1.62016391 4.4835455,1.54905101 4.35337273,1.62860104 C3.58438913,2.09866938 3.01187,2.73145369 2.63943123,3.55949715 C2.34654249,4.21156632 2.28386672,4.88894685 2.31761521,5.58561224 C2.35618492,6.37267539 2.63461002,7.07416199 3.09744654,7.705741 C3.18061248,7.81903952 3.28426857,7.89015242 3.42528908,7.78770163 C3.42528908,7.78770163 3.42528908,7.78770163 3.42528908,7.78770163 C3.42528908,7.78649633 3.42528908,7.78529103 3.42528908,7.78408572 Z" id="Path" fill="#FDFEFE" fill-rule="nonzero"></path>
                <path d="M5.25132379,1.46106386 C5.2537344,1.45985855 5.25614501,1.45744795 5.25855561,1.45624264 C5.25614501,1.25977818 5.15128361,1.10790995 4.96446157,1.15250618 C4.77884484,1.1971024 4.78246075,1.38151383 4.85960017,1.54302449 C4.86321608,1.55146162 4.866832,1.55989874 4.87044791,1.56833586 C4.88009033,1.57556768 4.88973276,1.5815942 4.89816988,1.58641542 C5.05606464,1.68163439 5.14164118,1.52976615 5.25132379,1.46106386 Z" id="Path" fill="#FBFDFE" fill-rule="nonzero"></path>
                <path d="M9.44095856,5.94599797 C9.44577978,5.29875002 8.95522128,4.79372788 8.31399984,4.78770136 C7.67518902,4.78288015 7.15931914,5.28428638 7.15329263,5.91707069 C7.14726611,6.55829212 7.64626174,7.06693017 8.28627786,7.07295669 C8.93473112,7.0777779 9.43613735,6.58842471 9.44095856,5.94599797 Z M8.34292713,6.07134953 C8.12597251,6.07496544 7.99941564,5.95202449 7.98013079,5.73868578 C7.96205124,5.53981071 8.14043615,5.35419398 8.33810591,5.36745232 C8.55023932,5.38312126 8.66956436,5.50726752 8.69487573,5.72904335 C8.66594845,5.92671312 8.56470296,6.06773362 8.34292713,6.07134953 Z M4.9041964,4.77683465 C4.25935906,4.78046954 3.76036343,5.27705456 3.75795068,5.91827599 C3.75674752,6.57155046 4.26418027,7.0753673 4.92107065,7.0729653 C5.55506026,7.07054608 6.07213544,6.55829212 6.07454813,5.92912372 C6.07575135,5.28669699 5.55506026,4.77323772 4.9041964,4.77683465 Z M4.90540171,6.07134953 C4.69085769,6.07376014 4.56189022,5.95081918 4.54501598,5.73506987 C4.52934703,5.5361948 4.70893724,5.35178337 4.90781231,5.36865762 C5.11753511,5.38673717 5.24047606,5.50847282 5.25976092,5.73024865 C5.23324424,5.93394494 5.12235633,6.06893892 4.90540171,6.07134953 Z" id="Shape" fill="#FEFEFE" fill-rule="nonzero"></path>
                <path d="M8.33810591,5.36745232 C8.14043615,5.35298868 7.96205124,5.53860541 7.98013079,5.73868578 C7.99941564,5.95322979 8.12597251,6.07496544 8.34292713,6.07134953 C8.56349766,6.06773362 8.66594845,5.92671312 8.69487573,5.72904335 C8.66956436,5.50726752 8.55023932,5.38312126 8.33810591,5.36745232 Z" id="Path" fill="#090B0B" fill-rule="nonzero"></path>
                <path d="M4.90781231,5.36865762 C4.70893724,5.35178337 4.52934703,5.5361948 4.54501598,5.73506987 C4.56189022,5.95081918 4.69085769,6.07376014 4.90540171,6.07134953 C5.12235633,6.06893892 5.23324424,5.93394494 5.25976092,5.73024865 C5.23927076,5.50726752 5.11632981,5.38553187 4.90781231,5.36865762 Z" id="Path" fill="#090C0C" fill-rule="nonzero"></path>
            </g>
        </g>
    </g>
</svg>