<?xml version="1.0" encoding="UTF-8"?>
<svg width="20px" height="20px" viewBox="0 0 20 20" version="1.1" xmlns="http://www.w3.org/2000/svg" xmlns:xlink="http://www.w3.org/1999/xlink">
    <title>AWS</title>
    <g id="AWS" stroke="none" stroke-width="1" fill="none" fill-rule="evenodd">
        <g id="amazon-web-services">
            <polygon id="Frame" points="0 0 20 0 20 20 0 20"></polygon>
            <path d="M5.63619566,9.35817575 C5.63619566,9.6051168 5.66280281,9.80533927 5.70936534,9.95216908 C5.76257966,10.0989989 5.82909756,10.2591769 5.92222262,10.432703 C5.95548157,10.4860957 5.96878514,10.5394883 5.96878514,10.5862069 C5.96878514,10.6529477 5.92887441,10.7196885 5.84240114,10.7864294 L5.42333838,11.0667408 C5.36347227,11.1067853 5.30360617,11.1268076 5.25039185,11.1268076 C5.18387395,11.1268076 5.11735605,11.0934372 5.05083815,11.0333704 C4.9577131,10.9332592 4.87789162,10.8264739 4.81137372,10.7196885 C4.74485582,10.6062291 4.67833793,10.4794216 4.60516824,10.3259177 C4.08632864,10.9399333 3.43445324,11.246941 2.64954204,11.246941 C2.0907917,11.246941 1.64512178,11.0867631 1.31918408,10.7664071 C0.993246385,10.4460512 0.82695164,10.0189099 0.82695164,9.48498331 C0.82695164,8.91768632 1.02650533,8.45717464 1.43226451,8.11012236 C1.83802369,7.76307008 2.37681866,7.58954394 3.06195301,7.58954394 C3.28811386,7.58954394 3.5209265,7.60956618 3.76704273,7.6429366 C4.01315895,7.67630701 4.26592696,7.72969967 4.53199855,7.78976641 L4.53199855,7.3025584 C4.53199855,6.79532814 4.42556991,6.44160178 4.21936443,6.23470523 C4.00650716,6.02780868 3.64731051,5.92769744 3.1351227,5.92769744 C2.90231005,5.92769744 2.66284562,5.95439377 2.4167294,6.01446051 C2.17061318,6.07452725 1.93114874,6.14794216 1.6983361,6.24137931 C1.59190747,6.28809789 1.51208599,6.31479422 1.46552346,6.32814238 C1.41896093,6.34149055 1.38570198,6.34816463 1.35909482,6.34816463 C1.26596977,6.34816463 1.21940724,6.2814238 1.21940724,6.14126808 L1.21940724,5.81423804 C1.21940724,5.70745273 1.23271082,5.62736374 1.26596977,5.58064516 C1.29922872,5.53392659 1.35909482,5.48720801 1.45221988,5.44048943 C1.68503252,5.32035595 1.96440769,5.22024472 2.29034539,5.14015573 C2.61628309,5.05339266 2.96217616,5.01334816 3.3280246,5.01334816 C4.11958758,5.01334816 4.6982933,5.19354839 5.07079352,5.55394883 C5.43664196,5.91434928 5.62289208,6.46162403 5.62289208,7.19577308 L5.62289208,9.35817575 L5.63619566,9.35817575 Z M2.935569,10.3726363 C3.15507807,10.3726363 3.38123892,10.3325918 3.62070335,10.2525028 C3.86016778,10.1724138 4.07302506,10.025584 4.25262338,9.82536151 C4.35905202,9.69855395 4.43887349,9.55839822 4.47878423,9.39822024 C4.51869497,9.23804227 4.54530213,9.04449388 4.54530213,8.81757508 L4.54530213,8.53726363 C4.35240023,8.49054505 4.14619474,8.45050056 3.93333747,8.42380423 C3.7204802,8.3971079 3.51427471,8.38375973 3.30806923,8.38375973 C2.86239931,8.38375973 2.53646162,8.4705228 2.31695255,8.65072303 C2.09744349,8.83092325 1.99101485,9.08453838 1.99101485,9.41824249 C1.99101485,9.73192436 2.07083633,9.96551724 2.23713108,10.1256952 C2.39677403,10.2925473 2.62958667,10.3726363 2.935569,10.3726363 L2.935569,10.3726363 Z M8.2769562,11.0934372 C8.15722398,11.0934372 8.07740251,11.0734149 8.02418819,11.0266963 C7.97097387,10.9866518 7.92441134,10.8932147 7.8845006,10.7664071 L6.32133,5.60734149 C6.28141926,5.47385984 6.2614639,5.38709677 6.2614639,5.3403782 C6.2614639,5.23359288 6.31467821,5.17352614 6.42110685,5.17352614 L7.07298225,5.17352614 C7.19936626,5.17352614 7.28583952,5.19354839 7.33240205,5.24026696 C7.38561637,5.28031146 7.42552711,5.37374861 7.46543785,5.50055617 L8.58293853,9.91879867 L9.62061774,5.50055617 C9.65387669,5.36707453 9.69378742,5.28031146 9.74700174,5.24026696 C9.80021606,5.20022247 9.89334112,5.17352614 10.0130733,5.17352614 L10.5452165,5.17352614 C10.6716005,5.17352614 10.7580738,5.19354839 10.8112881,5.24026696 C10.8645024,5.28031146 10.911065,5.37374861 10.9376721,5.50055617 L11.9886549,9.97219132 L13.1394145,5.50055617 C13.1793253,5.36707453 13.2258878,5.28031146 13.2724503,5.24026696 C13.3256646,5.20022247 13.4121379,5.17352614 13.5318701,5.17352614 L14.1504866,5.17352614 C14.2569152,5.17352614 14.3167813,5.2269188 14.3167813,5.3403782 C14.3167813,5.37374861 14.3101295,5.40711902 14.3034777,5.44716352 C14.296826,5.48720801 14.2835224,5.54060067 14.2569152,5.61401557 L12.6538339,10.7730812 C12.6139231,10.9065628 12.5673606,10.9933259 12.5141463,11.0333704 C12.460932,11.0734149 12.3744587,11.1001112 12.2613783,11.1001112 L11.6893244,11.1001112 C11.5629404,11.1001112 11.4764671,11.080089 11.4232528,11.0333704 C11.3700385,10.9866518 11.3234759,10.8998888 11.2968688,10.7664071 L10.2658413,6.46162403 L9.24146572,10.759733 C9.20820677,10.8932147 9.16829603,10.9799778 9.11508171,11.0266963 C9.0618674,11.0734149 8.96874234,11.0934372 8.84901012,11.0934372 L8.2769562,11.0934372 Z M16.8245061,11.2736374 C16.478613,11.2736374 16.1327199,11.2335929 15.8001304,11.1535039 C15.467541,11.0734149 15.2081212,10.9866518 15.0351746,10.8865406 C14.928746,10.8264739 14.8555763,10.759733 14.8289691,10.6996663 C14.802362,10.6395996 14.7890584,10.5728587 14.7890584,10.512792 L14.7890584,10.1724138 C14.7890584,10.0322581 14.8422727,9.96551724 14.9420496,9.96551724 C14.9819603,9.96551724 15.021871,9.97219132 15.0617818,9.98553949 C15.1016925,9.99888765 15.1615586,10.025584 15.2280765,10.0522803 C15.4542374,10.1523915 15.7003536,10.2324805 15.9597734,10.2858732 C16.225845,10.3392659 16.4852648,10.3659622 16.7513364,10.3659622 C17.1703991,10.3659622 17.4963368,10.2925473 17.7224977,10.1457175 C17.9486585,9.99888765 18.0683908,9.78531702 18.0683908,9.51167964 C18.0683908,9.32480534 18.0085247,9.17130145 17.8887924,9.04449388 C17.7690602,8.91768632 17.5428994,8.80422692 17.2169617,8.6974416 L16.2524522,8.3971079 C15.7668715,8.243604 15.4076749,8.01668521 15.1881658,7.7163515 C14.9686567,7.42269188 14.8555763,7.09566185 14.8555763,6.74860957 C14.8555763,6.46829811 14.9154424,6.22135706 15.0351746,6.00778643 C15.1549068,5.7942158 15.3145498,5.60734149 15.5141035,5.46051168 C15.7136572,5.30700779 15.939818,5.19354839 16.2058896,5.1134594 C16.4719612,5.03337041 16.7513364,5 17.0440151,5 C17.1903545,5 17.3433457,5.00667408 17.4896851,5.02669633 C17.6426762,5.04671858 17.7823638,5.07341491 17.9220514,5.10011123 C18.0550872,5.13348165 18.1814712,5.16685206 18.3012034,5.20689655 C18.4209356,5.24694105 18.5140607,5.28698554 18.5805786,5.32703003 C18.6737036,5.38042269 18.7402215,5.43381535 18.7801323,5.49388209 C18.820043,5.54727475 18.8399984,5.62068966 18.8399984,5.71412681 L18.8399984,6.02780868 C18.8399984,6.1679644 18.7867841,6.24137931 18.6870072,6.24137931 C18.6337929,6.24137931 18.5473196,6.21468298 18.4342392,6.16129032 C18.0550872,5.98776418 17.6293726,5.90100111 17.1570956,5.90100111 C16.7779435,5.90100111 16.478613,5.96106785 16.2724075,6.08787542 C16.066202,6.21468298 15.9597734,6.40823137 15.9597734,6.68186874 C15.9597734,6.86874305 16.0262913,7.02892102 16.1593271,7.15572859 C16.2923629,7.28253615 16.5384791,7.40934372 16.891024,7.52280311 L17.8355781,7.82313682 C18.314507,7.97664071 18.6604001,8.19021135 18.8666055,8.46384872 C19.072811,8.7374861 19.1725879,9.05116796 19.1725879,9.39822024 C19.1725879,9.68520578 19.1127218,9.94549499 18.9996413,10.1724138 C18.8799091,10.3993326 18.7202662,10.5995551 18.5140607,10.759733 C18.3078552,10.9265851 18.061739,11.0467186 17.775712,11.1334816 C17.4763815,11.2269188 17.1637474,11.2736374 16.8245061,11.2736374 L16.8245061,11.2736374 Z" id="Shape" fill="#252F3E" fill-rule="nonzero"></path>
            <path d="M0.314763827,12.9221357 C3.1351227,14.56396 6.61400875,15.5583982 10.212627,15.5583982 C12.6405303,15.5583982 15.307898,15.051168 17.7624084,14.0100111 C18.1282569,13.8431591 18.440891,14.2502781 18.0816943,14.5172414 C15.8932555,16.1390434 12.7137,17 9.97981439,17 C6.14838347,17 2.69610457,15.5784205 0.0886029743,13.2157953 C-0.117602509,13.028921 0.0686476049,12.7753059 0.314763827,12.9221357 Z M19.9242401,12.7552836 C20.1637045,13.0556174 19.8577222,15.1179088 18.6870072,16.105673 C18.5074089,16.2591769 18.3344624,16.1790879 18.4142838,15.9788654 C18.6803554,15.3181313 19.2723647,13.8298109 18.9929895,13.4760845 C18.7136144,13.1156841 17.143792,13.3025584 16.4320505,13.3893215 C16.2191932,13.4160178 16.1859343,13.2291435 16.3788362,13.0889878 C17.6293726,12.2080089 19.6847757,12.461624 19.9242401,12.7552836 Z" id="Combined-Shape" fill="#FF9900"></path>
        </g>
    </g>
</svg>