<?xml version="1.0" encoding="UTF-8"?>
<svg width="20px" height="20px" viewBox="0 0 20 20" version="1.1" xmlns="http://www.w3.org/2000/svg" xmlns:xlink="http://www.w3.org/1999/xlink">
    <title>AZure</title>
    <g id="AZure" stroke="none" stroke-width="1" fill="none" fill-rule="evenodd">
        <g id="Azure">
            <polygon id="Frame" points="0 0 20 0 20 20 0 20"></polygon>
            <path d="M9.25246798,16.4989836 C10.8247317,16.2305442 12.3968203,15.9611445 13.968733,15.6907846 L14.0130372,15.681634 L11.5870766,12.8875716 C10.2528694,11.3508717 9.16121755,10.0876057 9.16121755,10.080423 C9.16121755,10.066648 11.6661332,3.38724781 11.6802577,3.36342047 C11.684932,3.35556531 13.3896281,6.20531808 15.8125403,10.2716003 C18.0808958,14.0784206 19.9510215,17.2171532 19.9683977,17.2465727 L20,17.3 L12.2903552,17.2990161 L4.58060878,17.2980321 L9.25246798,16.4989836 L9.25246798,16.4989836 Z M0,15.6469013 C0,15.6429656 1.14306908,13.721648 2.5401761,11.377241 L5.0803522,7.114665 L8.04060542,4.70925445 C9.66868373,3.38626388 11.0052281,2.30207282 11.0106137,2.30005105 C11.0158977,2.2981371 10.9945585,2.35028533 10.9629562,2.41601176 C10.9314555,2.4818366 9.48496349,5.48596778 7.74856342,9.09196817 L4.59137998,15.6483772 L2.29568999,15.6512306 C1.03312147,15.6528049 0,15.6508371 0,15.6469013 Z" id="Shape" fill="#0089D6" fill-rule="nonzero"></path>
        </g>
    </g>
</svg>