<?xml version="1.0" encoding="UTF-8"?>
<svg width="20px" height="20px" viewBox="0 0 20 20" version="1.1" xmlns="http://www.w3.org/2000/svg" xmlns:xlink="http://www.w3.org/1999/xlink">
    <title>Centos</title>
    <g id="Centos" stroke="none" stroke-width="1" fill="none" fill-rule="evenodd">
        <g>
            <rect id="Frame" x="0" y="0" width="20" height="20"></rect>
            <g id="centos-symbol" transform="translate(1, 1)" fill-rule="nonzero">
                <circle id="ellipse894" fill="#A14F8C" cx="9" cy="9" r="9"></circle>
                <g id="g907" transform="translate(2.189, 2.1892)">
                    <path d="M6.81103156,0 L4.81602579,1.99495841 L1.99503666,1.99472674 L1.99480498,4.81589388 L0,6.81085229 L1.99480498,8.80560477 L1.99490795,11.6268491 L4.81602579,11.6267462 L6.81103156,13.6216994 L8.80583654,11.6267462 L11.6271809,11.6266175 L11.6270522,8.80560477 L13.6220631,6.81085229 L11.6268566,4.81608952 L8.80574387,1.99505108 L6.81103156,0 Z M7.41653061,1.99475248 L7.41653061,4.14699842 L6.81103156,4.75248669 L6.20553251,4.14699842 L6.20553251,1.99495841 L7.41653061,1.99475248 Z M3.83354878,2.97719848 L5.35543876,4.49925433 L5.35566529,5.35526691 L4.49916681,5.35549859 L2.97727684,3.83344274 L3.83354878,2.97719848 Z M1.99480498,6.20536403 L4.14710758,6.20536403 L4.75261178,6.81085229 L4.14710758,7.41633541 L1.99480498,7.41633541 L1.99480498,6.20536403 Z M9.4263692,6.20536403 L11.5786718,6.20536403 L11.5786718,7.41633541 L9.4263692,7.41633541 L8.820865,6.81085229 L9.4263692,6.20536403 Z M4.53354331,8.23202089 L5.38982041,8.23202089 L5.38982041,9.0882703 L3.86793043,10.6101254 L3.01165849,9.75387081 L4.53354331,8.23202089 Z M8.23237143,8.23190248 L9.08851466,8.23202604 L10.6104046,9.75387596 L9.75413784,10.6101202 L8.23224786,9.0882703 L8.23237143,8.23190248 Z M6.81103156,8.82063283 L7.41653061,9.42611595 L7.41653061,11.578367 L6.20553251,11.578367 L6.20553251,9.42611595 L6.81103156,8.82063283 Z" id="path896" fill="#FFFFFF"></path>
                    <polygon id="path898" fill="#EFA724" points="7.41653061 5.41955448 6.81103156 5.95460288 6.20553251 5.41937428 6.20553251 6.20536403 5.4196199 6.20536403 5.95475962 6.81084715 5.41950148 7.41633541 6.20553251 7.41633541 6.20553251 8.202181 6.81103156 7.66709141 7.41653061 8.20224793 7.41653061 7.41633541 8.20233511 7.41633541 7.66729836 6.81086774 8.2025359 6.20536403 7.41653061 6.20536403"></polygon>
                    <polygon id="path900" fill="#EFA724" points="8.80745832 1.99676549 9.78821058 2.97749193 8.2663206 4.49934185 8.26635664 5.35556552 9.1225977 5.35559126 10.6444825 3.83374649 11.6286328 4.81787085 11.6270882 1.99497901"></polygon>
                </g>
            </g>
        </g>
    </g>
</svg>