<?xml version="1.0" encoding="UTF-8"?>
<svg width="20px" height="20px" viewBox="0 0 20 20" version="1.1" xmlns="http://www.w3.org/2000/svg" xmlns:xlink="http://www.w3.org/1999/xlink">
    <title>Contour</title>
    <g id="Contour" stroke="none" stroke-width="1" fill="none" fill-rule="evenodd">
        <g>
            <polygon id="Frame" points="0 0 20 0 20 20 0 20"></polygon>
            <g id="g10" transform="translate(10, 10) scale(-1, 1) rotate(-180) translate(-10, -10)translate(1, 1)" fill-rule="nonzero">
                <g id="g12" transform="translate(0, 0)">
                    <path d="M11.7682919,17.5625143 C11.0452761,17.7966857 10.2830204,17.9430857 9.49330192,17.9859429 C8.55468085,12.8092629 5.9677772,9.18682286 3.72462148,6.91794857 C2.88308022,6.06677143 2.00223047,5.31677143 1.11709502,4.66285714 C1.33165461,4.27460571 1.57425986,3.90394286 1.84179078,3.55338857 C3.2527138,4.44636 4.54613991,5.46094286 5.55701799,6.42389143 C7.9740191,8.72624571 10.7619395,12.3850457 11.7682919,17.5625143" id="path14" fill="#239DE0"></path>
                    <path d="M14.795149,11.8434343 C15.2794338,12.7532229 15.6807473,13.6863429 16.0083467,14.6376 C15.5439475,15.2136 15.0109771,15.732 14.4205782,16.1787429 C13.184752,11.2974171 10.3029747,7.77656571 7.78726517,5.50647429 C6.37358215,4.23087429 4.79001373,3.09877714 3.14188544,2.17613143 C3.38550212,1.9668 3.63971307,1.76946857 3.90474113,1.58672571 C5.71116626,2.48244 7.61650549,3.69723429 9.42473062,5.25101143 C11.700852,7.20682286 13.5077228,9.42488571 14.795149,11.8434343" id="path16" fill="#239DE0"></path>
                    <path d="M14.0310933,16.4590286 C13.418923,16.8732 12.7527871,17.2133143 12.0461771,17.4682286 C11.0199562,12.2387314 8.20164152,8.54177143 5.75745189,6.21361714 C4.55047705,5.06396571 3.28386232,4.09714286 2.03497327,3.30756 C2.27042996,3.01988571 2.52441805,2.74848 2.79301182,2.49221143 C4.35066028,3.34968 5.96476007,4.46041714 7.48961431,5.83647429 C9.98389527,8.08728 12.8451527,11.5919829 14.0310933,16.4590286" id="path18" fill="#239DE0"></path>
                    <path d="M17.0881732,11.3638457 C17.2188015,11.5963371 17.341887,11.8305771 17.4615439,12.0656229 C17.2038872,12.7749086 16.8593165,13.4427429 16.4408601,14.0566286 C16.1290321,13.2091714 15.75669,12.3772114 15.323148,11.5623943 C14.0007505,9.07788 12.1473026,6.80177143 9.81460988,4.79732571 C8.19313868,3.40386857 6.375725,2.18142857 4.49524287,1.21352571 C4.73918526,1.07196 4.99037907,0.941314286 5.24805286,0.822514286 C7.23072337,1.73691429 9.3431822,3.00836571 11.3621441,4.66748571 C13.7862937,6.65946857 15.7128044,8.91248571 17.0881732,11.3638457" id="path20" fill="#239DE0"></path>
                    <path d="M9.35523361,17.9909143 C9.23723955,17.9957143 9.11917692,18 8.99998286,18 C4.03747802,18 4.94493357e-14,13.9625143 4.94493357e-14,9 C4.94493357e-14,7.47756 0.381427845,6.04285714 1.05160943,4.78446857 C1.92561919,5.43126857 2.7956861,6.17276571 3.62745595,7.01396571 C5.85307457,9.26537143 8.41947539,12.8578114 9.35523361,17.9909143" id="path22" fill="#239DE0"></path>
                    <path d="M11.839606,4.08636 C10.112055,2.66691429 8.18710441,1.42748571 6.20295961,0.447257143 C7.08401508,0.158365714 8.02364757,0 8.99998286,0 C13.962522,0 18,4.03748571 18,9 C18,9.70011429 17.9170287,10.3806 17.7651433,11.0350457 C17.7577719,11.0221886 17.751429,11.0089371 17.7442291,10.9958743 C16.3227461,8.46260571 14.3362356,6.13794857 11.839606,4.08636" id="path24" fill="#239DE0"></path>
                    <path d="M9.49330192,17.9859429 C9.44751343,17.9883429 9.40122781,17.9893714 9.35523361,17.9909143 C8.41947539,12.8578114 5.85307457,9.26537143 3.62745595,7.01396571 C2.7956861,6.17276571 1.92561919,5.43126857 1.05160943,4.78446857 C1.07331224,4.74375429 1.09486077,4.70317714 1.11709502,4.66285714 C2.00223047,5.31677143 2.88308022,6.06677143 3.72462148,6.91794857 C5.9677772,9.18682286 8.55468085,12.8092629 9.49330192,17.9859429" id="path26" fill="#FFFFFF"></path>
                    <path d="M12.0461771,17.4682286 C11.9544458,17.5014857 11.861566,17.5321714 11.7682919,17.5625143 C10.7619395,12.3850457 7.9740191,8.72624571 5.55701799,6.42389143 C4.54613991,5.46094286 3.2527138,4.44636 1.84179078,3.55338857 C1.9049278,3.47041714 1.96902482,3.38813143 2.03497327,3.30756 C3.28386232,4.09714286 4.55047705,5.06396571 5.75745189,6.21361714 C8.20164152,8.54177143 11.0199562,12.2387314 12.0461771,17.4682286" id="path28" fill="#FFFFFF"></path>
                    <path d="M14.4205782,16.1787429 C14.2932071,16.2752571 14.1637787,16.3693714 14.0310933,16.4590286 C12.8451527,11.5919829 9.98389527,8.08728 7.48961431,5.83647429 C5.96476007,4.46041714 4.35066028,3.34968 2.79301182,2.49221143 C2.90658304,2.38386857 3.02282853,2.27845714 3.14188544,2.17613143 C4.79001373,3.09877714 6.37358215,4.23087429 7.78726517,5.50647429 C10.3029747,7.77656571 13.184752,11.2974171 14.4205782,16.1787429" id="path30" fill="#FFFFFF"></path>
                    <path d="M15.323148,11.5623943 C15.75669,12.3772114 16.1290321,13.2091714 16.4408601,14.0566286 C16.3045747,14.2563429 16.1595464,14.4497143 16.0083467,14.6376 C15.6807473,13.6863429 15.2794338,12.7532229 14.795149,11.8434343 C13.5077228,9.42488571 11.700852,7.20682286 9.42473062,5.25101143 C7.61650549,3.69723429 5.71116626,2.48244 3.90474113,1.58672571 C4.09626077,1.45460571 4.29347182,1.33078286 4.49524287,1.21352571 C6.375725,2.18142857 8.19313868,3.40386857 9.81460988,4.79732571 C12.1473026,6.80177143 14.0007505,9.07788 15.323148,11.5623943" id="path32" fill="#FFFFFF"></path>
                    <path d="M17.0881732,11.3638457 C15.7128044,8.91248571 13.7862937,6.65946857 11.3621441,4.66748571 C9.3431822,3.00836571 7.23072337,1.73691429 5.24805286,0.822514286 C5.55742941,0.680091429 5.87597738,0.5544 6.20295961,0.447257143 C8.18710441,1.42748571 10.112055,2.66691429 11.839606,4.08636 C14.3362356,6.13794857 16.3227461,8.46260571 17.7442291,10.9958743 C17.751429,11.0089371 17.7577719,11.0221886 17.7651433,11.0350457 C17.683372,11.3866114 17.5832579,11.7311314 17.4615439,12.0656229 C17.341887,11.8305771 17.2188015,11.5963371 17.0881732,11.3638457" id="path34" fill="#FFFFFF"></path>
                </g>
            </g>
        </g>
    </g>
</svg>