<?xml version="1.0" encoding="UTF-8"?>
<svg width="20px" height="20px" viewBox="0 0 20 20" version="1.1" xmlns="http://www.w3.org/2000/svg" xmlns:xlink="http://www.w3.org/1999/xlink">
    <title>DaoCloud</title>
    <g id="DaoCloud" stroke="none" stroke-width="1" fill="none" fill-rule="evenodd">
        <g id="DaoCloud_logo_only_cube" transform="translate(0, -0)">
            <polygon id="Frame" points="0 0 20 0 20 20 0 20"></polygon>
            <path d="M12.9908953,13.0203224 L12.6494689,17.9257183 L10,20 L7.30955994,17.9257183 L7.0091047,13.0203224 L10.0273141,15.0946041 L12.9908953,13.0203224 Z M18.3854325,9.32025228 L17.8118361,13.9593553 L14.0834598,16.8465312 L14.3975721,12.0532586 L18.3854325,9.32025228 Z M1.61456753,9.32025228 L5.58877086,12.0532586 L5.8892261,16.8465312 L2.13353566,13.9733707 L1.61456753,9.32025228 Z M3.93626707,2.67694464 L8.48406677,4.98948844 L5.26100152,6.64330764 L5.47951442,10.3013315 L1.38239757,7.52627891 L1,3.99439383 L3.93626707,2.67694464 Z M16.0364188,2.67694464 L19,3.99439383 L18.5766313,7.49824807 L14.5204856,10.3013315 L14.7799697,6.64330764 L11.5295903,4.98948844 L16.0364188,2.67694464 Z M9.98634294,0 L14.3975721,1.97617379 L10,4.20462509 L5.56145675,1.96215837 L9.98634294,0 Z" id="Combined-Shape" fill="#0FD15D" fill-rule="nonzero"></path>
        </g>
    </g>
</svg>