<?xml version="1.0" encoding="UTF-8"?>
<svg width="20px" height="20px" viewBox="0 0 20 20" version="1.1" xmlns="http://www.w3.org/2000/svg" xmlns:xlink="http://www.w3.org/1999/xlink">
    <title>Docker</title>
    <g id="Docker" stroke="none" stroke-width="1" fill="none" fill-rule="evenodd">
        <g id="docker">
            <polygon id="Frame" points="0 0 20 0 20 20 0 20"></polygon>
            <path d="M15.8183045,6.65240406 L16.0725109,6.85566828 C16.7400044,7.33523098 17.1955813,8.05468537 17.343543,8.86290251 C18.1318522,8.62519606 18.9817,8.70262364 19.7140178,9.07887075 L20,9.22496692 L19.8538313,9.50445523 C19.2755117,10.6033524 18.0680313,10.9463608 16.8796163,10.8828408 C15.1446575,15.1704455 11.553992,17.4 6.88294917,17.4 C4.46798827,17.4 1.95769995,16.3074548 0.686667897,14.2239965 L0.686667897,14.1922364 L0.502368249,13.830172 C0.0873123108,12.9156639 -0.0750759316,11.9067243 0.0320863882,10.9082488 L0.0320863882,10.6033524 L13.4668952,10.6033524 C13.9482791,10.6007765 14.4263548,10.5236366 14.884096,10.3746802 C15.1243542,10.2957624 15.3563531,10.1936484 15.5768084,10.0697839 C15.3018384,9.6993936 15.1366674,9.25915613 15.1001714,8.79938244 C15.0147641,8.12319542 15.1947021,7.44022572 15.6022291,6.89378033 L15.8183045,6.65240406 Z M3.98055589,12.388605 C3.40128376,12.384066 2.92671403,12.8472395 2.91746371,13.4261682 C2.90821339,14.0050969 3.36774339,14.4831809 3.94686512,14.4971328 C4.23003391,14.5005222 4.50294987,14.3913299 4.70556431,14.193581 C4.90817875,13.9958322 5.02389138,13.7257284 5.02724237,13.4426996 C5.02707417,12.8636971 4.55982803,12.393144 3.98055589,12.388605 Z M2.9427498,8.08160565 L2.9427498,9.98720776 L1.03620171,9.98720776 L1.03620171,8.08160565 L2.9427498,8.08160565 Z M5.48481391,8.08160565 L5.48481391,9.98720776 L3.57826583,9.98720776 L3.57826583,8.08160565 L5.48481391,8.08160565 Z M8.02687803,8.08160565 L8.02687803,9.98720776 L6.12032994,9.98720776 L6.12032994,8.08160565 L8.02687803,8.08160565 Z M10.5689421,8.08160565 L10.5689421,9.98720776 L8.66239405,9.98720776 L8.66239405,8.08160565 L10.5689421,8.08160565 Z M13.1110063,8.08160565 L13.1110063,9.98720776 L11.2044582,9.98720776 L11.2044582,8.08160565 L13.1110063,8.08160565 Z M5.48481391,5.54080282 L5.48481391,7.44640494 L3.57826583,7.44640494 L3.57826583,5.54080282 L5.48481391,5.54080282 Z M8.02687803,5.54080282 L8.02687803,7.44640494 L6.12032994,7.44640494 L6.12032994,5.54080282 L8.02687803,5.54080282 Z M10.5689421,5.54080282 L10.5689421,7.44640494 L8.66239405,7.44640494 L8.66239405,5.54080282 L10.5689421,5.54080282 Z M8.66239405,3 L10.5689421,3 L10.5689421,4.90560212 L8.66239405,4.90560212 Z" id="Combined-Shape" fill="#2496ED" fill-rule="nonzero"></path>
        </g>
    </g>
</svg>