<?xml version="1.0" encoding="UTF-8"?>
<svg width="20px" height="20px" viewBox="0 0 20 20" version="1.1" xmlns="http://www.w3.org/2000/svg" xmlns:xlink="http://www.w3.org/1999/xlink">
    <title>Dubbo</title>
    <defs>
        <linearGradient x1="0%" y1="50%" x2="100%" y2="50%" id="linearGradient-1">
            <stop stop-color="#8953FF" offset="0%"></stop>
            <stop stop-color="#716BFA" offset="100%"></stop>
        </linearGradient>
    </defs>
    <g id="Dubbo" stroke="none" stroke-width="1" fill="none" fill-rule="evenodd">
        <g>
            <polygon id="Frame" points="0 0 20 0 20 20 0 20"></polygon>
            <path d="M2.7,1.00045938 L3.20325422,1.00045938 C5.5675358,1.00045938 7.93181737,1.02140916 10.2960989,1.00045938 C13.4541036,0.969034729 15.6393753,2.55074242 16.8046284,5.46625219 C18.0203871,8.41519723 17.9971458,11.7536015 16.740455,14.6841513 C15.7812322,16.9746596 14.0857046,18.493518 11.6268517,18.9264799 C11.3333319,18.9771797 11.0361405,19.0017113 10.7385574,18.9999073 L3.04113206,18.9999073 C2.93642816,18.9999073 2.82834671,18.9999073 2.70337755,18.9753627 L2.7,1.00045938 Z M10.711537,3.82867844 C9.88741599,3.82867844 9.10382552,3.78328727 8.32699015,3.82867844 C7.342622,3.88325085 6.5829947,4.74473206 6.62132987,5.76304061 C6.60781969,8.58194866 6.60781969,11.4008567 6.62132987,14.2197648 C6.60986311,14.7443191 6.80803006,15.2505705 7.16914858,15.6192614 C7.53026709,15.9879522 8.02240984,16.1864857 8.52964286,16.1680934 C9.11058061,16.1680934 9.69151837,16.1471437 10.2690786,16.1680934 C10.6473636,16.1890432 10.7554451,16.0633446 10.7419349,15.6792654 C10.7149145,14.8761909 10.7419349,14.8761909 9.98198725,14.8692076 C9.2220396,14.8622244 8.88766264,14.5200448 8.88428509,13.7483949 C8.88428509,11.2390779 8.88428509,8.72743318 8.88428509,6.21346068 C8.88428509,5.44879405 9.2220396,5.09264794 9.98198725,5.07169817 L10.711537,5.07169817 L10.711537,3.82867844 Z" id="Shape" fill="url(#linearGradient-1)" fill-rule="nonzero"></path>
        </g>
    </g>
</svg>