<?xml version="1.0" encoding="UTF-8"?>
<svg width="20px" height="20px" viewBox="0 0 20 20" version="1.1" xmlns="http://www.w3.org/2000/svg" xmlns:xlink="http://www.w3.org/1999/xlink">
    <title>Eureka</title>
    <g id="Eureka" stroke="none" stroke-width="1" fill="none" fill-rule="evenodd">
        <g>
            <polygon id="Frame" points="0 0 20 0 20 20 0 20"></polygon>
            <path d="M9.99998645,1.00000749 C12.475541,0.9968111 14.8424668,2.01634787 16.5408338,3.81743936 C16.7088335,3.5337255 16.8545476,3.2302974 16.977976,2.9088693 C17.2496899,3.73601092 17.4751181,4.52029546 17.6542607,5.26343719 C18.5366875,6.68549533 19.0028894,8.32640717 18.9999865,10.0000075 C18.9999865,14.9705654 14.9714076,18.999988 9.99998645,18.999988 C5.03027963,18.999988 1,14.9705655 1,10.0000075 C1,5.02943752 5.03027966,1.00000749 9.99998645,1.00000749 L9.99998645,1.00000749 Z M9.99998645,2.17772208 C6.89212501,2.17813034 4.07929324,4.01834959 2.83406209,6.86584012 C1.58883094,9.71333064 2.14742922,13.0279041 4.25713796,15.3099935 C4.3608521,14.9928511 4.53142326,14.7331372 4.91113698,14.6534231 C5.37999341,14.5539946 5.88999266,15.1231367 5.76570712,15.5397074 C5.68342152,15.815707 5.41342192,16.0171353 5.15456518,16.1414208 C7.15986629,17.7228163 9.81065183,18.2262548 12.2560944,17.4901468 C14.7015369,16.7540387 16.6339629,14.8709975 17.4331182,12.4454264 C17.2994041,12.685426 17.14769,12.9082828 16.9788331,13.1157111 C14.5856938,16.0359924 10.8168424,15.1702794 7.2871334,15.2602793 C12.8191251,13.3891393 15.7745492,10.8948573 16.1525486,7.77829055 C15.0982645,9.6185735 13.6274096,11.1099998 11.7391267,12.2525695 C9.89511332,13.3800763 7.81749646,14.0705628 5.66542155,14.2711379 C3.98199551,12.618569 3.7402816,10.9154287 4.94027979,9.16085991 C6.74113423,6.52943531 10.6368427,7.381434 13.3308386,6.38372123 C14.3482656,6.00657892 15.179693,5.47172259 15.8251206,4.77915221 C14.3432164,3.12151042 12.2243115,2.17509739 10.0008436,2.17772208 L9.99998645,2.17772208 Z" id="shape" fill="#4ABC99" fill-rule="nonzero"></path>
        </g>
    </g>
</svg>