<?xml version="1.0" encoding="UTF-8"?>
<svg width="20px" height="20px" viewBox="0 0 20 20" version="1.1" xmlns="http://www.w3.org/2000/svg" xmlns:xlink="http://www.w3.org/1999/xlink">
    <title>Fluentbit</title>
    <defs>
        <linearGradient x1="92.5300024%" y1="50%" x2="22.3498419%" y2="46.7832427%" id="linearGradient-1">
            <stop stop-color="#2CB4DE" offset="0%"></stop>
            <stop stop-color="#4A66AF" offset="100%"></stop>
        </linearGradient>
        <linearGradient x1="7.755577%" y1="56.8759772%" x2="87.87997%" y2="46.3477397%" id="linearGradient-2">
            <stop stop-color="#B4CA64" offset="0%"></stop>
            <stop stop-color="#2594C5" offset="100%"></stop>
        </linearGradient>
        <linearGradient x1="17.1279575%" y1="21.6056667%" x2="88.081505%" y2="78.3943333%" id="linearGradient-3">
            <stop stop-color="#1D6BCD" offset="0%"></stop>
            <stop stop-color="#2DBCE6" offset="100%"></stop>
        </linearGradient>
        <linearGradient x1="13.3818009%" y1="14.2073854%" x2="86.3997607%" y2="85.576185%" id="linearGradient-4">
            <stop stop-color="#3A6CBA" offset="0%"></stop>
            <stop stop-color="#1B80AB" offset="100%"></stop>
        </linearGradient>
        <linearGradient x1="94.0504109%" y1="75.876323%" x2="3.49230903%" y2="21.5381403%" id="linearGradient-5">
            <stop stop-color="#358FC9" offset="0%"></stop>
            <stop stop-color="#3C68B1" offset="100%"></stop>
        </linearGradient>
    </defs>
    <g id="Fluentbit" stroke="none" stroke-width="1" fill="none" fill-rule="evenodd">
        <g transform="translate(-0, 0)">
            <polygon id="Frame" points="0 0 20 0 20 20 0 20"></polygon>
            <g transform="translate(0.354, 15.6)" fill="#333333" fill-rule="nonzero">
                <polygon id="Path" points="0.659179688 3.57177734 0.659179688 2.24609375 1.99707031 2.24609375 1.99707031 1.71386719 0.659179688 1.71386719 0.659179688 0.783691406 2.12402344 0.783691406 2.12402344 0.239257812 0 0.239257812 0 3.57177734"></polygon>
                <polygon id="Path" points="2.49277344 3.57177734 3.13730469 3.57177734 3.13730469 0.0634765625 2.49277344 0.0634765625"></polygon>
                <path d="M5.95478516,0.981445312 L5.31025391,0.981445312 L5.31025391,2.51464844 C5.31025391,2.87841797 5.09052734,3.06640625 4.80244141,3.06640625 C4.54853516,3.06640625 4.30683594,2.94921875 4.30683594,2.52197266 L4.30683594,0.981445312 L3.66474609,0.981445312 L3.66474609,2.69287109 C3.66474609,3.30322266 4.02119141,3.61083984 4.55097656,3.61083984 C4.97822266,3.61083984 5.21748047,3.39599609 5.29804687,3.19335938 L5.32734375,3.19335938 L5.32734375,3.57177734 L5.95478516,3.57177734 L5.95478516,0.981445312 Z" id="Path"></path>
                <path d="M7.56132813,3.61816406 C8.2546875,3.61816406 8.59160156,3.20556641 8.65263672,2.79052734 L8.05693359,2.79052734 C8.00322266,3.00048828 7.82255859,3.12744141 7.56621094,3.12744141 C7.2390625,3.12744141 7.01689453,2.87841797 7.01689453,2.48535156 L7.01689453,2.41455078 L8.67705078,2.41455078 L8.67705078,2.16064453 C8.67705078,1.41601562 8.24003906,0.935058594 7.53447266,0.935058594 C6.85332031,0.935058594 6.38701172,1.38427734 6.38701172,2.14355469 L6.38701172,2.38037109 C6.38701172,3.17382812 6.85087891,3.61816406 7.56132813,3.61816406 Z M7.01689453,2.00683594 L7.01689453,2.00195312 C7.01689453,1.66992188 7.22441406,1.41357422 7.53935547,1.41357422 C7.85185547,1.41357422 8.05449219,1.66748047 8.05449219,2.00195312 L8.05449219,2.00683594 L7.01689453,2.00683594 Z" id="Shape"></path>
                <path d="M9.10439453,3.57177734 L9.74404297,3.57177734 L9.74404297,2.05322266 C9.74404297,1.72607422 9.92470703,1.48681641 10.2567383,1.48681641 C10.5326172,1.48681641 10.7621094,1.64550781 10.7621094,2.04345703 L10.7621094,3.57177734 L11.4041992,3.57177734 L11.4041992,1.90429688 C11.4041992,1.26953125 11.0355469,0.939941406 10.5082031,0.939941406 C10.0760742,0.939941406 9.83925781,1.18164062 9.75625,1.35986328 L9.72939453,1.35986328 L9.72939453,0.981445312 L9.10439453,0.981445312 L9.10439453,3.57177734 Z" id="Path"></path>
                <path d="M12.1049805,0.981445312 L11.7265625,0.981445312 L11.7265625,1.47949219 L12.0927734,1.47949219 L12.0927734,2.83935547 C12.0927734,3.36914062 12.3051758,3.58642578 12.949707,3.58642578 C13.0791016,3.58642578 13.1938477,3.57421875 13.2426758,3.56445312 L13.2426758,3.08837891 C13.2133789,3.09082031 13.159668,3.09326172 13.105957,3.09326172 C12.8398438,3.09326172 12.7299805,3.01513672 12.7299805,2.75634766 L12.7299805,1.47949219 L13.2329102,1.47949219 L13.2329102,0.981445312 L12.7299805,0.981445312 L12.7299805,0.361328125 L12.1049805,0.361328125 L12.1049805,0.981445312 Z" id="Path"></path>
                <path d="M15.1080078,3.60595703 C15.7085937,3.60595703 16.0967773,3.16162109 16.0967773,2.38769531 L16.0967773,2.16064453 C16.0967773,1.36962891 15.6988281,0.947265625 15.1104492,0.947265625 C14.7686523,0.947265625 14.4805664,1.11572266 14.3658203,1.35742188 L14.3389648,1.35742188 L14.3389648,0.0634765625 L13.6944336,0.0634765625 L13.6944336,3.57177734 L14.3291992,3.57177734 L14.3291992,3.17138672 L14.3536133,3.17138672 C14.4830078,3.4375 14.7417969,3.60595703 15.1080078,3.60595703 Z M14.9053711,3.09326172 C14.55625,3.09326172 14.334082,2.84179688 14.334082,2.36328125 L14.334082,2.1875 C14.334082,1.70898438 14.5586914,1.46240234 14.9053711,1.46240234 C15.2203125,1.46240234 15.4375977,1.71142578 15.4375977,2.1875 L15.4375977,2.36572266 C15.4375977,2.83935547 15.2203125,3.09326172 14.9053711,3.09326172 Z" id="Shape"></path>
                <path d="M16.5143555,0.339355469 C16.5143555,0.539550781 16.6803711,0.676269531 16.878125,0.676269531 C17.0783203,0.676269531 17.2418945,0.539550781 17.2418945,0.339355469 C17.2418945,0.139160156 17.0783203,0 16.878125,0 C16.6803711,0 16.5143555,0.139160156 16.5143555,0.339355469 Z M16.5583008,3.57177734 L17.2003906,3.57177734 L17.2003906,0.981445312 L16.5583008,0.981445312 L16.5583008,3.57177734 Z" id="Shape"></path>
                <path d="M17.9451172,0.981445312 L17.5666992,0.981445312 L17.5666992,1.47949219 L17.9329102,1.47949219 L17.9329102,2.83935547 C17.9329102,3.36914062 18.1453125,3.58642578 18.7898438,3.58642578 C18.9192383,3.58642578 19.0339844,3.57421875 19.0828125,3.56445312 L19.0828125,3.08837891 C19.0535156,3.09082031 18.9998047,3.09326172 18.9460938,3.09326172 C18.6799805,3.09326172 18.5701172,3.01513672 18.5701172,2.75634766 L18.5701172,1.47949219 L19.0730469,1.47949219 L19.0730469,0.981445312 L18.5701172,0.981445312 L18.5701172,0.361328125 L17.9451172,0.361328125 L17.9451172,0.981445312 Z" id="Path"></path>
            </g>
            <g id="fluentbit-separately" transform="translate(0, 0.7)">
                <path d="M19.4912667,3.03313467 C19.643065,3.03352596 19.7946753,3.04376995 19.945129,3.06380117 C19.9669628,3.06847608 19.9847104,3.08421808 19.9918501,3.10524238 C20.0088503,3.14318965 19.9986612,3.1877271 19.9668209,3.21464718 C19.5321477,3.25525957 17.6908352,3.49976272 16.4727491,3.90422896 C15.6501237,4.17939861 15.2554972,4.63442312 15.2012673,4.68829669 C15.1862498,4.71564789 15.0285661,4.87229568 14.7507423,5.25189718 L14.5938064,5.51837205 C13.7296063,6.70005745 12.8794662,7.29090015 12.0433861,7.29090015 C11.1983834,7.29090015 10.3991301,6.92259414 9.64562635,6.18598211 L9.83254739,6.10110387 C10.6885232,5.64806044 11.3140151,4.43489749 11.6262678,4.02026435 C11.880761,3.66031062 12.234087,3.38065772 12.6441207,3.21464718 L12.7834497,3.16491773 C12.9610537,3.10647683 13.145088,3.06946657 13.3315885,3.0546841 C13.7426045,3.03201025 14.1546321,3.07453706 14.5521776,3.18066539 C14.6882108,3.21518789 14.8229051,3.25472248 14.9559815,3.29918726 C15.0840774,3.33906426 15.2134655,3.37472318 15.3439336,3.40610559 C15.4733948,3.4382411 15.6054423,3.45904131 15.7385601,3.4682674 C15.8987678,3.47114163 16.0589412,3.46088469 16.2174515,3.43760091 L16.2366406,3.43760091 L16.2808588,3.42765502 C16.5762568,3.36593245 16.8727626,3.30956304 17.1702285,3.25857487 C17.5525473,3.18770723 17.9374402,3.13130644 18.3240732,3.08949472 C18.7111403,3.04137926 19.101327,3.02253839 19.4912667,3.03313467 Z M13.9573177,3.90257131 C13.8176187,3.90882877 13.69795,4.00393472 13.6611392,4.13795739 C13.6170518,4.30512995 13.714571,4.47686906 13.8813959,4.52584714 C14.0510188,4.57224097 14.2267276,4.47481527 14.2760224,4.30703754 C14.3224144,4.1372893 14.2221655,3.96217335 14.0515942,3.91500367 C14.0209612,3.90624727 13.9891894,3.90205748 13.9573177,3.90257131 Z" id="head" fill="url(#linearGradient-1)" fill-rule="nonzero"></path>
                <path d="M12.4785814,9.04818077 C11.7585599,10.1207517 10.3487274,11.8745523 8.15055072,12.9027738 C4.78829917,14.4665441 1.68485662,13.9504113 0.917045305,13.7849755 L0.817627646,13.7626185 C0.764007373,13.7499955 0.736076881,13.7423728 0.736076881,13.7423728 C0.736076881,13.7423728 2.07096584,13.4033836 3.6611523,12.3010474 C4.7641043,11.5799703 5.84286144,10.5903541 6.78312385,9.23108239 L6.78207688,9.23118077 L6.8048158,9.21533472 C7.66459708,9.76323673 8.65825929,10.0371877 9.78580242,10.0371877 C10.8266115,10.0371877 11.6741797,9.75383023 12.328507,9.18711525 Z" id="tail" fill="url(#linearGradient-2)" fill-rule="nonzero"></path>
                <path d="M14.59404,5.52199083 C13.6934186,6.72965986 12.8148788,7.31419642 11.9584204,7.27560052 C10.8124793,7.22395922 10.1066786,6.60697663 9.64562635,6.18598211 C8.87216881,6.40644549 8.31064201,6.49621193 7.49719609,6.40644549 C7.52892237,7.48217525 7.29812893,8.41847166 6.8048158,9.21533472 C7.61138759,9.77432231 8.59917685,10.0538161 9.76818358,10.0538161 C10.9371903,10.0538161 11.8400523,9.71950381 12.4767695,9.05087921 L12.841493,8.4947253 L14.59404,5.52199083 Z" id="body" fill="#00B7BC"></path>
                <path d="M6.72648035,4.56888196 C7.04682272,5.11072287 7.30372796,5.72324405 7.49719609,6.40644549 C8.18604258,6.49908593 8.902186,6.42559813 9.64562635,6.18598211 C6.91405534,3.42244174 3.90056356,1.44736525 1.84015048,0.563120346 C4.76312774,2.03307146 6.2459668,3.75612058 6.72648035,4.56888196 Z" id="wing-upside" fill="url(#linearGradient-3)"></path>
                <path d="M0.213031833,1.06855252 C0.263860603,1.15709244 0.302863476,1.2232859 0.330040451,1.26713288 C0.391536221,1.36634938 0.460543354,1.46790849 0.491359858,1.51253034 C0.599714255,1.66942592 0.70048786,1.79746435 0.766755953,1.8847977 C1.02818079,2.2293241 1.85252187,3.09926971 2.06264448,3.34035512 C2.67731531,4.01940332 4.29685633,5.1294288 4.76640752,5.38986813 C5.33350694,5.70441315 6.62925907,6.29349162 7.49719609,6.40644549 C7.58841847,7.47654335 7.34785094,8.33726424 6.8048158,9.21533472 C5.50420521,8.45767127 4.28713047,7.33941182 3.15359159,5.86055638 C2.57443575,5.1850413 2.02050245,4.41828784 1.49179168,3.560296 C0.963080911,2.70230417 0.536827628,1.871723 0.213031833,1.06855252 Z" id="wing-downside" fill="url(#linearGradient-4)"></path>
                <path d="M5.9453148,6.00941039 C6.34689414,6.18935105 6.86418791,6.32169609 7.49719609,6.40644549 C7.39347152,5.90488535 7.20965151,5.38061698 6.94573608,4.83364037 C6.48595421,3.8807218 4.76286856,2.073985 2.05993694,0.673128264 C-0.265120176,-0.547831311 -0.114999436,0.121016502 0.133429416,0.881581116 C0.330496893,1.48490294 1.94126128,3.4464463 3.35112682,4.51945597 C4.47614654,5.37567737 5.67797449,5.88961988 5.9453148,6.00941039 Z" id="wing-mid" fill="url(#linearGradient-5)"></path>
            </g>
        </g>
    </g>
</svg>