<?xml version="1.0" encoding="UTF-8"?>
<svg width="20px" height="20px" viewBox="0 0 20 20" version="1.1" xmlns="http://www.w3.org/2000/svg" xmlns:xlink="http://www.w3.org/1999/xlink">
    <title>Icon / Logo 20*20 / Git</title>
    <g id="Icon-/-Logo-20*20-/-Git" stroke="none" stroke-width="1" fill="none" fill-rule="evenodd">
        <rect id="Frame" x="0" y="0" width="20" height="20"></rect>
        <g id="Git_icon" fill="#F05133" fill-rule="nonzero">
            <path d="M19.6227493,9.10911831 L10.8906446,0.377258901 C10.3878614,-0.125752967 9.57230774,-0.125752967 9.06908917,0.377258901 L7.25602224,2.19080061 L9.55598361,4.49081203 C10.0905445,4.31015438 10.7034613,4.4313909 11.1294123,4.85756885 C11.5579752,5.28635871 11.6781208,5.90451263 11.4928963,6.44104411 L13.7099311,8.65790949 C14.2464509,8.47289863 14.8650266,8.59261154 15.2933719,9.02161906 C15.8919234,9.6201836 15.8919234,10.5900758 15.2933719,11.1890757 C14.694385,11.7878578 13.7245139,11.7878578 13.1253095,11.1890757 C12.6751987,10.7385198 12.5637593,10.0768339 12.7920795,9.52223667 L10.7243561,7.45468594 L10.7243561,12.8955287 C10.8701851,12.9677918 11.0079607,13.0639974 11.1294123,13.1854516 C11.7279638,13.7840162 11.7279638,14.7539084 11.1294123,15.3531259 C10.5308608,15.9514727 9.56033671,15.9514727 8.96222052,15.3531259 C8.36366901,14.7536907 8.36366901,13.7837985 8.96222052,13.1854516 C9.11022598,13.0376606 9.28152054,12.9257834 9.46435082,12.8509085 L9.46435082,7.35935094 C9.28152054,7.28447596 9.11066129,7.1736871 8.96222052,7.02480778 C8.50884496,6.57164001 8.39979976,5.90603625 8.6322554,5.34926241 L6.36494229,3.08146463 L0.37725069,9.06863359 C-0.12575023,9.57208077 -0.12575023,10.3876522 0.37725069,10.890664 L9.10979067,19.6227411 C9.61257393,20.125753 10.4279099,20.125753 10.9313461,19.6227411 L19.6227493,10.9311488 C20.1257502,10.4281369 20.1257502,9.61213018 19.6227493,9.10911831 Z" id="Path"></path>
        </g>
    </g>
</svg>