<?xml version="1.0" encoding="UTF-8"?>
<svg width="20px" height="20px" viewBox="0 0 20 20" version="1.1" xmlns="http://www.w3.org/2000/svg" xmlns:xlink="http://www.w3.org/1999/xlink">
    <title>GitLab</title>
    <g id="GitLab" stroke="none" stroke-width="1" fill="none" fill-rule="evenodd">
        <g>
            <polygon id="Frame" points="0 0 20 0 20 20 0 20"></polygon>
            <g id="gitlab" transform="translate(1, 1.71)" fill-rule="nonzero">
                <path d="M17.9661024,9.48030567 L16.9589712,6.38066747 L14.9628829,0.23713652 C14.8602169,-0.0789435689 14.4130302,-0.0789435689 14.3103206,0.23713652 L12.3141011,6.38062379 L5.68559368,6.38062379 L3.68941795,0.237092833 C3.58675199,-0.0789872565 3.13956529,-0.0789872565 3.03681196,0.237092833 L1.0407236,6.38062379 L0.0336360769,9.48034935 C-0.0582311575,9.763059 0.0423899743,10.072771 0.282874074,10.2475043 L8.99965082,16.580727 L17.7165149,10.247548 C17.9569717,10.0727975 18.0576281,9.76305208 17.9657529,9.48034935" id="路径" fill="#FC6D26"></path>
                <polygon id="路径" fill="#E24329" points="9.00000032 16.5808581 12.3142322 6.3805801 5.68572475 6.3805801"></polygon>
                <polygon id="路径" fill="#FC6D26" points="9.00004401 16.5808581 5.68581212 6.38088591 1.0410731 6.38088591"></polygon>
                <path d="M1.04085466,6.38075485 L0.0336797646,9.48048042 C-0.0581927061,9.76319953 0.0424495511,10.0729223 0.282961449,10.2476354 L8.99978189,16.5808581 L1.04085466,6.38075485 Z" id="路径" fill="#FCA326"></path>
                <path d="M1.04089835,6.38062379 L5.68563737,6.38062379 L3.68946164,0.237092833 C3.58679568,-0.0790309442 3.13956529,-0.0790309442 3.03689933,0.237092833 L1.04089835,6.38062379 Z" id="路径" fill="#E24329"></path>
                <polygon id="路径" fill="#FC6D26" points="9.00000032 16.5808581 12.3142322 6.3809296 16.9589712 6.3809296"></polygon>
                <path d="M16.9591897,6.38075485 L17.9663646,9.48048042 C18.058237,9.76319953 17.9575948,10.0729223 17.7170829,10.2476354 L9.00026245,16.5808581 L16.9591897,6.38075485 Z" id="路径" fill="#FCA326"></path>
                <path d="M16.9587965,6.38062379 L12.3141011,6.38062379 L14.3102769,0.237092833 C14.4129865,-0.0790309442 14.8601732,-0.0790309442 14.9628392,0.237092833 L16.9587965,6.38062379 Z" id="路径" fill="#E24329"></path>
            </g>
        </g>
    </g>
</svg>