<?xml version="1.0" encoding="UTF-8"?>
<svg width="20px" height="20px" viewBox="0 0 20 20" version="1.1" xmlns="http://www.w3.org/2000/svg" xmlns:xlink="http://www.w3.org/1999/xlink">
    <title>Google Cloud</title>
    <g id="Google-Cloud" stroke="none" stroke-width="1" fill="none" fill-rule="evenodd">
        <g id="google-cloud" transform="translate(0, 0)">
            <polygon id="Frame" points="0 0 20 0 20 20 0 20"></polygon>
            <g transform="translate(0, 2)" fill-rule="nonzero" id="Path">
                <path d="M12.6908499,4.40588457 L13.3007169,4.40588457 L15.0392735,2.6777944 L15.1245905,1.944047 C11.8891092,-0.894746464 6.95122664,-0.588721848 4.09519699,2.62750198 C3.30200946,3.52093869 2.72618108,4.58376053 2.41224558,5.73377045 C2.60589488,5.65492771 2.82038325,5.64216254 3.02211261,5.69747451 L6.49922579,5.1274147 C6.49922579,5.1274147 6.67606456,4.83633547 6.76770571,4.85460206 C8.31426933,3.16612903 10.9174506,2.96922947 12.7029016,4.40576595 L12.6908499,4.40576595 L12.6908499,4.40588457 Z" fill="#EA4335"></path>
                <path d="M17.5160902,5.73377045 C17.1164561,4.27104369 16.2960497,2.95605703 15.1554955,1.95009633 L12.7154307,4.37551933 C13.7457525,5.21236719 14.3326204,6.47303745 14.3074569,7.79540373 L14.3074569,8.22597325 C15.5070252,8.22597325 16.4790418,9.19244169 16.4790418,10.3847515 C16.4790418,11.5770614 15.5070252,12.5434112 14.3074569,12.5434112 L9.96440653,12.5434112 L9.53113962,12.9800301 L9.53113962,15.5693779 L9.96440653,15.9998288 L14.3074569,15.9998288 C17.4271935,16.0237889 19.9756048,13.5296882 19.9998277,10.4285202 C20.0145715,8.54900704 19.0822925,6.78681743 17.5160902,5.73377045 L17.5160902,5.73377045 Z" fill="#4285F4"></path>
                <path d="M5.6147933,15.9755129 L9.95808234,15.9755129 L9.95808234,12.5192139 L5.6147933,12.5192139 C5.30550444,12.5192139 4.99979531,12.4529086 4.71807039,12.3251611 L4.10832268,12.5131646 L2.35747567,14.2411362 L2.20497908,14.8477292 C3.18674806,15.5845553 4.38464034,15.9807539 5.6147933,15.9755129 L5.6147933,15.9755129 Z" fill="#34A853"></path>
                <path d="M5.6147933,4.76358887 C2.49529536,4.78212878 -0.0185118912,7.31110198 0.000102716077,10.4121514 C0.0104034327,12.1437417 0.824032625,13.7737017 2.20497908,14.8292253 L4.72415594,12.3250425 C3.6312637,11.8340984 3.14561337,10.555556 3.63949709,9.46881276 C4.1333808,8.38242537 5.41945925,7.8996656 6.51259013,8.39049113 C6.99416813,8.6067372 7.3798938,8.99012487 7.59748762,9.46881276 L10.1165452,6.96462993 C9.04464435,5.57170307 7.37901577,4.75734083 5.6147933,4.76358887 L5.6147933,4.76358887 Z" fill="#FBBC05"></path>
            </g>
        </g>
    </g>
</svg>