<?xml version="1.0" encoding="UTF-8"?>
<svg width="20px" height="20px" viewBox="0 0 20 20" version="1.1" xmlns="http://www.w3.org/2000/svg" xmlns:xlink="http://www.w3.org/1999/xlink">
    <title>Harbor</title>
    <defs>
        <polygon id="path-1" points="3.98605937 1.65297886 0.210203639 0 0 2.36043829 4.15220934 3.67105225 3.98605937 1.65297886"></polygon>
        <linearGradient x1="0.00533011908%" y1="50.0197283%" x2="100.000701%" y2="50.0197283%" id="linearGradient-3">
            <stop stop-color="#60B932" offset="0%"></stop>
            <stop stop-color="#60B932" offset="28.2%"></stop>
            <stop stop-color="#367C34" offset="100%"></stop>
        </linearGradient>
        <path d="M0.796650891,2.43819105 L2.91705672,2.43819105 L2.91705672,4.23536094 L2.41382195,4.23536094 L2.41382195,3.46768986 C2.41581247,3.26868622 2.31008718,3.08394723 2.13693415,2.98387018 C1.96378111,2.88379312 1.7498715,2.88379312 1.57671847,2.98387018 C1.40356543,3.08394723 1.29784015,3.26868622 1.29983066,3.46768986 L1.29983066,4.23536094 L0.796595892,4.23536094 L0.796650891,2.43819105 Z M0.372998712,6.37434935 L3.51890351,7.75162228 L3.30199007,5.11602445 L3.71370761,5.11602445 L3.71370761,4.23536094 L3.40824686,4.23536094 L3.40824686,2.43819105 L3.71370761,2.43819105 L3.71370761,1.92158393 L2.01700896,0.272211211 L2.01700896,0.156159014 C2.01539136,0.0694506084 1.94417572,0 1.8568813,0 C1.76958689,0 1.69837125,0.0694506084 1.69675365,0.156159014 L1.69675365,0.272211211 L0,1.92163857 L0,2.43824568 L0.305515754,2.43824568 L0.305515754,4.23541557 L0,4.23541557 L0,5.11607909 L0.48508532,5.11607909 L0.372998712,6.37434935 Z" id="path-4"></path>
        <linearGradient x1="0.00541318642%" y1="49.9721426%" x2="99.9993691%" y2="49.9721426%" id="linearGradient-6">
            <stop stop-color="#60B932" offset="0%"></stop>
            <stop stop-color="#60B932" offset="28.2%"></stop>
            <stop stop-color="#367C34" offset="100%"></stop>
        </linearGradient>
        <polygon id="path-7" points="7.81573356e-16 0.594139164 3.51373366 2.13254107 3.46099026 1.49190453 0.0528534005 0 0 0.594139164"></polygon>
        <linearGradient x1="0.00933298898%" y1="49.9775951%" x2="100.003753%" y2="49.9775951%" id="linearGradient-9">
            <stop stop-color="#60B932" offset="0%"></stop>
            <stop stop-color="#60B932" offset="28.2%"></stop>
            <stop stop-color="#367C34" offset="100%"></stop>
        </linearGradient>
        <polygon id="path-10" points="0 0.594084525 3.6975381 2.21296895 3.64495969 1.57255097 0.0529633972 0"></polygon>
        <linearGradient x1="0.0149588428%" y1="49.9642463%" x2="100.011732%" y2="49.9642463%" id="linearGradient-12">
            <stop stop-color="#60B932" offset="0%"></stop>
            <stop stop-color="#60B932" offset="28.2%"></stop>
            <stop stop-color="#367C34" offset="100%"></stop>
        </linearGradient>
        <polygon id="path-13" points="0.0529633972 0 0 0.594303079 3.32981923 2.05189463 3.27713082 1.41147664"></polygon>
        <linearGradient x1="0.0107536833%" y1="49.9733256%" x2="100.005864%" y2="49.9733256%" id="linearGradient-15">
            <stop stop-color="#60B932" offset="0%"></stop>
            <stop stop-color="#60B932" offset="28.2%"></stop>
            <stop stop-color="#367C34" offset="100%"></stop>
        </linearGradient>
        <path d="M7.66874792,1.72400892 C7.18565609,1.14989442 6.63651146,0.633994906 6.03254744,0.186863706 C5.94580269,0.123151983 5.85801358,0.0608557294 5.76921541,0 L4.52856295,1.2818741 L0,5.96067903 L6.23571129,2.75465515 L7.8345129,1.93278267 C7.77918458,1.86317321 7.72583619,1.79197923 7.66874792,1.72400892 Z" id="path-16"></path>
        <linearGradient x1="0.637976633%" y1="78.5522624%" x2="93.1397636%" y2="26.7729117%" id="linearGradient-18">
            <stop stop-color="#4596D8" offset="0%"></stop>
            <stop stop-color="#4596D8" offset="20%"></stop>
            <stop stop-color="#FFFFFF" offset="100%"></stop>
        </linearGradient>
        <path d="M9.89409057,1.02835141 C9.8931556,0.919620771 9.8866108,0.812420014 9.88204594,0.704618232 L8.11032956,0.578293996 L0,0 L7.95660921,2.74236148 L9.62910859,3.31885241 C9.63405844,3.29918254 9.63966827,3.27984051 9.64439813,3.25995209 C9.8109963,2.55301714 9.89536593,1.82942088 9.89585052,1.10337008 C9.89585052,1.07823637 9.89420057,1.05348512 9.89403558,1.02835141 L9.89409057,1.02835141 Z" id="path-19"></path>
        <linearGradient x1="-0.563058787%" y1="44.8916609%" x2="104.579729%" y2="52.0412684%" id="linearGradient-21">
            <stop stop-color="#4194D7" offset="0%"></stop>
            <stop stop-color="#4194D7" offset="20%"></stop>
            <stop stop-color="#FFFFFF" offset="100%"></stop>
        </linearGradient>
        <path d="M9.51014719,2.05987185 C9.338166,1.3461785 9.08289547,0.654874343 8.74952021,0 L7.04792671,0.543106795 L0,2.79322994 L7.80866369,2.52910738 L9.59621959,2.46862255 C9.56965539,2.33169844 9.54254121,2.19488361 9.51020219,2.05981721 L9.51014719,2.05987185 Z" id="path-22"></path>
        <linearGradient x1="0.355048068%" y1="54.4301688%" x2="100.20572%" y2="49.2219104%" id="linearGradient-24">
            <stop stop-color="#4194D7" offset="0%"></stop>
            <stop stop-color="#4496D8" offset="33.3%"></stop>
            <stop stop-color="#FFFFFF" offset="100%"></stop>
        </linearGradient>
    </defs>
    <g id="Harbor" stroke="none" stroke-width="1" fill="none" fill-rule="evenodd">
        <g>
            <polygon id="Frame" points="0 0 20 0 20 20 0 20"></polygon>
            <g id="harbor" transform="translate(0.5, 0.5)">
                <path d="M1.25027716,9.50000217 C1.25027716,5.00776611 4.91593112,1.36607638 9.43775105,1.36607638 C13.959571,1.36607638 17.6252616,5.00772969 17.6252616,9.49996574 C17.6252616,13.9922018 13.9596443,17.633928 9.43782438,17.633928 C7.26635691,17.633928 5.18382209,16.7769841 3.64835756,15.2515756 C2.11289302,13.726167 1.25027716,11.6572629 1.25027716,9.50000217" id="path14" fill="#FFFFFF" fill-rule="nonzero"></path>
                <g id="g30-Clipped" transform="translate(5.1572, 14.5969)">
                    <mask id="mask-2" fill="white">
                        <use xlink:href="#path-1"></use>
                    </mask>
                    <g id="Path"></g>
                    <g id="g30" mask="url(#mask-2)" fill="url(#linearGradient-3)" fill-rule="nonzero">
                        <g id="g32">
                            <polyline id="path46" points="3.98605937 1.65297886 0.210203639 0 0 2.36043829 4.15220934 3.67105225 3.98611437 1.65297886"></polyline>
                        </g>
                    </g>
                </g>
                <g id="g48-Clipped" transform="translate(5.31, 4.6797)">
                    <mask id="mask-5" fill="white">
                        <use xlink:href="#path-4"></use>
                    </mask>
                    <g id="Shape"></g>
                    <g id="g48" mask="url(#mask-5)" fill="url(#linearGradient-6)" fill-rule="nonzero">
                        <g id="g50">
                            <path d="M0.796650891,2.43819105 L2.91705672,2.43819105 L2.91705672,4.23536094 L2.41382195,4.23536094 L2.41382195,3.46768986 C2.41581247,3.26868622 2.31008718,3.08394723 2.13693415,2.98387018 C1.96378111,2.88379312 1.7498715,2.88379312 1.57671847,2.98387018 C1.40356543,3.08394723 1.29784015,3.26868622 1.29983066,3.46768986 L1.29983066,4.23536094 L0.796595892,4.23536094 L0.796650891,2.43819105 Z M0.372998712,6.37434935 L3.51890351,7.75162228 L3.30199007,5.11602445 L3.71370761,5.11602445 L3.71370761,4.23536094 L3.40824686,4.23536094 L3.40824686,2.43819105 L3.71370761,2.43819105 L3.71370761,1.92158393 L2.01700896,0.272211211 L2.01700896,0.156159014 C2.01539136,0.0694506084 1.94417572,0 1.8568813,0 C1.76958689,0 1.69837125,0.0694506084 1.69675365,0.156159014 L1.69675365,0.272211211 L0,1.92163857 L0,2.43824568 L0.305515754,2.43824568 L0.305515754,4.23541557 L0,4.23541557 L0,5.11607909 L0.48508532,5.11607909 L0.372998712,6.37440399" id="path64"></path>
                        </g>
                    </g>
                </g>
                <g id="g66-Clipped" transform="translate(5.4987, 12.5283)">
                    <mask id="mask-8" fill="white">
                        <use xlink:href="#path-7"></use>
                    </mask>
                    <g id="Path"></g>
                    <g id="g66" mask="url(#mask-8)" fill="url(#linearGradient-9)" fill-rule="nonzero">
                        <g id="g68">
                            <polyline id="path82" points="7.81573356e-16 0.594139164 3.51373366 2.13254107 3.46093526 1.49190453 0.0528534005 0 0 0.594139164"></polyline>
                        </g>
                    </g>
                </g>
                <g id="g84-Clipped" transform="translate(5.4066, 13.5626)">
                    <mask id="mask-11" fill="white">
                        <use xlink:href="#path-10"></use>
                    </mask>
                    <g id="Path"></g>
                    <g id="g84" mask="url(#mask-11)" fill="url(#linearGradient-12)" fill-rule="nonzero">
                        <g id="g86">
                            <polyline id="path100" points="0 0.594084525 3.6975381 2.21296895 3.64495969 1.57260561 0.0530183955 0 7.81573356e-16 0.594084525"></polyline>
                        </g>
                    </g>
                </g>
                <g id="g102-Clipped" transform="translate(5.5909, 11.4941)">
                    <mask id="mask-14" fill="white">
                        <use xlink:href="#path-13"></use>
                    </mask>
                    <g id="Path"></g>
                    <g id="g102" mask="url(#mask-14)" fill="url(#linearGradient-15)" fill-rule="nonzero">
                        <g id="g104">
                            <polyline id="path118" points="0.0529633972 0 0 0.594303079 3.32981923 2.05189463 3.27713082 1.41153128 0.0529633972 0"></polyline>
                        </g>
                    </g>
                </g>
                <path d="M16.2748875,5.77737117 L17.976426,5.23426437 C17.9702662,5.22229854 17.9651513,5.20967704 17.9589915,5.19792976 C17.6717752,4.64076039 17.329996,4.1130621 16.9386074,3.62248295 L15.3399158,4.44435542 C15.6905441,4.8467327 15.9987852,5.28371488 16.2598179,5.74846739 C16.2650978,5.75786522 16.2696076,5.76780943 16.2748875,5.77742581" id="path120" fill="#696566" fill-rule="nonzero"></path>
                <path d="M17.214479,8.97492608 L18.9861954,9.10119568 C18.9669439,8.63171327 18.9124543,8.16431257 18.8231804,7.70288692 L17.0356244,7.76337175 C17.1275129,8.16186773 17.18732,8.56699911 17.214479,8.97492608" id="path122" fill="#696566" fill-rule="nonzero"></path>
                <path d="M9.56239561,17.2491089 C5.26136077,17.2491089 1.76209167,13.772843 1.76209167,9.5 C1.76209167,5.227216 5.26136077,1.75095005 9.56239561,1.75095005 C11.0496099,1.74957957 12.505822,2.17330671 13.7572837,2.97157437 L14.9979911,1.68970028 C13.4025133,0.587856345 11.5054986,-0.00184501332 9.56239561,0 C4.28965018,0 0,4.26180816 0,9.5 C0,14.7382508 4.28965018,19 9.56239561,19 C14.0669793,19 17.8500948,15.888009 18.8578843,11.7154845 L17.1852749,11.1390482 C16.4260229,14.6270614 13.2973326,17.2491089 9.56239561,17.2491089" id="path124" fill="#696566" fill-rule="nonzero"></path>
                <g id="g126-Clipped" transform="translate(9.1041, 1.6897)">
                    <mask id="mask-17" fill="white">
                        <use xlink:href="#path-16"></use>
                    </mask>
                    <g id="Path"></g>
                    <g id="g126" mask="url(#mask-17)" fill="url(#linearGradient-18)" fill-rule="nonzero">
                        <g id="g128">
                            <path d="M7.66874792,1.72400892 C7.18565609,1.14989442 6.63651146,0.633994906 6.03254744,0.186863706 C5.94580269,0.123151983 5.85801358,0.0608557294 5.76921541,0 L4.52856295,1.2818741 L0,5.96067903 L6.23571129,2.75465515 L7.8345129,1.93278267 C7.77918458,1.86317321 7.72583619,1.79197923 7.66874792,1.72400892" id="path142"></path>
                        </g>
                    </g>
                </g>
                <g id="g144-Clipped" transform="translate(9.1041, 8.3966)">
                    <mask id="mask-20" fill="white">
                        <use xlink:href="#path-19"></use>
                    </mask>
                    <g id="Path"></g>
                    <g id="g144" mask="url(#mask-20)" fill="url(#linearGradient-21)" fill-rule="nonzero">
                        <g id="g146">
                            <path d="M9.89409057,1.02835141 C9.8931556,0.919620771 9.8866108,0.812420014 9.88204594,0.704618232 L8.11032956,0.578293996 L0,0 L7.95660921,2.74236148 L9.62910859,3.31885241 C9.63405844,3.29918254 9.63966827,3.27984051 9.64439813,3.25995209 C9.8109963,2.55301714 9.89536593,1.82942088 9.89585052,1.10337008 C9.89585052,1.07823637 9.89420057,1.05348512 9.89403558,1.02835141" id="path160"></path>
                        </g>
                    </g>
                </g>
                <g id="g162-Clipped" transform="translate(9.227, 5.2343)">
                    <mask id="mask-23" fill="white">
                        <use xlink:href="#path-22"></use>
                    </mask>
                    <g id="Path"></g>
                    <g id="g162" mask="url(#mask-23)">
                        <g transform="translate(-0, 0)" id="g164">
                            <path d="M9.51014719,2.05987185 C9.338166,1.3461785 9.08289547,0.654874343 8.74952021,0 L7.04792671,0.543106795 L0,2.79322994 L7.80866369,2.52910738 L9.59621959,2.46862255 C9.56965539,2.33169844 9.54254121,2.19488361 9.51020219,2.05981721" id="path178" fill="url(#linearGradient-24)" fill-rule="nonzero"></path>
                        </g>
                    </g>
                </g>
            </g>
        </g>
    </g>
</svg>