<?xml version="1.0" encoding="UTF-8"?>
<svg width="20px" height="20px" viewBox="0 0 20 20" version="1.1" xmlns="http://www.w3.org/2000/svg" xmlns:xlink="http://www.w3.org/1999/xlink">
    <title>Jenkins</title>
    <g id="Jenkins" stroke="none" stroke-width="1" fill="none" fill-rule="evenodd">
        <g id="Jekins">
            <polygon id="Frame" points="0 0 20 0 20 20 0 20"></polygon>
            <g id="jenkins" transform="translate(2.5, 0)">
                <g id="g3393" transform="translate(0, 0)">
                    <path d="M14.7741835,9.63742204 C14.7741835,13.5998936 11.5174141,16.8121992 7.50007704,16.8121992 C3.48279184,16.8121992 0.226074216,13.5999436 0.226074216,9.63742204 C0.226074216,5.67485053 3.48279184,2.46259493 7.50007704,2.46259493 C11.5174659,2.46259493 14.7741835,5.67485053 14.7741835,9.63742204" id="path22" fill="#D33833"></path>
                    <path d="M0.522506933,11.4144124 C0.522506933,11.4144124 -0.00407573077,3.93234255 7.14529061,3.71850201 L6.64653738,2.91686238 L2.76710376,4.17281944 L1.65864233,5.40199021 L0.688809833,7.19242367 L0.134553206,9.27670669 L0.300804282,10.6661954" id="path24" fill="#EF3D3A" fill-rule="nonzero"></path>
                    <path d="M2.51798626,4.7429276 C1.18753187,6.05913348 0.445708774,7.8261708 0.45193523,9.66420833 C0.445745314,11.502121 1.18757103,13.269021 2.51798626,14.5850893 C3.82485383,15.8854167 5.62214996,16.6198885 7.49997339,16.6209971 C9.37782604,16.619906 11.1751512,15.8854119 12.4820123,14.5850393 C13.812415,13.2689756 14.5542712,11.5021096 14.5481661,9.66420833 C14.5543158,7.82616599 13.8124621,6.05914426 12.4820123,4.7429276 C11.1750069,3.44278242 9.37775701,2.7083912 7.49997339,2.70716973 C5.62221018,2.70841614 3.82498599,3.44280448 2.51798626,4.7429276 Z M2.19491606,14.8896334 C0.782051703,13.4921133 -0.00599896455,11.6159452 3.4888227e-05,9.66420833 C-0.00604220069,7.71240434 0.782010838,5.83615889 2.19491606,4.43858339 C3.58685133,3.05449266 5.50057135,2.27276517 7.49997339,2.27154273 C9.49936829,2.27272727 11.4130869,3.05446182 12.8049789,4.43858339 C14.2179977,5.83609515 15.0061019,7.71237369 14.9999644,9.66420833 C15.0060975,11.6159831 14.21799,13.4921979 12.8049789,14.8896334 C11.4130068,16.2736483 9.49934457,17.0553779 7.49997339,17.056724 C5.50059506,17.05534 3.58693142,16.2736175 2.19491606,14.8896334" id="path26" fill="#231F20" fill-rule="nonzero"></path>
                    <polyline id="path28" fill="#F0D6B7" points="10.5620923 9.67720168 9.45357901 9.83751961 7.95721567 9.99788751 6.98727953 10.0245739 6.045121 9.99788751 5.32466512 9.78404698 4.68728296 9.11603894 4.1884779 7.75323658 4.0776784 7.45928706 3.41262227 7.24554647 3.02461672 6.63091111 2.74756615 5.74911252 3.05239434 4.97415923 3.77285021 4.73363236 4.35478081 5.00094551 4.63193503 5.58879459 4.96443718 5.53532196 5.07523668 5.40174034 4.96443718 4.78710498 4.93665957 4.01215169 5.10296247 2.94329885 5.09643266 2.33276139 5.6017157 1.55381015 6.48847448 0.939174789 8.04034121 0.297853091 9.75835537 0.538379962 11.2547187 1.58049649 11.9476043 2.64934933 12.3909059 3.42430262 12.5017054 5.34831769 12.1692033 7.00506958 11.5595987 8.47471724 10.9776163 9.24967053"></polyline>
                    <polyline id="path30" fill="#335061" points="9.61988191 14.3000352 5.65716728 14.4603531 5.65716728 15.1016748 5.98972125 17.3463257 5.82341835 17.53343 3.05239434 16.6247951 2.85836565 16.3041592 2.58126325 13.284655 1.94403655 11.4675852 1.80540762 11.040004 4.02222683 9.57035637 4.71506057 9.30309319 5.32466512 10.0245739 5.85114414 10.4788413 6.46080052 10.6658955 6.73790292 10.7460545 7.07040507 12.1355432 7.31983351 12.4294927 7.95721567 12.2157022 7.51375855 13.0441781 9.92460645 14.1397173 9.61988191 14.3000352"></polyline>
                    <polyline id="path32" fill="#6D6B6D" points="3.05239434 4.97415923 3.77285021 4.73363236 4.35472898 5.00094551 4.63193503 5.58879459 4.96443718 5.53532196 5.04756272 5.21463612 4.88131164 4.60010071 5.04756272 3.1303531 4.90898561 2.32871347 5.40779066 1.76750076 6.48847448 0.939174789 6.18364629 0.538379962 4.65955717 1.25986063 4.02222683 1.74081442 3.66199889 2.4890314 3.10779409 3.21051206 2.94149119 4.06562432 3.05239434 4.97415923"></polyline>
                    <path d="M4.1884779,2.46234506 C4.1884779,2.46234506 4.6041056,1.47365118 6.26677183,0.992647416 C7.92943806,0.511643648 6.34994919,0.645225266 6.34994919,0.645225266 L4.54880949,1.31328328 L3.85592393,1.98129132 L3.55119939,2.51576771 L4.1884779,2.46229508" id="path34" fill="#DCD9D8"></path>
                    <path d="M3.3571707,4.78710498 C3.3571707,4.78710498 2.77524011,2.91656254 4.99211115,2.64934933 L4.90898561,2.32876344 L3.38494831,2.67618559 L2.94149119,4.06567429 L3.05239434,4.9742092 L3.35711888,4.78715496" id="path36" fill="#DCD9D8"></path>
                    <path d="M4.24392948,7.27223281 L4.60674861,6.93320636 C4.71168903,6.951524 4.79045442,7.03603202 4.79818611,7.13860122 C4.82586007,7.32570544 4.90898561,9.00914366 6.10052075,9.91777852 C6.20919547,10.0006861 5.2138138,9.78404698 5.2138138,9.78404698 L4.32705502,8.4480309" id="path38" fill="#F7E4CD"></path>
                    <path d="M9.34288315,6.7645427 C9.34288315,6.7645427 9.40745573,5.95455735 9.63361524,6.01687545 C9.76442869,6.05265896 9.8560321,6.16616224 9.8598784,6.29723193 C9.8598784,6.29723193 9.31054504,6.64000646 9.34288315,6.7645427" id="path40" fill="#F7E4CD"></path>
                    <path d="M11.6427243,3.79846108 C11.6427243,3.79846108 11.1860002,3.8914135 11.1439192,4.27941488 C11.1018382,4.6675162 11.6427243,4.35962382 11.7258498,4.3328875" id="path42" fill="#F7E4CD" fill-rule="nonzero"></path>
                    <path d="M8.28971783,3.8251974 C8.28971783,3.8251974 7.68006145,3.90540634 7.68006145,4.27946485 C7.68006145,4.65357334 8.37289519,4.626887 8.56682023,4.46651909" id="path44" fill="#F7E4CD" fill-rule="nonzero"></path>
                    <path d="M4.52103188,5.56210825 C4.52103188,5.56210825 3.4679702,4.94742291 3.3571707,5.53537193 C3.24631937,6.12322101 2.99689094,6.5508521 3.52342178,7.16538751 L3.16324566,7.0585422 L2.83069168,6.23016626 L2.71989218,5.42852663 L3.3571707,4.78710498 L4.0776784,4.84057761 L4.49330609,5.16126345 L4.52103188,5.56205827" id="path46" fill="#F7E4CD"></path>
                    <path d="M5.01978511,3.87862005 C5.01978511,3.87862005 5.49086437,1.52712381 7.87409014,1.07280638 C9.83609122,0.698847816 10.866765,1.15296535 11.2547187,1.58054646 C11.2547187,1.58054646 9.50897876,-0.423527625 7.8462607,0.191007786 C6.18364629,0.805643146 4.96443718,1.92791864 4.99211115,2.64934933 C5.0392709,3.8781203 5.01978511,3.87862005 5.01978511,3.87862005" id="path48" fill="#F7E4CD"></path>
                    <path d="M11.4487474,1.8477097 C11.4487474,1.8477097 10.6452178,1.82102336 10.617492,2.51581768 C10.620256,2.58999458 10.6391106,2.66278949 10.6728399,2.72950829 C10.6728399,2.72950829 11.3102739,2.03471397 11.6981758,2.40887243" id="path50" fill="#F7E4CD"></path>
                    <path d="M7.92990448,2.80192122 C7.92990448,2.80192122 7.79158648,1.73546716 6.84870242,2.35544978 C6.23909787,2.75624461 6.29454944,3.31745731 6.40534894,3.42430262 C6.51620027,3.53124787 6.48603876,3.74648769 6.57040807,3.59871334 C6.65477738,3.45098896 6.62699977,2.97003516 6.93182796,2.83645355 C7.23665615,2.70282195 7.73639403,2.55359834 7.9299563,2.80192122" id="path52" fill="#F7E4CD"></path>
                    <path d="M5.3246133,10.0245739 L2.71989218,11.1468993 C2.71989218,11.1468993 3.800576,15.288779 3.24631937,16.5714224 L2.85836565,16.4378908 L2.83069168,14.8612479 L2.11028763,11.86843 L1.80540762,11.040004 L4.52098006,9.27645682 L5.32466512,10.0245739" id="path54" fill="#49728B"></path>
                    <path d="M5.59249105,12.3154511 L5.96199546,12.7502286 L5.96199546,14.3535578 L5.51859016,14.3535578 C5.51859016,14.3535578 5.46324224,13.2312823 5.46324224,13.0976007 C5.46324224,12.9639691 5.51859016,12.4830153 5.51859016,12.4830153" id="path56" fill="#49728B"></path>
                    <polyline id="path58" fill="#49728B" points="5.6017157 14.5940847 4.35472898 14.6474573 4.71506057 14.8879342 5.60176752 15.0215658"></polyline>
                    <polyline id="path60" fill="#335061" points="9.86925852 14.3268215 10.8945426 14.3000852 11.1439192 16.7585266 10.0908575 16.8921083 9.86925852 14.3268215"></polyline>
                    <path d="M10.1463091,14.3268215 L11.6981758,14.2466125 C11.6981758,14.2466125 12.3354543,12.6968059 12.3354543,12.616597 C12.3354543,12.536388 12.889711,10.371996 12.889711,10.371996 L11.6427243,9.11613889 L11.3933476,8.90234833 L10.7282915,9.54367003 L10.7282915,12.0287979 L10.1463091,14.3268215" id="path62" fill="#335061"></path>
                    <path d="M10.839091,14.1397173 L9.86925852,14.3268215 L10.007732,15.0750884 C10.3679599,15.2354064 10.9776681,14.8077753 10.9776681,14.8077753" id="path64" fill="#49728B"></path>
                    <polyline id="path66" fill="#49728B" points="10.8668686 9.46351107 12.8065854 10.8529998 12.862037 10.2116781 11.3933476 8.90234833 10.8668168 9.46351107"></polyline>
                    <polyline id="path68" fill="#FFFFFF" points="6.56341184 19.5912765 5.98972125 17.3463257 5.70437885 15.6898737 5.6572191 14.4603531 8.25380386 14.3270713 9.86925852 14.3268215 9.72238958 17.132885 9.9717662 19.297277 9.94409224 19.6981218 7.83812435 19.8584398 6.56341184 19.5912765"></polyline>
                    <path d="M9.50897876,14.3001351 C9.50897876,14.3001351 9.37045347,17.0792125 9.78613298,19.0565503 C9.15542826,19.4036986 8.45739933,19.6219984 7.7354612,19.697872 L10.0631836,19.617713 L10.340286,19.4573951 L10.0077838,15.0750385 L9.92460645,14.1396673" id="path70" fill="#DCD9D8"></path>
                    <polyline id="path72" fill="#FFFFFF" points="11.1911308 16.544986 12.2718664 16.2510364 14.3223827 16.1441412 14.6272627 15.2356063 14.0730061 13.6590133 13.4357276 13.5788544 12.5489688 13.8460676 11.6981758 14.2466125 11.2465305 14.1667034 10.8945426 14.3001351"></polyline>
                    <path d="M11.1715932,16.0102597 C11.1715932,16.0102597 11.892049,15.6896738 12.0029522,15.7164101 L11.6981758,14.2466625 L12.0583519,14.1130809 C12.0583519,14.1130809 12.3077804,15.5025696 12.3077804,15.6628875 C12.3077804,15.6628875 13.8595435,15.7430465 13.9981206,15.7430465 C13.9981206,15.7430465 14.3306227,15.1284611 14.2474972,14.4871394 L14.5523254,15.3422017 L14.5800512,15.8232055 L14.1366977,16.4645272 L13.6378926,16.5714724 L12.8065854,16.5447361 L12.529483,16.1974139 L11.5595987,16.3309455 L11.2547187,16.4378908" id="path74" fill="#DCD9D8"></path>
                    <path d="M10.0826693,14.1133308 L9.47306479,12.6168968 L8.83563081,11.7350482 C8.83563081,11.7350482 8.97415609,11.3609397 9.16818478,11.3609397 L9.80561877,11.3609397 L10.4151715,11.5747303 L10.3598236,12.5634242 L10.0826693,14.1133308" id="path76" fill="#FFFFFF" fill-rule="nonzero"></path>
                    <path d="M10.2017607,13.6052908 C10.2017607,13.6052908 9.42585322,12.1623795 9.42585322,11.9486389 C9.42585322,11.9486389 9.56432668,11.6279531 9.75835537,11.708112 C9.95238406,11.788271 10.3680636,12.0019616 10.3680636,12.0019616 L10.3680636,11.4943215 L9.42585322,11.3072172 L8.78852288,11.3873762 L9.86925852,13.8458177 L10.0909093,13.872604" id="path78" fill="#DCD9D8"></path>
                    <polyline id="path80" fill="#FFFFFF" fill-rule="nonzero" points="6.81284028 10.0783463 6.04517283 9.99788751 5.32466512 9.78404698 5.32466512 10.0245739 5.67670489 10.3989322 6.78511449 10.879936"></polyline>
                    <path d="M5.57414538,10.1584553 C5.57414538,10.1584553 6.4332302,10.5058775 6.7103326,10.4257185 L6.73790292,10.7460545 L5.96209911,10.5860364 L5.49101985,10.2654006 L5.57414538,10.1584553" id="path82" fill="#DCD9D8"></path>
                    <path d="M11.1881768,11.4518932 C10.7603405,11.4456387 10.33489,11.3891173 9.92123789,11.2835793 C9.94647614,11.1365546 9.89921274,10.9922285 9.93719966,10.8863327 C10.0408475,10.8143695 10.214613,10.815469 10.3712767,10.7985776 C10.2209041,10.7303938 10.0514108,10.7119327 9.88905525,10.7460545 C9.88542758,10.6440068 9.83790506,10.5807391 9.8091428,10.50093 C10.0734965,10.4099266 10.6976118,9.81343194 11.0486669,10.0109308 C11.2159026,10.1048827 11.287005,10.641508 11.3000128,10.9024744 C11.3107922,11.1188637 11.2795942,11.3372519 11.1881768,11.4518932" id="path84" fill="#D33833"></path>
                    <path d="M11.2201003,11.5169599 L11.1862075,11.5160603 C10.7529478,11.5094332 10.3221259,11.4520926 9.90320318,11.3452978 L9.84588594,11.3297057 L9.85562884,11.2730847 C9.86380507,11.2112529 9.86488261,11.1487399 9.85884192,11.0866801 C9.84908295,11.0126439 9.85436356,10.9374837 9.87438909,10.8653934 L9.88122984,10.8462032 L9.89833173,10.8343093 C9.91980286,10.81958 9.94292336,10.8072253 9.96725752,10.7974782 C9.94628865,10.7998978 9.92548775,10.803519 9.90496519,10.8083226 L9.8254155,10.8272629 L9.82256519,10.7483034 C9.81859858,10.6949523 9.80326779,10.6429628 9.77753022,10.5955815 C9.76649172,10.5715938 9.75555688,10.5475561 9.74633223,10.5219193 L9.72472166,10.46185 L9.78680669,10.4405109 C9.89575399,10.3904374 9.9993155,10.3301263 10.0959881,10.2604531 C10.4104555,10.0543586 10.8019333,9.79778994 11.0821969,9.95555918 C11.3194986,10.088841 11.3622533,10.8168683 11.3663992,10.899376 C11.3725144,11.0223131 11.3726181,11.3259077 11.2408817,11.4909732 L11.2201003,11.5169599 Z M9.99373953,11.2362036 C10.373395,11.3277043 10.7624289,11.3781891 11.1536621,11.3867265 C11.2142442,11.288177 11.2438357,11.1122171 11.2335227,10.9055229 C11.2159026,10.5510543 11.1274392,10.1294202 11.0151886,10.0663525 C10.8072711,9.94931238 10.4394251,10.1904889 10.17077,10.3665488 C10.0822358,10.4275648 9.99013038,10.4836123 9.89491135,10.5344129 L9.89916091,10.5437081 C9.9193664,10.5843691 9.93508622,10.6269645 9.94606154,10.670793 C10.1014093,10.6525358 10.258948,10.6768709 10.400609,10.7410071 L10.6050543,10.8379075 L10.3786875,10.862295 C10.34675,10.8655991 10.3147723,10.8685312 10.2827614,10.8710905 C10.1753823,10.8800859 10.0646865,10.8892312 9.9943096,10.9272118 C9.98685729,10.9776307 9.98595203,11.0287489 9.99161475,11.0793839 C9.99574822,11.1315618 9.99645789,11.1839394 9.99373953,11.2362036 L9.99373953,11.2362036 Z" id="path86" fill="#D33833" fill-rule="nonzero"></path>
                    <path d="M8.9396932,10.7107226 C8.93844943,10.7450051 8.93694653,10.7795873 8.93554729,10.8141696 C8.78873017,10.907172 8.55168765,10.9060726 8.39056714,10.9842326 C8.59438819,10.9906063 8.79437659,11.0393603 8.97685094,11.1271594 C8.97325781,11.2135818 8.96976834,11.299971 8.96638251,11.3863268 C8.69726099,11.5639858 8.45146022,11.8285504 8.13460889,11.9951151 C7.98483781,12.0739248 7.45908433,12.276621 7.29972583,12.2407893 C7.20955225,12.2205997 7.20136407,12.1127049 7.16534646,12.011007 C7.08854344,11.7931685 6.91172028,11.446446 6.89627676,11.1185638 C6.8766355,10.7044258 6.83331072,10.0103811 7.29609816,10.0956874 C7.67882044,10.1739499 8.04808617,10.3041995 8.39284739,10.4825394 C8.56946325,10.5756917 8.67165998,10.6908328 8.9396932,10.7107226" id="path88" fill="#D33833"></path>
                    <path d="M7.34216961,12.3087545 C7.32282376,12.3090256 7.30350837,12.3071815 7.28459326,12.3032574 C7.17560759,12.2788698 7.14710444,12.18082 7.12191803,12.0943143 C7.11602199,12.0732839 7.10950682,12.0524195 7.10238042,12.0317464 C7.08439752,11.9807724 7.0609213,11.9227022 7.03526847,11.8594346 C6.94924079,11.6467434 6.84212078,11.3821789 6.82983852,11.1214623 L6.82854292,11.0945261 C6.81206292,10.7511519 6.78957135,10.2809426 7.00774997,10.098536 C7.09135547,10.0314894 7.20315508,10.0070117 7.30858772,10.0326697 C7.69808039,10.112223 8.0738785,10.2447296 8.42471909,10.4262182 C8.47224161,10.4513554 8.51390802,10.477442 8.55422702,10.5027791 C8.66732809,10.5860055 8.80293758,10.6359812 8.94477194,10.6467054 L9.00841169,10.6514529 L9.00063811,10.8497514 L8.97203131,10.8678422 C8.88948046,10.9142264 8.79912828,10.9462798 8.7050864,10.9625437 C8.8093457,10.9874762 8.91042847,11.0234429 9.00649421,11.0697888 L9.04499937,11.0882793 L9.03152515,11.421009 L9.00390301,11.4392497 C8.89445886,11.5146146 8.78908411,11.5953288 8.68819181,11.6810759 C8.5279643,11.821516 8.35311447,11.9456121 8.16642876,12.0513863 C8.0539709,12.110506 7.57268232,12.3087545 7.34216961,12.3087545 L7.34216961,12.3087545 Z M7.22209363,10.1526083 C7.17564,10.1511074 7.13028142,10.1664003 7.09491778,10.1954864 C6.92540179,10.3371638 6.94706418,10.7893324 6.96141941,11.0885792 L6.962715,11.1156653 C6.97401261,11.3551427 7.07672759,11.6089128 7.15917941,11.8128084 C7.1856096,11.8779751 7.20981137,11.9378444 7.2283125,11.9903176 C7.23650067,12.0134557 7.24334143,12.0368437 7.24997489,12.0596821 C7.27200005,12.1353933 7.28557791,12.1718246 7.31475477,12.1782713 C7.43747377,12.2057573 7.92472209,12.032396 8.10273719,11.9387939 C8.28133182,11.8370381 8.44866146,11.7179285 8.6021123,11.5833259 C8.70353168,11.5002184 8.79982049,11.4213588 8.90113622,11.3519444 L8.90870251,11.1667392 C8.74499834,11.0940178 8.56781574,11.0537416 8.387665,11.0482998 L8.1326914,11.0375553 L8.36071657,10.9269619 C8.44645913,10.8901338 8.53651077,10.8634532 8.62890526,10.8475026 C8.71217139,10.8336433 8.793328,10.8098563 8.87050829,10.7766888 L8.87087106,10.7678933 C8.72991709,10.7461801 8.59643756,10.6921228 8.48167356,10.610274 C8.44347934,10.5862863 8.40393771,10.561499 8.36092387,10.5388106 C8.02229717,10.3635796 7.65959195,10.2355846 7.28366043,10.1586552 C7.26337956,10.1547864 7.24276689,10.1527619 7.22209363,10.1526083 L7.22209363,10.1526083 Z" id="path90" fill="#D33833" fill-rule="nonzero"></path>
                    <path d="M9.20694906,11.2048197 C9.16585271,10.9792351 9.11843384,10.9148681 9.1367795,10.7180688 C9.76073927,10.3169242 9.87786129,11.4071161 9.20694906,11.2048197" id="path92" fill="#D33833"></path>
                    <path d="M9.3657213,11.3089386 C9.30515091,11.3081215 9.24506018,11.2982772 9.18751305,11.2797438 L9.14872013,11.2678722 L9.14169996,11.2286401 C9.13087795,11.1695905 9.11811367,11.1108986 9.10342704,11.0526559 C9.07091897,10.9431978 9.0597519,10.8287182 9.07051026,10.7152085 L9.07342233,10.6840265 L9.09994296,10.6667033 C9.38100967,10.4831783 9.55063772,10.5921112 9.61043914,10.6473419 C9.74018414,10.7808687 9.76601112,10.9816378 9.67414066,11.1425332 C9.61043834,11.2494082 9.49196021,11.3133518 9.3657213,11.3089896 L9.3657213,11.3089386 Z M9.26551491,11.1652572 C9.40186217,11.1973563 9.50524063,11.1662762 9.55895792,11.0765009 C9.61911217,10.9680753 9.60307467,10.8342857 9.51891696,10.7424672 C9.4451792,10.6744478 9.33316853,10.6803071 9.20108537,10.7586186 C9.1966613,10.8476516 9.20752455,10.9367806 9.23322214,11.0222892 C9.24325838,11.0634575 9.25443865,11.1091604 9.26546291,11.1653082 L9.26551491,11.1652572 Z" id="path94" fill="#D33833" fill-rule="nonzero"></path>
                    <path d="M10.1103433,11.3876761 C10.1103433,11.3876761 9.91631462,11.1204129 10.0548917,11.0402539 C10.1934688,10.9600949 10.332046,11.0403539 10.4151715,10.9067223 C10.498297,10.7730907 10.4151715,10.6928817 10.4428455,10.5325638 C10.4705194,10.3722459 10.6092002,10.3454596 10.7477255,10.3187732 C10.8862508,10.2920869 11.2742563,10.2386143 11.3296561,10.3722459 L11.1633532,9.89124211 L10.830851,9.7843968 L9.77778934,10.3722459 L9.72233776,10.6661954 L9.72233776,11.2540445" id="path96" fill="#EF3D3A"></path>
                    <path d="M7.20074218,12.2695246 C7.16743669,11.8525048 7.13152273,11.4358014 7.09300029,11.0194146 C7.03438746,10.397333 7.24795376,10.5058775 7.80713365,10.5058775 C7.89259127,10.5058775 8.33304261,10.6040772 8.36455154,10.6661954 C8.51572186,10.963843 8.1118582,10.8977269 8.53867985,11.122212 C8.89895961,11.311615 9.53540895,11.0071708 9.38983561,10.5860364 C9.30836844,10.4924343 8.96539785,10.5568514 8.84241974,10.4953828 L8.1929626,10.170699 C7.91751857,10.0329196 7.28096558,9.83202242 6.98727953,10.0245739 C6.24324378,10.5125241 7.03423199,11.7317499 7.29967401,12.2407893" id="path98" fill="#EF3D3A"></path>
                    <path d="M7.92990448,2.80192122 C7.17472658,2.63225808 6.79936607,3.1067152 6.57045989,3.59876331 C6.36606642,3.55098777 6.44737813,3.28292499 6.49904656,3.14629493 C6.63420329,2.78777846 7.17902797,2.31057275 7.62414346,2.37528962 C7.81573642,2.4030754 8.0750114,2.57198893 7.9299563,2.80192122" id="path100" fill="#231F20"></path>
                    <path d="M11.6098679,3.63129666 C11.6217874,3.6317964 11.6338105,3.6321962 11.64573,3.63264597 C11.8163862,3.97457093 11.9640843,4.33678551 12.1794126,4.63858101 C12.0351867,4.96251519 11.0872239,5.24921842 11.1018382,4.6675162 C11.3068536,4.58106046 11.660759,4.64987523 11.8425054,4.53948174 C11.7374065,4.26137411 11.5857698,4.0246453 11.6098679,3.63129666" id="path102" fill="#231F20"></path>
                    <path d="M8.31661443,3.6401921 C8.47856412,3.92644557 8.53126903,4.22724158 8.76141898,4.44363081 C8.86506678,4.54103095 9.06666176,4.65972019 8.9667971,4.93063151 C8.94342452,4.99449881 8.77276841,5.13697588 8.67425118,5.16496155 C8.31433418,5.26740911 7.47577163,5.18610073 7.75976661,4.7534722 C8.05739128,4.76681537 8.45741997,4.93987678 8.67989998,4.73148346 C8.50903658,4.46811828 8.20446751,3.94713497 8.31661443,3.6401921" id="path104" fill="#231F20"></path>
                    <path d="M11.4748148,6.54970268 C10.9329441,6.88538085 10.3287292,7.25034402 9.44088215,7.16568735 C9.25120667,7.00666876 9.17886051,6.65274993 9.3631463,6.41896961 C9.45907234,6.57803818 9.39880114,6.87053844 9.66616065,6.91456591 C10.1699408,6.99767336 10.7562764,6.61736805 11.1186291,6.48448607 C11.3433376,6.11917308 11.0992988,5.98479187 10.8968228,5.74966224 C10.4824389,5.26790885 9.92652393,4.67086449 9.94673525,3.94973364 C10.1142301,3.83259361 10.128689,4.12849213 10.1527353,4.18236456 C10.3691519,4.67071456 10.9137174,5.29529483 11.3112068,5.71328086 C11.4087912,5.81622816 11.5694971,5.91497761 11.5873245,5.98304277 C11.6388893,6.18094146 11.4532561,6.41807007 11.474763,6.54975266" id="path106" fill="#231F20"></path>
                    <path d="M4.3313564,6.19633358 C4.16152948,6.10288142 4.12110683,5.69114219 3.92174028,5.67944818 C3.63676065,5.66275672 3.68874002,6.21357475 3.68988015,6.53570985 C3.49372668,6.36399775 3.45926379,5.83526841 3.60333423,5.5637574 C3.43910429,5.48599721 3.36577347,5.64956348 3.27466705,5.70718398 C3.39178907,4.88710379 4.51875163,5.32677872 4.3313564,6.19633358" id="path108" fill="#231F20"></path>
                    <path d="M11.8198065,6.89122785 C11.5675796,7.35419086 11.210772,7.86402986 10.4706231,7.87887226 C10.4555941,7.72934881 10.4440374,7.50186526 10.4714523,7.41181136 C11.0372656,7.3593882 11.3866105,7.08168036 11.8198065,6.89122785" id="path110" fill="#231F20"></path>
                    <path d="M8.27391154,7.1913742 C8.74602728,7.43075166 9.61355939,7.45648849 10.2551393,7.43834778 C10.2843419,7.59276995 10.2960538,7.74979534 10.2900686,7.90665804 C9.46534303,7.94633773 8.4902245,7.74953847 8.27391154,7.1913742" id="path112" fill="#231F20"></path>
                    <path d="M8.18420436,7.6377457 C8.51064312,8.42809111 9.63257876,8.3370877 10.5787277,8.31529885 C10.5370613,8.41789633 10.4467841,8.53908429 10.3345335,8.58296183 C10.0313637,8.70190095 9.19513321,8.79220472 8.77421948,8.57661508 C8.50732639,8.43978513 8.33578927,8.13059341 8.18954222,7.94933619 C8.11890625,7.86178101 7.76722925,7.63819547 8.18420436,7.6377457" id="path114" fill="#231F20"></path>
                    <path d="M11.4353768,11.997314 C11.0522945,12.6299901 10.6857959,13.2798075 10.2313003,13.8378718 C10.4218568,13.2976483 10.5033758,12.3934112 10.532138,11.7041141 C10.9307675,11.5242062 11.2721315,11.7445933 11.4354287,11.997314" id="path116" fill="#81B0C4"></path>
                    <path d="M13.4967243,14.2712499 C13.0678297,14.3540575 12.7665256,14.7560018 12.3480994,14.730215 C12.578042,14.417625 12.9809729,14.2858425 13.4967243,14.2712499" id="path118" fill="#231F20"></path>
                    <path d="M13.6859334,14.9184686 C13.3363812,14.9541004 12.9257804,15.0086724 12.5712013,14.9805368 C12.7391107,14.7333134 13.3857694,14.8186197 13.6859334,14.9184686" id="path120" fill="#231F20"></path>
                    <path d="M13.8070459,15.4765329 C13.4142207,15.4847287 12.9258841,15.4771826 12.5523892,15.4469481 C12.7733145,15.2181652 13.5522796,15.3620415 13.8070459,15.4765329" id="path122" fill="#231F20"></path>
                    <path d="M10.6961607,17.0036012 C10.7525451,17.4793576 10.9481285,17.9615108 10.9236676,18.4825441 C10.7064218,18.5532079 10.5816299,18.6149763 10.2905868,18.614628 C10.2700646,18.1717532 10.2086014,17.4947498 10.2269989,17.0726159 C10.3701365,17.0817612 10.5812153,16.9740163 10.6961607,17.0036012" id="path124" fill="#DCD9D8"></path>
                    <path d="M10.062769,9.99134086 C9.8655272,10.1155773 9.69751411,10.2705979 9.50804593,10.40318 C9.08790956,10.4232198 8.85864062,10.3751444 8.54997746,10.1425135 C8.55500438,10.123823 8.5860469,10.1321688 8.58718702,10.1092305 C9.03691484,10.3024816 9.60863612,10.0305208 10.062769,9.99139084" id="path126" fill="#F0D6B7"></path>
                    <path d="M7.70177566,12.9477274 C7.82537567,12.4313418 8.30956638,12.1639287 8.74924036,11.8795743 C9.20306227,12.4349899 9.47902454,13.1492743 9.78297173,13.8385214 C9.06484792,13.6297783 8.33112512,13.2910517 7.70177566,12.9477274" id="path128" fill="#81B0C4"></path>
                    <path d="M10.2269989,17.0726159 C10.2086014,17.4947997 10.2700128,18.1717532 10.2905868,18.614628 C10.5816299,18.6149763 10.7064218,18.5532079 10.9236158,18.4825441 C10.9481285,17.9615108 10.7525451,17.4794076 10.6961607,17.0036012 C10.5812153,16.9740163 10.3701365,17.0817612 10.2269989,17.0726159 L10.2269989,17.0726159 Z M5.69510237,14.6717449 C5.88700628,16.3731239 6.16498969,17.8032918 6.67483323,19.3098706 C7.8063563,19.641201 9.17046503,19.6700862 10.1706145,19.3710892 C9.9869506,18.5207745 10.067174,17.4855545 9.95989853,16.578169 C9.87900142,15.8961181 9.92020142,15.2098694 9.80929827,14.5140756 C8.59739633,14.2709501 6.88446091,14.4572047 5.69510237,14.6717449 L5.69510237,14.6717449 Z M10.0958844,14.5247202 C10.0856751,15.2554461 10.1297773,15.9761771 10.1876127,16.7078026 C10.478604,16.6656742 10.676053,16.6375886 10.9464183,16.5804178 C10.8586286,15.8760784 10.869408,15.0835341 10.6906155,14.460503 C10.4839418,14.4624021 10.3019363,14.4582042 10.0958844,14.5247202 Z M11.571881,14.4069804 C11.4338221,14.3764461 11.2730125,14.4057811 11.1411207,14.4082298 C11.2031021,15.0039249 11.3535987,15.6611384 11.4065627,16.2863684 C11.6141175,16.2926152 11.7250206,16.1982135 11.8957804,16.1664298 C11.9049014,15.6176107 11.8460294,14.8614978 11.571881,14.4069804 Z M13.8068386,16.3760724 C14.2395681,16.2747243 14.5116436,15.7636859 14.390583,15.2388546 C14.3093749,14.8860852 14.1646826,14.2219252 14.0098846,13.9962907 C13.8955093,13.8293761 13.5853432,13.610838 13.3377286,13.7638097 C12.9348496,14.0125324 12.2251213,14.0847454 11.9313316,14.3858912 C12.0786669,14.8588491 12.1243756,15.5085165 12.185165,16.1078098 C12.6884269,16.1380443 13.3076707,15.9742781 13.7262524,16.1480891 C13.4340692,16.2393424 13.0548738,16.2400421 12.8024395,16.3731239 C13.0086987,16.4692247 13.4918529,16.4497847 13.8067867,16.3760724 L13.8068386,16.3760724 Z M9.78297173,13.8385214 C9.47902454,13.1492743 9.20306227,12.4349899 8.74924036,11.8795743 C8.30956638,12.1639287 7.82537567,12.4313418 7.70177566,12.9477274 C8.33112512,13.2910517 9.06484792,13.6297783 9.78297173,13.8385214 Z M10.532138,11.7041141 C10.5033758,12.3934112 10.4218568,13.2976483 10.2313003,13.8378718 C10.6857959,13.2798574 11.0522945,12.6299901 11.4353768,11.997314 C11.2721315,11.7445933 10.9307675,11.5242062 10.532138,11.7041141 Z M9.68289977,11.413113 C9.51068895,11.3952222 9.36454554,11.6040153 9.14071811,11.5137115 C9.08941245,11.5683836 9.04277094,11.6276532 8.9904288,11.6810259 C9.48493247,12.2556317 9.7096409,13.0709144 10.0915831,13.7462187 C10.2964948,13.0975508 10.2728631,12.3868646 10.3180535,11.678877 C10.0364424,11.6960682 9.88024519,11.4333027 9.68289977,11.413113 L9.68289977,11.413113 Z M9.1367795,10.7180688 C9.11843384,10.9148681 9.16590453,10.9792351 9.20694906,11.2048197 C9.87780947,11.4071161 9.76068745,10.3169242 9.1367795,10.7180688 Z M8.39284739,10.4825394 C8.04808617,10.3041995 7.67882044,10.1739499 7.29609816,10.0956874 C6.83331072,10.0102812 6.8766355,10.7044258 6.89627676,11.1185638 C6.91172028,11.446446 7.08854344,11.7932185 7.16534646,12.011007 C7.20136407,12.1127049 7.20950042,12.2205997 7.29967401,12.2407893 C7.45908433,12.276621 7.98478599,12.0738748 8.13460889,11.9951151 C8.45146022,11.8285004 8.69726099,11.5639858 8.96638251,11.3863268 C8.96983744,11.2999043 8.97332691,11.2135152 8.97685094,11.1271594 C8.79437659,11.0393603 8.59438819,10.9906063 8.39056714,10.9842326 C8.55173947,10.9060726 8.78873017,10.907172 8.93554729,10.8141696 C8.93694653,10.7795374 8.93844943,10.7450051 8.9396932,10.7107226 C8.67165998,10.6908328 8.56946325,10.5756917 8.39284739,10.4825394 Z M5.63166992,9.998887 C5.39177708,10.2337668 6.3046551,10.5539529 6.59528354,10.571194 C6.59362518,10.4225701 6.68312505,10.2824418 6.66509034,10.1758464 C6.31989133,10.1173763 5.86622489,10.1559566 5.63172174,9.99893697 L5.63166992,9.998887 Z M8.58718702,10.1092305 C8.5860469,10.1321688 8.5550562,10.123823 8.54997746,10.1424635 C8.85864062,10.3751444 9.08790956,10.4232198 9.50804593,10.40318 C9.69751411,10.2705979 9.8655272,10.1155273 10.0628208,9.99139084 C9.60863612,10.0305208 9.03696666,10.3024816 8.58718702,10.1092305 Z M11.299961,10.9024744 C11.287005,10.641508 11.2159026,10.1048827 11.048615,10.0109308 C10.6976118,9.81333199 10.0734965,10.4099266 9.8091428,10.50093 C9.83790506,10.5807391 9.88537576,10.6440068 9.88905525,10.7460545 C10.0514052,10.7119172 10.2208983,10.7303607 10.3712767,10.7985277 C10.214613,10.815519 10.0408475,10.8143695 9.93719966,10.8863327 C9.89921274,10.9922785 9.94652796,11.1365546 9.92123789,11.2835793 C10.33489,11.3891173 10.7603405,11.4456387 11.1881768,11.4518932 C11.2795942,11.3372519 11.3107922,11.1189136 11.299961,10.9024744 L11.299961,10.9024744 Z M5.22780625,10.2261207 C5.1524543,10.1742972 4.64281805,9.53482456 4.57295943,9.56136098 C3.6507531,9.91208144 2.78840338,10.518521 2.01778196,11.0921274 C2.75254124,12.6123491 3.04907761,14.4749456 3.10152339,16.2701766 C3.94314356,16.6497323 4.68241151,17.1970022 5.82450665,17.2541229 C5.6923557,16.3524345 5.57170966,15.5479464 5.49666865,14.6990309 C5.20971971,14.5823407 4.79803064,14.7042782 4.52947918,14.6628495 C4.52719893,14.3507592 4.93961353,14.5261694 4.97397278,14.3163268 C4.99988473,14.1575581 4.74703592,14.1455643 4.8293841,13.8955922 C5.0392709,13.9692045 5.14955216,14.1317213 5.37343141,14.1927901 C5.57803218,13.761161 5.3705811,12.997502 5.4000689,12.6367366 C5.40566588,12.5690213 5.43515368,12.2615287 5.59249105,12.3154511 C5.73174187,12.3632267 5.58451017,13.1332825 5.59974639,13.4747077 C5.61373885,13.7892966 5.56036023,14.0936408 5.69251118,14.2911397 C6.8263132,14.1413454 7.96773013,14.0511748 9.11169673,14.021028 C8.84894955,13.9123337 8.53691784,13.8094863 8.19472461,13.6235315 C8.00924687,13.5226831 7.42462144,13.3128905 7.37103552,13.1429775 C7.28568156,12.8722661 7.59512207,12.7280899 7.64803428,12.4960087 C7.09097916,12.7889587 6.98230444,12.2151525 6.85046443,11.8086606 C6.75396014,11.5296917 6.68150605,11.2435156 6.63384052,10.9530486 C6.1539512,10.7324115 5.64089457,10.5090259 5.22785807,10.2261207 L5.22780625,10.2261207 Z M10.8125572,9.63872137 C11.5809502,9.27940531 11.7194755,10.981534 11.4182749,11.5299033 C11.4648128,11.6934695 11.6249487,11.7560375 11.6902986,11.9030622 C11.2614558,12.643783 10.7851942,13.3352291 10.3476968,14.0672543 C10.6731509,13.8718544 11.1380113,14.0322723 11.5209899,13.8860471 C11.6610181,13.8326744 11.7623338,13.5236326 11.8683655,13.2763592 C12.159875,12.5962074 12.4659988,11.7386464 12.602192,11.0895787 C12.6329235,10.9416544 12.7167228,10.6193694 12.6979107,10.4877867 C12.6644325,10.2520574 12.3328113,10.0772969 12.1641245,9.93157146 C11.8533884,9.66235927 11.6577014,9.42548054 11.3335429,9.17375939 C11.2021174,9.36086361 10.9200399,9.48659925 10.8125572,9.63872137 L10.8125572,9.63872137 Z M3.47050957,3.06773515 C3.10437371,3.45623627 3.18102126,4.18416364 3.22533069,4.70199855 C3.88712192,4.30050408 4.76553705,4.7337323 4.75724522,5.41658274 C5.07321555,5.40848689 4.87530007,5.03602756 4.81813831,4.79610038 C4.63136497,4.01240156 5.13281304,3.16093744 4.840889,2.44430429 C4.27403917,2.48573309 3.80840141,2.70896881 3.47050957,3.06773515 Z M6.09031144,0.812989385 C5.26143996,1.03957339 4.1991018,1.6203261 3.85851512,2.3384085 C4.12224696,2.30142743 4.3053408,2.17319308 4.56549679,2.15730121 C4.66385855,2.15110439 4.79264095,2.19708085 4.90566888,2.16994474 C5.13089555,2.11607232 5.3209338,1.62917157 5.49086437,1.44801431 C5.65644174,1.27110487 5.85549735,1.19549358 5.99174238,1.03422613 C6.07927295,0.993447007 6.20867724,0.996245574 6.21365233,0.869510451 C6.17571723,0.830380483 6.13576101,0.800545755 6.09031144,0.81303936 L6.09031144,0.812989385 Z M10.4051695,1.0260803 C9.54478907,0.558019908 8.08853744,0.205900163 7.17343099,0.645874934 C6.43494039,1.00089319 5.43681205,1.58839245 5.09643266,2.33276139 C5.4143723,3.05114364 5.00226863,3.7093567 4.97599391,4.43868334 C4.96200146,4.82678467 5.1654621,5.16556125 5.18106109,5.58809494 C5.0722309,5.76115635 4.73988422,5.78249543 4.50983792,5.77060152 C4.43236119,5.39684285 4.29678986,4.97680787 3.89769399,4.93462946 C3.33296894,4.87505996 2.92008791,5.32577923 2.89438326,5.79668816 C2.86406628,6.35060461 3.33556013,7.26858468 4.00388117,7.20481732 C4.26206785,7.18022991 4.32544848,6.93065767 4.60674861,6.93320636 C4.75921453,7.22655619 4.37157175,7.31865905 4.33171917,7.52845165 C4.32135439,7.58267389 4.36384999,7.79446547 4.38856999,7.89376464 C4.50999339,8.37741705 4.78056598,9.00334663 5.04694083,9.37150816 C5.38498814,9.83856907 6.04911144,9.90898302 6.7636594,9.95470962 C6.89124984,9.68964531 7.36139628,9.71143415 7.66772736,9.78079864 C7.30060684,9.64057043 6.95929463,9.30069441 6.67643977,8.99979845 C6.35150391,8.65462515 6.02242213,8.28431471 6.00583848,7.83314567 C6.61979625,8.6545252 7.12699677,9.37185799 8.24343908,9.73317302 C9.0882205,10.0063832 10.0748958,9.60793713 10.7239383,9.16841213 C10.9932671,8.98570566 11.1540767,8.69580407 11.3455142,8.43048988 C12.061876,7.43684854 12.3961401,6.0185246 12.3226538,4.6438783 C12.2923887,4.07691854 12.2937361,3.51195775 12.0964425,3.13050302 C11.890287,2.73170717 11.1929964,2.37488983 10.7847796,2.73560517 C10.7091167,2.34780369 11.1242261,2.10792649 11.6117854,2.24750504 C11.2641507,1.81482653 10.8992586,1.29499264 10.4051177,1.02613028 L10.4051695,1.0260803 Z M12.0079273,13.817882 C12.6802388,13.495597 13.9363465,12.9504261 14.3578303,13.8190814 C14.5323674,14.2041679 14.6724056,14.6029532 14.7764119,15.0110712 C14.8902172,15.4773825 14.6530711,16.4574808 14.1559762,16.6139507 C13.7170277,16.7521799 13.2046966,16.7437342 12.6758856,16.6412867 C12.601771,16.5767778 12.540724,16.4995575 12.4958493,16.4135532 C12.1182604,16.3994605 11.7647177,16.4330932 11.4664193,16.5827666 C11.4947152,16.8520788 11.3058171,16.8952567 11.1287348,16.9507283 C10.9974649,17.4526213 11.3913783,18.1081358 11.2971107,18.5657515 C11.2298432,18.8917846 10.8138528,18.9422088 10.5080918,19.0032276 C10.503109,19.1658316 10.5145644,19.3285169 10.5422955,19.4889789 C10.4724369,19.7373517 10.1587987,19.8787794 9.86174406,19.9134116 C8.8841898,20.0267536 7.39990144,20.0776775 6.45960857,19.7516444 C6.19727598,19.1310121 5.99055043,18.3761486 5.77200904,17.6675113 C4.85493328,17.761963 4.11328142,17.2859067 3.41402152,16.9740663 C3.17195208,16.8658217 2.83706602,16.8062022 2.74663332,16.6203974 C2.65894727,16.4404895 2.69480941,16.095666 2.67304338,15.7699827 C2.61769545,14.9381085 2.57027658,14.1357193 2.34245871,13.2839553 C2.24021015,12.901751 2.0618841,12.5644736 1.93750674,12.1962122 C1.82256133,11.8548869 1.62174371,11.4330528 1.56934974,11.0926771 C1.49166572,10.5881853 1.98430372,10.5600997 2.2992894,10.3415116 C2.78622678,10.0034347 3.16842805,9.81653035 3.69578807,9.51143653 C3.85198531,9.42103281 4.32306458,9.19234988 4.37659867,9.08700381 C4.48314861,8.87816072 4.19381577,8.58376142 4.11644268,8.42004523 C4.00066491,8.19006925 3.93153541,7.94087395 3.91277475,7.68587106 C3.51308548,7.62237242 3.15833727,7.40251166 2.932422,7.0782821 C2.59732866,6.60452462 2.36495028,5.72797334 2.65485319,5.06126464 C2.67760388,5.0087915 2.79099458,4.90549438 2.8077337,4.82488564 C2.8406937,4.66601697 2.74564866,4.45487505 2.73974074,4.28596152 C2.70926828,3.41940513 2.89179206,2.67273736 3.49673247,2.41142113 C3.74237776,1.46790413 4.62136295,1.15421471 5.44956073,0.685304749 C5.75910489,0.510094441 6.10036528,0.398101772 6.45281964,0.273015805 C7.71711554,-0.17560454 9.65688417,-0.0911477746 10.7061627,0.674110479 C11.1511227,0.998644346 11.8623021,1.68379361 12.1167057,2.17983968 C12.7885507,3.48951923 12.7408209,5.67829877 12.2708818,7.27143322 C12.1988499,7.54011509 12.1043059,7.80271115 11.9881824,8.05663127 C11.8989416,8.23603943 11.6217356,8.59500567 11.6553693,8.75342457 C11.6900913,8.91719074 12.2875172,9.35466679 12.4156259,9.4738058 C12.6462941,9.68839595 13.0845688,9.97325012 13.1200682,10.2440115 C13.1582624,10.532214 12.9884355,10.9264622 12.9024078,11.2045698 C12.6147334,12.1325947 12.3340551,12.9905056 12.0079273,13.817882" id="path130" fill="#231F20"></path>
                    <path d="M7.52277591,7.39352072 C7.55925993,7.34674467 7.75976661,7.2755811 8.04034121,7.4058644 C8.04034121,7.4058644 7.70778724,7.45933703 7.7354612,7.99396335 L7.59688409,7.96717706 C7.59688409,7.96717706 7.45369465,7.48242521 7.52277591,7.39352072" id="path132" fill="#F7E4CD"></path>
                    <path d="M9.95238407,11.9887184 C9.95235544,12.0698773 9.88411518,12.1356524 9.7999527,12.1356432 C9.71579021,12.135634 9.64755588,12.069844 9.64755588,11.9886851 C9.64755588,11.9075262 9.71575566,11.8417212 9.79991814,11.8416936 C9.84035883,11.8416804 9.87914713,11.8571662 9.90774301,11.8847415 C9.9363389,11.9123169 9.95239781,11.9497209 9.95238407,11.9887184" id="path134" fill="#1D1919"></path>
                    <path d="M10.1047982,12.6701196 C10.1047695,12.7512785 10.0365293,12.8170535 9.95236679,12.8170443 C9.86820431,12.8170351 9.79996998,12.7512451 9.79996998,12.6700862 C9.79996998,12.5889273 9.86816976,12.5231224 9.95233224,12.5230948 C9.99277293,12.5230816 10.0315612,12.5385674 10.0601571,12.5661427 C10.088753,12.5937181 10.1048119,12.6311221 10.1047982,12.6701196" id="path136" fill="#1D1919"></path>
                </g>
            </g>
        </g>
    </g>
</svg>