<?xml version="1.0" encoding="UTF-8"?>
<svg width="20px" height="20px" viewBox="0 0 20 20" version="1.1" xmlns="http://www.w3.org/2000/svg" xmlns:xlink="http://www.w3.org/1999/xlink">
    <title>Jira</title>
    <defs>
        <linearGradient x1="100%" y1="0%" x2="0%" y2="100%" id="linearGradient-1">
            <stop stop-color="#0084FF" offset="0%"></stop>
            <stop stop-color="#0084FF" offset="100%"></stop>
        </linearGradient>
        <linearGradient x1="100%" y1="0%" x2="50%" y2="50%" id="linearGradient-2">
            <stop stop-color="#0052D9" offset="0%"></stop>
            <stop stop-color="#0084FF" offset="100%"></stop>
        </linearGradient>
    </defs>
    <g id="Jira" stroke="none" stroke-width="1" fill="none" fill-rule="evenodd">
        <g>
            <polygon id="Frame" points="0 0 20 0 20 20 0 20"></polygon>
            <path d="M9.6,1 L18.4,1 C18.7313708,1 19,1.26862916 19,1.60000002 L19,10.4 L19,10.4 C16.8460895,10.4 15.1,8.65391052 15.1,6.5 L15.1,4.9 L15.1,4.9 L13.5,4.9 C11.3460895,4.9 9.6,3.15391052 9.6,1 L9.6,1 L9.6,1 Z" id="shape3" fill="url(#linearGradient-1)"></path>
            <path d="M5.3,5.3 L14.1,5.3 C14.4313708,5.3 14.7,5.56862916 14.7,5.90000002 L14.7,14.7 L14.7,14.7 C12.5460895,14.7 10.8,12.9539105 10.8,10.8 L10.8,9.2 L10.8,9.2 L9.2,9.2 C7.04608948,9.2 5.3,7.45391052 5.3,5.3 L5.3,5.3 L5.3,5.3 Z" id="shape2" fill="url(#linearGradient-2)"></path>
            <path d="M1,9.6 L9.79999998,9.6 C10.1313708,9.6 10.4,9.86862916 10.4,10.2 L10.4,19 L10.4,19 C8.24608948,19 6.5,17.2539105 6.5,15.1 L6.5,13.5 L6.5,13.5 L4.9,13.5 C2.74608948,13.5 1,11.7539105 1,9.6 L1,9.6 L1,9.6 Z" id="shape1" fill="url(#linearGradient-2)"></path>
        </g>
    </g>
</svg>