<?xml version="1.0" encoding="UTF-8"?>
<svg width="20px" height="20px" viewBox="0 0 20 20" version="1.1" xmlns="http://www.w3.org/2000/svg" xmlns:xlink="http://www.w3.org/1999/xlink">
    <title>Karmada</title>
    <g id="Karmada" stroke="none" stroke-width="1" fill="none" fill-rule="evenodd">
        <g>
            <polygon id="Frame" points="0 0 20 0 20 20 0 20"></polygon>
            <g id="karmada" transform="translate(1, 3)" fill-rule="nonzero">
                <path d="M0,9.99183673 L2.42724009,9.99183673 C2.63799717,9.73241393 2.83186288,9.45903133 3.00757785,9.17346487 C3.01742799,9.0160209 3.024,8.85773498 3.024,8.69776517 C3.02628062,6.76085942 2.2811441,4.90173996 0.951359914,3.52653061 C1.26635839,4.29672665 1.42822067,5.12369375 1.42745029,5.95891366 C1.42930459,7.43366024 0.923818128,8.86179263 0,9.99183673 L0,9.99183673 Z" id="Path" fill="#1791FF"></path>
                <path d="M1.40368376,10.9241093 L2.73228677,10.9241093 C2.78941343,10.7115877 2.84001133,10.4982359 2.88,10.2857143 L0,10.2857143 C0.532434924,10.3014966 1.03708538,10.5310115 1.40368376,10.9241093 L1.40368376,10.9241093 Z M2.42298668,11.8347976 C2.51112496,11.6156347 2.59273449,11.3931512 2.66210258,11.1656866 L1.59628223,11.1656866 C1.73590215,11.3681956 1.83795886,11.5949588 1.89742137,11.8347976 L2.42298668,11.8347976 Z M2.32505526,12.076375 L1.9423066,12.076375 C1.95367862,12.1630725 1.95967517,12.2504123 1.9602607,12.3378762 C1.96109142,12.538528 1.93304695,12.7382231 1.87701899,12.9306122 C2.04719952,12.6576912 2.19696706,12.3721406 2.32505526,12.076375 L2.32505526,12.076375 Z" id="Shape" fill="#51ADFF"></path>
                <path d="M14.976,9.99183673 L17.8882239,9.99183673 C18.2980273,7.63806094 17.5668212,5.22687334 15.9275837,3.52653061 C16.8118612,5.69486096 16.4449535,8.18772671 14.976,9.99183673 Z" id="Path" fill="#1791FF"></path>
                <path d="M16.3741844,10.9241093 L17.7139081,10.9241093 C17.7699329,10.7149083 17.8186501,10.5015566 17.856,10.2857143 L14.976,10.2857143 C15.5062208,10.3014216 16.0088427,10.530913 16.3741844,10.9241093 Z M17.4004939,11.8347976 C17.4906208,11.6164649 17.574252,11.3939813 17.6440801,11.1656866 L16.5641816,11.1656866 C16.7027777,11.3683801 16.8042891,11.5950821 16.8637925,11.8347976 L17.4004939,11.8347976 Z M17.2998117,12.076375 L16.90845,12.076375 C16.9194906,12.1630903 16.9251855,12.2504298 16.925501,12.3378762 C16.9268663,12.538447 16.8995113,12.7381422 16.8443056,12.9306122 C17.0150614,12.6568473 17.1672538,12.371432 17.2998117,12.076375 L17.2998117,12.076375 Z" id="Shape" fill="#51ADFF"></path>
                <path d="M3.024,9.99183673 L6.2790386,9.99183673 C6.43112029,9.8061523 6.57611573,9.61466522 6.71402492,9.41737551 C6.75021056,9.08706865 6.7682266,8.75497526 6.768,8.42263745 C6.77161613,6.03904838 5.84515248,3.75076208 4.19077721,2.05714286 C4.58282197,3.00555672 4.78408288,4.02380186 4.78275108,5.05213335 C4.78529096,6.85672383 4.1628474,8.60494539 3.024,9.99183673 Z" id="Path" fill="#1781FF"></path>
                <path d="M6.34160109,10.9355199 C6.39451832,10.7207419 6.44173677,10.5051216 6.48,10.2878168 L2.89791045,10.2878168 C2.89139756,10.2962395 2.88569878,10.2802364 2.88,10.2878168 C3.46240869,10.3064385 4.02009625,10.5356191 4.4561194,10.9355199 L6.34160109,10.9355199 Z M6.06968792,11.8594864 C6.15109905,11.6362857 6.21867028,11.409716 6.28054274,11.1806195 L4.68651289,11.1806195 C4.85720331,11.3839568 4.99718536,11.6128343 5.10170963,11.8594864 L6.06968792,11.8594864 Z M5.68949796,12.7826107 C5.79289009,12.5619368 5.89139756,12.3362093 5.97932157,12.104586 L5.19289009,12.104586 C5.26237245,12.3239855 5.30316858,12.5520168 5.31419267,12.7826107 L5.68949796,12.7826107 Z M5.3158209,13.0277103 C5.30664067,13.2438116 5.27191824,13.4579369 5.21242877,13.6653061 C5.33943012,13.4606353 5.45666214,13.2441728 5.5690095,13.0277103 L5.3158209,13.0277103 Z" id="Shape" fill="#51A1FF"></path>
                <path d="M11.376,9.99183673 L14.5087912,9.99183673 C14.7243029,9.72904484 14.9185865,9.44905912 15.0897548,9.15459887 C15.1085483,8.91337489 15.12,8.66966407 15.12,8.42263745 C15.1238792,6.03899517 14.1979824,3.75060961 12.5444641,2.05714286 C13.6412618,4.71649199 13.1910417,7.77380283 11.376,9.99183673 L11.376,9.99183673 Z" id="Path" fill="#1781FF"></path>
                <path d="M14.8361942,10.9355199 C14.8890278,10.7207419 14.9377972,10.5042794 14.976,10.2878168 L11.394695,10.2878168 C11.3881924,10.2962395 11.3825026,10.2802364 11.376,10.2878168 C11.9577277,10.3064558 12.5147848,10.5356213 12.9504412,10.9355199 L14.8361942,10.9355199 Z M14.5647108,11.8594864 C14.6459932,11.6362857 14.7126448,11.409716 14.7752323,11.1806195 L13.1869731,11.1806195 C13.3579237,11.3837129 13.4979849,11.6126335 13.6023265,11.8594864 L14.5647108,11.8594864 Z M14.1867473,12.7826107 C14.2899761,12.5619368 14.387515,12.3362093 14.4753001,12.104586 L13.69255,12.104586 C13.7617974,12.3240526 13.8027926,12.5520289 13.8144737,12.7826107 L14.1867473,12.7826107 Z M13.8152865,13.0277103 C13.8065002,13.2438529 13.7718249,13.4580262 13.7120578,13.6653061 C13.8388584,13.4614776 13.9559052,13.2441728 14.0672621,13.0277103 L13.8152865,13.0277103 Z" id="Shape" fill="#51A1FF"></path>
                <path d="M6.624,9.99183673 L10.8812341,9.99183673 C11.0221198,9.81990904 11.1560994,9.64241734 11.2831727,9.45936164 C11.3442293,8.97940131 11.3752302,8.49604682 11.376,8.01216444 C11.37964,5.01159223 10.2046562,2.1313643 8.10744347,0 C8.60436157,1.19290606 8.85963606,2.47376535 8.85828133,3.76738649 C8.8610639,6.04181458 8.07025174,8.24492609 6.624,9.99183673 Z" id="Path" fill="#2765FF"></path>
                <path d="M11.0997572,10.9196659 C11.1489451,10.7101557 11.1941012,10.4998239 11.232,10.2878489 L6.78493353,10.2878489 C6.77928902,10.2952434 6.77364451,10.2804544 6.768,10.2878489 C7.4052721,10.3078438 8.02080254,10.5285738 8.52989306,10.9196659 L11.0997572,10.9196659 Z M9.33221965,11.8209706 L10.8465607,11.8209706 C10.9167139,11.6024227 10.9820289,11.3822316 11.0392803,11.158754 L8.80728035,11.158754 C9.01020307,11.3548951 9.18671951,11.5775725 9.33221965,11.8209706 Z M10.5199855,12.7214536 C10.608685,12.5045489 10.6925462,12.2835362 10.7691503,12.0600587 L9.46365607,12.0600587 C9.56820609,12.27066 9.64934484,12.4925 9.70556358,12.7214536 L10.5199855,12.7214536 Z M9.7886185,13.6227583 L10.1030983,13.6227583 C10.2135694,13.4066752 10.3192023,13.1856625 10.417578,12.9605417 L9.75313873,12.9605417 C9.78131031,13.1332483 9.7956034,13.3080093 9.79587572,13.4830848 C9.79345665,13.5299165 9.79023121,13.5759266 9.7886185,13.6227583 L9.7886185,13.6227583 Z M9.7692659,13.8618464 C9.74839655,14.0441132 9.71197254,14.2241794 9.66040751,14.4 C9.77087861,14.225819 9.87409249,14.0450651 9.97408092,13.8618464 L9.7692659,13.8618464 Z" id="Shape" fill="#508AFF"></path>
            </g>
        </g>
    </g>
</svg>