<?xml version="1.0" encoding="UTF-8"?>
<svg width="20px" height="20px" viewBox="0 0 20 20" version="1.1" xmlns="http://www.w3.org/2000/svg" xmlns:xlink="http://www.w3.org/1999/xlink">
    <title>KLTS</title>
    <g id="KLTS" stroke="none" stroke-width="1" fill="none" fill-rule="evenodd">
        <g>
            <polygon id="Frame" points="0 0 20 0 20 20 0 20"></polygon>
            <path d="M1.49082031,13 C1.66074219,13 1.80869141,12.9399414 1.93466797,12.8198242 C2.06064453,12.699707 2.12363281,12.5444336 2.12363281,12.3540039 L2.12363281,9.87548828 L4.4703125,12.5913086 C4.54355469,12.6821289 4.60214844,12.7509766 4.64609375,12.7978516 C4.69003906,12.8447266 4.74716797,12.8894043 4.81748047,12.9318848 C4.88779297,12.9743652 4.95664063,12.9956055 5.02402344,12.9956055 L5.0328125,12.9956055 C5.19394531,12.9956055 5.33823242,12.9384766 5.46567383,12.8242188 C5.59311523,12.7099609 5.65683594,12.5737305 5.65683594,12.4155273 C5.65683594,12.2602539 5.59970703,12.1049805 5.48544922,11.949707 L3.42441406,9.65136719 L5.27890625,7.64306641 C5.39316406,7.50537109 5.45029297,7.36328125 5.45029297,7.21679688 C5.45029297,7.06445312 5.39023438,6.93481445 5.27011719,6.82788086 C5.15,6.72094727 5.01376953,6.66748047 4.86142578,6.66748047 C4.70322266,6.66748047 4.53183594,6.78173828 4.34726563,7.01025391 L2.12363281,9.53710938 L2.12363281,7.30908203 C2.12363281,7.11572266 2.06064453,6.95898438 1.93466797,6.83886719 C1.80869141,6.71875 1.66074219,6.65869141 1.49082031,6.65869141 C1.32089844,6.65869141 1.17368164,6.71875 1.04916992,6.83886719 C0.924658203,6.95898438 0.862402344,7.11572266 0.862402344,7.30908203 L0.862402344,12.3540039 C0.862402344,12.5473633 0.923925781,12.7033691 1.04697266,12.8220215 C1.17001953,12.9406738 1.31796875,13 1.49082031,13 Z M16.8620117,6.48291016 C17.280957,6.48291016 17.6881836,6.54223633 18.0836914,6.66088867 C18.4791992,6.77954102 18.7824219,6.9296875 18.9933594,7.11132812 C19.0841797,7.19335938 19.1295898,7.29882812 19.1295898,7.42773438 C19.1295898,7.55957031 19.0856445,7.67895508 18.9977539,7.78588867 C18.9098633,7.89282227 18.8043945,7.94628906 18.6813477,7.94628906 C18.6168945,7.94628906 18.546582,7.92578125 18.4704102,7.88476562 C17.9987305,7.61523438 17.4889648,7.48046875 16.9411133,7.48046875 C16.7594727,7.48046875 16.5946777,7.49291992 16.4467285,7.51782227 C16.2987793,7.54272461 16.1618164,7.58300781 16.0358398,7.63867188 C15.9098633,7.69433594 15.8117188,7.7734375 15.7414063,7.87597656 C15.6710938,7.97851562 15.6359375,8.1015625 15.6359375,8.24511719 C15.6359375,8.4296875 15.6894043,8.57983398 15.7963379,8.69555664 C15.9032715,8.8112793 16.0666016,8.90576172 16.2863281,8.97900391 C16.3009766,8.98486328 16.5148438,9.04785156 16.9279297,9.16796875 C17.3410156,9.28808594 17.5548828,9.35107422 17.5695313,9.35693359 C17.8625,9.45068359 18.1093262,9.54736328 18.3100098,9.64697266 C18.5106934,9.74658203 18.6908691,9.86816406 18.8505371,10.0117188 C19.0102051,10.1552734 19.128125,10.3244629 19.2042969,10.5192871 C19.2804688,10.7141113 19.3185547,10.9389648 19.3185547,11.1938477 C19.3185547,11.7856445 19.0907715,12.2536621 18.6352051,12.5979004 C18.1796387,12.9421387 17.5680664,13.1142578 16.8004883,13.1142578 C15.8454102,13.1142578 15.0851563,12.8945312 14.5197266,12.4550781 C14.4523438,12.4052734 14.4186523,12.3261719 14.4186523,12.2177734 C14.4186523,12.0742188 14.4706543,11.9328613 14.5746582,11.7937012 C14.6786621,11.654541 14.7936523,11.5849609 14.9196289,11.5849609 C14.9723633,11.5849609 15.0236328,11.5996094 15.0734375,11.6289062 C15.6212891,11.9570312 16.1955078,12.1210938 16.7960938,12.1210938 C17.1798828,12.1210938 17.4911621,12.0522461 17.7299316,11.9145508 C17.9687012,11.7768555 18.0880859,11.5732422 18.0880859,11.3037109 C18.0880859,11.0810547 18.0236328,10.9067383 17.8947266,10.7807617 C17.7658203,10.6547852 17.5651367,10.5478516 17.2926758,10.4599609 L15.8424805,9.9765625 C15.3415039,9.80371094 14.9804199,9.59057617 14.7592285,9.3371582 C14.5380371,9.08374023 14.4274414,8.74023438 14.4274414,8.30664062 C14.4274414,7.74707031 14.6537598,7.30322266 15.1063965,6.97509766 C15.5590332,6.64697266 16.1442383,6.48291016 16.8620117,6.48291016 Z M14.1538086,6.65869141 C14.2973633,6.65869141 14.4138184,6.70922852 14.5031738,6.81030273 C14.5925293,6.91137695 14.637207,7.02783203 14.637207,7.15966797 C14.637207,7.29443359 14.5932617,7.41162109 14.5053711,7.51123047 C14.4174805,7.61083984 14.300293,7.66064453 14.1538086,7.66064453 L12.7255859,7.66064453 L12.7255859,12.3452148 C12.7255859,12.5415039 12.6633301,12.7004395 12.5388184,12.8220215 C12.4143066,12.9436035 12.265625,13.0043945 12.0927734,13.0043945 C11.9228516,13.0043945 11.7756348,12.9436035 11.651123,12.8220215 C11.5266113,12.7004395 11.4643555,12.5415039 11.4643555,12.3452148 L11.4643555,7.66064453 L10.0317383,7.66064453 C9.88232422,7.66064453 9.76367188,7.61157227 9.67578125,7.51342773 C9.58789062,7.4152832 9.54394531,7.29882812 9.54394531,7.1640625 C9.54394531,7.02929688 9.58862305,6.91137695 9.67797852,6.81030273 C9.76733398,6.70922852 9.88525391,6.65869141 10.0317383,6.65869141 L14.1538086,6.65869141 Z M6.63359375,6.66748047 C6.80351562,6.66748047 6.95,6.72753906 7.07304687,6.84765625 C7.19609375,6.96777344 7.25761719,7.12597656 7.25761719,7.32226562 L7.26201172,11.9980469 L9.74052734,11.9980469 C9.88408203,11.9980469 9.99907227,12.048584 10.085498,12.1496582 C10.1719238,12.2507324 10.2151367,12.3686523 10.2151367,12.503418 C10.2151367,12.6352539 10.1719238,12.7509766 10.085498,12.8505859 C9.99907227,12.9501953 9.88408203,13 9.74052734,13 L6.63798828,13 C6.45048828,13 6.29667969,12.9245605 6.1765625,12.7736816 C6.05644531,12.6228027 5.99638672,12.4418945 5.99638672,12.230957 L5.99638672,7.32226562 C5.99638672,7.12597656 6.059375,6.96777344 6.18535156,6.84765625 C6.31132812,6.72753906 6.46074219,6.66748047 6.63359375,6.66748047 Z" id="形状结合" fill="#333333" fill-rule="nonzero"></path>
        </g>
    </g>
</svg>