<?xml version="1.0" encoding="UTF-8"?>
<svg width="20px" height="20px" viewBox="0 0 20 20" version="1.1" xmlns="http://www.w3.org/2000/svg" xmlns:xlink="http://www.w3.org/1999/xlink">
    <title>Kubespray</title>
    <g id="Kubespray" stroke="none" stroke-width="1" fill="none" fill-rule="evenodd">
        <g>
            <polygon id="Frame" points="0 0 20 0 20 20 0 20"></polygon>
            <g id="kubespray" transform="translate(0, 1)">
                <polygon id="Path" points="0 0 20 0 20 18 0 18"></polygon>
                <path d="M15.7387363,0.714136364 L16.4382831,1.10536364 C16.5145295,1.14804545 16.6383631,1.14804545 16.7146094,1.10536364 L17.4141562,0.714 C17.4904026,0.671863636 17.4904026,0.602181818 17.4141562,0.5595 L16.7146094,0.168272727 C16.6383631,0.125727273 16.5145295,0.125727273 16.4382831,0.168272727 L15.7387363,0.559636364 C15.6620901,0.602318182 15.6620901,0.671863636 15.7387363,0.714136364" id="Path" fill="#518DB5" fill-rule="nonzero"></path>
                <path d="M16.6472941,1.46863636 L16.6472941,2.23813636 C16.6472941,2.32745455 16.7091442,2.36495455 16.7853906,2.322 L17.4849374,1.93063636 C17.5614503,1.88822727 17.6230339,1.78131818 17.6230339,1.69213636 L17.6230339,0.922909091 C17.6230339,0.833863636 17.5614503,0.796090909 17.4849374,0.838772727 C17.2992535,0.942681818 16.9712077,1.12636364 16.7853906,1.23 C16.7091442,1.27268182 16.6472941,1.37959091 16.6472941,1.46863636" id="Path" fill="#3D647F" fill-rule="nonzero"></path>
                <path d="M16.8994935,2.59009091 C17.085044,2.69413636 17.4132231,2.87740909 17.598907,2.98145455 C17.6751533,3.02413636 17.7992535,3.02413636 17.8752333,2.98145455 L18.5750467,2.59009091 C18.6510264,2.54754545 18.6510264,2.47827273 18.5750467,2.43559091 L17.8752333,2.04422727 C17.7992535,2.00181818 17.6752866,2.00181818 17.598907,2.04422727 L16.8993602,2.43559091 C16.8229805,2.47827273 16.8229805,2.54754545 16.8993602,2.59009091" id="Path" fill="#518DB5" fill-rule="nonzero"></path>
                <path d="M17.8079179,3.34472727 L17.8079179,4.11422727 C17.8079179,4.20313636 17.8697681,4.24077273 17.946281,4.19809091 L18.6458278,3.80672727 C18.7220741,3.76390909 18.7839243,3.65727273 18.7839243,3.56809091 L18.7839243,2.79859091 C18.7839243,2.70995455 18.7220741,2.67218182 18.6458278,2.71472727 C18.4600107,2.81877273 18.1319648,3.00204545 17.946281,3.10609091 C17.8697681,3.14877273 17.8079179,3.25568182 17.8079179,3.34472727" id="Path" fill="#3D647F" fill-rule="nonzero"></path>
                <path d="M18.0101306,4.50490909 C18.1959477,4.60895455 18.5239936,4.79263636 18.7096774,4.89627273 C18.7859238,4.93895455 18.910024,4.93895455 18.986137,4.89627273 L19.6859504,4.50490909 C19.7619302,4.46263636 19.7619302,4.39309091 19.6859504,4.35040909 L18.986137,3.95904545 C18.9101573,3.9165 18.7859238,3.9165 18.7096774,3.95904545 L18.0101306,4.35040909 C17.933751,4.39309091 17.933751,4.46277273 18.0101306,4.50490909" id="Path" fill="#518DB5" fill-rule="nonzero"></path>
                <path d="M18.9188208,5.25954545 L18.9188208,6.02904545 C18.9185551,6.11822727 18.9806718,6.15586364 19.0570515,6.11277273 L19.7565982,5.72154545 C19.8328446,5.679 19.8946947,5.57209091 19.8946947,5.48290909 L19.8946947,4.71381818 C19.8946947,4.62463636 19.8328446,4.587 19.7565982,4.62954545 C19.5709144,4.73359091 19.2427353,4.91727273 19.0570515,5.02090909 C18.9806718,5.06359091 18.9188208,5.1705 18.9188208,5.25954545" id="Path" fill="#3D647F" fill-rule="nonzero"></path>
                <path d="M16.0242602,4.50490909 C16.209944,4.60895455 16.5382565,4.79263636 16.723807,4.89627273 C16.8000533,4.93895455 16.9240203,4.93895455 17.0002666,4.89627273 L17.6998134,4.50490909 C17.7760597,4.46263636 17.7760597,4.39309091 17.6998134,4.35040909 L17.0002666,3.95904545 C16.9240203,3.9165 16.8000533,3.9165 16.723807,3.95904545 L16.0242602,4.35040909 C15.9477473,4.39309091 15.9477473,4.46277273 16.0242602,4.50490909" id="Path" fill="#518DB5" fill-rule="nonzero"></path>
                <path d="M16.9330837,5.25954545 L16.9330837,6.02904545 C16.9328179,6.11822727 16.9949347,6.15586364 17.071181,6.11277273 L17.7707278,5.72154545 C17.8471074,5.679 17.9088243,5.57209091 17.9088243,5.48290909 L17.9088243,4.71381818 C17.9088243,4.62463636 17.8471074,4.587 17.7707278,4.62954545 C17.5849107,4.73359091 17.2568648,4.91727273 17.071181,5.02090909 C16.9949347,5.06359091 16.9330837,5.1705 16.9330837,5.25954545" id="Path" fill="#3D647F" fill-rule="nonzero"></path>
                <path d="M14.9000267,2.59009091 C15.0855772,2.69413636 15.4138896,2.87740909 15.5994401,2.98145455 C15.6756865,3.02413636 15.7997867,3.02413636 15.8760331,2.98145455 L16.5755798,2.59009091 C16.6518262,2.54754545 16.6518262,2.47827273 16.5755798,2.43559091 L15.8760331,2.04422727 C15.7997867,2.00181818 15.6756865,2.00181818 15.5994401,2.04422727 L14.8998934,2.43559091 C14.8235137,2.47827273 14.8235137,2.54754545 14.8998934,2.59009091" id="Path" fill="#518DB5" fill-rule="nonzero"></path>
                <path d="M15.8087168,3.34472727 L15.8087168,4.11422727 C15.8084511,4.20313636 15.8705678,4.24077273 15.9468142,4.19809091 L16.646361,3.80672727 C16.7227406,3.76390909 16.7844575,3.65727273 16.7844575,3.56809091 L16.7844575,2.79859091 C16.7844575,2.70995455 16.7227406,2.67218182 16.646361,2.71472727 C16.4605439,2.81877273 16.132498,3.00204545 15.9468142,3.10609091 C15.8705678,3.14877273 15.8087168,3.25568182 15.8087168,3.34472727" id="Path" fill="#3D647F" fill-rule="nonzero"></path>
                <path d="M13.9976006,4.50490909 C14.1834178,4.60895455 14.5114636,4.79263636 14.6972807,4.89627273 C14.7735271,4.93895455 14.897494,4.93895455 14.973607,4.89627273 L15.6734204,4.50490909 C15.7494002,4.46263636 15.7494002,4.39309091 15.6734204,4.35040909 L14.973607,3.95904545 C14.8976273,3.9165 14.7735271,3.9165 14.6972807,3.95904545 L13.9977339,4.35040909 C13.921221,4.39309091 13.921221,4.46277273 13.9977339,4.50490909" id="Path" fill="#518DB5" fill-rule="nonzero"></path>
                <path d="M14.9062914,5.25954545 L14.9062914,6.02904545 C14.9061584,6.11822727 14.9681418,6.15586364 15.0446548,6.11277273 L15.7442015,5.72154545 C15.8204479,5.679 15.8822981,5.57209091 15.8822981,5.48290909 L15.8822981,4.71381818 C15.8822981,4.62463636 15.8204479,4.587 15.7442015,4.62954545 C15.5583844,4.73359091 15.2303386,4.91727273 15.0446548,5.02090909 C14.9681418,5.06359091 14.9062914,5.1705 14.9062914,5.25954545" id="Path" fill="#3D647F" fill-rule="nonzero"></path>
                <path d="M6.56078379,5.67395455 C6.93668355,5.45168182 7.54585444,5.45168182 7.92242069,5.67395455 L10.133831,6.98018182 C10.2104772,7.02518182 10.2829912,7.08627273 10.3517729,7.15445455 L12.8739003,5.74431818 C13.3909624,5.45522727 13.3909624,4.98681818 12.8739003,4.69772727 L8.13942949,2.04954545 C7.62276726,1.76072727 6.78472407,1.76072727 6.26806185,2.04954545 L1.53319115,4.69772727 C1.01652893,4.98681818 1.01652893,5.45522727 1.53332445,5.74431818 C2.2108771,6.12286364 3.16808851,6.65836364 4.10383898,7.18145455 C4.18008531,7.10127273 4.26246334,7.03159091 4.3495068,6.98018182 L6.56078379,5.67395455 Z" id="Path" fill="#518DB5" fill-rule="nonzero"></path>
                <path d="M13.3533724,6.58772727 C12.6803519,6.96409091 11.7306052,7.49522727 10.8007198,8.01559091 C10.8097841,8.07340909 10.8145828,8.13054545 10.8145828,8.18631818 L10.8145828,10.7990455 C10.8145828,11.2430455 10.5101306,11.7825 10.133831,12.0045 L7.92242069,13.3108636 C7.85070648,13.3528636 7.76872834,13.3845 7.68368435,13.4106818 L7.68341776,16.0592727 C7.68341776,16.6618636 8.1023727,16.9157727 8.61890163,16.6266818 L13.353639,13.9778182 C13.8703013,13.6888636 14.2893895,12.9658636 14.2893895,12.3636818 L14.2893895,7.155 C14.2893895,6.55281818 13.8703013,6.29836364 13.3533724,6.58745455" id="Path" fill="#3D647F" fill-rule="nonzero"></path>
                <path d="M4.3495068,12.0045 C3.97360704,11.7825 3.66928819,11.2430455 3.66928819,10.7990455 L3.66928819,8.18631818 C3.66928819,8.13940909 3.67435351,8.09086364 3.6810184,8.04218182 C2.73220475,7.51172727 1.75646494,6.96586364 1.06918155,6.58131818 C0.55238603,6.29222727 0.133297787,6.54640909 0.133297787,7.14872727 L0.133297787,12.3559091 C0.133297787,12.9586364 0.55238603,13.6813636 1.06904825,13.9704545 L5.80378566,16.6194545 C6.32031458,16.9085455 6.73913623,16.6540909 6.73913623,16.0519091 L6.73886963,13.3921364 C6.67724433,13.3705663 6.61764192,13.3433656 6.56078379,13.3108636 L4.3493735,12.0046364 L4.3495068,12.0045 Z" id="Path" fill="#273945" fill-rule="nonzero"></path>
                <path d="M9.40282591,11.1441818 C8.98720341,10.9119545 8.30031991,10.5275455 7.80631832,10.2518182 C7.72367369,10.2051818 7.64502799,10.1615455 7.57544655,10.1225455 C7.37589976,10.011 7.05265263,10.011 6.85297254,10.1225455 L6.61916822,10.2531818 L5.02572647,11.1441818 C4.82617969,11.2555909 4.82617969,11.4362727 5.02572647,11.5483636 L6.73886963,12.5063182 L6.85297254,12.5704091 C7.05265263,12.6818182 7.37589976,12.6818182 7.57544655,12.5704091 L7.68355105,12.51 L9.40295921,11.5483636 C9.6023727,11.4362727 9.6023727,11.2555909 9.40269262,11.1441818" id="Path" fill="#518DB5" fill-rule="nonzero"></path>
                <path d="M6.49026926,9.43281818 C6.68954945,9.32140909 6.85137297,9.04227273 6.85137297,8.80990909 L6.85137297,6.79936364 C6.85137297,6.56659091 6.68981605,6.46868182 6.49040256,6.58022727 L4.76019728,7.54840909 L4.66315649,7.60268182 C4.46347641,7.71409091 4.30191949,7.99322727 4.30191949,8.22586364 L4.30191949,10.236 C4.30191949,10.4685 4.463743,10.5665455 4.66315649,10.455 C5.06811517,10.2280909 5.73087177,9.85772727 6.22140762,9.58322727 C6.31818182,9.52881818 6.41055718,9.47740909 6.49040256,9.43268182" id="Path" fill="#3D647F" fill-rule="nonzero"></path>
                <path d="M9.75993069,7.60581818 L9.65262597,7.54581818 L7.93228472,6.58336364 C7.73313783,6.47195455 7.57131432,6.56959091 7.57131432,6.8025 L7.57158091,8.57563636 L7.57158091,8.8125 C7.57158091,9.045 7.73340443,9.32413636 7.93268462,9.43568182 L8.20327913,9.58690909 C8.69381498,9.86140909 9.3552386,10.2310909 9.75993069,10.4577273 C9.95921088,10.5688636 10.1209011,10.4712273 10.1209011,10.2383182 L10.1209011,8.22872727 C10.1209011,7.99595455 9.95921088,7.71722727 9.75993069,7.60581818" id="Path" fill="#273945" fill-rule="nonzero"></path>
            </g>
        </g>
    </g>
</svg>