<?xml version="1.0" encoding="UTF-8"?>
<svg width="20px" height="20px" viewBox="0 0 20 20" version="1.1" xmlns="http://www.w3.org/2000/svg" xmlns:xlink="http://www.w3.org/1999/xlink">
    <title>Kylin</title>
    <g id="Kylin" stroke="none" stroke-width="1" fill="none" fill-rule="evenodd">
        <g>
            <polygon id="Frame" points="0 0 20 0 20 20 0 20"></polygon>
            <g id="Group-2" transform="translate(0.5, 0)">
                <path d="M3.98186619,3.95036252 C3.77024458,4.04258496 3.62859845,4.11913082 3.55692779,4.1800001 C3.44942181,4.27130402 3.36589422,4.32478341 3.19941716,4.4439328 C3.03294011,4.56308218 2.59636766,4.75581038 2.41815715,5.02826802 C2.23994664,5.30072566 2.25764095,5.28315061 2.12866076,5.54164226 C1.99968058,5.8001339 1.76290317,6.31016484 1.6477898,6.59724928 C1.57104755,6.78863891 1.4911229,6.98662296 1.40801584,7.19120142 C1.03645772,7.74798531 0.759431141,8.21130684 0.576936085,8.58116602 C0.303193502,9.13595477 0.207892456,9.17810032 0.125759927,9.36597724 C0.0436273972,9.55385416 -0.0318265933,9.63227838 0.0970439125,9.9800525 C0.225914418,10.3278266 0.48115088,10.9443009 0.608742839,11.2646293 C0.736334798,11.5849576 0.959642619,12.2282392 1.05985967,12.4636835 C1.12667103,12.6206463 1.22842934,12.8236871 1.36513459,13.0728057 C1.407257,13.4803714 1.45283008,13.8836977 1.50185386,14.2827846 C1.57538953,14.8814149 1.6682694,15.3675681 1.74721384,15.7613978 C1.79984346,16.023951 1.96214454,16.4435724 2.23411709,17.0202619 C1.898685,17.462054 1.71710576,17.7327406 1.68937938,17.8323217 C1.41627075,18.003445 0.670684447,18.9119825 0.490919416,19.2634595 C0.672040699,19.2668128 1.51612259,19.2668128 3.0231651,19.2634595 C3.02068157,19.0055973 3.03397989,18.8101361 3.06306004,18.6770759 C3.10668028,18.4774855 3.30850642,17.5654432 3.34866557,16.9186474 C3.50218638,16.6982514 3.6881406,16.4259674 3.90652823,16.1017955 C4.1192616,15.95374 4.32669548,15.6929821 4.52882986,15.3195216 C4.79631093,15.3304197 5.45705645,15.3689537 6.51106642,15.4351238 C6.68149621,15.3413573 6.83303535,15.2718039 6.96568383,15.2264636 C7.16465656,15.158453 7.87555275,14.8500637 8.37349978,14.5664241 C8.70546446,14.3773311 9.01875866,14.1895842 9.31338238,14.0031834 C9.90337837,14.3575853 10.2409041,14.5613086 10.3259595,14.6143533 C10.3931719,14.6562702 10.5477371,14.7813919 10.6894112,14.9545546 C10.714485,14.9852015 10.7370499,15.0390587 10.7571057,15.1161264 C10.3010932,15.6067437 10.0391718,15.91096 9.97134181,16.0287754 C9.86959677,16.2054985 9.21650809,16.9802728 8.98076934,17.2228055 C8.82361018,17.3844939 8.31887895,17.875328 7.46657567,18.6953078 L10.0763607,18.6770759 C10.0807069,18.0671338 10.1061072,17.70813 10.1525617,17.6000644 C10.2222434,17.4379659 10.5062188,17.2315337 10.6468583,17.1258978 C10.7874978,17.0202619 11.7747962,16.2056043 12.0978328,15.9439852 C12.3604094,16.1572361 12.599226,16.4821235 12.8142825,16.9186474 C12.2961904,17.7682461 11.9167604,18.3725016 11.6759927,18.7314138 C11.435225,19.0903259 11.190488,19.501224 10.9417817,19.9641079 L13.6324185,19.9641079 C13.5916602,19.3697915 13.5330858,18.9468581 13.4566954,18.6953078 C13.5422736,18.4077459 13.7281371,18.1394039 14.0142859,17.8902817 L15.2506155,16.6569324 C15.0779599,16.1369623 14.9064068,15.7171064 14.7359561,15.3973646 C14.48028,14.9177519 14.2906039,14.5957037 14.2541992,14.0031834 C14.2177945,13.410663 14.2216379,12.7629497 14.2216379,12.5772137 C14.2216379,12.3914778 14.1424335,11.9325186 14.3404736,11.8228955 C14.5385138,11.7132724 15.9409331,10.6570623 16.0115077,10.5966724 C16.0820823,10.5362824 16.2343541,10.6152094 16.4821493,10.6569583 C16.7299446,10.6987072 17.3756068,10.7034017 17.6859463,10.5966724 C17.8928394,10.5255195 18.2102465,10.4077192 18.6381678,10.2432715 C18.8793893,8.82923144 19,8.03271122 19,7.85371088 C19,7.67471054 18.9801558,7.45387405 18.9404675,7.19120142 L16.7732886,7.85371088 C16.712709,7.8694525 16.6660403,7.9036415 16.6332824,7.95627787 C16.6005246,8.00891425 16.1057912,8.77124547 15.1490824,10.2432715 L14.8342875,10.1463913 C14.3526723,10.6001286 14.0067167,10.8934869 13.7964209,11.026466 C13.5861251,11.1594452 13.2587456,11.3480624 12.8142825,11.5923175 C12.6054999,11.4548834 12.4232651,11.345654 12.2675779,11.2646293 C12.0340472,11.1430922 11.4706164,10.9449846 11.2551946,10.8522546 C11.0397728,10.7595246 10.1918569,10.3753564 9.97134181,10.3278266 C9.82433174,10.2961401 9.68947178,10.267955 9.56676193,10.2432715 L7.20708766,8.40230708 L7.13367465,8.17144396 L4.39343851,3.95036252 L3.98186619,3.95036252 Z" id="Path-8" fill="#0981E4"></path>
                <path d="M1.409586,18.0813489 C2.20007129,18.622894 2.74823026,18.8428966 3.05406291,18.7413569 L3.0231651,19.2634595 L0.490919416,19.2634595 C0.692760373,18.9005385 0.998982568,18.5065016 1.409586,18.0813489 Z" id="Dark-Navy-4" fill="#092D69"></path>
                <path d="M12.8142825,16.9186474 L13.0105836,16.9186474 L13.4994353,18.8116797 L11.4687634,19.9641079 L10.924494,19.9641079 C11.0650989,19.7015566 11.2938622,19.3174138 11.6107837,18.8116797 C12.1215612,18.0405334 12.5227275,17.4095226 12.8142825,16.9186474 Z" id="Dark-Navy-3" fill="#092D69"></path>
                <path d="M10.7571057,15.1161264 C10.5322383,15.3297745 10.3373743,15.538733 10.1725135,15.7430016 C9.92522242,16.0494047 9.57852684,16.5600043 9.23044345,16.9269929 C8.88236005,17.2939816 8.37464692,17.7704352 8.08235081,18.0533484 C7.88748674,18.2419571 7.67236819,18.4559436 7.43699517,18.6953078 L10.0684802,18.6953078 C10.1056872,18.1725208 10.1242906,17.8544026 10.1242906,17.7409532 C10.1242906,17.6275038 10.1841092,17.5155678 10.3037463,17.4051454 L10.7126935,17.0714908 L10.7571057,15.1161264 Z" id="Dark-Navy-2" fill="#092D69"></path>
                <path d="M1.74721384,15.7613978 L2.11164268,15.0398203 L2.65216098,14.140015 L6.54532747,12.9904619 L6.52762403,15.4346871 L4.54022978,15.3195166 L3.86845331,16.1725999 L3.34866557,16.9186474 C2.97176012,16.5825916 2.68527033,16.3504126 2.4891962,16.2221105 C2.29312207,16.0938084 2.04579461,15.9402375 1.74721384,15.7613978 Z" id="Dark-Navy-1" fill="#092D69"></path>
                <polygon id="Navy-Blue-10" fill="#064FB0" points="3.98186619 3.95036252 4.39343851 3.60576215 5.75601756 5.34078769 5.18442207 7.36736787 4.91676366 7.64310154 4.39343851 3.95036252"></polygon>
                <path d="M7.13367465,6.83450541 L5.50784646,7.85371088 L5.18442207,8.21169894 L6.78914505,8.21169894 L9.16703319,10.1144874 L9.5657244,10.3278266 C9.57380267,10.2091907 9.53470757,10.110245 9.44843907,10.0309895 C9.31903633,9.9121062 8.18343723,9.07926706 7.89591621,8.8683249 C7.60839518,8.65738274 7.13367465,8.25341102 7.13367465,8.17144396 C7.13367465,8.11679926 7.13367465,7.67115308 7.13367465,6.83450541 Z" id="Navy-Blue-9" fill="#064FB0"></path>
                <path d="M1.39888905,7.19120142 C1.78028923,7.4202381 1.99988601,7.57087148 2.05767939,7.64310154 C2.14436947,7.75144664 2.0920736,7.83110585 2.01925767,7.91150151 C1.94644175,7.99189717 1.12261519,8.71976014 1.00041648,8.81633632 C0.918950677,8.88072044 0.637347058,9.13490481 0.155605623,9.57888944 C0.63152034,9.83291854 0.939317128,9.96855082 1.07899599,9.98578629 C1.28851428,10.0116395 2.17354842,10.2122425 2.24763613,10.2700345 C2.29702793,10.3085626 1.99981849,11.2428196 1.3560078,13.0728057 C1.11642141,12.6130972 0.941973426,12.2129891 0.83266385,11.8724812 C0.668699486,11.3617194 0.028319813,10.0191749 0.00122016614,9.68534381 C-0.0123725008,9.54846477 0.0876016999,9.32781969 0.301142768,9.02340858 C0.546730781,8.62316771 0.703804105,8.35417846 0.772362739,8.21644084 C0.840921373,8.07870321 1.04976348,7.73695674 1.39888905,7.19120142 Z" id="Navy-Blue-8" fill="#0649A9"></path>
                <path d="M2.65216098,14.140015 C2.70256088,14.0156021 2.79103538,13.9225992 2.91758448,13.8610061 C3.10740812,13.7686165 3.87323765,13.5522563 4.52882986,13.3585762 C5.18442207,13.1648961 6.30919409,12.8212702 6.56847809,12.8212702 C6.7413341,12.8212702 6.8055665,12.8212702 6.7611753,12.8212702 C6.53188253,12.9868819 6.34832717,13.1659839 6.21050923,13.3585762 C6.07269129,13.5511685 5.5121315,14.1978813 4.52882986,15.2987148 C4.24390781,15.9541003 3.8449116,16.2817931 3.3318412,16.2817931 C3.25957975,15.7140186 3.12149418,15.1130655 2.91758448,14.4789337 L2.65216098,14.140015 Z" id="Navy-Blue-7" fill="#0649A9"></path>
                <path d="M7.07392793,12.8212702 C7.89044007,12.7690345 8.45691069,12.7429166 8.77333978,12.7429166 C9.08976887,12.7429166 9.38953416,12.7690345 9.67263566,12.8212702 L9.51388669,13.9047403 C10.3234867,13.7332232 10.8412287,13.6474646 11.0671126,13.6474646 C11.2929966,13.6474646 11.5830707,13.6474646 11.9373349,13.6474646 C11.2857423,14.4103778 10.9599459,14.8150138 10.9599459,14.8613727 C10.9599459,14.9309109 10.9981896,15.0199199 11.1322325,15.1297689 C11.2215944,15.2030016 11.5434611,15.474407 12.0978328,15.9439852 L10.7126935,17.0714908 C10.6248175,17.0250885 10.5513693,16.970934 10.4923487,16.9090271 C10.4038179,16.8161668 10.2997598,16.6570624 10.4110005,16.4175147 C10.5222412,16.1779671 10.7599933,15.3571544 10.7599933,15.0887582 C10.7284601,14.9371678 10.5071409,14.7321424 10.0960357,14.4736817 L8.9692898,13.8103895 L7.07392793,12.8212702 Z" id="Navy-Blue-6" fill="#0649A9"></path>
                <path d="M1.409586,18.0813489 C1.58649653,17.888529 1.78907442,17.7437409 2.01731966,17.6469845 C2.2455649,17.5502281 2.68934687,17.3074491 3.34866557,16.9186474 C3.29590061,17.5092827 3.24113041,17.9260844 3.18435497,18.1690526 C3.09919181,18.5335048 3.10400528,18.5529696 3.05406291,18.7413569 C2.92438332,18.8284924 2.81969884,18.9168754 2.74000946,19.0065061 C2.2757672,18.796957 1.96197985,18.6115364 1.79864742,18.4502443 C1.63531499,18.2889523 1.50562785,18.1659871 1.409586,18.0813489 Z" id="Navy-Blue-5" fill="#0649A9"></path>
                <path d="M11.4467506,19.9641079 C11.4209161,19.8938881 11.4935368,19.7504703 11.6646127,19.5338545 C11.9212267,19.2089307 12.4429252,18.7413569 13.4665178,18.7413569 C13.5862839,19.1928201 13.6324185,19.7351692 13.6324185,19.9641079 C13.1891128,20.011964 12.4605569,20.011964 11.4467506,19.9641079 Z" id="Navy-Blue-4" fill="#0649A9"></path>
                <path d="M17.4190771,9.24096892 C17.4334662,9.59788552 17.38698,10.1247347 17.2796184,10.8215164 C16.7606298,10.7545618 16.3582481,10.6630677 16.0724732,10.547034 C16.6152913,9.96444512 16.6122893,9.99758521 16.6852751,9.90407861 C16.7582609,9.81057201 17.2210155,9.35119985 17.4190771,9.24096892 Z" id="Navy-Blue-3" fill="#0F489E"></path>
                <path d="M15.3167137,9.94225712 C15.7799097,10.3785339 16.0115077,10.5966724 16.0115077,10.5966724 C16.0115077,10.5966724 14.9384835,11.4315029 14.7449303,11.5567066 C14.6158947,11.6401758 14.4702665,11.7383423 14.3080455,11.8512063 L15.106739,10.2602458 L15.3167137,9.94225712 Z" id="Navy-Blue-2" fill="#0F489E"></path>
                <path d="M14.0728596,12.0163751 C14.1600837,12.3132549 14.2332531,12.9616145 14.2332531,13.1303977 C14.2332531,13.299181 14.2401299,14.013899 14.3080455,14.3687882 C14.3759611,14.7236773 15.1414819,16.0956328 15.2506155,16.6569324 C14.1004791,16.5979767 13.1042401,16.805578 13.0604721,16.8411707 C13.0312935,16.8648992 12.9733965,16.9112132 12.8867812,16.980113 C12.9100202,16.8434413 12.9679172,16.688041 13.0604721,16.5139121 C13.1993045,16.2527187 13.9742314,15.0282286 14.0265079,14.9072037 C14.0787845,14.7861788 14.1506619,14.5087391 14.1038425,14.4028922 C14.057023,14.2970452 13.8040375,14.0935652 13.6646259,14.0471233 C13.5252144,14.0006814 12.7864156,13.6047863 12.6421484,13.5201804 C12.5459702,13.4637764 12.4459313,13.404929 12.3420316,13.343638 C12.933326,12.9355177 13.5102687,12.4930967 14.0728596,12.0163751 Z" id="Navy-Blue-1" fill="#0649A9"></path>
                <path d="M6.47988492,1.52321321 C6.38736985,1.57016704 6.12092208,1.81342289 5.6805416,2.25298073 C5.24016112,2.69253858 4.81112676,3.14346572 4.39343851,3.60576215 L5.75601756,5.34078769 L7.9740373,3.18338881 L8.59668567,1.18934859 C8.21110338,1.12975448 7.88877768,1.27596273 7.62970857,1.62797335 C7.24110489,2.15598927 7.10597982,2.39466778 6.56608571,2.74527526 C6.50861852,2.29085554 6.47988492,1.88350152 6.47988492,1.52321321 Z" id="Sky-Blue-5" fill="#0A8AE3"></path>
                <polygon id="Sky-Blue-4" fill="#0997F8" points="5.75601756 5.34078769 5.18442207 7.36736787 5.50784646 7.85371088 8.65815776 5.88984713"></polygon>
                <path d="M4.66335529,5.88984713 C4.03950339,5.41720723 3.57208295,5.165236 3.26109395,5.13393343 C2.95010495,5.10263085 2.78402054,5.10263085 2.76284073,5.13393343 C2.84743984,5.48998904 2.96173212,5.77916708 3.10571755,6.00146757 C3.3216957,6.33491831 4.02403977,7.22198589 4.22427171,7.43254372 C4.28947256,7.50110695 4.43583375,7.64149601 4.66335529,7.85371088 L4.91676366,7.64310154 L4.66335529,5.88984713 Z" id="Sky-Blue-3" fill="#0993F8"></path>
                <path d="M4.82459482,8.21644084 C4.13328463,7.87101877 3.52638978,7.71804492 3.00391025,7.75751928 C2.22019097,7.81673082 2.22989763,8.44618665 2.22989763,8.79759275 C2.22989763,9.14899885 2.43816978,10.0646021 2.43816978,10.2360736 C2.43816978,10.3611595 2.4038164,11.9754301 2.56918392,12.9410579 C2.63489267,13.3247499 2.83871476,13.5302363 3.00391025,13.6474646 C3.94224676,12.9183221 4.98594745,12.1883404 5.47039908,11.7834367 C5.68003155,11.6082264 6.02158589,11.2479114 6.49506209,10.702492 C6.78895091,10.0601826 6.88813586,9.23149889 6.79261694,8.21644084 C6.35689335,8.21644084 5.70088597,8.21644084 4.82459482,8.21644084 Z" id="Sky-Blue-2" fill="#0896F8"></path>
                <path d="M6.49506209,10.6994556 C7.03810918,10.6736481 7.44377651,10.6311961 7.71206409,10.5720998 C7.98035167,10.5130034 8.47278651,10.3663047 9.1893686,10.1320036 L9.56676193,10.3278266 L12.7488833,11.5994572 C12.9072678,11.5378075 13.0291848,11.4823912 13.1146344,11.4332081 C13.4035143,11.2669346 13.7033973,11.0731911 14.0142832,10.8519776 L14.8342875,10.1463913 L15.1199886,10.2374079 C14.8973294,10.6820205 14.7429028,10.9889441 14.6567086,11.1581786 C14.4694471,11.5258498 14.35245,11.7755817 14.3080455,11.8512063 C14.2473712,11.9613188 14.2183582,12.3235211 14.2210063,12.937813 C14.2019091,12.7355063 14.1813391,12.5658024 14.1592963,12.4287012 C14.1372535,12.2916 14.1084413,12.154158 14.0728596,12.0163751 C13.8541884,11.8906506 13.6682206,11.8084103 13.5149563,11.769654 C13.3901811,11.7381018 13.1821808,11.7231502 12.8909554,11.724799 C12.8699328,11.8574083 12.8460844,11.9546003 12.8194102,12.0163751 C12.6692621,12.459179 12.5101359,12.9016 12.3420316,13.343638 C12.1485907,13.3807276 11.9505251,13.3807276 11.7478348,13.343638 C11.5451445,13.3065484 10.9125032,13.0793155 9.84991089,12.6619395 L9.51388669,12.6619395 C8.44154024,11.9508851 7.81707118,11.5488078 7.64047951,11.4557078 C7.46388784,11.3626078 7.08208203,11.1105237 6.49506209,10.6994556 Z" id="Sky-Blue-1" fill="#0799F0"></path>
                <polygon id="Bright-Blue-7" fill="#31DAF9" points="7.9740373 3.18338881 5.75601756 5.34078769 8.65815776 5.88984713"></polygon>
                <path d="M8.65815776,5.88984713 L7.13367465,6.83450541 L7.13367465,8.17144396 C7.40711855,7.81106296 7.6703747,7.44149677 7.92344311,7.06274539 C8.17651152,6.68399401 8.4214164,6.29302793 8.65815776,5.88984713 Z" id="Bright-Blue-6" fill="#3BD8F7"></path>
                <path d="M4.84964111,8.21644084 L5.03142922,8.21644084 C5.36883228,8.81864825 5.57394777,9.17752938 5.64677568,9.29308422 C5.75601756,9.46641648 6.44623346,10.6027619 6.49506209,10.6994556 C6.08624602,10.6534765 5.31177431,10.5820928 4.17164698,10.4853045 C3.3697293,10.3524651 2.90012721,10.2807533 2.76284073,10.270169 C2.62555424,10.2595848 2.51733059,10.2482196 2.43816978,10.2360736 C2.87892909,9.83888022 3.16128207,9.59212552 3.28522874,9.49580946 C3.37756811,9.42405468 3.65434244,9.22525241 4.20317501,8.77090438 C4.3284167,8.66722373 4.5439054,8.48240255 4.84964111,8.21644084 Z" id="Bright-Blue-5" fill="#31DAFB"></path>
                <path d="M6.49506209,10.6994556 L6.77478131,12.6810734 C7.3259386,12.7223022 7.796821,12.7429166 8.18742851,12.7429166 C8.57803602,12.7429166 9.02018875,12.7159242 9.51388669,12.6619395 L6.49506209,10.6994556 Z" id="Bright-Blue-4" fill="#31DAFC"></path>
                <path d="M9.56676193,10.2609677 C9.61703937,10.2609677 9.67476501,10.2609677 9.73993887,10.2609677 C9.83769967,10.2609677 10.6432922,10.5548639 10.9074531,10.6759422 C11.1716141,10.7970206 11.4885249,10.9600423 11.7585124,11.0429719 C12.0284998,11.1259015 12.6352064,11.4464292 12.8142825,11.5923175 C12.1950715,11.8556429 9.98796574,12.615673 9.95521943,12.6310429 C9.93338856,12.6412894 9.8512689,12.6412894 9.70886046,12.6310429 L9.56676193,10.2609677 Z" id="Bright-Blue-3" fill="#38D6FB"></path>
                <path d="M12.8909554,11.7247928 C13.522101,11.7246514 13.9160691,11.8218455 14.0728596,12.0163751 C13.6658215,12.3651781 12.3613916,13.3158208 12.3420316,13.343638 C12.3291249,13.3621828 12.3209324,13.351522 12.3174542,13.3116557 C12.6468362,12.5106576 12.8206076,12.0788974 12.8387683,12.0163751 C12.8569291,11.9538529 12.8743248,11.8566588 12.8909554,11.7247928 Z" id="Bright-Blue-2" fill="#38D6FB"></path>
                <path d="M16.7470506,7.82491099 C16.8299111,7.77502867 17.106817,7.6783857 17.5777684,7.53498209 C18.0487198,7.39157848 18.5030145,7.26557253 18.9406525,7.15696425 C18.8963011,7.25676895 18.7385958,7.49068973 18.4675364,7.85872658 C18.196477,8.22676344 17.9319101,8.56619217 17.6738356,8.8770128 C17.6360172,8.87374411 17.5070572,8.74717836 17.2869558,8.49731556 C17.0668544,8.24745276 16.886886,8.0233179 16.7470506,7.82491099 Z" id="Bright-Blue-1" fill="#38D6FB"></path>
                <path d="M8.00052926,1.37409505 C8.0766059,1.1401511 8.18082542,0.941974751 8.31318783,0.779566016 C8.44555024,0.617157282 8.70007686,0.357301943 9.07676769,0 C8.9973532,0.257499615 8.93943542,0.427423678 8.90301434,0.50977219 C8.86659326,0.592120702 8.7644837,0.81864617 8.59668567,1.18934859 L8.00052926,1.37409505 Z" id="Path-29" fill="#5692B7"></path>
            </g>
        </g>
    </g>
</svg>