<?xml version="1.0" encoding="UTF-8"?>
<svg width="20px" height="20px" viewBox="0 0 20 20" version="1.1" xmlns="http://www.w3.org/2000/svg" xmlns:xlink="http://www.w3.org/1999/xlink">
    <title>Kylin mini</title>
    <g id="Kylin-mini" stroke="none" stroke-width="1" fill="none" fill-rule="evenodd">
        <g id="Apache-Kylin-mini" transform="translate(0, -0)">
            <polygon id="Frame" points="0 0 20 0 20 20 0 20"></polygon>
            <path d="M11.6479159,0 C11.8888149,0 12.2345781,0.16953259 12.406209,0.37185938 C12.7224562,0.744703226 12.8568449,1.22964485 12.9207584,2.27855023 L12.933416,2.51211244 C12.9655218,3.18094152 13.0004952,3.51703029 13.0773168,3.85102196 L13.1045274,3.9627284 C13.2754528,4.62872555 13.3822103,4.8467356 13.9557459,5.43284411 L14.255532,5.73246454 C15.3012876,6.76231749 15.6141485,7.25710717 15.8065598,8.18531728 C15.9604119,8.92769359 15.8729225,9.80700007 15.5783599,10.4789935 C15.2426762,11.2446341 14.4808912,12.1181248 13.6073315,12.7517809 L13.3867949,12.9049972 C12.8586195,13.2555939 12.2719127,13.5631123 10.8038825,14.2182663 L7.88110133,15.4955259 C7.48410687,15.6710676 7.14837047,15.823681 7.02702306,15.8846667 C5.84253889,16.4807157 4.73347996,17.6083759 4.3063268,18.6520369 C4.18360685,18.9514039 4.15755436,19.0969641 4.1384864,19.589836 C4.13291737,19.7337964 4.1331073,19.8703241 4.13959285,20.001105 L0.667853706,20.0004641 C0.664189507,19.9119806 0.662325525,19.8241877 0.662325525,19.737314 C0.662325525,19.0591836 1.01867131,17.7543197 1.42600611,16.9411769 C2.02421294,15.7463941 2.86832146,14.9064023 4.04857258,14.3310654 C4.75630422,13.9858633 5.64069322,13.7559748 6.41660129,13.7091503 L6.70192487,13.7003045 C6.88036714,13.7003045 7.00170172,13.6706171 7.07924349,13.6079437 C7.1836074,13.5237144 7.18835996,13.4995311 7.13319563,13.3329327 C7.0501509,13.0820859 6.69603708,12.7719793 6.34200023,12.6398436 L6.19574742,12.5907872 C5.94189909,12.5150399 5.62324517,12.4672053 5.02472531,12.4149802 L4.63030901,12.3828598 C4.25010421,12.3536711 3.82622204,12.2964059 3.68845553,12.2556145 C3.33095527,12.1497333 2.98211352,11.9130973 2.81683219,11.6641682 C2.71413401,11.5094848 2.68278196,11.4232782 2.67596858,11.2252382 L2.67439008,11.116064 C2.67443463,10.8579775 2.69297763,10.7624326 2.82160213,10.5172305 L2.88373361,10.402071 C3.03020674,10.13569 3.1119575,9.95129455 3.20585724,9.64831677 L3.30665372,9.29838312 C3.35656522,9.11598216 3.38581174,9.08282358 3.49629433,9.08282358 C3.55377144,9.08282358 3.65634362,9.12480016 3.74728614,9.18262473 L3.81242615,9.2285564 C4.431221,9.71471604 6.31954582,10.3514221 7.14499044,10.3514221 C7.66604034,10.3514221 7.91040273,10.2761489 8.10454576,10.0558908 C8.2417158,9.90016628 8.25622362,9.85471467 8.22741964,9.67137399 C8.17425639,9.33307593 7.92841243,8.87261467 7.66057585,8.6100693 C7.36137623,8.3166475 6.75605018,8.00807518 6.1876671,7.85925471 C5.92873642,7.79143072 5.6888898,7.76014179 5.31654526,7.74921676 L4.82555933,7.74456173 C4.4463292,7.74921686 4.31384651,7.78752949 4.09139177,7.95684326 L3.92606428,8.09019492 C3.59069133,8.36942507 3.48024723,8.34430203 3.10658442,7.90301867 C2.1708881,6.79818015 1.73584608,5.65153382 2.00695365,5.00523876 C2.07626983,4.83993901 2.161028,4.77716859 2.57710598,4.69367073 L3.5113318,4.52550298 C3.71433891,4.48727229 3.93948948,4.44358715 4.15765237,4.40005033 L4.57602977,4.31483455 C6.49533282,3.91479565 7.6079739,3.76775888 8.90484085,3.75268017 L9.67334984,3.74872472 C10.3810583,3.73497972 10.4616038,3.65771837 10.7276125,3.26215991 C11.1172899,2.68275145 11.2774398,2.11854005 11.3008319,1.19996935 L11.3098088,0.555055986 C11.3283072,0.0687460106 11.3994696,0 11.6479159,0 Z M17.2044858,6.39699777 C17.2634407,6.39699777 17.60778,6.854007 17.8675353,7.27707136 C19.1982521,9.44417347 19.6548442,12.345789 19.0125751,14.5531646 C18.4112897,16.6205417 17.0018767,18.2353205 15.25863,18.8528487 C14.627136,19.0768465 14.1480318,19.1527909 13.3924325,19.1487636 C12.7698375,19.1454746 12.4219849,19.1042739 11.8469358,18.949283 L11.5851129,18.8756704 C10.5957338,18.5880019 9.85899078,18.5605775 9.05875205,18.7813535 C8.32701175,18.9834885 7.95892887,19.2772938 7.81231143,19.7763027 C7.79113803,19.8484227 7.77743743,19.9231708 7.77110966,19.9999006 L4.78792605,20.0003568 C4.72569991,19.5170792 4.75567384,19.0388322 4.88927542,18.6518643 C5.01753681,18.2803885 5.21425816,17.9861996 5.55251729,17.6605589 C6.04456804,17.1867691 7.5467621,16.413393 10.4431364,15.1454325 L11.8175808,14.5421914 C12.504717,14.2347849 12.8706751,14.0538065 13.2011665,13.858177 L13.3647794,13.7584883 L13.6164763,13.5958041 C15.7780114,12.162599 17.0610833,9.85560096 17.1534247,7.25774203 L17.1626679,6.74627218 C17.1698266,6.54155115 17.1860144,6.39699777 17.2044858,6.39699777 Z M9.69921241,19.0814875 C10.1175916,19.0821779 10.3997551,19.2113042 10.7124815,19.5584267 L10.8180843,19.682331 C10.9182498,19.8058969 11.0154904,19.9120222 11.1121519,20.0023945 L9.46432553,20 L9.33028007,19.7527707 C9.23222155,19.5624691 9.16604061,19.4085346 9.16604061,19.363019 C9.16604061,19.1748839 9.3441173,19.0809122 9.69921241,19.0814875 Z" id="Shape" fill="#F09D13" fill-rule="nonzero"></path>
        </g>
    </g>
</svg>