<?xml version="1.0" encoding="UTF-8"?>
<svg width="20px" height="20px" viewBox="0 0 20 20" version="1.1" xmlns="http://www.w3.org/2000/svg" xmlns:xlink="http://www.w3.org/1999/xlink">
    <title>Metal-lb</title>
    <g id="Metal-lb" stroke="none" stroke-width="1" fill="none" fill-rule="evenodd">
        <g id="metal-lb">
            <polygon id="Frame" points="0 0 20 0 20 20 0 20"></polygon>
            <path d="M10,1 C14.9705627,1 19,5.02943725 19,10 C18.9944068,14.9682441 14.9682441,18.9944068 10,19 C5.02943725,19 1,14.9705627 1,10 C1,5.02943725 5.02943725,1 10,1 Z M10,1.95897709 C5.55906567,1.95897709 1.95897709,5.55906567 1.95897709,10 C1.95897709,14.4409343 5.55906567,18.0410229 10,18.0410229 C14.4409343,18.0410229 18.0410229,14.4409343 18.0410229,10 C18.0360023,5.56114693 14.4388531,1.96399768 10,1.95897709 Z M9.9572456,3.89867968 C10.3894246,3.89339371 10.4967501,4.2036228 10.6314864,4.51457112 C12.0727224,7.84104955 13.5160362,11.1666223 14.9614278,14.4912893 C15.0025839,14.586228 15.0370272,14.6841236 15.1116676,14.8756793 C13.2355887,13.7921151 11.4410229,12.7557805 9.64669686,11.7190464 C8.81838039,11.2404369 7.99493873,10.7529568 7.15942994,10.2873735 C6.92368141,10.1559137 6.8917155,10.04691 7.00319659,9.79485882 C7.77677144,8.04536494 8.52956846,6.28668087 9.29011721,4.53143314 C9.42189664,4.2274374 9.52538625,3.90410229 9.9572456,3.89867968 Z M7.09461907,10.4825253 C7.952504,11.0034097 8.82900906,11.4937666 9.75466169,12.0282365 L4.89880128,14.8366809 L6.6415024,10.6269313 C6.75194459,10.3672083 6.84057006,10.3282898 7.09461907,10.4825253 Z" id="Combined-Shape" fill="#3F51B4" fill-rule="nonzero"></path>
        </g>
    </g>
</svg>