<?xml version="1.0" encoding="UTF-8"?>
<svg width="20px" height="20px" viewBox="0 0 20 20" version="1.1" xmlns="http://www.w3.org/2000/svg" xmlns:xlink="http://www.w3.org/1999/xlink">
    <title>Openshift</title>
    <g id="Openshift" stroke="none" stroke-width="1" fill="none" fill-rule="evenodd">
        <g>
            <polygon id="Frame" points="0 0 20 0 20 20 0 20"></polygon>
            <g id="openshift" transform="translate(0, 0.5)" fill-rule="nonzero">
                <path d="M5.80735673,8.53951968 L2.59582096,9.73797974 C2.63703159,10.2660349 2.72563944,10.7876428 2.85046875,11.2987101 L5.90085399,10.1594004 C5.80306605,9.63134528 5.76814177,9.08589295 5.80805522,8.53941733" id="Path" fill="#DA2430"></path>
                <path d="M19.9999002,4.89744349 C19.775886,4.42362657 19.5168477,3.96567177 19.2166986,3.53411972 L16.0060608,4.73257976 C16.3797505,5.12452767 16.6930711,5.56508531 16.9496147,6.03624148 L20,4.89723882 L19.9999002,4.89744349 L19.9999002,4.89744349 Z" id="Path" fill="#DA2430"></path>
                <g id="Group">
                    <path d="M14.3030896,4.87802681 C13.8991253,4.51850929 13.4428964,4.20826267 12.9350603,3.96531359 L12.9348607,3.96531359 C9.95332621,2.53976937 6.39604018,3.86604741 5.00605436,6.92487847 C4.92771135,7.0974742 4.85832777,7.27192451 4.7975073,7.4477397 C4.62401992,7.96539732 4.52267695,8.49464219 4.48390072,9.02304048 L4.4725907,9.02732726 C4.47229474,9.03119858 4.4720022,9.0350699 4.47171309,9.03894114 L2.53891138,9.76023956 L1.29521203,10.2316324 C1.29503329,10.2292791 1.29485537,10.2269259 1.2946783,10.2245724 L1.26057644,10.2372988 C1.13983826,8.67093993 1.39727999,7.05290115 2.0898781,5.52972812 C2.18055463,5.33024173 2.27722629,5.13553822 2.37957147,4.9457377 C4.66275367,0.584332935 9.85788421,-1.23868299 14.2392832,0.889531128 C15.1461139,1.33021348 15.9502588,1.90798617 16.6404954,2.58788096 C17.1048821,3.02845549 17.5193621,3.51374061 17.8806358,4.03377655 L14.6697985,5.23244127 C14.6532757,5.21512149 14.6366487,5.19788819 14.6199178,5.18074298 L14.6110291,5.18411322 C14.5121334,5.07877926 14.4094825,4.97663613 14.3030896,4.87802681 Z" id="Path" fill="#DA2430"></path>
                    <path d="M1.43985151,15.5514605 L1.43478865,15.5533507 C0.766737325,14.5886267 0.280491753,13.5047833 0,12.364041 L3.05098393,11.2244242 L3.0511835,11.224629 C3.05181201,11.227996 3.05244322,11.2313625 3.05307715,11.2347284 L3.07288876,11.2272138 L3.07334789,11.2284695 C3.23005609,12.0795909 3.55626353,12.8915383 4.03188662,13.6054618 C4.21323427,13.8708745 4.41587011,14.1224672 4.63874089,14.3571421 L4.62662395,14.361666 C4.6342947,14.3699661 4.64198989,14.3782457 4.64970947,14.3865044 L1.46806084,15.5930557 C1.4586211,15.5792149 1.44921797,15.5653497 1.43985151,15.5514605 Z" id="Path" fill="#E82429"></path>
                    <path d="M13.5577424,14.7092867 C11.9034395,15.7584101 9.78156548,15.9611003 7.89080874,15.0568152 C7.22195917,14.736912 6.63922284,14.3042342 6.15267791,13.7919389 L2.94872568,14.9882498 C2.95687847,15.0000092 2.96505851,15.0117507 2.97326576,15.0234744 L2.97168022,15.0240757 C3.85260616,16.3149147 5.05431405,17.3938576 6.52890082,18.1106939 C9.70911691,19.6551244 13.317469,19.1182022 15.9301752,17.0400527 C17.100126,16.1413113 18.0768007,14.9433714 18.7365896,13.4924006 C19.4295869,11.9695346 19.6855319,10.3521099 19.5628979,8.78697894 L19.4736579,8.82028076 C19.4724513,8.80351638 19.4712024,8.78675788 19.4699111,8.77000526 L16.2881095,9.97545795 L16.2882625,9.97577186 C16.2376047,10.6949625 16.0632866,11.4165076 15.7533709,12.1082303 C15.257165,13.2166651 14.4831822,14.0996175 13.5577424,14.7092867 Z" id="Path" fill="#DA2430"></path>
                    <path d="M17.1008248,5.97956177 L17.1485333,5.96175092 L17.1485333,5.96164858 C17.6504449,7.02082896 17.9567807,8.17211196 18.0485816,9.35102578 L14.8445296,10.5465181 C14.845122,10.5383653 14.8456983,10.5302129 14.8462582,10.5220608 L14.7856685,10.5450187 C14.8729041,9.32904964 14.6069122,8.119673 14.0443194,7.0696107 L17.0735354,5.92113451 L17.0736884,5.9208206 C17.0827986,5.94036952 17.0918441,5.95995005 17.1008248,5.97956177 Z" id="Path" fill="#E82429"></path>
                </g>
                <path d="M5.81139612,8.52026624 L2.62240135,9.72885806 C2.66326431,10.2615803 2.75126508,10.7875533 2.87538443,11.3030098 L5.90444738,10.1539058 C5.8064987,9.6202418 5.77129838,9.07088189 5.81262049,8.51995233" id="Path" fill="#C22035"></path>
                <path d="M19.9042523,4.84751253 C19.6818782,4.36972635 19.4244568,3.90795008 19.1264785,3.47270004 L15.938249,4.68129191 C16.3092296,5.07667411 16.6203698,5.52087085 16.8750363,5.99614569 L19.9037931,4.84719861 L19.9042523,4.84751253 L19.9042523,4.84751253 Z" id="Path" fill="#C22035"></path>
                <polygon id="Path" fill="#AC223B" points="2.62230952 9.72906212 5.80349902 8.53396887 5.79049021 9.18943374 2.72132952 10.3780917 2.62185039 9.72827738"></polygon>
                <polygon id="Path" fill="#AC223B" points="15.9388612 4.67138774 19.1696372 3.53436962 19.5054175 4.05406413 16.3663154 5.19218096 15.9393203 4.67107382"></polygon>
                <polygon id="Path" fill="#B92135" points="2.97243014 15.0118486 6.15744575 13.8231907 7.12070981 14.755219 3.7806598 16.0411922 2.97258319 15.0115347"></polygon>
                <polygon id="Path" fill="#B92135" points="19.5234156 8.77877934 16.2885073 9.97512832 16.0502166 11.3031667 19.4993875 10.0424641 19.5238748 8.77893634"></polygon>
            </g>
        </g>
    </g>
</svg>