<?xml version="1.0" encoding="UTF-8"?>
<svg width="20px" height="20px" viewBox="0 0 20 20" version="1.1" xmlns="http://www.w3.org/2000/svg" xmlns:xlink="http://www.w3.org/1999/xlink">
    <title>Icon / Logo 20*20 / placeholder</title>
    <g id="Icon-/-Logo-20*20-/-placeholder" stroke="none" stroke-width="1" fill="none" fill-rule="evenodd">
        <g id="编组">
            <rect id="Rectangle" x="0" y="0" width="20" height="20"></rect>
            <path d="M3.33333333,0 L16.6666667,0 C18.5076158,0 20,1.49238417 20,3.33333333 L20,16.6666667 C20,18.5076158 18.5076158,20 16.6666667,20 L3.33333333,20 C1.49238417,20 0,18.5076158 0,16.6666667 L0,3.33333333 C0,1.49238417 1.49238417,0 3.33333333,0 Z" id="Rectangle" fill="#E4E7ED"></path>
        </g>
        <g id="编组" transform="translate(3, 3)">
            <rect id="Rectangle" x="0" y="0" width="14" height="14"></rect>
            <path d="M13.5625,7.38975064 L13.5625,6.62497576 C13.5625,6.5405938 13.5022851,6.46822852 13.4193088,6.45289089 L12.2524261,6.23720018 C12.1911566,5.82346974 12.0854173,5.41753046 11.9370379,5.02640683 L12.8236254,4.26016814 C12.8865385,4.20579508 12.9025022,4.11465872 12.8618161,4.04213888 L12.4947012,3.38778609 C12.4528815,3.31324582 12.3633357,3.2798187 12.282901,3.30872179 L11.209219,3.69453413 C10.9556087,3.36876474 10.662208,3.07590539 10.3358364,2.82276292 L10.723472,1.74798396 C10.7519451,1.66903799 10.7203652,1.58099342 10.6482059,1.53814238 L9.93984462,1.11748982 C9.86711002,1.07429718 9.77389235,1.08931457 9.7184023,1.15316425 L8.94085028,2.04785517 C8.55184211,1.89101478 8.14409739,1.78519676 7.72781885,1.73304889 L7.52302233,0.581849036 C7.50816524,0.498334513 7.43555323,0.4375 7.35072747,0.4375 L6.59833477,0.4375 C6.51458641,0.4375 6.44257713,0.496835192 6.42656365,0.579038326 L6.19939926,1.74515683 C5.78312072,1.79730469 5.37537601,1.90312272 4.98636784,2.0599631 L4.23122755,1.15546665 C4.17685603,1.09034121 4.08360301,1.07359516 4.00996937,1.11573389 L3.35503631,1.49053604 C3.28127525,1.53274769 3.24850393,1.62185131 3.27733723,1.70179602 L3.66416359,2.77433118 C3.33779203,3.02747365 3.04439135,3.320333 2.79078096,3.6461024 L1.71709905,3.26029006 C1.63666428,3.23138697 1.54711854,3.26481409 1.50529883,3.33935436 L1.13818393,3.99370715 C1.09749775,4.06622699 1.11346148,4.15736334 1.17637461,4.21173641 L2.06296211,4.97797509 C1.91458268,5.36909873 1.80884337,5.77503801 1.74757394,6.18876845 L0.58069123,6.40445915 C0.497714899,6.41979679 0.4375,6.49216207 0.4375,6.57654402 L0.4375,7.33870044 C0.4375,7.4230824 0.497714899,7.49544768 0.58069123,7.51078531 L1.74757394,7.72647601 C1.80884337,8.14020646 1.91458268,8.54614574 2.06296211,8.93726937 L1.17074457,9.70837386 C1.11041121,9.76051734 1.0929587,9.84685463 1.12830163,9.91833844 L1.46005515,10.5893356 C1.49947129,10.6690577 1.59241304,10.706539 1.67610763,10.6764645 L2.7422597,10.2933579 C2.99587009,10.6191273 3.28927077,10.9119867 3.61564233,11.1651292 L3.22881597,12.2376643 C3.19998267,12.317609 3.232754,12.4067126 3.30651506,12.4489243 L3.97040407,12.8288517 C4.03997529,12.8686656 4.12770237,12.856122 4.18332845,12.7984069 L5.01062847,11.9400369 C5.39963664,12.0968773 5.80738135,12.2026953 6.22365989,12.2548432 L6.45082428,13.4209617 C6.46683776,13.5031648 6.53884704,13.5625 6.62259539,13.5625 L7.37740461,13.5625 C7.46115296,13.5625 7.53316224,13.5031648 7.54917572,13.4209617 L7.77634011,12.2548432 C8.19261865,12.2026953 8.60036336,12.0968773 8.98937153,11.9400369 L9.76848051,12.8365193 C9.82327485,12.8995685 9.91499019,12.915102 9.98748992,12.8736122 L10.6449637,12.497356 C10.7187247,12.4551444 10.7514961,12.3660408 10.7226628,12.286096 L10.3358364,11.2135609 C10.662208,10.9604184 10.9556087,10.6675591 11.209219,10.3417897 L12.282901,10.727602 C12.3633357,10.7565051 12.4528815,10.723078 12.4947012,10.6485377 L12.8618161,9.99418492 C12.9025022,9.92166508 12.8865385,9.83052872 12.8236254,9.77615566 L11.9370379,9.00991697 C12.0854173,8.61879334 12.1911566,8.21285406 12.2524261,7.79912362 L13.4223689,7.56124164 C13.5039093,7.5446622 13.5625,7.4729595 13.5625,7.38975064 Z M6.97573937,2.94381025 C9.02547796,2.94678367 10.752142,4.47299642 11.0030037,6.503584 L7.86125231,6.503584 C7.49611812,6.50467525 7.15830564,6.31067598 6.97573937,5.99504151 L5.39879852,3.27075646 C5.89598494,3.05362042 6.43304755,2.94228244 6.97573937,2.94381025 Z M2.9120841,7 C2.9187539,5.72877768 3.52566492,4.53514452 4.54967652,3.77928967 L6.12661738,6.50357472 C6.30900795,6.81382577 6.30900795,7.19828216 6.12661738,7.50853321 L4.54967652,10.2328183 C3.58255446,9.51895535 2.98747581,8.414605 2.91872212,7.22319814 L2.9120841,7 Z M6.97573937,11.0561577 C6.43364255,11.0520048 5.89771822,10.9409028 5.39879852,10.7292435 L6.97573937,8.01706642 C7.15830564,7.70143196 7.49611812,7.50743269 7.86125231,7.50852393 L11.0030037,7.50852393 C10.752142,9.53911151 9.02547796,11.0653243 6.97573937,11.0682657 L6.97573937,11.0561577 Z" id="Combined-Shape" fill="#203548" fill-rule="nonzero"></path>
        </g>
    </g>
</svg>