<?xml version="1.0" encoding="UTF-8"?>
<svg width="20px" height="20px" viewBox="0 0 20 20" version="1.1" xmlns="http://www.w3.org/2000/svg" xmlns:xlink="http://www.w3.org/1999/xlink">
    <title>Icon / Logo 20*20 / Python</title>
    <defs>
        <linearGradient x1="-3.97947646e-07%" y1="0.129665544%" x2="74.5209926%" y2="64.0737805%" id="linearGradient-1">
            <stop stop-color="#5A9FD4" offset="0%"></stop>
            <stop stop-color="#306998" offset="100%"></stop>
        </linearGradient>
        <linearGradient x1="49.9999992%" y1="82.2756067%" x2="23.6704177%" y2="44.9144289%" id="linearGradient-2">
            <stop stop-color="#FFD43B" offset="0%"></stop>
            <stop stop-color="#FFE873" offset="100%"></stop>
        </linearGradient>
    </defs>
    <g id="Icon-/-Logo-20*20-/-Python" stroke="none" stroke-width="1" fill="none" fill-rule="evenodd">
        <rect id="Frame" x="0" y="0" width="20" height="20"></rect>
        <g id="Python-logo-notext" transform="translate(1, 1)" fill-rule="nonzero">
            <path d="M8.89282197,0.000147229137 C8.1506058,0.00355827401 7.44180598,0.0661671989 6.81813511,0.175320067 C4.9808789,0.496357426 4.64730439,1.16831614 4.64730423,2.40752241 L4.64730423,4.04413718 L8.98896599,4.04413718 L8.98896599,4.58967543 L4.64730423,4.58967543 L3.01791601,4.58967543 C1.75610823,4.58967543 0.651233267,5.33981027 0.305642496,6.76682351 C-0.0929920841,8.40251191 -0.110673695,9.4232081 0.305642496,11.1311295 C0.614263327,12.4024402 1.35129167,13.3082776 2.61309907,13.3082776 L4.10586156,13.3082776 L4.10586156,11.3463419 C4.10586156,9.9289591 5.34575823,8.67871018 6.81813511,8.67870986 L11.1547367,8.67870986 C12.3618929,8.67870986 13.3255675,7.69563367 13.3255675,6.49655685 L13.3255675,2.40752241 C13.3255675,1.24376002 12.3329596,0.369547317 11.1547367,0.175320067 C10.408904,0.0525228568 9.63503813,-0.00326386503 8.89282197,0.000147229137 Z M6.54488367,1.31644597 C6.9933475,1.31644597 7.35957778,1.6845925 7.35957778,2.13725576 C7.35957778,2.58831455 6.9933475,2.95306067 6.54488367,2.95306067 C6.09481207,2.95306067 5.73018956,2.58831439 5.73018956,2.13725576 C5.73018956,1.68459266 6.09481207,1.31644597 6.54488367,1.31644597 Z" id="path1948" fill="url(#linearGradient-1)"></path>
            <path d="M13.8670102,4.58967543 L13.8670102,6.49655685 C13.8670102,7.97493629 12.5997882,9.21924302 11.1547367,9.21924318 L6.81813511,9.21924318 C5.6302673,9.21924318 4.64730423,10.2247926 4.64730423,11.4013962 L4.64730423,15.4904301 C4.64730423,16.6541934 5.67045283,17.3387056 6.81813511,17.6725838 C8.19246128,18.0722758 9.51036812,18.1445102 11.1547367,17.6725838 C12.2477675,17.3595726 13.325568,16.7296358 13.3255675,15.4904301 L13.3255675,13.8538159 L8.98896599,13.8538159 L8.98896599,13.3082776 L13.3255675,13.3082776 L15.4963991,13.3082776 C16.7582072,13.3082776 17.2284085,12.4377534 17.6672285,11.1311295 C18.120515,9.78598059 18.1012279,8.49240188 17.6672285,6.76682351 C17.3553931,5.52440712 16.7598119,4.58967543 15.4963991,4.58967543 L13.8670102,4.58967543 Z M11.4279881,14.9448924 C11.87806,14.9448924 12.2426822,15.309639 12.2426822,15.7606968 C12.2426822,16.2133601 11.8780595,16.5815073 11.4279881,16.5815073 C10.9795238,16.5815073 10.613294,16.2133601 10.613294,15.7606968 C10.613294,15.309639 10.9795233,14.9448924 11.4279881,14.9448924 Z" id="path1950" fill="url(#linearGradient-2)"></path>
        </g>
    </g>
</svg>