<?xml version="1.0" encoding="UTF-8"?>
<svg width="20px" height="20px" viewBox="0 0 20 20" version="1.1" xmlns="http://www.w3.org/2000/svg" xmlns:xlink="http://www.w3.org/1999/xlink">
    <title>Rancher</title>
    <g id="Rancher" stroke="none" stroke-width="1" fill="none" fill-rule="evenodd">
        <g id="rancher-kubernetes">
            <polygon id="Frame" points="0 0 20 0 20 20 0 20"></polygon>
            <path d="M9.68980433,14.0000207 C10.6368692,14.0000207 11.0164779,14.4615737 10.9108136,15.0909356 L10.1594233,15.1503754 C10.2416066,14.6888433 10.038105,14.5035312 9.67415036,14.5035312 C9.32584964,14.5035312 9.04016478,14.7342972 9.04016478,15.4825386 C9.04016478,16.2727374 9.34933059,16.4755318 9.7015448,16.4755318 C10.0341916,16.4755318 10.3042225,16.2902197 10.2455201,15.9126025 L10.9499485,15.9755387 C11.0008239,16.5664396 10.523378,17 9.6584964,17 C8.77796087,17 8.21050463,16.538468 8.21050463,15.4790421 C8.21050463,14.4301056 8.79361483,13.9965452 9.68980433,14.0000207 Z M1.33841401,14.0489921 C1.97239959,14.0489921 2.40288363,14.325212 2.40288363,14.8566731 C2.40288363,15.2902335 2.07023687,15.5524677 1.74933059,15.6433755 C1.84716787,15.716801 1.91761071,15.8147018 1.97631308,15.9195954 C2.10937178,16.1643473 2.20329557,16.4370708 2.48506694,16.4370708 C2.52028836,16.4370708 2.55257467,16.4318261 2.57605561,16.4265814 L2.598,16.42 L3.49083419,14.0489921 L4.30484037,14.0489921 L5.40061792,16.9510496 L4.58661174,16.9510496 L4.3831102,16.4021062 L3.29907312,16.4021062 L3.10339856,16.9510496 L2.406,16.951 L2.37998245,16.9550641 C2.33244078,16.960762 2.2802609,16.9650355 2.23069001,16.9650355 C1.84716787,16.9650355 1.62409887,16.8321702 1.39711637,16.3706381 C1.29927909,16.1643473 1.16622039,15.8042124 0.986199794,15.8042124 L0.802265705,15.8042124 L0.802265705,16.9510496 L0,16.9510496 L0,14.0489921 L1.33841401,14.0489921 Z M17.7242019,14.0489921 C18.3581874,14.0489921 18.7886715,14.325212 18.7886715,14.8566731 C18.7886715,15.2902335 18.4560247,15.5524677 18.1351184,15.6433755 C18.2329557,15.716801 18.3033986,15.8147018 18.3621009,15.9195954 C18.4951596,16.1643473 18.5890834,16.4370708 18.8708548,16.4370708 C18.9412976,16.4370708 19,16.416092 19,16.416092 L18.9373841,16.9265744 C18.9373841,16.9265744 18.7651905,16.9650355 18.6164779,16.9650355 C18.2329557,16.9650355 18.0098867,16.8321702 17.7829042,16.3706381 C17.6850669,16.1643473 17.5520082,15.8042124 17.3719876,15.8042124 L17.1880536,15.8042124 L17.1880536,16.9510496 L16.3857878,16.9510496 L16.3857878,14.0489921 L17.7242019,14.0489921 Z M6.29289392,14.0454956 L7.14603502,15.486035 C7.22039135,15.6119074 7.31431514,15.8321841 7.39258496,16.0035103 L7.41215242,16.0035103 C7.40041195,15.839177 7.376931,15.6084109 7.376931,15.4405811 L7.376931,14.0454956 L8.03831102,14.0454956 L8.03831102,16.9475532 L7.1969104,16.9475532 L6.31246138,15.5105102 C6.23027806,15.3811414 6.14418126,15.1923328 6.07765191,15.0384888 L6.05808445,15.0384888 C6.07373841,15.2028222 6.09721936,15.3986237 6.09721936,15.5559641 L6.09721936,16.9510496 L5.43192585,16.9510496 L5.43192585,14.0454956 L6.29289392,14.0454956 Z M11.9165808,14.0489921 L11.9165808,15.1468789 L12.9027806,15.1468789 L12.9027806,14.0489921 L13.7050463,14.0489921 L13.7050463,16.9510496 L12.9027806,16.9510496 L12.9027806,15.7202975 L11.9165808,15.7202975 L11.9165808,16.9510496 L11.1143151,16.9510496 L11.1143151,14.0489921 L11.9165808,14.0489921 Z M16.1783728,14.0454956 L16.1783728,14.5804532 L14.8321318,14.5804532 L14.8321318,15.2028222 L15.9631308,15.2028222 L15.9631308,15.7377798 L14.8321318,15.7377798 L14.8321318,16.416092 L16.2292482,16.416092 L16.2292482,16.9510496 L14.0259526,16.9510496 L14.0259526,14.0454956 L16.1783728,14.0454956 Z M3.85478888,14.7552759 L3.83522142,14.7552759 C3.83522142,14.7552759 3.78825953,15.0524746 3.71390319,15.2482761 L3.49083419,15.8671486 L4.18743563,15.8671486 L3.96436663,15.2552759 C3.88609681,15.0489782 3.85478888,14.7552759 3.85478888,14.7552759 Z M1.18970134,14.5699638 L0.802265705,14.5699638 L0.802265705,15.2832406 L1.09186406,15.2832406 C1.32276004,15.2832406 1.59279094,15.2203044 1.59279094,14.90912 C1.59279094,14.6538788 1.40885685,14.5699638 1.18970134,14.5699638 Z M17.5754892,14.5699638 L17.1880536,14.5699638 L17.1880536,15.2832406 L17.4776519,15.2832406 C17.7085479,15.2832406 17.9785788,15.2203044 17.9785788,14.90912 C17.9785788,14.6538788 17.7946447,14.5699638 17.5754892,14.5699638 Z M19.4756683,14 C19.7050083,14 19.9513365,14.1457002 19.9513365,14.4799536 C19.9513365,14.8056364 19.7050083,14.9513365 19.4756683,14.9513365 C19.2463282,14.9513365 19,14.8056364 19,14.4799536 C19,14.1457002 19.2463282,14 19.4756683,14 Z M19.4841623,14.1028472 C19.2972927,14.1028472 19.1189171,14.214265 19.1189171,14.4799536 C19.1189171,14.7370716 19.2972927,14.8570599 19.4841623,14.8570599 C19.671032,14.8570599 19.8409136,14.7370716 19.8409136,14.4799536 C19.8409136,14.214265 19.671032,14.1028472 19.4841623,14.1028472 Z M19.4926564,14.2399768 C19.5775972,14.2399768 19.6625379,14.2656886 19.6625379,14.385677 C19.6625379,14.4542418 19.6115735,14.4970948 19.552115,14.514236 L19.6625379,14.7113598 L19.560609,14.7113598 L19.4586801,14.5228066 L19.4162097,14.5228066 L19.4162097,14.7113598 L19.3227749,14.7113598 L19.3227749,14.2399768 L19.4926564,14.2399768 Z" id="Combined-Shape" fill="#000000" fill-rule="nonzero"></path>
            <path d="M18.9912782,5.76125804 L18.798011,4.65189421 C18.737615,4.29735525 18.586625,4.00571837 18.4718726,4.00571837 C18.3571202,4.00571837 18.2604865,4.30307362 18.2604865,4.66333095 L18.2604865,4.95496783 C18.2604865,5.31522516 17.9464273,5.61258041 17.5659325,5.61258041 L17.1914772,5.61258041 L17.1914772,6.40743388 L18.4114766,6.40743388 C18.7919714,6.40743388 19.0516742,6.115797 18.9912782,5.76125804 M16.2311808,4.82344532 L12.3960344,4.82344532 C12.371876,4.82344532 12.3537572,4.82344532 12.3295988,4.82916369 L12.3295988,4.65761258 C12.3295988,4.29735525 12.2329652,4 12.1182128,4 C12.0034603,4 11.8524703,4.29163688 11.7920743,4.64617584 L11.5988071,5.75553967 C11.5384111,6.11007863 11.7981139,6.40171551 12.1786088,6.40171551 L13.3321725,6.40171551 C13.4529645,6.40171551 13.5616773,6.3845604 13.6583109,6.35596855 C13.6220733,6.54467477 13.4469249,6.68191565 13.2415785,6.68191565 L11.6229655,6.68191565 C11.3632627,6.68191565 11.1639559,6.45889921 11.2062331,6.21300929 L11.3693023,5.28091494 C11.4115795,5.03502502 11.2122727,4.81200858 10.9525698,4.81200858 L2.91386148,4.81200858 C2.74475266,4.81200858 2.59376265,4.90922087 2.52732704,5.04646176 L1.01742689,7.24231594 C0.993268492,7.27662616 0.993268492,7.32809149 1.02346649,7.36240172 L1.31940692,7.68834882 C1.35564453,7.72837741 1.42208013,7.73409578 1.46435734,7.69978556 L2.49108944,6.93352395 L2.49108944,11.5997141 C2.49108944,11.8227305 2.67831705,12 2.91386148,12 L5.19683049,12 C5.43237492,12 5.61960254,11.8227305 5.61960254,11.5997141 L5.61960254,9.97569693 C5.61960254,9.75268049 5.80683015,9.57541101 6.04237458,9.57541101 L11.7437575,9.57541101 C11.9793019,9.57541101 12.1665296,9.75268049 12.1665296,9.97569693 L12.1665296,11.5997141 C12.1665296,11.8227305 12.3537572,12 12.5893016,12 L14.8722706,12 C15.107815,12 15.2950427,11.8227305 15.2950427,11.5997141 L15.2950427,9.85561115 L14.0810829,9.85561115 C13.7005881,9.85561115 13.3865289,9.5582559 13.3865289,9.19799857 L13.3865289,8.077198 C13.3865289,7.8656183 13.4952417,7.67119371 13.6643505,7.55110793 L13.6643505,8.88920658 C13.6643505,9.2494639 13.9784097,9.54681916 14.3589046,9.54681916 L16.2251412,9.54681916 C16.605636,9.54681916 16.9196952,9.2494639 16.9196952,8.88920658 L16.9196952,5.4810579 C16.9196952,5.12080057 16.6116756,4.82344532 16.2311808,4.82344532" id="Shape" fill="#2453FF" fill-rule="nonzero"></path>
        </g>
    </g>
</svg>