<?xml version="1.0" encoding="UTF-8"?>
<svg width="20px" height="20px" viewBox="0 0 20 20" version="1.1" xmlns="http://www.w3.org/2000/svg" xmlns:xlink="http://www.w3.org/1999/xlink">
    <title>Sentinel</title>
    <g id="Sentinel" stroke="none" stroke-width="1" fill="none" fill-rule="evenodd">
        <g transform="translate(0, -0)">
            <polygon id="Frame" points="0 0 20 0 20 20 0 20"></polygon>
            <g id="Group-2" transform="translate(3.5714, 0)">
                <polygon id="shadow-top" fill="#000000" points="0 7.79569829 0.718254979 8.35204048 6.42857143 5.04156653 12.1515533 8.35204048 12.8571429 7.79569829 6.42857143 4.04981122"></polygon>
                <polygon id="shadow-l" fill="#FFFFFF" transform="translate(4.0483, 12.4922) scale(-1, 1) translate(-4.0483, -12.4922)" points="1.66799561 7.02115234 6.42857143 9.73944752 6.42857143 15.1552343 1.66799561 17.9631688"></polygon>
                <polygon id="shadow-r" fill="#000000" points="6.42857143 7.02115234 11.2059058 9.75318281 11.2059058 15.1689696 6.42857143 17.9631688"></polygon>
                <path d="M6.42857143,5.04156653 L6.42857143,7.02115234 L1.71427394,9.75463087 L1.71427394,13.306742 L6.42857143,10.458873 L6.42857143,16.9358918 L1.71427394,14.191564 L1.71427394,15.1704176 L6.42857143,17.9631688 L6.42857143,20 C3.34292279,18.1642595 1.54264615,17.1017346 1.02774151,16.8124255 C0.255384549,16.3784618 0.0630369243,15.9566787 0.0630369243,14.9040748 L0.0630369243,8.73798291 L6.42857143,5.04156653 Z M6.42857143,8.00183868 L6.42857143,9.46689599 L2.59109008,11.7186072 L2.59109008,10.2573257 L6.42857143,8.00183868 Z M6.42857143,0 L6.42857143,4.04981122 L0,7.79569829 L0,3.78510822 L1.80258732,2.6837476 L1.80258732,4.74122991 L4.67687537,3.10893612 L4.67687537,1.05267627 L6.42857143,0 Z" id="left" fill="#32E9D1"></path>
                <path d="M6.42857143,5.04156653 L12.8571429,8.73653485 L12.8571429,14.9026267 C12.8571429,15.9552306 12.6647952,16.3770137 11.8924383,16.8109774 C11.3775336,17.1002866 9.55624468,18.1632941 6.42857143,20 L6.42857143,17.9631688 L11.2059058,15.1689696 L11.2059058,12.2539114 L6.42857143,9.46689599 L6.42857143,8.00183868 L11.2059058,10.7899552 L11.2059058,9.75318281 L6.42857143,7.02115234 L6.42857143,5.04156653 Z M6.42857143,10.458873 L10.3201981,12.7873725 L10.3201981,14.663126 L6.42857143,16.9358918 L6.42857143,10.458873 Z M6.42857143,5.68434189e-14 L8.18026749,1.05267627 L8.18026749,3.10893612 L11.0545555,4.74122991 L11.0545555,2.6837476 L12.8571429,3.78510822 L12.8571429,7.79569829 L6.42857143,4.04981122 L6.42857143,5.68434189e-14 Z" id="right" fill="#256BE1"></path>
            </g>
        </g>
    </g>
</svg>