<?xml version="1.0" encoding="UTF-8"?>
<svg width="20px" height="20px" viewBox="0 0 20 20" version="1.1" xmlns="http://www.w3.org/2000/svg" xmlns:xlink="http://www.w3.org/1999/xlink">
    <title>Icon / Logo 20*20 / Sonarqube</title>
    <g id="Icon-/-Logo-20*20-/-Sonarqube" stroke="none" stroke-width="1" fill="none" fill-rule="evenodd">
        <rect id="Frame" x="0" y="0" width="20" height="20"></rect>
        <g id="sonarqube-1" transform="translate(0, 0.5)" fill="#499CD2" fill-rule="nonzero">
            <path d="M17.3419435,19 L16.2462244,19 C16.2462244,10.1587667 8.95740027,2.966535 0,2.966535 L0,1.86998025 C9.56150401,1.86998025 17.3419435,9.55211762 17.3419435,19 Z M18.1001979,13.10237 C16.7836684,7.55705508 12.2945527,2.92901031 6.66388918,1.30919465 L6.91594626,0.429449199 C12.8590772,2.13890718 17.5981669,7.02754005 18.9876055,12.8918148 L18.1001979,13.10237 Z M19.3354859,7.89686197 C17.9793771,4.93658108 15.6650349,2.35363178 12.8257473,0.625411455 L13.2069576,0 C16.1712322,1.8053544 18.5813978,4.49879307 20,7.59249506 L19.3354859,7.89686197 Z" id="Shape"></path>
        </g>
    </g>
</svg>