<?xml version="1.0" encoding="UTF-8"?>
<svg width="20px" height="20px" viewBox="0 0 20 20" version="1.1" xmlns="http://www.w3.org/2000/svg" xmlns:xlink="http://www.w3.org/1999/xlink">
    <title>Spring Cloud</title>
    <g id="Spring-Cloud" stroke="none" stroke-width="1" fill="none" fill-rule="evenodd">
        <g id="spring-cloud-function">
            <polygon id="Frame" points="0 0 20 0 20 20 0 20"></polygon>
            <path d="M6.67026444,7.45239529 C6.31948192,7.26890906 5.96869941,7.09621612 5.57474366,7.04224958 C5.39125742,7.01526631 5.21856449,6.95050646 5.04047491,6.94510981 C4.89476525,6.93971316 4.87317863,6.86416 4.94873179,6.74543361 C5.08904479,6.51877414 5.24015111,6.30830463 5.41284404,6.10323178 C6.34646519,4.99691769 7.51214247,4.25757608 8.92066919,3.92838018 C9.40636805,3.81505045 9.89746357,3.74489394 10.3993524,3.7502906 C11.7053427,3.77187721 12.9249865,4.11726308 14.009714,4.85660468 C14.2849433,5.04548758 14.570966,5.24516378 14.8084188,5.49340986 C14.9865084,5.68229276 15.008095,5.6768961 15.1538046,5.45023663 C15.3211009,5.19659389 15.4344307,4.92136453 15.5801403,4.65153183 C15.6017269,4.6083586 15.6125202,4.53820209 15.6718834,4.5489954 C15.7312466,4.55978871 15.7420399,4.61375525 15.7582299,4.66232514 C15.990286,5.34230355 16.1953589,6.02228196 16.3734485,6.71845034 C16.5137615,7.25811575 16.6378845,7.80317781 16.7188343,8.35363652 C16.7296276,8.4507763 16.7835942,8.51553615 16.8915273,8.55331272 C17.9708581,8.96885509 18.7695629,9.69200673 19.2228818,10.7605442 C19.6168376,11.6779754 19.6438208,12.6331832 19.3524015,13.5829943 C19.0987588,14.414079 18.5968699,15.0886608 17.9007016,15.6013429 C17.2207232,16.1032318 16.443605,16.3730645 15.5909336,16.3730645 C12.0669185,16.3784611 8.53750675,16.3784611 5.01349164,16.3730645 C3.57798165,16.3676678 2.3853211,15.7956225 1.49487318,14.6839118 C0.561252024,13.5128378 0.275229358,12.1582776 0.626011873,10.6903877 C0.825688073,9.8485097 1.24662709,9.12535806 1.86724231,8.52632945 C2.39071775,8.01904397 3.00593632,7.62508822 3.712898,7.43620533 C4.63572585,7.19875255 5.58014031,7.15557932 6.50296816,7.47398191 C6.55153805,7.49017187 6.6162979,7.49556853 6.67026444,7.50096518 C6.65947113,7.47937856 6.66486778,7.46858526 6.67026444,7.45239529 L6.67026444,7.45239529 Z M8.25148408,14.4788389 C8.31084727,14.5220121 8.37021047,14.5058222 8.42417701,14.5004255 C8.80733945,14.4518556 9.19589854,14.4626489 9.57366433,14.4842356 C10.2860227,14.5274088 10.998381,14.5112188 11.7107393,14.5112188 C12.558014,14.5112188 13.3890988,14.3870958 14.1770103,14.0848832 C14.727469,13.8744136 15.1915812,13.5452177 15.5477604,13.0865021 C16.2223421,12.2284341 16.4705882,11.2138632 16.5029682,10.1453257 C16.5299514,9.3088443 16.4004317,8.48855288 16.2493254,7.67365811 C16.1144091,6.93971316 15.8931462,6.22195816 15.6718834,5.50959983 C15.6610901,5.47182325 15.6502968,5.43944332 15.6071236,5.43404667 C15.553157,5.42865002 15.5315704,5.46642659 15.5099838,5.50420317 C15.3588775,5.72006934 15.2239611,5.94672881 15.0458716,6.14640501 C14.7436589,6.49179087 14.3874798,6.77781353 14.0151106,7.05304289 C13.3135456,7.57112168 12.5310308,7.91111089 11.6891527,8.08380382 C11.0685375,8.21332352 10.4263357,8.23491013 9.78953049,8.25649675 C8.92066919,8.28887668 8.09498111,8.48315622 7.36643281,8.98504505 C6.79438748,9.3790008 6.39503508,9.90247624 6.13599568,10.5446781 C5.96869941,10.9656171 5.94711279,11.3973494 5.95250944,11.8452717 C5.96330275,12.5414401 6.2277388,13.1134854 6.77819752,13.5452177 C6.91311387,13.6477542 7.04263357,13.6855307 7.2153265,13.6585475 C8.12196438,13.4858545 9.01780896,13.2645917 9.90825688,13.0055523 C10.5450621,12.8166694 11.1602806,12.57382 11.7215326,12.2284341 C12.4932542,11.7589252 13.2110092,11.2192598 13.8046411,10.5230915 C14.1985969,10.0535826 14.5817593,9.578677 14.8192121,9.00663167 C14.8461954,8.93647516 14.8893686,8.87171532 14.9217485,8.80695547 C14.9595251,8.74219562 14.9703184,8.66124581 15.0728548,8.59648596 C15.0026983,9.01742498 14.8893686,9.39519076 14.727469,9.74597328 C14.4414463,10.3719851 14.0852671,10.9548238 13.6373448,11.4836959 C13.2271991,11.9693948 12.7738802,12.3903338 12.2827847,12.7788929 C11.4570966,13.4372847 10.4856989,13.7988605 9.4711279,14.0848832 C9.06098219,14.1874196 8.64543983,14.289956 8.25148408,14.4788389 L8.25148408,14.4788389 Z M7.0156503,14.5813753 C7.01025364,14.3277326 6.76200756,14.0686932 6.52995143,14.0740898 C6.26551538,14.0794865 6.00107933,14.3601125 6.00647598,14.6137553 C6.01187264,14.867398 6.26551538,15.0994541 6.53534808,15.0994541 C6.81057744,15.1102474 7.02104695,14.8781913 7.0156503,14.5813753 Z" id="Shape" fill="#6CB23F" fill-rule="nonzero"></path>
        </g>
    </g>
</svg>