<?xml version="1.0" encoding="UTF-8"?>
<svg width="20px" height="20px" viewBox="0 0 20 20" version="1.1" xmlns="http://www.w3.org/2000/svg" xmlns:xlink="http://www.w3.org/1999/xlink">
    <title>Icon / Logo 20*20 / SVN-Subversion</title>
    <g id="Icon-/-Logo-20*20-/-SVN-Subversion" stroke="none" stroke-width="1" fill="none" fill-rule="evenodd">
        <rect id="Frame" x="0" y="0" width="20" height="20"></rect>
        <g id="Apache_Subversion_logo" transform="translate(0, 2)">
            <polygon id="bg-white" fill="#FFFFFF" points="10 16.9948328 0 16.9948328 0 -1.39873419e-14 20 -1.39873419e-14 20 16.9948328"></polygon>
            <path d="M20,9.18782744 L20,14.3597747 L0,14.3597747 L0,14.3223156 L0.292514387,14.2777061 C2.99100955,13.8599495 6.1602201,13.1991753 9.80839895,12.2930625 L10.199019,12.1953547 C14.084574,11.2174689 17.3507747,10.2153501 20,9.18782744 Z M14.1496063,7.70496144 C15.2926509,7.71271161 15.9094488,7.88838215 15.9973753,8.23197305 C16.0984252,8.62981515 15.4829396,9.11549252 14.148294,9.69417193 L14.0055777,9.75501638 C12.6781941,10.3133694 10.824147,10.8885594 8.44225722,11.4805863 C5.93044619,12.104475 3.11417323,12.6418202 0,13.0939135 L0,8.88557078 L0.291283902,8.86833024 C0.755619957,8.83978139 1.27274918,8.80302788 1.84822875,8.75624645 L2.38193173,8.7120716 C3.63666258,8.60604633 5.12769809,8.46370992 6.85444851,8.28564284 L7.88845144,8.17772185 C9.27952756,8.03328685 10.4634498,7.9240799 11.4421902,7.84816006 L11.7296588,7.82638078 C12.7585302,7.75146246 13.5643045,7.71141991 14.1496063,7.70496144 Z M0.860892388,11.3049158 C0.805774278,11.3049158 0.757217848,11.3242912 0.719160105,11.3617503 C0.681102362,11.3992095 0.661417323,11.4444188 0.661417323,11.4973783 C0.661417323,11.5245039 0.666666667,11.5503378 0.677165354,11.5735883 C0.686351706,11.5981306 0.700787402,11.617506 0.719160105,11.6355897 C0.736220472,11.6523817 0.757217848,11.6665904 0.780839895,11.6756323 C0.804461942,11.6859658 0.830708661,11.6911326 0.858267717,11.6911326 C0.909448819,11.6911326 0.955380577,11.6730489 0.996062992,11.6355897 C1.03412073,11.5981306 1.05380577,11.5529212 1.05380577,11.4999617 C1.05380577,11.4457105 1.03412073,11.4005012 0.996062992,11.363042 C0.958005249,11.3242912 0.913385827,11.3049158 0.860892388,11.3049158 Z M1.53805774,11.3049158 C1.48293963,11.3049158 1.4343832,11.3242912 1.39501312,11.3617503 C1.35695538,11.3992095 1.33858268,11.4444188 1.33858268,11.4973783 C1.33858268,11.5245039 1.34383202,11.5503378 1.35433071,11.5735883 C1.36351706,11.5981306 1.37795276,11.617506 1.39501312,11.6355897 C1.41338583,11.6523817 1.4343832,11.6665904 1.45800525,11.6756323 C1.4816273,11.6859658 1.50787402,11.6911326 1.53543307,11.6911326 C1.58661417,11.6911326 1.63254593,11.6730489 1.67322835,11.6355897 C1.71128609,11.5981306 1.73097113,11.5529212 1.73097113,11.4999617 C1.73097113,11.4457105 1.71128609,11.4005012 1.67322835,11.363042 C1.6351706,11.3242912 1.59055118,11.3049158 1.53805774,11.3049158 Z M0.860892388,10.0648884 C0.805774278,10.0648884 0.757217848,10.0829722 0.719160105,10.1204313 C0.681102362,10.1578905 0.661417323,10.2030998 0.661417323,10.2560593 C0.661417323,10.3103105 0.681102362,10.3555198 0.719160105,10.3942707 C0.757217848,10.4317299 0.803149606,10.4498136 0.858267717,10.4498136 C0.912073491,10.4498136 0.958005249,10.4317299 0.996062992,10.3942707 C1.03412073,10.3568115 1.05380577,10.3103105 1.05380577,10.2560593 C1.05380577,10.2043915 1.03412073,10.1604739 0.996062992,10.1230147 C0.958005249,10.0842639 0.913385827,10.0648884 0.860892388,10.0648884 Z M1.53805774,10.0648884 C1.48293963,10.0648884 1.4343832,10.0829722 1.39501312,10.1204313 C1.35695538,10.1578905 1.33858268,10.2030998 1.33858268,10.2560593 C1.33858268,10.3103105 1.35695538,10.3555198 1.39501312,10.3942707 C1.43307087,10.4317299 1.48031496,10.4498136 1.53543307,10.4498136 C1.58923885,10.4498136 1.6351706,10.4317299 1.67322835,10.3942707 C1.71128609,10.3568115 1.73097113,10.3103105 1.73097113,10.2560593 C1.73097113,10.2043915 1.71128609,10.1604739 1.67322835,10.1230147 C1.6351706,10.0842639 1.59055118,10.0648884 1.53805774,10.0648884 Z M20,1.1121495 L20,5.05827812 L19.8075761,5.07020791 C18.5102962,5.15237524 16.9236213,5.28733656 15.0285367,5.4802907 L13.5598814,5.63204945 C12.1633615,5.77467385 10.9715077,5.88989838 9.98432002,5.9767042 L9.29064051,6.03625207 C8.35368711,6.11394314 7.63514595,6.16011687 7.13380601,6.17536926 L6.84627238,6.18223258 C5.78797572,6.20083024 5.22009749,6.05016158 5.13910761,5.73254298 C5.04471592,5.36473279 5.701997,4.88657206 7.11095085,4.30053187 L7.34729374,4.20238194 C8.77566371,3.61605308 10.6340899,3.0381176 12.9225722,2.46972108 C15.0026247,1.95175134 17.3648294,1.49965804 20,1.1121495 Z M19.2913386,-1.39873419e-14 C16.5774278,0.498594319 13.7664042,1.10827442 10.8582677,1.830332 L10.5109049,1.91715586 C6.1340222,3.01670004 2.63281513,4.10772299 0,5.19261441 L0,-1.39873419e-14 L19.2913386,-1.39873419e-14 Z" id="Shape" fill="#809CC9"></path>
            <path d="M1.1167979,16.0596455 C1.07480315,16.1216469 1.0144357,16.1707313 0.935695538,16.2068988 C0.855643045,16.2417745 0.761154856,16.2598583 0.652230971,16.2598583 C0.522309711,16.2598583 0.414698163,16.2353161 0.329396325,16.1875233 C0.269028871,16.1526476 0.219160105,16.1048549 0.182414698,16.0467286 C0.144356955,15.9886023 0.125984252,15.9317677 0.125984252,15.8762248 C0.125984252,15.8439324 0.13648294,15.8168068 0.158792651,15.7935563 C0.182414698,15.7715975 0.211286089,15.7599723 0.245406824,15.7599723 C0.274278215,15.7599723 0.297900262,15.7690141 0.317585302,15.7870979 C0.337270341,15.8038899 0.354330709,15.8310155 0.367454068,15.8658913 C0.384514436,15.9072255 0.402887139,15.9421013 0.422572178,15.9705186 C0.442257218,15.9976442 0.469816273,16.0208947 0.505249344,16.0389784 C0.540682415,16.0570621 0.587926509,16.066104 0.645669291,16.066104 C0.725721785,16.066104 0.790026247,16.0480203 0.839895013,16.0118528 C0.88976378,15.9743936 0.914698163,15.9291843 0.914698163,15.8749331 C0.914698163,15.8310155 0.901574803,15.7961397 0.874015748,15.7690141 C0.847769029,15.7418885 0.813648294,15.7212214 0.770341207,15.7070128 C0.735345582,15.6951722 0.689413823,15.6833317 0.634064839,15.6699961 L0.599737533,15.6618034 C0.503937008,15.6398446 0.42519685,15.6140107 0.359580052,15.5843017 C0.295275591,15.5558844 0.245406824,15.5158419 0.207349081,15.4641741 C0.169291339,15.413798 0.150918635,15.3505049 0.150918635,15.2755866 C0.150918635,15.2032517 0.170603675,15.1386669 0.209973753,15.083124 C0.250656168,15.0275811 0.30839895,14.9849552 0.3832021,14.9552462 C0.458005249,14.9242455 0.547244094,14.9100369 0.649606299,14.9100369 C0.729658793,14.9100369 0.800524934,14.9203704 0.859580052,14.9397458 C0.918635171,14.9591213 0.968503937,14.9862469 1.00787402,15.0185393 C1.04724409,15.0521233 1.07611549,15.0869991 1.09317585,15.1231666 C1.11154856,15.159334 1.12073491,15.1942098 1.12073491,15.2290856 C1.12073491,15.2600862 1.10892388,15.2885035 1.08661417,15.3143374 C1.06430446,15.3388796 1.03674541,15.3517966 1.00262467,15.3517966 C0.972440945,15.3517966 0.948818898,15.3440464 0.933070866,15.3285461 C0.917322835,15.3143374 0.900262467,15.2885035 0.881889764,15.2549195 C0.856955381,15.205835 0.82808399,15.1670842 0.793963255,15.1386669 C0.761154856,15.1115413 0.706036745,15.0973327 0.631233596,15.0973327 C0.56167979,15.0973327 0.50656168,15.112833 0.463254593,15.142542 C0.421259843,15.172251 0.400262467,15.2084184 0.400262467,15.2510444 C0.400262467,15.2768783 0.406824147,15.3001288 0.421259843,15.3182125 C0.435695538,15.3375879 0.455380577,15.35438 0.481627297,15.3672969 C0.50656168,15.3815056 0.531496063,15.3918391 0.557742782,15.3995893 L0.600785871,15.4115874 L0.686351706,15.4331734 C0.761154856,15.4512571 0.829396325,15.4706325 0.88976378,15.4912997 C0.950131234,15.5119668 1.00131234,15.536509 1.04330709,15.566218 C1.08530184,15.595927 1.11942257,15.6333861 1.14304462,15.6785955 C1.16666667,15.7250965 1.17847769,15.7806394 1.17847769,15.8465158 C1.17847769,15.9253092 1.15748031,15.9963525 1.1167979,16.0596455 Z M2.24409449,15.0702071 C2.24409449,15.0172476 2.25590551,14.977205 2.2808399,14.9500794 C2.30446194,14.9229538 2.33727034,14.9100369 2.37664042,14.9100369 C2.41863517,14.9100369 2.45144357,14.9229538 2.47637795,14.9500794 C2.50131234,14.977205 2.51312336,15.0172476 2.51312336,15.0702071 L2.51312336,15.7134712 C2.51312336,15.7870979 2.52099738,15.8478075 2.53805774,15.8968919 C2.55380577,15.9459764 2.5839895,15.9847272 2.62598425,16.0118528 C2.667979,16.0389784 2.72703412,16.0518954 2.80183727,16.0518954 C2.90682415,16.0518954 2.98031496,16.0247698 3.02362205,15.9692269 C3.06692913,15.9149757 3.08923885,15.8310155 3.08923885,15.718638 L3.08923885,15.0702071 C3.08923885,15.0159559 3.10104987,14.9759133 3.12467192,14.9500794 C3.1496063,14.9229538 3.18110236,14.9100369 3.22178478,14.9100369 C3.26246719,14.9100369 3.29527559,14.9229538 3.32020997,14.9500794 C3.34514436,14.9759133 3.35826772,15.0159559 3.35826772,15.0702071 L3.35826772,15.6992626 C3.35826772,15.8013065 3.34776903,15.8865584 3.32808399,15.9550182 C3.30708661,16.0234781 3.26902887,16.082896 3.21259843,16.1345638 C3.16535433,16.1784815 3.10892388,16.2094822 3.04461942,16.2301493 C2.9816273,16.2495247 2.90682415,16.2598583 2.82152231,16.2598583 C2.7191601,16.2598583 2.6312336,16.2495247 2.55774278,16.2275659 C2.48425197,16.2056071 2.42519685,16.172023 2.37795276,16.1268137 C2.332021,16.0816043 2.29790026,16.0234781 2.27690289,15.9524348 C2.25459318,15.8813916 2.24409449,15.7961397 2.24409449,15.6979709 L2.24409449,15.0702071 Z M4.64173228,16.2378995 C4.5839895,16.2378995 4.54199475,16.2249825 4.51706037,16.1991486 C4.49212598,16.1733147 4.47900262,16.1319805 4.47900262,16.0751459 L4.47900262,15.0947493 C4.47900262,15.036623 4.49212598,14.9952887 4.51706037,14.9707465 C4.54330709,14.9449126 4.58530184,14.9332874 4.64173228,14.9332874 L5.07217848,14.9332874 C5.13648294,14.9332874 5.19028871,14.9358708 5.23753281,14.9436209 C5.28346457,14.9513711 5.32545932,14.9668714 5.36220472,14.9875386 C5.39370079,15.006914 5.42125984,15.0301645 5.44488189,15.0585818 C5.46981627,15.0857074 5.48818898,15.1167081 5.5,15.1515838 C5.51312336,15.1851679 5.51968504,15.2213354 5.51968504,15.2587945 C5.51968504,15.3905474 5.45275591,15.4848412 5.32020997,15.5455509 C5.49475066,15.6010938 5.58136483,15.7070128 5.58136483,15.8645996 C5.58136483,15.9382262 5.56299213,16.0041026 5.52493438,16.0622289 C5.48687664,16.1216469 5.43569554,16.1642728 5.37139108,16.1926901 C5.33070866,16.2094822 5.2847769,16.2198157 5.23097113,16.2275659 C5.17979003,16.2340244 5.11811024,16.2378995 5.04724409,16.2378995 L4.64173228,16.2378995 Z M4.7480315,15.129625 L4.7480315,15.4680492 L4.99475066,15.4680492 C5.06167979,15.4680492 5.11286089,15.4615907 5.1496063,15.4499654 C5.18635171,15.4370485 5.21391076,15.4125063 5.2335958,15.3776305 C5.24934383,15.3530883 5.25590551,15.324671 5.25590551,15.2936703 C5.25590551,15.2277939 5.23228346,15.1838762 5.18503937,15.1619174 C5.13779528,15.1399586 5.06430446,15.129625 4.96587927,15.129625 L4.7480315,15.129625 Z M4.7480315,15.6566366 L4.7480315,16.0402701 L5.03674541,16.0402701 C5.2191601,16.0402701 5.30971129,15.9756853 5.30971129,15.8452241 C5.30971129,15.7793477 5.28608924,15.731555 5.23884514,15.7005543 C5.19160105,15.6708453 5.12204724,15.6566366 5.02887139,15.6566366 L4.7480315,15.6566366 Z" id="Shape" fill="#809CC9"></path>
            <path d="M7.14304462,15.9588933 L7.44356955,15.0766655 L7.47151887,14.9992391 C7.47428893,14.9919409 7.47675291,14.9858778 7.47900262,14.9810801 C7.48687664,14.9629964 7.5,14.9462043 7.5183727,14.9319957 C7.53674541,14.9164953 7.56167979,14.9100369 7.59186352,14.9100369 C7.61548556,14.9100369 7.63648294,14.9152036 7.65616798,14.9268289 C7.67585302,14.9384542 7.69160105,14.9526628 7.70209974,14.9720382 C7.71391076,14.990122 7.7191601,15.0094974 7.7191601,15.0288728 C7.7191601,15.0417898 7.71653543,15.0559984 7.71391076,15.0702071 C7.70997375,15.0857074 7.70603675,15.1012077 7.69947507,15.1154164 L7.68372703,15.1606257 L7.36351706,16.0131445 L7.32939633,16.1061465 C7.3175853,16.1358555 7.30446194,16.1616894 7.28871391,16.1836483 C7.27427822,16.2056071 7.25328084,16.2249825 7.22834646,16.2391911 C7.20341207,16.2533998 7.17322835,16.2598583 7.13779528,16.2598583 C7.10104987,16.2598583 7.07086614,16.2533998 7.04593176,16.2391911 C7.02099738,16.2249825 7,16.2068988 6.9855643,16.1836483 C6.96981627,16.1616894 6.95669291,16.1358555 6.94488189,16.1061465 C6.93307087,16.0764376 6.92257218,16.0454369 6.91076115,16.0131445 L6.59580052,15.1670842 L6.58677822,15.1439951 L6.57874016,15.1218749 C6.57217848,15.1063745 6.56824147,15.0908742 6.56430446,15.0740821 L6.55954724,15.0497014 C6.55839895,15.0424356 6.55774278,15.0359771 6.55774278,15.0301645 C6.55774278,14.9991638 6.57086614,14.9720382 6.59580052,14.947496 C6.61942257,14.9216621 6.65091864,14.9100369 6.68766404,14.9100369 C6.7335958,14.9100369 6.7664042,14.9229538 6.78608924,14.9513711 C6.80183727,14.9746216 6.81854947,15.0102091 6.8353994,15.0581337 L7.14304462,15.9588933 Z M9.02493438,15.1347918 L9.02493438,15.4564239 L9.58267717,15.4564239 C9.62335958,15.4564239 9.65354331,15.4654658 9.67454068,15.4835495 C9.69422572,15.5016332 9.70472441,15.5261754 9.70472441,15.5558844 C9.70472441,15.5855934 9.69422572,15.6088439 9.67454068,15.6282194 C9.65485564,15.6463031 9.62335958,15.6566366 9.58267717,15.6566366 L9.02493438,15.6566366 L9.02493438,16.0299365 L9.65091864,16.0299365 C9.69291339,16.0299365 9.72572178,16.0389784 9.74671916,16.0583538 C9.76771654,16.0777293 9.77821522,16.1022715 9.77821522,16.1345638 C9.77821522,16.1642728 9.76771654,16.1901067 9.74671916,16.2081905 C9.72572178,16.2275659 9.69291339,16.2378995 9.65091864,16.2378995 L8.92125984,16.2378995 C8.86220472,16.2378995 8.82020997,16.2249825 8.79527559,16.1991486 C8.76902887,16.1733147 8.75590551,16.1319805 8.75590551,16.0751459 L8.75590551,15.0947493 C8.75590551,15.0559984 8.76246719,15.0262894 8.77296588,15.0017472 C8.7847769,14.977205 8.80314961,14.960413 8.82677165,14.9487877 C8.85170604,14.9384542 8.8832021,14.9332874 8.92125984,14.9332874 L9.62992126,14.9332874 C9.67322835,14.9332874 9.70472441,14.9423292 9.72572178,14.960413 C9.74671916,14.9784967 9.75721785,15.0030389 9.75721785,15.0327479 C9.75721785,15.0637486 9.74671916,15.0882908 9.72572178,15.1063745 C9.70472441,15.1257499 9.67322835,15.1347918 9.62992126,15.1347918 L9.02493438,15.1347918 Z M11.0918635,15.6785955 L11.0918635,16.0983964 C11.0918635,16.1539393 11.0787402,16.1952735 11.0538058,16.2211074 C11.0301837,16.2469413 10.9973753,16.2598583 10.9566929,16.2598583 C10.9146982,16.2598583 10.8818898,16.2469413 10.8569554,16.218524 C10.8346457,16.1913984 10.8228346,16.1513559 10.8228346,16.0983964 L10.8228346,15.0947493 C10.8228346,15.0379147 10.835958,14.9965804 10.8608924,14.9707465 C10.8871391,14.9449126 10.9291339,14.9332874 10.9868766,14.9332874 L11.4238845,14.9332874 C11.484252,14.9332874 11.5354331,14.9345791 11.5787402,14.9397458 C11.6207349,14.9449126 11.660105,14.9552462 11.6942257,14.9707465 C11.7362205,14.9875386 11.7729659,15.0120808 11.8044619,15.0443732 C11.835958,15.0766655 11.8608924,15.1141247 11.8766404,15.1554589 C11.8937008,15.1980849 11.9015748,15.2432942 11.9015748,15.2910869 C11.9015748,15.3879641 11.8740157,15.4667575 11.8188976,15.5248837 C11.7624672,15.58301 11.6784777,15.6243443 11.5643045,15.6475948 C11.6128609,15.6734287 11.6574803,15.7095961 11.7007874,15.7586806 C11.7440945,15.807765 11.7834646,15.8594328 11.8175853,15.913684 C11.851706,15.9692269 11.8779528,16.0183113 11.8976378,16.0622289 L11.9111361,16.097244 C11.9205099,16.1233604 11.9251969,16.141945 11.9251969,16.1539393 C11.9251969,16.172023 11.9199475,16.188815 11.9094488,16.2056071 C11.8976378,16.2223991 11.8818898,16.2353161 11.8635171,16.2456496 C11.843832,16.2546915 11.8215223,16.2598583 11.7965879,16.2598583 C11.7664042,16.2598583 11.7414698,16.2533998 11.7204724,16.2391911 C11.6994751,16.2249825 11.6824147,16.2068988 11.667979,16.1862316 C11.6585302,16.1730564 11.647664,16.156626 11.6350971,16.1366616 L11.5,15.9149757 C11.4606299,15.8503909 11.4265092,15.8013065 11.3963255,15.7677224 C11.3661417,15.7328467 11.3346457,15.7108878 11.3031496,15.6979709 C11.2729659,15.6850539 11.2335958,15.6785955 11.1850394,15.6785955 L11.0918635,15.6785955 Z M11.0918635,15.129625 L11.0918635,15.4912997 L11.332021,15.4912997 C11.3963255,15.4912997 11.4501312,15.4848412 11.4947507,15.4745076 C11.5380577,15.4628824 11.5721785,15.4447986 11.5958005,15.417673 C11.6181102,15.3918391 11.6299213,15.35438 11.6299213,15.307879 C11.6299213,15.2717115 11.6207349,15.2394191 11.6023622,15.2110018 C11.5826772,15.1838762 11.5577428,15.1632091 11.523622,15.1490005 C11.4934383,15.1360835 11.4317585,15.129625 11.3385827,15.129625 L11.0918635,15.129625 Z M13.9356955,16.0596455 C13.8950131,16.1216469 13.8346457,16.1707313 13.7545932,16.2068988 C13.6745407,16.2417745 13.5813648,16.2598583 13.4724409,16.2598583 C13.3412073,16.2598583 13.2335958,16.2353161 13.148294,16.1875233 C13.0879265,16.1526476 13.0393701,16.1048549 13.0013123,16.0467286 C12.9632546,15.9886023 12.9448819,15.9317677 12.9448819,15.8762248 C12.9448819,15.8439324 12.9566929,15.8168068 12.9790026,15.7935563 C13.0013123,15.7715975 13.0301837,15.7599723 13.0656168,15.7599723 C13.0931759,15.7599723 13.1181102,15.7690141 13.1377953,15.7870979 C13.1524934,15.8005315 13.1663517,15.8205786 13.1786982,15.8459165 L13.187664,15.8658913 C13.2047244,15.9072255 13.2230971,15.9421013 13.2414698,15.9705186 C13.2624672,15.9976442 13.2900262,16.0208947 13.3254593,16.0389784 C13.3608924,16.0570621 13.4081365,16.066104 13.4658793,16.066104 C13.5446194,16.066104 13.6102362,16.0480203 13.660105,16.0118528 C13.7099738,15.9743936 13.7349081,15.9291843 13.7349081,15.8749331 C13.7349081,15.8310155 13.7204724,15.7961397 13.6942257,15.7690141 C13.6666667,15.7418885 13.6325459,15.7212214 13.5892388,15.7070128 C13.5472441,15.6928041 13.4908136,15.6785955 13.4186352,15.6618034 C13.324147,15.6398446 13.2440945,15.6140107 13.17979,15.5843017 C13.1154856,15.5558844 13.0643045,15.5158419 13.0262467,15.4641741 C12.9895013,15.413798 12.9698163,15.3505049 12.9698163,15.2755866 C12.9698163,15.2032517 12.9895013,15.1386669 13.0301837,15.083124 C13.0695538,15.0275811 13.1272966,14.9849552 13.2020997,14.9552462 C13.2782152,14.9242455 13.3661417,14.9100369 13.4685039,14.9100369 C13.5498688,14.9100369 13.6194226,14.9203704 13.67979,14.9397458 C13.7388451,14.9591213 13.7887139,14.9862469 13.8267717,15.0185393 C13.8661417,15.0521233 13.8950131,15.0869991 13.9133858,15.1231666 C13.9317585,15.159334 13.9396325,15.1942098 13.9396325,15.2290856 C13.9396325,15.2600862 13.9291339,15.2885035 13.9068241,15.3143374 C13.8845144,15.3388796 13.855643,15.3517966 13.8228346,15.3517966 C13.7913386,15.3517966 13.7690289,15.3440464 13.7519685,15.3285461 C13.7362205,15.3143374 13.7191601,15.2885035 13.7007874,15.2549195 C13.6771654,15.205835 13.648294,15.1670842 13.6141732,15.1386669 C13.5800525,15.1115413 13.5262467,15.0973327 13.4514436,15.0973327 C13.3818898,15.0973327 13.3254593,15.112833 13.2834646,15.142542 C13.2401575,15.172251 13.2191601,15.2084184 13.2191601,15.2510444 C13.2191601,15.2768783 13.2257218,15.3001288 13.2414698,15.3182125 C13.2559055,15.3375879 13.2755906,15.35438 13.3005249,15.3672969 C13.3267717,15.3815056 13.351706,15.3918391 13.3779528,15.3995893 L13.4200317,15.4115874 C13.4373637,15.4162307 13.457967,15.4214841 13.4817383,15.4272459 L13.5065617,15.4331734 C13.5813648,15.4512571 13.648294,15.4706325 13.7086614,15.4912997 C13.7690289,15.5119668 13.82021,15.536509 13.8635171,15.566218 C13.9055118,15.595927 13.9383202,15.6333861 13.9619423,15.6785955 C13.9855643,15.7250965 13.9973753,15.7806394 13.9973753,15.8465158 C13.9973753,15.9253092 13.9776903,15.9963525 13.9356955,16.0596455 Z M15.0721785,15.0702071 C15.0721785,15.0172476 15.0839895,14.977205 15.1089239,14.9500794 C15.1338583,14.9229538 15.1653543,14.9100369 15.2047244,14.9100369 C15.2454068,14.9100369 15.2782152,14.9229538 15.3031496,14.9500794 C15.328084,14.9759133 15.3412073,15.0159559 15.3412073,15.0702071 L15.3412073,16.0983964 C15.3412073,16.1526476 15.328084,16.1926901 15.3031496,16.2198157 C15.2782152,16.2469413 15.2454068,16.2598583 15.2047244,16.2598583 C15.1666667,16.2598583 15.1351706,16.2469413 15.1089239,16.2198157 C15.0839895,16.1926901 15.0721785,16.1526476 15.0721785,16.0983964 L15.0721785,15.0702071 Z M17.4107612,14.9927053 C17.5091864,15.0469565 17.5826772,15.1257499 17.6338583,15.2265022 C17.6850394,15.3272544 17.7099738,15.4460903 17.7099738,15.58301 C17.7099738,15.6837622 17.6955381,15.7754726 17.667979,15.8581411 C17.6404199,15.9408096 17.5984252,16.0131445 17.5433071,16.0725625 C17.488189,16.1332721 17.4199475,16.1797732 17.339895,16.2120655 C17.2585302,16.2443579 17.1666667,16.2598583 17.0629921,16.2598583 C16.9593176,16.2598583 16.8661417,16.2430662 16.7847769,16.2107739 C16.7020997,16.1771898 16.6338583,16.1306888 16.5787402,16.0712708 C16.5249344,16.0118528 16.4829396,15.9395179 16.4553806,15.854266 C16.4265092,15.7703058 16.4133858,15.6798872 16.4133858,15.5817183 C16.4133858,15.4809661 16.4278215,15.3892558 16.4566929,15.3052956 C16.4855643,15.2213354 16.5275591,15.1502922 16.5839895,15.0908742 C16.6391076,15.0327479 16.7060367,14.9875386 16.7860892,14.9565379 C16.8661417,14.9255372 16.9553806,14.9100369 17.0564304,14.9100369 C17.1942257,14.9100369 17.312336,14.9371625 17.4107612,14.9927053 Z M17.3910761,15.3311295 C17.3595801,15.2613779 17.3149606,15.2084184 17.2572178,15.172251 C17.1981627,15.1360835 17.1312336,15.1179998 17.0564304,15.1179998 C17.003937,15.1179998 16.9540682,15.1283333 16.9081365,15.1477088 C16.8635171,15.1670842 16.824147,15.1967932 16.7913386,15.235544 C16.7585302,15.2730032 16.7322835,15.3220876 16.7139108,15.3815056 C16.6942257,15.4409236 16.6850394,15.5068 16.6850394,15.5817183 C16.6850394,15.6553449 16.6942257,15.7238048 16.7139108,15.7832228 C16.7322835,15.8439324 16.7598425,15.8943085 16.7939633,15.9330594 C16.828084,15.9731019 16.8687664,16.0028109 16.9133858,16.0221864 C16.9580052,16.0428535 17.0065617,16.0518954 17.0603675,16.0518954 C17.1286089,16.0518954 17.191601,16.0351033 17.2493438,16.0015192 C17.3070866,15.9666435 17.3530184,15.9149757 17.3871391,15.8439324 C17.4212598,15.7728892 17.4383202,15.6850539 17.4383202,15.5817183 C17.4383202,15.4848412 17.4225722,15.4021727 17.3910761,15.3311295 Z M19.6430446,15.8387657 L19.6430446,15.0611652 C19.6430446,15.0107891 19.6535433,14.9733299 19.675853,14.947496 C19.6981627,14.9216621 19.7270341,14.9100369 19.7637795,14.9100369 C19.8031496,14.9100369 19.8333333,14.9216621 19.855643,14.947496 C19.8779528,14.9733299 19.8884514,15.0107891 19.8884514,15.0611652 L19.8884514,16.0880628 C19.8884514,16.2030237 19.8412073,16.2598583 19.7440945,16.2598583 C19.7204724,16.2598583 19.6981627,16.2572749 19.67979,16.2495247 C19.660105,16.2430662 19.6417323,16.2327327 19.6246719,16.2172323 C19.6089239,16.2030237 19.5931759,16.18494 19.5787402,16.1655645 C19.5682415,16.1517864 19.5589093,16.1385824 19.5495771,16.1248044 L19.0288714,15.3427547 L19.0288714,16.1087299 C19.0288714,16.1578144 19.0170604,16.1965652 18.9934383,16.2211074 C18.9698163,16.2469413 18.9396325,16.2598583 18.9028871,16.2598583 C18.8648294,16.2598583 18.8346457,16.2469413 18.812336,16.2211074 C18.7887139,16.1952735 18.7769029,16.1578144 18.7769029,16.1087299 L18.7769029,15.1012077 C18.7769029,15.0585818 18.7821522,15.0249977 18.7913386,15.0004555 C18.8031496,14.9733299 18.8228346,14.9526628 18.8490814,14.9345791 C18.8753281,14.917787 18.9041995,14.9100369 18.9356955,14.9100369 C18.9593176,14.9100369 18.980315,14.9139119 18.9973753,14.9216621 C19.0144357,14.9294123 19.0301837,14.9397458 19.0419948,14.9526628 C19.0551181,14.9655798 19.0682415,14.9823718 19.0826772,15.0030389 L19.1246719,15.0689154 L19.6430446,15.8387657 Z" id="Shape" fill="#999999"></path>
            <polygon id="bottom-line" fill="#809CC9" fill-rule="nonzero" points="0 17.1879497 20 17.1879497 20 16.817871 0 16.817871"></polygon>
        </g>
    </g>
</svg>