<?xml version="1.0" encoding="UTF-8"?>
<svg width="20px" height="20px" viewBox="0 0 20 20" version="1.1" xmlns="http://www.w3.org/2000/svg" xmlns:xlink="http://www.w3.org/1999/xlink">
    <title>Tencent Cloud</title>
    <g id="Tencent-Cloud" stroke="none" stroke-width="1" fill="none" fill-rule="evenodd">
        <g id="tencent-cloud">
            <polygon id="Frame" points="0 0 20 0 20 20 0 20"></polygon>
            <g transform="translate(0, 3)" fill-rule="nonzero">
                <path d="M18.6734336,6.3663578 C17.8381854,5.53813257 16.6729626,5.01924448 15.3736875,5.01924448 C14.2600232,5.01924448 13.2907228,5.39843193 12.4451628,6.05702067 C12.0739414,6.34640057 11.6924082,6.68567356 11.207758,7.14468995 C10.9602771,7.36421953 3.98956335,13.9301497 3.98956335,13.9301497 C4.36078479,13.9800428 4.85574671,13.9900214 5.3094618,14 L14.0950359,14 C14.7652968,14 15.2087002,14 15.6830387,13.9700641 C16.7657679,13.8902352 17.7866269,13.5110478 18.6115634,12.722737 C20.4367355,10.976479 20.4676706,8.14255167 18.6734336,6.3663578 M17.3329118,11.4654312 C16.972002,11.8047042 16.3429879,12.1938703 15.3015056,12.2337847 C14.8168554,12.253742 14.2600232,12.253742 13.9919188,12.253742 L8.3926621,12.253742 C10.4240683,10.3378475 12.2079936,8.66143977 12.403916,8.48182466 C12.5895267,8.31218817 13.001995,7.9230221 13.3629047,7.61368496 C14.1569061,6.93513899 14.8581022,6.78545973 15.3530641,6.79543835 C16.1367538,6.80541696 16.8482616,7.1147541 17.3638469,7.61368496 C18.4671995,8.68139701 18.4465761,10.4076978 17.3329118,11.4654312" id="Shape" fill="#00A1FF"></path>
                <path d="M7.41304996,5.94725588 C6.58811343,5.35851746 5.67037153,5.01924448 4.62888916,5.01924448 C3.32961412,5.01924448 2.16439127,5.53813257 1.32914303,6.3663578 C-0.465093935,8.14255167 -0.444470522,10.976479 1.40132497,12.722737 C2.14376785,13.4312188 3.03057463,13.8004277 3.97925164,13.9401283 L5.78380031,12.253742 C5.48476081,12.253742 5.08260425,12.2437634 4.71138281,12.2337847 C3.66990044,12.2038489 3.03057463,11.8146828 2.6799766,11.4654312 C1.56631228,10.4076978 1.53537716,8.68139701 2.62841807,7.60370634 C3.13369169,7.10477548 3.85551116,6.79543835 4.63920087,6.78545973 C5.13416279,6.78545973 5.79411201,6.91518175 6.55717831,7.53385602 C6.91808804,7.82323592 7.71208946,8.5017819 8.06268748,8.81111903 C8.0833109,8.83107627 8.10393431,8.83107627 8.12455772,8.81111903 L9.36196252,7.6336422 C9.38258594,7.61368496 9.38258594,7.58374911 9.36196252,7.57377049 C8.75357183,7.03492516 7.91832359,6.31646472 7.41304996,5.94725588" id="Path" fill="#00C4D6"></path>
                <path d="M15.8583377,4.01140413 C15.0024661,1.6764077 12.6926438,0 10.0012883,0 C6.88715292,0 4.31953796,2.20527441 3.85551116,5.07911618 C4.11330383,5.03920171 4.36078479,5.01924448 4.62888916,5.01924448 C5.0001106,5.01924448 5.35070863,5.05915895 5.67037153,5.13898788 L5.69099495,5.13898788 C6.11377492,3.20313614 7.88738847,1.75623664 9.99097663,1.75623664 C11.7542785,1.75623664 13.2907228,2.78403421 13.9816071,4.23093371 C13.9919188,4.25089095 14.0125422,4.26086957 14.0331656,4.26086957 C14.5590627,4.12116892 15.1777651,4.04133999 15.7861558,4.09123307 C15.848026,4.09123307 15.8686494,4.06129722 15.8583377,4.01140413" id="Path" fill="#006EFF"></path>
            </g>
        </g>
    </g>
</svg>