<?xml version="1.0" encoding="UTF-8"?>
<svg width="20px" height="20px" viewBox="0 0 20 20" version="1.1" xmlns="http://www.w3.org/2000/svg" xmlns:xlink="http://www.w3.org/1999/xlink">
    <title>Victoria-Metrics</title>
    <g id="Victoria-Metrics" stroke="none" stroke-width="1" fill="none" fill-rule="evenodd">
        <g id="victoria-metrics">
            <polygon id="Frame" points="0 0 20 0 20 20 0 20"></polygon>
            <path d="M14.5323247,13.3398104 L17.7554001,10.3960212 L17.7592555,11.714452 C17.7589804,11.9926448 17.7566248,12.2642173 17.7495371,12.5356513 C17.7424365,12.8106543 17.6135822,13.0425092 17.4009531,13.2377413 C15.4619501,15.0172706 13.5353245,16.8109828 11.5926083,18.5862505 C10.6973381,19.4043346 9.53999472,19.4012716 8.63508325,18.5969044 C6.65797122,16.8396151 4.730629,15.0257271 2.79911758,13.2165668 C2.60205782,13.0319885 2.47496241,12.8223736 2.47229152,12.5523645 C2.46564686,11.87065 2.47014177,11.1888023 2.47014177,10.5016943 C2.63821258,10.485314 2.70120656,10.615158 2.7864797,10.693464 L5.62314688,13.2846933 C6.56756802,14.1497126 7.50783625,15.0193015 8.43489659,15.9033397 C9.48924776,16.9087987 10.7830021,16.8504021 11.7507121,15.9289755 C12.6682289,15.0552916 13.5984162,14.1955076 14.5323247,13.3398104 Z M17.7562469,5.59711857 L17.7599758,6.91607196 C17.7597256,7.19427221 17.7574847,7.4658074 17.7507097,7.73721475 C17.7438696,8.01361609 17.6119536,8.24713561 17.4012788,8.44070311 C15.4947391,10.1923769 13.5904361,11.9466254 11.6883696,13.7034486 C10.6886089,14.621213 9.57191515,14.6467157 8.57430416,13.7394054 C6.64872081,11.9878426 4.7435926,10.2129744 2.82784596,8.45015842 C2.62179636,8.26058612 2.47392011,8.04284765 2.47150979,7.75366166 L2.46855487,6.50630068 C2.4689301,6.21958159 2.46955548,5.92334008 2.46955548,5.61123495 L2.94660297,6.03745634 L8.63469239,11.2647778 C9.20255023,11.7866842 9.85809153,11.9776548 10.6074398,11.8037304 C10.9979764,11.7130393 11.3240208,11.5044898 11.6193824,11.23235 L14.476521,8.60199272 L17.3358745,5.97419899 C17.448508,5.87065669 17.5635518,5.76977786 17.7562469,5.59711857 Z M11.0070314,1.2 C11.9757837,1.28609659 12.9467509,1.35228376 13.9126369,1.46394963 C14.8813241,1.57601503 15.8387414,1.76139237 16.7490598,2.13987111 C16.865446,2.18652757 16.979287,2.23956313 17.0900872,2.29874695 C17.9071849,2.74887296 17.9536324,3.13108056 17.265845,3.76645074 C15.4375646,5.45531112 13.6078511,7.14255122 11.7767045,8.82817105 C10.6491318,9.85993179 9.59855893,9.87671164 8.47495998,8.85573794 C6.57080892,7.12561601 4.68476782,5.37458586 2.79703298,3.62555331 C2.31431799,3.17829052 2.34858359,2.7832317 2.90979677,2.43012249 C3.76982421,1.88910564 4.74893439,1.71498145 5.72354964,1.54591785 C6.79606531,1.37075528 7.87904289,1.27075302 8.96490593,1.24661068 C9.06082612,1.23748075 9.15605475,1.22191023 9.24997486,1.2 L11.0070314,1.2 Z" id="Shape" fill="#000000" fill-rule="nonzero"></path>
        </g>
    </g>
</svg>