<?xml version="1.0" encoding="UTF-8"?>
<svg width="20px" height="20px" viewBox="0 0 20 20" version="1.1" xmlns="http://www.w3.org/2000/svg" xmlns:xlink="http://www.w3.org/1999/xlink">
    <title>Zookeeper</title>
    <g id="Zookeeper" stroke="none" stroke-width="1" fill="none" fill-rule="evenodd">
        <g transform="translate(0, -0)">
            <polygon id="Frame" points="0 0 20 0 20 20 0 20"></polygon>
            <g id="zookeeper-color" transform="translate(2.92, 0)" fill-rule="nonzero">
                <path d="M8.57245429,4.05318692 L8.57245429,4.9110851 C8.57245429,4.9110851 8.13826571,5.5444158 8.70895673,6.11617971 L9.39146896,7.06087699 C9.39146896,7.06087699 10.2971199,6.16613966 10.4336223,6.11617971 C10.5696211,6.0667244 11.2027708,5.56964811 10.619991,4.88585279 L9.6392889,3.85435641 L8.57245429,4.05318692 Z" id="Path" fill="#FFBE83"></path>
                <path d="M9.39146896,7.07349313 L8.69636426,6.11617971 C8.15085818,5.56964811 8.53518056,4.94792425 8.56036552,4.89846894 L8.56036552,4.04057078 L8.57245429,4.04057078 L9.6392889,3.84174024 L10.6194873,4.87323665 C10.8305372,5.12202711 10.9050846,5.37031294 10.8431297,5.6191034 C10.7685822,5.90523767 10.5207623,6.09145204 10.4336223,6.12879585 C10.3092087,6.17825117 9.40406146,7.06087699 9.39096527,7.07349313 L9.39146896,7.07349313 Z M8.58504676,4.06580306 L8.58504676,4.91058044 C8.58504676,4.92319658 8.16345065,5.5444158 8.72104551,6.10406821 L9.40406143,7.03614932 C9.50329016,6.94884556 10.3092086,6.14090736 10.4457111,6.09145204 C10.532851,6.05410823 10.780671,5.86789386 10.8431297,5.59437575 C10.9050846,5.35820143 10.8305372,5.10991561 10.6194873,4.87323665 L9.6392889,3.84174024 L8.58504676,4.06529842 L8.58504676,4.06580306 Z" id="Shape" fill="#000000"></path>
                <path d="M6.27760137,16.5073451 C6.27760137,16.5073451 6.52542131,17.1906358 6.68710871,17.1906358 L7.13338609,17.1906358 C7.13338609,17.1906358 7.39379849,17.1659082 7.43107223,16.6688319 C7.4436647,16.6688319 6.86038119,16.7929748 6.27760137,16.5073451 L6.27760137,16.5073451 Z" id="Path" fill="#FFBE83"></path>
                <path d="M6.72196283,17.7674563 C6.54784023,17.7674563 6.27958264,16.5844726 6.26597932,16.5391475 L6.25292012,16.494729 L6.27958264,16.5173915 C6.66434254,16.8149754 7.09341025,16.915919 7.5125882,16.8074718 L7.5256474,16.8074718 L7.5256474,16.8301343 C7.48538154,17.7230377 7.20460887,17.7674563 7.19100556,17.7674563 L6.72196283,17.7674563 L6.72196283,17.7674563 Z M6.29264183,16.5391475 C6.37317352,16.8963089 6.58756197,17.7230377 6.72196283,17.7230377 L7.20406475,17.7230377 C7.20406475,17.7230377 7.47232235,17.6777127 7.5125882,16.8301343 C7.40539398,16.8518903 6.86942291,16.9860525 6.29264183,16.5400541 L6.29264183,16.5391475 Z" id="Shape" fill="#000000"></path>
                <path d="M10.024115,16.5073451 C10.024115,16.5073451 10.3716673,17.2527073 10.3092086,17.5388416 C10.3092086,17.5388416 10.8431296,17.7750159 11.1780895,17.4268101 L11.3639545,16.5815281 C11.3639545,16.5815281 10.2724386,16.7309033 10.024115,16.5073451 L10.024115,16.5073451 Z" id="Path" fill="#FFBE83"></path>
                <path d="M10.6940347,17.7427286 L10.6073985,17.7427286 C10.4336223,17.72939 10.2971199,17.6610295 10.2971199,17.6610295 L10.2845274,17.6610295 L10.2845274,17.6471352 C10.3464824,17.3459045 9.99943372,16.5244674 9.99943372,16.5111288 L9.97424878,16.4700014 L10.0115225,16.4977901 C10.2598461,16.7434432 11.3392732,16.5794892 11.3392732,16.5794892 L11.351362,16.5794892 L11.351362,16.5928279 L11.1649934,17.5237529 C11.0415871,17.7016012 10.8552184,17.7427286 10.6940347,17.7427286 L10.6940347,17.7427286 Z M10.3218011,17.6471352 C10.3469861,17.6610295 10.4708961,17.7154956 10.6194873,17.72939 C10.780671,17.7427286 11.0043134,17.7154956 11.1654971,17.5237529 L11.3518657,16.6067223 C11.227452,16.6206167 10.3218011,16.7434432 10.0487962,16.5522562 C10.1107512,16.7023158 10.3711636,17.3597989 10.3218011,17.6471352 L10.3218011,17.6471352 Z" id="Shape" fill="#000000"></path>
                <path d="M1.10410835,7.3343951 C1.10410835,7.3343951 0.384826089,7.54584177 0.868377186,8.05502956 C0.868377186,8.05502956 0.992790846,8.19178862 1.19074458,8.17967714 C1.19074458,8.17967714 1.60025191,7.98084663 1.73675435,7.95561432 C1.73675435,7.95561432 1.76193931,7.75678381 1.82389429,7.76939995 C1.82389429,7.76939995 1.66271059,7.73205614 1.5508894,7.65736854 C1.5508894,7.64525704 1.12878959,7.43381037 1.10410835,7.3343951 L1.10410835,7.3343951 Z" id="Path" fill="#FFBE83"></path>
                <path d="M1.22107109,8.58866636 C1.01285645,8.58866636 0.889053122,8.40705911 0.889053122,8.40705911 C0.735987205,8.18927806 0.666769901,7.98921476 0.708975574,7.80686928 C0.777630145,7.47982856 1.13834795,7.3343951 1.15185379,7.3343951 L1.16592234,7.3343951 L1.16592234,7.35285114 C1.17942815,7.44365477 1.44279156,7.64371804 1.56772035,7.75223944 C1.63693765,7.80686928 1.6510062,7.82532529 1.66507478,7.82532529 C1.78944084,7.93458493 1.95601254,7.98921476 1.96951836,7.98921476 L1.96951836,8.00693254 L1.95601254,8.00693254 C1.9143696,8.0438446 1.90030105,8.20699581 1.88679524,8.26162564 L1.88679524,8.28008165 L1.87272669,8.28008165 C1.72022353,8.31625545 1.27621985,8.60712237 1.26271401,8.60712237 C1.23513964,8.58866636 1.23513964,8.58866636 1.22107109,8.58866636 L1.22107109,8.58866636 Z M1.15185379,7.35285114 C1.09670504,7.37056892 0.79169872,7.51600239 0.72248139,7.80686928 C0.68083845,7.97075875 0.750055754,8.17082202 0.902558938,8.37088528 C0.902558938,8.37088528 1.04099355,8.57021032 1.24920819,8.55249254 C1.29085113,8.53477475 1.69264914,8.26162564 1.85865811,8.22545185 C1.85865811,8.1885398 1.88679524,8.02538859 1.92787542,7.97075875 C1.83153231,7.9367917 1.73859516,7.8879738 1.6510062,7.82532529 C1.63693765,7.80686928 1.60936326,7.78841323 1.56772035,7.75223944 C1.37357425,7.60680598 1.17942815,7.46137255 1.15185379,7.35285114 L1.15185379,7.35285114 Z" id="Shape" fill="#000000"></path>
                <path d="M3.33750998,7.39646655 C3.33750998,7.39646655 3.37428,7.93139129 4.32979711,8.09287801 C4.32979711,8.09287801 4.49098081,8.26647624 4.36707085,9.07441447 C4.36707085,9.07441447 3.97015598,9.11175828 3.65987737,9.02495915 C3.65987737,9.02495915 2.91541015,8.91292774 2.64240527,8.99972685 C2.64240527,8.99972685 2.28276415,9.1243744 2.19612789,9.08703061 L2.19612789,6.77524736 C2.19612789,6.77524736 2.54368024,6.7252874 2.75422647,6.87466262 C2.75422647,6.87466262 2.85345519,6.99880554 2.92800264,7.03614932 C2.94009142,7.03614932 3.15114133,7.18501988 3.33750998,7.39646655 L3.33750998,7.39646655 Z" id="Path" fill="#FFBE83"></path>
                <path d="M2.2459941,9.09964675 C2.22080914,9.09964675 2.20821667,9.09964675 2.1956242,9.08703061 L2.1956242,6.76263121 L2.20821667,6.76263121 C2.22080914,6.76263121 2.55576902,6.71267126 2.77890771,6.86204646 C2.77890771,6.86204646 2.87813643,6.98618937 2.95268389,7.02353318 C2.98995762,7.03614932 3.18841505,7.1850199 3.36219122,7.38385041 C3.36219122,7.38385041 3.41155374,7.91877515 4.3423896,8.06764573 C4.35447838,8.08026187 4.50357331,8.25436474 4.37915962,9.0617983 L4.37915962,9.07441447 L4.36707085,9.07441447 C4.36707085,9.07441447 3.97015598,9.11175828 3.65987737,9.02495915 C3.6472849,9.02495915 2.91541015,8.91292774 2.64240527,8.99972685 C2.6303165,9.01234299 2.36940038,9.09914211 2.24549041,9.09914211 L2.2459941,9.09964675 Z M2.20821667,9.07441447 C2.29535661,9.09964677 2.64240525,8.98761537 2.64240527,8.98761534 C2.91541017,8.90031158 3.63469243,9.01234299 3.65987737,9.01234301 C3.94497104,9.08703061 4.30461217,9.06179832 4.35498207,9.0617983 C4.46579585,8.32854769 4.3423896,8.11760566 4.31720464,8.09287801 C3.41155374,7.94350279 3.32491748,7.43381037 3.32491748,7.39646655 C3.15114131,7.19763605 2.94009139,7.04826083 2.92800264,7.03614932 C2.85345519,6.99880551 2.76681893,6.8867741 2.75422647,6.87466262 C2.56785782,6.73790357 2.27067537,6.77524736 2.20821667,6.77524736 L2.20821667,9.07441447 L2.20821667,9.07441447 Z" id="Shape" fill="#000000"></path>
                <path d="M12.1084217,10.2053261 C12.1084217,10.2053261 12.6045653,10.1432547 12.6292465,10.4293889 C12.6292465,10.4293889 12.3562416,10.4415004 12.2816942,10.5656433 L12.1084217,10.2053261 L12.1084217,10.2053261 Z" id="Path" fill="#FFBE83"></path>
                <path d="M12.5402745,11.4728609 L12.0958292,10.2170425 L12.1258593,10.2170425 C12.1546882,10.2170425 12.8658007,10.0961683 13.1901257,10.5007785 C13.3112929,10.6290905 13.3758288,10.8055302 13.3679038,10.9868197 L13.3679038,11.0275352 L13.3390749,11.0275352 C13.3390749,11.0275352 12.6880226,11.0682507 12.5402745,11.4728609 Z M12.1558894,10.2577579 L12.5402745,11.3519868 C12.7168515,11.0275352 13.2201558,10.9461042 13.3390749,10.9461042 C13.3090449,10.7845146 13.2790147,10.622925 13.1612968,10.541494 C12.8658007,10.1775993 12.3036374,10.2170425 12.1546882,10.2577579 L12.1558894,10.2577579 Z" id="Shape" fill="#000000"></path>
                <path d="M12.3441529,10.4788442 C12.3441529,10.4788442 12.8896589,10.2800137 12.8896589,10.77709 L12.3441529,11.1000634 L12.2323317,10.9759205 L12.3441529,10.4788442 Z" id="Path" fill="#FFBE83"></path>
                <path d="M12.4561028,11.7109006 L12.2197392,11.4520911 L12.4321794,10.514858 C12.4561028,10.514858 12.9508397,10.3274114 13.2570598,10.5386456 C13.3986865,10.6556808 13.4924665,10.8193398 13.4924665,11.0771978 L12.4561028,11.7099491 L12.4561028,11.7109006 Z M12.2675861,11.4520911 L12.4561028,11.6633253 L13.4695,11.0771978 C13.4695,10.8431274 13.3986865,10.6556808 13.2570598,10.5624333 C12.9747631,10.3740352 12.5269162,10.514858 12.4790693,10.5386456 L12.2675861,11.4520911 Z" id="Shape" fill="#000000"></path>
                <path d="M12.3562416,9.6093392 L12.1205105,10.0937993 C12.1205105,10.0937993 12.4932478,10.2926299 12.4428779,10.9012329 C12.4428779,10.9012329 13.1631675,10.4788442 13.2618925,11.1752557 C13.2618925,11.1752557 13.2372113,11.8464348 12.4187003,12.0200331 C12.4187003,12.0200331 11.6989144,12.1320645 11.4385019,11.6470997 L10.9297659,10.2552861 C10.9549509,10.2426699 10.780671,9.88235269 12.3562416,9.6093392 L12.3562416,9.6093392 Z" id="Path" fill="#FFBE83"></path>
                <path d="M12.2444204,12.0452654 C12.009193,12.0452654 11.6122781,11.9953054 11.4259095,11.6597158 L10.9171734,10.2552861 L10.9171734,10.2426699 C10.9171734,10.2053261 10.9297659,10.1064155 11.1035421,9.98176794 C11.3266808,9.83289738 11.7482769,9.70824981 12.3441529,9.59672306 L12.3562416,9.59672306 L12.1205105,10.0937993 C12.1456954,10.1059108 12.2197392,10.1558708 12.2942866,10.2679022 C12.3688341,10.379429 12.4554704,10.5782595 12.4433816,10.8891214 C12.517929,10.8517776 12.8156152,10.7024024 13.0387539,10.8023223 C13.1626638,10.8643938 13.2372113,10.9890413 13.2618925,11.1752557 C13.2618925,11.1873672 13.2246188,11.8585463 12.4056041,12.0326492 C12.4187003,12.0326492 12.3441529,12.0452654 12.2444204,12.0452654 L12.2444204,12.0452654 Z M10.9423584,10.2552861 L11.4510944,11.6470997 C11.6989144,12.1194483 12.4181966,12.0205377 12.4181966,12.0205377 C13.2246188,11.8464349 13.2493001,11.1878718 13.2493001,11.1878718 C13.2246188,11.0132643 13.1505751,10.8891214 13.0387539,10.82705 C12.8030227,10.7150185 12.4433816,10.9138491 12.4433816,10.9138491 L12.4307891,10.9264652 L12.4307891,10.9138491 C12.455974,10.6034918 12.3688341,10.4041566 12.2947903,10.2926299 C12.2076504,10.1684869 12.1205105,10.118527 12.1205105,10.118527 L12.1084217,10.118527 L12.1084217,10.1059108 L12.3315604,9.63356221 C11.6989144,9.74559362 10.9544472,9.94442413 10.9297659,10.2552861 C10.9423584,10.2426699 10.9423584,10.2552861 10.9423584,10.2552861 L10.9423584,10.2552861 Z" id="Shape" fill="#000000"></path>
                <path d="M0,16.0723403 C0,16.0723403 0.781740932,16.4700014 3.23828125,16.3826976 C3.23828125,16.3826976 3.47350872,18.446195 3.88301606,19.1299903 C3.88301606,19.1299903 4.5529358,19.7759372 3.73442482,20 L1.88584928,20 C1.88584928,20 0.831103448,19.7759372 0.583283511,19.2041733 C0.583283511,19.2167894 0,17.6382568 0,16.0723403 Z" id="Path" fill="#361206"></path>
                <polygon id="Path" fill="#AD7054" points="1.57607436 4.13998602 1.57607436 15.4011612 1.56348189 16.8303186 1.63752565 17.7623997 2.01026294 18.3841236 2.19612789 18.3841236 2.19612789 4.13998602"></polygon>
                <path d="M2.81278473,18.3962351 L2.42823371,18.3962351 L1.70695652,17.7750159 L1.56348189,16.8429347 L1.58690632,15.4132727 L1.58690632,4.12736988 L2.83620916,4.12736988 L2.83620916,18.3962351 L2.81278473,18.3962351 Z M2.42823371,18.3715074 L2.76495987,18.3715074 L2.76495987,4.15260219 L1.61130675,4.15260219 L1.61130675,15.4011612 L1.58690632,16.8303186 L1.73135695,17.7623997 L2.42823371,18.3715074 Z" id="Shape" fill="#000000"></path>
                <path d="M1.56348189,16.8308232 C1.56348189,16.8308232 1.93521179,16.3085146 2.20821667,16.8308232 L2.20821667,17.7623997 C2.20821667,17.7623997 2.04703296,17.4268101 1.65011812,17.7623997 L1.56348189,16.8303186 L1.56348189,16.8308232 Z" id="Path" fill="#361206"></path>
                <path d="M13.1007088,7.28443515 C13.0886201,7.16029223 13.0387539,6.89939027 12.7531565,6.81259117 C12.6964713,6.79731118 12.6564028,6.74672188 12.6544315,6.68794359 C12.641839,6.52645687 12.5672915,6.20348345 12.0958292,5.97942063 C12.0585555,5.96730913 12.0338742,5.92996532 12.0212817,5.90523767 C11.984008,5.79320626 11.860098,5.51968813 11.376547,5.25878617 C11.376547,5.25878617 11.1156308,5.09729944 10.9050846,4.97265189 C10.8058559,4.91058044 10.6940347,4.9978842 10.7066272,5.09729947 C10.7313084,5.33347379 10.7066272,5.66906338 10.4089411,5.89262153 L9.47810519,6.65059981 C9.42874268,6.70055976 9.34210645,6.68794362 9.29173655,6.6384883 C9.06910157,6.40231398 8.44854432,5.74324634 8.31204189,5.42027289 C8.29960771,5.38396802 8.29960771,5.34454635 8.31204189,5.30824148 C8.37399687,5.19671471 8.49841053,4.94792425 8.59763925,4.88585279 L8.48581806,4.86062049 L8.41127059,4.86062049 C8.28736062,4.91108508 7.86526081,5.0846833 7.53030093,5.35820143 C7.53030093,5.35820143 7.51821215,5.35820143 7.51821215,5.37031294 C7.40639096,5.48234435 5.26012928,7.54533714 4.16861342,7.85619905 L4.10665844,8.04291806 L4.29302708,8.08026187 C4.29302708,8.08026187 4.35447838,8.73882488 4.19329467,8.93816005 C4.16742125,8.97444452 4.13344124,9.00416812 4.09406595,9.02495915 C4.03211096,9.0617983 4.00742972,9.13648592 4.04419974,9.19855738 C4.05679221,9.23590119 4.08147348,9.26113347 4.11874722,9.29797262 C4.14393218,9.32320493 4.19329467,9.33531643 4.23056841,9.33531643 C4.36656715,9.31058879 4.75139324,9.23590117 4.99971687,9.02495915 C5.03699061,8.99972685 5.07426433,8.98761534 5.11153806,8.99972685 L5.21076676,9.02495915 C5.2480405,9.03707066 5.28481052,9.02495915 5.32208426,8.99972685 L7.00947612,7.75678379 C7.0714311,7.70732847 7.15857105,7.71943998 7.19584476,7.78201609 C7.26988853,7.88143136 7.31975473,8.09237337 7.1832523,8.55261051 C7.179997,8.57125281 7.17122216,8.58848381 7.15806733,8.60206583 C7.10870482,8.65202578 7.00947612,8.78878483 6.94752114,8.93765539 C6.94752114,8.93765539 6.87297368,9.02495915 6.94752114,9.33531643 L6.94752114,9.78293743 C6.94752114,9.82028124 6.95960991,9.85762503 6.99688363,9.88235267 C7.07143108,9.95704027 7.22052601,10.1311431 7.09611235,10.3920451 C6.93492864,10.7150185 6.50074006,11.7596357 6.43878508,11.9085063 C6.43878508,11.9206178 6.42619261,11.933234 6.42619261,11.9458501 L6.36423762,12.4802702 L6.36423762,12.5049979 L6.17786896,13.1635609 C6.17786896,13.1635609 5.97991523,14.3570486 5.74418407,14.5059192 L5.68222908,14.5932229 C5.63236288,14.6552944 5.65704412,14.7547097 5.7315916,14.7920534 C5.74418407,14.804165 5.76886534,14.804165 5.79354658,14.8172858 C5.85550157,14.8541249 5.8927753,14.9283079 5.85550157,15.0035001 C5.79354658,15.127643 5.66963661,15.3264735 5.4585867,15.5379202 C5.39663172,15.5999917 5.40922418,15.6867908 5.47117919,15.7367507 L5.55781542,15.7988222 C5.59508916,15.8240545 5.61977041,15.8608936 5.61977041,15.910349 C5.61977041,16.0102689 5.68222908,16.2212109 6.16578018,16.494729 C6.17837265,16.494729 6.17837265,16.5073451 6.19096514,16.5073451 C6.32696389,16.5568005 7.58016714,16.9544615 8.28736062,16.2711708 C8.32463436,16.233827 8.38658934,16.233827 8.43595186,16.2459385 C8.44854432,16.2459385 8.46113682,16.2585547 8.48581806,16.2585547 L8.52309178,16.2585547 C8.57245429,16.2459385 8.68427548,16.1838671 8.6223205,15.8735098 C8.6223205,15.8735098 8.31204189,15.7614784 8.68427548,15.4506165 C8.68427548,15.4506165 8.80818545,15.5747594 8.88273291,13.7973962 C8.88273291,13.7973962 8.9945541,12.0079216 8.98196163,11.8958901 C8.96936916,11.7964749 9.1557378,13.573838 9.1557378,13.5738381 C9.1557378,13.5738381 9.31692151,15.2023307 9.1058716,15.9976527 C9.09378282,16.0597242 9.11846407,16.1217956 9.16833027,16.1465233 C9.21769279,16.1717556 9.267559,16.1964832 9.31692151,16.233827 C9.32951398,16.233827 9.32951398,16.2459385 9.34210645,16.2459385 C9.41615021,16.3085146 9.86293128,16.6935595 10.7932635,16.5941443 C10.7932635,16.5941443 11.6369594,16.6441042 11.8726905,16.233827 C11.8978755,16.1838671 11.947238,16.1591394 11.9966005,16.1717556 C12.1703767,16.1838671 12.554699,16.2090994 12.554699,16.0349965 C12.554699,16.0349965 12.6791127,15.8982375 12.0963329,15.7488622 C11.984008,15.7241346 11.9593268,15.5747594 12.0585555,15.5005764 C12.1829691,15.4258888 12.2323317,15.3264735 12.009193,15.2517859 C11.9346455,15.2265536 11.8973718,15.1397545 11.9346455,15.0650669 L12.2197392,14.5311515 C12.2449242,14.4938077 12.2449242,14.4564639 12.2197392,14.4065039 C12.1577842,14.282361 12.0464667,13.9962267 12.0464667,13.8599723 C12.0474357,13.8268003 12.0338064,13.7948773 12.009193,13.7726686 L11.7734618,13.4991504 C11.7509478,13.4756996 11.7377019,13.4448541 11.7361881,13.4123513 C11.7361881,13.3250476 11.7235956,13.1388332 11.6616406,12.9647303 C11.6243669,12.8779312 11.6742331,12.7906275 11.5750044,12.7906275 C11.2773182,12.7906275 11.6122781,12.5670693 11.6369594,12.5670693 C11.5251382,12.5297255 11.4259095,12.4308149 11.3019995,12.1194483 C11.3019995,12.1194483 11.0909496,11.9206178 11.3271844,11.7964749 C11.3392732,11.7838588 11.3639545,11.7712426 11.376547,11.7591311 L11.5377306,11.5476844 C11.5771377,11.4901964 11.5719247,11.4131074 11.5251382,11.36147 C11.4679769,11.296952 11.4256748,11.2206307 11.4012282,11.1379119 C11.4012282,11.1252958 11.4012282,11.1252958 11.3886357,11.1126796 C11.351362,11.0384966 11.1156308,10.5782595 11.0788608,10.5288042 C11.0536759,10.4914604 11.0662684,10.2426699 11.0662683,10.1059108 C11.0637932,10.0455207 11.1061364,9.99254606 11.1654971,9.98176794 C11.2017338,9.96931038 11.2410815,9.96931038 11.2773182,9.98176794 C11.3639545,10.0070002 11.8107355,9.65879452 12.517929,9.67090602 C12.5760628,9.67028586 12.6287959,9.63662974 12.6539278,9.58410689 L12.8030227,9.17382971 L12.8030227,9.16171821 L13.3117587,8.14233333 C13.3117587,8.12971719 13.3243512,8.11710102 13.3243512,8.10498952 C13.33644,8.00557425 13.398395,7.57006478 13.1253901,7.38385041 C13.1099396,7.35294339 13.1015109,7.31899253 13.1007088,7.28443515 L13.1007088,7.28443515 Z M11.413317,9.0496868 C11.425764,9.07302106 11.425764,9.10104016 11.413317,9.12437442 L11.3019995,9.47258015 L11.289407,8.10498952 C11.2884191,8.05270477 11.3173861,8.00446643 11.3639545,7.9808466 L11.376547,7.96823046 C11.4138207,7.94299816 11.4505907,7.90615901 11.4505907,7.85619905 L11.4505907,7.55845792 C11.4505907,7.45853801 11.5498194,7.39697119 11.6369594,7.43381037 C11.7361881,7.48377032 11.8600981,7.57006478 11.9346455,7.73205614 C11.9470797,7.76836101 11.9470797,7.80778268 11.9346455,7.84408755 L11.4138207,8.86347243 C11.4012282,8.88820008 11.3886357,8.92554389 11.4012282,8.96238306 L11.4138207,9.0496868 L11.413317,9.0496868 Z" id="Shape" fill="#5A9247"></path>
                <path d="M7.15857103,16.681448 C6.64983497,16.681448 6.21564639,16.5320728 6.19046145,16.5199613 C6.17837267,16.5199613 6.17837267,16.5199613 6.17837267,16.5073451 C5.71899913,16.2459385 5.6323629,16.047108 5.63236288,15.910349 C5.63064047,15.8685876 5.60710287,15.8308183 5.57040789,15.8109337 L5.48377166,15.7488622 C5.44649792,15.7241346 5.43390545,15.6867908 5.42131299,15.6373355 C5.42131299,15.5999917 5.43390545,15.5626479 5.4585867,15.5253041 C5.68222908,15.3017459 5.80613905,15.0902992 5.85550157,14.9903793 C5.8927753,14.9161964 5.85550157,14.8541249 5.79354658,14.8167811 C5.7814578,14.8167811 5.76886534,14.804165 5.76886534,14.804165 C5.75627287,14.804165 5.74368038,14.7920534 5.7315916,14.7920534 C5.69649069,14.7680466 5.67028479,14.7330989 5.65704414,14.6926382 C5.64572756,14.6534377 5.65523132,14.6111617 5.68222908,14.5806068 L5.74418407,14.4938077 C5.97991523,14.3444325 6.17837265,13.1635608 6.17837267,13.1635609 L6.36474132,12.5049979 L6.36474132,12.4797656 L6.42619261,11.9458501 C6.42619261,11.933234 6.42619261,11.933234 6.43878508,11.9206178 L6.43878508,11.9085063 C6.55060627,11.6349882 6.94752114,10.6902909 7.09611235,10.3920451 C7.1832523,10.2053261 7.14597856,10.0438394 6.99688363,9.89496884 C6.95960989,9.86973653 6.94752111,9.83289738 6.94752114,9.78293743 L6.94752114,9.33531643 C6.87297368,9.03757529 6.93492867,8.95027155 6.94752114,8.93765539 C7.00947612,8.78878483 7.10870484,8.65202575 7.15857103,8.60206583 C7.1706598,8.58995432 7.18325227,8.56472202 7.1832523,8.56472202 C7.31925104,8.10498952 7.26988853,7.89354286 7.19534107,7.80674374 C7.1823402,7.77717917 7.15352928,7.75773941 7.12129731,7.75678379 C7.08612537,7.7455271 7.04762517,7.75531709 7.02206859,7.78201609 L5.32208426,9.01234301 C5.27272175,9.03757532 5.23544803,9.04968682 5.19817429,9.03757529 L5.11153806,9.01234301 C5.07426433,8.99972687 5.04907939,9.01234301 5.01230934,9.03757529 C4.83853317,9.18644585 4.57812076,9.28586112 4.24316088,9.34793257 C4.19904617,9.34721565 4.15598841,9.33429151 4.11874722,9.31058879 C4.08147348,9.27324498 4.05679223,9.24851733 4.04419974,9.21117352 C4.00854963,9.1455593 4.03047421,9.06346491 4.09406595,9.02445451 C4.13344125,9.00366347 4.16742126,8.97393987 4.19329467,8.93765539 C4.3423896,8.75093638 4.29252339,8.16706097 4.29252339,8.09237337 L4.10615473,8.05502956 L4.16861342,7.85619905 C5.27272177,7.54584177 7.43107223,5.4576167 7.50561969,5.37031294 C7.50561969,5.35820143 7.51821215,5.35820143 7.51821215,5.35820143 C7.74135085,5.17148243 8.05162946,4.9978842 8.39918181,4.86112515 L8.47322557,4.86112515 L8.60972803,4.88585279 L8.58504676,4.89846894 C8.49841053,4.94792425 8.39867812,5.14675476 8.33672313,5.27089767 C8.32463436,5.29612998 8.31204189,5.30824148 8.31204189,5.32085762 C8.29944942,5.35820143 8.29944942,5.39554522 8.31204189,5.42027289 C8.44854432,5.74324631 9.08119035,6.41442549 9.29224024,6.6384883 C9.3174252,6.66321595 9.34160276,6.67583211 9.3788765,6.67583209 C9.41615023,6.67583209 9.44083148,6.66321595 9.46601642,6.65059981 L10.3963486,5.89262153 C10.6320797,5.71851867 10.7313085,5.4576167 10.6940347,5.10941097 C10.6814423,5.05995566 10.7192197,5.00999571 10.7559897,4.97315656 C10.8025707,4.94821574 10.8585037,4.94821574 10.9050846,4.97315656 C11.1156308,5.09729947 11.376547,5.25878619 11.376547,5.25878617 C11.8107355,5.49496049 11.9719193,5.74324631 12.0212817,5.90473303 C12.0338742,5.92996534 12.0585555,5.96730913 12.0958292,5.97942063 C12.5300178,6.19086731 12.641839,6.48911308 12.6665202,6.70055976 C12.6665202,6.76263121 12.7163864,6.79997503 12.7536602,6.81259117 C12.9642064,6.87466262 13.0886201,7.03614935 13.1133013,7.29705131 C13.1133013,7.32228362 13.1253901,7.35912277 13.1384863,7.38385041 C13.3117588,7.50849796 13.3863062,7.74467228 13.33644,8.10498952 L13.33644,8.11760568 C13.33644,8.12971719 13.33644,8.12971719 13.3243512,8.14233333 L13.3243512,8.15494947 L12.8156152,9.17433437 L12.8156152,9.18644588 L12.6665202,9.59672306 C12.6413353,9.65879452 12.579884,9.68352216 12.517929,9.68352216 L12.4806553,9.68352216 C12.009193,9.68352216 11.6495518,9.84500888 11.4631832,9.93231262 C11.3639545,9.96915177 11.3140883,10.0064956 11.2768146,9.99438408 C11.2407312,9.98204167 11.2015804,9.98204167 11.1654971,9.99438408 C11.1035421,10.0064956 11.0788608,10.0438394 11.0788608,10.1059108 L11.0788608,10.2179423 C11.0788608,10.3299737 11.0788608,10.4914604 11.0909496,10.5288042 C11.1282233,10.5782595 11.3639545,11.0506081 11.4012282,11.1126796 C11.4138207,11.1252957 11.4138207,11.1252957 11.4138207,11.1379119 C11.4385019,11.224711 11.4878644,11.3115101 11.5377306,11.36147 C11.5870932,11.41143 11.5870932,11.5108453 11.5498194,11.5603006 L11.3886357,11.7717472 L11.3639545,11.7964749 C11.351362,11.7964749 11.351362,11.809091 11.3387695,11.809091 C11.2773182,11.8464349 11.2400445,11.883274 11.2279557,11.933234 C11.2148595,12.0200331 11.3140883,12.119953 11.3140883,12.119953 C11.4505907,12.4550379 11.5498194,12.5297255 11.6490481,12.5670693 L11.6989144,12.5796855 L11.6369594,12.5796855 C11.6117744,12.5796855 11.4631832,12.6912122 11.4631832,12.7411722 C11.4631832,12.778516 11.5251382,12.778516 11.5750044,12.778516 C11.6490481,12.778516 11.6490481,12.8279713 11.6490481,12.8653151 C11.6490481,12.8905474 11.6490481,12.9273866 11.6616406,12.9526188 C11.7115068,13.1141056 11.7361881,13.2882084 11.7361881,13.3997352 C11.7361881,13.4249675 11.7487806,13.4618066 11.7734618,13.4744228 L12.009193,13.7479409 C12.0338742,13.7731732 12.0464667,13.7973962 12.0464667,13.83474 C12.0464667,13.9714991 12.1577842,14.2576334 12.2197392,14.3817763 C12.2449242,14.4317362 12.2449242,14.4811915 12.2197392,14.5180307 L11.9346455,15.0529554 C11.922053,15.0902992 11.922053,15.127643 11.9346455,15.1523707 C11.9454865,15.1881768 11.973454,15.216197 12.009193,15.2270583 C12.1084217,15.2644021 12.1703767,15.3017459 12.1703767,15.3512012 C12.1703767,15.4011612 12.1331029,15.4506165 12.0585555,15.4879603 C12.0143833,15.5181093 11.9944849,15.5732378 12.009193,15.6247193 C12.0212817,15.6746793 12.0464667,15.6994069 12.0958292,15.7115184 C12.4554704,15.7988222 12.5546991,15.8982375 12.5672915,15.9476928 C12.579884,15.9729251 12.5672915,15.9976527 12.554699,16.0102689 C12.554699,16.0349965 12.5426103,16.0723403 12.517929,16.0844518 C12.4187003,16.1838671 12.1205105,16.1591394 11.984008,16.1465233 C11.9346455,16.1344118 11.8973718,16.1591394 11.8726905,16.2090994 C11.7487806,16.4200414 11.4631832,16.5068405 11.2400445,16.544689 C11.0043133,16.5815281 10.7932634,16.5694166 10.780671,16.5694166 C9.97475248,16.6562157 9.5279714,16.3826976 9.32951398,16.2212109 C9.31692151,16.2212109 9.31692151,16.2212109 9.31692151,16.2090994 C9.27020847,16.1754323 9.22046255,16.1462044 9.16833027,16.1217956 C9.11846407,16.0965633 9.09378282,16.0349965 9.1058716,15.9603089 C9.3174252,15.1770983 9.1557378,13.5612219 9.1557378,13.5364942 C9.1557378,13.5364942 9.1058716,13.1141056 9.06910157,12.6912122 C9.04391661,12.4802702 9.01923537,12.2688235 9.00664287,12.1073368 C9.00664287,12.069993 8.9945541,12.0452654 8.9945541,12.0079216 C8.98196163,12.4676541 8.89532537,13.6858694 8.8953254,13.7479409 C8.83337041,15.1523707 8.74623047,15.388545 8.69686795,15.4132727 L8.68427548,15.4132727 C8.56036552,15.5253041 8.49790684,15.6121032 8.51049931,15.6994069 C8.52309178,15.786206 8.6223205,15.8235499 8.6223205,15.8235499 C8.68427548,16.1465233 8.57245429,16.2090994 8.51049931,16.2212109 L8.47322557,16.2212109 C8.46113679,16.2212109 8.44854432,16.2212109 8.43595186,16.2090994 L8.42386308,16.2090994 C8.39867812,16.2090994 8.32463436,16.1838671 8.28736062,16.233827 C7.97708201,16.5820328 7.5428934,16.681448 7.15857103,16.681448 L7.15857103,16.681448 Z M6.16628389,16.4821129 C6.17837267,16.4821129 6.17837267,16.4821129 6.17837267,16.494729 C6.19046145,16.494729 7.53030096,16.9791891 8.26267937,16.2585547 C8.31204189,16.2090994 8.38658934,16.2212109 8.42386308,16.2333224 L8.43595186,16.2333224 C8.44854432,16.2333224 8.44854432,16.2459385 8.46113679,16.2459385 L8.49841053,16.2459385 C8.54777305,16.233827 8.64700175,16.1717556 8.58504676,15.8735098 C8.52619314,15.8476768 8.48112242,15.7979324 8.46113679,15.7367507 C8.44854432,15.649447 8.51049931,15.5500317 8.64750546,15.438505 L8.65959424,15.438505 C8.65959424,15.438505 8.77091174,15.4258888 8.84596288,13.7973962 C8.84596288,13.7852847 8.95677667,12.0079216 8.94468789,11.8958901 C8.94468789,11.883274 8.94468789,11.883274 8.95728038,11.883274 C8.96936916,11.883274 8.96936916,11.8958901 8.96936916,11.8958901 L8.96936916,11.9085063 C8.98196163,12.069993 9.14314534,13.5612219 9.14314534,13.5738381 C9.14314534,13.5864542 9.30432904,15.2144422 9.09378282,15.9976527 C9.08119035,16.0597242 9.1058716,16.1096841 9.1557378,16.1339071 C9.20510032,16.1591394 9.25496653,16.1843717 9.30432902,16.2212109 C9.31692149,16.2212109 9.31692149,16.2212109 9.31692151,16.233827 C9.51537893,16.3953138 9.96165632,16.6562157 10.7559897,16.5820328 C10.7685822,16.5820328 11.5996856,16.6314881 11.8228243,16.2212109 C11.8480093,16.1717556 11.8973718,16.1465233 11.9593268,16.1591394 C12.0837404,16.1717556 12.3814266,16.1843717 12.4806553,16.097068 C12.5053365,16.0718357 12.5053365,16.0597242 12.5053366,16.0349965 C12.5053366,16.0349965 12.517929,16.0223804 12.5053366,15.9850366 C12.4927441,15.9355812 12.4187003,15.8487821 12.0464667,15.7614784 C11.9973878,15.7496261 11.959068,15.7112344 11.947238,15.6620631 C11.9349402,15.6007565 11.9590756,15.5378471 12.009193,15.5005764 C12.0837404,15.4632326 12.1205105,15.4132726 12.1084217,15.3759289 C12.1084217,15.3390897 12.0585555,15.3017459 11.9593268,15.2644021 C11.922053,15.2517859 11.8847793,15.2270583 11.8726905,15.1897145 C11.8603234,15.149261 11.8603234,15.1060251 11.8726905,15.0655716 L12.1577842,14.5306468 C12.1823824,14.4975556 12.1823824,14.4522113 12.1577842,14.4191201 C12.0958292,14.2949772 11.984008,14.0088429 11.984008,13.8720838 C11.984008,13.83474 11.9719193,13.8100124 11.947238,13.7973962 L11.7115068,13.5243827 C11.6888806,13.5008031 11.6756262,13.469758 11.6742331,13.437079 C11.6742331,13.3250476 11.6490481,13.1514493 11.5996856,12.989458 C11.5870932,12.9526189 11.5870932,12.9273866 11.5870932,12.9026589 C11.5870932,12.8532036 11.5870932,12.8279713 11.5251382,12.8279713 C11.4757757,12.8279713 11.4505907,12.8279713 11.4259095,12.8158598 C11.4007245,12.8032436 11.3886357,12.7906275 11.3886357,12.7658998 C11.3886357,12.7038284 11.5004569,12.6170293 11.5624119,12.591797 C11.4385019,12.5423417 11.351362,12.405078 11.2400445,12.1446806 C11.227452,12.1320645 11.1408158,12.0452654 11.1529046,11.9458501 C11.1706163,11.8872187 11.2108356,11.8380298 11.2647258,11.809091 L11.2899107,11.7838587 C11.3019995,11.7838587 11.3019995,11.7717472 11.3140883,11.7717472 L11.475272,11.5603006 C11.5150245,11.5073315 11.5098732,11.4331421 11.4631832,11.3861977 C11.4379982,11.3614701 11.376547,11.2993986 11.3392732,11.1626395 C11.3392732,11.1500234 11.3392732,11.1500234 11.3266808,11.1500234 C11.289407,11.0758404 11.0536759,10.6156033 11.0164021,10.566148 C10.9917209,10.5409157 10.9917209,10.4167728 11.0043133,10.2552861 L11.0043133,10.1432547 C11.0043133,10.0811832 11.0415871,10.0191117 11.1156308,10.0070002 C11.1518676,9.99454269 11.1912153,9.99454269 11.227452,10.0070002 C11.252637,10.0191117 11.3140883,9.98176794 11.4012282,9.94442413 C11.5996856,9.85762503 11.9593268,9.6961383 12.4307891,9.6961383 L12.4680628,9.6961383 C12.517929,9.6961383 12.5672915,9.65879449 12.5919728,9.60883456 L12.7410677,9.19855738 L12.7410677,9.18644588 L13.2498038,8.16706097 C13.2498038,8.15494947 13.2498038,8.15494947 13.2618925,8.14182869 L13.2618925,8.11760568 C13.3117587,7.76939995 13.2372113,7.53322563 13.0634351,7.40908272 C13.0513463,7.37173891 13.0387539,7.33439512 13.0387539,7.30966745 C13.0135689,7.06087699 12.9027551,6.91200641 12.703794,6.84943032 C12.6544315,6.83731881 12.5919728,6.78735886 12.5919728,6.7131759 C12.579884,6.50122459 12.4680628,6.21559495 12.0338742,6.01676444 C11.9966005,6.00465294 11.9719193,5.96730913 11.9593268,5.94207685 C11.9099642,5.78059012 11.7487806,5.5323043 11.314592,5.29612998 C11.314592,5.29612998 11.0536759,5.13464326 10.8431297,5.00999571 C10.8054052,4.9850184 10.7564405,4.9850184 10.718716,5.00999571 C10.6822109,5.03602597 10.6594323,5.07721589 10.656761,5.12202711 C10.6940347,5.47023284 10.594806,5.75586248 10.3590748,5.92946068 L9.4287427,6.68794359 C9.4017713,6.71284467 9.36617857,6.72623967 9.32951398,6.7252874 C9.29224024,6.7252874 9.25496653,6.7000551 9.23028526,6.67583209 C9.01923534,6.45176927 8.38658934,5.78059012 8.2500869,5.4576167 C8.23765791,5.41717252 8.23765791,5.37391797 8.2500869,5.33347379 C8.26267937,5.32085765 8.26267937,5.29612998 8.27527184,5.28351384 C8.33672313,5.15937092 8.43645555,4.98526806 8.52309178,4.9231966 L8.43595186,4.8979643 L8.36190809,4.8979643 C8.01435574,5.03472335 7.70407713,5.20882622 7.48043472,5.39554524 C7.45625717,5.42027289 5.26012928,7.55795328 4.13083599,7.88143136 L4.0693847,8.05502956 L4.25575335,8.09237337 L4.25575335,8.10498952 C4.25575335,8.13022182 4.31720464,8.76355252 4.15602093,8.9749992 C4.13014752,9.01128367 4.09616752,9.04100726 4.05679223,9.0617983 C4.02709211,9.07750272 4.00481416,9.10435911 3.99483725,9.13648592 C3.98224478,9.16171823 3.99483725,9.19855738 4.00742972,9.22378966 C4.01951849,9.26113347 4.04419974,9.28586112 4.08147348,9.32320493 C4.10665844,9.34793257 4.15602093,9.36054874 4.1807022,9.36054874 C4.51566208,9.29797265 4.77657818,9.19906202 4.94985067,9.0496868 C4.99971687,9.02445449 5.03699061,9.01234299 5.07426433,9.02445451 L5.17349305,9.0496868 C5.21076679,9.0617983 5.23544803,9.0496868 5.27272175,9.02445451 L6.9601136,7.78201609 C6.99688363,7.75678379 7.03415737,7.74467228 7.0714311,7.75678379 C7.10870484,7.76939993 7.13338609,7.78201609 7.15857103,7.8193599 C7.25779975,7.95561432 7.25779975,8.21702095 7.14597856,8.60206583 C7.14281943,8.62088758 7.13403812,8.63830724 7.1207936,8.65202578 C7.07143108,8.70148109 6.97220238,8.83874478 6.9102474,8.98761534 C6.9102474,8.98761534 6.83569994,9.07441444 6.9102474,9.37266024 L6.9102474,9.82028121 C6.9102474,9.85762503 6.92283987,9.89496881 6.95960991,9.90708034 C7.12079362,10.0685671 7.14597856,10.2426699 7.05883861,10.4293889 C6.9102474,10.7271301 6.51333253,11.6597158 6.40151134,11.9458501 C6.40151134,11.9579616 6.40151134,11.9579616 6.38891887,11.9705778 L6.38891887,11.9826893 L6.32696389,12.517614 L6.32696389,12.5423417 L6.14059524,13.2009047 C6.12850646,13.2508646 5.94264151,14.3943924 5.70691035,14.543263 L5.64495537,14.6305667 C5.61977041,14.6552944 5.61977041,14.6926382 5.61977041,14.729982 C5.63236288,14.7673258 5.65704414,14.804165 5.68222908,14.8167811 C5.68222908,14.8167811 5.69431786,14.8293973 5.70691035,14.8293973 C5.71899913,14.8293973 5.73209531,14.8293973 5.74418407,14.8415088 C5.80613905,14.8788526 5.85550157,14.9535402 5.80613905,15.0403393 C5.70229256,15.2381715 5.5683898,15.4186331 5.40922421,15.575264 C5.38436986,15.6022861 5.371,15.6379458 5.37195047,15.6746793 C5.37195047,15.7115184 5.39713543,15.7367507 5.42131299,15.7614784 L5.50845291,15.8235499 C5.54572664,15.8487822 5.57040789,15.8982375 5.57040789,15.9476928 C5.63236288,16.0102689 5.69431786,16.2212109 6.16578018,16.4826175 L6.16628389,16.4821129 Z M11.289407,9.53414694 L11.289407,9.47207549 L11.2773182,8.10549418 C11.2773182,8.04342272 11.3019995,7.99346277 11.351362,7.96923976 L11.3639545,7.95611896 C11.4138207,7.91927981 11.4385019,7.8940475 11.4385019,7.85670369 L11.4385019,7.55896258 C11.4385019,7.50849799 11.4631832,7.45904267 11.5004569,7.434315 C11.5400065,7.40532454 11.5922655,7.40047664 11.6364557,7.42169886 C11.7734618,7.49638646 11.8847793,7.59580173 11.9346455,7.71994464 C11.9471781,7.7605452 11.9471781,7.80399162 11.9346455,7.84459219 L11.4138207,8.86397709 C11.4012282,8.88870474 11.3886357,8.92604855 11.4012282,8.95077619 L11.4138207,9.03757529 C11.4259095,9.0628076 11.4259095,9.08753525 11.4138207,9.12487906 L11.289407,9.5346516 L11.289407,9.53414694 Z M11.5870932,7.43381037 C11.5608376,7.4365609 11.5355337,7.44518383 11.5130494,7.45904267 C11.4803313,7.4810295 11.4614294,7.5185219 11.4631832,7.55795328 L11.4631832,7.85619905 C11.4631832,7.90615901 11.4379982,7.94350282 11.3886357,7.9808466 L11.376547,7.99295811 C11.3392732,8.01819041 11.3019995,8.05502956 11.3019995,8.10498952 L11.3140883,9.41000403 L11.4138207,9.11175825 C11.4259095,9.08652595 11.4259095,9.0617983 11.4138207,9.0496868 L11.4012282,8.96238306 C11.3922426,8.92887297 11.3967653,8.89316697 11.4138207,8.86296779 L11.9346455,7.84358291 C11.947238,7.80674376 11.947238,7.76939995 11.9346455,7.74467228 C11.8688739,7.61659821 11.7647931,7.51232177 11.6369594,7.44642651 C11.6117744,7.43381037 11.5996856,7.43381037 11.5870932,7.43381037 L11.5870932,7.43381037 Z" id="Shape" fill="#000000"></path>
                <path d="M8.52309178,4.8111652 C8.52309178,4.8111652 8.36190807,4.93530811 8.27476815,5.12202711 L7.87785328,5.81843857 L8.39918181,5.86789389 L8.2002207,6.29028257 L9.11846407,6.81259117 C9.16833027,6.83731881 9.23028526,6.83731881 9.267559,6.799975 C9.29571657,6.77800472 9.31314979,6.74501712 9.31545992,6.70933562 C9.31777005,6.67365413 9.30473646,6.63868658 9.27964777,6.613256 C9.06910157,6.36497017 8.53518056,5.70590252 8.46113679,5.4576167 C8.37399685,5.15937092 8.58504676,4.88585279 8.60972803,4.86112515 C8.63491299,4.83589284 8.5230918,4.8111652 8.52309178,4.8111652 L8.52309178,4.8111652 Z" id="Path" fill="#5A9247"></path>
                <path d="M9.19301154,6.83731881 C9.16782658,6.83731881 9.14314534,6.82470267 9.11846407,6.82470267 L8.18813192,6.30289872 L8.18813192,6.29028257 L8.38658934,5.88000539 L7.86526081,5.83055007 L8.27476815,5.12202711 C8.36190809,4.93530811 8.52309178,4.8111652 8.52309178,4.8111652 C8.54827674,4.8111652 8.60972801,4.8363975 8.6223205,4.86112515 L8.6223205,4.88585279 C8.6223205,4.88585279 8.38658934,5.15937092 8.47322557,5.4697282 C8.54777302,5.70590252 9.01923534,6.30239408 9.29224024,6.62587214 C9.31709459,6.65289424 9.33046445,6.68855389 9.32951398,6.7252874 C9.32951398,6.76263121 9.30432902,6.799975 9.27964777,6.82470267 C9.25496653,6.82470267 9.21769279,6.83731881 9.19301154,6.83731881 Z M8.21281316,6.29028257 L9.11846407,6.81259117 C9.1557378,6.83731881 9.21769279,6.83731881 9.25496653,6.799975 C9.27854577,6.7755398 9.29553267,6.74549634 9.30432902,6.71267126 C9.30527712,6.67975339 9.29185019,6.64805785 9.267559,6.62587214 C9.24237403,6.58852833 8.53518056,5.75586245 8.44854432,5.47023284 C8.36190809,5.18409857 8.56036552,4.91058044 8.59763925,4.86112515 C8.59763925,4.84850901 8.56036552,4.83589284 8.52309178,4.82378134 C8.49790682,4.84850898 8.36190807,4.96003575 8.27476815,5.13413862 L7.89044577,5.81793393 L8.41127059,5.86789389 L8.41127059,5.88000539 L8.21281316,6.29028257 L8.21281316,6.29028257 Z" id="Shape" fill="#000000"></path>
                <path d="M10.594806,4.78643753 C10.594806,4.78643753 11.2521333,5.1593709 11.3639545,5.20882622 L11.2647258,6.14090736 L10.4955773,6.05410825 L10.6940347,6.73790355 L9.03182784,7.01142168 C9.03182784,7.01142168 10.3837561,5.91734918 10.558036,5.6191034 C10.7313085,5.32085762 10.656761,4.96054039 10.5076661,4.86112515 L10.594806,4.78643753 L10.594806,4.78643753 Z" id="Path" fill="#5A9247"></path>
                <path d="M8.9945541,7.02353318 L9.01923537,6.99880554 C9.03182784,6.98618939 10.3716673,5.9052377 10.5454435,5.60648726 C10.718716,5.30874612 10.6320797,4.94792425 10.4950736,4.86112515 L10.4829848,4.84850898 L10.5822135,4.76170988 C10.594806,4.76170988 11.2400445,5.13413862 11.351362,5.18409857 L11.351362,5.19671471 L11.2521333,6.14090736 L11.2400445,6.14090736 L10.4829848,6.05410825 L10.6814423,6.73790355 L10.6693535,6.73790355 L8.9945541,7.02353318 L8.9945541,7.02353318 Z M10.5207622,4.86112515 C10.594806,4.91058046 10.6441685,5.03472337 10.656761,5.15886626 C10.6693535,5.32035299 10.6441685,5.48234435 10.5575323,5.6191034 C10.3963486,5.89262153 9.25496653,6.82520731 9.05650908,6.98669403 L10.6693535,6.7252874 L10.470896,6.04149209 L10.4829848,6.04149209 L11.2400445,6.12879585 L11.3392732,5.20882622 C11.2148596,5.14675476 10.6441685,4.83589284 10.5822135,4.78643753 L10.5202586,4.86112515 L10.5207622,4.86112515 Z" id="Shape" fill="#000000"></path>
                <path d="M4.36656715,7.8193599 C4.4537071,7.7941276 4.57812076,7.74467231 4.66475699,7.69471233 C4.72671197,7.65736852 4.80075574,7.66998469 4.83853317,7.73205614 C4.98712438,7.95561432 5.29740302,8.45319524 5.32208426,8.75144102 C5.32290444,8.78443859 5.30928807,8.81614694 5.28481052,8.83824015 L5.14881178,8.99972685 C5.13621931,9.01234299 5.12362682,9.02495915 5.09894557,9.03707066 L4.40384087,9.36004408 C4.37915962,9.37266024 4.34238958,9.37266024 4.31720464,9.37266024 L4.19329467,9.34793257 C4.19329467,9.34793257 4.3423896,9.19855736 4.2799309,8.25436474 L4.2799309,8.24174859 C4.2799309,8.21651629 4.20588714,7.96823046 4.1807022,7.8688152 C4.19329467,7.7941276 4.30511586,7.83147138 4.36707085,7.8193599 L4.36656715,7.8193599 Z" id="Path" fill="#5A9247"></path>
                <path d="M4.33256049,9.38527638 L4.16861342,9.36004408 L4.18195149,9.34793257 C4.18195149,9.34793257 4.34645433,9.18644585 4.27809671,8.26647624 L4.27809671,8.25436474 C4.27809671,8.24174859 4.25030906,8.14233333 4.22307718,8.05502956 C4.20973911,7.99295811 4.18195147,7.93088665 4.16861342,7.88143136 C4.18195149,7.8193599 4.25086483,7.8193599 4.30532861,7.83147141 L4.37368621,7.83147141 C4.48316952,7.8062391 4.60654664,7.75678381 4.70213611,7.7073285 C4.78438752,7.66998469 4.86663895,7.68209619 4.90776464,7.74467228 C5.09949936,8.00557425 5.41405545,8.47792289 5.44128733,8.76405719 C5.44128733,8.80089634 5.42794926,8.82612864 5.40016161,8.86296779 L5.25010836,9.02445451 C5.23443521,9.03985031 5.2157873,9.05250733 5.19508883,9.0617983 L4.42814996,9.38477175 L4.33256049,9.38477175 L4.33256049,9.38527638 Z M4.20973911,9.33531643 L4.33256049,9.36054874 C4.36034814,9.36054874 4.40091809,9.36054874 4.42870573,9.34793257 L5.19508883,9.02495915 C5.2157873,9.01566818 5.23443522,9.00301114 5.25010836,8.98761534 L5.40016161,8.82612864 C5.42731865,8.8039199 5.44235642,8.77199694 5.44128733,8.73882488 C5.41405545,8.4405791 5.0578179,7.93139131 4.90776464,7.71944 C4.89317114,7.68991079 4.86114964,7.67065721 4.82551323,7.66998469 C4.79302986,7.66809194 4.7604696,7.67238932 4.72992374,7.68260083 C4.62658233,7.73664144 4.51600339,7.77836593 4.40091809,7.80674374 L4.31922242,7.80674374 C4.25086483,7.80674374 4.20973911,7.80674374 4.1958453,7.84408755 C4.20973911,7.88143136 4.22363295,7.94350282 4.25086483,8.00557427 C4.29143478,8.12971719 4.30532861,8.19229328 4.30532861,8.21702092 L4.30532861,8.22913243 C4.36034814,9.0617983 4.25086483,9.28586112 4.20973911,9.33531643 Z" id="Shape" fill="#000000"></path>
                <path d="M7.41898346,7.19763605 C7.41898346,7.19763605 7.20793354,7.71944 7.12129731,7.71944 C7.12129731,7.71944 8.28736064,8.57733818 8.29995311,8.68936957 L8.60972803,7.78201609 L7.41898346,7.19713141 L7.41898346,7.19763605 Z" id="Path" fill="#5A9247"></path>
                <path d="M8.2994494,8.72620874 L8.2994494,8.68936957 C8.28736062,8.61468197 7.59275961,8.06764571 7.1207936,7.73205614 L7.09611235,7.71944 L7.12129731,7.71944 C7.1832523,7.71944 7.33184351,7.40908272 7.40639096,7.19763605 L7.40639096,7.1850199 L7.41898346,7.1850199 L8.6223205,7.76939995 L8.29995311,8.72620874 L8.2994494,8.72620874 Z M7.14597856,7.71944 C7.30716226,7.84408755 8.2002207,8.50265056 8.2994494,8.66413728 L8.59763925,7.78201609 L7.41898346,7.21025219 C7.39379849,7.28443515 7.23261481,7.66998469 7.14597856,7.71994464 L7.14597856,7.71944 Z" id="Shape" fill="#000000"></path>
                <polygon id="Path" fill="#5A9247" points="10.3343936 7.73205614 10.5207622 8.53999437 11.5377306 7.8688152 11.4631832 7.3343951"></polygon>
                <path d="M10.5269646,8.59450623 L10.5269646,8.58146065 L10.3338899,7.7329758 L10.3469355,7.7329758 L11.5293873,7.32177896 L11.6066172,7.88743551 L10.5269646,8.59450623 L10.5269646,8.59450623 Z M10.3469355,7.74602138 L10.5400101,8.55589129 L11.5810478,7.87438994 L11.503818,7.33482453 L10.3469355,7.74602138 Z" id="Shape" fill="#000000"></path>
                <path d="M6.14109893,13.1141056 C6.14109893,13.1262171 6.12850646,13.1388332 6.12850646,13.1514494 C6.09123273,13.3129361 5.78095411,14.6179506 5.53313418,14.6926382 C5.53313418,14.6926382 5.64495537,14.8667411 5.76886534,14.8288926 L7.12129731,15.0156116 L7.14597856,15.0156116 C7.19534107,15.0156116 7.41898346,14.9903793 7.50561969,14.7794373 L7.89044577,13.437079 C7.91512702,13.3623914 7.87785331,13.3008246 7.80330583,13.2755923 L6.42619261,12.8032436 C6.36423762,12.7780113 6.29019386,12.8032436 6.2650089,12.8653151 L6.14109893,13.1141056 L6.14109893,13.1141056 Z" id="Path" fill="#5A9247"></path>
                <path d="M7.14597856,15.0282278 L7.1207936,15.0282278 L5.76886534,14.8415088 C5.64495537,14.8788526 5.53313418,14.7052543 5.52054168,14.7052543 L5.50845291,14.6926382 L5.52054168,14.6926382 C5.71899911,14.6305667 5.97991523,13.6984856 6.1038252,13.1635609 C6.1038252,13.1514494 6.1038252,13.1514494 6.11641769,13.1388332 L6.11641769,13.1262171 L6.24032766,12.8779312 C6.26551262,12.8158598 6.33955638,12.778516 6.41410383,12.8158598 L7.79121705,13.2882084 C7.82849079,13.3003199 7.86526081,13.3250476 7.87785328,13.3502799 C7.89044575,13.3876237 7.90303824,13.4123513 7.89044577,13.4618066 L7.50561969,14.804165 C7.41898346,15.0282278 7.14597856,15.0282278 7.14597856,15.0282278 L7.14597856,15.0282278 Z M5.76886534,14.8167811 L7.12129731,15.0035001 L7.14597856,15.0035001 C7.14597856,15.0035001 7.40639096,15.0035001 7.49353091,14.7673258 L7.87785328,13.4249675 C7.89044575,13.3876237 7.89044575,13.3623914 7.87785328,13.3376637 C7.86217834,13.3079078 7.83537236,13.285588 7.80330583,13.2755923 L6.42619261,12.8032436 C6.36423762,12.7780113 6.30228264,12.8032436 6.27760137,12.8653151 L6.1536914,13.1141056 C6.1536914,13.1262171 6.1536914,13.1262171 6.14109893,13.1388332 L6.14109893,13.1514494 C6.1038252,13.3003199 5.80613905,14.5806068 5.54572664,14.6926382 C5.57040789,14.729982 5.66963661,14.8541249 5.76886534,14.8167811 L5.76886534,14.8167811 Z" id="Shape" fill="#000000"></path>
                <path d="M6.33955635,12.6291408 L6.09123273,13.0520341 C6.04187021,13.1388332 6.1038252,13.2508646 6.20305392,13.2508646 C6.57528751,13.2755923 7.31975473,13.3623914 7.74135085,13.6111818 C7.8158983,13.6485257 7.90253455,13.6111818 7.93980827,13.5364942 L8.00176325,13.3250476 C8.01619704,13.2881305 8.01168164,13.246473 7.98967447,13.2135208 C7.90253453,13.0641456 7.56757467,12.6785961 6.47605882,12.567574 C6.41410383,12.5544532 6.36423762,12.5796855 6.33955635,12.6291408 L6.33955635,12.6291408 Z" id="Path" fill="#5A9247"></path>
                <path d="M7.80330583,13.8241404 C7.77862458,13.8241404 7.75394331,13.8241404 7.74135085,13.8093414 C7.28248099,13.4884993 6.45137755,13.4008893 6.20305392,13.3860903 C6.1536914,13.3860903 6.11641769,13.3570843 6.07914395,13.2990723 C6.05424994,13.2443292 6.05424994,13.1785953 6.07914395,13.1238523 L6.32696389,12.6283821 C6.35214885,12.5697782 6.41410383,12.5407721 6.47605882,12.5549791 C7.60484841,12.6863942 7.92771951,13.1676572 7.98967447,13.3132793 C8.01435572,13.3570843 8.01435572,13.4008893 8.00176325,13.4589013 L7.93980827,13.7075243 C7.91462331,13.7797434 7.86526081,13.8235484 7.80380952,13.8235484 L7.80330583,13.8241404 Z M6.45188126,12.5691862 C6.40201505,12.5691862 6.37733381,12.5987842 6.35265254,12.6419972 L6.10432891,13.1380593 C6.07961975,13.182257 6.07961975,13.2394837 6.10432891,13.2836813 C6.12951387,13.3274863 6.16628389,13.3564924 6.20355761,13.3564924 C6.45188124,13.3712913 7.28298469,13.4583094 7.74185454,13.7791515 C7.80380952,13.8229565 7.89094947,13.7791515 7.9282232,13.6921334 L7.99017819,13.4435104 C8.00226697,13.4002974 8.00226697,13.3564924 7.9775857,13.3274863 C7.90303824,13.1818643 7.59326332,12.7148082 6.47656251,12.5697782 C6.46397004,12.5839852 6.45137755,12.5697782 6.45137755,12.5697782 L6.45188126,12.5691862 Z" id="Shape" fill="#000000"></path>
                <path d="M10.0734775,13.3750075 C10.1359362,13.5617265 10.3590748,14.1824411 10.5575323,14.5679906 C10.5827173,14.6305667 10.6441685,14.6552944 10.7066272,14.6305667 C10.9791284,14.5558792 11.7115068,14.3817763 12.1331029,14.4317362 C12.2821979,14.4564639 12.2323317,14.3691601 12.2076504,14.3197048 C12.1334954,14.2054274 12.1151511,14.0635947 12.1577842,13.9341553 C12.1703767,13.8847 12.1703767,13.83474 12.1331029,13.7979009 L11.7855506,13.4123513 C11.7631085,13.388696 11.7500367,13.3576595 11.7487806,13.3250476 C11.7487806,13.1635608 11.7361881,12.7038284 11.5004569,12.7537883 C11.5004569,12.7537883 10.6940347,12.1320645 10.0739812,13.2508646 C10.0615522,13.2913088 10.0615522,13.3345633 10.0739812,13.3750075 L10.0734775,13.3750075 Z" id="Path" fill="#5A9247"></path>
                <path d="M10.656761,14.6552944 C10.6441685,14.6552944 10.631576,14.6552944 10.6073985,14.6426783 C10.5775075,14.6270775 10.5550366,14.600207 10.5449398,14.5679906 C10.3464824,14.1829458 10.1233437,13.5612219 10.0613887,13.3750075 C10.0489597,13.3345633 10.0489597,13.2913088 10.0613887,13.2508646 C10.2724386,12.8774266 10.5202586,12.6538684 10.8058559,12.591797 C11.1654971,12.517614 11.4631832,12.7164445 11.4878644,12.7411722 C11.5309984,12.7298373 11.5769401,12.7391548 11.6122781,12.7664045 C11.6989144,12.8405874 11.7482769,13.0268018 11.7482769,13.3129361 C11.7482769,13.3381684 11.7608693,13.3750075 11.7855506,13.3876237 L12.1331029,13.7726686 C12.1703767,13.8100124 12.1703767,13.8599723 12.1582879,13.9220438 C12.1092832,14.0465451 12.1279504,14.1875756 12.2076504,14.2949772 L12.2076504,14.3070887 C12.2197392,14.3444325 12.2449242,14.3817763 12.2197392,14.4065039 C12.2076504,14.4317362 12.1703767,14.4317362 12.1084217,14.4191201 C11.6369594,14.3570486 10.780671,14.5932229 10.6814423,14.6179506 C10.6940347,14.6431829 10.6814423,14.6552944 10.656761,14.6552944 L10.656761,14.6552944 Z M10.08607,13.3750075 C10.148025,13.5617265 10.3716673,14.1824411 10.5696211,14.5679906 C10.594806,14.6305667 10.6441685,14.6552944 10.7066272,14.6305667 C10.8058559,14.6053344 11.6616406,14.3691601 12.1331029,14.4317362 C12.1950579,14.4438477 12.2197392,14.4317362 12.2197392,14.4191201 C12.2323317,14.4065039 12.2076504,14.3570486 12.1950579,14.3318163 C12.1456954,14.2576334 12.0837404,14.1208743 12.1456954,13.9341553 C12.1577842,13.8720838 12.1577842,13.83474 12.1205105,13.8100124 L11.7729581,13.4249675 C11.7481635,13.3977401 11.7349687,13.3618841 11.7361881,13.3250476 C11.7361881,13.0394179 11.6863219,12.8532036 11.6122781,12.7906275 C11.5750044,12.7658998 11.5498194,12.7537883 11.5004569,12.7658998 C11.5004569,12.7658998 11.1901783,12.5297255 10.8305372,12.6170293 C10.5449398,12.6791007 10.2966162,12.8900427 10.0986624,13.2629761 C10.0763153,13.2959669 10.071606,13.3378635 10.08607,13.3750075 L10.08607,13.3750075 Z" id="Shape" fill="#000000"></path>
                <path d="M9.83825004,12.9400027 L9.97424878,13.2009047 C10.0115225,13.2629761 10.08607,13.2882084 10.148025,13.2508646 C10.3837561,13.1262171 10.9297659,12.8653151 11.5870932,12.7906275 C11.7986468,12.7658998 11.9346455,12.7658998 11.6616406,12.5544532 C11.5298099,12.4551045 11.4270059,12.3221317 11.3639545,12.1694083 C11.3348242,12.1024221 11.2587018,12.0697053 11.1901783,12.0947207 C10.8798997,12.2188636 10.1107512,12.5297255 9.86293128,12.7658998 C9.82565755,12.8279713 9.81306508,12.8900427 9.83774632,12.9400027 L9.83825004,12.9400027 Z" id="Path" fill="#5A9247"></path>
                <path d="M10.08607,13.2755923 L10.060885,13.2755923 C10.024115,13.2629761 9.99943372,13.2382485 9.97424878,13.2135208 L9.83825004,12.9526188 C9.81306508,12.9026589 9.82565757,12.8405874 9.86293128,12.7658998 C10.08607,12.5544532 10.7313085,12.2814397 11.1901783,12.0947207 C11.2647258,12.0694884 11.351362,12.1073368 11.376547,12.1694083 C11.4385019,12.3182788 11.5498194,12.4676541 11.6737294,12.5544532 C11.7981431,12.6417569 11.8349131,12.7038284 11.8228243,12.7411722 C11.8107355,12.778516 11.7361881,12.7906275 11.6243669,12.8032436 L11.5870932,12.8032436 C10.9917209,12.8653151 10.4829848,13.0893779 10.148025,13.2629761 C10.1359362,13.2755923 10.1107512,13.2755923 10.08607,13.2755923 Z M9.85033882,12.9400027 L9.98684125,13.2009047 C9.99943372,13.226137 10.0367075,13.2508646 10.0613887,13.2629761 C10.0865737,13.2755923 10.1233437,13.2629761 10.148025,13.2508646 C10.4703923,13.0767617 10.9917209,12.8532036 11.5870932,12.7906275 L11.6243669,12.7906275 C11.7115068,12.778516 11.7981431,12.7658998 11.8107355,12.7411722 C11.8228243,12.7159399 11.7734618,12.6538684 11.6616406,12.5796855 C11.5297386,12.4801982 11.4269285,12.3470433 11.3639545,12.1941359 C11.3387695,12.1320645 11.2647258,12.1073368 11.2027708,12.1194483 C10.9423584,12.2314797 10.1359362,12.5544532 9.87502006,12.7906275 C9.83633462,12.8303037 9.82647874,12.8899532 9.85033882,12.9400027 L9.85033882,12.9400027 Z M6.98429116,16.233827 C6.67125807,16.2347384 6.36054065,16.1800641 6.06655148,16.0723403 C5.61977041,15.8982375 5.359358,15.649447 5.359358,15.649447 L5.37195047,15.6373355 C5.37195047,15.6373355 5.61977041,15.8856213 6.06705517,16.047108 C6.47605882,16.2085947 7.14597856,16.3332423 7.98967447,16.0223804 L8.00176325,16.0349965 C7.67842193,16.1658663 7.33302041,16.2333634 6.98429116,16.233827 L6.98429116,16.233827 Z M10.3590748,16.3700815 C10.1480249,16.3700815 9.96215998,16.3458584 9.81306508,16.3206261 C9.36678772,16.2459385 9.11846407,16.097068 9.11846407,16.097068 L9.13105656,16.0844518 C9.13105656,16.0844518 9.3788765,16.233827 9.81306508,16.3085146 C10.2225724,16.3826976 10.8798997,16.3953137 11.7361881,16.1096841 L11.7361881,16.1217956 C11.1901783,16.3085146 10.7313085,16.3705861 10.3590748,16.3705861 L10.3590748,16.3700815 Z" id="Shape" fill="#000000"></path>
                <path d="M12.1829691,16.1964832 C11.6369594,16.1964832 11.1403121,15.8109337 11.1282233,15.8109337 L11.1408158,15.7988222 C11.1529046,15.7988222 11.8228243,16.3206261 12.4433816,16.1470279 L12.4433816,16.1591394 C12.3688341,16.1843717 12.2821979,16.1964832 12.1829691,16.1964832 Z M6.30228264,15.3759289 C6.07914395,15.2396744 5.93004902,14.8914687 5.93004902,14.8788526 L5.94264151,14.8667411 C5.94264151,14.8667411 6.09123273,15.2270583 6.31487511,15.3638174 L6.30228264,15.3759289 Z" id="Shape" fill="#000000"></path>
                <path d="M11.5996856,9.02495915 C11.5996856,9.02495915 11.1408158,9.4347317 11.3140883,10.1311432 C11.3140883,10.1311432 12.0958292,9.73297748 12.703794,9.79555357 C12.703794,9.79555357 12.765749,9.36054874 12.8528889,9.33531643 C12.8402964,9.34793257 12.3935154,9.01234301 11.5996856,9.02495915 Z" id="Path" fill="#5A9247"></path>
                <path d="M11.3019995,10.1432547 C11.1282233,9.4347317 11.5870932,9.02495915 11.5870932,9.01234301 L11.6369594,9.01234301 C12.2696054,9.01234301 12.6665202,9.23590119 12.8030227,9.29797262 C12.8156152,9.31058876 12.8402964,9.31058876 12.8402964,9.32320493 L12.8775702,9.31058879 L12.8523852,9.33582107 L12.8402964,9.33582107 C12.7783414,9.36054872 12.7284752,9.62145071 12.703794,9.78293743 L12.703794,9.79555357 L12.6912015,9.79555357 C12.1084217,9.74559362 11.3266808,10.1311432 11.3019995,10.1437593 L11.3019995,10.1432547 Z M11.5996856,9.03707066 C11.5624119,9.07441447 11.1654971,9.47207549 11.3140883,10.118527 C11.4138207,10.068567 12.1205105,9.73297745 12.6912015,9.78293743 C12.703794,9.72086597 12.7536602,9.39738789 12.8277039,9.33531643 C12.8156152,9.33531643 12.8156152,9.32320493 12.8030227,9.32320493 C12.667024,9.24851733 12.2696054,9.03707066 11.6369594,9.03707066 L11.5996856,9.03707066 Z M9.03182784,11.8464349 L8.80818545,11.3740862 L8.80818545,10.0433348 C9.08119035,9.69512903 9.03182784,9.3600441 9.03182784,9.36004408 L9.03182784,7.06087699 L9.05650908,7.06087699 L9.05650908,9.36054874 C9.05650908,9.36054874 9.11846407,9.69613833 8.83337041,10.0564555 L8.83337041,11.3735816 L9.05650908,11.8212025 L9.31692151,11.6597158 L9.32951398,11.672332 L9.03182784,11.8464349 L9.03182784,11.8464349 Z M7.79121705,10.5288042 L7.19534107,10.4788442 L7.19534107,10.4667327 L7.20793354,10.0564555 L7.85266835,10.0564555 L7.85266835,10.068567 L7.79121705,10.5288042 L7.79121705,10.5288042 Z M7.20793354,10.4541166 L7.77862458,10.5040765 L7.82849079,10.0811832 L7.23261479,10.0811832 L7.20793354,10.4541166 L7.20793354,10.4541166 Z" id="Shape" fill="#000000"></path>
                <path d="M8.75882294,10.6403309 L8.18813192,10.6403309 L8.31204189,10.2179423 L8.82077792,10.2179423 L8.82077792,10.2305584 L8.75882294,10.6403309 L8.75882294,10.6403309 Z M8.21281316,10.6156033 L8.73414169,10.6156033 L8.80818545,10.2426699 L8.32463436,10.2426699 L8.21281316,10.6161079 L8.21281316,10.6156033 Z M10.1359362,10.6408356 L9.45342395,10.6408356 L9.45342395,10.2673976 L9.46601642,10.2673976 L10.1359362,10.2305584 L10.1359362,10.6403309 L10.1359362,10.6408356 Z M9.47810519,10.6156033 L10.1107512,10.6156033 L10.1107512,10.2426699 L9.47810519,10.2800137 L9.47810519,10.6156033 Z M10.6194873,10.7150185 L10.5449398,10.2679022 L10.5575323,10.2679022 L11.1282233,10.068567 L11.1282233,10.0811832 L11.0788608,10.5656433 L10.6194873,10.7150185 L10.6194873,10.7150185 Z M10.5701248,10.2679022 L10.6441685,10.6902909 L11.0662683,10.5409157 L11.1156308,10.0816878 L10.5701248,10.2679022 L10.5701248,10.2679022 Z M12.6665202,11.4487738 C12.579884,11.4487738 12.5053365,11.4235415 12.5053366,11.4235415 C12.3935154,11.3488539 12.3315604,11.2620548 12.3189679,11.1752557 C12.3068791,11.0011528 12.4927441,10.8643938 12.5053366,10.8643938 L12.517929,10.8765053 C12.517929,10.8765053 12.3441529,11.0132643 12.3441529,11.1752557 C12.3441529,11.2620548 12.4061078,11.3367424 12.517929,11.41143 C12.517929,11.41143 12.7904302,11.5108453 12.9521176,11.3115101 L12.9642064,11.3241263 C12.8861524,11.4043259 12.7788252,11.4491601 12.667024,11.4482692 L12.6665202,11.4487738 Z" id="Shape" fill="#000000"></path>
                <path d="M13.0671527,12.2118086 C12.9136731,12.2117351 12.7665863,12.1503344 12.6586073,12.0412632 C12.4766073,11.9139905 12.4307891,11.7867177 12.4307891,11.617445 C12.4307891,11.2356268 12.9309709,10.9390814 12.9309709,10.9390814 L12.9767891,10.9390814 L12.9767891,10.9810814 L13.7035164,11.8719905 C13.7035164,11.8719905 13.4311527,12.1685359 13.1129709,12.2118086 L13.0671527,12.2118086 Z M12.9767891,11.0230814 C12.8851527,11.1083541 12.5224254,11.3628995 12.5224254,11.659445 C12.5224254,11.7867177 12.5669709,11.9139905 12.7489709,12.0412632 C12.8851528,12.1685359 13.0213345,12.2118086 13.1587891,12.1685359 C13.4311527,12.1685359 13.6131527,11.9572632 13.7035164,11.8719905 L12.9767891,11.0230814 Z" id="Shape" fill="#000000"></path>
                <path d="M2.25808288,8.10498952 C2.25808288,8.10498952 2.60563523,8.22913243 2.3573116,8.58944966 C2.3573116,8.58944966 1.97248551,9.18644585 1.48893441,8.91242311 C1.48893441,8.91242311 1.33983948,8.8135125 1.31515824,8.68936957 C1.31515824,8.68936957 1.86116801,8.82562398 2.01026294,8.32854769 C2.01026294,8.34116384 2.20821667,8.35378 2.25808288,8.10498952 Z" id="Path" fill="#FFBE83"></path>
                <path d="M1.80061332,9.36510065 C1.70374759,9.36510065 1.60631866,9.32922895 1.5094529,9.25892048 C1.49537358,9.25892048 1.3427537,9.11758604 1.31515824,8.92316153 L1.31515824,8.9052257 L1.32923758,8.9052257 C1.35683304,8.9052257 1.92563771,9.0824318 2.09177372,8.41019649 L2.10585303,8.32266957 L2.10585303,8.41091391 C2.11936919,8.41091391 2.16104399,8.41091391 2.2027188,8.39297808 C2.25847292,8.35710639 2.32774319,8.28679791 2.35533865,8.1103092 L2.35533865,8.09237337 L2.36941797,8.09237337 C2.36941797,8.09237337 2.52147466,8.16339931 2.57779197,8.35782381 C2.60482427,8.48122239 2.57779197,8.64049266 2.49387919,8.81698137 C2.48036304,8.81698137 2.2027188,9.36510065 1.80061332,9.36510065 L1.80061332,9.36510065 Z M1.32923758,8.95831577 C1.37034919,9.11758604 1.50945292,9.24098462 1.5094529,9.24098465 C2.03658276,9.61261529 2.46684689,8.79976296 2.46684689,8.78182709 C2.54963331,8.62255683 2.57722878,8.48122239 2.54963331,8.35782381 C2.51747092,8.25250633 2.45209036,8.16921716 2.36941797,8.12824507 C2.31366385,8.41091391 2.16104399,8.46400401 2.10585303,8.44606815 L2.09121056,8.44606815 C1.93915386,9.0824318 1.42554015,8.9762516 1.32867439,8.95831577 L1.32923758,8.95831577 Z" id="Shape" fill="#000000"></path>
                <path d="M1.5508894,7.76939995 C1.5508894,7.76939995 0.868377163,7.99295813 1.04215336,8.46581141 C1.21592954,8.93765541 1.86116803,8.58995432 1.86116803,8.58995432 C1.86116803,8.58995432 2.08430672,8.49053906 2.10898797,8.35378 C2.13417293,8.21702095 1.55088942,7.76939995 1.5508894,7.76939995 Z" id="Path" fill="#FFBE83"></path>
                <path d="M1.47414072,9.04212723 C1.40290609,9.04212723 1.3455709,9.02601675 1.28881484,9.00923499 C1.17217448,8.95969488 1.0823387,8.84960434 1.04615381,8.71186255 C1.00066745,8.57227951 1.00589065,8.41729504 1.06063238,8.28224995 C1.20310164,7.93453226 1.61660998,7.78551039 1.64556715,7.76939995 C1.67394517,7.78618168 2.315636,8.36481615 2.28725795,8.56284069 C2.25830078,8.74475476 2.0017403,8.87699489 2.0017403,8.89377662 C1.97336229,8.87699489 1.71680178,9.04212723 1.47414072,9.04212723 L1.47414072,9.04212723 Z M1.63050942,7.78618168 C1.58823196,7.80229216 1.20310164,7.96742449 1.07453182,8.28224995 C1.01777577,8.41449008 1.01777577,8.54673019 1.06063238,8.69508079 C1.0961942,8.82393087 1.18004344,8.92728502 1.28881484,8.97634279 C1.57375336,9.10858292 1.97336226,8.84410266 1.98784086,8.84410266 C1.98784086,8.84410266 2.24440137,8.71186252 2.27277938,8.54673022 C2.28725795,8.39770835 1.81641443,7.95131402 1.63108855,7.78618168 L1.63050942,7.78618168 Z" id="Shape" fill="#000000"></path>
                <path d="M2.0843067,7.08610927 C2.0843067,7.08610927 1.8113018,6.70055974 1.65011812,6.71267126 L1.38970571,6.46438544 C1.38970571,6.46438544 0.967605909,6.37708168 0.781740932,6.57641685 C0.669919741,6.70055976 0.607964757,6.96146172 0.893562124,7.1729084 L1.31515824,7.55795328 L1.61284438,7.68260083 L2.0843067,7.08560464 L2.0843067,7.08610927 Z" id="Path" fill="#FFBE83"></path>
                <path d="M1.61284438,7.7129976 L1.30256577,7.58704513 L0.880969655,7.19587568 C0.757059686,7.10781136 0.682512233,6.99414694 0.669919741,6.86819444 C0.658803729,6.76138607 0.695193256,6.65511207 0.769148464,6.57840138 C0.955517108,6.37616061 1.36452075,6.45193691 1.38970571,6.46473695 L1.65011812,6.71664189 C1.81130183,6.71664189 2.07171423,7.08272325 2.0843067,7.09552329 L1.61284438,7.7129976 L1.61284438,7.7129976 Z M1.31515824,7.56195704 L1.60025191,7.68790951 L2.05962545,7.0950113 C2.02235172,7.0448351 1.78662056,6.72944193 1.65011812,6.72944193 L1.63752565,6.72944193 L1.37711322,6.47753699 C1.33983948,6.46473695 0.955517108,6.40176072 0.781740932,6.59068942 C0.716499718,6.66713861 0.684997037,6.76746176 0.694601011,6.86819444 C0.70719348,6.98185887 0.769148464,7.0950113 0.893562124,7.18358764 L1.31515824,7.56195704 L1.31515824,7.56195704 Z" id="Shape" fill="#000000"></path>
                <path d="M2.35680791,6.82470267 C2.35680791,6.82470267 1.1786558,7.64525704 1.46374947,8.26647624 C1.74934684,8.8882001 2.38199287,8.16706097 2.3573116,7.83147141 C2.3573116,7.83147141 2.48122157,7.48326568 2.54368024,7.35912277" id="Path" fill="#FFBE83"></path>
                <path d="M1.76193931,8.5152667 C1.66271059,8.5152667 1.53829693,8.46530675 1.4516607,8.26647624 C1.16606333,7.64525704 2.29535661,6.84943032 2.34471913,6.81259117 L2.3573116,6.82470267 C2.34471913,6.83731881 1.19124827,7.64525704 1.46374947,8.25436474 C1.55088942,8.4405791 1.67530308,8.5273782 1.83648676,8.47792291 C2.09689917,8.41585146 2.3573116,8.03030192 2.34522282,7.8193599 C2.34522282,7.8193599 2.4686291,7.47115418 2.53108777,7.34701126 L2.54317655,7.35912277 C2.48122157,7.47115418 2.36940038,7.80674376 2.35680791,7.83147141 C2.36940038,8.05502959 2.10898797,8.4405791 1.83598307,8.50265056 C1.82389429,8.5152667 1.79870933,8.5152667 1.76193931,8.5152667 L1.76193931,8.5152667 Z" id="Path" fill="#000000"></path>
                <path d="M2.18675629,9.06685487 C2.02731236,9.05565931 1.87408498,8.98388041 1.74661718,8.86067305 C1.74661718,8.86067305 1.5508894,8.65449123 1.5508894,8.3452185 C1.5508894,8.13903667 1.60056651,7.96594578 1.74661718,7.7941276 L2.82361667,8.58576395 L2.79877814,8.62012759 C2.79877814,8.65449123 2.57821182,9.06685487 2.18675629,9.06685487 L2.18675629,9.06685487 Z M1.74661718,7.86285487 C1.62441152,8.03467306 1.57572798,8.17340031 1.57572798,8.3452185 C1.57572798,8.62012759 1.74661718,8.82630941 1.74661718,8.82630941 C1.99102851,9.03249123 2.26027837,9.06812758 2.48084469,8.89503669 C2.59030515,8.82464409 2.68296301,8.71781884 2.74910102,8.58576395 L1.74562365,7.86285487 L1.74661718,7.86285487 Z" id="Shape" fill="#000000"></path>
                <path d="M6.62465003,17.0664929 C6.62465003,17.0664929 6.72387875,17.5509531 6.62465003,17.8870473 C6.51333253,18.2473645 7.26988853,18.048534 7.13338609,17.9738464 C7.04674986,17.9238864 7.08402357,17.7376721 7.04674983,17.7623997 C7.04674983,17.7623997 6.94752111,17.1164528 7.13338609,17.0538767 C7.31975473,17.0044214 6.9102474,17.203252 6.62465003,17.0664929 Z" id="Path" fill="#A94E00"></path>
                <path d="M7.10350186,18.3175204 C6.99774449,18.3175204 6.89090798,18.3175204 6.81212956,18.2873896 C6.67831415,18.2578613 6.54557788,18.1988048 6.62543544,18.050561 C6.83802932,17.6648861 6.62543544,17.0857711 6.62543544,17.0707057 L6.62543544,17.0556402 L6.6513352,17.0707057 C6.99666535,17.159893 7.3959533,17.1303648 7.63552609,17.0857711 C7.66142585,17.0707057 7.68840475,17.0556402 7.74128346,17.0556402 C7.84811997,17.0411774 7.84811997,17.0411774 7.87401973,17.0556402 L7.87401973,17.0707057 C7.84811997,17.0857711 7.79524131,17.1008365 7.68840475,17.1152993 C7.44883196,17.2635431 7.58156824,17.8131299 7.60854719,17.9017146 C7.63552609,17.9017146 7.63552609,17.9318455 7.63552609,17.9758365 C7.63552609,18.0354956 7.66142585,18.1246829 7.76826236,18.1542112 C7.82222021,18.1692766 7.82222021,18.1988048 7.79524126,18.1988048 C7.74128341,18.2433985 7.3959533,18.3175204 7.104581,18.3175204 L7.10350186,18.3175204 Z M6.6783141,17.0857711 C6.705293,17.1894212 6.86392903,17.6944143 6.6783141,18.0499584 C6.62435625,18.1542112 6.6783141,18.2283331 6.83802932,18.2578613 C7.12940162,18.3175204 7.7153837,18.2433985 7.76826236,18.1837394 C7.76826236,18.1837394 7.76826236,18.1692766 7.74128346,18.1692766 C7.63552609,18.1246829 7.60854719,18.0354956 7.58156824,17.9764391 C7.58156824,17.9613737 7.58156824,17.9318455 7.55566848,17.9161774 L7.52868958,17.9318455 L7.52868958,17.9167801 C7.52868958,17.8866492 7.3689744,17.3232022 7.58264743,17.1303648 C7.3689744,17.1448276 6.99774449,17.159893 6.6783141,17.0857711 L6.6783141,17.0857711 Z" id="Shape" fill="#000000"></path>
                <path d="M5.42131299,19.3661647 C5.42131299,19.3661647 6.9102474,19.8380087 7.90253455,19.3661647 L8.02694821,18.5208826 C8.02694821,18.5208826 7.93980827,17.4641539 6.16578018,17.7129444 C6.16578018,17.7129444 5.42131299,17.8870473 5.42131299,18.6324094 L5.42131299,19.3661647 Z" id="Path" fill="#A94E00"></path>
                <path d="M6.82361117,19.5897228 C6.09123273,19.5897228 5.43390545,19.3782761 5.42131299,19.3782762 L5.40922421,19.3782762 L5.40922421,18.6324094 C5.40922421,17.8870473 6.15369143,17.7003283 6.16578018,17.7003283 C6.86088488,17.600913 7.36962094,17.6882167 7.70407711,17.9612302 C8.01435572,18.2100207 8.03903699,18.5208826 8.03903699,18.5208826 L7.91512702,19.3787808 C7.58016714,19.5276514 7.19534107,19.5897228 6.82361117,19.5897228 Z M5.43390545,19.3535485 C5.54572664,19.3908923 6.94752114,19.8011695 7.90253455,19.3535485 L8.02694821,18.5082665 C8.02694821,18.5082665 8.00176325,18.1974046 7.70458082,17.9612302 C7.38170972,17.7003283 6.86038119,17.6130245 6.17837267,17.7129444 C6.1657802,17.7129444 5.44649795,17.8996634 5.44649792,18.6202979 L5.44649792,19.3535485 L5.43390545,19.3535485 L5.43390545,19.3535485 Z" id="Shape" fill="#000000"></path>
                <path d="M10.1732099,17.3894663 C10.1732099,17.3894663 10.8798997,17.7003283 11.2521333,17.3894663 C11.2521333,17.3894663 11.351362,18.1232216 11.5996856,18.1600608 C11.5996856,18.1600608 11.9719192,18.2473645 12.4307891,17.6629845 C12.4307891,17.6629845 13.7333548,17.2900511 13.9816785,18.5082665 L13.9816785,19.291477 C13.9816785,19.291477 13.7585398,19.4529638 13.0140726,19.4403476 C13.0140726,19.4403476 11.4631832,19.5276514 9.68915511,19.4403476 C9.68915511,19.4403476 9.27964777,18.9806151 9.81306508,18.4335789 C9.81306508,18.4335789 9.9122938,17.8744311 9.87502006,17.6629845 L10.1732099,17.3894663 L10.1732099,17.3894663 Z" id="Path" fill="#A94E00"></path>
                <path d="M11.3392732,19.4903076 C10.8431297,19.4903076 10.2845274,19.4776914 9.68915511,19.4529638 C9.68915511,19.4529638 9.27964777,18.9806151 9.81306508,18.4335789 C9.82565755,18.3962351 9.9122938,17.8744311 9.87502006,17.6629845 L10.1732099,17.3894663 C10.1732099,17.3894663 10.3464824,17.4641539 10.5701248,17.5014977 C10.7685822,17.5388416 11.0536759,17.5514577 11.2400445,17.3894663 L11.2521333,17.3773548 L11.2521333,17.3894663 C11.2521333,17.4020825 11.351362,18.1106054 11.5870932,18.1479492 C11.5870932,18.1479492 11.9598305,18.2226368 12.4061078,17.650873 C12.4187003,17.650873 13.0261614,17.4767701 13.4855349,17.7623997 C13.7333548,17.9117749 13.8945386,18.1600608 13.9569972,18.5082665 L13.9569972,19.3035885 C13.9444048,19.3162047 13.7333548,19.4529638 13.0634351,19.4529638 L12.9767989,19.4529638 C13.0019838,19.4529638 12.3068791,19.4903076 11.3392732,19.4903076 L11.3392732,19.4903076 Z M9.68915511,19.4282361 C11.4385019,19.5150352 12.9893913,19.4282361 13.0135689,19.4282361 L13.0886201,19.4282361 C13.7086736,19.4282361 13.9318123,19.3035886 13.969086,19.2788609 L13.969086,18.496155 C13.8945386,18.1605654 13.7459473,17.9122796 13.4976237,17.7629044 C13.0634351,17.4893862 12.4801516,17.6387615 12.4307891,17.6513776 C11.9719192,18.235253 11.6122781,18.1484539 11.5870932,18.1484539 C11.351362,18.1111101 11.2521333,17.502507 11.2395408,17.389971 C11.0909496,17.5146185 10.8552184,17.5514577 10.5696211,17.5020024 C10.3716673,17.4646586 10.2099799,17.4025871 10.1732099,17.389971 L9.88761253,17.6513776 C9.92488627,17.8623196 9.82565755,18.3967397 9.82565755,18.421972 C9.31692149,18.9563921 9.66447384,19.3908923 9.68915511,19.4287408 L9.68915511,19.4282361 Z" id="Shape" fill="#000000"></path>
                <path d="M6.16578018,17.1906358 C6.16578018,17.1906358 6.43878508,16.544689 6.6372425,17.1906358 C6.6372425,17.1906358 6.72387873,17.7129444 6.6372425,17.787632 C6.6372425,17.787632 6.3642376,17.6629845 6.16578018,17.8497035 L6.16578018,17.1906358 L6.16578018,17.1906358 Z M6.98479485,17.7623997 L6.98479485,17.414194 C6.98479485,17.414194 7.05883861,16.94235 7.22052601,16.9796938 C7.22052601,16.9796938 7.4436647,16.8055909 7.46834595,17.5635692 C7.49353091,18.3220521 7.46834595,17.9612302 7.46834595,17.9612302 C7.46834595,17.9612302 7.3323472,17.7502882 6.98479485,17.7623997 L6.98479485,17.7623997 Z M5.39663172,19.2415171 C5.39663172,19.2415171 5.04907936,19.3782761 5.23544803,19.7638257 C5.23544803,19.7638257 5.32208426,19.9626562 6.16578018,19.9626562 C6.16578018,19.9626562 7.64212212,20.074183 8.02694821,19.8506248 C8.02694821,19.8506248 8.31204189,19.5276514 7.95240076,19.2415171 C7.95240076,19.2415171 8.02694821,19.4776914 6.77374496,19.4403476 C5.52054171,19.4030038 5.39663174,19.2415171 5.39663172,19.2415171 L5.39663172,19.2415171 Z M10.1732099,16.9796938 C10.1732099,16.9796938 10.3092086,17.0044214 10.2971199,17.3773548 C10.2971199,17.3773548 10.3590748,17.4767701 10.7932635,17.4767701 C10.7932635,17.4767701 11.0909496,17.9738464 10.6693535,18.1600608 C10.2472537,18.3467798 9.87502006,17.9612302 9.83825004,17.787632 C9.8009763,17.6135292 9.8009763,17.1038367 10.1732099,16.9796938 L10.1732099,16.9796938 Z M11.2027708,16.9796938 C11.2027708,16.9796938 11.3891394,17.4268101 10.9297659,17.4767701 C10.9297659,17.4767701 11.0909496,17.5761854 11.0289946,17.8370873 C10.9856269,17.984094 11.0534966,18.1411252 11.1901783,18.2100207 C11.1901783,18.2100207 11.5125457,18.0979893 11.4385019,17.5014977 C11.4385019,17.5141139 11.413317,17.153292 11.2027708,16.9796938 L11.2027708,16.9796938 Z M9.62720012,19.2415171 C9.62720012,19.2415171 9.23028526,19.7385934 9.92488627,19.8753524 C10.619991,20.0121115 13.5102162,19.95004 13.7706286,19.8753524 C14.031041,19.8011695 14.4153634,19.5024191 13.9444048,19.1794456 C13.9444048,19.1794456 14.0436335,19.41562 11.8480093,19.41562 C11.8354168,19.4030038 10.3590749,19.4529638 9.62669643,19.2415171 L9.62720012,19.2415171 Z" id="Shape" fill="#361206"></path>
                <path d="M9.3468725,7.35912277 C9.33712252,7.43703835 9.43795044,7.51072246 9.60918983,7.55082184 C9.78042921,7.59092121 9.99426012,7.59092121 10.1654995,7.55082184 C10.3367389,7.51072246 10.4375668,7.43703835 10.4278168,7.35912277 C10.4137229,7.24649297 10.1759225,7.15800302 9.88734467,7.15800302 C9.59876686,7.15800302 9.36096647,7.24649297 9.3468725,7.35912277 L9.3468725,7.35912277 Z M9.28229997,8.5273782 C9.28223533,8.60293767 9.38535767,8.6727683 9.55280668,8.71055533 C9.7202557,8.74834236 9.92658007,8.74834236 10.0940291,8.71055533 C10.2614781,8.6727683 10.3646004,8.60293767 10.3645358,8.5273782 C10.3644358,8.41062706 10.1221984,8.31600225 9.82341788,8.31600225 C9.52463739,8.31600225 9.28239994,8.41062706 9.28229997,8.5273782 L9.28229997,8.5273782 Z M9.1557378,9.68352216 C9.1557378,9.79333323 9.38354948,9.88235268 9.66456943,9.88235268 C9.94558938,9.88235268 10.1734011,9.79333323 10.1734011,9.68352216 C10.1734011,9.5737111 9.94558938,9.48469164 9.66456943,9.48469164 C9.38354948,9.48469164 9.1557378,9.5737111 9.1557378,9.68352216 Z" id="Shape" fill="#D6E63B"></path>
                <path d="M8.16345065,3.55611063 C8.20022067,3.85385177 8.23749441,4.16471369 8.26267937,4.46295947 L8.96936916,5.17148243 C8.96936916,5.17148243 9.36678772,5.58175961 9.49069769,5.58175961 C9.61460766,5.58175961 9.92488627,5.66906338 10.1354325,5.30824148 C10.1354325,5.30824148 10.780671,4.64967847 10.8798997,4.41350415 L10.8798997,3.54349447 C10.8798997,3.54349447 11.2148596,3.48142301 11.2773182,3.04641818 L11.2773182,2.5493419 C11.2773182,2.5493419 11.0289946,2.57406954 10.9045809,2.83497151 L10.8798997,2.27582377 L10.8431297,1.3805818 L8.05162946,1.52995699 L8.05162946,2.67348481 C8.05162946,2.67348481 7.71666958,2.58618105 7.67939586,2.59879719 L7.67939586,2.7108286 L7.77862458,2.76028391 L7.80380952,3.24474405 C7.77862456,3.26997636 8.02694821,3.58083828 8.16345065,3.55611063 L8.16345065,3.55611063 Z" id="Path" fill="#FFBE83"></path>
                <path d="M9.66447386,5.59437575 L9.49069769,5.59437575 C9.36678772,5.59437575 8.98196163,5.19671471 8.95677667,5.18409857 L8.2500869,4.47557561 C8.22519088,4.17647612 8.19210217,3.87811791 8.15085818,3.58083828 L8.13826571,3.58083828 C8.01435574,3.58083828 7.82849079,3.3693916 7.79071336,3.29470401 C7.77862458,3.2825925 7.77862458,3.26997636 7.77862458,3.2573602 L7.75343962,2.78501155 L7.65471461,2.73555626 L7.65471461,2.61141335 L7.66680339,2.61141335 C7.70407713,2.59879721 7.95240076,2.66086867 8.02694821,2.68559631 L8.02694821,1.5420685 L8.03903699,1.5420685 L10.8431297,1.39319794 L10.8431297,1.40581408 L10.8798997,2.30055141 L10.9050846,2.82235537 C11.0289946,2.58618105 11.2647258,2.5614534 11.2647258,2.5614534 L11.2773182,2.5614534 L11.2773182,3.04591354 C11.2148596,3.44407923 10.9297659,3.54349449 10.8798997,3.55560597 L10.8798997,4.42662496 C10.780671,4.66279928 10.1606174,5.29663464 10.1359362,5.32136229 C9.99943374,5.55753661 9.8009763,5.59488039 9.66447386,5.59488039 L9.66447386,5.59437575 Z M8.27476815,4.46295947 L8.98196163,5.17148243 C8.98196163,5.17148243 9.3788765,5.58175961 9.49069769,5.58175961 L9.55265267,5.58175961 C9.7017476,5.59437575 9.94956754,5.61910342 10.1233437,5.30824148 C10.1359362,5.29612998 10.7680785,4.64967847 10.8678109,4.41350415 L10.8678109,3.54349447 L10.8798997,3.54349447 C10.8798997,3.54349447 11.2148596,3.48142301 11.2647258,3.05903432 L11.2647258,2.57406954 C11.1110139,2.60886216 10.9798579,2.7086103 10.9050846,2.84758767 L10.8924922,2.88493146 L10.8673072,2.28793527 L10.8305372,1.40581408 L8.05162946,1.55468466 L8.05162946,2.69821245 L8.03903699,2.69821245 C7.91512702,2.67298015 7.72875838,2.62352486 7.67939586,2.62352486 L7.67939586,2.7229401 L7.77862458,2.77290005 L7.80380952,3.2573602 C7.80380952,3.26997634 7.85317204,3.34466396 7.92771949,3.43146306 C8.01435572,3.51876682 8.10099197,3.56822211 8.15085818,3.55611063 L8.16345065,3.55611063 L8.16345065,3.56822214 C8.21281316,3.8291241 8.25008688,4.15260219 8.27476815,4.46295947 L8.27476815,4.46295947 Z" id="Shape" fill="#000000"></path>
                <path d="M8.51049931,2.73555626 L8.43595186,2.84758767 L8.37399687,2.84758767 L8.3493156,2.81024386 L8.41127059,2.79762772 L8.53518056,2.57406954 L8.70895673,2.67348481 L8.8953254,2.69871709 L8.93259911,2.74817241 L9.05650908,2.74817241 L9.05650908,2.79762772 L9.16833027,2.78501155 L9.16833027,2.84758767 L8.88273291,2.82235537 L8.85754797,2.78501155 L8.65959424,2.79762772 L8.56036552,2.7108286 L8.51049931,2.73555626 Z M9.6392889,2.84708301 L9.85084251,2.7108286 L9.93747874,2.62352486 C9.93747874,2.62352486 9.99943372,2.69821245 10.2598462,2.57406954 L10.3958449,2.57406954 L10.594806,2.74817241 L10.532851,2.76028391 L10.4089411,2.64875714 L10.148025,2.67348481 L9.87502006,2.74817241 L9.70174758,2.83497151 L9.6392889,2.83497151 L9.6392889,2.84758767 L9.6392889,2.84708301 Z M9.16833027,3.00856973 L9.24237403,2.95911442 L9.32951398,3.08376199 L9.32951398,3.44407923 L9.267559,3.86646791 L9.35419523,3.91642787 L9.45342395,3.91642787 L9.50329016,3.87908406 L9.6392889,3.80439646 L9.76370256,3.85435641 L9.72642885,3.8917002 L9.6392889,3.84174024 L9.50329016,3.91642787 L9.45342395,3.95377165 L9.30432902,3.95377165 L9.21769279,3.8917002 L9.29224024,3.43146306 L9.30432902,3.17056109 L9.29224024,3.0958735 L9.23028526,3.00907437 L9.16833027,3.00856973 Z" id="Shape" fill="#1C0106"></path>
                <path d="M9.77629505,4.14288549 L9.76370256,4.05787258 C9.76370256,4.05787258 10.1359362,1.62650182 10.4583036,3.72122124 L10.4457111,3.80623415 C10.3097124,2.96970657 10.1606174,2.71806814 9.99943372,3.21794453 C9.86293128,3.46958297 9.77579134,4.05787258 9.77579134,4.13948503 L9.77629505,4.14288549 Z M9.01923537,3.8878466 C8.84545919,2.96970657 8.51049931,3.72122124 8.51049931,3.72122124 L8.51049931,3.63960879 C8.52309178,3.63960879 8.87014044,2.88469366 9.0444203,3.80623415 L9.01923537,3.8878466 Z" id="Shape" fill="#000000"></path>
                <path d="M8.64700175,3.57393908 C8.6437867,3.77804506 8.67143194,3.97194109 8.71880947,4.07757836 C8.76618699,4.18321563 8.82550265,4.18321563 8.87288017,4.07757836 C8.92025769,3.97194109 8.94790294,3.77804506 8.94468789,3.57393908 C8.9383149,3.28821649 8.87369178,3.06832005 8.79609668,3.06832005 C8.71850157,3.06832005 8.65387845,3.28821649 8.64750546,3.57393908 L8.64700175,3.57393908 Z M9.94956751,3.38969807 C9.94635247,3.59380404 9.97399771,3.78770007 10.0213752,3.89333735 C10.0687528,3.99897462 10.1280684,3.99897462 10.1754459,3.89333735 C10.2228235,3.78770007 10.2504687,3.59380404 10.2472537,3.38969807 C10.2408807,3.10397547 10.1762576,2.88407904 10.0986624,2.88407904 C10.0210673,2.88407904 9.95644422,3.10397547 9.95007123,3.38969807 L9.94956751,3.38969807 Z" id="Shape" fill="#1C0106"></path>
                <path d="M9.86293128,3.41891327 C9.86293128,3.64164042 9.91833819,3.81664067 9.98684125,3.81664067 C10.0553443,3.81664067 10.1107512,3.64164079 10.1107512,3.41891327 C10.1107512,3.20414055 10.0553443,3.02118588 9.98684125,3.02118588 C9.91833819,3.02118588 9.86293128,3.20414055 9.86293128,3.41891327 Z M8.59763925,3.41891327 C8.59763925,3.64164042 8.65304616,3.81664067 8.72154922,3.81664067 C8.79005229,3.81664067 8.84545919,3.64164079 8.84545919,3.41891327 C8.84545919,3.20414055 8.79005229,3.02118588 8.72154922,3.02118588 C8.65304616,3.02118588 8.59763925,3.20414055 8.59763925,3.41891327 Z" id="Shape" fill="#FCFCFC"></path>
                <path d="M8.90741418,4.2767451 L9.30432902,4.2767451 C9.30432902,4.2767451 9.49069766,4.32670505 9.62669643,4.2767451 C9.62669643,4.2767451 9.92488627,4.28936124 10.0367075,4.20205748 C10.0367075,4.20205748 9.97424878,4.4382318 9.46601642,4.48819175 C9.47810519,4.48819175 9.03182784,4.5129194 8.90741418,4.2767451 L8.90741418,4.2767451 Z" id="Path" fill="#FFFFFF"></path>
                <path d="M9.47843084,5.41258183 C9.35643366,5.41258183 9.00473011,5.31467972 8.89592179,4.58104974 L8.88273291,4.5327344 L9.32950634,4.5327344 C9.32950634,4.5327344 9.53283495,4.72853857 9.68120992,4.5327344 C9.68120992,4.5327344 10.0059862,4.58104974 10.1279834,4.24029955 L10.1554602,4.18944134 L10.1417218,4.28861489 C10.1417218,4.33693023 10.0603903,5.26636438 9.50535813,5.46216861 C9.51909654,5.41258183 9.50535813,5.41258183 9.47788128,5.41258183 L9.47843084,5.41258183 Z M8.92339864,4.58104974 C9.0585847,5.41258183 9.50535813,5.36426649 9.51909654,5.36426649 C9.91146583,5.2167776 10.0741287,4.6789518 10.1279834,4.38524551 C9.9927973,4.63063646 9.73561407,4.63063646 9.70813722,4.63063652 C9.55976228,4.82644069 9.37017207,4.63063652 9.35643366,4.63063652 L8.92339864,4.63063652 L8.92339864,4.58104974 Z" id="Shape" fill="#000000"></path>
                <path d="M9.5279714,4.7022636 C9.30432902,4.7022636 9.1058716,4.58792509 9.1058716,4.58792509 L9.11846407,4.57499088 C9.11846407,4.57499088 9.54006018,4.83005369 9.87502006,4.57499088 L9.88761253,4.58792509 C9.77990742,4.65852713 9.65567448,4.69802375 9.5279714,4.7022636 L9.5279714,4.7022636 Z" id="Path" fill="#606060"></path>
                <path d="M8.0889032,3.98355587 L8.07631073,3.96048251 C8.07631073,3.96048251 7.85317204,3.59684616 7.98967447,3.16491258 L8.00176325,3.18798598 C7.95240074,3.36980417 7.93980827,3.52947189 7.98967447,3.71036712 C8.01435572,3.80173767 8.05162946,3.87003487 8.06422195,3.91525867 L8.06422195,3.18798598 L7.89044577,2.84650003 L7.90253455,2.82434959 L8.07631073,3.16583554 L8.07631073,3.98355587 L8.0889032,3.98355587 L8.0889032,3.98355587 Z M10.9917209,3.93833207 C10.9791284,3.93833207 10.9665359,3.91525871 10.9917209,3.82481108 C11.0169058,3.68821672 11.0169058,3.57469573 10.9917209,3.48332513 C10.9665359,3.39287749 10.9171734,3.39287749 10.9171734,3.39287753 L10.9050846,3.39287753 L10.9050846,3.11968878 L11.0788608,2.7108286 L11.0909496,2.73297903 L10.9171734,3.14276214 L10.9171734,3.36980413 C10.9524231,3.38837583 10.9831618,3.42842048 11.0043133,3.48332513 C11.0289946,3.57469568 11.0289946,3.68821668 11.0043133,3.84696151 C11.0289946,3.71036716 11.0788608,3.46025177 11.0662683,3.3024299 C11.0536759,3.21013642 11.0289946,3.16491258 10.9917209,3.14276214 L10.9917209,3.11968878 C11.0415871,3.14276214 11.0662683,3.21105934 11.0788608,3.34673077 C11.0909496,3.55162232 11.0043134,3.91525867 10.9917209,3.93740911 L10.9917209,3.93833207 Z" id="Shape" fill="#000000"></path>
                <path d="M7.86526081,1.84081894 L7.86526081,2.48676578 L8.23799813,2.88493146 L8.23799813,3.20790491 L8.3493156,3.43146306 L8.3493156,2.83497151 L8.23749441,2.636141 C8.23749441,2.636141 8.26267937,2.12644855 8.3493156,2.05176095 C8.44854432,1.97757799 8.46113679,1.70355522 8.44854432,1.67882757 C8.43595186,1.65409993 8.46113679,1.18175129 8.46113679,1.18175126 L10.8678109,1.76613131 L10.8058559,2.46254277 L10.8678109,2.68559631 L10.7932635,2.89754763 L10.8058559,3.44407923 L10.8678109,3.34466396 L10.8678109,2.95911442 L10.9917209,2.73555626 L11.2027708,2.43731049 L11.1408158,2.12644855 L11.1035421,1.35585413 L8.10149566,1.03288071 L7.86526081,1.84031427 L7.86526081,1.84081894 Z" id="Path" fill="#000000"></path>
                <path d="M7.77862458,1.69144372 C7.77862458,1.69144372 6.87297368,1.31851034 7.45625717,0.635219664 C7.45625717,0.635219664 8.63491297,-0.421509026 10.656761,0.261781652 C10.656761,0.261781652 11.9593268,0.784090245 11.7981431,1.5420685 C11.7981431,1.5420685 11.7729581,1.89027423 11.2647258,2.03964944 L11.0783571,2.20113617 C11.0783571,2.20113617 9.89970131,1.26905503 7.86526081,1.89027423 L7.77862458,1.69144372 Z" id="Path" fill="#003D82"></path>
                <path d="M11.0788608,2.21375231 C11.0657646,2.20113617 10.7685822,1.97757799 10.2346612,1.81558663 C9.73851762,1.67933221 8.91950295,1.57941231 7.86475712,1.89027423 L7.85266835,1.89027423 L7.7655284,1.69144372 C7.72825466,1.67882757 7.33133982,1.49261321 7.25679234,1.18175126 C7.22002232,1.0076484 7.2819773,0.821434032 7.44316101,0.622603522 C7.44316101,0.622603522 7.74084715,0.349085391 8.28685693,0.174982527 C8.78300049,0.013495804 9.60151147,-0.110647108 10.6562573,0.249670148 C10.6562573,0.249670148 10.9912172,0.385924564 11.2889033,0.609987381 C11.6858182,0.908233157 11.8721868,1.23171124 11.7976394,1.5420685 C11.7976394,1.5420685 11.7724544,1.89027423 11.2642221,2.05176095 L11.0778534,2.21324767 L11.0788608,2.21375231 Z M9.23028526,1.66671607 C9.55265265,1.66671607 9.88761253,1.70405988 10.2351649,1.80297049 C10.7313084,1.9402342 11.0289946,2.15117622 11.0788608,2.18852 L11.2647258,2.0270333 C11.7608693,1.87765808 11.7855506,1.54257316 11.7855506,1.54257316 C11.8354168,1.33062185 11.7855506,0.99553692 11.2768146,0.622603522 C10.9796321,0.399045344 10.6572647,0.274397793 10.6441685,0.26228629 C9.60251888,-0.085919439 8.79559298,0.0261119694 8.28685693,0.187598692 C7.75394331,0.361701557 7.45575348,0.622603522 7.4436647,0.622603522 C7.28248099,0.809322528 7.22052601,0.995536896 7.25729606,1.16963976 C7.33184351,1.49261318 7.75394334,1.66671605 7.75394331,1.66671607 L7.84057957,1.85343508 C8.22540566,1.76613131 8.70895675,1.66671607 9.23028526,1.66671607 L9.23028526,1.66671607 Z" id="Shape" fill="#000000"></path>
                <path d="M8.33672313,1.79085898 C8.33672313,1.79085898 10.1732099,2.21375231 10.6688498,2.41258282 C10.6688498,2.41258282 11.1775858,2.56145338 11.2647258,2.54883723 C11.2647258,2.54883723 11.3639545,2.38735051 10.7439009,2.03914481 C10.7313085,2.03914481 9.61460766,1.3805818 8.33672313,1.79085898 L8.33672313,1.79085898 Z" id="Path" fill="#000000"></path>
                <path d="M11.2521333,2.91294132 C11.1408158,2.91294132 10.6814422,2.72470065 10.6693535,2.72470065 C10.1732099,2.44931151 8.36190809,1.86576545 8.33722682,1.86576545 L8.2994494,1.84833577 L8.33672313,1.83090605 C9.41615021,1.34984657 10.3716673,1.89992763 10.7313085,2.15718988 C10.7439009,2.15718988 10.7439009,2.17461956 10.7439009,2.17461959 C11.1408158,2.48347373 11.252637,2.68984126 11.2647258,2.80975752 C11.2773182,2.86134942 11.2647258,2.89620878 11.2647258,2.89620881 C11.2647258,2.91294132 11.2521333,2.91294132 11.2521333,2.91294132 L11.2521333,2.91294132 Z M8.37399687,1.84833577 C8.6223205,1.93408985 10.2225724,2.44931151 10.6693535,2.68984126 C10.6693535,2.68984126 11.1408158,2.87808192 11.2521333,2.87808192 L11.2647258,2.87808192 L11.2647258,2.80975752 C11.2521333,2.72400344 11.1529046,2.51833309 10.7439009,2.19204927 C10.7439009,2.19204927 10.7313085,2.19204927 10.718716,2.17461959 C10.3590748,1.93408985 9.42874268,1.40213568 8.37399687,1.84833577 L8.37399687,1.84833577 Z" id="Shape" fill="#000000"></path>
                <path d="M7.67939586,1.62937226 C7.67939586,1.62937226 6.84829241,1.29378267 7.49302722,0.609987381 C7.49302722,0.609987381 8.82077795,-0.545651914 10.8798997,0.324357746 C10.8798997,0.324357746 11.8721868,0.846161701 11.8107355,1.47999704 C11.8107355,1.47999704 11.6616406,2.01492178 11.2521333,2.00230563 C11.2521333,2.00230563 10.470896,0.883505488 8.89482168,1.10706367 C8.89482168,1.11967981 7.80330583,1.28116653 7.67939586,1.62937226 L7.67939586,1.62937226 Z" id="Path" fill="#1D253A"></path>
                <path d="M9.16833027,0.908233157 L9.16833027,1.06906522 L9.51588262,1.06906522 L9.04391661,1.63034962 L9.04391661,1.74234606 L9.67656264,1.74234606 L9.67656264,1.63034962 L9.30432902,1.63034962 L9.78838383,1.03650811 L9.78838383,0.908233157 L9.16833027,0.908233157 Z M10.2099799,1.13287715 C10.0367075,1.08469263 9.86242759,1.21296761 9.82565755,1.4219842 C9.78838381,1.63034965 9.900205,1.83871507 10.08607,1.88689959 C10.2598462,1.9350841 10.4336223,1.80680912 10.470896,1.59779254 C10.5081698,1.38942709 10.3963486,1.18106167 10.2099799,1.13287715 L10.2099799,1.13287715 Z M10.1107512,1.71044008 C10.0115225,1.67788297 9.94956751,1.56588656 9.97475248,1.46951755 C9.98589586,1.41607408 10.0132256,1.37068821 10.0505694,1.34361002 C10.0879133,1.31653183 10.1321215,1.31004523 10.1732099,1.32561516 C10.2724386,1.35752111 10.3343936,1.46951755 10.3092086,1.56653772 C10.2971199,1.6622556 10.2099799,1.74234606 10.1107512,1.70978895 L10.1107512,1.71044008 Z M10.9423584,1.4219842 C10.7685822,1.3412426 10.5822135,1.4219842 10.532851,1.63034962 C10.4829848,1.83871507 10.558036,2.04708049 10.7313085,2.14344953 C10.9050846,2.23981853 11.0909496,2.14344953 11.1408158,1.93508407 C11.2027708,1.72671862 11.1156308,1.50207463 10.9423584,1.4219842 L10.9423584,1.4219842 Z M10.7811747,1.96699005 C10.6940347,1.91880553 10.6441685,1.80680912 10.6693535,1.69416154 C10.7066272,1.58216513 10.7932635,1.55025915 10.8924922,1.58216513 C10.9791284,1.63034965 11.0289946,1.74234606 11.0043133,1.85499361 C10.9670396,1.95071148 10.8678109,1.998896 10.780671,1.96699005 L10.7811747,1.96699005 Z" id="Shape" fill="#FFFFFF"></path>
            </g>
        </g>
    </g>
</svg>