<?xml version="1.0" encoding="utf-8" standalone="no"?>
<!DOCTYPE svg PUBLIC "-//W3C//DTD SVG 1.1//EN"
  "http://www.w3.org/Graphics/SVG/1.1/DTD/svg11.dtd">
<!-- Created with matplotlib (https://matplotlib.org/) -->
<svg height="360pt" version="1.1" viewBox="0 0 864 360" width="864pt" xmlns="http://www.w3.org/2000/svg" xmlns:xlink="http://www.w3.org/1999/xlink">
 <metadata>
  <rdf:RDF xmlns:cc="http://creativecommons.org/ns#" xmlns:dc="http://purl.org/dc/elements/1.1/" xmlns:rdf="http://www.w3.org/1999/02/22-rdf-syntax-ns#">
   <cc:Work>
    <dc:type rdf:resource="http://purl.org/dc/dcmitype/StillImage"/>
    <dc:date>2020-12-06T21:00:11.396709</dc:date>
    <dc:format>image/svg+xml</dc:format>
    <dc:creator>
     <cc:Agent>
      <dc:title>Matplotlib v3.3.2, https://matplotlib.org/</dc:title>
     </cc:Agent>
    </dc:creator>
   </cc:Work>
  </rdf:RDF>
 </metadata>
 <defs>
  <style type="text/css">*{stroke-linecap:butt;stroke-linejoin:round;}</style>
 </defs>
 <g id="figure_1">
  <g id="patch_1">
   <path d="M 0 360 
L 864 360 
L 864 0 
L 0 0 
z
" style="fill:#ffffff;"/>
  </g>
  <g id="axes_1">
   <g id="patch_2">
    <path d="M 108 320.4 
L 710.64 320.4 
L 710.64 43.2 
L 108 43.2 
z
" style="fill:#ffffff;"/>
   </g>
   <g id="matplotlib.axis_1">
    <g id="xtick_1">
     <g id="line2d_1">
      <defs>
       <path d="M 0 0 
L 0 3.5 
" id="mad98654658" style="stroke:#777777;stroke-width:0.8;"/>
      </defs>
      <g>
       <use style="fill:#777777;stroke:#777777;stroke-width:0.8;" x="170.177143" xlink:href="#mad98654658" y="320.4"/>
      </g>
     </g>
     <g id="text_1">
      <!-- 10 -->
      <g style="fill:#777777;" transform="translate(163.814643 334.998438)scale(0.1 -0.1)">
       <defs>
        <path d="M 12.40625 8.296875 
L 28.515625 8.296875 
L 28.515625 63.921875 
L 10.984375 60.40625 
L 10.984375 69.390625 
L 28.421875 72.90625 
L 38.28125 72.90625 
L 38.28125 8.296875 
L 54.390625 8.296875 
L 54.390625 0 
L 12.40625 0 
z
" id="DejaVuSans-49"/>
        <path d="M 31.78125 66.40625 
Q 24.171875 66.40625 20.328125 58.90625 
Q 16.5 51.421875 16.5 36.375 
Q 16.5 21.390625 20.328125 13.890625 
Q 24.171875 6.390625 31.78125 6.390625 
Q 39.453125 6.390625 43.28125 13.890625 
Q 47.125 21.390625 47.125 36.375 
Q 47.125 51.421875 43.28125 58.90625 
Q 39.453125 66.40625 31.78125 66.40625 
z
M 31.78125 74.21875 
Q 44.046875 74.21875 50.515625 64.515625 
Q 56.984375 54.828125 56.984375 36.375 
Q 56.984375 17.96875 50.515625 8.265625 
Q 44.046875 -1.421875 31.78125 -1.421875 
Q 19.53125 -1.421875 13.0625 8.265625 
Q 6.59375 17.96875 6.59375 36.375 
Q 6.59375 54.828125 13.0625 64.515625 
Q 19.53125 74.21875 31.78125 74.21875 
z
" id="DejaVuSans-48"/>
       </defs>
       <use xlink:href="#DejaVuSans-49"/>
       <use x="63.623047" xlink:href="#DejaVuSans-48"/>
      </g>
     </g>
    </g>
    <g id="xtick_2">
     <g id="line2d_2">
      <g>
       <use style="fill:#777777;stroke:#777777;stroke-width:0.8;" x="265.834286" xlink:href="#mad98654658" y="320.4"/>
      </g>
     </g>
     <g id="text_2">
      <!-- 100 -->
      <g style="fill:#777777;" transform="translate(256.290536 334.998438)scale(0.1 -0.1)">
       <use xlink:href="#DejaVuSans-49"/>
       <use x="63.623047" xlink:href="#DejaVuSans-48"/>
       <use x="127.246094" xlink:href="#DejaVuSans-48"/>
      </g>
     </g>
    </g>
    <g id="xtick_3">
     <g id="line2d_3">
      <g>
       <use style="fill:#777777;stroke:#777777;stroke-width:0.8;" x="361.491429" xlink:href="#mad98654658" y="320.4"/>
      </g>
     </g>
     <g id="text_3">
      <!-- 1000 -->
      <g style="fill:#777777;" transform="translate(348.766429 334.998438)scale(0.1 -0.1)">
       <use xlink:href="#DejaVuSans-49"/>
       <use x="63.623047" xlink:href="#DejaVuSans-48"/>
       <use x="127.246094" xlink:href="#DejaVuSans-48"/>
       <use x="190.869141" xlink:href="#DejaVuSans-48"/>
      </g>
     </g>
    </g>
    <g id="xtick_4">
     <g id="line2d_4">
      <g>
       <use style="fill:#777777;stroke:#777777;stroke-width:0.8;" x="457.148571" xlink:href="#mad98654658" y="320.4"/>
      </g>
     </g>
     <g id="text_4">
      <!-- 10000 -->
      <g style="fill:#777777;" transform="translate(441.242321 334.998438)scale(0.1 -0.1)">
       <use xlink:href="#DejaVuSans-49"/>
       <use x="63.623047" xlink:href="#DejaVuSans-48"/>
       <use x="127.246094" xlink:href="#DejaVuSans-48"/>
       <use x="190.869141" xlink:href="#DejaVuSans-48"/>
       <use x="254.492188" xlink:href="#DejaVuSans-48"/>
      </g>
     </g>
    </g>
    <g id="xtick_5">
     <g id="line2d_5">
      <g>
       <use style="fill:#777777;stroke:#777777;stroke-width:0.8;" x="552.805714" xlink:href="#mad98654658" y="320.4"/>
      </g>
     </g>
     <g id="text_5">
      <!-- 100000 -->
      <g style="fill:#777777;" transform="translate(533.718214 334.998438)scale(0.1 -0.1)">
       <use xlink:href="#DejaVuSans-49"/>
       <use x="63.623047" xlink:href="#DejaVuSans-48"/>
       <use x="127.246094" xlink:href="#DejaVuSans-48"/>
       <use x="190.869141" xlink:href="#DejaVuSans-48"/>
       <use x="254.492188" xlink:href="#DejaVuSans-48"/>
       <use x="318.115234" xlink:href="#DejaVuSans-48"/>
      </g>
     </g>
    </g>
    <g id="xtick_6">
     <g id="line2d_6">
      <g>
       <use style="fill:#777777;stroke:#777777;stroke-width:0.8;" x="648.462857" xlink:href="#mad98654658" y="320.4"/>
      </g>
     </g>
     <g id="text_6">
      <!-- 1000000 -->
      <g style="fill:#777777;" transform="translate(626.194107 334.998438)scale(0.1 -0.1)">
       <use xlink:href="#DejaVuSans-49"/>
       <use x="63.623047" xlink:href="#DejaVuSans-48"/>
       <use x="127.246094" xlink:href="#DejaVuSans-48"/>
       <use x="190.869141" xlink:href="#DejaVuSans-48"/>
       <use x="254.492188" xlink:href="#DejaVuSans-48"/>
       <use x="318.115234" xlink:href="#DejaVuSans-48"/>
       <use x="381.738281" xlink:href="#DejaVuSans-48"/>
      </g>
     </g>
    </g>
    <g id="text_7">
     <!-- Number of rules -->
     <g style="fill:#585858;" transform="translate(368.941875 348.676562)scale(0.1 -0.1)">
      <defs>
       <path d="M 9.8125 72.90625 
L 23.09375 72.90625 
L 55.421875 11.921875 
L 55.421875 72.90625 
L 64.984375 72.90625 
L 64.984375 0 
L 51.703125 0 
L 19.390625 60.984375 
L 19.390625 0 
L 9.8125 0 
z
" id="DejaVuSans-78"/>
       <path d="M 8.5 21.578125 
L 8.5 54.6875 
L 17.484375 54.6875 
L 17.484375 21.921875 
Q 17.484375 14.15625 20.5 10.265625 
Q 23.53125 6.390625 29.59375 6.390625 
Q 36.859375 6.390625 41.078125 11.03125 
Q 45.3125 15.671875 45.3125 23.6875 
L 45.3125 54.6875 
L 54.296875 54.6875 
L 54.296875 0 
L 45.3125 0 
L 45.3125 8.40625 
Q 42.046875 3.421875 37.71875 1 
Q 33.40625 -1.421875 27.6875 -1.421875 
Q 18.265625 -1.421875 13.375 4.4375 
Q 8.5 10.296875 8.5 21.578125 
z
M 31.109375 56 
z
" id="DejaVuSans-117"/>
       <path d="M 52 44.1875 
Q 55.375 50.25 60.0625 53.125 
Q 64.75 56 71.09375 56 
Q 79.640625 56 84.28125 50.015625 
Q 88.921875 44.046875 88.921875 33.015625 
L 88.921875 0 
L 79.890625 0 
L 79.890625 32.71875 
Q 79.890625 40.578125 77.09375 44.375 
Q 74.3125 48.1875 68.609375 48.1875 
Q 61.625 48.1875 57.5625 43.546875 
Q 53.515625 38.921875 53.515625 30.90625 
L 53.515625 0 
L 44.484375 0 
L 44.484375 32.71875 
Q 44.484375 40.625 41.703125 44.40625 
Q 38.921875 48.1875 33.109375 48.1875 
Q 26.21875 48.1875 22.15625 43.53125 
Q 18.109375 38.875 18.109375 30.90625 
L 18.109375 0 
L 9.078125 0 
L 9.078125 54.6875 
L 18.109375 54.6875 
L 18.109375 46.1875 
Q 21.1875 51.21875 25.484375 53.609375 
Q 29.78125 56 35.6875 56 
Q 41.65625 56 45.828125 52.96875 
Q 50 49.953125 52 44.1875 
z
" id="DejaVuSans-109"/>
       <path d="M 48.6875 27.296875 
Q 48.6875 37.203125 44.609375 42.84375 
Q 40.53125 48.484375 33.40625 48.484375 
Q 26.265625 48.484375 22.1875 42.84375 
Q 18.109375 37.203125 18.109375 27.296875 
Q 18.109375 17.390625 22.1875 11.75 
Q 26.265625 6.109375 33.40625 6.109375 
Q 40.53125 6.109375 44.609375 11.75 
Q 48.6875 17.390625 48.6875 27.296875 
z
M 18.109375 46.390625 
Q 20.953125 51.265625 25.265625 53.625 
Q 29.59375 56 35.59375 56 
Q 45.5625 56 51.78125 48.09375 
Q 58.015625 40.1875 58.015625 27.296875 
Q 58.015625 14.40625 51.78125 6.484375 
Q 45.5625 -1.421875 35.59375 -1.421875 
Q 29.59375 -1.421875 25.265625 0.953125 
Q 20.953125 3.328125 18.109375 8.203125 
L 18.109375 0 
L 9.078125 0 
L 9.078125 75.984375 
L 18.109375 75.984375 
z
" id="DejaVuSans-98"/>
       <path d="M 56.203125 29.59375 
L 56.203125 25.203125 
L 14.890625 25.203125 
Q 15.484375 15.921875 20.484375 11.0625 
Q 25.484375 6.203125 34.421875 6.203125 
Q 39.59375 6.203125 44.453125 7.46875 
Q 49.3125 8.734375 54.109375 11.28125 
L 54.109375 2.78125 
Q 49.265625 0.734375 44.1875 -0.34375 
Q 39.109375 -1.421875 33.890625 -1.421875 
Q 20.796875 -1.421875 13.15625 6.1875 
Q 5.515625 13.8125 5.515625 26.8125 
Q 5.515625 40.234375 12.765625 48.109375 
Q 20.015625 56 32.328125 56 
Q 43.359375 56 49.78125 48.890625 
Q 56.203125 41.796875 56.203125 29.59375 
z
M 47.21875 32.234375 
Q 47.125 39.59375 43.09375 43.984375 
Q 39.0625 48.390625 32.421875 48.390625 
Q 24.90625 48.390625 20.390625 44.140625 
Q 15.875 39.890625 15.1875 32.171875 
z
" id="DejaVuSans-101"/>
       <path d="M 41.109375 46.296875 
Q 39.59375 47.171875 37.8125 47.578125 
Q 36.03125 48 33.890625 48 
Q 26.265625 48 22.1875 43.046875 
Q 18.109375 38.09375 18.109375 28.8125 
L 18.109375 0 
L 9.078125 0 
L 9.078125 54.6875 
L 18.109375 54.6875 
L 18.109375 46.1875 
Q 20.953125 51.171875 25.484375 53.578125 
Q 30.03125 56 36.53125 56 
Q 37.453125 56 38.578125 55.875 
Q 39.703125 55.765625 41.0625 55.515625 
z
" id="DejaVuSans-114"/>
       <path id="DejaVuSans-32"/>
       <path d="M 30.609375 48.390625 
Q 23.390625 48.390625 19.1875 42.75 
Q 14.984375 37.109375 14.984375 27.296875 
Q 14.984375 17.484375 19.15625 11.84375 
Q 23.34375 6.203125 30.609375 6.203125 
Q 37.796875 6.203125 41.984375 11.859375 
Q 46.1875 17.53125 46.1875 27.296875 
Q 46.1875 37.015625 41.984375 42.703125 
Q 37.796875 48.390625 30.609375 48.390625 
z
M 30.609375 56 
Q 42.328125 56 49.015625 48.375 
Q 55.71875 40.765625 55.71875 27.296875 
Q 55.71875 13.875 49.015625 6.21875 
Q 42.328125 -1.421875 30.609375 -1.421875 
Q 18.84375 -1.421875 12.171875 6.21875 
Q 5.515625 13.875 5.515625 27.296875 
Q 5.515625 40.765625 12.171875 48.375 
Q 18.84375 56 30.609375 56 
z
" id="DejaVuSans-111"/>
       <path d="M 37.109375 75.984375 
L 37.109375 68.5 
L 28.515625 68.5 
Q 23.6875 68.5 21.796875 66.546875 
Q 19.921875 64.59375 19.921875 59.515625 
L 19.921875 54.6875 
L 34.71875 54.6875 
L 34.71875 47.703125 
L 19.921875 47.703125 
L 19.921875 0 
L 10.890625 0 
L 10.890625 47.703125 
L 2.296875 47.703125 
L 2.296875 54.6875 
L 10.890625 54.6875 
L 10.890625 58.5 
Q 10.890625 67.625 15.140625 71.796875 
Q 19.390625 75.984375 28.609375 75.984375 
z
" id="DejaVuSans-102"/>
       <path d="M 9.421875 75.984375 
L 18.40625 75.984375 
L 18.40625 0 
L 9.421875 0 
z
" id="DejaVuSans-108"/>
       <path d="M 44.28125 53.078125 
L 44.28125 44.578125 
Q 40.484375 46.53125 36.375 47.5 
Q 32.28125 48.484375 27.875 48.484375 
Q 21.1875 48.484375 17.84375 46.4375 
Q 14.5 44.390625 14.5 40.28125 
Q 14.5 37.15625 16.890625 35.375 
Q 19.28125 33.59375 26.515625 31.984375 
L 29.59375 31.296875 
Q 39.15625 29.25 43.1875 25.515625 
Q 47.21875 21.78125 47.21875 15.09375 
Q 47.21875 7.46875 41.1875 3.015625 
Q 35.15625 -1.421875 24.609375 -1.421875 
Q 20.21875 -1.421875 15.453125 -0.5625 
Q 10.6875 0.296875 5.421875 2 
L 5.421875 11.28125 
Q 10.40625 8.6875 15.234375 7.390625 
Q 20.0625 6.109375 24.8125 6.109375 
Q 31.15625 6.109375 34.5625 8.28125 
Q 37.984375 10.453125 37.984375 14.40625 
Q 37.984375 18.0625 35.515625 20.015625 
Q 33.0625 21.96875 24.703125 23.78125 
L 21.578125 24.515625 
Q 13.234375 26.265625 9.515625 29.90625 
Q 5.8125 33.546875 5.8125 39.890625 
Q 5.8125 47.609375 11.28125 51.796875 
Q 16.75 56 26.8125 56 
Q 31.78125 56 36.171875 55.265625 
Q 40.578125 54.546875 44.28125 53.078125 
z
" id="DejaVuSans-115"/>
      </defs>
      <use xlink:href="#DejaVuSans-78"/>
      <use x="74.804688" xlink:href="#DejaVuSans-117"/>
      <use x="138.183594" xlink:href="#DejaVuSans-109"/>
      <use x="235.595703" xlink:href="#DejaVuSans-98"/>
      <use x="299.072266" xlink:href="#DejaVuSans-101"/>
      <use x="360.595703" xlink:href="#DejaVuSans-114"/>
      <use x="401.708984" xlink:href="#DejaVuSans-32"/>
      <use x="433.496094" xlink:href="#DejaVuSans-111"/>
      <use x="494.677734" xlink:href="#DejaVuSans-102"/>
      <use x="529.882812" xlink:href="#DejaVuSans-32"/>
      <use x="561.669922" xlink:href="#DejaVuSans-114"/>
      <use x="602.783203" xlink:href="#DejaVuSans-117"/>
      <use x="666.162109" xlink:href="#DejaVuSans-108"/>
      <use x="693.945312" xlink:href="#DejaVuSans-101"/>
      <use x="755.46875" xlink:href="#DejaVuSans-115"/>
     </g>
    </g>
   </g>
   <g id="matplotlib.axis_2">
    <g id="ytick_1">
     <g id="line2d_7">
      <path clip-path="url(#pce6e95bdb2)" d="M 108 258.198621 
L 710.64 258.198621 
" style="fill:none;stroke:#b0b0b0;stroke-dasharray:2.96,1.28;stroke-dashoffset:0;stroke-width:0.8;"/>
     </g>
     <g id="line2d_8">
      <defs>
       <path d="M 0 0 
L -3.5 0 
" id="mf655601881" style="stroke:#777777;stroke-width:0.8;"/>
      </defs>
      <g>
       <use style="fill:#777777;stroke:#777777;stroke-width:0.8;" x="108" xlink:href="#mf655601881" y="258.198621"/>
      </g>
     </g>
     <g id="text_8">
      <!-- $\mathdefault{10^{2}}$ -->
      <g style="fill:#777777;" transform="translate(83.4 261.99784)scale(0.1 -0.1)">
       <defs>
        <path d="M 19.1875 8.296875 
L 53.609375 8.296875 
L 53.609375 0 
L 7.328125 0 
L 7.328125 8.296875 
Q 12.9375 14.109375 22.625 23.890625 
Q 32.328125 33.6875 34.8125 36.53125 
Q 39.546875 41.84375 41.421875 45.53125 
Q 43.3125 49.21875 43.3125 52.78125 
Q 43.3125 58.59375 39.234375 62.25 
Q 35.15625 65.921875 28.609375 65.921875 
Q 23.96875 65.921875 18.8125 64.3125 
Q 13.671875 62.703125 7.8125 59.421875 
L 7.8125 69.390625 
Q 13.765625 71.78125 18.9375 73 
Q 24.125 74.21875 28.421875 74.21875 
Q 39.75 74.21875 46.484375 68.546875 
Q 53.21875 62.890625 53.21875 53.421875 
Q 53.21875 48.921875 51.53125 44.890625 
Q 49.859375 40.875 45.40625 35.40625 
Q 44.1875 33.984375 37.640625 27.21875 
Q 31.109375 20.453125 19.1875 8.296875 
z
" id="DejaVuSans-50"/>
       </defs>
       <use transform="translate(0 0.765625)" xlink:href="#DejaVuSans-49"/>
       <use transform="translate(63.623047 0.765625)" xlink:href="#DejaVuSans-48"/>
       <use transform="translate(128.203125 39.046875)scale(0.7)" xlink:href="#DejaVuSans-50"/>
      </g>
     </g>
    </g>
    <g id="ytick_2">
     <g id="line2d_9">
      <path clip-path="url(#pce6e95bdb2)" d="M 108 170.433621 
L 710.64 170.433621 
" style="fill:none;stroke:#b0b0b0;stroke-dasharray:2.96,1.28;stroke-dashoffset:0;stroke-width:0.8;"/>
     </g>
     <g id="line2d_10">
      <g>
       <use style="fill:#777777;stroke:#777777;stroke-width:0.8;" x="108" xlink:href="#mf655601881" y="170.433621"/>
      </g>
     </g>
     <g id="text_9">
      <!-- $\mathdefault{10^{3}}$ -->
      <g style="fill:#777777;" transform="translate(83.4 174.232839)scale(0.1 -0.1)">
       <defs>
        <path d="M 40.578125 39.3125 
Q 47.65625 37.796875 51.625 33 
Q 55.609375 28.21875 55.609375 21.1875 
Q 55.609375 10.40625 48.1875 4.484375 
Q 40.765625 -1.421875 27.09375 -1.421875 
Q 22.515625 -1.421875 17.65625 -0.515625 
Q 12.796875 0.390625 7.625 2.203125 
L 7.625 11.71875 
Q 11.71875 9.328125 16.59375 8.109375 
Q 21.484375 6.890625 26.8125 6.890625 
Q 36.078125 6.890625 40.9375 10.546875 
Q 45.796875 14.203125 45.796875 21.1875 
Q 45.796875 27.640625 41.28125 31.265625 
Q 36.765625 34.90625 28.71875 34.90625 
L 20.21875 34.90625 
L 20.21875 43.015625 
L 29.109375 43.015625 
Q 36.375 43.015625 40.234375 45.921875 
Q 44.09375 48.828125 44.09375 54.296875 
Q 44.09375 59.90625 40.109375 62.90625 
Q 36.140625 65.921875 28.71875 65.921875 
Q 24.65625 65.921875 20.015625 65.03125 
Q 15.375 64.15625 9.8125 62.3125 
L 9.8125 71.09375 
Q 15.4375 72.65625 20.34375 73.4375 
Q 25.25 74.21875 29.59375 74.21875 
Q 40.828125 74.21875 47.359375 69.109375 
Q 53.90625 64.015625 53.90625 55.328125 
Q 53.90625 49.265625 50.4375 45.09375 
Q 46.96875 40.921875 40.578125 39.3125 
z
" id="DejaVuSans-51"/>
       </defs>
       <use transform="translate(0 0.765625)" xlink:href="#DejaVuSans-49"/>
       <use transform="translate(63.623047 0.765625)" xlink:href="#DejaVuSans-48"/>
       <use transform="translate(128.203125 39.046875)scale(0.7)" xlink:href="#DejaVuSans-51"/>
      </g>
     </g>
    </g>
    <g id="ytick_3">
     <g id="line2d_11">
      <path clip-path="url(#pce6e95bdb2)" d="M 108 82.66862 
L 710.64 82.66862 
" style="fill:none;stroke:#b0b0b0;stroke-dasharray:2.96,1.28;stroke-dashoffset:0;stroke-width:0.8;"/>
     </g>
     <g id="line2d_12">
      <g>
       <use style="fill:#777777;stroke:#777777;stroke-width:0.8;" x="108" xlink:href="#mf655601881" y="82.66862"/>
      </g>
     </g>
     <g id="text_10">
      <!-- $\mathdefault{10^{4}}$ -->
      <g style="fill:#777777;" transform="translate(83.4 86.467839)scale(0.1 -0.1)">
       <defs>
        <path d="M 37.796875 64.3125 
L 12.890625 25.390625 
L 37.796875 25.390625 
z
M 35.203125 72.90625 
L 47.609375 72.90625 
L 47.609375 25.390625 
L 58.015625 25.390625 
L 58.015625 17.1875 
L 47.609375 17.1875 
L 47.609375 0 
L 37.796875 0 
L 37.796875 17.1875 
L 4.890625 17.1875 
L 4.890625 26.703125 
z
" id="DejaVuSans-52"/>
       </defs>
       <use transform="translate(0 0.684375)" xlink:href="#DejaVuSans-49"/>
       <use transform="translate(63.623047 0.684375)" xlink:href="#DejaVuSans-48"/>
       <use transform="translate(128.203125 38.965625)scale(0.7)" xlink:href="#DejaVuSans-52"/>
      </g>
     </g>
    </g>
    <g id="ytick_4">
     <g id="line2d_13">
      <defs>
       <path d="M 0 0 
L -2 0 
" id="mafae77fb14" style="stroke:#000000;stroke-width:0.6;"/>
      </defs>
      <g>
       <use style="stroke:#000000;stroke-width:0.6;" x="108" xlink:href="#mafae77fb14" y="319.543724"/>
      </g>
     </g>
    </g>
    <g id="ytick_5">
     <g id="line2d_14">
      <g>
       <use style="stroke:#000000;stroke-width:0.6;" x="108" xlink:href="#mafae77fb14" y="304.089075"/>
      </g>
     </g>
    </g>
    <g id="ytick_6">
     <g id="line2d_15">
      <g>
       <use style="stroke:#000000;stroke-width:0.6;" x="108" xlink:href="#mafae77fb14" y="293.123826"/>
      </g>
     </g>
    </g>
    <g id="ytick_7">
     <g id="line2d_16">
      <g>
       <use style="stroke:#000000;stroke-width:0.6;" x="108" xlink:href="#mafae77fb14" y="284.618519"/>
      </g>
     </g>
    </g>
    <g id="ytick_8">
     <g id="line2d_17">
      <g>
       <use style="stroke:#000000;stroke-width:0.6;" x="108" xlink:href="#mafae77fb14" y="277.669177"/>
      </g>
     </g>
    </g>
    <g id="ytick_9">
     <g id="line2d_18">
      <g>
       <use style="stroke:#000000;stroke-width:0.6;" x="108" xlink:href="#mafae77fb14" y="271.793592"/>
      </g>
     </g>
    </g>
    <g id="ytick_10">
     <g id="line2d_19">
      <g>
       <use style="stroke:#000000;stroke-width:0.6;" x="108" xlink:href="#mafae77fb14" y="266.703929"/>
      </g>
     </g>
    </g>
    <g id="ytick_11">
     <g id="line2d_20">
      <g>
       <use style="stroke:#000000;stroke-width:0.6;" x="108" xlink:href="#mafae77fb14" y="262.214527"/>
      </g>
     </g>
    </g>
    <g id="ytick_12">
     <g id="line2d_21">
      <g>
       <use style="stroke:#000000;stroke-width:0.6;" x="108" xlink:href="#mafae77fb14" y="231.778723"/>
      </g>
     </g>
    </g>
    <g id="ytick_13">
     <g id="line2d_22">
      <g>
       <use style="stroke:#000000;stroke-width:0.6;" x="108" xlink:href="#mafae77fb14" y="216.324074"/>
      </g>
     </g>
    </g>
    <g id="ytick_14">
     <g id="line2d_23">
      <g>
       <use style="stroke:#000000;stroke-width:0.6;" x="108" xlink:href="#mafae77fb14" y="205.358826"/>
      </g>
     </g>
    </g>
    <g id="ytick_15">
     <g id="line2d_24">
      <g>
       <use style="stroke:#000000;stroke-width:0.6;" x="108" xlink:href="#mafae77fb14" y="196.853518"/>
      </g>
     </g>
    </g>
    <g id="ytick_16">
     <g id="line2d_25">
      <g>
       <use style="stroke:#000000;stroke-width:0.6;" x="108" xlink:href="#mafae77fb14" y="189.904176"/>
      </g>
     </g>
    </g>
    <g id="ytick_17">
     <g id="line2d_26">
      <g>
       <use style="stroke:#000000;stroke-width:0.6;" x="108" xlink:href="#mafae77fb14" y="184.028591"/>
      </g>
     </g>
    </g>
    <g id="ytick_18">
     <g id="line2d_27">
      <g>
       <use style="stroke:#000000;stroke-width:0.6;" x="108" xlink:href="#mafae77fb14" y="178.938928"/>
      </g>
     </g>
    </g>
    <g id="ytick_19">
     <g id="line2d_28">
      <g>
       <use style="stroke:#000000;stroke-width:0.6;" x="108" xlink:href="#mafae77fb14" y="174.449527"/>
      </g>
     </g>
    </g>
    <g id="ytick_20">
     <g id="line2d_29">
      <g>
       <use style="stroke:#000000;stroke-width:0.6;" x="108" xlink:href="#mafae77fb14" y="144.013723"/>
      </g>
     </g>
    </g>
    <g id="ytick_21">
     <g id="line2d_30">
      <g>
       <use style="stroke:#000000;stroke-width:0.6;" x="108" xlink:href="#mafae77fb14" y="128.559074"/>
      </g>
     </g>
    </g>
    <g id="ytick_22">
     <g id="line2d_31">
      <g>
       <use style="stroke:#000000;stroke-width:0.6;" x="108" xlink:href="#mafae77fb14" y="117.593825"/>
      </g>
     </g>
    </g>
    <g id="ytick_23">
     <g id="line2d_32">
      <g>
       <use style="stroke:#000000;stroke-width:0.6;" x="108" xlink:href="#mafae77fb14" y="109.088518"/>
      </g>
     </g>
    </g>
    <g id="ytick_24">
     <g id="line2d_33">
      <g>
       <use style="stroke:#000000;stroke-width:0.6;" x="108" xlink:href="#mafae77fb14" y="102.139176"/>
      </g>
     </g>
    </g>
    <g id="ytick_25">
     <g id="line2d_34">
      <g>
       <use style="stroke:#000000;stroke-width:0.6;" x="108" xlink:href="#mafae77fb14" y="96.263591"/>
      </g>
     </g>
    </g>
    <g id="ytick_26">
     <g id="line2d_35">
      <g>
       <use style="stroke:#000000;stroke-width:0.6;" x="108" xlink:href="#mafae77fb14" y="91.173928"/>
      </g>
     </g>
    </g>
    <g id="ytick_27">
     <g id="line2d_36">
      <g>
       <use style="stroke:#000000;stroke-width:0.6;" x="108" xlink:href="#mafae77fb14" y="86.684526"/>
      </g>
     </g>
    </g>
    <g id="ytick_28">
     <g id="line2d_37">
      <g>
       <use style="stroke:#000000;stroke-width:0.6;" x="108" xlink:href="#mafae77fb14" y="56.248722"/>
      </g>
     </g>
    </g>
    <g id="text_11">
     <!-- Latency [us] -->
     <g style="fill:#585858;" transform="translate(77.320312 212.828125)rotate(-90)scale(0.1 -0.1)">
      <defs>
       <path d="M 9.8125 72.90625 
L 19.671875 72.90625 
L 19.671875 8.296875 
L 55.171875 8.296875 
L 55.171875 0 
L 9.8125 0 
z
" id="DejaVuSans-76"/>
       <path d="M 34.28125 27.484375 
Q 23.390625 27.484375 19.1875 25 
Q 14.984375 22.515625 14.984375 16.5 
Q 14.984375 11.71875 18.140625 8.90625 
Q 21.296875 6.109375 26.703125 6.109375 
Q 34.1875 6.109375 38.703125 11.40625 
Q 43.21875 16.703125 43.21875 25.484375 
L 43.21875 27.484375 
z
M 52.203125 31.203125 
L 52.203125 0 
L 43.21875 0 
L 43.21875 8.296875 
Q 40.140625 3.328125 35.546875 0.953125 
Q 30.953125 -1.421875 24.3125 -1.421875 
Q 15.921875 -1.421875 10.953125 3.296875 
Q 6 8.015625 6 15.921875 
Q 6 25.140625 12.171875 29.828125 
Q 18.359375 34.515625 30.609375 34.515625 
L 43.21875 34.515625 
L 43.21875 35.40625 
Q 43.21875 41.609375 39.140625 45 
Q 35.0625 48.390625 27.6875 48.390625 
Q 23 48.390625 18.546875 47.265625 
Q 14.109375 46.140625 10.015625 43.890625 
L 10.015625 52.203125 
Q 14.9375 54.109375 19.578125 55.046875 
Q 24.21875 56 28.609375 56 
Q 40.484375 56 46.34375 49.84375 
Q 52.203125 43.703125 52.203125 31.203125 
z
" id="DejaVuSans-97"/>
       <path d="M 18.3125 70.21875 
L 18.3125 54.6875 
L 36.8125 54.6875 
L 36.8125 47.703125 
L 18.3125 47.703125 
L 18.3125 18.015625 
Q 18.3125 11.328125 20.140625 9.421875 
Q 21.96875 7.515625 27.59375 7.515625 
L 36.8125 7.515625 
L 36.8125 0 
L 27.59375 0 
Q 17.1875 0 13.234375 3.875 
Q 9.28125 7.765625 9.28125 18.015625 
L 9.28125 47.703125 
L 2.6875 47.703125 
L 2.6875 54.6875 
L 9.28125 54.6875 
L 9.28125 70.21875 
z
" id="DejaVuSans-116"/>
       <path d="M 54.890625 33.015625 
L 54.890625 0 
L 45.90625 0 
L 45.90625 32.71875 
Q 45.90625 40.484375 42.875 44.328125 
Q 39.84375 48.1875 33.796875 48.1875 
Q 26.515625 48.1875 22.3125 43.546875 
Q 18.109375 38.921875 18.109375 30.90625 
L 18.109375 0 
L 9.078125 0 
L 9.078125 54.6875 
L 18.109375 54.6875 
L 18.109375 46.1875 
Q 21.34375 51.125 25.703125 53.5625 
Q 30.078125 56 35.796875 56 
Q 45.21875 56 50.046875 50.171875 
Q 54.890625 44.34375 54.890625 33.015625 
z
" id="DejaVuSans-110"/>
       <path d="M 48.78125 52.59375 
L 48.78125 44.1875 
Q 44.96875 46.296875 41.140625 47.34375 
Q 37.3125 48.390625 33.40625 48.390625 
Q 24.65625 48.390625 19.8125 42.84375 
Q 14.984375 37.3125 14.984375 27.296875 
Q 14.984375 17.28125 19.8125 11.734375 
Q 24.65625 6.203125 33.40625 6.203125 
Q 37.3125 6.203125 41.140625 7.25 
Q 44.96875 8.296875 48.78125 10.40625 
L 48.78125 2.09375 
Q 45.015625 0.34375 40.984375 -0.53125 
Q 36.96875 -1.421875 32.421875 -1.421875 
Q 20.0625 -1.421875 12.78125 6.34375 
Q 5.515625 14.109375 5.515625 27.296875 
Q 5.515625 40.671875 12.859375 48.328125 
Q 20.21875 56 33.015625 56 
Q 37.15625 56 41.109375 55.140625 
Q 45.0625 54.296875 48.78125 52.59375 
z
" id="DejaVuSans-99"/>
       <path d="M 32.171875 -5.078125 
Q 28.375 -14.84375 24.75 -17.8125 
Q 21.140625 -20.796875 15.09375 -20.796875 
L 7.90625 -20.796875 
L 7.90625 -13.28125 
L 13.1875 -13.28125 
Q 16.890625 -13.28125 18.9375 -11.515625 
Q 21 -9.765625 23.484375 -3.21875 
L 25.09375 0.875 
L 2.984375 54.6875 
L 12.5 54.6875 
L 29.59375 11.921875 
L 46.6875 54.6875 
L 56.203125 54.6875 
z
" id="DejaVuSans-121"/>
       <path d="M 8.59375 75.984375 
L 29.296875 75.984375 
L 29.296875 69 
L 17.578125 69 
L 17.578125 -6.203125 
L 29.296875 -6.203125 
L 29.296875 -13.1875 
L 8.59375 -13.1875 
z
" id="DejaVuSans-91"/>
       <path d="M 30.421875 75.984375 
L 30.421875 -13.1875 
L 9.71875 -13.1875 
L 9.71875 -6.203125 
L 21.390625 -6.203125 
L 21.390625 69 
L 9.71875 69 
L 9.71875 75.984375 
z
" id="DejaVuSans-93"/>
      </defs>
      <use xlink:href="#DejaVuSans-76"/>
      <use x="55.712891" xlink:href="#DejaVuSans-97"/>
      <use x="116.992188" xlink:href="#DejaVuSans-116"/>
      <use x="156.201172" xlink:href="#DejaVuSans-101"/>
      <use x="217.724609" xlink:href="#DejaVuSans-110"/>
      <use x="281.103516" xlink:href="#DejaVuSans-99"/>
      <use x="336.083984" xlink:href="#DejaVuSans-121"/>
      <use x="395.263672" xlink:href="#DejaVuSans-32"/>
      <use x="427.050781" xlink:href="#DejaVuSans-91"/>
      <use x="466.064453" xlink:href="#DejaVuSans-117"/>
      <use x="529.443359" xlink:href="#DejaVuSans-115"/>
      <use x="581.542969" xlink:href="#DejaVuSans-93"/>
     </g>
    </g>
   </g>
   <g id="patch_3">
    <path clip-path="url(#pce6e95bdb2)" d="M 131.914286 88198.72915 
L 144.668571 88198.72915 
L 144.668571 306.718797 
L 131.914286 306.718797 
z
" style="fill:#09bac8;"/>
   </g>
   <g id="patch_4">
    <path clip-path="url(#pce6e95bdb2)" d="M 227.571429 88198.72915 
L 240.325714 88198.72915 
L 240.325714 306.718797 
L 227.571429 306.718797 
z
" style="fill:#09bac8;"/>
   </g>
   <g id="patch_5">
    <path clip-path="url(#pce6e95bdb2)" d="M 323.228571 88198.72915 
L 335.982857 88198.72915 
L 335.982857 301.629134 
L 323.228571 301.629134 
z
" style="fill:#09bac8;"/>
   </g>
   <g id="patch_6">
    <path clip-path="url(#pce6e95bdb2)" d="M 418.885714 88198.72915 
L 431.64 88198.72915 
L 431.64 306.99203 
L 418.885714 306.99203 
z
" style="fill:#09bac8;"/>
   </g>
   <g id="patch_7">
    <path clip-path="url(#pce6e95bdb2)" d="M 514.542857 88198.72915 
L 527.297143 88198.72915 
L 527.297143 306.718797 
L 514.542857 306.718797 
z
" style="fill:#09bac8;"/>
   </g>
   <g id="patch_8">
    <path clip-path="url(#pce6e95bdb2)" d="M 610.2 88198.72915 
L 622.954286 88198.72915 
L 622.954286 304.600704 
L 610.2 304.600704 
z
" style="fill:#09bac8;"/>
   </g>
   <g id="patch_9">
    <path clip-path="url(#pce6e95bdb2)" d="M 144.668571 88198.72915 
L 157.422857 88198.72915 
L 157.422857 305.910657 
L 144.668571 305.910657 
z
" style="fill:#fff200;"/>
   </g>
   <g id="patch_10">
    <path clip-path="url(#pce6e95bdb2)" d="M 240.325714 88198.72915 
L 253.08 88198.72915 
L 253.08 305.119296 
L 240.325714 305.119296 
z
" style="fill:#fff200;"/>
   </g>
   <g id="patch_11">
    <path clip-path="url(#pce6e95bdb2)" d="M 335.982857 88198.72915 
L 348.737143 88198.72915 
L 348.737143 305.119296 
L 335.982857 305.119296 
z
" style="fill:#fff200;"/>
   </g>
   <g id="patch_12">
    <path clip-path="url(#pce6e95bdb2)" d="M 431.64 88198.72915 
L 444.394286 88198.72915 
L 444.394286 305.381261 
L 431.64 305.381261 
z
" style="fill:#fff200;"/>
   </g>
   <g id="patch_13">
    <path clip-path="url(#pce6e95bdb2)" d="M 527.297143 88198.72915 
L 540.051429 88198.72915 
L 540.051429 305.381261 
L 527.297143 305.381261 
z
" style="fill:#fff200;"/>
   </g>
   <g id="patch_14">
    <path clip-path="url(#pce6e95bdb2)" d="M 622.954286 88198.72915 
L 635.708571 88198.72915 
L 635.708571 300.225938 
L 622.954286 300.225938 
z
" style="fill:#fff200;"/>
   </g>
   <g id="patch_15">
    <path clip-path="url(#pce6e95bdb2)" d="M 157.422857 88198.72915 
L 170.177143 88198.72915 
L 170.177143 305.64504 
L 157.422857 305.64504 
z
" style="fill:#f72e5c;"/>
   </g>
   <g id="patch_16">
    <path clip-path="url(#pce6e95bdb2)" d="M 253.08 88198.72915 
L 265.834286 88198.72915 
L 265.834286 304.600704 
L 253.08 304.600704 
z
" style="fill:#f72e5c;"/>
   </g>
   <g id="patch_17">
    <path clip-path="url(#pce6e95bdb2)" d="M 348.737143 88198.72915 
L 361.491429 88198.72915 
L 361.491429 304.344031 
L 348.737143 304.344031 
z
" style="fill:#f72e5c;"/>
   </g>
   <g id="patch_18">
    <path clip-path="url(#pce6e95bdb2)" d="M 444.394286 88198.72915 
L 457.148571 88198.72915 
L 457.148571 304.089075 
L 444.394286 304.089075 
z
" style="fill:#f72e5c;"/>
   </g>
   <g id="patch_19">
    <path clip-path="url(#pce6e95bdb2)" d="M 540.051429 88198.72915 
L 552.805714 88198.72915 
L 552.805714 304.344031 
L 540.051429 304.344031 
z
" style="fill:#f72e5c;"/>
   </g>
   <g id="patch_20">
    <path clip-path="url(#pce6e95bdb2)" d="M 635.708571 88198.72915 
L 648.462857 88198.72915 
L 648.462857 304.344031 
L 635.708571 304.344031 
z
" style="fill:#f72e5c;"/>
   </g>
   <g id="patch_21">
    <path clip-path="url(#pce6e95bdb2)" d="M 170.177143 88198.72915 
L 182.931429 88198.72915 
L 182.931429 302.594144 
L 170.177143 302.594144 
z
" style="fill:#17b838;"/>
   </g>
   <g id="patch_22">
    <path clip-path="url(#pce6e95bdb2)" d="M 265.834286 88198.72915 
L 278.588571 88198.72915 
L 278.588571 302.108585 
L 265.834286 302.108585 
z
" style="fill:#17b838;"/>
   </g>
   <g id="patch_23">
    <path clip-path="url(#pce6e95bdb2)" d="M 361.491429 88198.72915 
L 374.245714 88198.72915 
L 374.245714 303.835812 
L 361.491429 303.835812 
z
" style="fill:#17b838;"/>
   </g>
   <g id="patch_24">
    <path clip-path="url(#pce6e95bdb2)" d="M 457.148571 88198.72915 
L 469.902857 88198.72915 
L 469.902857 303.584221 
L 457.148571 303.584221 
z
" style="fill:#17b838;"/>
   </g>
   <g id="patch_25">
    <path clip-path="url(#pce6e95bdb2)" d="M 552.805714 88198.72915 
L 565.56 88198.72915 
L 565.56 290.723488 
L 552.805714 290.723488 
z
" style="fill:#17b838;"/>
   </g>
   <g id="patch_26">
    <path clip-path="url(#pce6e95bdb2)" d="M 648.462857 88198.72915 
L 661.217143 88198.72915 
L 661.217143 302.350591 
L 648.462857 302.350591 
z
" style="fill:#17b838;"/>
   </g>
   <g id="patch_27">
    <path clip-path="url(#pce6e95bdb2)" d="M 182.931429 88198.72915 
L 195.685714 88198.72915 
L 195.685714 299.997013 
L 182.931429 299.997013 
z
" style="fill:#f6830f;"/>
   </g>
   <g id="patch_28">
    <path clip-path="url(#pce6e95bdb2)" d="M 278.588571 88198.72915 
L 291.342857 88198.72915 
L 291.342857 300.225938 
L 278.588571 300.225938 
z
" style="fill:#f6830f;"/>
   </g>
   <g id="patch_29">
    <path clip-path="url(#pce6e95bdb2)" d="M 374.245714 88198.72915 
L 387 88198.72915 
L 387 296.095397 
L 374.245714 296.095397 
z
" style="fill:#f6830f;"/>
   </g>
   <g id="patch_30">
    <path clip-path="url(#pce6e95bdb2)" d="M 469.902857 88198.72915 
L 482.657143 88198.72915 
L 482.657143 299.997013 
L 469.902857 299.997013 
z
" style="fill:#f6830f;"/>
   </g>
   <g id="patch_31">
    <path clip-path="url(#pce6e95bdb2)" d="M 565.56 88198.72915 
L 578.314286 88198.72915 
L 578.314286 88198.72915 
L 565.56 88198.72915 
z
" style="fill:#f6830f;"/>
   </g>
   <g id="patch_32">
    <path clip-path="url(#pce6e95bdb2)" d="M 661.217143 88198.72915 
L 673.971429 88198.72915 
L 673.971429 88198.72915 
L 661.217143 88198.72915 
z
" style="fill:#f6830f;"/>
   </g>
   <g id="patch_33">
    <path clip-path="url(#pce6e95bdb2)" d="M 195.685714 88198.72915 
L 208.44 88198.72915 
L 208.44 303.835812 
L 195.685714 303.835812 
z
" style="fill:#892cdc;"/>
   </g>
   <g id="patch_34">
    <path clip-path="url(#pce6e95bdb2)" d="M 291.342857 88198.72915 
L 304.097143 88198.72915 
L 304.097143 303.835812 
L 291.342857 303.835812 
z
" style="fill:#892cdc;"/>
   </g>
   <g id="patch_35">
    <path clip-path="url(#pce6e95bdb2)" d="M 387 88198.72915 
L 399.754286 88198.72915 
L 399.754286 299.318374 
L 387 299.318374 
z
" style="fill:#892cdc;"/>
   </g>
   <g id="patch_36">
    <path clip-path="url(#pce6e95bdb2)" d="M 482.657143 88198.72915 
L 495.411429 88198.72915 
L 495.411429 269.470023 
L 482.657143 269.470023 
z
" style="fill:#892cdc;"/>
   </g>
   <g id="patch_37">
    <path clip-path="url(#pce6e95bdb2)" d="M 578.314286 88198.72915 
L 591.068571 88198.72915 
L 591.068571 150.782064 
L 578.314286 150.782064 
z
" style="fill:#892cdc;"/>
   </g>
   <g id="patch_38">
    <path clip-path="url(#pce6e95bdb2)" d="M 673.971429 88198.72915 
L 686.725714 88198.72915 
L 686.725714 60.213418 
L 673.971429 60.213418 
z
" style="fill:#892cdc;"/>
   </g>
   <g id="LineCollection_1">
    <path clip-path="url(#pce6e95bdb2)" d="M 138.291429 307.47179 
L 138.291429 305.980392 
" style="fill:none;stroke:#000000;stroke-width:1.5;"/>
    <path clip-path="url(#pce6e95bdb2)" d="M 233.948571 307.151721 
L 233.948571 306.290735 
" style="fill:none;stroke:#000000;stroke-width:1.5;"/>
    <path clip-path="url(#pce6e95bdb2)" d="M 329.605714 303.21469 
L 329.605714 300.106908 
" style="fill:none;stroke:#000000;stroke-width:1.5;"/>
    <path clip-path="url(#pce6e95bdb2)" d="M 425.262857 307.8 
L 425.262857 306.200832 
" style="fill:none;stroke:#000000;stroke-width:1.5;"/>
    <path clip-path="url(#pce6e95bdb2)" d="M 520.92 307.151721 
L 520.92 306.290735 
" style="fill:none;stroke:#000000;stroke-width:1.5;"/>
    <path clip-path="url(#pce6e95bdb2)" d="M 616.577143 305.484225 
L 616.577143 303.737201 
" style="fill:none;stroke:#000000;stroke-width:1.5;"/>
   </g>
   <g id="LineCollection_2">
    <path clip-path="url(#pce6e95bdb2)" d="M 151.045714 306.238512 
L 151.045714 305.585598 
" style="fill:none;stroke:#000000;stroke-width:1.5;"/>
    <path clip-path="url(#pce6e95bdb2)" d="M 246.702857 305.381261 
L 246.702857 304.859118 
" style="fill:none;stroke:#000000;stroke-width:1.5;"/>
    <path clip-path="url(#pce6e95bdb2)" d="M 342.36 305.888134 
L 342.36 304.365659 
" style="fill:none;stroke:#000000;stroke-width:1.5;"/>
    <path clip-path="url(#pce6e95bdb2)" d="M 438.017143 305.381261 
L 438.017143 305.381261 
" style="fill:none;stroke:#000000;stroke-width:1.5;"/>
    <path clip-path="url(#pce6e95bdb2)" d="M 533.674286 306.10804 
L 533.674286 304.668082 
" style="fill:none;stroke:#000000;stroke-width:1.5;"/>
    <path clip-path="url(#pce6e95bdb2)" d="M 629.331429 303.968356 
L 629.331429 296.81834 
" style="fill:none;stroke:#000000;stroke-width:1.5;"/>
   </g>
   <g id="LineCollection_3">
    <path clip-path="url(#pce6e95bdb2)" d="M 163.8 306.143481 
L 163.8 305.153033 
" style="fill:none;stroke:#000000;stroke-width:1.5;"/>
    <path clip-path="url(#pce6e95bdb2)" d="M 259.457143 304.917437 
L 259.457143 304.286582 
" style="fill:none;stroke:#000000;stroke-width:1.5;"/>
    <path clip-path="url(#pce6e95bdb2)" d="M 355.114286 305.097235 
L 355.114286 303.605423 
" style="fill:none;stroke:#000000;stroke-width:1.5;"/>
    <path clip-path="url(#pce6e95bdb2)" d="M 450.771429 304.791403 
L 450.771429 303.399454 
" style="fill:none;stroke:#000000;stroke-width:1.5;"/>
    <path clip-path="url(#pce6e95bdb2)" d="M 546.428571 304.600704 
L 546.428571 304.089075 
" style="fill:none;stroke:#000000;stroke-width:1.5;"/>
    <path clip-path="url(#pce6e95bdb2)" d="M 642.085714 304.600704 
L 642.085714 304.089075 
" style="fill:none;stroke:#000000;stroke-width:1.5;"/>
   </g>
   <g id="LineCollection_4">
    <path clip-path="url(#pce6e95bdb2)" d="M 176.554286 303.659817 
L 176.554286 301.557457 
" style="fill:none;stroke:#000000;stroke-width:1.5;"/>
    <path clip-path="url(#pce6e95bdb2)" d="M 272.211429 303.371122 
L 272.211429 300.886529 
" style="fill:none;stroke:#000000;stroke-width:1.5;"/>
    <path clip-path="url(#pce6e95bdb2)" d="M 367.868571 304.578942 
L 367.868571 303.106894 
" style="fill:none;stroke:#000000;stroke-width:1.5;"/>
    <path clip-path="url(#pce6e95bdb2)" d="M 463.525714 304.61668 
L 463.525714 302.578993 
" style="fill:none;stroke:#000000;stroke-width:1.5;"/>
    <path clip-path="url(#pce6e95bdb2)" d="M 559.182857 298.607458 
L 559.182857 284.19407 
" style="fill:none;stroke:#000000;stroke-width:1.5;"/>
    <path clip-path="url(#pce6e95bdb2)" d="M 654.84 303.423796 
L 654.84 301.306778 
" style="fill:none;stroke:#000000;stroke-width:1.5;"/>
   </g>
   <g id="LineCollection_5">
    <path clip-path="url(#pce6e95bdb2)" d="M 189.308571 300.456246 
L 189.308571 299.543247 
" style="fill:none;stroke:#000000;stroke-width:1.5;"/>
    <path clip-path="url(#pce6e95bdb2)" d="M 284.965714 300.657944 
L 284.965714 299.798772 
" style="fill:none;stroke:#000000;stroke-width:1.5;"/>
    <path clip-path="url(#pce6e95bdb2)" d="M 380.622857 300.189548 
L 380.622857 292.398669 
" style="fill:none;stroke:#000000;stroke-width:1.5;"/>
    <path clip-path="url(#pce6e95bdb2)" d="M 476.28 300.687954 
L 476.28 299.318374 
" style="fill:none;stroke:#000000;stroke-width:1.5;"/>
    <path clip-path="url(#pce6e95bdb2)" d="M 0 0 
" style="fill:none;stroke:#000000;stroke-width:1.5;"/>
    <path clip-path="url(#pce6e95bdb2)" d="M 0 0 
" style="fill:none;stroke:#000000;stroke-width:1.5;"/>
   </g>
   <g id="LineCollection_6">
    <path clip-path="url(#pce6e95bdb2)" d="M 202.062857 304.311002 
L 202.062857 303.366474 
" style="fill:none;stroke:#000000;stroke-width:1.5;"/>
    <path clip-path="url(#pce6e95bdb2)" d="M 297.72 304.311002 
L 297.72 303.366474 
" style="fill:none;stroke:#000000;stroke-width:1.5;"/>
    <path clip-path="url(#pce6e95bdb2)" d="M 393.377143 299.937401 
L 393.377143 298.709241 
" style="fill:none;stroke:#000000;stroke-width:1.5;"/>
    <path clip-path="url(#pce6e95bdb2)" d="M 489.034286 269.855341 
L 489.034286 269.08856 
" style="fill:none;stroke:#000000;stroke-width:1.5;"/>
    <path clip-path="url(#pce6e95bdb2)" d="M 584.691429 155.222129 
L 584.691429 146.805673 
" style="fill:none;stroke:#000000;stroke-width:1.5;"/>
    <path clip-path="url(#pce6e95bdb2)" d="M 680.348571 65.205612 
L 680.348571 55.8 
" style="fill:none;stroke:#000000;stroke-width:1.5;"/>
   </g>
   <g id="patch_39">
    <path d="M 108 320.4 
L 108 43.2 
" style="fill:none;stroke:#777777;stroke-linecap:square;stroke-linejoin:miter;stroke-width:0.8;"/>
   </g>
   <g id="patch_40">
    <path d="M 710.64 320.4 
L 710.64 43.2 
" style="fill:none;"/>
   </g>
   <g id="patch_41">
    <path d="M 108 320.4 
L 710.64 320.4 
" style="fill:none;stroke:#777777;stroke-linecap:square;stroke-linejoin:miter;stroke-width:0.8;"/>
   </g>
   <g id="patch_42">
    <path d="M 108 43.2 
L 710.64 43.2 
" style="fill:none;"/>
   </g>
   <g id="text_12">
    <!-- Latency -->
    <g style="fill:#585858;" transform="translate(385.603125 37.2)scale(0.12 -0.12)">
     <use xlink:href="#DejaVuSans-76"/>
     <use x="55.712891" xlink:href="#DejaVuSans-97"/>
     <use x="116.992188" xlink:href="#DejaVuSans-116"/>
     <use x="156.201172" xlink:href="#DejaVuSans-101"/>
     <use x="217.724609" xlink:href="#DejaVuSans-110"/>
     <use x="281.103516" xlink:href="#DejaVuSans-99"/>
     <use x="336.083984" xlink:href="#DejaVuSans-121"/>
    </g>
   </g>
   <g id="legend_1">
    <g id="patch_43">
     <path d="M 717.64 227.334375 
L 789.304062 227.334375 
Q 791.304062 227.334375 791.304062 225.334375 
L 791.304062 138.265625 
Q 791.304062 136.265625 789.304062 136.265625 
L 717.64 136.265625 
Q 715.64 136.265625 715.64 138.265625 
L 715.64 225.334375 
Q 715.64 227.334375 717.64 227.334375 
z
" style="fill:#ffffff;opacity:0.8;stroke:#cccccc;stroke-linejoin:miter;"/>
    </g>
    <g id="patch_44">
     <path d="M 719.64 147.864062 
L 739.64 147.864062 
L 739.64 140.864062 
L 719.64 140.864062 
z
" style="fill:#09bac8;"/>
    </g>
    <g id="text_13">
     <!-- none -->
     <g style="fill:#777777;" transform="translate(747.64 147.864062)scale(0.1 -0.1)">
      <use xlink:href="#DejaVuSans-110"/>
      <use x="63.378906" xlink:href="#DejaVuSans-111"/>
      <use x="124.560547" xlink:href="#DejaVuSans-110"/>
      <use x="187.939453" xlink:href="#DejaVuSans-101"/>
     </g>
    </g>
    <g id="patch_45">
     <path d="M 719.64 162.542187 
L 739.64 162.542187 
L 739.64 155.542187 
L 719.64 155.542187 
z
" style="fill:#fff200;"/>
    </g>
    <g id="text_14">
     <!-- tc-bpf -->
     <g style="fill:#777777;" transform="translate(747.64 162.542187)scale(0.1 -0.1)">
      <defs>
       <path d="M 4.890625 31.390625 
L 31.203125 31.390625 
L 31.203125 23.390625 
L 4.890625 23.390625 
z
" id="DejaVuSans-45"/>
       <path d="M 18.109375 8.203125 
L 18.109375 -20.796875 
L 9.078125 -20.796875 
L 9.078125 54.6875 
L 18.109375 54.6875 
L 18.109375 46.390625 
Q 20.953125 51.265625 25.265625 53.625 
Q 29.59375 56 35.59375 56 
Q 45.5625 56 51.78125 48.09375 
Q 58.015625 40.1875 58.015625 27.296875 
Q 58.015625 14.40625 51.78125 6.484375 
Q 45.5625 -1.421875 35.59375 -1.421875 
Q 29.59375 -1.421875 25.265625 0.953125 
Q 20.953125 3.328125 18.109375 8.203125 
z
M 48.6875 27.296875 
Q 48.6875 37.203125 44.609375 42.84375 
Q 40.53125 48.484375 33.40625 48.484375 
Q 26.265625 48.484375 22.1875 42.84375 
Q 18.109375 37.203125 18.109375 27.296875 
Q 18.109375 17.390625 22.1875 11.75 
Q 26.265625 6.109375 33.40625 6.109375 
Q 40.53125 6.109375 44.609375 11.75 
Q 48.6875 17.390625 48.6875 27.296875 
z
" id="DejaVuSans-112"/>
      </defs>
      <use xlink:href="#DejaVuSans-116"/>
      <use x="39.208984" xlink:href="#DejaVuSans-99"/>
      <use x="94.189453" xlink:href="#DejaVuSans-45"/>
      <use x="130.273438" xlink:href="#DejaVuSans-98"/>
      <use x="193.75" xlink:href="#DejaVuSans-112"/>
      <use x="257.226562" xlink:href="#DejaVuSans-102"/>
     </g>
    </g>
    <g id="patch_46">
     <path d="M 719.64 177.220312 
L 739.64 177.220312 
L 739.64 170.220312 
L 719.64 170.220312 
z
" style="fill:#f72e5c;"/>
    </g>
    <g id="text_15">
     <!-- ipset -->
     <g style="fill:#777777;" transform="translate(747.64 177.220312)scale(0.1 -0.1)">
      <defs>
       <path d="M 9.421875 54.6875 
L 18.40625 54.6875 
L 18.40625 0 
L 9.421875 0 
z
M 9.421875 75.984375 
L 18.40625 75.984375 
L 18.40625 64.59375 
L 9.421875 64.59375 
z
" id="DejaVuSans-105"/>
      </defs>
      <use xlink:href="#DejaVuSans-105"/>
      <use x="27.783203" xlink:href="#DejaVuSans-112"/>
      <use x="91.259766" xlink:href="#DejaVuSans-115"/>
      <use x="143.359375" xlink:href="#DejaVuSans-101"/>
      <use x="204.882812" xlink:href="#DejaVuSans-116"/>
     </g>
    </g>
    <g id="patch_47">
     <path d="M 719.64 191.898438 
L 739.64 191.898438 
L 739.64 184.898438 
L 719.64 184.898438 
z
" style="fill:#17b838;"/>
    </g>
    <g id="text_16">
     <!-- calico -->
     <g style="fill:#777777;" transform="translate(747.64 191.898438)scale(0.1 -0.1)">
      <use xlink:href="#DejaVuSans-99"/>
      <use x="54.980469" xlink:href="#DejaVuSans-97"/>
      <use x="116.259766" xlink:href="#DejaVuSans-108"/>
      <use x="144.042969" xlink:href="#DejaVuSans-105"/>
      <use x="171.826172" xlink:href="#DejaVuSans-99"/>
      <use x="226.806641" xlink:href="#DejaVuSans-111"/>
     </g>
    </g>
    <g id="patch_48">
     <path d="M 719.64 206.576562 
L 739.64 206.576562 
L 739.64 199.576562 
L 719.64 199.576562 
z
" style="fill:#f6830f;"/>
    </g>
    <g id="text_17">
     <!-- cilium -->
     <g style="fill:#777777;" transform="translate(747.64 206.576562)scale(0.1 -0.1)">
      <use xlink:href="#DejaVuSans-99"/>
      <use x="54.980469" xlink:href="#DejaVuSans-105"/>
      <use x="82.763672" xlink:href="#DejaVuSans-108"/>
      <use x="110.546875" xlink:href="#DejaVuSans-105"/>
      <use x="138.330078" xlink:href="#DejaVuSans-117"/>
      <use x="201.708984" xlink:href="#DejaVuSans-109"/>
     </g>
    </g>
    <g id="patch_49">
     <path d="M 719.64 221.254687 
L 739.64 221.254687 
L 739.64 214.254687 
L 719.64 214.254687 
z
" style="fill:#892cdc;"/>
    </g>
    <g id="text_18">
     <!-- iptables -->
     <g style="fill:#777777;" transform="translate(747.64 221.254687)scale(0.1 -0.1)">
      <use xlink:href="#DejaVuSans-105"/>
      <use x="27.783203" xlink:href="#DejaVuSans-112"/>
      <use x="91.259766" xlink:href="#DejaVuSans-116"/>
      <use x="130.46875" xlink:href="#DejaVuSans-97"/>
      <use x="191.748047" xlink:href="#DejaVuSans-98"/>
      <use x="255.224609" xlink:href="#DejaVuSans-108"/>
      <use x="283.007812" xlink:href="#DejaVuSans-101"/>
      <use x="344.53125" xlink:href="#DejaVuSans-115"/>
     </g>
    </g>
   </g>
  </g>
 </g>
 <defs>
  <clipPath id="pce6e95bdb2">
   <rect height="277.2" width="602.64" x="108" y="43.2"/>
  </clipPath>
 </defs>
</svg>
