<?xml version="1.0" encoding="utf-8" standalone="no"?>
<!DOCTYPE svg PUBLIC "-//W3C//DTD SVG 1.1//EN"
  "http://www.w3.org/Graphics/SVG/1.1/DTD/svg11.dtd">
<!-- Created with matplotlib (https://matplotlib.org/) -->
<svg height="360pt" version="1.1" viewBox="0 0 864 360" width="864pt" xmlns="http://www.w3.org/2000/svg" xmlns:xlink="http://www.w3.org/1999/xlink">
 <metadata>
  <rdf:RDF xmlns:cc="http://creativecommons.org/ns#" xmlns:dc="http://purl.org/dc/elements/1.1/" xmlns:rdf="http://www.w3.org/1999/02/22-rdf-syntax-ns#">
   <cc:Work>
    <dc:type rdf:resource="http://purl.org/dc/dcmitype/StillImage"/>
    <dc:date>2020-12-04T23:10:30.942247</dc:date>
    <dc:format>image/svg+xml</dc:format>
    <dc:creator>
     <cc:Agent>
      <dc:title>Matplotlib v3.3.2, https://matplotlib.org/</dc:title>
     </cc:Agent>
    </dc:creator>
   </cc:Work>
  </rdf:RDF>
 </metadata>
 <defs>
  <style type="text/css">*{stroke-linecap:butt;stroke-linejoin:round;}</style>
 </defs>
 <g id="figure_1">
  <g id="patch_1">
   <path d="M 0 360 
L 864 360 
L 864 0 
L 0 0 
z
" style="fill:#ffffff;"/>
  </g>
  <g id="axes_1">
   <g id="patch_2">
    <path d="M 108 320.4 
L 710.64 320.4 
L 710.64 43.2 
L 108 43.2 
z
" style="fill:#ffffff;"/>
   </g>
   <g id="matplotlib.axis_1">
    <g id="xtick_1">
     <g id="line2d_1">
      <defs>
       <path d="M 0 0 
L 0 3.5 
" id="m3627ecd109" style="stroke:#777777;stroke-width:0.8;"/>
      </defs>
      <g>
       <use style="fill:#777777;stroke:#777777;stroke-width:0.8;" x="170.177143" xlink:href="#m3627ecd109" y="320.4"/>
      </g>
     </g>
     <g id="text_1">
      <!-- 10 -->
      <g style="fill:#777777;" transform="translate(163.814643 334.998438)scale(0.1 -0.1)">
       <defs>
        <path d="M 12.40625 8.296875 
L 28.515625 8.296875 
L 28.515625 63.921875 
L 10.984375 60.40625 
L 10.984375 69.390625 
L 28.421875 72.90625 
L 38.28125 72.90625 
L 38.28125 8.296875 
L 54.390625 8.296875 
L 54.390625 0 
L 12.40625 0 
z
" id="DejaVuSans-49"/>
        <path d="M 31.78125 66.40625 
Q 24.171875 66.40625 20.328125 58.90625 
Q 16.5 51.421875 16.5 36.375 
Q 16.5 21.390625 20.328125 13.890625 
Q 24.171875 6.390625 31.78125 6.390625 
Q 39.453125 6.390625 43.28125 13.890625 
Q 47.125 21.390625 47.125 36.375 
Q 47.125 51.421875 43.28125 58.90625 
Q 39.453125 66.40625 31.78125 66.40625 
z
M 31.78125 74.21875 
Q 44.046875 74.21875 50.515625 64.515625 
Q 56.984375 54.828125 56.984375 36.375 
Q 56.984375 17.96875 50.515625 8.265625 
Q 44.046875 -1.421875 31.78125 -1.421875 
Q 19.53125 -1.421875 13.0625 8.265625 
Q 6.59375 17.96875 6.59375 36.375 
Q 6.59375 54.828125 13.0625 64.515625 
Q 19.53125 74.21875 31.78125 74.21875 
z
" id="DejaVuSans-48"/>
       </defs>
       <use xlink:href="#DejaVuSans-49"/>
       <use x="63.623047" xlink:href="#DejaVuSans-48"/>
      </g>
     </g>
    </g>
    <g id="xtick_2">
     <g id="line2d_2">
      <g>
       <use style="fill:#777777;stroke:#777777;stroke-width:0.8;" x="265.834286" xlink:href="#m3627ecd109" y="320.4"/>
      </g>
     </g>
     <g id="text_2">
      <!-- 100 -->
      <g style="fill:#777777;" transform="translate(256.290536 334.998438)scale(0.1 -0.1)">
       <use xlink:href="#DejaVuSans-49"/>
       <use x="63.623047" xlink:href="#DejaVuSans-48"/>
       <use x="127.246094" xlink:href="#DejaVuSans-48"/>
      </g>
     </g>
    </g>
    <g id="xtick_3">
     <g id="line2d_3">
      <g>
       <use style="fill:#777777;stroke:#777777;stroke-width:0.8;" x="361.491429" xlink:href="#m3627ecd109" y="320.4"/>
      </g>
     </g>
     <g id="text_3">
      <!-- 1000 -->
      <g style="fill:#777777;" transform="translate(348.766429 334.998438)scale(0.1 -0.1)">
       <use xlink:href="#DejaVuSans-49"/>
       <use x="63.623047" xlink:href="#DejaVuSans-48"/>
       <use x="127.246094" xlink:href="#DejaVuSans-48"/>
       <use x="190.869141" xlink:href="#DejaVuSans-48"/>
      </g>
     </g>
    </g>
    <g id="xtick_4">
     <g id="line2d_4">
      <g>
       <use style="fill:#777777;stroke:#777777;stroke-width:0.8;" x="457.148571" xlink:href="#m3627ecd109" y="320.4"/>
      </g>
     </g>
     <g id="text_4">
      <!-- 10000 -->
      <g style="fill:#777777;" transform="translate(441.242321 334.998438)scale(0.1 -0.1)">
       <use xlink:href="#DejaVuSans-49"/>
       <use x="63.623047" xlink:href="#DejaVuSans-48"/>
       <use x="127.246094" xlink:href="#DejaVuSans-48"/>
       <use x="190.869141" xlink:href="#DejaVuSans-48"/>
       <use x="254.492188" xlink:href="#DejaVuSans-48"/>
      </g>
     </g>
    </g>
    <g id="xtick_5">
     <g id="line2d_5">
      <g>
       <use style="fill:#777777;stroke:#777777;stroke-width:0.8;" x="552.805714" xlink:href="#m3627ecd109" y="320.4"/>
      </g>
     </g>
     <g id="text_5">
      <!-- 100000 -->
      <g style="fill:#777777;" transform="translate(533.718214 334.998438)scale(0.1 -0.1)">
       <use xlink:href="#DejaVuSans-49"/>
       <use x="63.623047" xlink:href="#DejaVuSans-48"/>
       <use x="127.246094" xlink:href="#DejaVuSans-48"/>
       <use x="190.869141" xlink:href="#DejaVuSans-48"/>
       <use x="254.492188" xlink:href="#DejaVuSans-48"/>
       <use x="318.115234" xlink:href="#DejaVuSans-48"/>
      </g>
     </g>
    </g>
    <g id="xtick_6">
     <g id="line2d_6">
      <g>
       <use style="fill:#777777;stroke:#777777;stroke-width:0.8;" x="648.462857" xlink:href="#m3627ecd109" y="320.4"/>
      </g>
     </g>
     <g id="text_6">
      <!-- 1000000 -->
      <g style="fill:#777777;" transform="translate(626.194107 334.998438)scale(0.1 -0.1)">
       <use xlink:href="#DejaVuSans-49"/>
       <use x="63.623047" xlink:href="#DejaVuSans-48"/>
       <use x="127.246094" xlink:href="#DejaVuSans-48"/>
       <use x="190.869141" xlink:href="#DejaVuSans-48"/>
       <use x="254.492188" xlink:href="#DejaVuSans-48"/>
       <use x="318.115234" xlink:href="#DejaVuSans-48"/>
       <use x="381.738281" xlink:href="#DejaVuSans-48"/>
      </g>
     </g>
    </g>
    <g id="text_7">
     <!-- Number of rules -->
     <g style="fill:#585858;" transform="translate(368.941875 348.676562)scale(0.1 -0.1)">
      <defs>
       <path d="M 9.8125 72.90625 
L 23.09375 72.90625 
L 55.421875 11.921875 
L 55.421875 72.90625 
L 64.984375 72.90625 
L 64.984375 0 
L 51.703125 0 
L 19.390625 60.984375 
L 19.390625 0 
L 9.8125 0 
z
" id="DejaVuSans-78"/>
       <path d="M 8.5 21.578125 
L 8.5 54.6875 
L 17.484375 54.6875 
L 17.484375 21.921875 
Q 17.484375 14.15625 20.5 10.265625 
Q 23.53125 6.390625 29.59375 6.390625 
Q 36.859375 6.390625 41.078125 11.03125 
Q 45.3125 15.671875 45.3125 23.6875 
L 45.3125 54.6875 
L 54.296875 54.6875 
L 54.296875 0 
L 45.3125 0 
L 45.3125 8.40625 
Q 42.046875 3.421875 37.71875 1 
Q 33.40625 -1.421875 27.6875 -1.421875 
Q 18.265625 -1.421875 13.375 4.4375 
Q 8.5 10.296875 8.5 21.578125 
z
M 31.109375 56 
z
" id="DejaVuSans-117"/>
       <path d="M 52 44.1875 
Q 55.375 50.25 60.0625 53.125 
Q 64.75 56 71.09375 56 
Q 79.640625 56 84.28125 50.015625 
Q 88.921875 44.046875 88.921875 33.015625 
L 88.921875 0 
L 79.890625 0 
L 79.890625 32.71875 
Q 79.890625 40.578125 77.09375 44.375 
Q 74.3125 48.1875 68.609375 48.1875 
Q 61.625 48.1875 57.5625 43.546875 
Q 53.515625 38.921875 53.515625 30.90625 
L 53.515625 0 
L 44.484375 0 
L 44.484375 32.71875 
Q 44.484375 40.625 41.703125 44.40625 
Q 38.921875 48.1875 33.109375 48.1875 
Q 26.21875 48.1875 22.15625 43.53125 
Q 18.109375 38.875 18.109375 30.90625 
L 18.109375 0 
L 9.078125 0 
L 9.078125 54.6875 
L 18.109375 54.6875 
L 18.109375 46.1875 
Q 21.1875 51.21875 25.484375 53.609375 
Q 29.78125 56 35.6875 56 
Q 41.65625 56 45.828125 52.96875 
Q 50 49.953125 52 44.1875 
z
" id="DejaVuSans-109"/>
       <path d="M 48.6875 27.296875 
Q 48.6875 37.203125 44.609375 42.84375 
Q 40.53125 48.484375 33.40625 48.484375 
Q 26.265625 48.484375 22.1875 42.84375 
Q 18.109375 37.203125 18.109375 27.296875 
Q 18.109375 17.390625 22.1875 11.75 
Q 26.265625 6.109375 33.40625 6.109375 
Q 40.53125 6.109375 44.609375 11.75 
Q 48.6875 17.390625 48.6875 27.296875 
z
M 18.109375 46.390625 
Q 20.953125 51.265625 25.265625 53.625 
Q 29.59375 56 35.59375 56 
Q 45.5625 56 51.78125 48.09375 
Q 58.015625 40.1875 58.015625 27.296875 
Q 58.015625 14.40625 51.78125 6.484375 
Q 45.5625 -1.421875 35.59375 -1.421875 
Q 29.59375 -1.421875 25.265625 0.953125 
Q 20.953125 3.328125 18.109375 8.203125 
L 18.109375 0 
L 9.078125 0 
L 9.078125 75.984375 
L 18.109375 75.984375 
z
" id="DejaVuSans-98"/>
       <path d="M 56.203125 29.59375 
L 56.203125 25.203125 
L 14.890625 25.203125 
Q 15.484375 15.921875 20.484375 11.0625 
Q 25.484375 6.203125 34.421875 6.203125 
Q 39.59375 6.203125 44.453125 7.46875 
Q 49.3125 8.734375 54.109375 11.28125 
L 54.109375 2.78125 
Q 49.265625 0.734375 44.1875 -0.34375 
Q 39.109375 -1.421875 33.890625 -1.421875 
Q 20.796875 -1.421875 13.15625 6.1875 
Q 5.515625 13.8125 5.515625 26.8125 
Q 5.515625 40.234375 12.765625 48.109375 
Q 20.015625 56 32.328125 56 
Q 43.359375 56 49.78125 48.890625 
Q 56.203125 41.796875 56.203125 29.59375 
z
M 47.21875 32.234375 
Q 47.125 39.59375 43.09375 43.984375 
Q 39.0625 48.390625 32.421875 48.390625 
Q 24.90625 48.390625 20.390625 44.140625 
Q 15.875 39.890625 15.1875 32.171875 
z
" id="DejaVuSans-101"/>
       <path d="M 41.109375 46.296875 
Q 39.59375 47.171875 37.8125 47.578125 
Q 36.03125 48 33.890625 48 
Q 26.265625 48 22.1875 43.046875 
Q 18.109375 38.09375 18.109375 28.8125 
L 18.109375 0 
L 9.078125 0 
L 9.078125 54.6875 
L 18.109375 54.6875 
L 18.109375 46.1875 
Q 20.953125 51.171875 25.484375 53.578125 
Q 30.03125 56 36.53125 56 
Q 37.453125 56 38.578125 55.875 
Q 39.703125 55.765625 41.0625 55.515625 
z
" id="DejaVuSans-114"/>
       <path id="DejaVuSans-32"/>
       <path d="M 30.609375 48.390625 
Q 23.390625 48.390625 19.1875 42.75 
Q 14.984375 37.109375 14.984375 27.296875 
Q 14.984375 17.484375 19.15625 11.84375 
Q 23.34375 6.203125 30.609375 6.203125 
Q 37.796875 6.203125 41.984375 11.859375 
Q 46.1875 17.53125 46.1875 27.296875 
Q 46.1875 37.015625 41.984375 42.703125 
Q 37.796875 48.390625 30.609375 48.390625 
z
M 30.609375 56 
Q 42.328125 56 49.015625 48.375 
Q 55.71875 40.765625 55.71875 27.296875 
Q 55.71875 13.875 49.015625 6.21875 
Q 42.328125 -1.421875 30.609375 -1.421875 
Q 18.84375 -1.421875 12.171875 6.21875 
Q 5.515625 13.875 5.515625 27.296875 
Q 5.515625 40.765625 12.171875 48.375 
Q 18.84375 56 30.609375 56 
z
" id="DejaVuSans-111"/>
       <path d="M 37.109375 75.984375 
L 37.109375 68.5 
L 28.515625 68.5 
Q 23.6875 68.5 21.796875 66.546875 
Q 19.921875 64.59375 19.921875 59.515625 
L 19.921875 54.6875 
L 34.71875 54.6875 
L 34.71875 47.703125 
L 19.921875 47.703125 
L 19.921875 0 
L 10.890625 0 
L 10.890625 47.703125 
L 2.296875 47.703125 
L 2.296875 54.6875 
L 10.890625 54.6875 
L 10.890625 58.5 
Q 10.890625 67.625 15.140625 71.796875 
Q 19.390625 75.984375 28.609375 75.984375 
z
" id="DejaVuSans-102"/>
       <path d="M 9.421875 75.984375 
L 18.40625 75.984375 
L 18.40625 0 
L 9.421875 0 
z
" id="DejaVuSans-108"/>
       <path d="M 44.28125 53.078125 
L 44.28125 44.578125 
Q 40.484375 46.53125 36.375 47.5 
Q 32.28125 48.484375 27.875 48.484375 
Q 21.1875 48.484375 17.84375 46.4375 
Q 14.5 44.390625 14.5 40.28125 
Q 14.5 37.15625 16.890625 35.375 
Q 19.28125 33.59375 26.515625 31.984375 
L 29.59375 31.296875 
Q 39.15625 29.25 43.1875 25.515625 
Q 47.21875 21.78125 47.21875 15.09375 
Q 47.21875 7.46875 41.1875 3.015625 
Q 35.15625 -1.421875 24.609375 -1.421875 
Q 20.21875 -1.421875 15.453125 -0.5625 
Q 10.6875 0.296875 5.421875 2 
L 5.421875 11.28125 
Q 10.40625 8.6875 15.234375 7.390625 
Q 20.0625 6.109375 24.8125 6.109375 
Q 31.15625 6.109375 34.5625 8.28125 
Q 37.984375 10.453125 37.984375 14.40625 
Q 37.984375 18.0625 35.515625 20.015625 
Q 33.0625 21.96875 24.703125 23.78125 
L 21.578125 24.515625 
Q 13.234375 26.265625 9.515625 29.90625 
Q 5.8125 33.546875 5.8125 39.890625 
Q 5.8125 47.609375 11.28125 51.796875 
Q 16.75 56 26.8125 56 
Q 31.78125 56 36.171875 55.265625 
Q 40.578125 54.546875 44.28125 53.078125 
z
" id="DejaVuSans-115"/>
      </defs>
      <use xlink:href="#DejaVuSans-78"/>
      <use x="74.804688" xlink:href="#DejaVuSans-117"/>
      <use x="138.183594" xlink:href="#DejaVuSans-109"/>
      <use x="235.595703" xlink:href="#DejaVuSans-98"/>
      <use x="299.072266" xlink:href="#DejaVuSans-101"/>
      <use x="360.595703" xlink:href="#DejaVuSans-114"/>
      <use x="401.708984" xlink:href="#DejaVuSans-32"/>
      <use x="433.496094" xlink:href="#DejaVuSans-111"/>
      <use x="494.677734" xlink:href="#DejaVuSans-102"/>
      <use x="529.882812" xlink:href="#DejaVuSans-32"/>
      <use x="561.669922" xlink:href="#DejaVuSans-114"/>
      <use x="602.783203" xlink:href="#DejaVuSans-117"/>
      <use x="666.162109" xlink:href="#DejaVuSans-108"/>
      <use x="693.945312" xlink:href="#DejaVuSans-101"/>
      <use x="755.46875" xlink:href="#DejaVuSans-115"/>
     </g>
    </g>
   </g>
   <g id="matplotlib.axis_2">
    <g id="ytick_1">
     <g id="line2d_7">
      <path clip-path="url(#pef2f7ba7b4)" d="M 108 320.4 
L 710.64 320.4 
" style="fill:none;stroke:#b0b0b0;stroke-dasharray:2.96,1.28;stroke-dashoffset:0;stroke-width:0.8;"/>
     </g>
     <g id="line2d_8">
      <defs>
       <path d="M 0 0 
L -3.5 0 
" id="mc2c124fe8b" style="stroke:#777777;stroke-width:0.8;"/>
      </defs>
      <g>
       <use style="fill:#777777;stroke:#777777;stroke-width:0.8;" x="108" xlink:href="#mc2c124fe8b" y="320.4"/>
      </g>
     </g>
     <g id="text_8">
      <!-- 0.0 -->
      <g style="fill:#777777;" transform="translate(85.096875 324.199219)scale(0.1 -0.1)">
       <defs>
        <path d="M 10.6875 12.40625 
L 21 12.40625 
L 21 0 
L 10.6875 0 
z
" id="DejaVuSans-46"/>
       </defs>
       <use xlink:href="#DejaVuSans-48"/>
       <use x="63.623047" xlink:href="#DejaVuSans-46"/>
       <use x="95.410156" xlink:href="#DejaVuSans-48"/>
      </g>
     </g>
    </g>
    <g id="ytick_2">
     <g id="line2d_9">
      <path clip-path="url(#pef2f7ba7b4)" d="M 108 278.498729 
L 710.64 278.498729 
" style="fill:none;stroke:#b0b0b0;stroke-dasharray:2.96,1.28;stroke-dashoffset:0;stroke-width:0.8;"/>
     </g>
     <g id="line2d_10">
      <g>
       <use style="fill:#777777;stroke:#777777;stroke-width:0.8;" x="108" xlink:href="#mc2c124fe8b" y="278.498729"/>
      </g>
     </g>
     <g id="text_9">
      <!-- 0.5 -->
      <g style="fill:#777777;" transform="translate(85.096875 282.297948)scale(0.1 -0.1)">
       <defs>
        <path d="M 10.796875 72.90625 
L 49.515625 72.90625 
L 49.515625 64.59375 
L 19.828125 64.59375 
L 19.828125 46.734375 
Q 21.96875 47.46875 24.109375 47.828125 
Q 26.265625 48.1875 28.421875 48.1875 
Q 40.625 48.1875 47.75 41.5 
Q 54.890625 34.8125 54.890625 23.390625 
Q 54.890625 11.625 47.5625 5.09375 
Q 40.234375 -1.421875 26.90625 -1.421875 
Q 22.3125 -1.421875 17.546875 -0.640625 
Q 12.796875 0.140625 7.71875 1.703125 
L 7.71875 11.625 
Q 12.109375 9.234375 16.796875 8.0625 
Q 21.484375 6.890625 26.703125 6.890625 
Q 35.15625 6.890625 40.078125 11.328125 
Q 45.015625 15.765625 45.015625 23.390625 
Q 45.015625 31 40.078125 35.4375 
Q 35.15625 39.890625 26.703125 39.890625 
Q 22.75 39.890625 18.8125 39.015625 
Q 14.890625 38.140625 10.796875 36.28125 
z
" id="DejaVuSans-53"/>
       </defs>
       <use xlink:href="#DejaVuSans-48"/>
       <use x="63.623047" xlink:href="#DejaVuSans-46"/>
       <use x="95.410156" xlink:href="#DejaVuSans-53"/>
      </g>
     </g>
    </g>
    <g id="ytick_3">
     <g id="line2d_11">
      <path clip-path="url(#pef2f7ba7b4)" d="M 108 236.597458 
L 710.64 236.597458 
" style="fill:none;stroke:#b0b0b0;stroke-dasharray:2.96,1.28;stroke-dashoffset:0;stroke-width:0.8;"/>
     </g>
     <g id="line2d_12">
      <g>
       <use style="fill:#777777;stroke:#777777;stroke-width:0.8;" x="108" xlink:href="#mc2c124fe8b" y="236.597458"/>
      </g>
     </g>
     <g id="text_10">
      <!-- 1.0 -->
      <g style="fill:#777777;" transform="translate(85.096875 240.396677)scale(0.1 -0.1)">
       <use xlink:href="#DejaVuSans-49"/>
       <use x="63.623047" xlink:href="#DejaVuSans-46"/>
       <use x="95.410156" xlink:href="#DejaVuSans-48"/>
      </g>
     </g>
    </g>
    <g id="ytick_4">
     <g id="line2d_13">
      <path clip-path="url(#pef2f7ba7b4)" d="M 108 194.696187 
L 710.64 194.696187 
" style="fill:none;stroke:#b0b0b0;stroke-dasharray:2.96,1.28;stroke-dashoffset:0;stroke-width:0.8;"/>
     </g>
     <g id="line2d_14">
      <g>
       <use style="fill:#777777;stroke:#777777;stroke-width:0.8;" x="108" xlink:href="#mc2c124fe8b" y="194.696187"/>
      </g>
     </g>
     <g id="text_11">
      <!-- 1.5 -->
      <g style="fill:#777777;" transform="translate(85.096875 198.495406)scale(0.1 -0.1)">
       <use xlink:href="#DejaVuSans-49"/>
       <use x="63.623047" xlink:href="#DejaVuSans-46"/>
       <use x="95.410156" xlink:href="#DejaVuSans-53"/>
      </g>
     </g>
    </g>
    <g id="ytick_5">
     <g id="line2d_15">
      <path clip-path="url(#pef2f7ba7b4)" d="M 108 152.794916 
L 710.64 152.794916 
" style="fill:none;stroke:#b0b0b0;stroke-dasharray:2.96,1.28;stroke-dashoffset:0;stroke-width:0.8;"/>
     </g>
     <g id="line2d_16">
      <g>
       <use style="fill:#777777;stroke:#777777;stroke-width:0.8;" x="108" xlink:href="#mc2c124fe8b" y="152.794916"/>
      </g>
     </g>
     <g id="text_12">
      <!-- 2.0 -->
      <g style="fill:#777777;" transform="translate(85.096875 156.594135)scale(0.1 -0.1)">
       <defs>
        <path d="M 19.1875 8.296875 
L 53.609375 8.296875 
L 53.609375 0 
L 7.328125 0 
L 7.328125 8.296875 
Q 12.9375 14.109375 22.625 23.890625 
Q 32.328125 33.6875 34.8125 36.53125 
Q 39.546875 41.84375 41.421875 45.53125 
Q 43.3125 49.21875 43.3125 52.78125 
Q 43.3125 58.59375 39.234375 62.25 
Q 35.15625 65.921875 28.609375 65.921875 
Q 23.96875 65.921875 18.8125 64.3125 
Q 13.671875 62.703125 7.8125 59.421875 
L 7.8125 69.390625 
Q 13.765625 71.78125 18.9375 73 
Q 24.125 74.21875 28.421875 74.21875 
Q 39.75 74.21875 46.484375 68.546875 
Q 53.21875 62.890625 53.21875 53.421875 
Q 53.21875 48.921875 51.53125 44.890625 
Q 49.859375 40.875 45.40625 35.40625 
Q 44.1875 33.984375 37.640625 27.21875 
Q 31.109375 20.453125 19.1875 8.296875 
z
" id="DejaVuSans-50"/>
       </defs>
       <use xlink:href="#DejaVuSans-50"/>
       <use x="63.623047" xlink:href="#DejaVuSans-46"/>
       <use x="95.410156" xlink:href="#DejaVuSans-48"/>
      </g>
     </g>
    </g>
    <g id="ytick_6">
     <g id="line2d_17">
      <path clip-path="url(#pef2f7ba7b4)" d="M 108 110.893645 
L 710.64 110.893645 
" style="fill:none;stroke:#b0b0b0;stroke-dasharray:2.96,1.28;stroke-dashoffset:0;stroke-width:0.8;"/>
     </g>
     <g id="line2d_18">
      <g>
       <use style="fill:#777777;stroke:#777777;stroke-width:0.8;" x="108" xlink:href="#mc2c124fe8b" y="110.893645"/>
      </g>
     </g>
     <g id="text_13">
      <!-- 2.5 -->
      <g style="fill:#777777;" transform="translate(85.096875 114.692864)scale(0.1 -0.1)">
       <use xlink:href="#DejaVuSans-50"/>
       <use x="63.623047" xlink:href="#DejaVuSans-46"/>
       <use x="95.410156" xlink:href="#DejaVuSans-53"/>
      </g>
     </g>
    </g>
    <g id="ytick_7">
     <g id="line2d_19">
      <path clip-path="url(#pef2f7ba7b4)" d="M 108 68.992374 
L 710.64 68.992374 
" style="fill:none;stroke:#b0b0b0;stroke-dasharray:2.96,1.28;stroke-dashoffset:0;stroke-width:0.8;"/>
     </g>
     <g id="line2d_20">
      <g>
       <use style="fill:#777777;stroke:#777777;stroke-width:0.8;" x="108" xlink:href="#mc2c124fe8b" y="68.992374"/>
      </g>
     </g>
     <g id="text_14">
      <!-- 3.0 -->
      <g style="fill:#777777;" transform="translate(85.096875 72.791593)scale(0.1 -0.1)">
       <defs>
        <path d="M 40.578125 39.3125 
Q 47.65625 37.796875 51.625 33 
Q 55.609375 28.21875 55.609375 21.1875 
Q 55.609375 10.40625 48.1875 4.484375 
Q 40.765625 -1.421875 27.09375 -1.421875 
Q 22.515625 -1.421875 17.65625 -0.515625 
Q 12.796875 0.390625 7.625 2.203125 
L 7.625 11.71875 
Q 11.71875 9.328125 16.59375 8.109375 
Q 21.484375 6.890625 26.8125 6.890625 
Q 36.078125 6.890625 40.9375 10.546875 
Q 45.796875 14.203125 45.796875 21.1875 
Q 45.796875 27.640625 41.28125 31.265625 
Q 36.765625 34.90625 28.71875 34.90625 
L 20.21875 34.90625 
L 20.21875 43.015625 
L 29.109375 43.015625 
Q 36.375 43.015625 40.234375 45.921875 
Q 44.09375 48.828125 44.09375 54.296875 
Q 44.09375 59.90625 40.109375 62.90625 
Q 36.140625 65.921875 28.71875 65.921875 
Q 24.65625 65.921875 20.015625 65.03125 
Q 15.375 64.15625 9.8125 62.3125 
L 9.8125 71.09375 
Q 15.4375 72.65625 20.34375 73.4375 
Q 25.25 74.21875 29.59375 74.21875 
Q 40.828125 74.21875 47.359375 69.109375 
Q 53.90625 64.015625 53.90625 55.328125 
Q 53.90625 49.265625 50.4375 45.09375 
Q 46.96875 40.921875 40.578125 39.3125 
z
" id="DejaVuSans-51"/>
       </defs>
       <use xlink:href="#DejaVuSans-51"/>
       <use x="63.623047" xlink:href="#DejaVuSans-46"/>
       <use x="95.410156" xlink:href="#DejaVuSans-48"/>
      </g>
     </g>
    </g>
    <g id="text_15">
     <!-- Throughput [Gbps] -->
     <g style="fill:#585858;" transform="translate(79.017187 229.157812)rotate(-90)scale(0.1 -0.1)">
      <defs>
       <path d="M -0.296875 72.90625 
L 61.375 72.90625 
L 61.375 64.59375 
L 35.5 64.59375 
L 35.5 0 
L 25.59375 0 
L 25.59375 64.59375 
L -0.296875 64.59375 
z
" id="DejaVuSans-84"/>
       <path d="M 54.890625 33.015625 
L 54.890625 0 
L 45.90625 0 
L 45.90625 32.71875 
Q 45.90625 40.484375 42.875 44.328125 
Q 39.84375 48.1875 33.796875 48.1875 
Q 26.515625 48.1875 22.3125 43.546875 
Q 18.109375 38.921875 18.109375 30.90625 
L 18.109375 0 
L 9.078125 0 
L 9.078125 75.984375 
L 18.109375 75.984375 
L 18.109375 46.1875 
Q 21.34375 51.125 25.703125 53.5625 
Q 30.078125 56 35.796875 56 
Q 45.21875 56 50.046875 50.171875 
Q 54.890625 44.34375 54.890625 33.015625 
z
" id="DejaVuSans-104"/>
       <path d="M 45.40625 27.984375 
Q 45.40625 37.75 41.375 43.109375 
Q 37.359375 48.484375 30.078125 48.484375 
Q 22.859375 48.484375 18.828125 43.109375 
Q 14.796875 37.75 14.796875 27.984375 
Q 14.796875 18.265625 18.828125 12.890625 
Q 22.859375 7.515625 30.078125 7.515625 
Q 37.359375 7.515625 41.375 12.890625 
Q 45.40625 18.265625 45.40625 27.984375 
z
M 54.390625 6.78125 
Q 54.390625 -7.171875 48.1875 -13.984375 
Q 42 -20.796875 29.203125 -20.796875 
Q 24.46875 -20.796875 20.265625 -20.09375 
Q 16.0625 -19.390625 12.109375 -17.921875 
L 12.109375 -9.1875 
Q 16.0625 -11.328125 19.921875 -12.34375 
Q 23.78125 -13.375 27.78125 -13.375 
Q 36.625 -13.375 41.015625 -8.765625 
Q 45.40625 -4.15625 45.40625 5.171875 
L 45.40625 9.625 
Q 42.625 4.78125 38.28125 2.390625 
Q 33.9375 0 27.875 0 
Q 17.828125 0 11.671875 7.65625 
Q 5.515625 15.328125 5.515625 27.984375 
Q 5.515625 40.671875 11.671875 48.328125 
Q 17.828125 56 27.875 56 
Q 33.9375 56 38.28125 53.609375 
Q 42.625 51.21875 45.40625 46.390625 
L 45.40625 54.6875 
L 54.390625 54.6875 
z
" id="DejaVuSans-103"/>
       <path d="M 18.109375 8.203125 
L 18.109375 -20.796875 
L 9.078125 -20.796875 
L 9.078125 54.6875 
L 18.109375 54.6875 
L 18.109375 46.390625 
Q 20.953125 51.265625 25.265625 53.625 
Q 29.59375 56 35.59375 56 
Q 45.5625 56 51.78125 48.09375 
Q 58.015625 40.1875 58.015625 27.296875 
Q 58.015625 14.40625 51.78125 6.484375 
Q 45.5625 -1.421875 35.59375 -1.421875 
Q 29.59375 -1.421875 25.265625 0.953125 
Q 20.953125 3.328125 18.109375 8.203125 
z
M 48.6875 27.296875 
Q 48.6875 37.203125 44.609375 42.84375 
Q 40.53125 48.484375 33.40625 48.484375 
Q 26.265625 48.484375 22.1875 42.84375 
Q 18.109375 37.203125 18.109375 27.296875 
Q 18.109375 17.390625 22.1875 11.75 
Q 26.265625 6.109375 33.40625 6.109375 
Q 40.53125 6.109375 44.609375 11.75 
Q 48.6875 17.390625 48.6875 27.296875 
z
" id="DejaVuSans-112"/>
       <path d="M 18.3125 70.21875 
L 18.3125 54.6875 
L 36.8125 54.6875 
L 36.8125 47.703125 
L 18.3125 47.703125 
L 18.3125 18.015625 
Q 18.3125 11.328125 20.140625 9.421875 
Q 21.96875 7.515625 27.59375 7.515625 
L 36.8125 7.515625 
L 36.8125 0 
L 27.59375 0 
Q 17.1875 0 13.234375 3.875 
Q 9.28125 7.765625 9.28125 18.015625 
L 9.28125 47.703125 
L 2.6875 47.703125 
L 2.6875 54.6875 
L 9.28125 54.6875 
L 9.28125 70.21875 
z
" id="DejaVuSans-116"/>
       <path d="M 8.59375 75.984375 
L 29.296875 75.984375 
L 29.296875 69 
L 17.578125 69 
L 17.578125 -6.203125 
L 29.296875 -6.203125 
L 29.296875 -13.1875 
L 8.59375 -13.1875 
z
" id="DejaVuSans-91"/>
       <path d="M 59.515625 10.40625 
L 59.515625 29.984375 
L 43.40625 29.984375 
L 43.40625 38.09375 
L 69.28125 38.09375 
L 69.28125 6.78125 
Q 63.578125 2.734375 56.6875 0.65625 
Q 49.8125 -1.421875 42 -1.421875 
Q 24.90625 -1.421875 15.25 8.5625 
Q 5.609375 18.5625 5.609375 36.375 
Q 5.609375 54.25 15.25 64.234375 
Q 24.90625 74.21875 42 74.21875 
Q 49.125 74.21875 55.546875 72.453125 
Q 61.96875 70.703125 67.390625 67.28125 
L 67.390625 56.78125 
Q 61.921875 61.421875 55.765625 63.765625 
Q 49.609375 66.109375 42.828125 66.109375 
Q 29.4375 66.109375 22.71875 58.640625 
Q 16.015625 51.171875 16.015625 36.375 
Q 16.015625 21.625 22.71875 14.15625 
Q 29.4375 6.6875 42.828125 6.6875 
Q 48.046875 6.6875 52.140625 7.59375 
Q 56.25 8.5 59.515625 10.40625 
z
" id="DejaVuSans-71"/>
       <path d="M 30.421875 75.984375 
L 30.421875 -13.1875 
L 9.71875 -13.1875 
L 9.71875 -6.203125 
L 21.390625 -6.203125 
L 21.390625 69 
L 9.71875 69 
L 9.71875 75.984375 
z
" id="DejaVuSans-93"/>
      </defs>
      <use xlink:href="#DejaVuSans-84"/>
      <use x="61.083984" xlink:href="#DejaVuSans-104"/>
      <use x="124.462891" xlink:href="#DejaVuSans-114"/>
      <use x="163.326172" xlink:href="#DejaVuSans-111"/>
      <use x="224.507812" xlink:href="#DejaVuSans-117"/>
      <use x="287.886719" xlink:href="#DejaVuSans-103"/>
      <use x="351.363281" xlink:href="#DejaVuSans-104"/>
      <use x="414.742188" xlink:href="#DejaVuSans-112"/>
      <use x="478.21875" xlink:href="#DejaVuSans-117"/>
      <use x="541.597656" xlink:href="#DejaVuSans-116"/>
      <use x="580.806641" xlink:href="#DejaVuSans-32"/>
      <use x="612.59375" xlink:href="#DejaVuSans-91"/>
      <use x="651.607422" xlink:href="#DejaVuSans-71"/>
      <use x="729.097656" xlink:href="#DejaVuSans-98"/>
      <use x="792.574219" xlink:href="#DejaVuSans-112"/>
      <use x="856.050781" xlink:href="#DejaVuSans-115"/>
      <use x="908.150391" xlink:href="#DejaVuSans-93"/>
     </g>
    </g>
   </g>
   <g id="patch_3">
    <path clip-path="url(#pef2f7ba7b4)" d="M 131.914286 320.4 
L 144.668571 320.4 
L 144.668571 71.303148 
L 131.914286 71.303148 
z
" style="fill:#09bac8;"/>
   </g>
   <g id="patch_4">
    <path clip-path="url(#pef2f7ba7b4)" d="M 227.571429 320.4 
L 240.325714 320.4 
L 240.325714 74.486112 
L 227.571429 74.486112 
z
" style="fill:#09bac8;"/>
   </g>
   <g id="patch_5">
    <path clip-path="url(#pef2f7ba7b4)" d="M 323.228571 320.4 
L 335.982857 320.4 
L 335.982857 88.104948 
L 323.228571 88.104948 
z
" style="fill:#09bac8;"/>
   </g>
   <g id="patch_6">
    <path clip-path="url(#pef2f7ba7b4)" d="M 418.885714 320.4 
L 431.64 320.4 
L 431.64 72.733203 
L 418.885714 72.733203 
z
" style="fill:#09bac8;"/>
   </g>
   <g id="patch_7">
    <path clip-path="url(#pef2f7ba7b4)" d="M 514.542857 320.4 
L 527.297143 320.4 
L 527.297143 90.372014 
L 514.542857 90.372014 
z
" style="fill:#09bac8;"/>
   </g>
   <g id="patch_8">
    <path clip-path="url(#pef2f7ba7b4)" d="M 610.2 320.4 
L 622.954286 320.4 
L 622.954286 76.640642 
L 610.2 76.640642 
z
" style="fill:#09bac8;"/>
   </g>
   <g id="patch_9">
    <path clip-path="url(#pef2f7ba7b4)" d="M 144.668571 320.4 
L 157.422857 320.4 
L 157.422857 67.309747 
L 144.668571 67.309747 
z
" style="fill:#fff200;"/>
   </g>
   <g id="patch_10">
    <path clip-path="url(#pef2f7ba7b4)" d="M 240.325714 320.4 
L 253.08 320.4 
L 253.08 71.465781 
L 240.325714 71.465781 
z
" style="fill:#fff200;"/>
   </g>
   <g id="patch_11">
    <path clip-path="url(#pef2f7ba7b4)" d="M 335.982857 320.4 
L 348.737143 320.4 
L 348.737143 91.749287 
L 335.982857 91.749287 
z
" style="fill:#fff200;"/>
   </g>
   <g id="patch_12">
    <path clip-path="url(#pef2f7ba7b4)" d="M 431.64 320.4 
L 444.394286 320.4 
L 444.394286 129.676544 
L 431.64 129.676544 
z
" style="fill:#fff200;"/>
   </g>
   <g id="patch_13">
    <path clip-path="url(#pef2f7ba7b4)" d="M 527.297143 320.4 
L 540.051429 320.4 
L 540.051429 93.773676 
L 527.297143 93.773676 
z
" style="fill:#fff200;"/>
   </g>
   <g id="patch_14">
    <path clip-path="url(#pef2f7ba7b4)" d="M 622.954286 320.4 
L 635.708571 320.4 
L 635.708571 95.484878 
L 622.954286 95.484878 
z
" style="fill:#fff200;"/>
   </g>
   <g id="patch_15">
    <path clip-path="url(#pef2f7ba7b4)" d="M 157.422857 320.4 
L 170.177143 320.4 
L 170.177143 101.826689 
L 157.422857 101.826689 
z
" style="fill:#f72e5c;"/>
   </g>
   <g id="patch_16">
    <path clip-path="url(#pef2f7ba7b4)" d="M 253.08 320.4 
L 265.834286 320.4 
L 265.834286 86.086401 
L 253.08 86.086401 
z
" style="fill:#f72e5c;"/>
   </g>
   <g id="patch_17">
    <path clip-path="url(#pef2f7ba7b4)" d="M 348.737143 320.4 
L 361.491429 320.4 
L 361.491429 94.570156 
L 348.737143 94.570156 
z
" style="fill:#f72e5c;"/>
   </g>
   <g id="patch_18">
    <path clip-path="url(#pef2f7ba7b4)" d="M 444.394286 320.4 
L 457.148571 320.4 
L 457.148571 81.219783 
L 444.394286 81.219783 
z
" style="fill:#f72e5c;"/>
   </g>
   <g id="patch_19">
    <path clip-path="url(#pef2f7ba7b4)" d="M 540.051429 320.4 
L 552.805714 320.4 
L 552.805714 76.58612 
L 540.051429 76.58612 
z
" style="fill:#f72e5c;"/>
   </g>
   <g id="patch_20">
    <path clip-path="url(#pef2f7ba7b4)" d="M 635.708571 320.4 
L 648.462857 320.4 
L 648.462857 93.799623 
L 635.708571 93.799623 
z
" style="fill:#f72e5c;"/>
   </g>
   <g id="patch_21">
    <path clip-path="url(#pef2f7ba7b4)" d="M 170.177143 320.4 
L 182.931429 320.4 
L 182.931429 95.343042 
L 170.177143 95.343042 
z
" style="fill:#17b838;"/>
   </g>
   <g id="patch_22">
    <path clip-path="url(#pef2f7ba7b4)" d="M 265.834286 320.4 
L 278.588571 320.4 
L 278.588571 96.383586 
L 265.834286 96.383586 
z
" style="fill:#17b838;"/>
   </g>
   <g id="patch_23">
    <path clip-path="url(#pef2f7ba7b4)" d="M 361.491429 320.4 
L 374.245714 320.4 
L 374.245714 97.360126 
L 361.491429 97.360126 
z
" style="fill:#17b838;"/>
   </g>
   <g id="patch_24">
    <path clip-path="url(#pef2f7ba7b4)" d="M 457.148571 320.4 
L 469.902857 320.4 
L 469.902857 95.594167 
L 457.148571 95.594167 
z
" style="fill:#17b838;"/>
   </g>
   <g id="patch_25">
    <path clip-path="url(#pef2f7ba7b4)" d="M 552.805714 320.4 
L 565.56 320.4 
L 565.56 96.362154 
L 552.805714 96.362154 
z
" style="fill:#17b838;"/>
   </g>
   <g id="patch_26">
    <path clip-path="url(#pef2f7ba7b4)" d="M 648.462857 320.4 
L 661.217143 320.4 
L 661.217143 94.946153 
L 648.462857 94.946153 
z
" style="fill:#17b838;"/>
   </g>
   <g id="patch_27">
    <path clip-path="url(#pef2f7ba7b4)" d="M 182.931429 320.4 
L 195.685714 320.4 
L 195.685714 125.692644 
L 182.931429 125.692644 
z
" style="fill:#f6830f;"/>
   </g>
   <g id="patch_28">
    <path clip-path="url(#pef2f7ba7b4)" d="M 278.588571 320.4 
L 291.342857 320.4 
L 291.342857 126.596746 
L 278.588571 126.596746 
z
" style="fill:#f6830f;"/>
   </g>
   <g id="patch_29">
    <path clip-path="url(#pef2f7ba7b4)" d="M 374.245714 320.4 
L 387 320.4 
L 387 128.957302 
L 374.245714 128.957302 
z
" style="fill:#f6830f;"/>
   </g>
   <g id="patch_30">
    <path clip-path="url(#pef2f7ba7b4)" d="M 469.902857 320.4 
L 482.657143 320.4 
L 482.657143 129.889545 
L 469.902857 129.889545 
z
" style="fill:#f6830f;"/>
   </g>
   <g id="patch_31">
    <path clip-path="url(#pef2f7ba7b4)" d="M 565.56 320.4 
L 578.314286 320.4 
L 578.314286 320.4 
L 565.56 320.4 
z
" style="fill:#f6830f;"/>
   </g>
   <g id="patch_32">
    <path clip-path="url(#pef2f7ba7b4)" d="M 661.217143 320.4 
L 673.971429 320.4 
L 673.971429 320.4 
L 661.217143 320.4 
z
" style="fill:#f6830f;"/>
   </g>
   <g id="patch_33">
    <path clip-path="url(#pef2f7ba7b4)" d="M 195.685714 320.4 
L 208.44 320.4 
L 208.44 106.69268 
L 195.685714 106.69268 
z
" style="fill:#892cdc;"/>
   </g>
   <g id="patch_34">
    <path clip-path="url(#pef2f7ba7b4)" d="M 291.342857 320.4 
L 304.097143 320.4 
L 304.097143 107.418586 
L 291.342857 107.418586 
z
" style="fill:#892cdc;"/>
   </g>
   <g id="patch_35">
    <path clip-path="url(#pef2f7ba7b4)" d="M 387 320.4 
L 399.754286 320.4 
L 399.754286 218.018956 
L 387 218.018956 
z
" style="fill:#892cdc;"/>
   </g>
   <g id="patch_36">
    <path clip-path="url(#pef2f7ba7b4)" d="M 482.657143 320.4 
L 495.411429 320.4 
L 495.411429 301.495455 
L 482.657143 301.495455 
z
" style="fill:#892cdc;"/>
   </g>
   <g id="patch_37">
    <path clip-path="url(#pef2f7ba7b4)" d="M 578.314286 320.4 
L 591.068571 320.4 
L 591.068571 319.865439 
L 578.314286 319.865439 
z
" style="fill:#892cdc;"/>
   </g>
   <g id="patch_38">
    <path clip-path="url(#pef2f7ba7b4)" d="M 673.971429 320.4 
L 686.725714 320.4 
L 686.725714 320.342703 
L 673.971429 320.342703 
z
" style="fill:#892cdc;"/>
   </g>
   <g id="LineCollection_1">
    <path clip-path="url(#pef2f7ba7b4)" d="M 138.291429 86.206297 
L 138.291429 56.4 
" style="fill:none;stroke:#000000;stroke-width:1.5;"/>
    <path clip-path="url(#pef2f7ba7b4)" d="M 233.948571 88.739014 
L 233.948571 60.23321 
" style="fill:none;stroke:#000000;stroke-width:1.5;"/>
    <path clip-path="url(#pef2f7ba7b4)" d="M 329.605714 105.315248 
L 329.605714 70.894647 
" style="fill:none;stroke:#000000;stroke-width:1.5;"/>
    <path clip-path="url(#pef2f7ba7b4)" d="M 425.262857 87.530978 
L 425.262857 57.935429 
" style="fill:none;stroke:#000000;stroke-width:1.5;"/>
    <path clip-path="url(#pef2f7ba7b4)" d="M 520.92 115.18043 
L 520.92 65.563599 
" style="fill:none;stroke:#000000;stroke-width:1.5;"/>
    <path clip-path="url(#pef2f7ba7b4)" d="M 616.577143 89.971076 
L 616.577143 63.310208 
" style="fill:none;stroke:#000000;stroke-width:1.5;"/>
   </g>
   <g id="LineCollection_2">
    <path clip-path="url(#pef2f7ba7b4)" d="M 151.045714 72.007507 
L 151.045714 62.611988 
" style="fill:none;stroke:#000000;stroke-width:1.5;"/>
    <path clip-path="url(#pef2f7ba7b4)" d="M 246.702857 73.957121 
L 246.702857 68.97444 
" style="fill:none;stroke:#000000;stroke-width:1.5;"/>
    <path clip-path="url(#pef2f7ba7b4)" d="M 342.36 104.242346 
L 342.36 79.256228 
" style="fill:none;stroke:#000000;stroke-width:1.5;"/>
    <path clip-path="url(#pef2f7ba7b4)" d="M 438.017143 153.035737 
L 438.017143 106.317352 
" style="fill:none;stroke:#000000;stroke-width:1.5;"/>
    <path clip-path="url(#pef2f7ba7b4)" d="M 533.674286 106.371897 
L 533.674286 81.175456 
" style="fill:none;stroke:#000000;stroke-width:1.5;"/>
    <path clip-path="url(#pef2f7ba7b4)" d="M 629.331429 107.995752 
L 629.331429 82.974003 
" style="fill:none;stroke:#000000;stroke-width:1.5;"/>
   </g>
   <g id="LineCollection_3">
    <path clip-path="url(#pef2f7ba7b4)" d="M 163.8 124.529458 
L 163.8 79.12392 
" style="fill:none;stroke:#000000;stroke-width:1.5;"/>
    <path clip-path="url(#pef2f7ba7b4)" d="M 259.457143 100.142945 
L 259.457143 72.029858 
" style="fill:none;stroke:#000000;stroke-width:1.5;"/>
    <path clip-path="url(#pef2f7ba7b4)" d="M 355.114286 115.759964 
L 355.114286 73.380348 
" style="fill:none;stroke:#000000;stroke-width:1.5;"/>
    <path clip-path="url(#pef2f7ba7b4)" d="M 450.771429 85.053564 
L 450.771429 77.386003 
" style="fill:none;stroke:#000000;stroke-width:1.5;"/>
    <path clip-path="url(#pef2f7ba7b4)" d="M 546.428571 80.416769 
L 546.428571 72.755472 
" style="fill:none;stroke:#000000;stroke-width:1.5;"/>
    <path clip-path="url(#pef2f7ba7b4)" d="M 642.085714 106.407023 
L 642.085714 81.192223 
" style="fill:none;stroke:#000000;stroke-width:1.5;"/>
   </g>
   <g id="LineCollection_4">
    <path clip-path="url(#pef2f7ba7b4)" d="M 176.554286 98.587145 
L 176.554286 92.098939 
" style="fill:none;stroke:#000000;stroke-width:1.5;"/>
    <path clip-path="url(#pef2f7ba7b4)" d="M 272.211429 101.217989 
L 272.211429 91.549183 
" style="fill:none;stroke:#000000;stroke-width:1.5;"/>
    <path clip-path="url(#pef2f7ba7b4)" d="M 367.868571 101.701613 
L 367.868571 93.018639 
" style="fill:none;stroke:#000000;stroke-width:1.5;"/>
    <path clip-path="url(#pef2f7ba7b4)" d="M 463.525714 97.281818 
L 463.525714 93.906516 
" style="fill:none;stroke:#000000;stroke-width:1.5;"/>
    <path clip-path="url(#pef2f7ba7b4)" d="M 559.182857 97.493726 
L 559.182857 95.230582 
" style="fill:none;stroke:#000000;stroke-width:1.5;"/>
    <path clip-path="url(#pef2f7ba7b4)" d="M 654.84 96.76668 
L 654.84 93.125625 
" style="fill:none;stroke:#000000;stroke-width:1.5;"/>
   </g>
   <g id="LineCollection_5">
    <path clip-path="url(#pef2f7ba7b4)" d="M 189.308571 133.589226 
L 189.308571 117.796062 
" style="fill:none;stroke:#000000;stroke-width:1.5;"/>
    <path clip-path="url(#pef2f7ba7b4)" d="M 284.965714 128.085573 
L 284.965714 125.107919 
" style="fill:none;stroke:#000000;stroke-width:1.5;"/>
    <path clip-path="url(#pef2f7ba7b4)" d="M 380.622857 131.238918 
L 380.622857 126.675686 
" style="fill:none;stroke:#000000;stroke-width:1.5;"/>
    <path clip-path="url(#pef2f7ba7b4)" d="M 476.28 131.505963 
L 476.28 128.273128 
" style="fill:none;stroke:#000000;stroke-width:1.5;"/>
    <path clip-path="url(#pef2f7ba7b4)" d="M 0 0 
" style="fill:none;stroke:#000000;stroke-width:1.5;"/>
    <path clip-path="url(#pef2f7ba7b4)" d="M 0 0 
" style="fill:none;stroke:#000000;stroke-width:1.5;"/>
   </g>
   <g id="LineCollection_6">
    <path clip-path="url(#pef2f7ba7b4)" d="M 202.062857 134.457003 
L 202.062857 78.928358 
" style="fill:none;stroke:#000000;stroke-width:1.5;"/>
    <path clip-path="url(#pef2f7ba7b4)" d="M 297.72 122.391491 
L 297.72 92.445681 
" style="fill:none;stroke:#000000;stroke-width:1.5;"/>
    <path clip-path="url(#pef2f7ba7b4)" d="M 393.377143 225.078832 
L 393.377143 210.95908 
" style="fill:none;stroke:#000000;stroke-width:1.5;"/>
    <path clip-path="url(#pef2f7ba7b4)" d="M 489.034286 301.632317 
L 489.034286 301.358593 
" style="fill:none;stroke:#000000;stroke-width:1.5;"/>
    <path clip-path="url(#pef2f7ba7b4)" d="M 584.691429 319.934413 
L 584.691429 319.796465 
" style="fill:none;stroke:#000000;stroke-width:1.5;"/>
    <path clip-path="url(#pef2f7ba7b4)" d="M 680.348571 320.348987 
L 680.348571 320.336419 
" style="fill:none;stroke:#000000;stroke-width:1.5;"/>
   </g>
   <g id="patch_39">
    <path d="M 108 320.4 
L 108 43.2 
" style="fill:none;stroke:#777777;stroke-linecap:square;stroke-linejoin:miter;stroke-width:0.8;"/>
   </g>
   <g id="patch_40">
    <path d="M 710.64 320.4 
L 710.64 43.2 
" style="fill:none;"/>
   </g>
   <g id="patch_41">
    <path d="M 108 320.4 
L 710.64 320.4 
" style="fill:none;stroke:#777777;stroke-linecap:square;stroke-linejoin:miter;stroke-width:0.8;"/>
   </g>
   <g id="patch_42">
    <path d="M 108 43.2 
L 710.64 43.2 
" style="fill:none;"/>
   </g>
   <g id="text_16">
    <!-- Throughput -->
    <g style="fill:#585858;" transform="translate(374.472188 37.2)scale(0.12 -0.12)">
     <use xlink:href="#DejaVuSans-84"/>
     <use x="61.083984" xlink:href="#DejaVuSans-104"/>
     <use x="124.462891" xlink:href="#DejaVuSans-114"/>
     <use x="163.326172" xlink:href="#DejaVuSans-111"/>
     <use x="224.507812" xlink:href="#DejaVuSans-117"/>
     <use x="287.886719" xlink:href="#DejaVuSans-103"/>
     <use x="351.363281" xlink:href="#DejaVuSans-104"/>
     <use x="414.742188" xlink:href="#DejaVuSans-112"/>
     <use x="478.21875" xlink:href="#DejaVuSans-117"/>
     <use x="541.597656" xlink:href="#DejaVuSans-116"/>
    </g>
   </g>
   <g id="legend_1">
    <g id="patch_43">
     <path d="M 717.64 227.334375 
L 789.304062 227.334375 
Q 791.304062 227.334375 791.304062 225.334375 
L 791.304062 138.265625 
Q 791.304062 136.265625 789.304062 136.265625 
L 717.64 136.265625 
Q 715.64 136.265625 715.64 138.265625 
L 715.64 225.334375 
Q 715.64 227.334375 717.64 227.334375 
z
" style="fill:#ffffff;opacity:0.8;stroke:#cccccc;stroke-linejoin:miter;"/>
    </g>
    <g id="patch_44">
     <path d="M 719.64 147.864062 
L 739.64 147.864062 
L 739.64 140.864062 
L 719.64 140.864062 
z
" style="fill:#09bac8;"/>
    </g>
    <g id="text_17">
     <!-- none -->
     <g style="fill:#777777;" transform="translate(747.64 147.864062)scale(0.1 -0.1)">
      <defs>
       <path d="M 54.890625 33.015625 
L 54.890625 0 
L 45.90625 0 
L 45.90625 32.71875 
Q 45.90625 40.484375 42.875 44.328125 
Q 39.84375 48.1875 33.796875 48.1875 
Q 26.515625 48.1875 22.3125 43.546875 
Q 18.109375 38.921875 18.109375 30.90625 
L 18.109375 0 
L 9.078125 0 
L 9.078125 54.6875 
L 18.109375 54.6875 
L 18.109375 46.1875 
Q 21.34375 51.125 25.703125 53.5625 
Q 30.078125 56 35.796875 56 
Q 45.21875 56 50.046875 50.171875 
Q 54.890625 44.34375 54.890625 33.015625 
z
" id="DejaVuSans-110"/>
      </defs>
      <use xlink:href="#DejaVuSans-110"/>
      <use x="63.378906" xlink:href="#DejaVuSans-111"/>
      <use x="124.560547" xlink:href="#DejaVuSans-110"/>
      <use x="187.939453" xlink:href="#DejaVuSans-101"/>
     </g>
    </g>
    <g id="patch_45">
     <path d="M 719.64 162.542187 
L 739.64 162.542187 
L 739.64 155.542187 
L 719.64 155.542187 
z
" style="fill:#fff200;"/>
    </g>
    <g id="text_18">
     <!-- tc-bpf -->
     <g style="fill:#777777;" transform="translate(747.64 162.542187)scale(0.1 -0.1)">
      <defs>
       <path d="M 48.78125 52.59375 
L 48.78125 44.1875 
Q 44.96875 46.296875 41.140625 47.34375 
Q 37.3125 48.390625 33.40625 48.390625 
Q 24.65625 48.390625 19.8125 42.84375 
Q 14.984375 37.3125 14.984375 27.296875 
Q 14.984375 17.28125 19.8125 11.734375 
Q 24.65625 6.203125 33.40625 6.203125 
Q 37.3125 6.203125 41.140625 7.25 
Q 44.96875 8.296875 48.78125 10.40625 
L 48.78125 2.09375 
Q 45.015625 0.34375 40.984375 -0.53125 
Q 36.96875 -1.421875 32.421875 -1.421875 
Q 20.0625 -1.421875 12.78125 6.34375 
Q 5.515625 14.109375 5.515625 27.296875 
Q 5.515625 40.671875 12.859375 48.328125 
Q 20.21875 56 33.015625 56 
Q 37.15625 56 41.109375 55.140625 
Q 45.0625 54.296875 48.78125 52.59375 
z
" id="DejaVuSans-99"/>
       <path d="M 4.890625 31.390625 
L 31.203125 31.390625 
L 31.203125 23.390625 
L 4.890625 23.390625 
z
" id="DejaVuSans-45"/>
      </defs>
      <use xlink:href="#DejaVuSans-116"/>
      <use x="39.208984" xlink:href="#DejaVuSans-99"/>
      <use x="94.189453" xlink:href="#DejaVuSans-45"/>
      <use x="130.273438" xlink:href="#DejaVuSans-98"/>
      <use x="193.75" xlink:href="#DejaVuSans-112"/>
      <use x="257.226562" xlink:href="#DejaVuSans-102"/>
     </g>
    </g>
    <g id="patch_46">
     <path d="M 719.64 177.220312 
L 739.64 177.220312 
L 739.64 170.220312 
L 719.64 170.220312 
z
" style="fill:#f72e5c;"/>
    </g>
    <g id="text_19">
     <!-- ipset -->
     <g style="fill:#777777;" transform="translate(747.64 177.220312)scale(0.1 -0.1)">
      <defs>
       <path d="M 9.421875 54.6875 
L 18.40625 54.6875 
L 18.40625 0 
L 9.421875 0 
z
M 9.421875 75.984375 
L 18.40625 75.984375 
L 18.40625 64.59375 
L 9.421875 64.59375 
z
" id="DejaVuSans-105"/>
      </defs>
      <use xlink:href="#DejaVuSans-105"/>
      <use x="27.783203" xlink:href="#DejaVuSans-112"/>
      <use x="91.259766" xlink:href="#DejaVuSans-115"/>
      <use x="143.359375" xlink:href="#DejaVuSans-101"/>
      <use x="204.882812" xlink:href="#DejaVuSans-116"/>
     </g>
    </g>
    <g id="patch_47">
     <path d="M 719.64 191.898438 
L 739.64 191.898438 
L 739.64 184.898438 
L 719.64 184.898438 
z
" style="fill:#17b838;"/>
    </g>
    <g id="text_20">
     <!-- calico -->
     <g style="fill:#777777;" transform="translate(747.64 191.898438)scale(0.1 -0.1)">
      <defs>
       <path d="M 34.28125 27.484375 
Q 23.390625 27.484375 19.1875 25 
Q 14.984375 22.515625 14.984375 16.5 
Q 14.984375 11.71875 18.140625 8.90625 
Q 21.296875 6.109375 26.703125 6.109375 
Q 34.1875 6.109375 38.703125 11.40625 
Q 43.21875 16.703125 43.21875 25.484375 
L 43.21875 27.484375 
z
M 52.203125 31.203125 
L 52.203125 0 
L 43.21875 0 
L 43.21875 8.296875 
Q 40.140625 3.328125 35.546875 0.953125 
Q 30.953125 -1.421875 24.3125 -1.421875 
Q 15.921875 -1.421875 10.953125 3.296875 
Q 6 8.015625 6 15.921875 
Q 6 25.140625 12.171875 29.828125 
Q 18.359375 34.515625 30.609375 34.515625 
L 43.21875 34.515625 
L 43.21875 35.40625 
Q 43.21875 41.609375 39.140625 45 
Q 35.0625 48.390625 27.6875 48.390625 
Q 23 48.390625 18.546875 47.265625 
Q 14.109375 46.140625 10.015625 43.890625 
L 10.015625 52.203125 
Q 14.9375 54.109375 19.578125 55.046875 
Q 24.21875 56 28.609375 56 
Q 40.484375 56 46.34375 49.84375 
Q 52.203125 43.703125 52.203125 31.203125 
z
" id="DejaVuSans-97"/>
      </defs>
      <use xlink:href="#DejaVuSans-99"/>
      <use x="54.980469" xlink:href="#DejaVuSans-97"/>
      <use x="116.259766" xlink:href="#DejaVuSans-108"/>
      <use x="144.042969" xlink:href="#DejaVuSans-105"/>
      <use x="171.826172" xlink:href="#DejaVuSans-99"/>
      <use x="226.806641" xlink:href="#DejaVuSans-111"/>
     </g>
    </g>
    <g id="patch_48">
     <path d="M 719.64 206.576562 
L 739.64 206.576562 
L 739.64 199.576562 
L 719.64 199.576562 
z
" style="fill:#f6830f;"/>
    </g>
    <g id="text_21">
     <!-- cilium -->
     <g style="fill:#777777;" transform="translate(747.64 206.576562)scale(0.1 -0.1)">
      <use xlink:href="#DejaVuSans-99"/>
      <use x="54.980469" xlink:href="#DejaVuSans-105"/>
      <use x="82.763672" xlink:href="#DejaVuSans-108"/>
      <use x="110.546875" xlink:href="#DejaVuSans-105"/>
      <use x="138.330078" xlink:href="#DejaVuSans-117"/>
      <use x="201.708984" xlink:href="#DejaVuSans-109"/>
     </g>
    </g>
    <g id="patch_49">
     <path d="M 719.64 221.254687 
L 739.64 221.254687 
L 739.64 214.254687 
L 719.64 214.254687 
z
" style="fill:#892cdc;"/>
    </g>
    <g id="text_22">
     <!-- iptables -->
     <g style="fill:#777777;" transform="translate(747.64 221.254687)scale(0.1 -0.1)">
      <use xlink:href="#DejaVuSans-105"/>
      <use x="27.783203" xlink:href="#DejaVuSans-112"/>
      <use x="91.259766" xlink:href="#DejaVuSans-116"/>
      <use x="130.46875" xlink:href="#DejaVuSans-97"/>
      <use x="191.748047" xlink:href="#DejaVuSans-98"/>
      <use x="255.224609" xlink:href="#DejaVuSans-108"/>
      <use x="283.007812" xlink:href="#DejaVuSans-101"/>
      <use x="344.53125" xlink:href="#DejaVuSans-115"/>
     </g>
    </g>
   </g>
  </g>
 </g>
 <defs>
  <clipPath id="pef2f7ba7b4">
   <rect height="277.2" width="602.64" x="108" y="43.2"/>
  </clipPath>
 </defs>
</svg>
